%TF.GenerationSoftware,KiCad,Pcbnew,8.0.3*%
%TF.CreationDate,2024-07-03T16:09:19+02:00*%
%TF.ProjectId,dev_board,6465765f-626f-4617-9264-2e6b69636164,rev?*%
%TF.SameCoordinates,Original*%
%TF.FileFunction,Copper,L2,Bot*%
%TF.FilePolarity,Positive*%
%FSLAX46Y46*%
G04 Gerber Fmt 4.6, Leading zero omitted, Abs format (unit mm)*
G04 Created by KiCad (PCBNEW 8.0.3) date 2024-07-03 16:09:19*
%MOMM*%
%LPD*%
G01*
G04 APERTURE LIST*
%TA.AperFunction,ComponentPad*%
%ADD10O,1.800000X1.000000*%
%TD*%
%TA.AperFunction,ComponentPad*%
%ADD11O,2.100000X1.000000*%
%TD*%
%TA.AperFunction,ComponentPad*%
%ADD12C,3.500000*%
%TD*%
%TA.AperFunction,ComponentPad*%
%ADD13O,1.700000X1.700000*%
%TD*%
%TA.AperFunction,ComponentPad*%
%ADD14R,1.700000X1.700000*%
%TD*%
%TA.AperFunction,SMDPad,CuDef*%
%ADD15R,1.000000X1.000000*%
%TD*%
%TA.AperFunction,ViaPad*%
%ADD16C,0.700000*%
%TD*%
%TA.AperFunction,Conductor*%
%ADD17C,0.300000*%
%TD*%
%TA.AperFunction,Conductor*%
%ADD18C,0.500000*%
%TD*%
G04 APERTURE END LIST*
D10*
%TO.P,J1,S1,SHIELD*%
%TO.N,GND*%
X173075000Y-98680000D03*
D11*
X168875000Y-98680000D03*
D10*
X173075000Y-107320000D03*
D11*
X168875000Y-107320000D03*
%TD*%
D12*
%TO.P,H1,1,1*%
%TO.N,GND*%
X114000000Y-94000000D03*
%TD*%
%TO.P,H4,1,1*%
%TO.N,GND*%
X172000000Y-94000000D03*
%TD*%
%TO.P,H2,1,1*%
%TO.N,GND*%
X114000000Y-112000000D03*
%TD*%
D13*
%TO.P,J2,20,Pin_20*%
%TO.N,/B12*%
X167135000Y-92840000D03*
%TO.P,J2,19,Pin_19*%
%TO.N,/B13*%
X164595000Y-92840000D03*
%TO.P,J2,18,Pin_18*%
%TO.N,/B14*%
X162055000Y-92840000D03*
%TO.P,J2,17,Pin_17*%
%TO.N,/B15*%
X159515000Y-92840000D03*
%TO.P,J2,16,Pin_16*%
%TO.N,/A8*%
X156975000Y-92840000D03*
%TO.P,J2,15,Pin_15*%
%TO.N,/A9*%
X154435000Y-92840000D03*
%TO.P,J2,14,Pin_14*%
%TO.N,/A10*%
X151895000Y-92840000D03*
%TO.P,J2,13,Pin_13*%
%TO.N,/A11*%
X149355000Y-92840000D03*
%TO.P,J2,12,Pin_12*%
%TO.N,/A12*%
X146815000Y-92840000D03*
%TO.P,J2,11,Pin_11*%
%TO.N,/A15*%
X144275000Y-92840000D03*
%TO.P,J2,10,Pin_10*%
%TO.N,/B3*%
X141735000Y-92840000D03*
%TO.P,J2,9,Pin_9*%
%TO.N,/B4*%
X139195000Y-92840000D03*
%TO.P,J2,8,Pin_8*%
%TO.N,/B5*%
X136655000Y-92840000D03*
%TO.P,J2,7,Pin_7*%
%TO.N,/B6*%
X134115000Y-92840000D03*
%TO.P,J2,6,Pin_6*%
%TO.N,/B7*%
X131575000Y-92840000D03*
%TO.P,J2,5,Pin_5*%
%TO.N,/B8*%
X129035000Y-92840000D03*
%TO.P,J2,4,Pin_4*%
%TO.N,/B9*%
X126495000Y-92840000D03*
%TO.P,J2,3,Pin_3*%
%TO.N,VBUS*%
X123955000Y-92840000D03*
D14*
%TO.P,J2,2,Pin_2*%
%TO.N,GND*%
X121415000Y-92840000D03*
D13*
%TO.P,J2,1,Pin_1*%
%TO.N,+3.3V*%
X118875000Y-92840000D03*
%TD*%
%TO.P,J3,1,Pin_1*%
%TO.N,VBUS*%
X167135000Y-113160000D03*
D14*
%TO.P,J3,2,Pin_2*%
%TO.N,GND*%
X164595000Y-113160000D03*
D13*
%TO.P,J3,3,Pin_3*%
%TO.N,+3.3V*%
X162055000Y-113160000D03*
%TO.P,J3,4,Pin_4*%
%TO.N,/B11*%
X159515000Y-113160000D03*
%TO.P,J3,5,Pin_5*%
%TO.N,/B10*%
X156975000Y-113160000D03*
%TO.P,J3,6,Pin_6*%
%TO.N,/B2*%
X154435000Y-113160000D03*
%TO.P,J3,7,Pin_7*%
%TO.N,/B1*%
X151895000Y-113160000D03*
%TO.P,J3,8,Pin_8*%
%TO.N,/B0*%
X149355000Y-113160000D03*
%TO.P,J3,9,Pin_9*%
%TO.N,/A7*%
X146815000Y-113160000D03*
%TO.P,J3,10,Pin_10*%
%TO.N,/A6*%
X144275000Y-113160000D03*
%TO.P,J3,11,Pin_11*%
%TO.N,/A5*%
X141735000Y-113160000D03*
%TO.P,J3,12,Pin_12*%
%TO.N,/A4*%
X139195000Y-113160000D03*
%TO.P,J3,13,Pin_13*%
%TO.N,/A3*%
X136655000Y-113160000D03*
%TO.P,J3,14,Pin_14*%
%TO.N,/A2*%
X134115000Y-113160000D03*
%TO.P,J3,15,Pin_15*%
%TO.N,/A1*%
X131575000Y-113160000D03*
%TO.P,J3,16,Pin_16*%
%TO.N,/A0*%
X129035000Y-113160000D03*
%TO.P,J3,17,Pin_17*%
%TO.N,/C15*%
X126495000Y-113160000D03*
%TO.P,J3,18,Pin_18*%
%TO.N,/C14*%
X123955000Y-113160000D03*
%TO.P,J3,19,Pin_19*%
%TO.N,/C13*%
X121415000Y-113160000D03*
%TO.P,J3,20,Pin_20*%
%TO.N,/NRST*%
X118875000Y-113160000D03*
%TD*%
D12*
%TO.P,H3,1,1*%
%TO.N,GND*%
X172000000Y-112000000D03*
%TD*%
D13*
%TO.P,J4,4,Pin_4*%
%TO.N,+3.3V*%
X114000000Y-99190000D03*
%TO.P,J4,3,Pin_3*%
%TO.N,/SWDIO*%
X114000000Y-101730000D03*
%TO.P,J4,2,Pin_2*%
%TO.N,/SWCLK*%
X114000000Y-104270000D03*
D14*
%TO.P,J4,1,Pin_1*%
%TO.N,GND*%
X114000000Y-106810000D03*
%TD*%
D15*
%TO.P,TP3,1,1*%
%TO.N,/DP*%
X172250000Y-101750000D03*
%TD*%
%TO.P,TP1,1,1*%
%TO.N,GND*%
X168500000Y-103000000D03*
%TD*%
%TO.P,TP4,1,1*%
%TO.N,/BOOT0*%
X120500000Y-106750000D03*
%TD*%
%TO.P,TP2,1,1*%
%TO.N,/DN*%
X172250000Y-104250000D03*
%TD*%
D16*
%TO.N,GND*%
X138934262Y-102450000D03*
X135035589Y-100964411D03*
X164357475Y-96607475D03*
X130500000Y-96250000D03*
X136720000Y-110042500D03*
X134250000Y-103500000D03*
X125030000Y-108750000D03*
X153000000Y-102800000D03*
X136499391Y-106950000D03*
X126500000Y-101750000D03*
X165500000Y-103800000D03*
X131035000Y-110000000D03*
X145375000Y-96375000D03*
X155000000Y-110000000D03*
X141250000Y-105750000D03*
X154000000Y-110000000D03*
X162500000Y-106000000D03*
%TO.N,+3.3V*%
X142500000Y-97250000D03*
X134750000Y-104500000D03*
X150250000Y-104500000D03*
X132839411Y-97250000D03*
X132750000Y-104500000D03*
%TO.N,/NRST*%
X135750000Y-102750000D03*
X123750000Y-102750000D03*
%TO.N,+3.3VA*%
X128250000Y-108827297D03*
X137309099Y-108827297D03*
%TO.N,/CC2*%
X164784314Y-98784314D03*
X166750000Y-101250000D03*
%TO.N,/BOOT0*%
X139750000Y-101750000D03*
X125500000Y-101750000D03*
X120500000Y-101750000D03*
X132750000Y-101750000D03*
%TO.N,/SWCLK*%
X141841234Y-100250000D03*
%TO.N,/SWDIO*%
X142795619Y-99500000D03*
%TO.N,/A11*%
X145858578Y-98297918D03*
X153250000Y-98250000D03*
%TO.N,/DN*%
X169750000Y-104250000D03*
%TO.N,/DP*%
X169750000Y-101750000D03*
%TO.N,VBUS*%
X166250000Y-94750000D03*
%TD*%
D17*
%TO.N,/BOOT0*%
X122250000Y-101750000D02*
X120500000Y-103500000D01*
X120500000Y-103500000D02*
X120500000Y-106750000D01*
X122250000Y-101750000D02*
X121750000Y-101750000D01*
X125500000Y-101750000D02*
X122250000Y-101750000D01*
D18*
%TO.N,GND*%
X121090000Y-92840000D02*
X120000000Y-91750000D01*
X121660000Y-92840000D02*
X122750000Y-91750000D01*
X164910000Y-113160000D02*
X166000000Y-114250000D01*
X164595000Y-113160000D02*
X164910000Y-113160000D01*
X164340000Y-113160000D02*
X163250000Y-114250000D01*
X164340000Y-113160000D02*
X164595000Y-113160000D01*
%TO.N,+3.3VA*%
X137309099Y-108827297D02*
X128250000Y-108827297D01*
D17*
%TO.N,/BOOT0*%
X121750000Y-101750000D02*
X120500000Y-101750000D01*
%TO.N,/SWCLK*%
X141841234Y-100250000D02*
X118000000Y-100250000D01*
X118000000Y-100250000D02*
X114000000Y-104250000D01*
X114000000Y-104250000D02*
X114000000Y-104270000D01*
%TO.N,/SWDIO*%
X142795619Y-99500000D02*
X116230000Y-99500000D01*
X116230000Y-99500000D02*
X114000000Y-101730000D01*
D18*
%TO.N,GND*%
X121415000Y-92840000D02*
X121840000Y-92840000D01*
%TO.N,+3.3V*%
X134750000Y-104500000D02*
X132750000Y-104500000D01*
X150250000Y-104500000D02*
X134750000Y-104500000D01*
D17*
X132839411Y-97250000D02*
X142500000Y-97250000D01*
%TO.N,/NRST*%
X123750000Y-102750000D02*
X135750000Y-102750000D01*
%TO.N,/CC2*%
X166750000Y-101250000D02*
X164784314Y-99284314D01*
X164784314Y-99284314D02*
X164784314Y-98784314D01*
%TO.N,/BOOT0*%
X139750000Y-101750000D02*
X132750000Y-101750000D01*
%TO.N,/DN*%
X169750000Y-104250000D02*
X172250000Y-104250000D01*
%TO.N,/DP*%
X169750000Y-101750000D02*
X172250000Y-101750000D01*
%TO.N,/A11*%
X153250000Y-98250000D02*
X153202082Y-98297918D01*
X153202082Y-98297918D02*
X145858578Y-98297918D01*
D18*
%TO.N,VBUS*%
X125865000Y-94750000D02*
X123955000Y-92840000D01*
X166250000Y-94750000D02*
X125865000Y-94750000D01*
%TD*%
%TA.AperFunction,Conductor*%
%TO.N,GND*%
G36*
X120352608Y-91320502D02*
G01*
X120399101Y-91374158D01*
X120409205Y-91444432D01*
X120379711Y-91509012D01*
X120328519Y-91544556D01*
X120322910Y-91546647D01*
X120207810Y-91632810D01*
X120121647Y-91747910D01*
X120071400Y-91882628D01*
X120065000Y-91942159D01*
X120065000Y-92216211D01*
X120044998Y-92284332D01*
X119991342Y-92330825D01*
X119921068Y-92340929D01*
X119856488Y-92311435D01*
X119826210Y-92272375D01*
X119818088Y-92256066D01*
X119818087Y-92256064D01*
X119806260Y-92240403D01*
X119787992Y-92216211D01*
X119694733Y-92092715D01*
X119543463Y-91954814D01*
X119369433Y-91847059D01*
X119369428Y-91847057D01*
X119369427Y-91847056D01*
X119369422Y-91847054D01*
X119178559Y-91773113D01*
X119178560Y-91773113D01*
X119178557Y-91773112D01*
X119178556Y-91773112D01*
X118977347Y-91735500D01*
X118772653Y-91735500D01*
X118617713Y-91764463D01*
X118571439Y-91773113D01*
X118380577Y-91847054D01*
X118380566Y-91847059D01*
X118206536Y-91954814D01*
X118055266Y-92092715D01*
X117931913Y-92256063D01*
X117840671Y-92439301D01*
X117784654Y-92636180D01*
X117765768Y-92839995D01*
X117765768Y-92840004D01*
X117784654Y-93043819D01*
X117804967Y-93115210D01*
X117840672Y-93240701D01*
X117931912Y-93423935D01*
X117931913Y-93423936D01*
X118055266Y-93587284D01*
X118206536Y-93725185D01*
X118380566Y-93832940D01*
X118380568Y-93832940D01*
X118380573Y-93832944D01*
X118571444Y-93906888D01*
X118772653Y-93944500D01*
X118772655Y-93944500D01*
X118977345Y-93944500D01*
X118977347Y-93944500D01*
X119178556Y-93906888D01*
X119369427Y-93832944D01*
X119543462Y-93725186D01*
X119694732Y-93587285D01*
X119818088Y-93423935D01*
X119826209Y-93407626D01*
X119874478Y-93355562D01*
X119943232Y-93337859D01*
X120010642Y-93360138D01*
X120055307Y-93415325D01*
X120065000Y-93463788D01*
X120065000Y-93737840D01*
X120071400Y-93797371D01*
X120121647Y-93932089D01*
X120207810Y-94047189D01*
X120322910Y-94133352D01*
X120457628Y-94183599D01*
X120517159Y-94189999D01*
X120517176Y-94190000D01*
X121165000Y-94190000D01*
X121165000Y-93273012D01*
X121222007Y-93305925D01*
X121349174Y-93340000D01*
X121480826Y-93340000D01*
X121607993Y-93305925D01*
X121665000Y-93273012D01*
X121665000Y-94190000D01*
X122312824Y-94190000D01*
X122312840Y-94189999D01*
X122372371Y-94183599D01*
X122507089Y-94133352D01*
X122622189Y-94047189D01*
X122708352Y-93932089D01*
X122758599Y-93797371D01*
X122764999Y-93737840D01*
X122765000Y-93737823D01*
X122765000Y-93463788D01*
X122785002Y-93395667D01*
X122838658Y-93349174D01*
X122908932Y-93339070D01*
X122973512Y-93368564D01*
X123003791Y-93407626D01*
X123011911Y-93423934D01*
X123011912Y-93423935D01*
X123135266Y-93587284D01*
X123286536Y-93725185D01*
X123460566Y-93832940D01*
X123460568Y-93832940D01*
X123460573Y-93832944D01*
X123651444Y-93906888D01*
X123852653Y-93944500D01*
X123852655Y-93944500D01*
X124057344Y-93944500D01*
X124057347Y-93944500D01*
X124235283Y-93911238D01*
X124305916Y-93918383D01*
X124347527Y-93945998D01*
X125555223Y-95153695D01*
X125555227Y-95153698D01*
X125555230Y-95153701D01*
X125628162Y-95195808D01*
X125670270Y-95220119D01*
X125798581Y-95254500D01*
X125798582Y-95254500D01*
X125931419Y-95254500D01*
X165871706Y-95254500D01*
X165937959Y-95273953D01*
X165937990Y-95273901D01*
X165938207Y-95274026D01*
X165939827Y-95274502D01*
X165943478Y-95277069D01*
X165945138Y-95278027D01*
X165945142Y-95278030D01*
X166092194Y-95338940D01*
X166250000Y-95359716D01*
X166407806Y-95338940D01*
X166500536Y-95300530D01*
X166554857Y-95278031D01*
X166681134Y-95181134D01*
X166778031Y-95054857D01*
X166800530Y-95000536D01*
X166838940Y-94907806D01*
X166859716Y-94750000D01*
X166838940Y-94592194D01*
X166816439Y-94537872D01*
X166778031Y-94445142D01*
X166681134Y-94318865D01*
X166554857Y-94221968D01*
X166407806Y-94161060D01*
X166250000Y-94140284D01*
X166092193Y-94161060D01*
X165945143Y-94221969D01*
X165937990Y-94226099D01*
X165936758Y-94223966D01*
X165882192Y-94245063D01*
X165871706Y-94245500D01*
X126126161Y-94245500D01*
X126058040Y-94225498D01*
X126037066Y-94208595D01*
X125869291Y-94040820D01*
X125846999Y-93999996D01*
X169745172Y-93999996D01*
X169745172Y-94000003D01*
X169764461Y-94294309D01*
X169764463Y-94294324D01*
X169822003Y-94583593D01*
X169822004Y-94583597D01*
X169916810Y-94862881D01*
X169916814Y-94862891D01*
X170047260Y-95127411D01*
X170211124Y-95372651D01*
X170211127Y-95372655D01*
X170240404Y-95406039D01*
X170240406Y-95406039D01*
X171063708Y-94582736D01*
X171160967Y-94716602D01*
X171283398Y-94839033D01*
X171417261Y-94936289D01*
X170593959Y-95759592D01*
X170593959Y-95759594D01*
X170627344Y-95788872D01*
X170627348Y-95788875D01*
X170872588Y-95952739D01*
X171137108Y-96083185D01*
X171137118Y-96083189D01*
X171416402Y-96177995D01*
X171416406Y-96177996D01*
X171705675Y-96235536D01*
X171705690Y-96235538D01*
X171999997Y-96254828D01*
X172000003Y-96254828D01*
X172294309Y-96235538D01*
X172294324Y-96235536D01*
X172583593Y-96177996D01*
X172583597Y-96177995D01*
X172862881Y-96083189D01*
X172862891Y-96083185D01*
X173127411Y-95952739D01*
X173372650Y-95788876D01*
X173406040Y-95759593D01*
X172582737Y-94936290D01*
X172716602Y-94839033D01*
X172839033Y-94716602D01*
X172936290Y-94582737D01*
X173759593Y-95406040D01*
X173788876Y-95372650D01*
X173952739Y-95127411D01*
X174083185Y-94862891D01*
X174083189Y-94862881D01*
X174177995Y-94583597D01*
X174177996Y-94583593D01*
X174235536Y-94294324D01*
X174235538Y-94294309D01*
X174254828Y-94000003D01*
X174254828Y-93999996D01*
X174235538Y-93705690D01*
X174235536Y-93705675D01*
X174177996Y-93416406D01*
X174177995Y-93416402D01*
X174083189Y-93137118D01*
X174083185Y-93137108D01*
X173952739Y-92872588D01*
X173788875Y-92627348D01*
X173788872Y-92627344D01*
X173759594Y-92593959D01*
X173759592Y-92593959D01*
X172936289Y-93417261D01*
X172839033Y-93283398D01*
X172716602Y-93160967D01*
X172582736Y-93063709D01*
X173406039Y-92240406D01*
X173406039Y-92240404D01*
X173372655Y-92211127D01*
X173372651Y-92211124D01*
X173127411Y-92047260D01*
X172862891Y-91916814D01*
X172862881Y-91916810D01*
X172583597Y-91822004D01*
X172583593Y-91822003D01*
X172294324Y-91764463D01*
X172294309Y-91764461D01*
X172000003Y-91745172D01*
X171999997Y-91745172D01*
X171705690Y-91764461D01*
X171705675Y-91764463D01*
X171416406Y-91822003D01*
X171416402Y-91822004D01*
X171137118Y-91916810D01*
X171137108Y-91916814D01*
X170872588Y-92047260D01*
X170627346Y-92211125D01*
X170593959Y-92240403D01*
X170593959Y-92240406D01*
X171417262Y-93063709D01*
X171283398Y-93160967D01*
X171160967Y-93283398D01*
X171063709Y-93417262D01*
X170240406Y-92593959D01*
X170240403Y-92593959D01*
X170211125Y-92627346D01*
X170047260Y-92872588D01*
X169916814Y-93137108D01*
X169916810Y-93137118D01*
X169822004Y-93416402D01*
X169822003Y-93416406D01*
X169764463Y-93705675D01*
X169764461Y-93705690D01*
X169745172Y-93999996D01*
X125846999Y-93999996D01*
X125835265Y-93978508D01*
X125840330Y-93907693D01*
X125882877Y-93850857D01*
X125949397Y-93826046D01*
X126003902Y-93834233D01*
X126191444Y-93906888D01*
X126392653Y-93944500D01*
X126392655Y-93944500D01*
X126597345Y-93944500D01*
X126597347Y-93944500D01*
X126798556Y-93906888D01*
X126989427Y-93832944D01*
X127163462Y-93725186D01*
X127314732Y-93587285D01*
X127438088Y-93423935D01*
X127529328Y-93240701D01*
X127585345Y-93043821D01*
X127598672Y-92900000D01*
X127604232Y-92840004D01*
X127604232Y-92839995D01*
X127925768Y-92839995D01*
X127925768Y-92840004D01*
X127944654Y-93043819D01*
X127964967Y-93115210D01*
X128000672Y-93240701D01*
X128091912Y-93423935D01*
X128091913Y-93423936D01*
X128215266Y-93587284D01*
X128366536Y-93725185D01*
X128540566Y-93832940D01*
X128540568Y-93832940D01*
X128540573Y-93832944D01*
X128731444Y-93906888D01*
X128932653Y-93944500D01*
X128932655Y-93944500D01*
X129137345Y-93944500D01*
X129137347Y-93944500D01*
X129338556Y-93906888D01*
X129529427Y-93832944D01*
X129703462Y-93725186D01*
X129854732Y-93587285D01*
X129978088Y-93423935D01*
X130069328Y-93240701D01*
X130125345Y-93043821D01*
X130138672Y-92900000D01*
X130144232Y-92840004D01*
X130144232Y-92839995D01*
X130465768Y-92839995D01*
X130465768Y-92840004D01*
X130484654Y-93043819D01*
X130504967Y-93115210D01*
X130540672Y-93240701D01*
X130631912Y-93423935D01*
X130631913Y-93423936D01*
X130755266Y-93587284D01*
X130906536Y-93725185D01*
X131080566Y-93832940D01*
X131080568Y-93832940D01*
X131080573Y-93832944D01*
X131271444Y-93906888D01*
X131472653Y-93944500D01*
X131472655Y-93944500D01*
X131677345Y-93944500D01*
X131677347Y-93944500D01*
X131878556Y-93906888D01*
X132069427Y-93832944D01*
X132243462Y-93725186D01*
X132394732Y-93587285D01*
X132518088Y-93423935D01*
X132609328Y-93240701D01*
X132665345Y-93043821D01*
X132678672Y-92900000D01*
X132684232Y-92840004D01*
X132684232Y-92839995D01*
X133005768Y-92839995D01*
X133005768Y-92840004D01*
X133024654Y-93043819D01*
X133044967Y-93115210D01*
X133080672Y-93240701D01*
X133171912Y-93423935D01*
X133171913Y-93423936D01*
X133295266Y-93587284D01*
X133446536Y-93725185D01*
X133620566Y-93832940D01*
X133620568Y-93832940D01*
X133620573Y-93832944D01*
X133811444Y-93906888D01*
X134012653Y-93944500D01*
X134012655Y-93944500D01*
X134217345Y-93944500D01*
X134217347Y-93944500D01*
X134418556Y-93906888D01*
X134609427Y-93832944D01*
X134783462Y-93725186D01*
X134934732Y-93587285D01*
X135058088Y-93423935D01*
X135149328Y-93240701D01*
X135205345Y-93043821D01*
X135218672Y-92900000D01*
X135224232Y-92840004D01*
X135224232Y-92839995D01*
X135545768Y-92839995D01*
X135545768Y-92840004D01*
X135564654Y-93043819D01*
X135584967Y-93115210D01*
X135620672Y-93240701D01*
X135711912Y-93423935D01*
X135711913Y-93423936D01*
X135835266Y-93587284D01*
X135986536Y-93725185D01*
X136160566Y-93832940D01*
X136160568Y-93832940D01*
X136160573Y-93832944D01*
X136351444Y-93906888D01*
X136552653Y-93944500D01*
X136552655Y-93944500D01*
X136757345Y-93944500D01*
X136757347Y-93944500D01*
X136958556Y-93906888D01*
X137149427Y-93832944D01*
X137323462Y-93725186D01*
X137474732Y-93587285D01*
X137598088Y-93423935D01*
X137689328Y-93240701D01*
X137745345Y-93043821D01*
X137758672Y-92900000D01*
X137764232Y-92840004D01*
X137764232Y-92839995D01*
X138085768Y-92839995D01*
X138085768Y-92840004D01*
X138104654Y-93043819D01*
X138124967Y-93115210D01*
X138160672Y-93240701D01*
X138251912Y-93423935D01*
X138251913Y-93423936D01*
X138375266Y-93587284D01*
X138526536Y-93725185D01*
X138700566Y-93832940D01*
X138700568Y-93832940D01*
X138700573Y-93832944D01*
X138891444Y-93906888D01*
X139092653Y-93944500D01*
X139092655Y-93944500D01*
X139297345Y-93944500D01*
X139297347Y-93944500D01*
X139498556Y-93906888D01*
X139689427Y-93832944D01*
X139863462Y-93725186D01*
X140014732Y-93587285D01*
X140138088Y-93423935D01*
X140229328Y-93240701D01*
X140285345Y-93043821D01*
X140298672Y-92900000D01*
X140304232Y-92840004D01*
X140304232Y-92839995D01*
X140625768Y-92839995D01*
X140625768Y-92840004D01*
X140644654Y-93043819D01*
X140664967Y-93115210D01*
X140700672Y-93240701D01*
X140791912Y-93423935D01*
X140791913Y-93423936D01*
X140915266Y-93587284D01*
X141066536Y-93725185D01*
X141240566Y-93832940D01*
X141240568Y-93832940D01*
X141240573Y-93832944D01*
X141431444Y-93906888D01*
X141632653Y-93944500D01*
X141632655Y-93944500D01*
X141837345Y-93944500D01*
X141837347Y-93944500D01*
X142038556Y-93906888D01*
X142229427Y-93832944D01*
X142403462Y-93725186D01*
X142554732Y-93587285D01*
X142678088Y-93423935D01*
X142769328Y-93240701D01*
X142825345Y-93043821D01*
X142838672Y-92900000D01*
X142844232Y-92840004D01*
X142844232Y-92839995D01*
X143165768Y-92839995D01*
X143165768Y-92840004D01*
X143184654Y-93043819D01*
X143204967Y-93115210D01*
X143240672Y-93240701D01*
X143331912Y-93423935D01*
X143331913Y-93423936D01*
X143455266Y-93587284D01*
X143606536Y-93725185D01*
X143780566Y-93832940D01*
X143780568Y-93832940D01*
X143780573Y-93832944D01*
X143971444Y-93906888D01*
X144172653Y-93944500D01*
X144172655Y-93944500D01*
X144377345Y-93944500D01*
X144377347Y-93944500D01*
X144578556Y-93906888D01*
X144769427Y-93832944D01*
X144943462Y-93725186D01*
X145094732Y-93587285D01*
X145218088Y-93423935D01*
X145309328Y-93240701D01*
X145365345Y-93043821D01*
X145378672Y-92900000D01*
X145384232Y-92840004D01*
X145384232Y-92839995D01*
X145705768Y-92839995D01*
X145705768Y-92840004D01*
X145724654Y-93043819D01*
X145744967Y-93115210D01*
X145780672Y-93240701D01*
X145871912Y-93423935D01*
X145871913Y-93423936D01*
X145995266Y-93587284D01*
X146146536Y-93725185D01*
X146320566Y-93832940D01*
X146320568Y-93832940D01*
X146320573Y-93832944D01*
X146511444Y-93906888D01*
X146712653Y-93944500D01*
X146712655Y-93944500D01*
X146917345Y-93944500D01*
X146917347Y-93944500D01*
X147118556Y-93906888D01*
X147309427Y-93832944D01*
X147483462Y-93725186D01*
X147634732Y-93587285D01*
X147758088Y-93423935D01*
X147849328Y-93240701D01*
X147905345Y-93043821D01*
X147918672Y-92900000D01*
X147924232Y-92840004D01*
X147924232Y-92839995D01*
X148245768Y-92839995D01*
X148245768Y-92840004D01*
X148264654Y-93043819D01*
X148284967Y-93115210D01*
X148320672Y-93240701D01*
X148411912Y-93423935D01*
X148411913Y-93423936D01*
X148535266Y-93587284D01*
X148686536Y-93725185D01*
X148860566Y-93832940D01*
X148860568Y-93832940D01*
X148860573Y-93832944D01*
X149051444Y-93906888D01*
X149252653Y-93944500D01*
X149252655Y-93944500D01*
X149457345Y-93944500D01*
X149457347Y-93944500D01*
X149658556Y-93906888D01*
X149849427Y-93832944D01*
X150023462Y-93725186D01*
X150174732Y-93587285D01*
X150298088Y-93423935D01*
X150389328Y-93240701D01*
X150445345Y-93043821D01*
X150458672Y-92900000D01*
X150464232Y-92840004D01*
X150464232Y-92839995D01*
X150785768Y-92839995D01*
X150785768Y-92840004D01*
X150804654Y-93043819D01*
X150824967Y-93115210D01*
X150860672Y-93240701D01*
X150951912Y-93423935D01*
X150951913Y-93423936D01*
X151075266Y-93587284D01*
X151226536Y-93725185D01*
X151400566Y-93832940D01*
X151400568Y-93832940D01*
X151400573Y-93832944D01*
X151591444Y-93906888D01*
X151792653Y-93944500D01*
X151792655Y-93944500D01*
X151997345Y-93944500D01*
X151997347Y-93944500D01*
X152198556Y-93906888D01*
X152389427Y-93832944D01*
X152563462Y-93725186D01*
X152714732Y-93587285D01*
X152838088Y-93423935D01*
X152929328Y-93240701D01*
X152985345Y-93043821D01*
X152998672Y-92900000D01*
X153004232Y-92840004D01*
X153004232Y-92839995D01*
X153325768Y-92839995D01*
X153325768Y-92840004D01*
X153344654Y-93043819D01*
X153364967Y-93115210D01*
X153400672Y-93240701D01*
X153491912Y-93423935D01*
X153491913Y-93423936D01*
X153615266Y-93587284D01*
X153766536Y-93725185D01*
X153940566Y-93832940D01*
X153940568Y-93832940D01*
X153940573Y-93832944D01*
X154131444Y-93906888D01*
X154332653Y-93944500D01*
X154332655Y-93944500D01*
X154537345Y-93944500D01*
X154537347Y-93944500D01*
X154738556Y-93906888D01*
X154929427Y-93832944D01*
X155103462Y-93725186D01*
X155254732Y-93587285D01*
X155378088Y-93423935D01*
X155469328Y-93240701D01*
X155525345Y-93043821D01*
X155538672Y-92900000D01*
X155544232Y-92840004D01*
X155544232Y-92839995D01*
X155865768Y-92839995D01*
X155865768Y-92840004D01*
X155884654Y-93043819D01*
X155904967Y-93115210D01*
X155940672Y-93240701D01*
X156031912Y-93423935D01*
X156031913Y-93423936D01*
X156155266Y-93587284D01*
X156306536Y-93725185D01*
X156480566Y-93832940D01*
X156480568Y-93832940D01*
X156480573Y-93832944D01*
X156671444Y-93906888D01*
X156872653Y-93944500D01*
X156872655Y-93944500D01*
X157077345Y-93944500D01*
X157077347Y-93944500D01*
X157278556Y-93906888D01*
X157469427Y-93832944D01*
X157643462Y-93725186D01*
X157794732Y-93587285D01*
X157918088Y-93423935D01*
X158009328Y-93240701D01*
X158065345Y-93043821D01*
X158078672Y-92900000D01*
X158084232Y-92840004D01*
X158084232Y-92839995D01*
X158405768Y-92839995D01*
X158405768Y-92840004D01*
X158424654Y-93043819D01*
X158444967Y-93115210D01*
X158480672Y-93240701D01*
X158571912Y-93423935D01*
X158571913Y-93423936D01*
X158695266Y-93587284D01*
X158846536Y-93725185D01*
X159020566Y-93832940D01*
X159020568Y-93832940D01*
X159020573Y-93832944D01*
X159211444Y-93906888D01*
X159412653Y-93944500D01*
X159412655Y-93944500D01*
X159617345Y-93944500D01*
X159617347Y-93944500D01*
X159818556Y-93906888D01*
X160009427Y-93832944D01*
X160183462Y-93725186D01*
X160334732Y-93587285D01*
X160458088Y-93423935D01*
X160549328Y-93240701D01*
X160605345Y-93043821D01*
X160618672Y-92900000D01*
X160624232Y-92840004D01*
X160624232Y-92839995D01*
X160945768Y-92839995D01*
X160945768Y-92840004D01*
X160964654Y-93043819D01*
X160984967Y-93115210D01*
X161020672Y-93240701D01*
X161111912Y-93423935D01*
X161111913Y-93423936D01*
X161235266Y-93587284D01*
X161386536Y-93725185D01*
X161560566Y-93832940D01*
X161560568Y-93832940D01*
X161560573Y-93832944D01*
X161751444Y-93906888D01*
X161952653Y-93944500D01*
X161952655Y-93944500D01*
X162157345Y-93944500D01*
X162157347Y-93944500D01*
X162358556Y-93906888D01*
X162549427Y-93832944D01*
X162723462Y-93725186D01*
X162874732Y-93587285D01*
X162998088Y-93423935D01*
X163089328Y-93240701D01*
X163145345Y-93043821D01*
X163158672Y-92900000D01*
X163164232Y-92840004D01*
X163164232Y-92839995D01*
X163485768Y-92839995D01*
X163485768Y-92840004D01*
X163504654Y-93043819D01*
X163524967Y-93115210D01*
X163560672Y-93240701D01*
X163651912Y-93423935D01*
X163651913Y-93423936D01*
X163775266Y-93587284D01*
X163926536Y-93725185D01*
X164100566Y-93832940D01*
X164100568Y-93832940D01*
X164100573Y-93832944D01*
X164291444Y-93906888D01*
X164492653Y-93944500D01*
X164492655Y-93944500D01*
X164697345Y-93944500D01*
X164697347Y-93944500D01*
X164898556Y-93906888D01*
X165089427Y-93832944D01*
X165263462Y-93725186D01*
X165414732Y-93587285D01*
X165538088Y-93423935D01*
X165629328Y-93240701D01*
X165685345Y-93043821D01*
X165698672Y-92900000D01*
X165704232Y-92840004D01*
X165704232Y-92839995D01*
X166025768Y-92839995D01*
X166025768Y-92840004D01*
X166044654Y-93043819D01*
X166064967Y-93115210D01*
X166100672Y-93240701D01*
X166191912Y-93423935D01*
X166191913Y-93423936D01*
X166315266Y-93587284D01*
X166466536Y-93725185D01*
X166640566Y-93832940D01*
X166640568Y-93832940D01*
X166640573Y-93832944D01*
X166831444Y-93906888D01*
X167032653Y-93944500D01*
X167032655Y-93944500D01*
X167237345Y-93944500D01*
X167237347Y-93944500D01*
X167438556Y-93906888D01*
X167629427Y-93832944D01*
X167803462Y-93725186D01*
X167954732Y-93587285D01*
X168078088Y-93423935D01*
X168169328Y-93240701D01*
X168225345Y-93043821D01*
X168238672Y-92900000D01*
X168244232Y-92840004D01*
X168244232Y-92839995D01*
X168225345Y-92636180D01*
X168217897Y-92610002D01*
X168169328Y-92439299D01*
X168078088Y-92256065D01*
X168037538Y-92202368D01*
X167954733Y-92092715D01*
X167803463Y-91954814D01*
X167629433Y-91847059D01*
X167629428Y-91847057D01*
X167629427Y-91847056D01*
X167629422Y-91847054D01*
X167438559Y-91773113D01*
X167438560Y-91773113D01*
X167438557Y-91773112D01*
X167438556Y-91773112D01*
X167237347Y-91735500D01*
X167032653Y-91735500D01*
X166877713Y-91764463D01*
X166831439Y-91773113D01*
X166640577Y-91847054D01*
X166640566Y-91847059D01*
X166466536Y-91954814D01*
X166315266Y-92092715D01*
X166191913Y-92256063D01*
X166100671Y-92439301D01*
X166044654Y-92636180D01*
X166025768Y-92839995D01*
X165704232Y-92839995D01*
X165685345Y-92636180D01*
X165677897Y-92610002D01*
X165629328Y-92439299D01*
X165538088Y-92256065D01*
X165497538Y-92202368D01*
X165414733Y-92092715D01*
X165263463Y-91954814D01*
X165089433Y-91847059D01*
X165089428Y-91847057D01*
X165089427Y-91847056D01*
X165089422Y-91847054D01*
X164898559Y-91773113D01*
X164898560Y-91773113D01*
X164898557Y-91773112D01*
X164898556Y-91773112D01*
X164697347Y-91735500D01*
X164492653Y-91735500D01*
X164337713Y-91764463D01*
X164291439Y-91773113D01*
X164100577Y-91847054D01*
X164100566Y-91847059D01*
X163926536Y-91954814D01*
X163775266Y-92092715D01*
X163651913Y-92256063D01*
X163560671Y-92439301D01*
X163504654Y-92636180D01*
X163485768Y-92839995D01*
X163164232Y-92839995D01*
X163145345Y-92636180D01*
X163137897Y-92610002D01*
X163089328Y-92439299D01*
X162998088Y-92256065D01*
X162957538Y-92202368D01*
X162874733Y-92092715D01*
X162723463Y-91954814D01*
X162549433Y-91847059D01*
X162549428Y-91847057D01*
X162549427Y-91847056D01*
X162549422Y-91847054D01*
X162358559Y-91773113D01*
X162358560Y-91773113D01*
X162358557Y-91773112D01*
X162358556Y-91773112D01*
X162157347Y-91735500D01*
X161952653Y-91735500D01*
X161797713Y-91764463D01*
X161751439Y-91773113D01*
X161560577Y-91847054D01*
X161560566Y-91847059D01*
X161386536Y-91954814D01*
X161235266Y-92092715D01*
X161111913Y-92256063D01*
X161020671Y-92439301D01*
X160964654Y-92636180D01*
X160945768Y-92839995D01*
X160624232Y-92839995D01*
X160605345Y-92636180D01*
X160597897Y-92610002D01*
X160549328Y-92439299D01*
X160458088Y-92256065D01*
X160417538Y-92202368D01*
X160334733Y-92092715D01*
X160183463Y-91954814D01*
X160009433Y-91847059D01*
X160009428Y-91847057D01*
X160009427Y-91847056D01*
X160009422Y-91847054D01*
X159818559Y-91773113D01*
X159818560Y-91773113D01*
X159818557Y-91773112D01*
X159818556Y-91773112D01*
X159617347Y-91735500D01*
X159412653Y-91735500D01*
X159257713Y-91764463D01*
X159211439Y-91773113D01*
X159020577Y-91847054D01*
X159020566Y-91847059D01*
X158846536Y-91954814D01*
X158695266Y-92092715D01*
X158571913Y-92256063D01*
X158480671Y-92439301D01*
X158424654Y-92636180D01*
X158405768Y-92839995D01*
X158084232Y-92839995D01*
X158065345Y-92636180D01*
X158057897Y-92610002D01*
X158009328Y-92439299D01*
X157918088Y-92256065D01*
X157877538Y-92202368D01*
X157794733Y-92092715D01*
X157643463Y-91954814D01*
X157469433Y-91847059D01*
X157469428Y-91847057D01*
X157469427Y-91847056D01*
X157469422Y-91847054D01*
X157278559Y-91773113D01*
X157278560Y-91773113D01*
X157278557Y-91773112D01*
X157278556Y-91773112D01*
X157077347Y-91735500D01*
X156872653Y-91735500D01*
X156717713Y-91764463D01*
X156671439Y-91773113D01*
X156480577Y-91847054D01*
X156480566Y-91847059D01*
X156306536Y-91954814D01*
X156155266Y-92092715D01*
X156031913Y-92256063D01*
X155940671Y-92439301D01*
X155884654Y-92636180D01*
X155865768Y-92839995D01*
X155544232Y-92839995D01*
X155525345Y-92636180D01*
X155517897Y-92610002D01*
X155469328Y-92439299D01*
X155378088Y-92256065D01*
X155337538Y-92202368D01*
X155254733Y-92092715D01*
X155103463Y-91954814D01*
X154929433Y-91847059D01*
X154929428Y-91847057D01*
X154929427Y-91847056D01*
X154929422Y-91847054D01*
X154738559Y-91773113D01*
X154738560Y-91773113D01*
X154738557Y-91773112D01*
X154738556Y-91773112D01*
X154537347Y-91735500D01*
X154332653Y-91735500D01*
X154177713Y-91764463D01*
X154131439Y-91773113D01*
X153940577Y-91847054D01*
X153940566Y-91847059D01*
X153766536Y-91954814D01*
X153615266Y-92092715D01*
X153491913Y-92256063D01*
X153400671Y-92439301D01*
X153344654Y-92636180D01*
X153325768Y-92839995D01*
X153004232Y-92839995D01*
X152985345Y-92636180D01*
X152977897Y-92610002D01*
X152929328Y-92439299D01*
X152838088Y-92256065D01*
X152797538Y-92202368D01*
X152714733Y-92092715D01*
X152563463Y-91954814D01*
X152389433Y-91847059D01*
X152389428Y-91847057D01*
X152389427Y-91847056D01*
X152389422Y-91847054D01*
X152198559Y-91773113D01*
X152198560Y-91773113D01*
X152198557Y-91773112D01*
X152198556Y-91773112D01*
X151997347Y-91735500D01*
X151792653Y-91735500D01*
X151637713Y-91764463D01*
X151591439Y-91773113D01*
X151400577Y-91847054D01*
X151400566Y-91847059D01*
X151226536Y-91954814D01*
X151075266Y-92092715D01*
X150951913Y-92256063D01*
X150860671Y-92439301D01*
X150804654Y-92636180D01*
X150785768Y-92839995D01*
X150464232Y-92839995D01*
X150445345Y-92636180D01*
X150437897Y-92610002D01*
X150389328Y-92439299D01*
X150298088Y-92256065D01*
X150257538Y-92202368D01*
X150174733Y-92092715D01*
X150023463Y-91954814D01*
X149849433Y-91847059D01*
X149849428Y-91847057D01*
X149849427Y-91847056D01*
X149849422Y-91847054D01*
X149658559Y-91773113D01*
X149658560Y-91773113D01*
X149658557Y-91773112D01*
X149658556Y-91773112D01*
X149457347Y-91735500D01*
X149252653Y-91735500D01*
X149097713Y-91764463D01*
X149051439Y-91773113D01*
X148860577Y-91847054D01*
X148860566Y-91847059D01*
X148686536Y-91954814D01*
X148535266Y-92092715D01*
X148411913Y-92256063D01*
X148320671Y-92439301D01*
X148264654Y-92636180D01*
X148245768Y-92839995D01*
X147924232Y-92839995D01*
X147905345Y-92636180D01*
X147897897Y-92610002D01*
X147849328Y-92439299D01*
X147758088Y-92256065D01*
X147717538Y-92202368D01*
X147634733Y-92092715D01*
X147483463Y-91954814D01*
X147309433Y-91847059D01*
X147309428Y-91847057D01*
X147309427Y-91847056D01*
X147309422Y-91847054D01*
X147118559Y-91773113D01*
X147118560Y-91773113D01*
X147118557Y-91773112D01*
X147118556Y-91773112D01*
X146917347Y-91735500D01*
X146712653Y-91735500D01*
X146557713Y-91764463D01*
X146511439Y-91773113D01*
X146320577Y-91847054D01*
X146320566Y-91847059D01*
X146146536Y-91954814D01*
X145995266Y-92092715D01*
X145871913Y-92256063D01*
X145780671Y-92439301D01*
X145724654Y-92636180D01*
X145705768Y-92839995D01*
X145384232Y-92839995D01*
X145365345Y-92636180D01*
X145357897Y-92610002D01*
X145309328Y-92439299D01*
X145218088Y-92256065D01*
X145177538Y-92202368D01*
X145094733Y-92092715D01*
X144943463Y-91954814D01*
X144769433Y-91847059D01*
X144769428Y-91847057D01*
X144769427Y-91847056D01*
X144769422Y-91847054D01*
X144578559Y-91773113D01*
X144578560Y-91773113D01*
X144578557Y-91773112D01*
X144578556Y-91773112D01*
X144377347Y-91735500D01*
X144172653Y-91735500D01*
X144017713Y-91764463D01*
X143971439Y-91773113D01*
X143780577Y-91847054D01*
X143780566Y-91847059D01*
X143606536Y-91954814D01*
X143455266Y-92092715D01*
X143331913Y-92256063D01*
X143240671Y-92439301D01*
X143184654Y-92636180D01*
X143165768Y-92839995D01*
X142844232Y-92839995D01*
X142825345Y-92636180D01*
X142817897Y-92610002D01*
X142769328Y-92439299D01*
X142678088Y-92256065D01*
X142637538Y-92202368D01*
X142554733Y-92092715D01*
X142403463Y-91954814D01*
X142229433Y-91847059D01*
X142229428Y-91847057D01*
X142229427Y-91847056D01*
X142229422Y-91847054D01*
X142038559Y-91773113D01*
X142038560Y-91773113D01*
X142038557Y-91773112D01*
X142038556Y-91773112D01*
X141837347Y-91735500D01*
X141632653Y-91735500D01*
X141477713Y-91764463D01*
X141431439Y-91773113D01*
X141240577Y-91847054D01*
X141240566Y-91847059D01*
X141066536Y-91954814D01*
X140915266Y-92092715D01*
X140791913Y-92256063D01*
X140700671Y-92439301D01*
X140644654Y-92636180D01*
X140625768Y-92839995D01*
X140304232Y-92839995D01*
X140285345Y-92636180D01*
X140277897Y-92610002D01*
X140229328Y-92439299D01*
X140138088Y-92256065D01*
X140097538Y-92202368D01*
X140014733Y-92092715D01*
X139863463Y-91954814D01*
X139689433Y-91847059D01*
X139689428Y-91847057D01*
X139689427Y-91847056D01*
X139689422Y-91847054D01*
X139498559Y-91773113D01*
X139498560Y-91773113D01*
X139498557Y-91773112D01*
X139498556Y-91773112D01*
X139297347Y-91735500D01*
X139092653Y-91735500D01*
X138937713Y-91764463D01*
X138891439Y-91773113D01*
X138700577Y-91847054D01*
X138700566Y-91847059D01*
X138526536Y-91954814D01*
X138375266Y-92092715D01*
X138251913Y-92256063D01*
X138160671Y-92439301D01*
X138104654Y-92636180D01*
X138085768Y-92839995D01*
X137764232Y-92839995D01*
X137745345Y-92636180D01*
X137737897Y-92610002D01*
X137689328Y-92439299D01*
X137598088Y-92256065D01*
X137557538Y-92202368D01*
X137474733Y-92092715D01*
X137323463Y-91954814D01*
X137149433Y-91847059D01*
X137149428Y-91847057D01*
X137149427Y-91847056D01*
X137149422Y-91847054D01*
X136958559Y-91773113D01*
X136958560Y-91773113D01*
X136958557Y-91773112D01*
X136958556Y-91773112D01*
X136757347Y-91735500D01*
X136552653Y-91735500D01*
X136397713Y-91764463D01*
X136351439Y-91773113D01*
X136160577Y-91847054D01*
X136160566Y-91847059D01*
X135986536Y-91954814D01*
X135835266Y-92092715D01*
X135711913Y-92256063D01*
X135620671Y-92439301D01*
X135564654Y-92636180D01*
X135545768Y-92839995D01*
X135224232Y-92839995D01*
X135205345Y-92636180D01*
X135197897Y-92610002D01*
X135149328Y-92439299D01*
X135058088Y-92256065D01*
X135017538Y-92202368D01*
X134934733Y-92092715D01*
X134783463Y-91954814D01*
X134609433Y-91847059D01*
X134609428Y-91847057D01*
X134609427Y-91847056D01*
X134609422Y-91847054D01*
X134418559Y-91773113D01*
X134418560Y-91773113D01*
X134418557Y-91773112D01*
X134418556Y-91773112D01*
X134217347Y-91735500D01*
X134012653Y-91735500D01*
X133857713Y-91764463D01*
X133811439Y-91773113D01*
X133620577Y-91847054D01*
X133620566Y-91847059D01*
X133446536Y-91954814D01*
X133295266Y-92092715D01*
X133171913Y-92256063D01*
X133080671Y-92439301D01*
X133024654Y-92636180D01*
X133005768Y-92839995D01*
X132684232Y-92839995D01*
X132665345Y-92636180D01*
X132657897Y-92610002D01*
X132609328Y-92439299D01*
X132518088Y-92256065D01*
X132477538Y-92202368D01*
X132394733Y-92092715D01*
X132243463Y-91954814D01*
X132069433Y-91847059D01*
X132069428Y-91847057D01*
X132069427Y-91847056D01*
X132069422Y-91847054D01*
X131878559Y-91773113D01*
X131878560Y-91773113D01*
X131878557Y-91773112D01*
X131878556Y-91773112D01*
X131677347Y-91735500D01*
X131472653Y-91735500D01*
X131317713Y-91764463D01*
X131271439Y-91773113D01*
X131080577Y-91847054D01*
X131080566Y-91847059D01*
X130906536Y-91954814D01*
X130755266Y-92092715D01*
X130631913Y-92256063D01*
X130540671Y-92439301D01*
X130484654Y-92636180D01*
X130465768Y-92839995D01*
X130144232Y-92839995D01*
X130125345Y-92636180D01*
X130117897Y-92610002D01*
X130069328Y-92439299D01*
X129978088Y-92256065D01*
X129937538Y-92202368D01*
X129854733Y-92092715D01*
X129703463Y-91954814D01*
X129529433Y-91847059D01*
X129529428Y-91847057D01*
X129529427Y-91847056D01*
X129529422Y-91847054D01*
X129338559Y-91773113D01*
X129338560Y-91773113D01*
X129338557Y-91773112D01*
X129338556Y-91773112D01*
X129137347Y-91735500D01*
X128932653Y-91735500D01*
X128777713Y-91764463D01*
X128731439Y-91773113D01*
X128540577Y-91847054D01*
X128540566Y-91847059D01*
X128366536Y-91954814D01*
X128215266Y-92092715D01*
X128091913Y-92256063D01*
X128000671Y-92439301D01*
X127944654Y-92636180D01*
X127925768Y-92839995D01*
X127604232Y-92839995D01*
X127585345Y-92636180D01*
X127577897Y-92610002D01*
X127529328Y-92439299D01*
X127438088Y-92256065D01*
X127397538Y-92202368D01*
X127314733Y-92092715D01*
X127163463Y-91954814D01*
X126989433Y-91847059D01*
X126989428Y-91847057D01*
X126989427Y-91847056D01*
X126989422Y-91847054D01*
X126798559Y-91773113D01*
X126798560Y-91773113D01*
X126798557Y-91773112D01*
X126798556Y-91773112D01*
X126597347Y-91735500D01*
X126392653Y-91735500D01*
X126237713Y-91764463D01*
X126191439Y-91773113D01*
X126000577Y-91847054D01*
X126000566Y-91847059D01*
X125826536Y-91954814D01*
X125675266Y-92092715D01*
X125551913Y-92256063D01*
X125460671Y-92439301D01*
X125404654Y-92636180D01*
X125385768Y-92839995D01*
X125385768Y-92840004D01*
X125404654Y-93043819D01*
X125460671Y-93240698D01*
X125504664Y-93329049D01*
X125517122Y-93398944D01*
X125489815Y-93464479D01*
X125431412Y-93504847D01*
X125360456Y-93507232D01*
X125302778Y-93474307D01*
X125059371Y-93230900D01*
X125025345Y-93168588D01*
X125027275Y-93107326D01*
X125045345Y-93043821D01*
X125046349Y-93032993D01*
X125064232Y-92840004D01*
X125064232Y-92839995D01*
X125045345Y-92636180D01*
X125037897Y-92610002D01*
X124989328Y-92439299D01*
X124898088Y-92256065D01*
X124857538Y-92202368D01*
X124774733Y-92092715D01*
X124623463Y-91954814D01*
X124449433Y-91847059D01*
X124449428Y-91847057D01*
X124449427Y-91847056D01*
X124449422Y-91847054D01*
X124258559Y-91773113D01*
X124258560Y-91773113D01*
X124258557Y-91773112D01*
X124258556Y-91773112D01*
X124057347Y-91735500D01*
X123852653Y-91735500D01*
X123697713Y-91764463D01*
X123651439Y-91773113D01*
X123460577Y-91847054D01*
X123460566Y-91847059D01*
X123286536Y-91954814D01*
X123135266Y-92092715D01*
X123011912Y-92256064D01*
X123011911Y-92256066D01*
X123003790Y-92272375D01*
X122955520Y-92324438D01*
X122886766Y-92342140D01*
X122819356Y-92319860D01*
X122774692Y-92264672D01*
X122765000Y-92216211D01*
X122765000Y-91942176D01*
X122764999Y-91942159D01*
X122758599Y-91882628D01*
X122708352Y-91747910D01*
X122622189Y-91632810D01*
X122507089Y-91546647D01*
X122501481Y-91544556D01*
X122444645Y-91502010D01*
X122419834Y-91435490D01*
X122434925Y-91366115D01*
X122485127Y-91315913D01*
X122545513Y-91300500D01*
X171952405Y-91300500D01*
X171996461Y-91300500D01*
X172003525Y-91300697D01*
X172295185Y-91317077D01*
X172309221Y-91318658D01*
X172593727Y-91366998D01*
X172607485Y-91370138D01*
X172884792Y-91450029D01*
X172898123Y-91454694D01*
X173164742Y-91565131D01*
X173177452Y-91571252D01*
X173430026Y-91710844D01*
X173441985Y-91718358D01*
X173677341Y-91885352D01*
X173688388Y-91894162D01*
X173903558Y-92086450D01*
X173913549Y-92096441D01*
X174105837Y-92311611D01*
X174114647Y-92322658D01*
X174281641Y-92558014D01*
X174289158Y-92569978D01*
X174428740Y-92822533D01*
X174434871Y-92835264D01*
X174545304Y-93101873D01*
X174549971Y-93115210D01*
X174629859Y-93392506D01*
X174633003Y-93406281D01*
X174681340Y-93690776D01*
X174682922Y-93704817D01*
X174699302Y-93996474D01*
X174699500Y-94003539D01*
X174699500Y-98430846D01*
X174679498Y-98498967D01*
X174625842Y-98545460D01*
X174555568Y-98555564D01*
X174490988Y-98526070D01*
X174452604Y-98466344D01*
X174449921Y-98455428D01*
X174436570Y-98388310D01*
X174436568Y-98388305D01*
X174361188Y-98206322D01*
X174251751Y-98042537D01*
X174251746Y-98042531D01*
X174112468Y-97903253D01*
X174112462Y-97903248D01*
X173948677Y-97793811D01*
X173766694Y-97718431D01*
X173766689Y-97718429D01*
X173573493Y-97680000D01*
X173325000Y-97680000D01*
X173325000Y-98380000D01*
X172825000Y-98380000D01*
X172825000Y-97680000D01*
X172576506Y-97680000D01*
X172383310Y-97718429D01*
X172383305Y-97718431D01*
X172201322Y-97793811D01*
X172037537Y-97903248D01*
X172037531Y-97903253D01*
X171898253Y-98042531D01*
X171898248Y-98042537D01*
X171788811Y-98206322D01*
X171713429Y-98388309D01*
X171713427Y-98388316D01*
X171705136Y-98429999D01*
X171705137Y-98430000D01*
X172508012Y-98430000D01*
X172490795Y-98439940D01*
X172434940Y-98495795D01*
X172395444Y-98564204D01*
X172375000Y-98640504D01*
X172375000Y-98719496D01*
X172395444Y-98795796D01*
X172434940Y-98864205D01*
X172490795Y-98920060D01*
X172508012Y-98930000D01*
X171705136Y-98930000D01*
X171713427Y-98971683D01*
X171713429Y-98971690D01*
X171788811Y-99153677D01*
X171898248Y-99317462D01*
X171898253Y-99317468D01*
X172037531Y-99456746D01*
X172037537Y-99456751D01*
X172201322Y-99566188D01*
X172383305Y-99641568D01*
X172383310Y-99641570D01*
X172576506Y-99679999D01*
X172576510Y-99680000D01*
X172825000Y-99680000D01*
X172825000Y-98980000D01*
X173325000Y-98980000D01*
X173325000Y-99680000D01*
X173573490Y-99680000D01*
X173573493Y-99679999D01*
X173766689Y-99641570D01*
X173766694Y-99641568D01*
X173948677Y-99566188D01*
X174112462Y-99456751D01*
X174112468Y-99456746D01*
X174251746Y-99317468D01*
X174251751Y-99317462D01*
X174361188Y-99153677D01*
X174436568Y-98971694D01*
X174436570Y-98971687D01*
X174449921Y-98904572D01*
X174482828Y-98841662D01*
X174544523Y-98806530D01*
X174615418Y-98810330D01*
X174673004Y-98851856D01*
X174698999Y-98917922D01*
X174699500Y-98929153D01*
X174699500Y-107070846D01*
X174679498Y-107138967D01*
X174625842Y-107185460D01*
X174555568Y-107195564D01*
X174490988Y-107166070D01*
X174452604Y-107106344D01*
X174449921Y-107095428D01*
X174436570Y-107028310D01*
X174436568Y-107028305D01*
X174361188Y-106846322D01*
X174251751Y-106682537D01*
X174251746Y-106682531D01*
X174112468Y-106543253D01*
X174112462Y-106543248D01*
X173948677Y-106433811D01*
X173766694Y-106358431D01*
X173766689Y-106358429D01*
X173573493Y-106320000D01*
X173325000Y-106320000D01*
X173325000Y-107020000D01*
X172825000Y-107020000D01*
X172825000Y-106320000D01*
X172576506Y-106320000D01*
X172383310Y-106358429D01*
X172383305Y-106358431D01*
X172201322Y-106433811D01*
X172037537Y-106543248D01*
X172037531Y-106543253D01*
X171898253Y-106682531D01*
X171898248Y-106682537D01*
X171788811Y-106846322D01*
X171713429Y-107028309D01*
X171713427Y-107028316D01*
X171705136Y-107069999D01*
X171705137Y-107070000D01*
X172508012Y-107070000D01*
X172490795Y-107079940D01*
X172434940Y-107135795D01*
X172395444Y-107204204D01*
X172375000Y-107280504D01*
X172375000Y-107359496D01*
X172395444Y-107435796D01*
X172434940Y-107504205D01*
X172490795Y-107560060D01*
X172508012Y-107570000D01*
X171705136Y-107570000D01*
X171713427Y-107611683D01*
X171713429Y-107611690D01*
X171788811Y-107793677D01*
X171898248Y-107957462D01*
X171898253Y-107957468D01*
X172037531Y-108096746D01*
X172037537Y-108096751D01*
X172201322Y-108206188D01*
X172383305Y-108281568D01*
X172383310Y-108281570D01*
X172576506Y-108319999D01*
X172576510Y-108320000D01*
X172825000Y-108320000D01*
X172825000Y-107620000D01*
X173325000Y-107620000D01*
X173325000Y-108320000D01*
X173573490Y-108320000D01*
X173573493Y-108319999D01*
X173766689Y-108281570D01*
X173766694Y-108281568D01*
X173948677Y-108206188D01*
X174112462Y-108096751D01*
X174112468Y-108096746D01*
X174251746Y-107957468D01*
X174251751Y-107957462D01*
X174361188Y-107793677D01*
X174436568Y-107611694D01*
X174436570Y-107611687D01*
X174449921Y-107544572D01*
X174482828Y-107481662D01*
X174544523Y-107446530D01*
X174615418Y-107450330D01*
X174673004Y-107491856D01*
X174698999Y-107557922D01*
X174699500Y-107569153D01*
X174699500Y-111996460D01*
X174699302Y-112003525D01*
X174682922Y-112295182D01*
X174681340Y-112309223D01*
X174633003Y-112593718D01*
X174629859Y-112607493D01*
X174549971Y-112884789D01*
X174545304Y-112898126D01*
X174434871Y-113164735D01*
X174428740Y-113177466D01*
X174289158Y-113430021D01*
X174281641Y-113441985D01*
X174114647Y-113677341D01*
X174105837Y-113688388D01*
X173913549Y-113903558D01*
X173903558Y-113913549D01*
X173688388Y-114105837D01*
X173677341Y-114114647D01*
X173441985Y-114281641D01*
X173430021Y-114289158D01*
X173177466Y-114428740D01*
X173164735Y-114434871D01*
X172898126Y-114545304D01*
X172884789Y-114549971D01*
X172607493Y-114629859D01*
X172593718Y-114633003D01*
X172309223Y-114681340D01*
X172295182Y-114682922D01*
X172003526Y-114699302D01*
X171996461Y-114699500D01*
X165725513Y-114699500D01*
X165657392Y-114679498D01*
X165610899Y-114625842D01*
X165600795Y-114555568D01*
X165630289Y-114490988D01*
X165681481Y-114455444D01*
X165687089Y-114453352D01*
X165802189Y-114367189D01*
X165888352Y-114252089D01*
X165938599Y-114117371D01*
X165944999Y-114057840D01*
X165945000Y-114057823D01*
X165945000Y-113783788D01*
X165965002Y-113715667D01*
X166018658Y-113669174D01*
X166088932Y-113659070D01*
X166153512Y-113688564D01*
X166183791Y-113727626D01*
X166191911Y-113743934D01*
X166191912Y-113743935D01*
X166315266Y-113907284D01*
X166466536Y-114045185D01*
X166640566Y-114152940D01*
X166640568Y-114152940D01*
X166640573Y-114152944D01*
X166831444Y-114226888D01*
X167032653Y-114264500D01*
X167032655Y-114264500D01*
X167237345Y-114264500D01*
X167237347Y-114264500D01*
X167438556Y-114226888D01*
X167629427Y-114152944D01*
X167803462Y-114045186D01*
X167954732Y-113907285D01*
X167957547Y-113903558D01*
X168035713Y-113800048D01*
X168078088Y-113743935D01*
X168169328Y-113560701D01*
X168225345Y-113363821D01*
X168243188Y-113171269D01*
X168244232Y-113160004D01*
X168244232Y-113159995D01*
X168225345Y-112956180D01*
X168220970Y-112940804D01*
X168169328Y-112759299D01*
X168078088Y-112576065D01*
X168033499Y-112517020D01*
X167954733Y-112412715D01*
X167803463Y-112274814D01*
X167629433Y-112167059D01*
X167629428Y-112167057D01*
X167629427Y-112167056D01*
X167438559Y-112093113D01*
X167438560Y-112093113D01*
X167438557Y-112093112D01*
X167438556Y-112093112D01*
X167237347Y-112055500D01*
X167032653Y-112055500D01*
X166831444Y-112093112D01*
X166831439Y-112093113D01*
X166640577Y-112167054D01*
X166640566Y-112167059D01*
X166466536Y-112274814D01*
X166315266Y-112412715D01*
X166191912Y-112576064D01*
X166191911Y-112576066D01*
X166183790Y-112592375D01*
X166135520Y-112644438D01*
X166066766Y-112662140D01*
X165999356Y-112639860D01*
X165954692Y-112584672D01*
X165945000Y-112536211D01*
X165945000Y-112262176D01*
X165944999Y-112262159D01*
X165938599Y-112202628D01*
X165888352Y-112067910D01*
X165837512Y-111999996D01*
X169745172Y-111999996D01*
X169745172Y-112000003D01*
X169764461Y-112294309D01*
X169764463Y-112294324D01*
X169822003Y-112583593D01*
X169822004Y-112583597D01*
X169916810Y-112862881D01*
X169916814Y-112862891D01*
X170047260Y-113127411D01*
X170211124Y-113372651D01*
X170211127Y-113372655D01*
X170240404Y-113406039D01*
X170240406Y-113406039D01*
X171063708Y-112582736D01*
X171160967Y-112716602D01*
X171283398Y-112839033D01*
X171417261Y-112936289D01*
X170593959Y-113759592D01*
X170593959Y-113759594D01*
X170627344Y-113788872D01*
X170627348Y-113788875D01*
X170872588Y-113952739D01*
X171137108Y-114083185D01*
X171137118Y-114083189D01*
X171416402Y-114177995D01*
X171416406Y-114177996D01*
X171705675Y-114235536D01*
X171705690Y-114235538D01*
X171999997Y-114254828D01*
X172000003Y-114254828D01*
X172294309Y-114235538D01*
X172294324Y-114235536D01*
X172583593Y-114177996D01*
X172583597Y-114177995D01*
X172862881Y-114083189D01*
X172862891Y-114083185D01*
X173127411Y-113952739D01*
X173372650Y-113788876D01*
X173406040Y-113759593D01*
X172582737Y-112936290D01*
X172716602Y-112839033D01*
X172839033Y-112716602D01*
X172936290Y-112582737D01*
X173759593Y-113406040D01*
X173788876Y-113372650D01*
X173952739Y-113127411D01*
X174083185Y-112862891D01*
X174083189Y-112862881D01*
X174177995Y-112583597D01*
X174177996Y-112583593D01*
X174235536Y-112294324D01*
X174235538Y-112294309D01*
X174254828Y-112000003D01*
X174254828Y-111999996D01*
X174235538Y-111705690D01*
X174235536Y-111705675D01*
X174177996Y-111416406D01*
X174177995Y-111416402D01*
X174083189Y-111137118D01*
X174083185Y-111137108D01*
X173952739Y-110872588D01*
X173788875Y-110627348D01*
X173788872Y-110627344D01*
X173759594Y-110593959D01*
X173759592Y-110593959D01*
X172936289Y-111417261D01*
X172839033Y-111283398D01*
X172716602Y-111160967D01*
X172582736Y-111063709D01*
X173406039Y-110240406D01*
X173406039Y-110240404D01*
X173372655Y-110211127D01*
X173372651Y-110211124D01*
X173127411Y-110047260D01*
X172862891Y-109916814D01*
X172862881Y-109916810D01*
X172583597Y-109822004D01*
X172583593Y-109822003D01*
X172294324Y-109764463D01*
X172294309Y-109764461D01*
X172000003Y-109745172D01*
X171999997Y-109745172D01*
X171705690Y-109764461D01*
X171705675Y-109764463D01*
X171416406Y-109822003D01*
X171416402Y-109822004D01*
X171137118Y-109916810D01*
X171137108Y-109916814D01*
X170872588Y-110047260D01*
X170627346Y-110211125D01*
X170593959Y-110240403D01*
X170593959Y-110240406D01*
X171417262Y-111063709D01*
X171283398Y-111160967D01*
X171160967Y-111283398D01*
X171063709Y-111417262D01*
X170240406Y-110593959D01*
X170240403Y-110593959D01*
X170211125Y-110627346D01*
X170047260Y-110872588D01*
X169916814Y-111137108D01*
X169916810Y-111137118D01*
X169822004Y-111416402D01*
X169822003Y-111416406D01*
X169764463Y-111705675D01*
X169764461Y-111705690D01*
X169745172Y-111999996D01*
X165837512Y-111999996D01*
X165802189Y-111952810D01*
X165687089Y-111866647D01*
X165552371Y-111816400D01*
X165492840Y-111810000D01*
X164845000Y-111810000D01*
X164845000Y-112726988D01*
X164787993Y-112694075D01*
X164660826Y-112660000D01*
X164529174Y-112660000D01*
X164402007Y-112694075D01*
X164345000Y-112726988D01*
X164345000Y-111810000D01*
X163697159Y-111810000D01*
X163637628Y-111816400D01*
X163502910Y-111866647D01*
X163387810Y-111952810D01*
X163301647Y-112067910D01*
X163251400Y-112202628D01*
X163245000Y-112262159D01*
X163245000Y-112536211D01*
X163224998Y-112604332D01*
X163171342Y-112650825D01*
X163101068Y-112660929D01*
X163036488Y-112631435D01*
X163006210Y-112592375D01*
X163001919Y-112583760D01*
X162998088Y-112576065D01*
X162967992Y-112536211D01*
X162874733Y-112412715D01*
X162723463Y-112274814D01*
X162549433Y-112167059D01*
X162549428Y-112167057D01*
X162549427Y-112167056D01*
X162358559Y-112093113D01*
X162358560Y-112093113D01*
X162358557Y-112093112D01*
X162358556Y-112093112D01*
X162157347Y-112055500D01*
X161952653Y-112055500D01*
X161751444Y-112093112D01*
X161751439Y-112093113D01*
X161560577Y-112167054D01*
X161560566Y-112167059D01*
X161386536Y-112274814D01*
X161235266Y-112412715D01*
X161111913Y-112576063D01*
X161111912Y-112576064D01*
X161111912Y-112576065D01*
X161107626Y-112584672D01*
X161020671Y-112759301D01*
X160964654Y-112956180D01*
X160945768Y-113159995D01*
X160945768Y-113160004D01*
X160964654Y-113363819D01*
X160994014Y-113467007D01*
X161020672Y-113560701D01*
X161111912Y-113743935D01*
X161111913Y-113743936D01*
X161235266Y-113907284D01*
X161386536Y-114045185D01*
X161560566Y-114152940D01*
X161560568Y-114152940D01*
X161560573Y-114152944D01*
X161751444Y-114226888D01*
X161952653Y-114264500D01*
X161952655Y-114264500D01*
X162157345Y-114264500D01*
X162157347Y-114264500D01*
X162358556Y-114226888D01*
X162549427Y-114152944D01*
X162723462Y-114045186D01*
X162874732Y-113907285D01*
X162877547Y-113903558D01*
X162964150Y-113788876D01*
X162998088Y-113743935D01*
X163006209Y-113727626D01*
X163054478Y-113675562D01*
X163123232Y-113657859D01*
X163190642Y-113680138D01*
X163235307Y-113735325D01*
X163245000Y-113783788D01*
X163245000Y-114057840D01*
X163251400Y-114117371D01*
X163301647Y-114252089D01*
X163387810Y-114367189D01*
X163502910Y-114453352D01*
X163508519Y-114455444D01*
X163565355Y-114497990D01*
X163590166Y-114564510D01*
X163575075Y-114633885D01*
X163524873Y-114684087D01*
X163464487Y-114699500D01*
X114003539Y-114699500D01*
X113996474Y-114699302D01*
X113704817Y-114682922D01*
X113690776Y-114681340D01*
X113406281Y-114633003D01*
X113392506Y-114629859D01*
X113115210Y-114549971D01*
X113101873Y-114545304D01*
X112835264Y-114434871D01*
X112822539Y-114428743D01*
X112569978Y-114289158D01*
X112558014Y-114281641D01*
X112322658Y-114114647D01*
X112311611Y-114105837D01*
X112096441Y-113913549D01*
X112086450Y-113903558D01*
X111894162Y-113688388D01*
X111885352Y-113677341D01*
X111718358Y-113441985D01*
X111710841Y-113430021D01*
X111699776Y-113410000D01*
X111571252Y-113177452D01*
X111565131Y-113164742D01*
X111454694Y-112898123D01*
X111450028Y-112884789D01*
X111370138Y-112607485D01*
X111366998Y-112593727D01*
X111318658Y-112309221D01*
X111317077Y-112295182D01*
X111315223Y-112262176D01*
X111300698Y-112003525D01*
X111300599Y-111999996D01*
X111745172Y-111999996D01*
X111745172Y-112000003D01*
X111764461Y-112294309D01*
X111764463Y-112294324D01*
X111822003Y-112583593D01*
X111822004Y-112583597D01*
X111916810Y-112862881D01*
X111916814Y-112862891D01*
X112047260Y-113127411D01*
X112211124Y-113372651D01*
X112211127Y-113372655D01*
X112240404Y-113406039D01*
X112240406Y-113406039D01*
X113063708Y-112582736D01*
X113160967Y-112716602D01*
X113283398Y-112839033D01*
X113417261Y-112936289D01*
X112593959Y-113759592D01*
X112593959Y-113759594D01*
X112627344Y-113788872D01*
X112627348Y-113788875D01*
X112872588Y-113952739D01*
X113137108Y-114083185D01*
X113137118Y-114083189D01*
X113416402Y-114177995D01*
X113416406Y-114177996D01*
X113705675Y-114235536D01*
X113705690Y-114235538D01*
X113999997Y-114254828D01*
X114000003Y-114254828D01*
X114294309Y-114235538D01*
X114294324Y-114235536D01*
X114583593Y-114177996D01*
X114583597Y-114177995D01*
X114862881Y-114083189D01*
X114862891Y-114083185D01*
X115127411Y-113952739D01*
X115372650Y-113788876D01*
X115406040Y-113759593D01*
X114582737Y-112936290D01*
X114716602Y-112839033D01*
X114839033Y-112716602D01*
X114936290Y-112582737D01*
X115759593Y-113406040D01*
X115788876Y-113372650D01*
X115930967Y-113159995D01*
X117765768Y-113159995D01*
X117765768Y-113160004D01*
X117784654Y-113363819D01*
X117814014Y-113467007D01*
X117840672Y-113560701D01*
X117931912Y-113743935D01*
X117931913Y-113743936D01*
X118055266Y-113907284D01*
X118206536Y-114045185D01*
X118380566Y-114152940D01*
X118380568Y-114152940D01*
X118380573Y-114152944D01*
X118571444Y-114226888D01*
X118772653Y-114264500D01*
X118772655Y-114264500D01*
X118977345Y-114264500D01*
X118977347Y-114264500D01*
X119178556Y-114226888D01*
X119369427Y-114152944D01*
X119543462Y-114045186D01*
X119694732Y-113907285D01*
X119697547Y-113903558D01*
X119775713Y-113800048D01*
X119818088Y-113743935D01*
X119909328Y-113560701D01*
X119965345Y-113363821D01*
X119983188Y-113171269D01*
X119984232Y-113160004D01*
X119984232Y-113159995D01*
X120305768Y-113159995D01*
X120305768Y-113160004D01*
X120324654Y-113363819D01*
X120354014Y-113467007D01*
X120380672Y-113560701D01*
X120471912Y-113743935D01*
X120471913Y-113743936D01*
X120595266Y-113907284D01*
X120746536Y-114045185D01*
X120920566Y-114152940D01*
X120920568Y-114152940D01*
X120920573Y-114152944D01*
X121111444Y-114226888D01*
X121312653Y-114264500D01*
X121312655Y-114264500D01*
X121517345Y-114264500D01*
X121517347Y-114264500D01*
X121718556Y-114226888D01*
X121909427Y-114152944D01*
X122083462Y-114045186D01*
X122234732Y-113907285D01*
X122237547Y-113903558D01*
X122315713Y-113800048D01*
X122358088Y-113743935D01*
X122449328Y-113560701D01*
X122505345Y-113363821D01*
X122523188Y-113171269D01*
X122524232Y-113160004D01*
X122524232Y-113159995D01*
X122845768Y-113159995D01*
X122845768Y-113160004D01*
X122864654Y-113363819D01*
X122894014Y-113467007D01*
X122920672Y-113560701D01*
X123011912Y-113743935D01*
X123011913Y-113743936D01*
X123135266Y-113907284D01*
X123286536Y-114045185D01*
X123460566Y-114152940D01*
X123460568Y-114152940D01*
X123460573Y-114152944D01*
X123651444Y-114226888D01*
X123852653Y-114264500D01*
X123852655Y-114264500D01*
X124057345Y-114264500D01*
X124057347Y-114264500D01*
X124258556Y-114226888D01*
X124449427Y-114152944D01*
X124623462Y-114045186D01*
X124774732Y-113907285D01*
X124777547Y-113903558D01*
X124855713Y-113800048D01*
X124898088Y-113743935D01*
X124989328Y-113560701D01*
X125045345Y-113363821D01*
X125063188Y-113171269D01*
X125064232Y-113160004D01*
X125064232Y-113159995D01*
X125385768Y-113159995D01*
X125385768Y-113160004D01*
X125404654Y-113363819D01*
X125434014Y-113467007D01*
X125460672Y-113560701D01*
X125551912Y-113743935D01*
X125551913Y-113743936D01*
X125675266Y-113907284D01*
X125826536Y-114045185D01*
X126000566Y-114152940D01*
X126000568Y-114152940D01*
X126000573Y-114152944D01*
X126191444Y-114226888D01*
X126392653Y-114264500D01*
X126392655Y-114264500D01*
X126597345Y-114264500D01*
X126597347Y-114264500D01*
X126798556Y-114226888D01*
X126989427Y-114152944D01*
X127163462Y-114045186D01*
X127314732Y-113907285D01*
X127317547Y-113903558D01*
X127395713Y-113800048D01*
X127438088Y-113743935D01*
X127529328Y-113560701D01*
X127585345Y-113363821D01*
X127603188Y-113171269D01*
X127604232Y-113160004D01*
X127604232Y-113159995D01*
X127925768Y-113159995D01*
X127925768Y-113160004D01*
X127944654Y-113363819D01*
X127974014Y-113467007D01*
X128000672Y-113560701D01*
X128091912Y-113743935D01*
X128091913Y-113743936D01*
X128215266Y-113907284D01*
X128366536Y-114045185D01*
X128540566Y-114152940D01*
X128540568Y-114152940D01*
X128540573Y-114152944D01*
X128731444Y-114226888D01*
X128932653Y-114264500D01*
X128932655Y-114264500D01*
X129137345Y-114264500D01*
X129137347Y-114264500D01*
X129338556Y-114226888D01*
X129529427Y-114152944D01*
X129703462Y-114045186D01*
X129854732Y-113907285D01*
X129857547Y-113903558D01*
X129935713Y-113800048D01*
X129978088Y-113743935D01*
X130069328Y-113560701D01*
X130125345Y-113363821D01*
X130143188Y-113171269D01*
X130144232Y-113160004D01*
X130144232Y-113159995D01*
X130465768Y-113159995D01*
X130465768Y-113160004D01*
X130484654Y-113363819D01*
X130514014Y-113467007D01*
X130540672Y-113560701D01*
X130631912Y-113743935D01*
X130631913Y-113743936D01*
X130755266Y-113907284D01*
X130906536Y-114045185D01*
X131080566Y-114152940D01*
X131080568Y-114152940D01*
X131080573Y-114152944D01*
X131271444Y-114226888D01*
X131472653Y-114264500D01*
X131472655Y-114264500D01*
X131677345Y-114264500D01*
X131677347Y-114264500D01*
X131878556Y-114226888D01*
X132069427Y-114152944D01*
X132243462Y-114045186D01*
X132394732Y-113907285D01*
X132397547Y-113903558D01*
X132475713Y-113800048D01*
X132518088Y-113743935D01*
X132609328Y-113560701D01*
X132665345Y-113363821D01*
X132683188Y-113171269D01*
X132684232Y-113160004D01*
X132684232Y-113159995D01*
X133005768Y-113159995D01*
X133005768Y-113160004D01*
X133024654Y-113363819D01*
X133054014Y-113467007D01*
X133080672Y-113560701D01*
X133171912Y-113743935D01*
X133171913Y-113743936D01*
X133295266Y-113907284D01*
X133446536Y-114045185D01*
X133620566Y-114152940D01*
X133620568Y-114152940D01*
X133620573Y-114152944D01*
X133811444Y-114226888D01*
X134012653Y-114264500D01*
X134012655Y-114264500D01*
X134217345Y-114264500D01*
X134217347Y-114264500D01*
X134418556Y-114226888D01*
X134609427Y-114152944D01*
X134783462Y-114045186D01*
X134934732Y-113907285D01*
X134937547Y-113903558D01*
X135015713Y-113800048D01*
X135058088Y-113743935D01*
X135149328Y-113560701D01*
X135205345Y-113363821D01*
X135223188Y-113171269D01*
X135224232Y-113160004D01*
X135224232Y-113159995D01*
X135545768Y-113159995D01*
X135545768Y-113160004D01*
X135564654Y-113363819D01*
X135594014Y-113467007D01*
X135620672Y-113560701D01*
X135711912Y-113743935D01*
X135711913Y-113743936D01*
X135835266Y-113907284D01*
X135986536Y-114045185D01*
X136160566Y-114152940D01*
X136160568Y-114152940D01*
X136160573Y-114152944D01*
X136351444Y-114226888D01*
X136552653Y-114264500D01*
X136552655Y-114264500D01*
X136757345Y-114264500D01*
X136757347Y-114264500D01*
X136958556Y-114226888D01*
X137149427Y-114152944D01*
X137323462Y-114045186D01*
X137474732Y-113907285D01*
X137477547Y-113903558D01*
X137555713Y-113800048D01*
X137598088Y-113743935D01*
X137689328Y-113560701D01*
X137745345Y-113363821D01*
X137763188Y-113171269D01*
X137764232Y-113160004D01*
X137764232Y-113159995D01*
X138085768Y-113159995D01*
X138085768Y-113160004D01*
X138104654Y-113363819D01*
X138134014Y-113467007D01*
X138160672Y-113560701D01*
X138251912Y-113743935D01*
X138251913Y-113743936D01*
X138375266Y-113907284D01*
X138526536Y-114045185D01*
X138700566Y-114152940D01*
X138700568Y-114152940D01*
X138700573Y-114152944D01*
X138891444Y-114226888D01*
X139092653Y-114264500D01*
X139092655Y-114264500D01*
X139297345Y-114264500D01*
X139297347Y-114264500D01*
X139498556Y-114226888D01*
X139689427Y-114152944D01*
X139863462Y-114045186D01*
X140014732Y-113907285D01*
X140017547Y-113903558D01*
X140095713Y-113800048D01*
X140138088Y-113743935D01*
X140229328Y-113560701D01*
X140285345Y-113363821D01*
X140303188Y-113171269D01*
X140304232Y-113160004D01*
X140304232Y-113159995D01*
X140625768Y-113159995D01*
X140625768Y-113160004D01*
X140644654Y-113363819D01*
X140674014Y-113467007D01*
X140700672Y-113560701D01*
X140791912Y-113743935D01*
X140791913Y-113743936D01*
X140915266Y-113907284D01*
X141066536Y-114045185D01*
X141240566Y-114152940D01*
X141240568Y-114152940D01*
X141240573Y-114152944D01*
X141431444Y-114226888D01*
X141632653Y-114264500D01*
X141632655Y-114264500D01*
X141837345Y-114264500D01*
X141837347Y-114264500D01*
X142038556Y-114226888D01*
X142229427Y-114152944D01*
X142403462Y-114045186D01*
X142554732Y-113907285D01*
X142557547Y-113903558D01*
X142635713Y-113800048D01*
X142678088Y-113743935D01*
X142769328Y-113560701D01*
X142825345Y-113363821D01*
X142843188Y-113171269D01*
X142844232Y-113160004D01*
X142844232Y-113159995D01*
X143165768Y-113159995D01*
X143165768Y-113160004D01*
X143184654Y-113363819D01*
X143214014Y-113467007D01*
X143240672Y-113560701D01*
X143331912Y-113743935D01*
X143331913Y-113743936D01*
X143455266Y-113907284D01*
X143606536Y-114045185D01*
X143780566Y-114152940D01*
X143780568Y-114152940D01*
X143780573Y-114152944D01*
X143971444Y-114226888D01*
X144172653Y-114264500D01*
X144172655Y-114264500D01*
X144377345Y-114264500D01*
X144377347Y-114264500D01*
X144578556Y-114226888D01*
X144769427Y-114152944D01*
X144943462Y-114045186D01*
X145094732Y-113907285D01*
X145097547Y-113903558D01*
X145175713Y-113800048D01*
X145218088Y-113743935D01*
X145309328Y-113560701D01*
X145365345Y-113363821D01*
X145383188Y-113171269D01*
X145384232Y-113160004D01*
X145384232Y-113159995D01*
X145705768Y-113159995D01*
X145705768Y-113160004D01*
X145724654Y-113363819D01*
X145754014Y-113467007D01*
X145780672Y-113560701D01*
X145871912Y-113743935D01*
X145871913Y-113743936D01*
X145995266Y-113907284D01*
X146146536Y-114045185D01*
X146320566Y-114152940D01*
X146320568Y-114152940D01*
X146320573Y-114152944D01*
X146511444Y-114226888D01*
X146712653Y-114264500D01*
X146712655Y-114264500D01*
X146917345Y-114264500D01*
X146917347Y-114264500D01*
X147118556Y-114226888D01*
X147309427Y-114152944D01*
X147483462Y-114045186D01*
X147634732Y-113907285D01*
X147637547Y-113903558D01*
X147715713Y-113800048D01*
X147758088Y-113743935D01*
X147849328Y-113560701D01*
X147905345Y-113363821D01*
X147923188Y-113171269D01*
X147924232Y-113160004D01*
X147924232Y-113159995D01*
X148245768Y-113159995D01*
X148245768Y-113160004D01*
X148264654Y-113363819D01*
X148294014Y-113467007D01*
X148320672Y-113560701D01*
X148411912Y-113743935D01*
X148411913Y-113743936D01*
X148535266Y-113907284D01*
X148686536Y-114045185D01*
X148860566Y-114152940D01*
X148860568Y-114152940D01*
X148860573Y-114152944D01*
X149051444Y-114226888D01*
X149252653Y-114264500D01*
X149252655Y-114264500D01*
X149457345Y-114264500D01*
X149457347Y-114264500D01*
X149658556Y-114226888D01*
X149849427Y-114152944D01*
X150023462Y-114045186D01*
X150174732Y-113907285D01*
X150177547Y-113903558D01*
X150255713Y-113800048D01*
X150298088Y-113743935D01*
X150389328Y-113560701D01*
X150445345Y-113363821D01*
X150463188Y-113171269D01*
X150464232Y-113160004D01*
X150464232Y-113159995D01*
X150785768Y-113159995D01*
X150785768Y-113160004D01*
X150804654Y-113363819D01*
X150834014Y-113467007D01*
X150860672Y-113560701D01*
X150951912Y-113743935D01*
X150951913Y-113743936D01*
X151075266Y-113907284D01*
X151226536Y-114045185D01*
X151400566Y-114152940D01*
X151400568Y-114152940D01*
X151400573Y-114152944D01*
X151591444Y-114226888D01*
X151792653Y-114264500D01*
X151792655Y-114264500D01*
X151997345Y-114264500D01*
X151997347Y-114264500D01*
X152198556Y-114226888D01*
X152389427Y-114152944D01*
X152563462Y-114045186D01*
X152714732Y-113907285D01*
X152717547Y-113903558D01*
X152795713Y-113800048D01*
X152838088Y-113743935D01*
X152929328Y-113560701D01*
X152985345Y-113363821D01*
X153003188Y-113171269D01*
X153004232Y-113160004D01*
X153004232Y-113159995D01*
X153325768Y-113159995D01*
X153325768Y-113160004D01*
X153344654Y-113363819D01*
X153374014Y-113467007D01*
X153400672Y-113560701D01*
X153491912Y-113743935D01*
X153491913Y-113743936D01*
X153615266Y-113907284D01*
X153766536Y-114045185D01*
X153940566Y-114152940D01*
X153940568Y-114152940D01*
X153940573Y-114152944D01*
X154131444Y-114226888D01*
X154332653Y-114264500D01*
X154332655Y-114264500D01*
X154537345Y-114264500D01*
X154537347Y-114264500D01*
X154738556Y-114226888D01*
X154929427Y-114152944D01*
X155103462Y-114045186D01*
X155254732Y-113907285D01*
X155257547Y-113903558D01*
X155335713Y-113800048D01*
X155378088Y-113743935D01*
X155469328Y-113560701D01*
X155525345Y-113363821D01*
X155543188Y-113171269D01*
X155544232Y-113160004D01*
X155544232Y-113159995D01*
X155865768Y-113159995D01*
X155865768Y-113160004D01*
X155884654Y-113363819D01*
X155914014Y-113467007D01*
X155940672Y-113560701D01*
X156031912Y-113743935D01*
X156031913Y-113743936D01*
X156155266Y-113907284D01*
X156306536Y-114045185D01*
X156480566Y-114152940D01*
X156480568Y-114152940D01*
X156480573Y-114152944D01*
X156671444Y-114226888D01*
X156872653Y-114264500D01*
X156872655Y-114264500D01*
X157077345Y-114264500D01*
X157077347Y-114264500D01*
X157278556Y-114226888D01*
X157469427Y-114152944D01*
X157643462Y-114045186D01*
X157794732Y-113907285D01*
X157797547Y-113903558D01*
X157875713Y-113800048D01*
X157918088Y-113743935D01*
X158009328Y-113560701D01*
X158065345Y-113363821D01*
X158083188Y-113171269D01*
X158084232Y-113160004D01*
X158084232Y-113159995D01*
X158405768Y-113159995D01*
X158405768Y-113160004D01*
X158424654Y-113363819D01*
X158454014Y-113467007D01*
X158480672Y-113560701D01*
X158571912Y-113743935D01*
X158571913Y-113743936D01*
X158695266Y-113907284D01*
X158846536Y-114045185D01*
X159020566Y-114152940D01*
X159020568Y-114152940D01*
X159020573Y-114152944D01*
X159211444Y-114226888D01*
X159412653Y-114264500D01*
X159412655Y-114264500D01*
X159617345Y-114264500D01*
X159617347Y-114264500D01*
X159818556Y-114226888D01*
X160009427Y-114152944D01*
X160183462Y-114045186D01*
X160334732Y-113907285D01*
X160337547Y-113903558D01*
X160415713Y-113800048D01*
X160458088Y-113743935D01*
X160549328Y-113560701D01*
X160605345Y-113363821D01*
X160623188Y-113171269D01*
X160624232Y-113160004D01*
X160624232Y-113159995D01*
X160605345Y-112956180D01*
X160600970Y-112940804D01*
X160549328Y-112759299D01*
X160458088Y-112576065D01*
X160413499Y-112517020D01*
X160334733Y-112412715D01*
X160183463Y-112274814D01*
X160009433Y-112167059D01*
X160009428Y-112167057D01*
X160009427Y-112167056D01*
X159818559Y-112093113D01*
X159818560Y-112093113D01*
X159818557Y-112093112D01*
X159818556Y-112093112D01*
X159617347Y-112055500D01*
X159412653Y-112055500D01*
X159211444Y-112093112D01*
X159211439Y-112093113D01*
X159020577Y-112167054D01*
X159020566Y-112167059D01*
X158846536Y-112274814D01*
X158695266Y-112412715D01*
X158571913Y-112576063D01*
X158571912Y-112576064D01*
X158571912Y-112576065D01*
X158567626Y-112584672D01*
X158480671Y-112759301D01*
X158424654Y-112956180D01*
X158405768Y-113159995D01*
X158084232Y-113159995D01*
X158065345Y-112956180D01*
X158060970Y-112940804D01*
X158009328Y-112759299D01*
X157918088Y-112576065D01*
X157873499Y-112517020D01*
X157794733Y-112412715D01*
X157643463Y-112274814D01*
X157469433Y-112167059D01*
X157469428Y-112167057D01*
X157469427Y-112167056D01*
X157278559Y-112093113D01*
X157278560Y-112093113D01*
X157278557Y-112093112D01*
X157278556Y-112093112D01*
X157077347Y-112055500D01*
X156872653Y-112055500D01*
X156671444Y-112093112D01*
X156671439Y-112093113D01*
X156480577Y-112167054D01*
X156480566Y-112167059D01*
X156306536Y-112274814D01*
X156155266Y-112412715D01*
X156031913Y-112576063D01*
X156031912Y-112576064D01*
X156031912Y-112576065D01*
X156027626Y-112584672D01*
X155940671Y-112759301D01*
X155884654Y-112956180D01*
X155865768Y-113159995D01*
X155544232Y-113159995D01*
X155525345Y-112956180D01*
X155520970Y-112940804D01*
X155469328Y-112759299D01*
X155378088Y-112576065D01*
X155333499Y-112517020D01*
X155254733Y-112412715D01*
X155103463Y-112274814D01*
X154929433Y-112167059D01*
X154929428Y-112167057D01*
X154929427Y-112167056D01*
X154738559Y-112093113D01*
X154738560Y-112093113D01*
X154738557Y-112093112D01*
X154738556Y-112093112D01*
X154537347Y-112055500D01*
X154332653Y-112055500D01*
X154131444Y-112093112D01*
X154131439Y-112093113D01*
X153940577Y-112167054D01*
X153940566Y-112167059D01*
X153766536Y-112274814D01*
X153615266Y-112412715D01*
X153491913Y-112576063D01*
X153491912Y-112576064D01*
X153491912Y-112576065D01*
X153487626Y-112584672D01*
X153400671Y-112759301D01*
X153344654Y-112956180D01*
X153325768Y-113159995D01*
X153004232Y-113159995D01*
X152985345Y-112956180D01*
X152980970Y-112940804D01*
X152929328Y-112759299D01*
X152838088Y-112576065D01*
X152793499Y-112517020D01*
X152714733Y-112412715D01*
X152563463Y-112274814D01*
X152389433Y-112167059D01*
X152389428Y-112167057D01*
X152389427Y-112167056D01*
X152198559Y-112093113D01*
X152198560Y-112093113D01*
X152198557Y-112093112D01*
X152198556Y-112093112D01*
X151997347Y-112055500D01*
X151792653Y-112055500D01*
X151591444Y-112093112D01*
X151591439Y-112093113D01*
X151400577Y-112167054D01*
X151400566Y-112167059D01*
X151226536Y-112274814D01*
X151075266Y-112412715D01*
X150951913Y-112576063D01*
X150951912Y-112576064D01*
X150951912Y-112576065D01*
X150947626Y-112584672D01*
X150860671Y-112759301D01*
X150804654Y-112956180D01*
X150785768Y-113159995D01*
X150464232Y-113159995D01*
X150445345Y-112956180D01*
X150440970Y-112940804D01*
X150389328Y-112759299D01*
X150298088Y-112576065D01*
X150253499Y-112517020D01*
X150174733Y-112412715D01*
X150023463Y-112274814D01*
X149849433Y-112167059D01*
X149849428Y-112167057D01*
X149849427Y-112167056D01*
X149658559Y-112093113D01*
X149658560Y-112093113D01*
X149658557Y-112093112D01*
X149658556Y-112093112D01*
X149457347Y-112055500D01*
X149252653Y-112055500D01*
X149051444Y-112093112D01*
X149051439Y-112093113D01*
X148860577Y-112167054D01*
X148860566Y-112167059D01*
X148686536Y-112274814D01*
X148535266Y-112412715D01*
X148411913Y-112576063D01*
X148411912Y-112576064D01*
X148411912Y-112576065D01*
X148407626Y-112584672D01*
X148320671Y-112759301D01*
X148264654Y-112956180D01*
X148245768Y-113159995D01*
X147924232Y-113159995D01*
X147905345Y-112956180D01*
X147900970Y-112940804D01*
X147849328Y-112759299D01*
X147758088Y-112576065D01*
X147713499Y-112517020D01*
X147634733Y-112412715D01*
X147483463Y-112274814D01*
X147309433Y-112167059D01*
X147309428Y-112167057D01*
X147309427Y-112167056D01*
X147118559Y-112093113D01*
X147118560Y-112093113D01*
X147118557Y-112093112D01*
X147118556Y-112093112D01*
X146917347Y-112055500D01*
X146712653Y-112055500D01*
X146511444Y-112093112D01*
X146511439Y-112093113D01*
X146320577Y-112167054D01*
X146320566Y-112167059D01*
X146146536Y-112274814D01*
X145995266Y-112412715D01*
X145871913Y-112576063D01*
X145871912Y-112576064D01*
X145871912Y-112576065D01*
X145867626Y-112584672D01*
X145780671Y-112759301D01*
X145724654Y-112956180D01*
X145705768Y-113159995D01*
X145384232Y-113159995D01*
X145365345Y-112956180D01*
X145360970Y-112940804D01*
X145309328Y-112759299D01*
X145218088Y-112576065D01*
X145173499Y-112517020D01*
X145094733Y-112412715D01*
X144943463Y-112274814D01*
X144769433Y-112167059D01*
X144769428Y-112167057D01*
X144769427Y-112167056D01*
X144578559Y-112093113D01*
X144578560Y-112093113D01*
X144578557Y-112093112D01*
X144578556Y-112093112D01*
X144377347Y-112055500D01*
X144172653Y-112055500D01*
X143971444Y-112093112D01*
X143971439Y-112093113D01*
X143780577Y-112167054D01*
X143780566Y-112167059D01*
X143606536Y-112274814D01*
X143455266Y-112412715D01*
X143331913Y-112576063D01*
X143331912Y-112576064D01*
X143331912Y-112576065D01*
X143327626Y-112584672D01*
X143240671Y-112759301D01*
X143184654Y-112956180D01*
X143165768Y-113159995D01*
X142844232Y-113159995D01*
X142825345Y-112956180D01*
X142820970Y-112940804D01*
X142769328Y-112759299D01*
X142678088Y-112576065D01*
X142633499Y-112517020D01*
X142554733Y-112412715D01*
X142403463Y-112274814D01*
X142229433Y-112167059D01*
X142229428Y-112167057D01*
X142229427Y-112167056D01*
X142038559Y-112093113D01*
X142038560Y-112093113D01*
X142038557Y-112093112D01*
X142038556Y-112093112D01*
X141837347Y-112055500D01*
X141632653Y-112055500D01*
X141431444Y-112093112D01*
X141431439Y-112093113D01*
X141240577Y-112167054D01*
X141240566Y-112167059D01*
X141066536Y-112274814D01*
X140915266Y-112412715D01*
X140791913Y-112576063D01*
X140791912Y-112576064D01*
X140791912Y-112576065D01*
X140787626Y-112584672D01*
X140700671Y-112759301D01*
X140644654Y-112956180D01*
X140625768Y-113159995D01*
X140304232Y-113159995D01*
X140285345Y-112956180D01*
X140280970Y-112940804D01*
X140229328Y-112759299D01*
X140138088Y-112576065D01*
X140093499Y-112517020D01*
X140014733Y-112412715D01*
X139863463Y-112274814D01*
X139689433Y-112167059D01*
X139689428Y-112167057D01*
X139689427Y-112167056D01*
X139498559Y-112093113D01*
X139498560Y-112093113D01*
X139498557Y-112093112D01*
X139498556Y-112093112D01*
X139297347Y-112055500D01*
X139092653Y-112055500D01*
X138891444Y-112093112D01*
X138891439Y-112093113D01*
X138700577Y-112167054D01*
X138700566Y-112167059D01*
X138526536Y-112274814D01*
X138375266Y-112412715D01*
X138251913Y-112576063D01*
X138251912Y-112576064D01*
X138251912Y-112576065D01*
X138247626Y-112584672D01*
X138160671Y-112759301D01*
X138104654Y-112956180D01*
X138085768Y-113159995D01*
X137764232Y-113159995D01*
X137745345Y-112956180D01*
X137740970Y-112940804D01*
X137689328Y-112759299D01*
X137598088Y-112576065D01*
X137553499Y-112517020D01*
X137474733Y-112412715D01*
X137323463Y-112274814D01*
X137149433Y-112167059D01*
X137149428Y-112167057D01*
X137149427Y-112167056D01*
X136958559Y-112093113D01*
X136958560Y-112093113D01*
X136958557Y-112093112D01*
X136958556Y-112093112D01*
X136757347Y-112055500D01*
X136552653Y-112055500D01*
X136351444Y-112093112D01*
X136351439Y-112093113D01*
X136160577Y-112167054D01*
X136160566Y-112167059D01*
X135986536Y-112274814D01*
X135835266Y-112412715D01*
X135711913Y-112576063D01*
X135711912Y-112576064D01*
X135711912Y-112576065D01*
X135707626Y-112584672D01*
X135620671Y-112759301D01*
X135564654Y-112956180D01*
X135545768Y-113159995D01*
X135224232Y-113159995D01*
X135205345Y-112956180D01*
X135200970Y-112940804D01*
X135149328Y-112759299D01*
X135058088Y-112576065D01*
X135013499Y-112517020D01*
X134934733Y-112412715D01*
X134783463Y-112274814D01*
X134609433Y-112167059D01*
X134609428Y-112167057D01*
X134609427Y-112167056D01*
X134418559Y-112093113D01*
X134418560Y-112093113D01*
X134418557Y-112093112D01*
X134418556Y-112093112D01*
X134217347Y-112055500D01*
X134012653Y-112055500D01*
X133811444Y-112093112D01*
X133811439Y-112093113D01*
X133620577Y-112167054D01*
X133620566Y-112167059D01*
X133446536Y-112274814D01*
X133295266Y-112412715D01*
X133171913Y-112576063D01*
X133171912Y-112576064D01*
X133171912Y-112576065D01*
X133167626Y-112584672D01*
X133080671Y-112759301D01*
X133024654Y-112956180D01*
X133005768Y-113159995D01*
X132684232Y-113159995D01*
X132665345Y-112956180D01*
X132660970Y-112940804D01*
X132609328Y-112759299D01*
X132518088Y-112576065D01*
X132473499Y-112517020D01*
X132394733Y-112412715D01*
X132243463Y-112274814D01*
X132069433Y-112167059D01*
X132069428Y-112167057D01*
X132069427Y-112167056D01*
X131878559Y-112093113D01*
X131878560Y-112093113D01*
X131878557Y-112093112D01*
X131878556Y-112093112D01*
X131677347Y-112055500D01*
X131472653Y-112055500D01*
X131271444Y-112093112D01*
X131271439Y-112093113D01*
X131080577Y-112167054D01*
X131080566Y-112167059D01*
X130906536Y-112274814D01*
X130755266Y-112412715D01*
X130631913Y-112576063D01*
X130631912Y-112576064D01*
X130631912Y-112576065D01*
X130627626Y-112584672D01*
X130540671Y-112759301D01*
X130484654Y-112956180D01*
X130465768Y-113159995D01*
X130144232Y-113159995D01*
X130125345Y-112956180D01*
X130120970Y-112940804D01*
X130069328Y-112759299D01*
X129978088Y-112576065D01*
X129933499Y-112517020D01*
X129854733Y-112412715D01*
X129703463Y-112274814D01*
X129529433Y-112167059D01*
X129529428Y-112167057D01*
X129529427Y-112167056D01*
X129338559Y-112093113D01*
X129338560Y-112093113D01*
X129338557Y-112093112D01*
X129338556Y-112093112D01*
X129137347Y-112055500D01*
X128932653Y-112055500D01*
X128731444Y-112093112D01*
X128731439Y-112093113D01*
X128540577Y-112167054D01*
X128540566Y-112167059D01*
X128366536Y-112274814D01*
X128215266Y-112412715D01*
X128091913Y-112576063D01*
X128091912Y-112576064D01*
X128091912Y-112576065D01*
X128087626Y-112584672D01*
X128000671Y-112759301D01*
X127944654Y-112956180D01*
X127925768Y-113159995D01*
X127604232Y-113159995D01*
X127585345Y-112956180D01*
X127580970Y-112940804D01*
X127529328Y-112759299D01*
X127438088Y-112576065D01*
X127393499Y-112517020D01*
X127314733Y-112412715D01*
X127163463Y-112274814D01*
X126989433Y-112167059D01*
X126989428Y-112167057D01*
X126989427Y-112167056D01*
X126798559Y-112093113D01*
X126798560Y-112093113D01*
X126798557Y-112093112D01*
X126798556Y-112093112D01*
X126597347Y-112055500D01*
X126392653Y-112055500D01*
X126191444Y-112093112D01*
X126191439Y-112093113D01*
X126000577Y-112167054D01*
X126000566Y-112167059D01*
X125826536Y-112274814D01*
X125675266Y-112412715D01*
X125551913Y-112576063D01*
X125551912Y-112576064D01*
X125551912Y-112576065D01*
X125547626Y-112584672D01*
X125460671Y-112759301D01*
X125404654Y-112956180D01*
X125385768Y-113159995D01*
X125064232Y-113159995D01*
X125045345Y-112956180D01*
X125040970Y-112940804D01*
X124989328Y-112759299D01*
X124898088Y-112576065D01*
X124853499Y-112517020D01*
X124774733Y-112412715D01*
X124623463Y-112274814D01*
X124449433Y-112167059D01*
X124449428Y-112167057D01*
X124449427Y-112167056D01*
X124258559Y-112093113D01*
X124258560Y-112093113D01*
X124258557Y-112093112D01*
X124258556Y-112093112D01*
X124057347Y-112055500D01*
X123852653Y-112055500D01*
X123651444Y-112093112D01*
X123651439Y-112093113D01*
X123460577Y-112167054D01*
X123460566Y-112167059D01*
X123286536Y-112274814D01*
X123135266Y-112412715D01*
X123011913Y-112576063D01*
X123011912Y-112576064D01*
X123011912Y-112576065D01*
X123007626Y-112584672D01*
X122920671Y-112759301D01*
X122864654Y-112956180D01*
X122845768Y-113159995D01*
X122524232Y-113159995D01*
X122505345Y-112956180D01*
X122500970Y-112940804D01*
X122449328Y-112759299D01*
X122358088Y-112576065D01*
X122313499Y-112517020D01*
X122234733Y-112412715D01*
X122083463Y-112274814D01*
X121909433Y-112167059D01*
X121909428Y-112167057D01*
X121909427Y-112167056D01*
X121718559Y-112093113D01*
X121718560Y-112093113D01*
X121718557Y-112093112D01*
X121718556Y-112093112D01*
X121517347Y-112055500D01*
X121312653Y-112055500D01*
X121111444Y-112093112D01*
X121111439Y-112093113D01*
X120920577Y-112167054D01*
X120920566Y-112167059D01*
X120746536Y-112274814D01*
X120595266Y-112412715D01*
X120471913Y-112576063D01*
X120471912Y-112576064D01*
X120471912Y-112576065D01*
X120467626Y-112584672D01*
X120380671Y-112759301D01*
X120324654Y-112956180D01*
X120305768Y-113159995D01*
X119984232Y-113159995D01*
X119965345Y-112956180D01*
X119960970Y-112940804D01*
X119909328Y-112759299D01*
X119818088Y-112576065D01*
X119773499Y-112517020D01*
X119694733Y-112412715D01*
X119543463Y-112274814D01*
X119369433Y-112167059D01*
X119369428Y-112167057D01*
X119369427Y-112167056D01*
X119178559Y-112093113D01*
X119178560Y-112093113D01*
X119178557Y-112093112D01*
X119178556Y-112093112D01*
X118977347Y-112055500D01*
X118772653Y-112055500D01*
X118571444Y-112093112D01*
X118571439Y-112093113D01*
X118380577Y-112167054D01*
X118380566Y-112167059D01*
X118206536Y-112274814D01*
X118055266Y-112412715D01*
X117931913Y-112576063D01*
X117931912Y-112576064D01*
X117931912Y-112576065D01*
X117927626Y-112584672D01*
X117840671Y-112759301D01*
X117784654Y-112956180D01*
X117765768Y-113159995D01*
X115930967Y-113159995D01*
X115952739Y-113127411D01*
X116083185Y-112862891D01*
X116083189Y-112862881D01*
X116177995Y-112583597D01*
X116177996Y-112583593D01*
X116235536Y-112294324D01*
X116235538Y-112294309D01*
X116254828Y-112000003D01*
X116254828Y-111999996D01*
X116235538Y-111705690D01*
X116235536Y-111705675D01*
X116177996Y-111416406D01*
X116177995Y-111416402D01*
X116083189Y-111137118D01*
X116083185Y-111137108D01*
X115952739Y-110872588D01*
X115788875Y-110627348D01*
X115788872Y-110627344D01*
X115759594Y-110593959D01*
X115759592Y-110593959D01*
X114936289Y-111417261D01*
X114839033Y-111283398D01*
X114716602Y-111160967D01*
X114582736Y-111063709D01*
X115406039Y-110240406D01*
X115406039Y-110240404D01*
X115372655Y-110211127D01*
X115372651Y-110211124D01*
X115127411Y-110047260D01*
X114862891Y-109916814D01*
X114862881Y-109916810D01*
X114583597Y-109822004D01*
X114583593Y-109822003D01*
X114294324Y-109764463D01*
X114294309Y-109764461D01*
X114000003Y-109745172D01*
X113999997Y-109745172D01*
X113705690Y-109764461D01*
X113705675Y-109764463D01*
X113416406Y-109822003D01*
X113416402Y-109822004D01*
X113137118Y-109916810D01*
X113137108Y-109916814D01*
X112872588Y-110047260D01*
X112627346Y-110211125D01*
X112593959Y-110240403D01*
X112593959Y-110240406D01*
X113417262Y-111063709D01*
X113283398Y-111160967D01*
X113160967Y-111283398D01*
X113063709Y-111417262D01*
X112240406Y-110593959D01*
X112240403Y-110593959D01*
X112211125Y-110627346D01*
X112047260Y-110872588D01*
X111916814Y-111137108D01*
X111916810Y-111137118D01*
X111822004Y-111416402D01*
X111822003Y-111416406D01*
X111764463Y-111705675D01*
X111764461Y-111705690D01*
X111745172Y-111999996D01*
X111300599Y-111999996D01*
X111300500Y-111996460D01*
X111300500Y-108827297D01*
X127640284Y-108827297D01*
X127661060Y-108985103D01*
X127721968Y-109132154D01*
X127818865Y-109258431D01*
X127945142Y-109355328D01*
X128037872Y-109393736D01*
X128092194Y-109416237D01*
X128250000Y-109437013D01*
X128407806Y-109416237D01*
X128554858Y-109355327D01*
X128554864Y-109355322D01*
X128562010Y-109351198D01*
X128563241Y-109353330D01*
X128617808Y-109332234D01*
X128628294Y-109331797D01*
X136930805Y-109331797D01*
X136997058Y-109351250D01*
X136997089Y-109351198D01*
X136997306Y-109351323D01*
X136998926Y-109351799D01*
X137002577Y-109354366D01*
X137004237Y-109355324D01*
X137004241Y-109355327D01*
X137151293Y-109416237D01*
X137309099Y-109437013D01*
X137466905Y-109416237D01*
X137559635Y-109377827D01*
X137613956Y-109355328D01*
X137740233Y-109258431D01*
X137837130Y-109132154D01*
X137859629Y-109077833D01*
X137898039Y-108985103D01*
X137918815Y-108827297D01*
X137898039Y-108669491D01*
X137875538Y-108615169D01*
X137837130Y-108522439D01*
X137740233Y-108396162D01*
X137613956Y-108299265D01*
X137466905Y-108238357D01*
X137309099Y-108217581D01*
X137151292Y-108238357D01*
X137004242Y-108299266D01*
X136997089Y-108303396D01*
X136995857Y-108301263D01*
X136941291Y-108322360D01*
X136930805Y-108322797D01*
X128628294Y-108322797D01*
X128562040Y-108303343D01*
X128562010Y-108303396D01*
X128561792Y-108303270D01*
X128560173Y-108302795D01*
X128556521Y-108300227D01*
X128554856Y-108299266D01*
X128407806Y-108238357D01*
X128250000Y-108217581D01*
X128092193Y-108238357D01*
X127945142Y-108299265D01*
X127818865Y-108396162D01*
X127721968Y-108522439D01*
X127661060Y-108669490D01*
X127640284Y-108827297D01*
X111300500Y-108827297D01*
X111300500Y-105912159D01*
X112650000Y-105912159D01*
X112650000Y-106560000D01*
X113566988Y-106560000D01*
X113534075Y-106617007D01*
X113500000Y-106744174D01*
X113500000Y-106875826D01*
X113534075Y-107002993D01*
X113566988Y-107060000D01*
X112650000Y-107060000D01*
X112650000Y-107707840D01*
X112656400Y-107767371D01*
X112706647Y-107902089D01*
X112792810Y-108017189D01*
X112907910Y-108103352D01*
X113042628Y-108153599D01*
X113102159Y-108159999D01*
X113102176Y-108160000D01*
X113750000Y-108160000D01*
X113750000Y-107243012D01*
X113807007Y-107275925D01*
X113934174Y-107310000D01*
X114065826Y-107310000D01*
X114192993Y-107275925D01*
X114250000Y-107243012D01*
X114250000Y-108160000D01*
X114897824Y-108160000D01*
X114897840Y-108159999D01*
X114957371Y-108153599D01*
X115092089Y-108103352D01*
X115207189Y-108017189D01*
X115293352Y-107902089D01*
X115343599Y-107767371D01*
X115349999Y-107707840D01*
X115350000Y-107707823D01*
X115350000Y-107060000D01*
X114433012Y-107060000D01*
X114465925Y-107002993D01*
X114500000Y-106875826D01*
X114500000Y-106744174D01*
X114465925Y-106617007D01*
X114433012Y-106560000D01*
X115350000Y-106560000D01*
X115350000Y-106224930D01*
X119745500Y-106224930D01*
X119745500Y-107275063D01*
X119745501Y-107275073D01*
X119760265Y-107349300D01*
X119816516Y-107433484D01*
X119900697Y-107489733D01*
X119900699Y-107489734D01*
X119974933Y-107504500D01*
X121025066Y-107504499D01*
X121025069Y-107504498D01*
X121025073Y-107504498D01*
X121088632Y-107491856D01*
X121099301Y-107489734D01*
X121183484Y-107433484D01*
X121239734Y-107349301D01*
X121254500Y-107275067D01*
X121254500Y-107069999D01*
X167355136Y-107069999D01*
X167355137Y-107070000D01*
X168158012Y-107070000D01*
X168140795Y-107079940D01*
X168084940Y-107135795D01*
X168045444Y-107204204D01*
X168025000Y-107280504D01*
X168025000Y-107359496D01*
X168045444Y-107435796D01*
X168084940Y-107504205D01*
X168140795Y-107560060D01*
X168158012Y-107570000D01*
X167355136Y-107570000D01*
X167363427Y-107611683D01*
X167363429Y-107611690D01*
X167438811Y-107793677D01*
X167548248Y-107957462D01*
X167548253Y-107957468D01*
X167687531Y-108096746D01*
X167687537Y-108096751D01*
X167851322Y-108206188D01*
X168033305Y-108281568D01*
X168033310Y-108281570D01*
X168226506Y-108319999D01*
X168226510Y-108320000D01*
X168625000Y-108320000D01*
X168625000Y-107620000D01*
X169125000Y-107620000D01*
X169125000Y-108320000D01*
X169523490Y-108320000D01*
X169523493Y-108319999D01*
X169716689Y-108281570D01*
X169716694Y-108281568D01*
X169898677Y-108206188D01*
X170062462Y-108096751D01*
X170062468Y-108096746D01*
X170201746Y-107957468D01*
X170201751Y-107957462D01*
X170311188Y-107793677D01*
X170386570Y-107611690D01*
X170386572Y-107611683D01*
X170394863Y-107570000D01*
X169591988Y-107570000D01*
X169609205Y-107560060D01*
X169665060Y-107504205D01*
X169704556Y-107435796D01*
X169725000Y-107359496D01*
X169725000Y-107280504D01*
X169704556Y-107204204D01*
X169665060Y-107135795D01*
X169609205Y-107079940D01*
X169591988Y-107070000D01*
X170394863Y-107070000D01*
X170394863Y-107069999D01*
X170386572Y-107028316D01*
X170386570Y-107028309D01*
X170311188Y-106846322D01*
X170201751Y-106682537D01*
X170201746Y-106682531D01*
X170062468Y-106543253D01*
X170062462Y-106543248D01*
X169898675Y-106433809D01*
X169895403Y-106432060D01*
X169894011Y-106430693D01*
X169893531Y-106430372D01*
X169893591Y-106430280D01*
X169844758Y-106382304D01*
X169829053Y-106313066D01*
X169851691Y-106250693D01*
X169851386Y-106250517D01*
X169852379Y-106248796D01*
X169853275Y-106246329D01*
X169854848Y-106244233D01*
X169855508Y-106243371D01*
X169855515Y-106243365D01*
X169931281Y-106112135D01*
X169970500Y-105965766D01*
X169970500Y-105814234D01*
X169931281Y-105667865D01*
X169855515Y-105536635D01*
X169855513Y-105536633D01*
X169855509Y-105536628D01*
X169748371Y-105429490D01*
X169748361Y-105429482D01*
X169617139Y-105353721D01*
X169617136Y-105353720D01*
X169617135Y-105353719D01*
X169617133Y-105353718D01*
X169617132Y-105353718D01*
X169554320Y-105336888D01*
X169470766Y-105314500D01*
X169319234Y-105314500D01*
X169240798Y-105335516D01*
X169172867Y-105353718D01*
X169172860Y-105353721D01*
X169041638Y-105429482D01*
X169041628Y-105429490D01*
X168934490Y-105536628D01*
X168934482Y-105536638D01*
X168858721Y-105667860D01*
X168858718Y-105667867D01*
X168833854Y-105760661D01*
X168819500Y-105814234D01*
X168819500Y-105965766D01*
X168831424Y-106010266D01*
X168858718Y-106112132D01*
X168858721Y-106112139D01*
X168869611Y-106131000D01*
X168886349Y-106199995D01*
X168863129Y-106267087D01*
X168807322Y-106310974D01*
X168760492Y-106320000D01*
X168226506Y-106320000D01*
X168033310Y-106358429D01*
X168033305Y-106358431D01*
X167851322Y-106433811D01*
X167687537Y-106543248D01*
X167687531Y-106543253D01*
X167548253Y-106682531D01*
X167548248Y-106682537D01*
X167438811Y-106846322D01*
X167363429Y-107028309D01*
X167363427Y-107028316D01*
X167355136Y-107069999D01*
X121254500Y-107069999D01*
X121254499Y-106224934D01*
X121254498Y-106224930D01*
X121254498Y-106224926D01*
X121239734Y-106150699D01*
X121183483Y-106066515D01*
X121099302Y-106010266D01*
X121025069Y-105995500D01*
X121018911Y-105994894D01*
X121019178Y-105992175D01*
X120962379Y-105975498D01*
X120915886Y-105921842D01*
X120904500Y-105869500D01*
X120904500Y-104500000D01*
X132140284Y-104500000D01*
X132161060Y-104657806D01*
X132221968Y-104804857D01*
X132318865Y-104931134D01*
X132445142Y-105028031D01*
X132537872Y-105066439D01*
X132592194Y-105088940D01*
X132750000Y-105109716D01*
X132907806Y-105088940D01*
X133054858Y-105028030D01*
X133054864Y-105028025D01*
X133062010Y-105023901D01*
X133063241Y-105026033D01*
X133117808Y-105004937D01*
X133128294Y-105004500D01*
X134371706Y-105004500D01*
X134437959Y-105023953D01*
X134437990Y-105023901D01*
X134438207Y-105024026D01*
X134439827Y-105024502D01*
X134443478Y-105027069D01*
X134445138Y-105028027D01*
X134445142Y-105028030D01*
X134592194Y-105088940D01*
X134750000Y-105109716D01*
X134907806Y-105088940D01*
X135054858Y-105028030D01*
X135054864Y-105028025D01*
X135062010Y-105023901D01*
X135063241Y-105026033D01*
X135117808Y-105004937D01*
X135128294Y-105004500D01*
X149871706Y-105004500D01*
X149937959Y-105023953D01*
X149937990Y-105023901D01*
X149938207Y-105024026D01*
X149939827Y-105024502D01*
X149943478Y-105027069D01*
X149945138Y-105028027D01*
X149945142Y-105028030D01*
X150092194Y-105088940D01*
X150250000Y-105109716D01*
X150407806Y-105088940D01*
X150500536Y-105050530D01*
X150554857Y-105028031D01*
X150681134Y-104931134D01*
X150778031Y-104804857D01*
X150800530Y-104750536D01*
X150838940Y-104657806D01*
X150859716Y-104500000D01*
X150838940Y-104342194D01*
X150816439Y-104287872D01*
X150778031Y-104195142D01*
X150681134Y-104068865D01*
X150554857Y-103971968D01*
X150407806Y-103911060D01*
X150250000Y-103890284D01*
X150092193Y-103911060D01*
X149945143Y-103971969D01*
X149937990Y-103976099D01*
X149936758Y-103973966D01*
X149882192Y-103995063D01*
X149871706Y-103995500D01*
X135128294Y-103995500D01*
X135062040Y-103976046D01*
X135062010Y-103976099D01*
X135061792Y-103975973D01*
X135060173Y-103975498D01*
X135056521Y-103972930D01*
X135054856Y-103971969D01*
X134907806Y-103911060D01*
X134750000Y-103890284D01*
X134592193Y-103911060D01*
X134445143Y-103971969D01*
X134437990Y-103976099D01*
X134436758Y-103973966D01*
X134382192Y-103995063D01*
X134371706Y-103995500D01*
X133128294Y-103995500D01*
X133062040Y-103976046D01*
X133062010Y-103976099D01*
X133061792Y-103975973D01*
X133060173Y-103975498D01*
X133056521Y-103972930D01*
X133054856Y-103971969D01*
X132907806Y-103911060D01*
X132750000Y-103890284D01*
X132592193Y-103911060D01*
X132445142Y-103971968D01*
X132318865Y-104068865D01*
X132221968Y-104195142D01*
X132161060Y-104342193D01*
X132140284Y-104500000D01*
X120904500Y-104500000D01*
X120904500Y-103719739D01*
X120924502Y-103651618D01*
X120941405Y-103630644D01*
X121024209Y-103547840D01*
X167500000Y-103547840D01*
X167506400Y-103607371D01*
X167556647Y-103742089D01*
X167642810Y-103857189D01*
X167757910Y-103943352D01*
X167892628Y-103993599D01*
X167952159Y-103999999D01*
X167952176Y-104000000D01*
X168250000Y-104000000D01*
X168750000Y-104000000D01*
X169029522Y-104000000D01*
X169097643Y-104020002D01*
X169144136Y-104073658D01*
X169154443Y-104142446D01*
X169140284Y-104250000D01*
X169142917Y-104270000D01*
X169161060Y-104407806D01*
X169221968Y-104554857D01*
X169318865Y-104681134D01*
X169445142Y-104778031D01*
X169537872Y-104816439D01*
X169592194Y-104838940D01*
X169750000Y-104859716D01*
X169907806Y-104838940D01*
X170017284Y-104793593D01*
X170054854Y-104778032D01*
X170054854Y-104778031D01*
X170054858Y-104778030D01*
X170181134Y-104681134D01*
X170181135Y-104681132D01*
X170181910Y-104680538D01*
X170248131Y-104654937D01*
X170258615Y-104654500D01*
X171369501Y-104654500D01*
X171437622Y-104674502D01*
X171484115Y-104728158D01*
X171493019Y-104769093D01*
X171494895Y-104768909D01*
X171495501Y-104775072D01*
X171510265Y-104849300D01*
X171566516Y-104933484D01*
X171650697Y-104989733D01*
X171650699Y-104989734D01*
X171724933Y-105004500D01*
X172775066Y-105004499D01*
X172775069Y-105004498D01*
X172775073Y-105004498D01*
X172824326Y-104994701D01*
X172849301Y-104989734D01*
X172933484Y-104933484D01*
X172989734Y-104849301D01*
X173004500Y-104775067D01*
X173004499Y-103724934D01*
X173004498Y-103724930D01*
X173004498Y-103724926D01*
X172989734Y-103650699D01*
X172982775Y-103640284D01*
X172933484Y-103566516D01*
X172905534Y-103547840D01*
X172849302Y-103510266D01*
X172775067Y-103495500D01*
X171724936Y-103495500D01*
X171724926Y-103495501D01*
X171650699Y-103510265D01*
X171566515Y-103566516D01*
X171510266Y-103650697D01*
X171495500Y-103724930D01*
X171494894Y-103731089D01*
X171492175Y-103730821D01*
X171475498Y-103787621D01*
X171421842Y-103834114D01*
X171369500Y-103845500D01*
X170258615Y-103845500D01*
X170190494Y-103825498D01*
X170181910Y-103819462D01*
X170181135Y-103818867D01*
X170181134Y-103818866D01*
X170054858Y-103721970D01*
X170054857Y-103721969D01*
X170054854Y-103721967D01*
X169907806Y-103661060D01*
X169750000Y-103640284D01*
X169642446Y-103654443D01*
X169572298Y-103643505D01*
X169519199Y-103596377D01*
X169500000Y-103529522D01*
X169500000Y-103250000D01*
X168750000Y-103250000D01*
X168750000Y-104000000D01*
X168250000Y-104000000D01*
X168250000Y-103250000D01*
X167500000Y-103250000D01*
X167500000Y-103547840D01*
X121024209Y-103547840D01*
X122380644Y-102191405D01*
X122442956Y-102157379D01*
X122469739Y-102154500D01*
X123189485Y-102154500D01*
X123257606Y-102174502D01*
X123304099Y-102228158D01*
X123314203Y-102298432D01*
X123289447Y-102357204D01*
X123221968Y-102445142D01*
X123161060Y-102592193D01*
X123140284Y-102750000D01*
X123161060Y-102907806D01*
X123221968Y-103054857D01*
X123318865Y-103181134D01*
X123445142Y-103278031D01*
X123537872Y-103316439D01*
X123592194Y-103338940D01*
X123750000Y-103359716D01*
X123907806Y-103338940D01*
X124017284Y-103293593D01*
X124054854Y-103278032D01*
X124054854Y-103278031D01*
X124054858Y-103278030D01*
X124181134Y-103181134D01*
X124181135Y-103181132D01*
X124181910Y-103180538D01*
X124248131Y-103154937D01*
X124258615Y-103154500D01*
X135241385Y-103154500D01*
X135309506Y-103174502D01*
X135318090Y-103180538D01*
X135318864Y-103181132D01*
X135318866Y-103181134D01*
X135443870Y-103277054D01*
X135445145Y-103278032D01*
X135528061Y-103312375D01*
X135592194Y-103338940D01*
X135750000Y-103359716D01*
X135907806Y-103338940D01*
X136000536Y-103300530D01*
X136054857Y-103278031D01*
X136181134Y-103181134D01*
X136278031Y-103054857D01*
X136300530Y-103000536D01*
X136338940Y-102907806D01*
X136359716Y-102750000D01*
X136338940Y-102592194D01*
X136302616Y-102504498D01*
X136280937Y-102452159D01*
X167500000Y-102452159D01*
X167500000Y-102750000D01*
X168250000Y-102750000D01*
X168250000Y-102000000D01*
X168750000Y-102000000D01*
X168750000Y-102750000D01*
X169500000Y-102750000D01*
X169500000Y-102470477D01*
X169520002Y-102402356D01*
X169573658Y-102355863D01*
X169642443Y-102345555D01*
X169750000Y-102359716D01*
X169907806Y-102338940D01*
X170023584Y-102290984D01*
X170054854Y-102278032D01*
X170054854Y-102278031D01*
X170054858Y-102278030D01*
X170181134Y-102181134D01*
X170181135Y-102181132D01*
X170181910Y-102180538D01*
X170248131Y-102154937D01*
X170258615Y-102154500D01*
X171369501Y-102154500D01*
X171437622Y-102174502D01*
X171484115Y-102228158D01*
X171493019Y-102269093D01*
X171494895Y-102268909D01*
X171495501Y-102275072D01*
X171510265Y-102349300D01*
X171566516Y-102433484D01*
X171650697Y-102489733D01*
X171650699Y-102489734D01*
X171724933Y-102504500D01*
X172775066Y-102504499D01*
X172775069Y-102504498D01*
X172775073Y-102504498D01*
X172824326Y-102494701D01*
X172849301Y-102489734D01*
X172933484Y-102433484D01*
X172989734Y-102349301D01*
X173004500Y-102275067D01*
X173004499Y-101224934D01*
X173004498Y-101224930D01*
X173004498Y-101224926D01*
X172989734Y-101150699D01*
X172982775Y-101140284D01*
X172933484Y-101066516D01*
X172933483Y-101066515D01*
X172849302Y-101010266D01*
X172775067Y-100995500D01*
X171724936Y-100995500D01*
X171724926Y-100995501D01*
X171650699Y-101010265D01*
X171566515Y-101066516D01*
X171510266Y-101150697D01*
X171495500Y-101224930D01*
X171494894Y-101231089D01*
X171492175Y-101230821D01*
X171475498Y-101287621D01*
X171421842Y-101334114D01*
X171369500Y-101345500D01*
X170258615Y-101345500D01*
X170190494Y-101325498D01*
X170181910Y-101319462D01*
X170181135Y-101318867D01*
X170181134Y-101318866D01*
X170054858Y-101221970D01*
X170054857Y-101221969D01*
X170054854Y-101221967D01*
X169907806Y-101161060D01*
X169750000Y-101140284D01*
X169592193Y-101161060D01*
X169445142Y-101221968D01*
X169318865Y-101318865D01*
X169221968Y-101445142D01*
X169161060Y-101592193D01*
X169140284Y-101750000D01*
X169154444Y-101857553D01*
X169143505Y-101927702D01*
X169096377Y-101980801D01*
X169029522Y-102000000D01*
X168750000Y-102000000D01*
X168250000Y-102000000D01*
X167952159Y-102000000D01*
X167892628Y-102006400D01*
X167757910Y-102056647D01*
X167642810Y-102142810D01*
X167556647Y-102257910D01*
X167506400Y-102392628D01*
X167500000Y-102452159D01*
X136280937Y-102452159D01*
X136278031Y-102445142D01*
X136210553Y-102357204D01*
X136184952Y-102290984D01*
X136199217Y-102221435D01*
X136248818Y-102170639D01*
X136310515Y-102154500D01*
X139241385Y-102154500D01*
X139309506Y-102174502D01*
X139318090Y-102180538D01*
X139318864Y-102181132D01*
X139318866Y-102181134D01*
X139445142Y-102278030D01*
X139445145Y-102278032D01*
X139499711Y-102300633D01*
X139592194Y-102338940D01*
X139750000Y-102359716D01*
X139907806Y-102338940D01*
X140000536Y-102300530D01*
X140054857Y-102278031D01*
X140181134Y-102181134D01*
X140278031Y-102054857D01*
X140328165Y-101933819D01*
X140338940Y-101907806D01*
X140359716Y-101750000D01*
X140338940Y-101592194D01*
X140311596Y-101526179D01*
X140278031Y-101445142D01*
X140181134Y-101318865D01*
X140054857Y-101221968D01*
X139907806Y-101161060D01*
X139750000Y-101140284D01*
X139592193Y-101161060D01*
X139445145Y-101221967D01*
X139408613Y-101250000D01*
X139318866Y-101318866D01*
X139318864Y-101318867D01*
X139318090Y-101319462D01*
X139251869Y-101345063D01*
X139241385Y-101345500D01*
X133258615Y-101345500D01*
X133190494Y-101325498D01*
X133181910Y-101319462D01*
X133181135Y-101318867D01*
X133181134Y-101318866D01*
X133054858Y-101221970D01*
X133054857Y-101221969D01*
X133054854Y-101221967D01*
X132907806Y-101161060D01*
X132750000Y-101140284D01*
X132592193Y-101161060D01*
X132445142Y-101221968D01*
X132318865Y-101318865D01*
X132221968Y-101445142D01*
X132161060Y-101592193D01*
X132140284Y-101750000D01*
X132161060Y-101907806D01*
X132221968Y-102054857D01*
X132289447Y-102142796D01*
X132315048Y-102209016D01*
X132300783Y-102278565D01*
X132251182Y-102329361D01*
X132189485Y-102345500D01*
X126060515Y-102345500D01*
X125992394Y-102325498D01*
X125945901Y-102271842D01*
X125935797Y-102201568D01*
X125960553Y-102142796D01*
X126028031Y-102054857D01*
X126078165Y-101933819D01*
X126088940Y-101907806D01*
X126109716Y-101750000D01*
X126088940Y-101592194D01*
X126061596Y-101526179D01*
X126028031Y-101445142D01*
X125931134Y-101318865D01*
X125804857Y-101221968D01*
X125657806Y-101161060D01*
X125500000Y-101140284D01*
X125342193Y-101161060D01*
X125195145Y-101221967D01*
X125158613Y-101250000D01*
X125068866Y-101318866D01*
X125068864Y-101318867D01*
X125068090Y-101319462D01*
X125001869Y-101345063D01*
X124991385Y-101345500D01*
X121008615Y-101345500D01*
X120940494Y-101325498D01*
X120931910Y-101319462D01*
X120931135Y-101318867D01*
X120931134Y-101318866D01*
X120804858Y-101221970D01*
X120804857Y-101221969D01*
X120804854Y-101221967D01*
X120657806Y-101161060D01*
X120500000Y-101140284D01*
X120342193Y-101161060D01*
X120195142Y-101221968D01*
X120068865Y-101318865D01*
X119971968Y-101445142D01*
X119911060Y-101592193D01*
X119890284Y-101750000D01*
X119911060Y-101907806D01*
X119971968Y-102054857D01*
X120068865Y-102181134D01*
X120195142Y-102278031D01*
X120281826Y-102313935D01*
X120342194Y-102338940D01*
X120500000Y-102359716D01*
X120657806Y-102338940D01*
X120804858Y-102278030D01*
X120804857Y-102278030D01*
X120808692Y-102276442D01*
X120879281Y-102268853D01*
X120942768Y-102300633D01*
X120978995Y-102361691D01*
X120976461Y-102432642D01*
X120946005Y-102481946D01*
X120251631Y-103176320D01*
X120224839Y-103203112D01*
X120176321Y-103251629D01*
X120176317Y-103251634D01*
X120123068Y-103343864D01*
X120123065Y-103343871D01*
X120095500Y-103446748D01*
X120095500Y-105869500D01*
X120075498Y-105937621D01*
X120021842Y-105984114D01*
X119980909Y-105993046D01*
X119981091Y-105994895D01*
X119974926Y-105995501D01*
X119900699Y-106010265D01*
X119816515Y-106066516D01*
X119760266Y-106150697D01*
X119745500Y-106224930D01*
X115350000Y-106224930D01*
X115350000Y-105912176D01*
X115349999Y-105912159D01*
X115343599Y-105852628D01*
X115293352Y-105717910D01*
X115207189Y-105602810D01*
X115092089Y-105516647D01*
X114957371Y-105466400D01*
X114897840Y-105460000D01*
X114619015Y-105460000D01*
X114550894Y-105439998D01*
X114504401Y-105386342D01*
X114494297Y-105316068D01*
X114523791Y-105251488D01*
X114552684Y-105226873D01*
X114597146Y-105199342D01*
X114668462Y-105155186D01*
X114819732Y-105017285D01*
X114943088Y-104853935D01*
X115034328Y-104670701D01*
X115090345Y-104473821D01*
X115109232Y-104270000D01*
X115102295Y-104195142D01*
X115097412Y-104142447D01*
X115090345Y-104066179D01*
X115036521Y-103877006D01*
X115037117Y-103806013D01*
X115068614Y-103753433D01*
X118130644Y-100691405D01*
X118192956Y-100657379D01*
X118219739Y-100654500D01*
X141332619Y-100654500D01*
X141400740Y-100674502D01*
X141409324Y-100680538D01*
X141410098Y-100681132D01*
X141410100Y-100681134D01*
X141536376Y-100778030D01*
X141536379Y-100778032D01*
X141619295Y-100812375D01*
X141683428Y-100838940D01*
X141841234Y-100859716D01*
X141999040Y-100838940D01*
X142091770Y-100800530D01*
X142146091Y-100778031D01*
X142272368Y-100681134D01*
X142369265Y-100554857D01*
X142391764Y-100500536D01*
X142430174Y-100407806D01*
X142450950Y-100250000D01*
X142446231Y-100214156D01*
X142457170Y-100144007D01*
X142504298Y-100090908D01*
X142572652Y-100071718D01*
X142619368Y-100081300D01*
X142637813Y-100088940D01*
X142795619Y-100109716D01*
X142953425Y-100088940D01*
X143046155Y-100050530D01*
X143100476Y-100028031D01*
X143226753Y-99931134D01*
X143323650Y-99804857D01*
X143367081Y-99700002D01*
X143384559Y-99657806D01*
X143405335Y-99500000D01*
X143384559Y-99342194D01*
X143347538Y-99252815D01*
X143323650Y-99195142D01*
X143226753Y-99068865D01*
X143100476Y-98971968D01*
X142953425Y-98911060D01*
X142795619Y-98890284D01*
X142637812Y-98911060D01*
X142490764Y-98971967D01*
X142472242Y-98986180D01*
X142364485Y-99068866D01*
X142364483Y-99068867D01*
X142363709Y-99069462D01*
X142297488Y-99095063D01*
X142287004Y-99095500D01*
X116283253Y-99095500D01*
X116176747Y-99095500D01*
X116121617Y-99110271D01*
X116073871Y-99123065D01*
X116073864Y-99123068D01*
X115981634Y-99176317D01*
X115981624Y-99176325D01*
X114499481Y-100658468D01*
X114437169Y-100692494D01*
X114366353Y-100687429D01*
X114364870Y-100686865D01*
X114303557Y-100663112D01*
X114181435Y-100640284D01*
X114102347Y-100625500D01*
X113897653Y-100625500D01*
X113696444Y-100663112D01*
X113696439Y-100663113D01*
X113505577Y-100737054D01*
X113505566Y-100737059D01*
X113331536Y-100844814D01*
X113180266Y-100982715D01*
X113056913Y-101146063D01*
X112965671Y-101329301D01*
X112909654Y-101526180D01*
X112890768Y-101729995D01*
X112890768Y-101730004D01*
X112909654Y-101933819D01*
X112944093Y-102054858D01*
X112965672Y-102130701D01*
X113056912Y-102313935D01*
X113056913Y-102313936D01*
X113180266Y-102477284D01*
X113331536Y-102615185D01*
X113505566Y-102722940D01*
X113505568Y-102722940D01*
X113505573Y-102722944D01*
X113696444Y-102796888D01*
X113897653Y-102834500D01*
X113897655Y-102834500D01*
X114102345Y-102834500D01*
X114102347Y-102834500D01*
X114303556Y-102796888D01*
X114494427Y-102722944D01*
X114668462Y-102615186D01*
X114819732Y-102477285D01*
X114943088Y-102313935D01*
X115034328Y-102130701D01*
X115090345Y-101933821D01*
X115104781Y-101778031D01*
X115109232Y-101730004D01*
X115109232Y-101729995D01*
X115096462Y-101592193D01*
X115090345Y-101526179D01*
X115040951Y-101352576D01*
X115041547Y-101281583D01*
X115073042Y-101229005D01*
X116360646Y-99941402D01*
X116422956Y-99907379D01*
X116449739Y-99904500D01*
X117469260Y-99904500D01*
X117537381Y-99924502D01*
X117583874Y-99978158D01*
X117593978Y-100048432D01*
X117564484Y-100113012D01*
X117558355Y-100119595D01*
X114485065Y-103192884D01*
X114422753Y-103226910D01*
X114351937Y-103221845D01*
X114350493Y-103221295D01*
X114303559Y-103203113D01*
X114303560Y-103203113D01*
X114303557Y-103203112D01*
X114303556Y-103203112D01*
X114102347Y-103165500D01*
X113897653Y-103165500D01*
X113751160Y-103192884D01*
X113696439Y-103203113D01*
X113505577Y-103277054D01*
X113505566Y-103277059D01*
X113331536Y-103384814D01*
X113180266Y-103522715D01*
X113056913Y-103686063D01*
X112965671Y-103869301D01*
X112909654Y-104066180D01*
X112890768Y-104269995D01*
X112890768Y-104270004D01*
X112909654Y-104473819D01*
X112932712Y-104554858D01*
X112965672Y-104670701D01*
X113056912Y-104853935D01*
X113056913Y-104853936D01*
X113180266Y-105017284D01*
X113331536Y-105155185D01*
X113447316Y-105226873D01*
X113494703Y-105279740D01*
X113505986Y-105349834D01*
X113477582Y-105414901D01*
X113418509Y-105454283D01*
X113380985Y-105460000D01*
X113102159Y-105460000D01*
X113042628Y-105466400D01*
X112907910Y-105516647D01*
X112792810Y-105602810D01*
X112706647Y-105717910D01*
X112656400Y-105852628D01*
X112650000Y-105912159D01*
X111300500Y-105912159D01*
X111300500Y-99189995D01*
X112890768Y-99189995D01*
X112890768Y-99190004D01*
X112909654Y-99393819D01*
X112949166Y-99532689D01*
X112965672Y-99590701D01*
X113056912Y-99773935D01*
X113056913Y-99773936D01*
X113180266Y-99937284D01*
X113331536Y-100075185D01*
X113505566Y-100182940D01*
X113505568Y-100182940D01*
X113505573Y-100182944D01*
X113696444Y-100256888D01*
X113897653Y-100294500D01*
X113897655Y-100294500D01*
X114102345Y-100294500D01*
X114102347Y-100294500D01*
X114303556Y-100256888D01*
X114494427Y-100182944D01*
X114668462Y-100075186D01*
X114819732Y-99937285D01*
X114828013Y-99926320D01*
X114844490Y-99904500D01*
X114943088Y-99773935D01*
X115034328Y-99590701D01*
X115090345Y-99393821D01*
X115108756Y-99195142D01*
X115109232Y-99190004D01*
X115109232Y-99189995D01*
X115090345Y-98986180D01*
X115086302Y-98971970D01*
X115034328Y-98789299D01*
X114943088Y-98606065D01*
X114882679Y-98526070D01*
X114819733Y-98442715D01*
X114668463Y-98304814D01*
X114657326Y-98297918D01*
X145248862Y-98297918D01*
X145269638Y-98455724D01*
X145330546Y-98602775D01*
X145427443Y-98729052D01*
X145553720Y-98825949D01*
X145616268Y-98851856D01*
X145700772Y-98886858D01*
X145858578Y-98907634D01*
X146016384Y-98886858D01*
X146132070Y-98838940D01*
X146163432Y-98825950D01*
X146163432Y-98825949D01*
X146163436Y-98825948D01*
X146289712Y-98729052D01*
X146289713Y-98729050D01*
X146290488Y-98728456D01*
X146356709Y-98702855D01*
X146367193Y-98702418D01*
X152803832Y-98702418D01*
X152871953Y-98722420D01*
X152880536Y-98728456D01*
X152945143Y-98778031D01*
X153013948Y-98806530D01*
X153092194Y-98838940D01*
X153250000Y-98859716D01*
X153407806Y-98838940D01*
X153500536Y-98800530D01*
X153539687Y-98784314D01*
X164174598Y-98784314D01*
X164195374Y-98942120D01*
X164256281Y-99089168D01*
X164256283Y-99089171D01*
X164256284Y-99089172D01*
X164353180Y-99215448D01*
X164353181Y-99215449D01*
X164353776Y-99216224D01*
X164379377Y-99282445D01*
X164379814Y-99292929D01*
X164379814Y-99337567D01*
X164381054Y-99342193D01*
X164407379Y-99440442D01*
X164407382Y-99440449D01*
X164460631Y-99532679D01*
X164460639Y-99532689D01*
X166104328Y-101176377D01*
X166138353Y-101238689D01*
X166140155Y-101249025D01*
X166161060Y-101407806D01*
X166221968Y-101554857D01*
X166318865Y-101681134D01*
X166445142Y-101778031D01*
X166537872Y-101816439D01*
X166592194Y-101838940D01*
X166750000Y-101859716D01*
X166907806Y-101838940D01*
X167000536Y-101800530D01*
X167054857Y-101778031D01*
X167181134Y-101681134D01*
X167278031Y-101554857D01*
X167323475Y-101445142D01*
X167338940Y-101407806D01*
X167359716Y-101250000D01*
X167338940Y-101092194D01*
X167305005Y-101010266D01*
X167278031Y-100945142D01*
X167181134Y-100818865D01*
X167054857Y-100721968D01*
X166907806Y-100661060D01*
X166749025Y-100640155D01*
X166684098Y-100611432D01*
X166676377Y-100604328D01*
X165324864Y-99252815D01*
X165290838Y-99190503D01*
X165295903Y-99119688D01*
X165308691Y-99096600D01*
X165308214Y-99096325D01*
X165312342Y-99089174D01*
X165312344Y-99089172D01*
X165373254Y-98942120D01*
X165394030Y-98784314D01*
X165373254Y-98626508D01*
X165347447Y-98564204D01*
X165312345Y-98479456D01*
X165274395Y-98429999D01*
X167355136Y-98429999D01*
X167355137Y-98430000D01*
X168158012Y-98430000D01*
X168140795Y-98439940D01*
X168084940Y-98495795D01*
X168045444Y-98564204D01*
X168025000Y-98640504D01*
X168025000Y-98719496D01*
X168045444Y-98795796D01*
X168084940Y-98864205D01*
X168140795Y-98920060D01*
X168158012Y-98930000D01*
X167355136Y-98930000D01*
X167363427Y-98971683D01*
X167363429Y-98971690D01*
X167438811Y-99153677D01*
X167548248Y-99317462D01*
X167548253Y-99317468D01*
X167687531Y-99456746D01*
X167687537Y-99456751D01*
X167851322Y-99566188D01*
X168033305Y-99641568D01*
X168033310Y-99641570D01*
X168226506Y-99679999D01*
X168226510Y-99680000D01*
X168760492Y-99680000D01*
X168828613Y-99700002D01*
X168875106Y-99753658D01*
X168885210Y-99823932D01*
X168869611Y-99869000D01*
X168858721Y-99887860D01*
X168858718Y-99887867D01*
X168853490Y-99907379D01*
X168819500Y-100034234D01*
X168819500Y-100185766D01*
X168838557Y-100256888D01*
X168858718Y-100332132D01*
X168858721Y-100332139D01*
X168934482Y-100463361D01*
X168934490Y-100463371D01*
X169041628Y-100570509D01*
X169041633Y-100570513D01*
X169041635Y-100570515D01*
X169041636Y-100570516D01*
X169041638Y-100570517D01*
X169112505Y-100611432D01*
X169172865Y-100646281D01*
X169319234Y-100685500D01*
X169319236Y-100685500D01*
X169470764Y-100685500D01*
X169470766Y-100685500D01*
X169617135Y-100646281D01*
X169748365Y-100570515D01*
X169855515Y-100463365D01*
X169931281Y-100332135D01*
X169970500Y-100185766D01*
X169970500Y-100034234D01*
X169931281Y-99887865D01*
X169855515Y-99756635D01*
X169854843Y-99755759D01*
X169854505Y-99754886D01*
X169851386Y-99749483D01*
X169852228Y-99748996D01*
X169829244Y-99689539D01*
X169843510Y-99619990D01*
X169893112Y-99569195D01*
X169895412Y-99567934D01*
X169898682Y-99566186D01*
X170062462Y-99456751D01*
X170062468Y-99456746D01*
X170201746Y-99317468D01*
X170201751Y-99317462D01*
X170311188Y-99153677D01*
X170386570Y-98971690D01*
X170386572Y-98971683D01*
X170394863Y-98930000D01*
X169591988Y-98930000D01*
X169609205Y-98920060D01*
X169665060Y-98864205D01*
X169704556Y-98795796D01*
X169725000Y-98719496D01*
X169725000Y-98640504D01*
X169704556Y-98564204D01*
X169665060Y-98495795D01*
X169609205Y-98439940D01*
X169591988Y-98430000D01*
X170394863Y-98430000D01*
X170394863Y-98429999D01*
X170386572Y-98388316D01*
X170386570Y-98388309D01*
X170311188Y-98206322D01*
X170201751Y-98042537D01*
X170201746Y-98042531D01*
X170062468Y-97903253D01*
X170062462Y-97903248D01*
X169898677Y-97793811D01*
X169716694Y-97718431D01*
X169716689Y-97718429D01*
X169523493Y-97680000D01*
X169125000Y-97680000D01*
X169125000Y-98380000D01*
X168625000Y-98380000D01*
X168625000Y-97680000D01*
X168226506Y-97680000D01*
X168033310Y-97718429D01*
X168033305Y-97718431D01*
X167851322Y-97793811D01*
X167687537Y-97903248D01*
X167687531Y-97903253D01*
X167548253Y-98042531D01*
X167548248Y-98042537D01*
X167438811Y-98206322D01*
X167363429Y-98388309D01*
X167363427Y-98388316D01*
X167355136Y-98429999D01*
X165274395Y-98429999D01*
X165215448Y-98353179D01*
X165089171Y-98256282D01*
X164942120Y-98195374D01*
X164784314Y-98174598D01*
X164626507Y-98195374D01*
X164479456Y-98256282D01*
X164353179Y-98353179D01*
X164256282Y-98479456D01*
X164195374Y-98626507D01*
X164174598Y-98784314D01*
X153539687Y-98784314D01*
X153554857Y-98778031D01*
X153681134Y-98681134D01*
X153778031Y-98554857D01*
X153819092Y-98455724D01*
X153838940Y-98407806D01*
X153859716Y-98250000D01*
X153838940Y-98092194D01*
X153797878Y-97993060D01*
X153778031Y-97945142D01*
X153681134Y-97818865D01*
X153554857Y-97721968D01*
X153407806Y-97661060D01*
X153250000Y-97640284D01*
X153092193Y-97661060D01*
X152945142Y-97721968D01*
X152818868Y-97818863D01*
X152818866Y-97818866D01*
X152799485Y-97844123D01*
X152742149Y-97885989D01*
X152699524Y-97893418D01*
X146367193Y-97893418D01*
X146299072Y-97873416D01*
X146290488Y-97867380D01*
X146289713Y-97866785D01*
X146289712Y-97866784D01*
X146163436Y-97769888D01*
X146163435Y-97769887D01*
X146163432Y-97769885D01*
X146016384Y-97708978D01*
X145858578Y-97688202D01*
X145700771Y-97708978D01*
X145553720Y-97769886D01*
X145427443Y-97866783D01*
X145330546Y-97993060D01*
X145269638Y-98140111D01*
X145248862Y-98297918D01*
X114657326Y-98297918D01*
X114494433Y-98197059D01*
X114494428Y-98197057D01*
X114494427Y-98197056D01*
X114490085Y-98195374D01*
X114303559Y-98123113D01*
X114303560Y-98123113D01*
X114303557Y-98123112D01*
X114303556Y-98123112D01*
X114102347Y-98085500D01*
X113897653Y-98085500D01*
X113696444Y-98123112D01*
X113696439Y-98123113D01*
X113505577Y-98197054D01*
X113505566Y-98197059D01*
X113331536Y-98304814D01*
X113180266Y-98442715D01*
X113056913Y-98606063D01*
X112965671Y-98789301D01*
X112909654Y-98986180D01*
X112890768Y-99189995D01*
X111300500Y-99189995D01*
X111300500Y-97250000D01*
X132229695Y-97250000D01*
X132250471Y-97407806D01*
X132311379Y-97554857D01*
X132408276Y-97681134D01*
X132534553Y-97778031D01*
X132627283Y-97816439D01*
X132681605Y-97838940D01*
X132839411Y-97859716D01*
X132997217Y-97838940D01*
X133106695Y-97793593D01*
X133144265Y-97778032D01*
X133144265Y-97778031D01*
X133144269Y-97778030D01*
X133270545Y-97681134D01*
X133270546Y-97681132D01*
X133271321Y-97680538D01*
X133337542Y-97654937D01*
X133348026Y-97654500D01*
X141991385Y-97654500D01*
X142059506Y-97674502D01*
X142068090Y-97680538D01*
X142068864Y-97681132D01*
X142068866Y-97681134D01*
X142195142Y-97778030D01*
X142195145Y-97778032D01*
X142278061Y-97812375D01*
X142342194Y-97838940D01*
X142500000Y-97859716D01*
X142657806Y-97838940D01*
X142766759Y-97793811D01*
X142804857Y-97778031D01*
X142931134Y-97681134D01*
X143028031Y-97554857D01*
X143050530Y-97500536D01*
X143088940Y-97407806D01*
X143109716Y-97250000D01*
X143088940Y-97092194D01*
X143066439Y-97037872D01*
X143028031Y-96945142D01*
X142931134Y-96818865D01*
X142804857Y-96721968D01*
X142657806Y-96661060D01*
X142500000Y-96640284D01*
X142342193Y-96661060D01*
X142195145Y-96721967D01*
X142123970Y-96776582D01*
X142068866Y-96818866D01*
X142068864Y-96818867D01*
X142068090Y-96819462D01*
X142001869Y-96845063D01*
X141991385Y-96845500D01*
X133348026Y-96845500D01*
X133279905Y-96825498D01*
X133271321Y-96819462D01*
X133270546Y-96818867D01*
X133270545Y-96818866D01*
X133144269Y-96721970D01*
X133144268Y-96721969D01*
X133144265Y-96721967D01*
X132997217Y-96661060D01*
X132839411Y-96640284D01*
X132681604Y-96661060D01*
X132534553Y-96721968D01*
X132408276Y-96818865D01*
X132311379Y-96945142D01*
X132250471Y-97092193D01*
X132229695Y-97250000D01*
X111300500Y-97250000D01*
X111300500Y-94003539D01*
X111300599Y-93999996D01*
X111745172Y-93999996D01*
X111745172Y-94000003D01*
X111764461Y-94294309D01*
X111764463Y-94294324D01*
X111822003Y-94583593D01*
X111822004Y-94583597D01*
X111916810Y-94862881D01*
X111916814Y-94862891D01*
X112047260Y-95127411D01*
X112211124Y-95372651D01*
X112211127Y-95372655D01*
X112240404Y-95406039D01*
X112240406Y-95406039D01*
X113063708Y-94582736D01*
X113160967Y-94716602D01*
X113283398Y-94839033D01*
X113417261Y-94936289D01*
X112593959Y-95759592D01*
X112593959Y-95759594D01*
X112627344Y-95788872D01*
X112627348Y-95788875D01*
X112872588Y-95952739D01*
X113137108Y-96083185D01*
X113137118Y-96083189D01*
X113416402Y-96177995D01*
X113416406Y-96177996D01*
X113705675Y-96235536D01*
X113705690Y-96235538D01*
X113999997Y-96254828D01*
X114000003Y-96254828D01*
X114294309Y-96235538D01*
X114294324Y-96235536D01*
X114583593Y-96177996D01*
X114583597Y-96177995D01*
X114862881Y-96083189D01*
X114862891Y-96083185D01*
X115127411Y-95952739D01*
X115372650Y-95788876D01*
X115406040Y-95759593D01*
X114582737Y-94936290D01*
X114716602Y-94839033D01*
X114839033Y-94716602D01*
X114936290Y-94582737D01*
X115759593Y-95406040D01*
X115788876Y-95372650D01*
X115952739Y-95127411D01*
X116083185Y-94862891D01*
X116083189Y-94862881D01*
X116177995Y-94583597D01*
X116177996Y-94583593D01*
X116235536Y-94294324D01*
X116235538Y-94294309D01*
X116254828Y-94000003D01*
X116254828Y-93999996D01*
X116235538Y-93705690D01*
X116235536Y-93705675D01*
X116177996Y-93416406D01*
X116177995Y-93416402D01*
X116083189Y-93137118D01*
X116083185Y-93137108D01*
X115952739Y-92872588D01*
X115788875Y-92627348D01*
X115788872Y-92627344D01*
X115759594Y-92593959D01*
X115759592Y-92593959D01*
X114936289Y-93417261D01*
X114839033Y-93283398D01*
X114716602Y-93160967D01*
X114582736Y-93063709D01*
X115406039Y-92240406D01*
X115406039Y-92240404D01*
X115372655Y-92211127D01*
X115372651Y-92211124D01*
X115127411Y-92047260D01*
X114862891Y-91916814D01*
X114862881Y-91916810D01*
X114583597Y-91822004D01*
X114583593Y-91822003D01*
X114294324Y-91764463D01*
X114294309Y-91764461D01*
X114000003Y-91745172D01*
X113999997Y-91745172D01*
X113705690Y-91764461D01*
X113705675Y-91764463D01*
X113416406Y-91822003D01*
X113416402Y-91822004D01*
X113137118Y-91916810D01*
X113137108Y-91916814D01*
X112872588Y-92047260D01*
X112627346Y-92211125D01*
X112593959Y-92240403D01*
X112593959Y-92240406D01*
X113417262Y-93063709D01*
X113283398Y-93160967D01*
X113160967Y-93283398D01*
X113063709Y-93417262D01*
X112240406Y-92593959D01*
X112240403Y-92593959D01*
X112211125Y-92627346D01*
X112047260Y-92872588D01*
X111916814Y-93137108D01*
X111916810Y-93137118D01*
X111822004Y-93416402D01*
X111822003Y-93416406D01*
X111764463Y-93705675D01*
X111764461Y-93705690D01*
X111745172Y-93999996D01*
X111300599Y-93999996D01*
X111300698Y-93996474D01*
X111304314Y-93932089D01*
X111317077Y-93704812D01*
X111318659Y-93690776D01*
X111336243Y-93587284D01*
X111366998Y-93406268D01*
X111370137Y-93392518D01*
X111450030Y-93115201D01*
X111454692Y-93101881D01*
X111565134Y-92835250D01*
X111571248Y-92822554D01*
X111710848Y-92569965D01*
X111718358Y-92558014D01*
X111885358Y-92322650D01*
X111894156Y-92311618D01*
X112086450Y-92096440D01*
X112096441Y-92086450D01*
X112140295Y-92047260D01*
X112311618Y-91894156D01*
X112322650Y-91885358D01*
X112558020Y-91718354D01*
X112569965Y-91710848D01*
X112822554Y-91571248D01*
X112835250Y-91565134D01*
X113101881Y-91454692D01*
X113115201Y-91450030D01*
X113392518Y-91370137D01*
X113406268Y-91366998D01*
X113690780Y-91318658D01*
X113704812Y-91317077D01*
X113996474Y-91300697D01*
X114003539Y-91300500D01*
X114047595Y-91300500D01*
X120284487Y-91300500D01*
X120352608Y-91320502D01*
G37*
%TD.AperFunction*%
%TD*%
M02*
