%TF.GenerationSoftware,KiCad,Pcbnew,8.0.3*%
%TF.CreationDate,2024-06-30T21:57:39+02:00*%
%TF.ProjectId,black_pill,626c6163-6b5f-4706-996c-6c2e6b696361,rev?*%
%TF.SameCoordinates,Original*%
%TF.FileFunction,Legend,Top*%
%TF.FilePolarity,Positive*%
%FSLAX46Y46*%
G04 Gerber Fmt 4.6, Leading zero omitted, Abs format (unit mm)*
G04 Created by KiCad (PCBNEW 8.0.3) date 2024-06-30 21:57:39*
%MOMM*%
%LPD*%
G01*
G04 APERTURE LIST*
%ADD10C,0.100000*%
%ADD11C,0.120000*%
%ADD12C,0.000000*%
G04 APERTURE END LIST*
D10*
X111900000Y-98400000D02*
X112500000Y-98400000D01*
X112500000Y-107600000D01*
X111900000Y-107600000D01*
X111900000Y-98400000D01*
X123703884Y-98472419D02*
X123703884Y-97472419D01*
X123703884Y-97472419D02*
X124084836Y-97472419D01*
X124084836Y-97472419D02*
X124180074Y-97520038D01*
X124180074Y-97520038D02*
X124227693Y-97567657D01*
X124227693Y-97567657D02*
X124275312Y-97662895D01*
X124275312Y-97662895D02*
X124275312Y-97805752D01*
X124275312Y-97805752D02*
X124227693Y-97900990D01*
X124227693Y-97900990D02*
X124180074Y-97948609D01*
X124180074Y-97948609D02*
X124084836Y-97996228D01*
X124084836Y-97996228D02*
X123703884Y-97996228D01*
X124608646Y-97472419D02*
X124846741Y-98472419D01*
X124846741Y-98472419D02*
X125037217Y-97758133D01*
X125037217Y-97758133D02*
X125227693Y-98472419D01*
X125227693Y-98472419D02*
X125465789Y-97472419D01*
X126418169Y-98472419D02*
X126084836Y-97996228D01*
X125846741Y-98472419D02*
X125846741Y-97472419D01*
X125846741Y-97472419D02*
X126227693Y-97472419D01*
X126227693Y-97472419D02*
X126322931Y-97520038D01*
X126322931Y-97520038D02*
X126370550Y-97567657D01*
X126370550Y-97567657D02*
X126418169Y-97662895D01*
X126418169Y-97662895D02*
X126418169Y-97805752D01*
X126418169Y-97805752D02*
X126370550Y-97900990D01*
X126370550Y-97900990D02*
X126322931Y-97948609D01*
X126322931Y-97948609D02*
X126227693Y-97996228D01*
X126227693Y-97996228D02*
X125846741Y-97996228D01*
X124480074Y-102272419D02*
X124003884Y-102272419D01*
X124003884Y-102272419D02*
X124003884Y-101272419D01*
X124813408Y-101748609D02*
X125146741Y-101748609D01*
X125289598Y-102272419D02*
X124813408Y-102272419D01*
X124813408Y-102272419D02*
X124813408Y-101272419D01*
X124813408Y-101272419D02*
X125289598Y-101272419D01*
X125718170Y-102272419D02*
X125718170Y-101272419D01*
X125718170Y-101272419D02*
X125956265Y-101272419D01*
X125956265Y-101272419D02*
X126099122Y-101320038D01*
X126099122Y-101320038D02*
X126194360Y-101415276D01*
X126194360Y-101415276D02*
X126241979Y-101510514D01*
X126241979Y-101510514D02*
X126289598Y-101700990D01*
X126289598Y-101700990D02*
X126289598Y-101843847D01*
X126289598Y-101843847D02*
X126241979Y-102034323D01*
X126241979Y-102034323D02*
X126194360Y-102129561D01*
X126194360Y-102129561D02*
X126099122Y-102224800D01*
X126099122Y-102224800D02*
X125956265Y-102272419D01*
X125956265Y-102272419D02*
X125718170Y-102272419D01*
X116448609Y-100662782D02*
X116496228Y-100519925D01*
X116496228Y-100519925D02*
X116543847Y-100472306D01*
X116543847Y-100472306D02*
X116639085Y-100424687D01*
X116639085Y-100424687D02*
X116781942Y-100424687D01*
X116781942Y-100424687D02*
X116877180Y-100472306D01*
X116877180Y-100472306D02*
X116924800Y-100519925D01*
X116924800Y-100519925D02*
X116972419Y-100615163D01*
X116972419Y-100615163D02*
X116972419Y-100996115D01*
X116972419Y-100996115D02*
X115972419Y-100996115D01*
X115972419Y-100996115D02*
X115972419Y-100662782D01*
X115972419Y-100662782D02*
X116020038Y-100567544D01*
X116020038Y-100567544D02*
X116067657Y-100519925D01*
X116067657Y-100519925D02*
X116162895Y-100472306D01*
X116162895Y-100472306D02*
X116258133Y-100472306D01*
X116258133Y-100472306D02*
X116353371Y-100519925D01*
X116353371Y-100519925D02*
X116400990Y-100567544D01*
X116400990Y-100567544D02*
X116448609Y-100662782D01*
X116448609Y-100662782D02*
X116448609Y-100996115D01*
X115972419Y-99805639D02*
X115972419Y-99615163D01*
X115972419Y-99615163D02*
X116020038Y-99519925D01*
X116020038Y-99519925D02*
X116115276Y-99424687D01*
X116115276Y-99424687D02*
X116305752Y-99377068D01*
X116305752Y-99377068D02*
X116639085Y-99377068D01*
X116639085Y-99377068D02*
X116829561Y-99424687D01*
X116829561Y-99424687D02*
X116924800Y-99519925D01*
X116924800Y-99519925D02*
X116972419Y-99615163D01*
X116972419Y-99615163D02*
X116972419Y-99805639D01*
X116972419Y-99805639D02*
X116924800Y-99900877D01*
X116924800Y-99900877D02*
X116829561Y-99996115D01*
X116829561Y-99996115D02*
X116639085Y-100043734D01*
X116639085Y-100043734D02*
X116305752Y-100043734D01*
X116305752Y-100043734D02*
X116115276Y-99996115D01*
X116115276Y-99996115D02*
X116020038Y-99900877D01*
X116020038Y-99900877D02*
X115972419Y-99805639D01*
X115972419Y-98758020D02*
X115972419Y-98567544D01*
X115972419Y-98567544D02*
X116020038Y-98472306D01*
X116020038Y-98472306D02*
X116115276Y-98377068D01*
X116115276Y-98377068D02*
X116305752Y-98329449D01*
X116305752Y-98329449D02*
X116639085Y-98329449D01*
X116639085Y-98329449D02*
X116829561Y-98377068D01*
X116829561Y-98377068D02*
X116924800Y-98472306D01*
X116924800Y-98472306D02*
X116972419Y-98567544D01*
X116972419Y-98567544D02*
X116972419Y-98758020D01*
X116972419Y-98758020D02*
X116924800Y-98853258D01*
X116924800Y-98853258D02*
X116829561Y-98948496D01*
X116829561Y-98948496D02*
X116639085Y-98996115D01*
X116639085Y-98996115D02*
X116305752Y-98996115D01*
X116305752Y-98996115D02*
X116115276Y-98948496D01*
X116115276Y-98948496D02*
X116020038Y-98853258D01*
X116020038Y-98853258D02*
X115972419Y-98758020D01*
X115972419Y-98043734D02*
X115972419Y-97472306D01*
X116972419Y-97758020D02*
X115972419Y-97758020D01*
X115972419Y-96948496D02*
X115972419Y-96853258D01*
X115972419Y-96853258D02*
X116020038Y-96758020D01*
X116020038Y-96758020D02*
X116067657Y-96710401D01*
X116067657Y-96710401D02*
X116162895Y-96662782D01*
X116162895Y-96662782D02*
X116353371Y-96615163D01*
X116353371Y-96615163D02*
X116591466Y-96615163D01*
X116591466Y-96615163D02*
X116781942Y-96662782D01*
X116781942Y-96662782D02*
X116877180Y-96710401D01*
X116877180Y-96710401D02*
X116924800Y-96758020D01*
X116924800Y-96758020D02*
X116972419Y-96853258D01*
X116972419Y-96853258D02*
X116972419Y-96948496D01*
X116972419Y-96948496D02*
X116924800Y-97043734D01*
X116924800Y-97043734D02*
X116877180Y-97091353D01*
X116877180Y-97091353D02*
X116781942Y-97138972D01*
X116781942Y-97138972D02*
X116591466Y-97186591D01*
X116591466Y-97186591D02*
X116353371Y-97186591D01*
X116353371Y-97186591D02*
X116162895Y-97138972D01*
X116162895Y-97138972D02*
X116067657Y-97091353D01*
X116067657Y-97091353D02*
X116020038Y-97043734D01*
X116020038Y-97043734D02*
X115972419Y-96948496D01*
X116972419Y-108696115D02*
X115972419Y-108696115D01*
X115972419Y-108696115D02*
X116972419Y-108124687D01*
X116972419Y-108124687D02*
X115972419Y-108124687D01*
X116972419Y-107077068D02*
X116496228Y-107410401D01*
X116972419Y-107648496D02*
X115972419Y-107648496D01*
X115972419Y-107648496D02*
X115972419Y-107267544D01*
X115972419Y-107267544D02*
X116020038Y-107172306D01*
X116020038Y-107172306D02*
X116067657Y-107124687D01*
X116067657Y-107124687D02*
X116162895Y-107077068D01*
X116162895Y-107077068D02*
X116305752Y-107077068D01*
X116305752Y-107077068D02*
X116400990Y-107124687D01*
X116400990Y-107124687D02*
X116448609Y-107172306D01*
X116448609Y-107172306D02*
X116496228Y-107267544D01*
X116496228Y-107267544D02*
X116496228Y-107648496D01*
X116924800Y-106696115D02*
X116972419Y-106553258D01*
X116972419Y-106553258D02*
X116972419Y-106315163D01*
X116972419Y-106315163D02*
X116924800Y-106219925D01*
X116924800Y-106219925D02*
X116877180Y-106172306D01*
X116877180Y-106172306D02*
X116781942Y-106124687D01*
X116781942Y-106124687D02*
X116686704Y-106124687D01*
X116686704Y-106124687D02*
X116591466Y-106172306D01*
X116591466Y-106172306D02*
X116543847Y-106219925D01*
X116543847Y-106219925D02*
X116496228Y-106315163D01*
X116496228Y-106315163D02*
X116448609Y-106505639D01*
X116448609Y-106505639D02*
X116400990Y-106600877D01*
X116400990Y-106600877D02*
X116353371Y-106648496D01*
X116353371Y-106648496D02*
X116258133Y-106696115D01*
X116258133Y-106696115D02*
X116162895Y-106696115D01*
X116162895Y-106696115D02*
X116067657Y-106648496D01*
X116067657Y-106648496D02*
X116020038Y-106600877D01*
X116020038Y-106600877D02*
X115972419Y-106505639D01*
X115972419Y-106505639D02*
X115972419Y-106267544D01*
X115972419Y-106267544D02*
X116020038Y-106124687D01*
X115972419Y-105838972D02*
X115972419Y-105267544D01*
X116972419Y-105553258D02*
X115972419Y-105553258D01*
D11*
%TO.C,C4*%
X144169190Y-96928307D02*
X144321693Y-97080810D01*
X144678307Y-96419190D02*
X144830810Y-96571693D01*
%TO.C,U1*%
X137394689Y-103000000D02*
X137712887Y-103318198D01*
X137712887Y-102681802D02*
X137394689Y-103000000D01*
X142181802Y-98212887D02*
X142500000Y-97894689D01*
X142500000Y-97894689D02*
X142818198Y-98212887D01*
X142500000Y-108105311D02*
X142181802Y-107787113D01*
X142818198Y-107787113D02*
X142500000Y-108105311D01*
X147287113Y-103318198D02*
X147605311Y-103000000D01*
X147605311Y-103000000D02*
X147287113Y-102681802D01*
X137295694Y-103735391D02*
X136722938Y-103643467D01*
X137203770Y-103162635D01*
X137295694Y-103735391D01*
G36*
X137295694Y-103735391D02*
G01*
X136722938Y-103643467D01*
X137203770Y-103162635D01*
X137295694Y-103735391D01*
G37*
D12*
%TO.C,G\u002A\u002A\u002A*%
G36*
X151073576Y-96043345D02*
G01*
X151076475Y-96045406D01*
X151083194Y-96050705D01*
X151093072Y-96058702D01*
X151105447Y-96068860D01*
X151119656Y-96080640D01*
X151128656Y-96088152D01*
X151181131Y-96132067D01*
X151172225Y-96145011D01*
X151162093Y-96161738D01*
X151155663Y-96177880D01*
X151152324Y-96195509D01*
X151151462Y-96215642D01*
X151151938Y-96231782D01*
X151153428Y-96244241D01*
X151156249Y-96255156D01*
X151158149Y-96260418D01*
X151170171Y-96283815D01*
X151186526Y-96303276D01*
X151207141Y-96318726D01*
X151224932Y-96327467D01*
X151241874Y-96334306D01*
X151449170Y-96335114D01*
X151656466Y-96335922D01*
X151656466Y-96398841D01*
X151656466Y-96461760D01*
X151344423Y-96461760D01*
X151032380Y-96461760D01*
X151032380Y-96398765D01*
X151032380Y-96335771D01*
X151064884Y-96335771D01*
X151097388Y-96335771D01*
X151078353Y-96315211D01*
X151060027Y-96291770D01*
X151044717Y-96264879D01*
X151033535Y-96236616D01*
X151030587Y-96225896D01*
X151027220Y-96206025D01*
X151025671Y-96183539D01*
X151025908Y-96160412D01*
X151027897Y-96138620D01*
X151031607Y-96120134D01*
X151032398Y-96117487D01*
X151037426Y-96103476D01*
X151043610Y-96088994D01*
X151050417Y-96075005D01*
X151057310Y-96062474D01*
X151063754Y-96052365D01*
X151069214Y-96045641D01*
X151073154Y-96043267D01*
X151073576Y-96043345D01*
G37*
G36*
X152078044Y-96211647D02*
G01*
X152086467Y-96218640D01*
X152098088Y-96228326D01*
X152111621Y-96239631D01*
X152125777Y-96251479D01*
X152131960Y-96256661D01*
X152168647Y-96287426D01*
X152162858Y-96296216D01*
X152149092Y-96321521D01*
X152141082Y-96347067D01*
X152138728Y-96373266D01*
X152140022Y-96389712D01*
X152146334Y-96415425D01*
X152157489Y-96438102D01*
X152173108Y-96457371D01*
X152192814Y-96472857D01*
X152216229Y-96484187D01*
X152242462Y-96490908D01*
X152249507Y-96491543D01*
X152262089Y-96492115D01*
X152279888Y-96492618D01*
X152302580Y-96493049D01*
X152329845Y-96493403D01*
X152361361Y-96493676D01*
X152396805Y-96493861D01*
X152435856Y-96493956D01*
X152454153Y-96493968D01*
X152646799Y-96493990D01*
X152646799Y-96555519D01*
X152646799Y-96617049D01*
X152333291Y-96617049D01*
X152019784Y-96617049D01*
X152019784Y-96555519D01*
X152019784Y-96493990D01*
X152053478Y-96493990D01*
X152066744Y-96493876D01*
X152077551Y-96493565D01*
X152084743Y-96493107D01*
X152087173Y-96492585D01*
X152085190Y-96490021D01*
X152080030Y-96484757D01*
X152073890Y-96478936D01*
X152058639Y-96462248D01*
X152044283Y-96441675D01*
X152032058Y-96419181D01*
X152024314Y-96400160D01*
X152019002Y-96379733D01*
X152015501Y-96356305D01*
X152013917Y-96331846D01*
X152014357Y-96308325D01*
X152016926Y-96287710D01*
X152017994Y-96282915D01*
X152021638Y-96271337D01*
X152027213Y-96257123D01*
X152033980Y-96241850D01*
X152041196Y-96227095D01*
X152048121Y-96214436D01*
X152054014Y-96205449D01*
X152054926Y-96204322D01*
X152060815Y-96197397D01*
X152078044Y-96211647D01*
G37*
G36*
X152061330Y-98727395D02*
G01*
X152064046Y-98729403D01*
X152070591Y-98734657D01*
X152080315Y-98742624D01*
X152092570Y-98752770D01*
X152106707Y-98764560D01*
X152116062Y-98772404D01*
X152168802Y-98816708D01*
X152161407Y-98827590D01*
X152148596Y-98851397D01*
X152140990Y-98876922D01*
X152138670Y-98903249D01*
X152141719Y-98929461D01*
X152150044Y-98954261D01*
X152159746Y-98970607D01*
X152172950Y-98986198D01*
X152187947Y-98999238D01*
X152199664Y-99006423D01*
X152205988Y-99009435D01*
X152212085Y-99012045D01*
X152218408Y-99014282D01*
X152225410Y-99016173D01*
X152233543Y-99017749D01*
X152243261Y-99019038D01*
X152255016Y-99020070D01*
X152269261Y-99020872D01*
X152286449Y-99021475D01*
X152307034Y-99021907D01*
X152331467Y-99022197D01*
X152360201Y-99022374D01*
X152393690Y-99022467D01*
X152432387Y-99022505D01*
X152451223Y-99022512D01*
X152646799Y-99022563D01*
X152646799Y-99083604D01*
X152646710Y-99101952D01*
X152646459Y-99118282D01*
X152646075Y-99131696D01*
X152645585Y-99141298D01*
X152645018Y-99146191D01*
X152644846Y-99146599D01*
X152641711Y-99146863D01*
X152633099Y-99147117D01*
X152619395Y-99147359D01*
X152600981Y-99147584D01*
X152578242Y-99147793D01*
X152551561Y-99147981D01*
X152521322Y-99148146D01*
X152487907Y-99148287D01*
X152451702Y-99148400D01*
X152413089Y-99148483D01*
X152372451Y-99148535D01*
X152331338Y-99148552D01*
X152019784Y-99148552D01*
X152019784Y-99085557D01*
X152019784Y-99022563D01*
X152053768Y-99022563D01*
X152087752Y-99022563D01*
X152067502Y-99000879D01*
X152046574Y-98974583D01*
X152030891Y-98946022D01*
X152020351Y-98914921D01*
X152014849Y-98881008D01*
X152013924Y-98858631D01*
X152015044Y-98832575D01*
X152018682Y-98809907D01*
X152025255Y-98788544D01*
X152030340Y-98776444D01*
X152035463Y-98766106D01*
X152041579Y-98755079D01*
X152047952Y-98744529D01*
X152053847Y-98735619D01*
X152058528Y-98729514D01*
X152061260Y-98727377D01*
X152061330Y-98727395D01*
G37*
G36*
X151656466Y-98732227D02*
G01*
X151656466Y-98793691D01*
X151456495Y-98794782D01*
X151416497Y-98795015D01*
X151381933Y-98795255D01*
X151352377Y-98795512D01*
X151327401Y-98795799D01*
X151306580Y-98796125D01*
X151289488Y-98796504D01*
X151275697Y-98796945D01*
X151264782Y-98797460D01*
X151256316Y-98798061D01*
X151249874Y-98798759D01*
X151245028Y-98799564D01*
X151241394Y-98800476D01*
X151214751Y-98811058D01*
X151192749Y-98825205D01*
X151175331Y-98842980D01*
X151162443Y-98864445D01*
X151154027Y-98889662D01*
X151152167Y-98899146D01*
X151150473Y-98926064D01*
X151154180Y-98951582D01*
X151162886Y-98975115D01*
X151176188Y-98996075D01*
X151193685Y-99013875D01*
X151214973Y-99027929D01*
X151239651Y-99037649D01*
X151248610Y-99039835D01*
X151255291Y-99040599D01*
X151267536Y-99041259D01*
X151285385Y-99041815D01*
X151308882Y-99042270D01*
X151338069Y-99042622D01*
X151372988Y-99042872D01*
X151413681Y-99043023D01*
X151460191Y-99043073D01*
X151460301Y-99043073D01*
X151656466Y-99043073D01*
X151656466Y-99106067D01*
X151656466Y-99169062D01*
X151344423Y-99169062D01*
X151032380Y-99169062D01*
X151032380Y-99106067D01*
X151032380Y-99043073D01*
X151065989Y-99043073D01*
X151099598Y-99043073D01*
X151081372Y-99024448D01*
X151060795Y-98999988D01*
X151045117Y-98973407D01*
X151033995Y-98943967D01*
X151027088Y-98910932D01*
X151026406Y-98905708D01*
X151025061Y-98871521D01*
X151029168Y-98838098D01*
X151038406Y-98806058D01*
X151052454Y-98776020D01*
X151070990Y-98748603D01*
X151093693Y-98724426D01*
X151120242Y-98704107D01*
X151135711Y-98695141D01*
X151148820Y-98688856D01*
X151163508Y-98682614D01*
X151173019Y-98679038D01*
X151176555Y-98677838D01*
X151180026Y-98676793D01*
X151183842Y-98675888D01*
X151188416Y-98675114D01*
X151194158Y-98674457D01*
X151201480Y-98673905D01*
X151210793Y-98673447D01*
X151222509Y-98673070D01*
X151237037Y-98672761D01*
X151254791Y-98672509D01*
X151276180Y-98672302D01*
X151301617Y-98672127D01*
X151331512Y-98671972D01*
X151366277Y-98671826D01*
X151406322Y-98671675D01*
X151424265Y-98671609D01*
X151656466Y-98670764D01*
X151656466Y-98732227D01*
G37*
G36*
X151656466Y-96663929D02*
G01*
X151656466Y-96725458D01*
X151624236Y-96725458D01*
X151611285Y-96725609D01*
X151600818Y-96726017D01*
X151594019Y-96726617D01*
X151592006Y-96727233D01*
X151593881Y-96729995D01*
X151598928Y-96736002D01*
X151606286Y-96744251D01*
X151611784Y-96750216D01*
X151631797Y-96775681D01*
X151647454Y-96804111D01*
X151657824Y-96833454D01*
X151660787Y-96848836D01*
X151662846Y-96867468D01*
X151663900Y-96887226D01*
X151663848Y-96905983D01*
X151662588Y-96921613D01*
X151662153Y-96924343D01*
X151657079Y-96945299D01*
X151649471Y-96967568D01*
X151640370Y-96988299D01*
X151635431Y-96997462D01*
X151629280Y-97006425D01*
X151620189Y-97017791D01*
X151609496Y-97029953D01*
X151600796Y-97039066D01*
X151587610Y-97051767D01*
X151576279Y-97061221D01*
X151565012Y-97068766D01*
X151552015Y-97075741D01*
X151550987Y-97076246D01*
X151542917Y-97080233D01*
X151535802Y-97083719D01*
X151529208Y-97086738D01*
X151522702Y-97089328D01*
X151515852Y-97091521D01*
X151508224Y-97093354D01*
X151499385Y-97094862D01*
X151488901Y-97096080D01*
X151476340Y-97097044D01*
X151461268Y-97097787D01*
X151443253Y-97098346D01*
X151421860Y-97098755D01*
X151396658Y-97099050D01*
X151367212Y-97099267D01*
X151333091Y-97099439D01*
X151293859Y-97099603D01*
X151261651Y-97099737D01*
X151032380Y-97100731D01*
X151032380Y-97037619D01*
X151032380Y-96974506D01*
X151228545Y-96974506D01*
X151273918Y-96974462D01*
X151313562Y-96974326D01*
X151347610Y-96974098D01*
X151376192Y-96973774D01*
X151399439Y-96973354D01*
X151417482Y-96972835D01*
X151430453Y-96972214D01*
X151438483Y-96971491D01*
X151440236Y-96971195D01*
X151464662Y-96963496D01*
X151486789Y-96951638D01*
X151505665Y-96936312D01*
X151520335Y-96918211D01*
X151525303Y-96909360D01*
X151534045Y-96885284D01*
X151538254Y-96859046D01*
X151537787Y-96832369D01*
X151533536Y-96810387D01*
X151527064Y-96794802D01*
X151516960Y-96778523D01*
X151504709Y-96763721D01*
X151496324Y-96755942D01*
X151474867Y-96742243D01*
X151449373Y-96732695D01*
X151428432Y-96728402D01*
X151421990Y-96727893D01*
X151410225Y-96727414D01*
X151393675Y-96726972D01*
X151372876Y-96726575D01*
X151348367Y-96726230D01*
X151320683Y-96725944D01*
X151290362Y-96725725D01*
X151257942Y-96725580D01*
X151223959Y-96725518D01*
X151220631Y-96725516D01*
X151032380Y-96725458D01*
X151032380Y-96663929D01*
X151032380Y-96602399D01*
X151344423Y-96602399D01*
X151656466Y-96602399D01*
X151656466Y-96663929D01*
G37*
G36*
X151578790Y-95569261D02*
G01*
X151606586Y-95601800D01*
X151629299Y-95636846D01*
X151646721Y-95674033D01*
X151656790Y-95705396D01*
X151659322Y-95718197D01*
X151661477Y-95734654D01*
X151663130Y-95752978D01*
X151664160Y-95771379D01*
X151664445Y-95788070D01*
X151663860Y-95801261D01*
X151663540Y-95803979D01*
X151656552Y-95842238D01*
X151646918Y-95875939D01*
X151634223Y-95905941D01*
X151618056Y-95933105D01*
X151598004Y-95958289D01*
X151581242Y-95975383D01*
X151563477Y-95991096D01*
X151546125Y-96003851D01*
X151527204Y-96014936D01*
X151504729Y-96025637D01*
X151501842Y-96026895D01*
X151474387Y-96037378D01*
X151446274Y-96045163D01*
X151416281Y-96050464D01*
X151383188Y-96053497D01*
X151345777Y-96054475D01*
X151344944Y-96054475D01*
X151298025Y-96052663D01*
X151255371Y-96047173D01*
X151216581Y-96037869D01*
X151181250Y-96024615D01*
X151148976Y-96007275D01*
X151119355Y-95985714D01*
X151105891Y-95973758D01*
X151080552Y-95946048D01*
X151059997Y-95915182D01*
X151044158Y-95881017D01*
X151032968Y-95843407D01*
X151026361Y-95802207D01*
X151026329Y-95801895D01*
X151024841Y-95762260D01*
X151028650Y-95724576D01*
X151037907Y-95687992D01*
X151052761Y-95651661D01*
X151052781Y-95651620D01*
X151070355Y-95619932D01*
X151091189Y-95591170D01*
X151114525Y-95565550D01*
X151123692Y-95556689D01*
X151129814Y-95551671D01*
X151133723Y-95549947D01*
X151136249Y-95550963D01*
X151136350Y-95551072D01*
X151139335Y-95554396D01*
X151145552Y-95561334D01*
X151154328Y-95571134D01*
X151164988Y-95583043D01*
X151176857Y-95596307D01*
X151177233Y-95596727D01*
X151214628Y-95638524D01*
X151197453Y-95656884D01*
X151177439Y-95682243D01*
X151162924Y-95709539D01*
X151153964Y-95738546D01*
X151150610Y-95769039D01*
X151152917Y-95800793D01*
X151157891Y-95823513D01*
X151167935Y-95849281D01*
X151182762Y-95871805D01*
X151202142Y-95890877D01*
X151225846Y-95906288D01*
X151253642Y-95917828D01*
X151265314Y-95921176D01*
X151291637Y-95926245D01*
X151320498Y-95928961D01*
X151350565Y-95929407D01*
X151380509Y-95927663D01*
X151408999Y-95923812D01*
X151434705Y-95917935D01*
X151456295Y-95910114D01*
X151457900Y-95909361D01*
X151482376Y-95895076D01*
X151502087Y-95877773D01*
X151517384Y-95856995D01*
X151528618Y-95832287D01*
X151534922Y-95809355D01*
X151539073Y-95777454D01*
X151537618Y-95747244D01*
X151530531Y-95718632D01*
X151517788Y-95691524D01*
X151499362Y-95665828D01*
X151493339Y-95659045D01*
X151474810Y-95639031D01*
X151516004Y-95593030D01*
X151557198Y-95547029D01*
X151578790Y-95569261D01*
G37*
G36*
X151401113Y-97210263D02*
G01*
X151432011Y-97212292D01*
X151459168Y-97215702D01*
X151483264Y-97220631D01*
X151504980Y-97227214D01*
X151524993Y-97235588D01*
X151543984Y-97245891D01*
X151561242Y-97257265D01*
X151576965Y-97269872D01*
X151593652Y-97285625D01*
X151609398Y-97302586D01*
X151622300Y-97318812D01*
X151623939Y-97321160D01*
X151640458Y-97350345D01*
X151652837Y-97383042D01*
X151660913Y-97418459D01*
X151664525Y-97455806D01*
X151663510Y-97494292D01*
X151662071Y-97507585D01*
X151654714Y-97542691D01*
X151642210Y-97576158D01*
X151625043Y-97607399D01*
X151603695Y-97635828D01*
X151578649Y-97660858D01*
X151550387Y-97681902D01*
X151519392Y-97698375D01*
X151498798Y-97706103D01*
X151474072Y-97712454D01*
X151444666Y-97717461D01*
X151411621Y-97721045D01*
X151375978Y-97723129D01*
X151343889Y-97723565D01*
X151338778Y-97723634D01*
X151301062Y-97722484D01*
X151288913Y-97721744D01*
X151254200Y-97718727D01*
X151224386Y-97714583D01*
X151198562Y-97708956D01*
X151175819Y-97701488D01*
X151155248Y-97691823D01*
X151135939Y-97679603D01*
X151116982Y-97664472D01*
X151098332Y-97646937D01*
X151081334Y-97629170D01*
X151068127Y-97613220D01*
X151057713Y-97597529D01*
X151049089Y-97580541D01*
X151041255Y-97560699D01*
X151039294Y-97555084D01*
X151029655Y-97518188D01*
X151025187Y-97479648D01*
X151025606Y-97456406D01*
X151150816Y-97456406D01*
X151151103Y-97482249D01*
X151156224Y-97506809D01*
X151165912Y-97529502D01*
X151179903Y-97549744D01*
X151197930Y-97566950D01*
X151219729Y-97580537D01*
X151245034Y-97589920D01*
X151251338Y-97591425D01*
X151269872Y-97594434D01*
X151292295Y-97596506D01*
X151317377Y-97597669D01*
X151343889Y-97597945D01*
X151370601Y-97597360D01*
X151396285Y-97595939D01*
X151419710Y-97593706D01*
X151439648Y-97590687D01*
X151453484Y-97587351D01*
X151469233Y-97580942D01*
X151485223Y-97571870D01*
X151499679Y-97561330D01*
X151510826Y-97550516D01*
X151513615Y-97546890D01*
X151527368Y-97522010D01*
X151535884Y-97495207D01*
X151538979Y-97467375D01*
X151536474Y-97439409D01*
X151535955Y-97436855D01*
X151527660Y-97410380D01*
X151514886Y-97387681D01*
X151497661Y-97368789D01*
X151476011Y-97353730D01*
X151449963Y-97342535D01*
X151448437Y-97342043D01*
X151438893Y-97340035D01*
X151424554Y-97338339D01*
X151406475Y-97336973D01*
X151385713Y-97335955D01*
X151363327Y-97335303D01*
X151340371Y-97335037D01*
X151317903Y-97335173D01*
X151296980Y-97335730D01*
X151278658Y-97336726D01*
X151263995Y-97338179D01*
X151259900Y-97338803D01*
X151232030Y-97345728D01*
X151208646Y-97356222D01*
X151189421Y-97370508D01*
X151174027Y-97388809D01*
X151165803Y-97403207D01*
X151155628Y-97429864D01*
X151150816Y-97456406D01*
X151025606Y-97456406D01*
X151025891Y-97440583D01*
X151031772Y-97402110D01*
X151038830Y-97376551D01*
X151052333Y-97344746D01*
X151070867Y-97314753D01*
X151093693Y-97287359D01*
X151120073Y-97263349D01*
X151149267Y-97243507D01*
X151176429Y-97230229D01*
X151190776Y-97224861D01*
X151205055Y-97220536D01*
X151220167Y-97217129D01*
X151237010Y-97214517D01*
X151256484Y-97212577D01*
X151279488Y-97211185D01*
X151306923Y-97210219D01*
X151325378Y-97209801D01*
X151365795Y-97209478D01*
X151401113Y-97210263D01*
G37*
G36*
X151392768Y-95194255D02*
G01*
X151392768Y-95389387D01*
X151403755Y-95389336D01*
X151419474Y-95387923D01*
X151437815Y-95384218D01*
X151456315Y-95378840D01*
X151472507Y-95372404D01*
X151473612Y-95371870D01*
X151494822Y-95358293D01*
X151513204Y-95340144D01*
X151528094Y-95318299D01*
X151538828Y-95293632D01*
X151542183Y-95281594D01*
X151544558Y-95265622D01*
X151545447Y-95246400D01*
X151544888Y-95226331D01*
X151542920Y-95207824D01*
X151540826Y-95197473D01*
X151532770Y-95174077D01*
X151521023Y-95150006D01*
X151506846Y-95127718D01*
X151501522Y-95120769D01*
X151486885Y-95102664D01*
X151524063Y-95058667D01*
X151535669Y-95045121D01*
X151546142Y-95033250D01*
X151554853Y-95023740D01*
X151561169Y-95017279D01*
X151564459Y-95014554D01*
X151564630Y-95014510D01*
X151568662Y-95016618D01*
X151575317Y-95022558D01*
X151583795Y-95031408D01*
X151593294Y-95042246D01*
X151603013Y-95054148D01*
X151612153Y-95066193D01*
X151619910Y-95077458D01*
X151621572Y-95080095D01*
X151640399Y-95116174D01*
X151653884Y-95154371D01*
X151657933Y-95171104D01*
X151660036Y-95184166D01*
X151661816Y-95200899D01*
X151663183Y-95219573D01*
X151664045Y-95238462D01*
X151664313Y-95255838D01*
X151663893Y-95269972D01*
X151663418Y-95275118D01*
X151656742Y-95313603D01*
X151646819Y-95347731D01*
X151633318Y-95378228D01*
X151615910Y-95405818D01*
X151594264Y-95431227D01*
X151590725Y-95434802D01*
X151564775Y-95457137D01*
X151535658Y-95475649D01*
X151503040Y-95490459D01*
X151466588Y-95501685D01*
X151425970Y-95509447D01*
X151380853Y-95513865D01*
X151369328Y-95514441D01*
X151319120Y-95514494D01*
X151278967Y-95510987D01*
X151272273Y-95510402D01*
X151228946Y-95502239D01*
X151189302Y-95490079D01*
X151153501Y-95473993D01*
X151121705Y-95454055D01*
X151094076Y-95430338D01*
X151070773Y-95402916D01*
X151051960Y-95371860D01*
X151051203Y-95370342D01*
X151040432Y-95346306D01*
X151032972Y-95323815D01*
X151028367Y-95300864D01*
X151026158Y-95275450D01*
X151025797Y-95259003D01*
X151025900Y-95257066D01*
X151143754Y-95257066D01*
X151146295Y-95285270D01*
X151153669Y-95310805D01*
X151165639Y-95333254D01*
X151181970Y-95352202D01*
X151202425Y-95367233D01*
X151208077Y-95370291D01*
X151221225Y-95375929D01*
X151237066Y-95381212D01*
X151253539Y-95385582D01*
X151268583Y-95388486D01*
X151278967Y-95389387D01*
X151290218Y-95389387D01*
X151290218Y-95257538D01*
X151290218Y-95125689D01*
X151281620Y-95125689D01*
X151270630Y-95126663D01*
X151256356Y-95129249D01*
X151240976Y-95132941D01*
X151226669Y-95137233D01*
X151218363Y-95140365D01*
X151194800Y-95153439D01*
X151175368Y-95170501D01*
X151160334Y-95191129D01*
X151149969Y-95214905D01*
X151144539Y-95241407D01*
X151143754Y-95257066D01*
X151025900Y-95257066D01*
X151027872Y-95219988D01*
X151034590Y-95184241D01*
X151046181Y-95151173D01*
X151062874Y-95120195D01*
X151084901Y-95090720D01*
X151096660Y-95077741D01*
X151124776Y-95052458D01*
X151156215Y-95031980D01*
X151191032Y-95016277D01*
X151217502Y-95008092D01*
X151226007Y-95006086D01*
X151234678Y-95004507D01*
X151244439Y-95003285D01*
X151256211Y-95002350D01*
X151270919Y-95001630D01*
X151289484Y-95001056D01*
X151312831Y-95000558D01*
X151317321Y-95000476D01*
X151392768Y-94999123D01*
X151392768Y-95194255D01*
G37*
G36*
X152380171Y-95874396D02*
G01*
X152380171Y-96069899D01*
X152398484Y-96067870D01*
X152424895Y-96063735D01*
X152447003Y-96057374D01*
X152466128Y-96048202D01*
X152483590Y-96035636D01*
X152494632Y-96025415D01*
X152506043Y-96013117D01*
X152514082Y-96002024D01*
X152520210Y-95990030D01*
X152521787Y-95986210D01*
X152530753Y-95955913D01*
X152534159Y-95924824D01*
X152532119Y-95893602D01*
X152524750Y-95862906D01*
X152512168Y-95833395D01*
X152494489Y-95805729D01*
X152488749Y-95798533D01*
X152482558Y-95790734D01*
X152478258Y-95784582D01*
X152476860Y-95781684D01*
X152478679Y-95778747D01*
X152483747Y-95772097D01*
X152491485Y-95762456D01*
X152501312Y-95750545D01*
X152512646Y-95737087D01*
X152514218Y-95735241D01*
X152551575Y-95691411D01*
X152570099Y-95709605D01*
X152594937Y-95737996D01*
X152615954Y-95770381D01*
X152632704Y-95805969D01*
X152644273Y-95842069D01*
X152647056Y-95856816D01*
X152649254Y-95875680D01*
X152650794Y-95896944D01*
X152651603Y-95918886D01*
X152651608Y-95939787D01*
X152650736Y-95957928D01*
X152649605Y-95967810D01*
X152641203Y-96005877D01*
X152628494Y-96041184D01*
X152611763Y-96073206D01*
X152591293Y-96101416D01*
X152567367Y-96125291D01*
X152562480Y-96129273D01*
X152544103Y-96141990D01*
X152521991Y-96154510D01*
X152498210Y-96165778D01*
X152474821Y-96174737D01*
X152471457Y-96175822D01*
X152436455Y-96184697D01*
X152398341Y-96190612D01*
X152358283Y-96193612D01*
X152317451Y-96193737D01*
X152277014Y-96191031D01*
X152270390Y-96190095D01*
X152238139Y-96185536D01*
X152201996Y-96177295D01*
X152169754Y-96166350D01*
X152165847Y-96164703D01*
X152143663Y-96154414D01*
X152125301Y-96144082D01*
X152108851Y-96132435D01*
X152092405Y-96118201D01*
X152084040Y-96110162D01*
X152063561Y-96087919D01*
X152047503Y-96065403D01*
X152034662Y-96040692D01*
X152025337Y-96016403D01*
X152021301Y-96003797D01*
X152018511Y-95992950D01*
X152016679Y-95982045D01*
X152015514Y-95969267D01*
X152014727Y-95952799D01*
X152014594Y-95949013D01*
X152015114Y-95924688D01*
X152131918Y-95924688D01*
X152132271Y-95953632D01*
X152137842Y-95980021D01*
X152148468Y-96003596D01*
X152163982Y-96024095D01*
X152184221Y-96041258D01*
X152209020Y-96054825D01*
X152216042Y-96057673D01*
X152226054Y-96060864D01*
X152238046Y-96063794D01*
X152250467Y-96066199D01*
X152261765Y-96067812D01*
X152270390Y-96068368D01*
X152274624Y-96067720D01*
X152275440Y-96064258D01*
X152276130Y-96055009D01*
X152276691Y-96040043D01*
X152277122Y-96019431D01*
X152277421Y-95993244D01*
X152277586Y-95961551D01*
X152277622Y-95935232D01*
X152277622Y-95804597D01*
X152259309Y-95806330D01*
X152231901Y-95811258D01*
X152205681Y-95820409D01*
X152183870Y-95832275D01*
X152163858Y-95848961D01*
X152148568Y-95869084D01*
X152138072Y-95892517D01*
X152132443Y-95919130D01*
X152131918Y-95924688D01*
X152015114Y-95924688D01*
X152015456Y-95908704D01*
X152021021Y-95871685D01*
X152031453Y-95837541D01*
X152046916Y-95805857D01*
X152067575Y-95776217D01*
X152093594Y-95748204D01*
X152094128Y-95747698D01*
X152121556Y-95725265D01*
X152152125Y-95707105D01*
X152186575Y-95692800D01*
X152197228Y-95689365D01*
X152205368Y-95686961D01*
X152212686Y-95685079D01*
X152220072Y-95683641D01*
X152228417Y-95682567D01*
X152238612Y-95681780D01*
X152251547Y-95681201D01*
X152268113Y-95680751D01*
X152289200Y-95680353D01*
X152301794Y-95680146D01*
X152380171Y-95678893D01*
X152380171Y-95874396D01*
G37*
G36*
X151392768Y-99472034D02*
G01*
X151392768Y-99667158D01*
X151401681Y-99667158D01*
X151413443Y-99666144D01*
X151428467Y-99663446D01*
X151444584Y-99659584D01*
X151459624Y-99655074D01*
X151471138Y-99650568D01*
X151492638Y-99637241D01*
X151511353Y-99619198D01*
X151526717Y-99597148D01*
X151538160Y-99571798D01*
X151540717Y-99563748D01*
X151543788Y-99548226D01*
X151545430Y-99529329D01*
X151545598Y-99509378D01*
X151544247Y-99490691D01*
X151542360Y-99479549D01*
X151537579Y-99464051D01*
X151530126Y-99446175D01*
X151520978Y-99427848D01*
X151511109Y-99410993D01*
X151501496Y-99397536D01*
X151499790Y-99395535D01*
X151486305Y-99380286D01*
X151525149Y-99334750D01*
X151563994Y-99289214D01*
X151578306Y-99303120D01*
X151603742Y-99331766D01*
X151625401Y-99364306D01*
X151642699Y-99399721D01*
X151655052Y-99436989D01*
X151655148Y-99437364D01*
X151659542Y-99459596D01*
X151662587Y-99485284D01*
X151664146Y-99512151D01*
X151664082Y-99537919D01*
X151662458Y-99558798D01*
X151655438Y-99595117D01*
X151644077Y-99630123D01*
X151628876Y-99662533D01*
X151610970Y-99690235D01*
X151588788Y-99714775D01*
X151561824Y-99736364D01*
X151530480Y-99754788D01*
X151495155Y-99769833D01*
X151456251Y-99781284D01*
X151431314Y-99786348D01*
X151412949Y-99788676D01*
X151390373Y-99790274D01*
X151365166Y-99791143D01*
X151338906Y-99791281D01*
X151313172Y-99790687D01*
X151289545Y-99789362D01*
X151283577Y-99788746D01*
X151269602Y-99787304D01*
X151263814Y-99786416D01*
X151223047Y-99777619D01*
X151186365Y-99765783D01*
X151153974Y-99751239D01*
X151140580Y-99743980D01*
X151129446Y-99736969D01*
X151119008Y-99729027D01*
X151107701Y-99718969D01*
X151095108Y-99706753D01*
X151082416Y-99693892D01*
X151072994Y-99683508D01*
X151065755Y-99674160D01*
X151059608Y-99664408D01*
X151053465Y-99652813D01*
X151051862Y-99649579D01*
X151040902Y-99625187D01*
X151033297Y-99602712D01*
X151028571Y-99580090D01*
X151026247Y-99555254D01*
X151025797Y-99536774D01*
X151025835Y-99535733D01*
X151143754Y-99535733D01*
X151146360Y-99563324D01*
X151154039Y-99588566D01*
X151166454Y-99610966D01*
X151183264Y-99630031D01*
X151204132Y-99645267D01*
X151225863Y-99655215D01*
X151237857Y-99658892D01*
X151251166Y-99662139D01*
X151264250Y-99664677D01*
X151275568Y-99666226D01*
X151283577Y-99666507D01*
X151285846Y-99666090D01*
X151286901Y-99665066D01*
X151287774Y-99662549D01*
X151288484Y-99658047D01*
X151289045Y-99651067D01*
X151289475Y-99641118D01*
X151289790Y-99627708D01*
X151290005Y-99610345D01*
X151290137Y-99588537D01*
X151290203Y-99561791D01*
X151290218Y-99533936D01*
X151290218Y-99403460D01*
X151278967Y-99403460D01*
X151267184Y-99404587D01*
X151252158Y-99407596D01*
X151235974Y-99411934D01*
X151220718Y-99417046D01*
X151209192Y-99422008D01*
X151187007Y-99436333D01*
X151169251Y-99454411D01*
X151156058Y-99476008D01*
X151147563Y-99500894D01*
X151143899Y-99528834D01*
X151143754Y-99535733D01*
X151025835Y-99535733D01*
X151026964Y-99505164D01*
X151031025Y-99476970D01*
X151038390Y-99450300D01*
X151049472Y-99423261D01*
X151051446Y-99419129D01*
X151070621Y-99386061D01*
X151094066Y-99356978D01*
X151121670Y-99331971D01*
X151153320Y-99311133D01*
X151188905Y-99294558D01*
X151209825Y-99287380D01*
X151217964Y-99284977D01*
X151225282Y-99283095D01*
X151232668Y-99281657D01*
X151241014Y-99280583D01*
X151251209Y-99279796D01*
X151264144Y-99279217D01*
X151280709Y-99278767D01*
X151301796Y-99278369D01*
X151314391Y-99278162D01*
X151392768Y-99276909D01*
X151392768Y-99472034D01*
G37*
G36*
X151375014Y-100486437D02*
G01*
X151400694Y-100486965D01*
X151422404Y-100487972D01*
X151441087Y-100489561D01*
X151457685Y-100491838D01*
X151473139Y-100494905D01*
X151488393Y-100498867D01*
X151504388Y-100503827D01*
X151504824Y-100503971D01*
X151530008Y-100514700D01*
X151555548Y-100529996D01*
X151580050Y-100548832D01*
X151602122Y-100570184D01*
X151614179Y-100584499D01*
X151626978Y-100603709D01*
X151639043Y-100626550D01*
X151649317Y-100650803D01*
X151656579Y-100673607D01*
X151659178Y-100686708D01*
X151661386Y-100703443D01*
X151663087Y-100722071D01*
X151664162Y-100740851D01*
X151664495Y-100758044D01*
X151663968Y-100771908D01*
X151663487Y-100776156D01*
X151657263Y-100808729D01*
X151648588Y-100837381D01*
X151636860Y-100863750D01*
X151622462Y-100887999D01*
X151599548Y-100917532D01*
X151572982Y-100942499D01*
X151542744Y-100962914D01*
X151508810Y-100978791D01*
X151471158Y-100990144D01*
X151455762Y-100993294D01*
X151440599Y-100995318D01*
X151420811Y-100996902D01*
X151397555Y-100998044D01*
X151371990Y-100998745D01*
X151345275Y-100999002D01*
X151339180Y-100998959D01*
X151318568Y-100998814D01*
X151293028Y-100998181D01*
X151269813Y-100997101D01*
X151250082Y-100995572D01*
X151234993Y-100993595D01*
X151234549Y-100993515D01*
X151203428Y-100986610D01*
X151176501Y-100977748D01*
X151152247Y-100966263D01*
X151129145Y-100951489D01*
X151116644Y-100941933D01*
X151090341Y-100917775D01*
X151068910Y-100891296D01*
X151051506Y-100861448D01*
X151051348Y-100861125D01*
X151040483Y-100836299D01*
X151032888Y-100812190D01*
X151028191Y-100787052D01*
X151026021Y-100759143D01*
X151025848Y-100746517D01*
X151150672Y-100746517D01*
X151153890Y-100772177D01*
X151161480Y-100796776D01*
X151173051Y-100818895D01*
X151182410Y-100831142D01*
X151196276Y-100843493D01*
X151214213Y-100854622D01*
X151234439Y-100863525D01*
X151247062Y-100867417D01*
X151258434Y-100869438D01*
X151274429Y-100871043D01*
X151293950Y-100872230D01*
X151315899Y-100873000D01*
X151339180Y-100873350D01*
X151362693Y-100873280D01*
X151385343Y-100872787D01*
X151406030Y-100871871D01*
X151423658Y-100870531D01*
X151437130Y-100868765D01*
X151442269Y-100867639D01*
X151469270Y-100857781D01*
X151491796Y-100844183D01*
X151510022Y-100826677D01*
X151524117Y-100805095D01*
X151534255Y-100779271D01*
X151534823Y-100777292D01*
X151537634Y-100760835D01*
X151538195Y-100741270D01*
X151536618Y-100720848D01*
X151533014Y-100701825D01*
X151530690Y-100694117D01*
X151519766Y-100670783D01*
X151504599Y-100651362D01*
X151485123Y-100635807D01*
X151461274Y-100624075D01*
X151432989Y-100616120D01*
X151414409Y-100613205D01*
X151397848Y-100611811D01*
X151377859Y-100611014D01*
X151355640Y-100610776D01*
X151332387Y-100611060D01*
X151309296Y-100611831D01*
X151287564Y-100613050D01*
X151268387Y-100614682D01*
X151252962Y-100616689D01*
X151244530Y-100618430D01*
X151218093Y-100628076D01*
X151195944Y-100641715D01*
X151178089Y-100659341D01*
X151164536Y-100680946D01*
X151155291Y-100706523D01*
X151152216Y-100721219D01*
X151150672Y-100746517D01*
X151025848Y-100746517D01*
X151025773Y-100740996D01*
X151027580Y-100704917D01*
X151032868Y-100672689D01*
X151041990Y-100643211D01*
X151055298Y-100615380D01*
X151073143Y-100588093D01*
X151075731Y-100584639D01*
X151096761Y-100560694D01*
X151121240Y-100539160D01*
X151147408Y-100521528D01*
X151155115Y-100517331D01*
X151171709Y-100509286D01*
X151187735Y-100502706D01*
X151204021Y-100497457D01*
X151221392Y-100493401D01*
X151240676Y-100490405D01*
X151262698Y-100488331D01*
X151288286Y-100487046D01*
X151318267Y-100486412D01*
X151344423Y-100486284D01*
X151375014Y-100486437D01*
G37*
G36*
X152206570Y-98223401D02*
G01*
X152645334Y-98224143D01*
X152646125Y-98286405D01*
X152646916Y-98348667D01*
X152614406Y-98348667D01*
X152581896Y-98348667D01*
X152597500Y-98367490D01*
X152614456Y-98389728D01*
X152627527Y-98411294D01*
X152637955Y-98434356D01*
X152641701Y-98444591D01*
X152645936Y-98457789D01*
X152648704Y-98469406D01*
X152650368Y-98481630D01*
X152651289Y-98496646D01*
X152651532Y-98503956D01*
X152651534Y-98525219D01*
X152650361Y-98543890D01*
X152648463Y-98556696D01*
X152638954Y-98588384D01*
X152624578Y-98617848D01*
X152605886Y-98644528D01*
X152583430Y-98667866D01*
X152557765Y-98687303D01*
X152529442Y-98702280D01*
X152499015Y-98712236D01*
X152493517Y-98713421D01*
X152476258Y-98716128D01*
X152454125Y-98718453D01*
X152428094Y-98720353D01*
X152399140Y-98721784D01*
X152368238Y-98722700D01*
X152336365Y-98723059D01*
X152332444Y-98723029D01*
X152304496Y-98722816D01*
X152291931Y-98722539D01*
X152256428Y-98721359D01*
X152226086Y-98719738D01*
X152200209Y-98717513D01*
X152178104Y-98714521D01*
X152159077Y-98710598D01*
X152142434Y-98705583D01*
X152127482Y-98699311D01*
X152113527Y-98691621D01*
X152099875Y-98682349D01*
X152090674Y-98675268D01*
X152065057Y-98651323D01*
X152044593Y-98624598D01*
X152029310Y-98595148D01*
X152019234Y-98563028D01*
X152014391Y-98528295D01*
X152013924Y-98512893D01*
X152014837Y-98488637D01*
X152015276Y-98485651D01*
X152139082Y-98485651D01*
X152139938Y-98493905D01*
X152145245Y-98518869D01*
X152154497Y-98539958D01*
X152167961Y-98557440D01*
X152185905Y-98571582D01*
X152208594Y-98582650D01*
X152236295Y-98590913D01*
X152236878Y-98591046D01*
X152248953Y-98592953D01*
X152265711Y-98594432D01*
X152285987Y-98595483D01*
X152308619Y-98596106D01*
X152332444Y-98596301D01*
X152356300Y-98596069D01*
X152379024Y-98595409D01*
X152399453Y-98594322D01*
X152416424Y-98592807D01*
X152428060Y-98591021D01*
X152455608Y-98583320D01*
X152478235Y-98572743D01*
X152496271Y-98559017D01*
X152510044Y-98541869D01*
X152519884Y-98521027D01*
X152522477Y-98512746D01*
X152524852Y-98499640D01*
X152526068Y-98483057D01*
X152526120Y-98465266D01*
X152525001Y-98448536D01*
X152522707Y-98435134D01*
X152522663Y-98434967D01*
X152514531Y-98412811D01*
X152502773Y-98394905D01*
X152486733Y-98380444D01*
X152470159Y-98370710D01*
X152457244Y-98364814D01*
X152444534Y-98360146D01*
X152431122Y-98356574D01*
X152416106Y-98353965D01*
X152398582Y-98352188D01*
X152377643Y-98351111D01*
X152352387Y-98350601D01*
X152331826Y-98350511D01*
X152305204Y-98350647D01*
X152283426Y-98351137D01*
X152265479Y-98352104D01*
X152250353Y-98353672D01*
X152237035Y-98355963D01*
X152224514Y-98359102D01*
X152211778Y-98363212D01*
X152203782Y-98366131D01*
X152183063Y-98376892D01*
X152166008Y-98391936D01*
X152152850Y-98410800D01*
X152143821Y-98433018D01*
X152139154Y-98458123D01*
X152139082Y-98485651D01*
X152015276Y-98485651D01*
X152017920Y-98467658D01*
X152023686Y-98447613D01*
X152032647Y-98426159D01*
X152033154Y-98425080D01*
X152040348Y-98411431D01*
X152049426Y-98396525D01*
X152059312Y-98381936D01*
X152068931Y-98369241D01*
X152077207Y-98360015D01*
X152078203Y-98359085D01*
X152082648Y-98354258D01*
X152084243Y-98351143D01*
X152081402Y-98350676D01*
X152073235Y-98350238D01*
X152060276Y-98349837D01*
X152043058Y-98349481D01*
X152022115Y-98349180D01*
X151997981Y-98348940D01*
X151971191Y-98348771D01*
X151942277Y-98348680D01*
X151926024Y-98348667D01*
X151767805Y-98348667D01*
X151767805Y-98285663D01*
X151767805Y-98222659D01*
X152206570Y-98223401D01*
G37*
G36*
X151489838Y-97796484D02*
G01*
X151520193Y-97802081D01*
X151548159Y-97812953D01*
X151574004Y-97829199D01*
X151593657Y-97846456D01*
X151613922Y-97870656D01*
X151631040Y-97899268D01*
X151644843Y-97931660D01*
X151655160Y-97967197D01*
X151661824Y-98005245D01*
X151664665Y-98045171D01*
X151663515Y-98086339D01*
X151661953Y-98102545D01*
X151654175Y-98145419D01*
X151641000Y-98188070D01*
X151622848Y-98229574D01*
X151600141Y-98269007D01*
X151573297Y-98305443D01*
X151565545Y-98314478D01*
X151553000Y-98328634D01*
X151509551Y-98285258D01*
X151466103Y-98241882D01*
X151475902Y-98231548D01*
X151495607Y-98207460D01*
X151513211Y-98179500D01*
X151527661Y-98149558D01*
X151537602Y-98120658D01*
X151541287Y-98102895D01*
X151543992Y-98081522D01*
X151545561Y-98058728D01*
X151545833Y-98036705D01*
X151544883Y-98019780D01*
X151540340Y-97992131D01*
X151532683Y-97969139D01*
X151521765Y-97950409D01*
X151517046Y-97944675D01*
X151502316Y-97931916D01*
X151486168Y-97924065D01*
X151469478Y-97920959D01*
X151453127Y-97922435D01*
X151437993Y-97928330D01*
X151424955Y-97938480D01*
X151414892Y-97952722D01*
X151410245Y-97964495D01*
X151409134Y-97970255D01*
X151407622Y-97980939D01*
X151405815Y-97995634D01*
X151403821Y-98013426D01*
X151401748Y-98033403D01*
X151400018Y-98051274D01*
X151397871Y-98073115D01*
X151395608Y-98094211D01*
X151393359Y-98113489D01*
X151391253Y-98129879D01*
X151389419Y-98142308D01*
X151388299Y-98148392D01*
X151379024Y-98178386D01*
X151365148Y-98205942D01*
X151347217Y-98230464D01*
X151325775Y-98251358D01*
X151301369Y-98268029D01*
X151274544Y-98279882D01*
X151265160Y-98282659D01*
X151250488Y-98285242D01*
X151232080Y-98286670D01*
X151211945Y-98286943D01*
X151192092Y-98286063D01*
X151174528Y-98284028D01*
X151167461Y-98282633D01*
X151140933Y-98273596D01*
X151115294Y-98259511D01*
X151091930Y-98241170D01*
X151087515Y-98236925D01*
X151077099Y-98225844D01*
X151068764Y-98215021D01*
X151061165Y-98202494D01*
X151053334Y-98187085D01*
X151046775Y-98172563D01*
X151040743Y-98157618D01*
X151036055Y-98144348D01*
X151034055Y-98137376D01*
X151027950Y-98102754D01*
X151025293Y-98065087D01*
X151025993Y-98026001D01*
X151029960Y-97987123D01*
X151037105Y-97950079D01*
X151046124Y-97919797D01*
X151058296Y-97890779D01*
X151073769Y-97861467D01*
X151091268Y-97834104D01*
X151104768Y-97816437D01*
X151110025Y-97810138D01*
X151151760Y-97845866D01*
X151165122Y-97857329D01*
X151177068Y-97867623D01*
X151186834Y-97876086D01*
X151193657Y-97882057D01*
X151196758Y-97884858D01*
X151197443Y-97888020D01*
X151195395Y-97894051D01*
X151190326Y-97903631D01*
X151184996Y-97912538D01*
X151166132Y-97948231D01*
X151153028Y-97984737D01*
X151145610Y-98022306D01*
X151143719Y-98054235D01*
X151145175Y-98083102D01*
X151149624Y-98107168D01*
X151157191Y-98126738D01*
X151168003Y-98142120D01*
X151182183Y-98153622D01*
X151184741Y-98155105D01*
X151199631Y-98160694D01*
X151216023Y-98162566D01*
X151231866Y-98160700D01*
X151244154Y-98155690D01*
X151251827Y-98150198D01*
X151258226Y-98143653D01*
X151263528Y-98135435D01*
X151267910Y-98124923D01*
X151271549Y-98111498D01*
X151274624Y-98094538D01*
X151277311Y-98073424D01*
X151279787Y-98047535D01*
X151281607Y-98024701D01*
X151284009Y-97995316D01*
X151286485Y-97969963D01*
X151288978Y-97949136D01*
X151291430Y-97933325D01*
X151293113Y-97925425D01*
X151303702Y-97894651D01*
X151318639Y-97867732D01*
X151337725Y-97844825D01*
X151360762Y-97826087D01*
X151387552Y-97811673D01*
X151417899Y-97801739D01*
X151451604Y-97796443D01*
X151456826Y-97796065D01*
X151489838Y-97796484D01*
G37*
G36*
X152646125Y-96819837D02*
G01*
X152645334Y-96882212D01*
X152618184Y-96883055D01*
X152591035Y-96883898D01*
X152608075Y-96899675D01*
X152623964Y-96917451D01*
X152636083Y-96938223D01*
X152645088Y-96963127D01*
X152645537Y-96964752D01*
X152647977Y-96977452D01*
X152649821Y-96994463D01*
X152651035Y-97014265D01*
X152651589Y-97035336D01*
X152651449Y-97056156D01*
X152650585Y-97075202D01*
X152648965Y-97090956D01*
X152648268Y-97095121D01*
X152639130Y-97129806D01*
X152625741Y-97160993D01*
X152608444Y-97188412D01*
X152587581Y-97211794D01*
X152563496Y-97230869D01*
X152536532Y-97245368D01*
X152507032Y-97255019D01*
X152475339Y-97259555D01*
X152465786Y-97259313D01*
X152441795Y-97258704D01*
X152440423Y-97258554D01*
X152420922Y-97255845D01*
X152404938Y-97252200D01*
X152390131Y-97246933D01*
X152374163Y-97239354D01*
X152372846Y-97238669D01*
X152347311Y-97222072D01*
X152325303Y-97200934D01*
X152307208Y-97175665D01*
X152299834Y-97161783D01*
X152294425Y-97150093D01*
X152289968Y-97139327D01*
X152286371Y-97128766D01*
X152283544Y-97117689D01*
X152281396Y-97105375D01*
X152279834Y-97091104D01*
X152278768Y-97074154D01*
X152278106Y-97053804D01*
X152277757Y-97029334D01*
X152277631Y-97000023D01*
X152277622Y-96986350D01*
X152277622Y-96883677D01*
X152235870Y-96883693D01*
X152219713Y-96883928D01*
X152204657Y-96884559D01*
X152192167Y-96885496D01*
X152183709Y-96886652D01*
X152182407Y-96886961D01*
X152167864Y-96893954D01*
X152155191Y-96906014D01*
X152144946Y-96922494D01*
X152139470Y-96936474D01*
X152136867Y-96945376D01*
X152135009Y-96953720D01*
X152133773Y-96962772D01*
X152133039Y-96973802D01*
X152132685Y-96988076D01*
X152132588Y-97006863D01*
X152132588Y-97008201D01*
X152132737Y-97028844D01*
X152133238Y-97044709D01*
X152134173Y-97056874D01*
X152135623Y-97066416D01*
X152137601Y-97074183D01*
X152144156Y-97090478D01*
X152152913Y-97105414D01*
X152162768Y-97117296D01*
X152169071Y-97122470D01*
X152174909Y-97126671D01*
X152177874Y-97129517D01*
X152177968Y-97129795D01*
X152176223Y-97132801D01*
X152171454Y-97139506D01*
X152164329Y-97149057D01*
X152155516Y-97160603D01*
X152145682Y-97173291D01*
X152135497Y-97186269D01*
X152125628Y-97198686D01*
X152116742Y-97209688D01*
X152109508Y-97218425D01*
X152104594Y-97224043D01*
X152102774Y-97225722D01*
X152099408Y-97224224D01*
X152092998Y-97219311D01*
X152084546Y-97211804D01*
X152077343Y-97204841D01*
X152056894Y-97180487D01*
X152039775Y-97151936D01*
X152026517Y-97120137D01*
X152022314Y-97106356D01*
X152019669Y-97093218D01*
X152017480Y-97075570D01*
X152015796Y-97054748D01*
X152014666Y-97032087D01*
X152014140Y-97008923D01*
X152014265Y-96986592D01*
X152015091Y-96966429D01*
X152016609Y-96950190D01*
X152023835Y-96910622D01*
X152032194Y-96883063D01*
X152380171Y-96883063D01*
X152380222Y-96969072D01*
X152380357Y-96999196D01*
X152380777Y-97024148D01*
X152381565Y-97044615D01*
X152382804Y-97061281D01*
X152384575Y-97074832D01*
X152386962Y-97085953D01*
X152390046Y-97095329D01*
X152393910Y-97103645D01*
X152397072Y-97109119D01*
X152409627Y-97124653D01*
X152424908Y-97135009D01*
X152442986Y-97140230D01*
X152446375Y-97140613D01*
X152465786Y-97140660D01*
X152481932Y-97136640D01*
X152496156Y-97128101D01*
X152503535Y-97121429D01*
X152516504Y-97104290D01*
X152526101Y-97082512D01*
X152532292Y-97056275D01*
X152535044Y-97025757D01*
X152534322Y-96991138D01*
X152532398Y-96970111D01*
X152529947Y-96951618D01*
X152527135Y-96937630D01*
X152523501Y-96926795D01*
X152518584Y-96917760D01*
X152511924Y-96909170D01*
X152511495Y-96908681D01*
X152503974Y-96901052D01*
X152495973Y-96895253D01*
X152486528Y-96891011D01*
X152474675Y-96888051D01*
X152459451Y-96886097D01*
X152439892Y-96884875D01*
X152426318Y-96884397D01*
X152380171Y-96883063D01*
X152032194Y-96883063D01*
X152034396Y-96875804D01*
X152048384Y-96845607D01*
X152065885Y-96819904D01*
X152086991Y-96798567D01*
X152111791Y-96781466D01*
X152140373Y-96768474D01*
X152144078Y-96767179D01*
X152167748Y-96759153D01*
X152407332Y-96758307D01*
X152646917Y-96757462D01*
X152646125Y-96819837D01*
G37*
G36*
X152024855Y-97271666D02*
G01*
X152046821Y-97278706D01*
X152072166Y-97286820D01*
X152100472Y-97295875D01*
X152131321Y-97305739D01*
X152164296Y-97316277D01*
X152198978Y-97327357D01*
X152234950Y-97338845D01*
X152271793Y-97350608D01*
X152309089Y-97362512D01*
X152346422Y-97374425D01*
X152383372Y-97386213D01*
X152419521Y-97397742D01*
X152454453Y-97408880D01*
X152487749Y-97419493D01*
X152518990Y-97429447D01*
X152547760Y-97438610D01*
X152573640Y-97446849D01*
X152596212Y-97454029D01*
X152615058Y-97460017D01*
X152629761Y-97464681D01*
X152639902Y-97467887D01*
X152645063Y-97469501D01*
X152645649Y-97469673D01*
X152646008Y-97472453D01*
X152646321Y-97480191D01*
X152646570Y-97491985D01*
X152646735Y-97506934D01*
X152646799Y-97524135D01*
X152646799Y-97525116D01*
X152646799Y-97580558D01*
X152637277Y-97583567D01*
X152632967Y-97584879D01*
X152623504Y-97587723D01*
X152609352Y-97591961D01*
X152590975Y-97597456D01*
X152568838Y-97604067D01*
X152543403Y-97611657D01*
X152515135Y-97620088D01*
X152484498Y-97629220D01*
X152451955Y-97638915D01*
X152419726Y-97648513D01*
X152386026Y-97658565D01*
X152353963Y-97668165D01*
X152323980Y-97677177D01*
X152296519Y-97685467D01*
X152272023Y-97692901D01*
X152250937Y-97699343D01*
X152233702Y-97704658D01*
X152220762Y-97708711D01*
X152212561Y-97711368D01*
X152209545Y-97712489D01*
X152211371Y-97714013D01*
X152217879Y-97716762D01*
X152228109Y-97720379D01*
X152241100Y-97724507D01*
X152244705Y-97725588D01*
X152254141Y-97728391D01*
X152268589Y-97732691D01*
X152287447Y-97738309D01*
X152310114Y-97745065D01*
X152335986Y-97752779D01*
X152364462Y-97761271D01*
X152394938Y-97770363D01*
X152426813Y-97779875D01*
X152459485Y-97789626D01*
X152464408Y-97791096D01*
X152646799Y-97845544D01*
X152646799Y-97900558D01*
X152646799Y-97955572D01*
X152628487Y-97961562D01*
X152623406Y-97963201D01*
X152613281Y-97966449D01*
X152598562Y-97971160D01*
X152579701Y-97977192D01*
X152557150Y-97984399D01*
X152531360Y-97992639D01*
X152502782Y-98001766D01*
X152471867Y-98011638D01*
X152439068Y-98022109D01*
X152404835Y-98033036D01*
X152369620Y-98044274D01*
X152333875Y-98055681D01*
X152298050Y-98067111D01*
X152262598Y-98078420D01*
X152227969Y-98089466D01*
X152194615Y-98100103D01*
X152162988Y-98110187D01*
X152133539Y-98119575D01*
X152106719Y-98128123D01*
X152082979Y-98135686D01*
X152062772Y-98142120D01*
X152046549Y-98147282D01*
X152034761Y-98151027D01*
X152027859Y-98153212D01*
X152026320Y-98153692D01*
X152019672Y-98155719D01*
X152020460Y-98089120D01*
X152021249Y-98022522D01*
X152232207Y-97964879D01*
X152266450Y-97955525D01*
X152299200Y-97946584D01*
X152329994Y-97938182D01*
X152358368Y-97930445D01*
X152383862Y-97923499D01*
X152406012Y-97917469D01*
X152424356Y-97912483D01*
X152438431Y-97908666D01*
X152447775Y-97906143D01*
X152451914Y-97905044D01*
X152457374Y-97903151D01*
X152457466Y-97901314D01*
X152456309Y-97900593D01*
X152452889Y-97899353D01*
X152444327Y-97896458D01*
X152431059Y-97892051D01*
X152413520Y-97886273D01*
X152392146Y-97879269D01*
X152367372Y-97871179D01*
X152339635Y-97862146D01*
X152309369Y-97852314D01*
X152277011Y-97841823D01*
X152242996Y-97830818D01*
X152235870Y-97828514D01*
X152019784Y-97758695D01*
X152019803Y-97713071D01*
X152019822Y-97667447D01*
X152236512Y-97597368D01*
X152270823Y-97586260D01*
X152303540Y-97575645D01*
X152334232Y-97565665D01*
X152362466Y-97556462D01*
X152387810Y-97548177D01*
X152409834Y-97540950D01*
X152428104Y-97534925D01*
X152442191Y-97530241D01*
X152451661Y-97527041D01*
X152456083Y-97525467D01*
X152456338Y-97525350D01*
X152454085Y-97524294D01*
X152446597Y-97521829D01*
X152434297Y-97518077D01*
X152417605Y-97513159D01*
X152396945Y-97507195D01*
X152372738Y-97500305D01*
X152345407Y-97492611D01*
X152315373Y-97484233D01*
X152283058Y-97475293D01*
X152248886Y-97465910D01*
X152240362Y-97463580D01*
X152021249Y-97403749D01*
X152020460Y-97336876D01*
X152020232Y-97315420D01*
X152020150Y-97299138D01*
X152020260Y-97287347D01*
X152020609Y-97279364D01*
X152021242Y-97274503D01*
X152022205Y-97272082D01*
X152023546Y-97271416D01*
X152024855Y-97271666D01*
G37*
G36*
X152646799Y-99349142D02*
G01*
X152646799Y-99412250D01*
X152618380Y-99412250D01*
X152589960Y-99412250D01*
X152606798Y-99427258D01*
X152623993Y-99446415D01*
X152637235Y-99469763D01*
X152645592Y-99493537D01*
X152647968Y-99505938D01*
X152649777Y-99522661D01*
X152650986Y-99542194D01*
X152651564Y-99563021D01*
X152651477Y-99583630D01*
X152650694Y-99602508D01*
X152649180Y-99618141D01*
X152648381Y-99623053D01*
X152639103Y-99658798D01*
X152625658Y-99690582D01*
X152608142Y-99718289D01*
X152586650Y-99741806D01*
X152561277Y-99761018D01*
X152532119Y-99775812D01*
X152516415Y-99781432D01*
X152498147Y-99785521D01*
X152476488Y-99787817D01*
X152453640Y-99788273D01*
X152448578Y-99787942D01*
X152431806Y-99786847D01*
X152413230Y-99783506D01*
X152382838Y-99772529D01*
X152355565Y-99756723D01*
X152331726Y-99736406D01*
X152311634Y-99711894D01*
X152295605Y-99683505D01*
X152284641Y-99653974D01*
X152283291Y-99648627D01*
X152282175Y-99642335D01*
X152281261Y-99634472D01*
X152280519Y-99624410D01*
X152279919Y-99611524D01*
X152279432Y-99595186D01*
X152279026Y-99574771D01*
X152278672Y-99549651D01*
X152278391Y-99524322D01*
X152277245Y-99412250D01*
X152235681Y-99412266D01*
X152214691Y-99412516D01*
X152198508Y-99413412D01*
X152186092Y-99415207D01*
X152176406Y-99418151D01*
X152168409Y-99422497D01*
X152161062Y-99428494D01*
X152158577Y-99430904D01*
X152149882Y-99441352D01*
X152143183Y-99453715D01*
X152138247Y-99468837D01*
X152134837Y-99487566D01*
X152132719Y-99510747D01*
X152131991Y-99526519D01*
X152131763Y-99555809D01*
X152133381Y-99580262D01*
X152137056Y-99600667D01*
X152142995Y-99617813D01*
X152151408Y-99632488D01*
X152162504Y-99645483D01*
X152163813Y-99646763D01*
X152177627Y-99660061D01*
X152141922Y-99707412D01*
X152130948Y-99721779D01*
X152121034Y-99734408D01*
X152112757Y-99744591D01*
X152106692Y-99751624D01*
X152103418Y-99754799D01*
X152103140Y-99754910D01*
X152098522Y-99752917D01*
X152091276Y-99747317D01*
X152082401Y-99739105D01*
X152072894Y-99729278D01*
X152063754Y-99718831D01*
X152055978Y-99708761D01*
X152054019Y-99705898D01*
X152042134Y-99686514D01*
X152032845Y-99667891D01*
X152025839Y-99648859D01*
X152020805Y-99628251D01*
X152017430Y-99604896D01*
X152015404Y-99577626D01*
X152014695Y-99558518D01*
X152014483Y-99520690D01*
X152016116Y-99487507D01*
X152019754Y-99458004D01*
X152025554Y-99431212D01*
X152031906Y-99411627D01*
X152379736Y-99411627D01*
X152380868Y-99506430D01*
X152381267Y-99535370D01*
X152381772Y-99559132D01*
X152382485Y-99578401D01*
X152383510Y-99593859D01*
X152384949Y-99606191D01*
X152386903Y-99616078D01*
X152389476Y-99624204D01*
X152392769Y-99631252D01*
X152396886Y-99637905D01*
X152401531Y-99644322D01*
X152414853Y-99657458D01*
X152430906Y-99666090D01*
X152448578Y-99670138D01*
X152466756Y-99669521D01*
X152484328Y-99664159D01*
X152500182Y-99653972D01*
X152502759Y-99651628D01*
X152511788Y-99641437D01*
X152519045Y-99629437D01*
X152524966Y-99614572D01*
X152529986Y-99595785D01*
X152533803Y-99576329D01*
X152534391Y-99568810D01*
X152534506Y-99556909D01*
X152534214Y-99542081D01*
X152533580Y-99525778D01*
X152532670Y-99509454D01*
X152531550Y-99494562D01*
X152530285Y-99482557D01*
X152529277Y-99476296D01*
X152523720Y-99456975D01*
X152515788Y-99442179D01*
X152504622Y-99430772D01*
X152489361Y-99421618D01*
X152487079Y-99420556D01*
X152480706Y-99417959D01*
X152474044Y-99416073D01*
X152465925Y-99414749D01*
X152455181Y-99413837D01*
X152440646Y-99413190D01*
X152426101Y-99412776D01*
X152379736Y-99411627D01*
X152031906Y-99411627D01*
X152033677Y-99406167D01*
X152043434Y-99383635D01*
X152059504Y-99356967D01*
X152079982Y-99334071D01*
X152104635Y-99315138D01*
X152133231Y-99300356D01*
X152153301Y-99293222D01*
X152156816Y-99292273D01*
X152160895Y-99291442D01*
X152165941Y-99290718D01*
X152172356Y-99290091D01*
X152180539Y-99289553D01*
X152190894Y-99289092D01*
X152203821Y-99288701D01*
X152219721Y-99288367D01*
X152238997Y-99288083D01*
X152262049Y-99287838D01*
X152289278Y-99287623D01*
X152321087Y-99287427D01*
X152357877Y-99287241D01*
X152400048Y-99287055D01*
X152408738Y-99287019D01*
X152646799Y-99286034D01*
X152646799Y-99349142D01*
G37*
G36*
X152646799Y-99940995D02*
G01*
X152646799Y-100004106D01*
X152448176Y-100004106D01*
X152407548Y-100004113D01*
X152372326Y-100004151D01*
X152342058Y-100004249D01*
X152316289Y-100004434D01*
X152294566Y-100004734D01*
X152276436Y-100005176D01*
X152261445Y-100005788D01*
X152249141Y-100006598D01*
X152239068Y-100007633D01*
X152230775Y-100008922D01*
X152223808Y-100010491D01*
X152217712Y-100012369D01*
X152212036Y-100014583D01*
X152206324Y-100017161D01*
X152202232Y-100019116D01*
X152181861Y-100032057D01*
X152165006Y-100049195D01*
X152152025Y-100069785D01*
X152143280Y-100093085D01*
X152139133Y-100118352D01*
X152139943Y-100144842D01*
X152140213Y-100146852D01*
X152146615Y-100172861D01*
X152157904Y-100195730D01*
X152173892Y-100215246D01*
X152194390Y-100231200D01*
X152219210Y-100243378D01*
X152229277Y-100246832D01*
X152232909Y-100247736D01*
X152237814Y-100248525D01*
X152244415Y-100249209D01*
X152253131Y-100249798D01*
X152264383Y-100250304D01*
X152278591Y-100250737D01*
X152296175Y-100251109D01*
X152317557Y-100251430D01*
X152343157Y-100251711D01*
X152373395Y-100251962D01*
X152408692Y-100252195D01*
X152445363Y-100252400D01*
X152646799Y-100253452D01*
X152646799Y-100314833D01*
X152646799Y-100376214D01*
X151839590Y-100376214D01*
X151344423Y-100376214D01*
X151032380Y-100376214D01*
X151032380Y-100313219D01*
X151032380Y-100250225D01*
X151063209Y-100250225D01*
X151094039Y-100250225D01*
X151077667Y-100230447D01*
X151064900Y-100212862D01*
X151052534Y-100191963D01*
X151041653Y-100169856D01*
X151033344Y-100148647D01*
X151030455Y-100138885D01*
X151028426Y-100127165D01*
X151151244Y-100127165D01*
X151152507Y-100151450D01*
X151156534Y-100171626D01*
X151163679Y-100188927D01*
X151173066Y-100203055D01*
X151187044Y-100217266D01*
X151204715Y-100228844D01*
X151226887Y-100238267D01*
X151238747Y-100241989D01*
X151246073Y-100243994D01*
X151252945Y-100245560D01*
X151260206Y-100246741D01*
X151268700Y-100247590D01*
X151279269Y-100248161D01*
X151292758Y-100248510D01*
X151310009Y-100248689D01*
X151331866Y-100248752D01*
X151344423Y-100248758D01*
X151369451Y-100248713D01*
X151389439Y-100248550D01*
X151405204Y-100248222D01*
X151417566Y-100247688D01*
X151427342Y-100246902D01*
X151435353Y-100245822D01*
X151442415Y-100244402D01*
X151446972Y-100243253D01*
X151473585Y-100234216D01*
X151495167Y-100222591D01*
X151512102Y-100208037D01*
X151524769Y-100190214D01*
X151533550Y-100168782D01*
X151534570Y-100165184D01*
X151537932Y-100146141D01*
X151538935Y-100124605D01*
X151537520Y-100103471D01*
X151535972Y-100094347D01*
X151528402Y-100070999D01*
X151516217Y-100051106D01*
X151504505Y-100038715D01*
X151491826Y-100028913D01*
X151477335Y-100020965D01*
X151460399Y-100014732D01*
X151440383Y-100010077D01*
X151416654Y-100006860D01*
X151388578Y-100004943D01*
X151355521Y-100004187D01*
X151346237Y-100004164D01*
X151312629Y-100004608D01*
X151284155Y-100005951D01*
X151260138Y-100008316D01*
X151239903Y-100011827D01*
X151222775Y-100016606D01*
X151208078Y-100022778D01*
X151195137Y-100030463D01*
X151192792Y-100032126D01*
X151176430Y-100046613D01*
X151164407Y-100063410D01*
X151156420Y-100083211D01*
X151152166Y-100106706D01*
X151151244Y-100127165D01*
X151028426Y-100127165D01*
X151027159Y-100119844D01*
X151025740Y-100097403D01*
X151026167Y-100073700D01*
X151028407Y-100050876D01*
X151032033Y-100032526D01*
X151040139Y-100007603D01*
X151050869Y-99985512D01*
X151065147Y-99964701D01*
X151083897Y-99943619D01*
X151086492Y-99940998D01*
X151100285Y-99927944D01*
X151113982Y-99916777D01*
X151128154Y-99907356D01*
X151143372Y-99899543D01*
X151160205Y-99893198D01*
X151179225Y-99888184D01*
X151201001Y-99884360D01*
X151226106Y-99881588D01*
X151255109Y-99879728D01*
X151288581Y-99878642D01*
X151327092Y-99878191D01*
X151344423Y-99878157D01*
X151384921Y-99878392D01*
X151420148Y-99879170D01*
X151450680Y-99880630D01*
X151477093Y-99882914D01*
X151499963Y-99886160D01*
X151519865Y-99890511D01*
X151537374Y-99896105D01*
X151553066Y-99903083D01*
X151567518Y-99911585D01*
X151581304Y-99921752D01*
X151595001Y-99933723D01*
X151602654Y-99941078D01*
X151615836Y-99954573D01*
X151625660Y-99965983D01*
X151633341Y-99976886D01*
X151640095Y-99988861D01*
X151641276Y-99991190D01*
X151650465Y-100011062D01*
X151656824Y-100028999D01*
X151660794Y-100046953D01*
X151662816Y-100066880D01*
X151663332Y-100089076D01*
X151663146Y-100105802D01*
X151662470Y-100118482D01*
X151661072Y-100128923D01*
X151658716Y-100138932D01*
X151655560Y-100149140D01*
X151643024Y-100179305D01*
X151625523Y-100208421D01*
X151609233Y-100229624D01*
X151592765Y-100249273D01*
X151765987Y-100251211D01*
X151823276Y-100251823D01*
X151874751Y-100252313D01*
X151920460Y-100252681D01*
X151960448Y-100252926D01*
X151994762Y-100253048D01*
X152023446Y-100253049D01*
X152046548Y-100252927D01*
X152064113Y-100252682D01*
X152076187Y-100252316D01*
X152082816Y-100251827D01*
X152084243Y-100251393D01*
X152082379Y-100248615D01*
X152077376Y-100242614D01*
X152070117Y-100234428D01*
X152065569Y-100229462D01*
X152045236Y-100203278D01*
X152029926Y-100174133D01*
X152019691Y-100142166D01*
X152014583Y-100107517D01*
X152013967Y-100089339D01*
X152015112Y-100062693D01*
X152018783Y-100039393D01*
X152025449Y-100017301D01*
X152034350Y-99996781D01*
X152052106Y-99966620D01*
X152074057Y-99940291D01*
X152099815Y-99918189D01*
X152128992Y-99900708D01*
X152129242Y-99900586D01*
X152136694Y-99896920D01*
X152143299Y-99893714D01*
X152149485Y-99890936D01*
X152155681Y-99888553D01*
X152162315Y-99886534D01*
X152169814Y-99884844D01*
X152178608Y-99883453D01*
X152189124Y-99882327D01*
X152201790Y-99881435D01*
X152217034Y-99880744D01*
X152235284Y-99880221D01*
X152256970Y-99879834D01*
X152282518Y-99879550D01*
X152312356Y-99879338D01*
X152346914Y-99879165D01*
X152386619Y-99878999D01*
X152416063Y-99878875D01*
X152646799Y-99877883D01*
X152646799Y-99940995D01*
G37*
G36*
X148992732Y-95675189D02*
G01*
X148998898Y-95681271D01*
X149002823Y-95686780D01*
X149003174Y-95687641D01*
X149003923Y-95691172D01*
X149005667Y-95700067D01*
X149008330Y-95713928D01*
X149011838Y-95732358D01*
X149016115Y-95754960D01*
X149021088Y-95781335D01*
X149026680Y-95811086D01*
X149032817Y-95843815D01*
X149039425Y-95879126D01*
X149046428Y-95916620D01*
X149053751Y-95955900D01*
X149057621Y-95976684D01*
X149066446Y-96024049D01*
X149074285Y-96065985D01*
X149081205Y-96102830D01*
X149087277Y-96134919D01*
X149092569Y-96162588D01*
X149097149Y-96186173D01*
X149101085Y-96206011D01*
X149104447Y-96222438D01*
X149107304Y-96235789D01*
X149109723Y-96246401D01*
X149111774Y-96254609D01*
X149113524Y-96260751D01*
X149115044Y-96265162D01*
X149116401Y-96268178D01*
X149117516Y-96269946D01*
X149119254Y-96271796D01*
X149122000Y-96273906D01*
X149126101Y-96276424D01*
X149131903Y-96279498D01*
X149139752Y-96283278D01*
X149149996Y-96287911D01*
X149162981Y-96293547D01*
X149179054Y-96300335D01*
X149198561Y-96308421D01*
X149221849Y-96317957D01*
X149249266Y-96329089D01*
X149281156Y-96341967D01*
X149317868Y-96356739D01*
X149351096Y-96370082D01*
X149385873Y-96384024D01*
X149419195Y-96397354D01*
X149450645Y-96409908D01*
X149479807Y-96421521D01*
X149506266Y-96432027D01*
X149529606Y-96441263D01*
X149549410Y-96449064D01*
X149565262Y-96455265D01*
X149576748Y-96459700D01*
X149583450Y-96462207D01*
X149584970Y-96462708D01*
X149592911Y-96463231D01*
X149602210Y-96462170D01*
X149602768Y-96462049D01*
X149607063Y-96459949D01*
X149615998Y-96454592D01*
X149629413Y-96446082D01*
X149647150Y-96434525D01*
X149669050Y-96420028D01*
X149694954Y-96402696D01*
X149724703Y-96382635D01*
X149758139Y-96359952D01*
X149795103Y-96334751D01*
X149835435Y-96307138D01*
X149846293Y-96299688D01*
X149879575Y-96276857D01*
X149911591Y-96254930D01*
X149941996Y-96234139D01*
X149970448Y-96214718D01*
X149996603Y-96196900D01*
X150020119Y-96180917D01*
X150040651Y-96167004D01*
X150057859Y-96155392D01*
X150071397Y-96146316D01*
X150080923Y-96140008D01*
X150086094Y-96136701D01*
X150086841Y-96136282D01*
X150089734Y-96134955D01*
X150092446Y-96133918D01*
X150095228Y-96133390D01*
X150098328Y-96133593D01*
X150101994Y-96134749D01*
X150106477Y-96137079D01*
X150112025Y-96140805D01*
X150118886Y-96146148D01*
X150127310Y-96153330D01*
X150137545Y-96162571D01*
X150149842Y-96174093D01*
X150164448Y-96188118D01*
X150181612Y-96204867D01*
X150201584Y-96224562D01*
X150224612Y-96247424D01*
X150250946Y-96273674D01*
X150280834Y-96303534D01*
X150314526Y-96337225D01*
X150328666Y-96351366D01*
X150363304Y-96386016D01*
X150394027Y-96416777D01*
X150421071Y-96443894D01*
X150444669Y-96467614D01*
X150465060Y-96488184D01*
X150482476Y-96505849D01*
X150497155Y-96520858D01*
X150509331Y-96533455D01*
X150519241Y-96543889D01*
X150527119Y-96552404D01*
X150533201Y-96559248D01*
X150537723Y-96564667D01*
X150540921Y-96568907D01*
X150543028Y-96572215D01*
X150544282Y-96574839D01*
X150544918Y-96577023D01*
X150545055Y-96577855D01*
X150545418Y-96579587D01*
X150545855Y-96580969D01*
X150546191Y-96582270D01*
X150546250Y-96583757D01*
X150545858Y-96585700D01*
X150544839Y-96588367D01*
X150543019Y-96592027D01*
X150540223Y-96596949D01*
X150536275Y-96603401D01*
X150531000Y-96611652D01*
X150524224Y-96621971D01*
X150515770Y-96634626D01*
X150505465Y-96649886D01*
X150493133Y-96668019D01*
X150478600Y-96689295D01*
X150461689Y-96713982D01*
X150442226Y-96742349D01*
X150420037Y-96774663D01*
X150394945Y-96811195D01*
X150366776Y-96852213D01*
X150357359Y-96865927D01*
X150333187Y-96901141D01*
X150312121Y-96931859D01*
X150293946Y-96958415D01*
X150278449Y-96981144D01*
X150265418Y-97000381D01*
X150254637Y-97016458D01*
X150245895Y-97029710D01*
X150238977Y-97040471D01*
X150233671Y-97049076D01*
X150229762Y-97055858D01*
X150227037Y-97061152D01*
X150225283Y-97065291D01*
X150224286Y-97068611D01*
X150223833Y-97071444D01*
X150223710Y-97074126D01*
X150223706Y-97075145D01*
X150223894Y-97079106D01*
X150224625Y-97083440D01*
X150226146Y-97088674D01*
X150228702Y-97095335D01*
X150232542Y-97103950D01*
X150237912Y-97115045D01*
X150245059Y-97129147D01*
X150254230Y-97146784D01*
X150265673Y-97168482D01*
X150279633Y-97194768D01*
X150280840Y-97197037D01*
X150293127Y-97220236D01*
X150304508Y-97241943D01*
X150314694Y-97261590D01*
X150323394Y-97278607D01*
X150330320Y-97292428D01*
X150335182Y-97302484D01*
X150337691Y-97308205D01*
X150337975Y-97309221D01*
X150336129Y-97314644D01*
X150331660Y-97321153D01*
X150331382Y-97321470D01*
X150328916Y-97323108D01*
X150323228Y-97326029D01*
X150314172Y-97330295D01*
X150301600Y-97335968D01*
X150285367Y-97343111D01*
X150265325Y-97351785D01*
X150241327Y-97362052D01*
X150213228Y-97373975D01*
X150180880Y-97387615D01*
X150144137Y-97403035D01*
X150102852Y-97420296D01*
X150056878Y-97439461D01*
X150006068Y-97460591D01*
X149950277Y-97483749D01*
X149889357Y-97508996D01*
X149823161Y-97536395D01*
X149821730Y-97536987D01*
X149769872Y-97558426D01*
X149719423Y-97579255D01*
X149670652Y-97599364D01*
X149623831Y-97618643D01*
X149579228Y-97636982D01*
X149537114Y-97654269D01*
X149497760Y-97670395D01*
X149461436Y-97685250D01*
X149428411Y-97698722D01*
X149398957Y-97710702D01*
X149373343Y-97721079D01*
X149351839Y-97729742D01*
X149334717Y-97736582D01*
X149322245Y-97741487D01*
X149314694Y-97744348D01*
X149312365Y-97745091D01*
X149304428Y-97743565D01*
X149296518Y-97738597D01*
X149288024Y-97729607D01*
X149278340Y-97716014D01*
X149272953Y-97707462D01*
X149263554Y-97692622D01*
X149252811Y-97676471D01*
X149242439Y-97661559D01*
X149237918Y-97655353D01*
X149227693Y-97641515D01*
X149216150Y-97625731D01*
X149205357Y-97610835D01*
X149202607Y-97607008D01*
X149191588Y-97592917D01*
X149177023Y-97576177D01*
X149159933Y-97557813D01*
X149141340Y-97538846D01*
X149122266Y-97520300D01*
X149103733Y-97503197D01*
X149086763Y-97488560D01*
X149075153Y-97479428D01*
X149022960Y-97444290D01*
X148968664Y-97414535D01*
X148912542Y-97390219D01*
X148854874Y-97371395D01*
X148795938Y-97358119D01*
X148736013Y-97350444D01*
X148675377Y-97348426D01*
X148614308Y-97352119D01*
X148553086Y-97361578D01*
X148516831Y-97369931D01*
X148458852Y-97387930D01*
X148403206Y-97411173D01*
X148350207Y-97439403D01*
X148300171Y-97472363D01*
X148253411Y-97509795D01*
X148210243Y-97551442D01*
X148170981Y-97597047D01*
X148135939Y-97646353D01*
X148105433Y-97699103D01*
X148099237Y-97711397D01*
X148076659Y-97761828D01*
X148059037Y-97811367D01*
X148045937Y-97861429D01*
X148036931Y-97913430D01*
X148036365Y-97917787D01*
X148034249Y-97940151D01*
X148032969Y-97966145D01*
X148032500Y-97994285D01*
X148032818Y-98023087D01*
X148033900Y-98051069D01*
X148035723Y-98076747D01*
X148038261Y-98098637D01*
X148039377Y-98105479D01*
X148052149Y-98163867D01*
X148068809Y-98218414D01*
X148089596Y-98269867D01*
X148098018Y-98287538D01*
X148127970Y-98341462D01*
X148162416Y-98391837D01*
X148201053Y-98438445D01*
X148243574Y-98481065D01*
X148289676Y-98519479D01*
X148339053Y-98553468D01*
X148391400Y-98582812D01*
X148446414Y-98607294D01*
X148503789Y-98626692D01*
X148563221Y-98640790D01*
X148597046Y-98646255D01*
X148616417Y-98648270D01*
X148639509Y-98649720D01*
X148664768Y-98650590D01*
X148690643Y-98650868D01*
X148715581Y-98650538D01*
X148738029Y-98649586D01*
X148756435Y-98648000D01*
X148758715Y-98647711D01*
X148821808Y-98636507D01*
X148882289Y-98620108D01*
X148940056Y-98598563D01*
X148995008Y-98571923D01*
X149047043Y-98540240D01*
X149096061Y-98503564D01*
X149141961Y-98461946D01*
X149154263Y-98449390D01*
X149166445Y-98436258D01*
X149178892Y-98422201D01*
X149190124Y-98408926D01*
X149198487Y-98398373D01*
X149216531Y-98374167D01*
X149231514Y-98353757D01*
X149244003Y-98336336D01*
X149254565Y-98321099D01*
X149263767Y-98307239D01*
X149272176Y-98293950D01*
X149273909Y-98291131D01*
X149283928Y-98275646D01*
X149292354Y-98264935D01*
X149299929Y-98258400D01*
X149307395Y-98255442D01*
X149315496Y-98255460D01*
X149317627Y-98255843D01*
X149321130Y-98257120D01*
X149329773Y-98260530D01*
X149343285Y-98265961D01*
X149361393Y-98273300D01*
X149383824Y-98282436D01*
X149410305Y-98293257D01*
X149440565Y-98305652D01*
X149474331Y-98319507D01*
X149511330Y-98334712D01*
X149551290Y-98351155D01*
X149593938Y-98368723D01*
X149639003Y-98387305D01*
X149686211Y-98406789D01*
X149735289Y-98427063D01*
X149785967Y-98448015D01*
X149825228Y-98464259D01*
X149889907Y-98491041D01*
X149949339Y-98515678D01*
X150003703Y-98538244D01*
X150053174Y-98558816D01*
X150097931Y-98577468D01*
X150138149Y-98594276D01*
X150174007Y-98609313D01*
X150205681Y-98622655D01*
X150233348Y-98634378D01*
X150257186Y-98644556D01*
X150277371Y-98653264D01*
X150294081Y-98660577D01*
X150307492Y-98666570D01*
X150317782Y-98671319D01*
X150325128Y-98674897D01*
X150329707Y-98677381D01*
X150331636Y-98678774D01*
X150336662Y-98687149D01*
X150337211Y-98693185D01*
X150335589Y-98697157D01*
X150331495Y-98705703D01*
X150325227Y-98718237D01*
X150317089Y-98734171D01*
X150307379Y-98752918D01*
X150296400Y-98773891D01*
X150284452Y-98796501D01*
X150279822Y-98805208D01*
X150265771Y-98831644D01*
X150254260Y-98853456D01*
X150245039Y-98871177D01*
X150237860Y-98885338D01*
X150232473Y-98896470D01*
X150228629Y-98905103D01*
X150226080Y-98911771D01*
X150224576Y-98917003D01*
X150223868Y-98921330D01*
X150223706Y-98924906D01*
X150223769Y-98927590D01*
X150224101Y-98930332D01*
X150224916Y-98933468D01*
X150226427Y-98937330D01*
X150228848Y-98942253D01*
X150232391Y-98948569D01*
X150237270Y-98956614D01*
X150243699Y-98966721D01*
X150251891Y-98979223D01*
X150262060Y-98994455D01*
X150274418Y-99012749D01*
X150289180Y-99034441D01*
X150306559Y-99059863D01*
X150326768Y-99089349D01*
X150350020Y-99123233D01*
X150357404Y-99133989D01*
X150378969Y-99165407D01*
X150400155Y-99196281D01*
X150420643Y-99226145D01*
X150440113Y-99254533D01*
X150458245Y-99280979D01*
X150474719Y-99305015D01*
X150489216Y-99326176D01*
X150501416Y-99343994D01*
X150510999Y-99358004D01*
X150517645Y-99367739D01*
X150518553Y-99369071D01*
X150529566Y-99385543D01*
X150537428Y-99398193D01*
X150542501Y-99407887D01*
X150545149Y-99415494D01*
X150545734Y-99421880D01*
X150544619Y-99427912D01*
X150543991Y-99429830D01*
X150541746Y-99432468D01*
X150535631Y-99438967D01*
X150525921Y-99449047D01*
X150512891Y-99462429D01*
X150496817Y-99478833D01*
X150477975Y-99497978D01*
X150456641Y-99519586D01*
X150433089Y-99543377D01*
X150407596Y-99569070D01*
X150380437Y-99596387D01*
X150351888Y-99625047D01*
X150328139Y-99648850D01*
X150292963Y-99684079D01*
X150261684Y-99715389D01*
X150234052Y-99743000D01*
X150209819Y-99767135D01*
X150188736Y-99788015D01*
X150170554Y-99805864D01*
X150155025Y-99820902D01*
X150141900Y-99833351D01*
X150130930Y-99843434D01*
X150121867Y-99851373D01*
X150114460Y-99857389D01*
X150108463Y-99861704D01*
X150103626Y-99864541D01*
X150099700Y-99866120D01*
X150096436Y-99866665D01*
X150093587Y-99866397D01*
X150090902Y-99865539D01*
X150088134Y-99864311D01*
X150087151Y-99863859D01*
X150083753Y-99861762D01*
X150075869Y-99856577D01*
X150063842Y-99848536D01*
X150048014Y-99837871D01*
X150028728Y-99824816D01*
X150006326Y-99809602D01*
X149981150Y-99792463D01*
X149953544Y-99773631D01*
X149923848Y-99753339D01*
X149892407Y-99731820D01*
X149859561Y-99709305D01*
X149846687Y-99700471D01*
X149805249Y-99672080D01*
X149767209Y-99646122D01*
X149732718Y-99622696D01*
X149701930Y-99601905D01*
X149674994Y-99583849D01*
X149652063Y-99568629D01*
X149633289Y-99556347D01*
X149618822Y-99547104D01*
X149608816Y-99541000D01*
X149603420Y-99538136D01*
X149602852Y-99537948D01*
X149591769Y-99537040D01*
X149582040Y-99538303D01*
X149577259Y-99539947D01*
X149567628Y-99543565D01*
X149553646Y-99548955D01*
X149535814Y-99555918D01*
X149514630Y-99564252D01*
X149490596Y-99573757D01*
X149464210Y-99584233D01*
X149435973Y-99595479D01*
X149406383Y-99607294D01*
X149375942Y-99619478D01*
X149345148Y-99631830D01*
X149314501Y-99644150D01*
X149284502Y-99656236D01*
X149255649Y-99667889D01*
X149228442Y-99678908D01*
X149203383Y-99689092D01*
X149180969Y-99698241D01*
X149161700Y-99706153D01*
X149146078Y-99712629D01*
X149134600Y-99717468D01*
X149127768Y-99720469D01*
X149126100Y-99721309D01*
X149120400Y-99726926D01*
X149114817Y-99735299D01*
X149113286Y-99738346D01*
X149111829Y-99743274D01*
X149109398Y-99753689D01*
X149106049Y-99769308D01*
X149101838Y-99789849D01*
X149096818Y-99815030D01*
X149091047Y-99844569D01*
X149084578Y-99878183D01*
X149077468Y-99915590D01*
X149069772Y-99956508D01*
X149061545Y-100000654D01*
X149056025Y-100030476D01*
X149046435Y-100082270D01*
X149037822Y-100128451D01*
X149030154Y-100169178D01*
X149023399Y-100204611D01*
X149017526Y-100234909D01*
X149012504Y-100260231D01*
X149008300Y-100280737D01*
X149004884Y-100296587D01*
X149002223Y-100307939D01*
X149000287Y-100314953D01*
X148999194Y-100317614D01*
X148992939Y-100324316D01*
X148986971Y-100328558D01*
X148984516Y-100329172D01*
X148979491Y-100329718D01*
X148971621Y-100330201D01*
X148960631Y-100330623D01*
X148946246Y-100330987D01*
X148928191Y-100331297D01*
X148906191Y-100331556D01*
X148879972Y-100331767D01*
X148849259Y-100331934D01*
X148813775Y-100332059D01*
X148773248Y-100332147D01*
X148727401Y-100332200D01*
X148677804Y-100332221D01*
X148629142Y-100332226D01*
X148585998Y-100332224D01*
X148548032Y-100332208D01*
X148514899Y-100332170D01*
X148486260Y-100332105D01*
X148461772Y-100332005D01*
X148441094Y-100331865D01*
X148423884Y-100331676D01*
X148409799Y-100331433D01*
X148398499Y-100331129D01*
X148389642Y-100330757D01*
X148382885Y-100330311D01*
X148377888Y-100329784D01*
X148374308Y-100329169D01*
X148371803Y-100328459D01*
X148370033Y-100327649D01*
X148368654Y-100326730D01*
X148367940Y-100326177D01*
X148361677Y-100320387D01*
X148357483Y-100315011D01*
X148357481Y-100315008D01*
X148356578Y-100311475D01*
X148354687Y-100302570D01*
X148351882Y-100288686D01*
X148348239Y-100270216D01*
X148343833Y-100247549D01*
X148338739Y-100221079D01*
X148333033Y-100191196D01*
X148326790Y-100158294D01*
X148320084Y-100122762D01*
X148312992Y-100084994D01*
X148305587Y-100045381D01*
X148300377Y-100017402D01*
X148291445Y-99969405D01*
X148283501Y-99926838D01*
X148276476Y-99889369D01*
X148270304Y-99856664D01*
X148264915Y-99828389D01*
X148260243Y-99804212D01*
X148256219Y-99783799D01*
X148252774Y-99766816D01*
X148249842Y-99752932D01*
X148247354Y-99741811D01*
X148245242Y-99733121D01*
X148243439Y-99726528D01*
X148241875Y-99721699D01*
X148240484Y-99718301D01*
X148239197Y-99716001D01*
X148238801Y-99715449D01*
X148236945Y-99713486D01*
X148233968Y-99711192D01*
X148229522Y-99708408D01*
X148223259Y-99704974D01*
X148214833Y-99700734D01*
X148203895Y-99695526D01*
X148190098Y-99689193D01*
X148173094Y-99681576D01*
X148152536Y-99672516D01*
X148128076Y-99661853D01*
X148099366Y-99649430D01*
X148066059Y-99635086D01*
X148027807Y-99618664D01*
X148015378Y-99613335D01*
X147975015Y-99596085D01*
X147937961Y-99580350D01*
X147904455Y-99566229D01*
X147874741Y-99553823D01*
X147849058Y-99543230D01*
X147827649Y-99534549D01*
X147810754Y-99527879D01*
X147798615Y-99523320D01*
X147791473Y-99520971D01*
X147789815Y-99520655D01*
X147780778Y-99521495D01*
X147773700Y-99523254D01*
X147770374Y-99525248D01*
X147762557Y-99530336D01*
X147750586Y-99538291D01*
X147734796Y-99548885D01*
X147715524Y-99561890D01*
X147693105Y-99577078D01*
X147667877Y-99594221D01*
X147640175Y-99613090D01*
X147610334Y-99633459D01*
X147578693Y-99655099D01*
X147545586Y-99677782D01*
X147526659Y-99690768D01*
X147492801Y-99714000D01*
X147460172Y-99736371D01*
X147429113Y-99757648D01*
X147399967Y-99777598D01*
X147373075Y-99795988D01*
X147348778Y-99812584D01*
X147327418Y-99827153D01*
X147309337Y-99839461D01*
X147294877Y-99849276D01*
X147284379Y-99856363D01*
X147278185Y-99860491D01*
X147276753Y-99861405D01*
X147273506Y-99863415D01*
X147270577Y-99865163D01*
X147267719Y-99866432D01*
X147264679Y-99867008D01*
X147261209Y-99866674D01*
X147257058Y-99865214D01*
X147251976Y-99862413D01*
X147245714Y-99858053D01*
X147238022Y-99851920D01*
X147228649Y-99843797D01*
X147217345Y-99833468D01*
X147203861Y-99820717D01*
X147187947Y-99805329D01*
X147169353Y-99787087D01*
X147147828Y-99765776D01*
X147123123Y-99741179D01*
X147094988Y-99713080D01*
X147063173Y-99681264D01*
X147030842Y-99648929D01*
X146995618Y-99613707D01*
X146964311Y-99582385D01*
X146936700Y-99554713D01*
X146912563Y-99530443D01*
X146891678Y-99509326D01*
X146873824Y-99491114D01*
X146858779Y-99475557D01*
X146846322Y-99462407D01*
X146836230Y-99451415D01*
X146828282Y-99442332D01*
X146822257Y-99434909D01*
X146817932Y-99428898D01*
X146815086Y-99424050D01*
X146813498Y-99420117D01*
X146812946Y-99416848D01*
X146813207Y-99413996D01*
X146814061Y-99411313D01*
X146815285Y-99408548D01*
X146815748Y-99407541D01*
X146817832Y-99404172D01*
X146823011Y-99396306D01*
X146831061Y-99384274D01*
X146841756Y-99368408D01*
X146854871Y-99349039D01*
X146870181Y-99326499D01*
X146887461Y-99301118D01*
X146906485Y-99273229D01*
X146927029Y-99243162D01*
X146948866Y-99211248D01*
X146971772Y-99177819D01*
X146989259Y-99152329D01*
X147012799Y-99118001D01*
X147035427Y-99084947D01*
X147056917Y-99053497D01*
X147077046Y-99023983D01*
X147095588Y-98996734D01*
X147112320Y-98972082D01*
X147127018Y-98950357D01*
X147139456Y-98931891D01*
X147149411Y-98917014D01*
X147156659Y-98906058D01*
X147160975Y-98899352D01*
X147162149Y-98897319D01*
X147164035Y-98889356D01*
X147164806Y-98880235D01*
X147163716Y-98876077D01*
X147160585Y-98867026D01*
X147155624Y-98853599D01*
X147149041Y-98836316D01*
X147141047Y-98815693D01*
X147131850Y-98792248D01*
X147121661Y-98766499D01*
X147110689Y-98738964D01*
X147099144Y-98710161D01*
X147087236Y-98680608D01*
X147075173Y-98650821D01*
X147063166Y-98621320D01*
X147051424Y-98592622D01*
X147040157Y-98565245D01*
X147029575Y-98539706D01*
X147019886Y-98516523D01*
X147011301Y-98496215D01*
X147004030Y-98479299D01*
X146998281Y-98466292D01*
X146994265Y-98457713D01*
X146992398Y-98454328D01*
X146985847Y-98446991D01*
X146980036Y-98441962D01*
X146976864Y-98440688D01*
X146969875Y-98438779D01*
X146958885Y-98436200D01*
X146943710Y-98432913D01*
X146924167Y-98428882D01*
X146900071Y-98424070D01*
X146871239Y-98418442D01*
X146837487Y-98411961D01*
X146798630Y-98404590D01*
X146754486Y-98396293D01*
X146704870Y-98387033D01*
X146671104Y-98380760D01*
X146617328Y-98370758D01*
X146569167Y-98361744D01*
X146526464Y-98353685D01*
X146489064Y-98346552D01*
X146456809Y-98340312D01*
X146429545Y-98334936D01*
X146407113Y-98330392D01*
X146389359Y-98326650D01*
X146376127Y-98323679D01*
X146367259Y-98321447D01*
X146362600Y-98319923D01*
X146361991Y-98319594D01*
X146355291Y-98313336D01*
X146351047Y-98307365D01*
X146350433Y-98304910D01*
X146349887Y-98299885D01*
X146349405Y-98292014D01*
X146348983Y-98281024D01*
X146348619Y-98266639D01*
X146348309Y-98248585D01*
X146348050Y-98226585D01*
X146347839Y-98200366D01*
X146347672Y-98169652D01*
X146347546Y-98134169D01*
X146347459Y-98093641D01*
X146347406Y-98047794D01*
X146347385Y-97998197D01*
X146347379Y-97949536D01*
X146347381Y-97906392D01*
X146347397Y-97868425D01*
X146347435Y-97835293D01*
X146347500Y-97806654D01*
X146347600Y-97782166D01*
X146347741Y-97761488D01*
X146347929Y-97744277D01*
X146348172Y-97730193D01*
X146348477Y-97718893D01*
X146348848Y-97710035D01*
X146349295Y-97703279D01*
X146349822Y-97698281D01*
X146350437Y-97694701D01*
X146351146Y-97692197D01*
X146351957Y-97690426D01*
X146352875Y-97689048D01*
X146353429Y-97688333D01*
X146359152Y-97682112D01*
X146364397Y-97677982D01*
X146364419Y-97677971D01*
X146367917Y-97677085D01*
X146376793Y-97675208D01*
X146390661Y-97672414D01*
X146409136Y-97668775D01*
X146431832Y-97664366D01*
X146458365Y-97659260D01*
X146488351Y-97653532D01*
X146521402Y-97647256D01*
X146557135Y-97640505D01*
X146595165Y-97633352D01*
X146635106Y-97625873D01*
X146671107Y-97619158D01*
X146719886Y-97610067D01*
X146763230Y-97601968D01*
X146801466Y-97594793D01*
X146834923Y-97588476D01*
X146863928Y-97582949D01*
X146888810Y-97578147D01*
X146909896Y-97574001D01*
X146927515Y-97570446D01*
X146941994Y-97567415D01*
X146953662Y-97564840D01*
X146962847Y-97562655D01*
X146969876Y-97560793D01*
X146975079Y-97559187D01*
X146978782Y-97557771D01*
X146981314Y-97556478D01*
X146982375Y-97555757D01*
X146989260Y-97549733D01*
X146994206Y-97544024D01*
X146994792Y-97543063D01*
X146996351Y-97539523D01*
X146999947Y-97530991D01*
X147005399Y-97517901D01*
X147012531Y-97500687D01*
X147021162Y-97479782D01*
X147031114Y-97455621D01*
X147042208Y-97428635D01*
X147054265Y-97399260D01*
X147067107Y-97367929D01*
X147080555Y-97335076D01*
X147081266Y-97333337D01*
X147097395Y-97293773D01*
X147112036Y-97257595D01*
X147125092Y-97225049D01*
X147136467Y-97196381D01*
X147146065Y-97171838D01*
X147153791Y-97151665D01*
X147159547Y-97136109D01*
X147163238Y-97125416D01*
X147164768Y-97119831D01*
X147164806Y-97119380D01*
X147163990Y-97110221D01*
X147162172Y-97102740D01*
X147160176Y-97099402D01*
X147155083Y-97091570D01*
X147147119Y-97079578D01*
X147136510Y-97063758D01*
X147123482Y-97044445D01*
X147108262Y-97021972D01*
X147091074Y-96996671D01*
X147072146Y-96968877D01*
X147051703Y-96938922D01*
X147029970Y-96907140D01*
X147007175Y-96873863D01*
X146991731Y-96851352D01*
X146968295Y-96817198D01*
X146945720Y-96784271D01*
X146924236Y-96752911D01*
X146904075Y-96723457D01*
X146885467Y-96696245D01*
X146868644Y-96671616D01*
X146853837Y-96649907D01*
X146841276Y-96631457D01*
X146831194Y-96616604D01*
X146823822Y-96605687D01*
X146819389Y-96599045D01*
X146818203Y-96597195D01*
X146816195Y-96593937D01*
X146814448Y-96591001D01*
X146813179Y-96588136D01*
X146812601Y-96585092D01*
X146812933Y-96581619D01*
X146814390Y-96577467D01*
X146817187Y-96572386D01*
X146821541Y-96566127D01*
X146827668Y-96558438D01*
X146835784Y-96549071D01*
X146846104Y-96537775D01*
X146858845Y-96524299D01*
X146874223Y-96508395D01*
X146892453Y-96489811D01*
X146913752Y-96468298D01*
X146938336Y-96443607D01*
X146966421Y-96415486D01*
X146998222Y-96383686D01*
X147030677Y-96351236D01*
X147065898Y-96316012D01*
X147097220Y-96284707D01*
X147124892Y-96257097D01*
X147149162Y-96232961D01*
X147170278Y-96212078D01*
X147188490Y-96194225D01*
X147204044Y-96179180D01*
X147217191Y-96166722D01*
X147228179Y-96156630D01*
X147237255Y-96148680D01*
X147244669Y-96142651D01*
X147250669Y-96138321D01*
X147255504Y-96135469D01*
X147259422Y-96133873D01*
X147262672Y-96133310D01*
X147265501Y-96133560D01*
X147268160Y-96134399D01*
X147270895Y-96135606D01*
X147271773Y-96136009D01*
X147275109Y-96138077D01*
X147282940Y-96143238D01*
X147294932Y-96151266D01*
X147310752Y-96161933D01*
X147330066Y-96175014D01*
X147352540Y-96190280D01*
X147377840Y-96207506D01*
X147405634Y-96226464D01*
X147435587Y-96246928D01*
X147467365Y-96268671D01*
X147500635Y-96291465D01*
X147522795Y-96306664D01*
X147556846Y-96330009D01*
X147589620Y-96352439D01*
X147620782Y-96373727D01*
X147650000Y-96393649D01*
X147676940Y-96411977D01*
X147701268Y-96428485D01*
X147722653Y-96442949D01*
X147740759Y-96455141D01*
X147755254Y-96464837D01*
X147765804Y-96471809D01*
X147772076Y-96475831D01*
X147773700Y-96476757D01*
X147781560Y-96478609D01*
X147790316Y-96479340D01*
X147795121Y-96478152D01*
X147805183Y-96474614D01*
X147820405Y-96468766D01*
X147840692Y-96460647D01*
X147865949Y-96450294D01*
X147896081Y-96437748D01*
X147930993Y-96423048D01*
X147970590Y-96406231D01*
X148011494Y-96388745D01*
X148044933Y-96374391D01*
X148076926Y-96360617D01*
X148107046Y-96347610D01*
X148134868Y-96335556D01*
X148159965Y-96324640D01*
X148181910Y-96315049D01*
X148200278Y-96306969D01*
X148214641Y-96300585D01*
X148224575Y-96296083D01*
X148229653Y-96293649D01*
X148230114Y-96293385D01*
X148235863Y-96287738D01*
X148241484Y-96279347D01*
X148243021Y-96276303D01*
X148244485Y-96271369D01*
X148246928Y-96260928D01*
X148250297Y-96245245D01*
X148254543Y-96224580D01*
X148259612Y-96199198D01*
X148265454Y-96169360D01*
X148272016Y-96135330D01*
X148279248Y-96097370D01*
X148287097Y-96055743D01*
X148295512Y-96010711D01*
X148301792Y-95976873D01*
X148309262Y-95936606D01*
X148316471Y-95897920D01*
X148323344Y-95861212D01*
X148329806Y-95826877D01*
X148335781Y-95795310D01*
X148341193Y-95766906D01*
X148345968Y-95742062D01*
X148350029Y-95721171D01*
X148353301Y-95704630D01*
X148355709Y-95692835D01*
X148357176Y-95686180D01*
X148357565Y-95684834D01*
X148361687Y-95679582D01*
X148367909Y-95673846D01*
X148367940Y-95673822D01*
X148369244Y-95672845D01*
X148370752Y-95671978D01*
X148372805Y-95671216D01*
X148375743Y-95670550D01*
X148379907Y-95669975D01*
X148385637Y-95669485D01*
X148393275Y-95669072D01*
X148403159Y-95668729D01*
X148415632Y-95668451D01*
X148431033Y-95668230D01*
X148449704Y-95668060D01*
X148471984Y-95667934D01*
X148498215Y-95667846D01*
X148528737Y-95667789D01*
X148563890Y-95667756D01*
X148604015Y-95667740D01*
X148649452Y-95667735D01*
X148679776Y-95667735D01*
X148983874Y-95667735D01*
X148992732Y-95675189D01*
G37*
D11*
%TO.C,C5*%
X138069190Y-107621693D02*
X138221693Y-107469190D01*
X138578307Y-108130810D02*
X138730810Y-107978307D01*
%TO.C,J1*%
X170150000Y-107580000D02*
X172070000Y-107580000D01*
X172070000Y-98420000D02*
X170150000Y-98420000D01*
X174080000Y-98420000D02*
X174750000Y-98420000D01*
X174750000Y-107580000D02*
X174080000Y-107580000D01*
%TO.C,R3*%
X128737258Y-95727500D02*
X128262742Y-95727500D01*
X128737258Y-96772500D02*
X128262742Y-96772500D01*
%TO.C,SW1*%
X117250000Y-108550000D02*
X117250000Y-105950000D01*
X117700000Y-105500000D02*
X117250000Y-105950000D01*
X117700000Y-109000000D02*
X117250000Y-108550000D01*
X119000000Y-104500000D02*
X121000000Y-104500000D01*
X119000000Y-110000000D02*
X121000000Y-110000000D01*
X122300000Y-105500000D02*
X122750000Y-105950000D01*
X122300000Y-109000000D02*
X122750000Y-108550000D01*
X122750000Y-108550000D02*
X122750000Y-105950000D01*
%TO.C,C2*%
X135571693Y-104330810D02*
X135419190Y-104178307D01*
X136080810Y-103821693D02*
X135928307Y-103669190D01*
%TO.C,SW2*%
X117250000Y-97450000D02*
X117250000Y-100050000D01*
X117700000Y-97000000D02*
X117250000Y-97450000D01*
X117700000Y-100500000D02*
X117250000Y-100050000D01*
X121000000Y-96000000D02*
X119000000Y-96000000D01*
X121000000Y-101500000D02*
X119000000Y-101500000D01*
X122300000Y-97000000D02*
X122750000Y-97450000D01*
X122300000Y-100500000D02*
X122750000Y-100050000D01*
X122750000Y-97450000D02*
X122750000Y-100050000D01*
%TO.C,C3*%
X148661104Y-104579779D02*
X148508601Y-104732282D01*
X149170221Y-105088896D02*
X149017718Y-105241399D01*
%TO.C,Y1*%
X131635000Y-106500000D02*
X131635000Y-110500000D01*
X134935000Y-106500000D02*
X131635000Y-106500000D01*
%TO.C,C9*%
X135225000Y-107507836D02*
X135225000Y-107292164D01*
X135945000Y-107507836D02*
X135945000Y-107292164D01*
%TO.C,C7*%
X124890580Y-103990000D02*
X124609420Y-103990000D01*
X124890580Y-105010000D02*
X124609420Y-105010000D01*
%TO.C,C10*%
X135225000Y-109492164D02*
X135225000Y-109707836D01*
X135945000Y-109492164D02*
X135945000Y-109707836D01*
%TO.C,C11*%
X123640000Y-109607836D02*
X123640000Y-109392164D01*
X124360000Y-109607836D02*
X124360000Y-109392164D01*
%TO.C,C8*%
X124915580Y-105990000D02*
X124634420Y-105990000D01*
X124915580Y-107010000D02*
X124634420Y-107010000D01*
%TO.C,D1*%
X124000000Y-97210000D02*
X126685000Y-97210000D01*
X126685000Y-95290000D02*
X124000000Y-95290000D01*
X126685000Y-97210000D02*
X126685000Y-95290000D01*
%TO.C,C12*%
X164015000Y-108488748D02*
X164015000Y-109011252D01*
X165485000Y-108488748D02*
X165485000Y-109011252D01*
%TO.C,R2*%
X165237258Y-105227500D02*
X164762742Y-105227500D01*
X165237258Y-106272500D02*
X164762742Y-106272500D01*
%TO.C,FB1*%
X126715000Y-105100378D02*
X126715000Y-105899622D01*
X127835000Y-105100378D02*
X127835000Y-105899622D01*
%TO.C,R1*%
X165237258Y-97227500D02*
X164762742Y-97227500D01*
X165237258Y-98272500D02*
X164762742Y-98272500D01*
%TO.C,R4*%
X128262742Y-97727500D02*
X128737258Y-97727500D01*
X128262742Y-98772500D02*
X128737258Y-98772500D01*
%TO.C,C1*%
X135821693Y-100919190D02*
X135669190Y-101071693D01*
X136330810Y-101428307D02*
X136178307Y-101580810D01*
%TO.C,R5*%
X128743508Y-99477500D02*
X128268992Y-99477500D01*
X128743508Y-100522500D02*
X128268992Y-100522500D01*
%TO.C,R7*%
X156062258Y-100227500D02*
X155587742Y-100227500D01*
X156062258Y-101272500D02*
X155587742Y-101272500D01*
%TO.C,U2*%
X156090000Y-104090000D02*
X157350000Y-104090000D01*
X156090000Y-107850000D02*
X156090000Y-104090000D01*
X162910000Y-104090000D02*
X161650000Y-104090000D01*
X162910000Y-107850000D02*
X162910000Y-104090000D01*
X156190000Y-109130000D02*
X155860000Y-109370000D01*
X155860000Y-108890000D01*
X156190000Y-109130000D01*
G36*
X156190000Y-109130000D02*
G01*
X155860000Y-109370000D01*
X155860000Y-108890000D01*
X156190000Y-109130000D01*
G37*
%TO.C,R6*%
X128262742Y-101227500D02*
X128737258Y-101227500D01*
X128262742Y-102272500D02*
X128737258Y-102272500D01*
%TO.C,U3*%
X163440000Y-101500000D02*
X163440000Y-100700000D01*
X163440000Y-101500000D02*
X163440000Y-102300000D01*
X166560000Y-101500000D02*
X166560000Y-100700000D01*
X166560000Y-101500000D02*
X166560000Y-102300000D01*
X163490000Y-102800000D02*
X163160000Y-103040000D01*
X163160000Y-102560000D01*
X163490000Y-102800000D01*
G36*
X163490000Y-102800000D02*
G01*
X163160000Y-103040000D01*
X163160000Y-102560000D01*
X163490000Y-102800000D01*
G37*
D12*
%TO.C,G\u002A\u002A\u002A*%
G36*
X152515512Y-106635572D02*
G01*
X152515512Y-106695995D01*
X152226045Y-106695995D01*
X151936579Y-106695995D01*
X151936579Y-106635572D01*
X151936579Y-106575150D01*
X152226045Y-106575150D01*
X152515512Y-106575150D01*
X152515512Y-106635572D01*
G37*
G36*
X152515512Y-110061485D02*
G01*
X152515429Y-110082731D01*
X152515161Y-110098893D01*
X152514676Y-110110505D01*
X152513944Y-110118102D01*
X152512936Y-110122218D01*
X152511999Y-110123334D01*
X152508756Y-110123513D01*
X152500272Y-110123671D01*
X152486927Y-110123807D01*
X152469100Y-110123920D01*
X152447170Y-110124010D01*
X152421518Y-110124076D01*
X152392523Y-110124116D01*
X152360565Y-110124131D01*
X152326022Y-110124119D01*
X152289276Y-110124080D01*
X152250705Y-110124012D01*
X152223235Y-110123949D01*
X151937984Y-110123225D01*
X151937227Y-110062099D01*
X151936469Y-110000974D01*
X152225991Y-110000974D01*
X152515512Y-110000974D01*
X152515512Y-110061485D01*
G37*
G36*
X151936754Y-106762509D02*
G01*
X151940726Y-106762909D01*
X151949342Y-106763738D01*
X151961648Y-106764905D01*
X151976690Y-106766320D01*
X151993515Y-106767892D01*
X151993524Y-106767893D01*
X152046253Y-106772805D01*
X152044110Y-106787094D01*
X152043229Y-106796036D01*
X152042579Y-106808647D01*
X152042239Y-106822974D01*
X152042224Y-106832297D01*
X152042605Y-106847985D01*
X152043649Y-106860130D01*
X152045662Y-106870800D01*
X152048949Y-106882062D01*
X152050066Y-106885389D01*
X152062220Y-106912949D01*
X152078478Y-106936687D01*
X152098749Y-106956518D01*
X152122938Y-106972357D01*
X152150952Y-106984118D01*
X152161655Y-106987258D01*
X152166042Y-106988270D01*
X152171267Y-106989141D01*
X152177789Y-106989885D01*
X152186066Y-106990518D01*
X152196557Y-106991053D01*
X152209720Y-106991506D01*
X152226015Y-106991891D01*
X152245900Y-106992222D01*
X152269833Y-106992514D01*
X152298273Y-106992781D01*
X152331680Y-106993038D01*
X152347593Y-106993148D01*
X152515512Y-106994285D01*
X152515512Y-107054512D01*
X152515512Y-107114738D01*
X152226045Y-107114738D01*
X151936579Y-107114738D01*
X151936579Y-107066962D01*
X151936665Y-107051284D01*
X151936905Y-107037767D01*
X151937269Y-107027324D01*
X151937726Y-107020868D01*
X151938134Y-107019186D01*
X151941617Y-107018754D01*
X151949505Y-107017582D01*
X151960659Y-107015853D01*
X151973943Y-107013749D01*
X151988216Y-107011456D01*
X152002341Y-107009156D01*
X152015179Y-107007034D01*
X152025590Y-107005272D01*
X152032438Y-107004054D01*
X152034239Y-107003691D01*
X152039150Y-107001776D01*
X152040537Y-107000163D01*
X152038325Y-106997767D01*
X152032506Y-106993336D01*
X152024269Y-106987765D01*
X152022973Y-106986933D01*
X152005159Y-106973807D01*
X151987212Y-106957440D01*
X151970533Y-106939320D01*
X151956521Y-106920936D01*
X151948641Y-106907937D01*
X151940148Y-106890541D01*
X151934230Y-106874855D01*
X151930493Y-106859133D01*
X151928540Y-106841634D01*
X151927977Y-106820612D01*
X151927989Y-106816840D01*
X151928402Y-106796259D01*
X151929390Y-106780904D01*
X151931011Y-106770404D01*
X151933326Y-106764388D01*
X151936394Y-106762487D01*
X151936754Y-106762509D01*
G37*
G36*
X151304249Y-106882962D02*
G01*
X151304249Y-107075550D01*
X151323218Y-107073687D01*
X151356492Y-107068220D01*
X151386082Y-107058787D01*
X151411840Y-107045505D01*
X151433617Y-107028495D01*
X151451264Y-107007873D01*
X151464633Y-106983760D01*
X151473575Y-106956273D01*
X151474263Y-106953143D01*
X151478113Y-106924615D01*
X151478630Y-106892689D01*
X151475951Y-106858391D01*
X151470209Y-106822746D01*
X151461539Y-106786782D01*
X151450077Y-106751522D01*
X151446535Y-106742291D01*
X151437080Y-106718478D01*
X151486897Y-106718478D01*
X151536714Y-106718478D01*
X151545377Y-106740401D01*
X151555668Y-106769117D01*
X151563415Y-106797257D01*
X151568843Y-106826157D01*
X151572175Y-106857154D01*
X151573635Y-106891583D01*
X151573738Y-106909582D01*
X151573456Y-106927394D01*
X151572808Y-106944869D01*
X151571874Y-106960554D01*
X151570734Y-106972998D01*
X151569936Y-106978577D01*
X151560307Y-107017916D01*
X151546370Y-107053800D01*
X151528193Y-107086122D01*
X151505843Y-107114775D01*
X151479387Y-107139649D01*
X151461296Y-107152899D01*
X151435222Y-107168207D01*
X151407711Y-107180216D01*
X151378066Y-107189083D01*
X151345591Y-107194967D01*
X151309591Y-107198025D01*
X151269370Y-107198416D01*
X151261549Y-107198213D01*
X151229943Y-107196624D01*
X151217128Y-107195293D01*
X151202591Y-107193783D01*
X151178209Y-107189411D01*
X151155514Y-107183227D01*
X151133224Y-107174952D01*
X151113144Y-107165824D01*
X151081215Y-107147255D01*
X151053107Y-107124664D01*
X151029036Y-107098342D01*
X151009219Y-107068578D01*
X150993873Y-107035665D01*
X150983213Y-106999891D01*
X150980896Y-106988272D01*
X150978810Y-106970750D01*
X150977871Y-106949598D01*
X150977929Y-106941553D01*
X151069054Y-106941553D01*
X151072526Y-106967186D01*
X151080263Y-106991483D01*
X151092065Y-107013265D01*
X151097685Y-107020772D01*
X151111269Y-107033956D01*
X151128994Y-107046097D01*
X151149389Y-107056431D01*
X151170983Y-107064194D01*
X151189024Y-107068177D01*
X151198753Y-107069708D01*
X151207482Y-107071197D01*
X151209399Y-107071551D01*
X151217128Y-107073029D01*
X151217128Y-106940443D01*
X151217128Y-106807857D01*
X151199563Y-106809730D01*
X151167816Y-106815097D01*
X151140412Y-106823954D01*
X151117378Y-106836284D01*
X151098739Y-106852071D01*
X151084522Y-106871296D01*
X151075704Y-106891000D01*
X151070047Y-106915764D01*
X151069054Y-106941553D01*
X150977929Y-106941553D01*
X150978036Y-106926679D01*
X150979260Y-106903856D01*
X150981501Y-106882992D01*
X150983641Y-106870596D01*
X150993570Y-106836495D01*
X151008258Y-106805218D01*
X151027446Y-106777063D01*
X151050872Y-106752328D01*
X151078275Y-106731312D01*
X151109393Y-106714311D01*
X151126735Y-106707238D01*
X151144659Y-106701327D01*
X151162546Y-106696867D01*
X151181563Y-106693701D01*
X151202876Y-106691671D01*
X151227649Y-106690618D01*
X151251220Y-106690374D01*
X151304249Y-106690374D01*
X151304249Y-106882962D01*
G37*
G36*
X152254149Y-106157804D02*
G01*
X152254149Y-106350976D01*
X152273119Y-106349068D01*
X152306854Y-106343619D01*
X152336400Y-106334457D01*
X152361822Y-106321540D01*
X152383186Y-106304831D01*
X152400557Y-106284289D01*
X152411960Y-106264359D01*
X152420834Y-106239912D01*
X152426327Y-106211727D01*
X152428484Y-106180522D01*
X152427353Y-106147015D01*
X152422978Y-106111923D01*
X152415407Y-106075964D01*
X152404684Y-106039856D01*
X152396077Y-106016719D01*
X152386676Y-105993406D01*
X152436671Y-105993406D01*
X152486666Y-105993406D01*
X152496615Y-106019402D01*
X152501611Y-106033071D01*
X152506371Y-106047153D01*
X152510110Y-106059291D01*
X152511108Y-106062936D01*
X152516339Y-106087357D01*
X152520494Y-106115270D01*
X152523442Y-106144919D01*
X152525048Y-106174548D01*
X152525178Y-106202401D01*
X152523699Y-106226721D01*
X152523626Y-106227392D01*
X152516656Y-106269092D01*
X152505308Y-106307308D01*
X152489708Y-106341920D01*
X152469983Y-106372808D01*
X152446256Y-106399853D01*
X152418654Y-106422934D01*
X152387302Y-106441933D01*
X152352325Y-106456730D01*
X152313849Y-106467204D01*
X152271998Y-106473236D01*
X152265559Y-106473742D01*
X152224650Y-106474966D01*
X152184507Y-106472962D01*
X152167084Y-106470642D01*
X152146235Y-106467865D01*
X152110938Y-106459811D01*
X152086766Y-106451789D01*
X152056947Y-106438076D01*
X152028848Y-106420896D01*
X152003690Y-106401115D01*
X151982696Y-106379597D01*
X151979954Y-106376238D01*
X151970287Y-106362310D01*
X151960187Y-106344770D01*
X151950558Y-106325463D01*
X151942299Y-106306237D01*
X151936313Y-106288940D01*
X151935065Y-106284278D01*
X151930116Y-106256574D01*
X151927716Y-106225853D01*
X151927755Y-106217317D01*
X152018895Y-106217317D01*
X152019427Y-106224634D01*
X152024475Y-106251912D01*
X152034075Y-106275912D01*
X152048191Y-106296601D01*
X152066785Y-106313945D01*
X152089820Y-106327909D01*
X152117258Y-106338461D01*
X152149062Y-106345566D01*
X152153707Y-106346262D01*
X152167084Y-106348157D01*
X152166353Y-106216450D01*
X152165623Y-106084743D01*
X152150166Y-106085659D01*
X152120298Y-106089669D01*
X152093756Y-106097788D01*
X152070799Y-106109740D01*
X152051687Y-106125248D01*
X152036681Y-106144037D01*
X152026040Y-106165828D01*
X152020025Y-106190348D01*
X152018895Y-106217317D01*
X151927755Y-106217317D01*
X151927862Y-106194103D01*
X151930550Y-106163316D01*
X151935312Y-106137358D01*
X151944078Y-106110517D01*
X151956973Y-106083815D01*
X151973134Y-106058588D01*
X151991695Y-106036175D01*
X152011790Y-106017912D01*
X152013331Y-106016750D01*
X152031945Y-106004640D01*
X152054080Y-105992984D01*
X152077659Y-105982755D01*
X152100606Y-105974927D01*
X152105200Y-105973667D01*
X152114296Y-105971497D01*
X152123516Y-105969821D01*
X152133873Y-105968549D01*
X152146385Y-105967592D01*
X152162066Y-105966859D01*
X152181931Y-105966261D01*
X152191619Y-105966032D01*
X152254149Y-105964632D01*
X152254149Y-106157804D01*
G37*
G36*
X152515512Y-109422041D02*
G01*
X152515512Y-109483868D01*
X152322047Y-109483868D01*
X152284227Y-109483875D01*
X152251589Y-109483901D01*
X152223697Y-109483959D01*
X152200112Y-109484059D01*
X152180397Y-109484214D01*
X152164113Y-109484435D01*
X152150825Y-109484732D01*
X152140092Y-109485119D01*
X152131479Y-109485605D01*
X152124546Y-109486203D01*
X152118857Y-109486923D01*
X152113973Y-109487778D01*
X152109458Y-109488779D01*
X152106594Y-109489492D01*
X152085699Y-109496159D01*
X152069091Y-109504622D01*
X152055547Y-109515569D01*
X152050657Y-109520863D01*
X152039804Y-109537575D01*
X152032282Y-109557695D01*
X152028020Y-109580157D01*
X152026944Y-109603897D01*
X152028980Y-109627849D01*
X152034057Y-109650949D01*
X152042101Y-109672131D01*
X152053039Y-109690332D01*
X152063018Y-109701312D01*
X152076737Y-109711553D01*
X152094085Y-109721259D01*
X152113091Y-109729394D01*
X152122062Y-109732387D01*
X152131077Y-109734963D01*
X152140044Y-109737173D01*
X152149457Y-109739046D01*
X152159813Y-109740607D01*
X152171608Y-109741885D01*
X152185337Y-109742907D01*
X152201497Y-109743701D01*
X152220584Y-109744294D01*
X152243093Y-109744713D01*
X152269521Y-109744987D01*
X152300363Y-109745143D01*
X152336115Y-109745208D01*
X152353214Y-109745215D01*
X152515512Y-109745232D01*
X152515512Y-109805742D01*
X152515429Y-109826989D01*
X152515161Y-109843151D01*
X152514676Y-109854763D01*
X152513944Y-109862360D01*
X152512936Y-109866475D01*
X152511999Y-109867592D01*
X152508756Y-109867771D01*
X152500272Y-109867928D01*
X152486927Y-109868064D01*
X152469100Y-109868178D01*
X152447170Y-109868268D01*
X152421518Y-109868333D01*
X152392523Y-109868374D01*
X152360565Y-109868389D01*
X152326022Y-109868377D01*
X152289276Y-109868337D01*
X152250705Y-109868270D01*
X152223235Y-109868206D01*
X151937984Y-109867482D01*
X151937984Y-109819852D01*
X151937984Y-109772221D01*
X151976626Y-109763951D01*
X151993249Y-109760149D01*
X152005498Y-109756819D01*
X152012967Y-109754084D01*
X152015269Y-109752199D01*
X152013169Y-109748868D01*
X152007661Y-109743460D01*
X151999928Y-109737135D01*
X151999795Y-109737035D01*
X151978924Y-109717832D01*
X151961295Y-109694455D01*
X151947111Y-109667457D01*
X151936571Y-109637390D01*
X151929874Y-109604805D01*
X151927222Y-109570255D01*
X151928297Y-109539736D01*
X151932547Y-109507696D01*
X151939619Y-109479880D01*
X151949860Y-109455467D01*
X151963614Y-109433635D01*
X151981224Y-109413563D01*
X151981254Y-109413533D01*
X151998747Y-109398025D01*
X152016939Y-109385849D01*
X152036935Y-109376525D01*
X152059840Y-109369570D01*
X152086757Y-109364503D01*
X152096695Y-109363164D01*
X152104472Y-109362569D01*
X152117544Y-109362031D01*
X152135585Y-109361553D01*
X152158270Y-109361141D01*
X152185273Y-109360799D01*
X152216269Y-109360531D01*
X152250932Y-109360342D01*
X152288935Y-109360236D01*
X152318011Y-109360213D01*
X152515512Y-109360213D01*
X152515512Y-109422041D01*
G37*
G36*
X152515512Y-108154570D02*
G01*
X152515458Y-108170248D01*
X152515307Y-108183765D01*
X152515078Y-108194208D01*
X152514790Y-108200664D01*
X152514533Y-108202346D01*
X152511619Y-108202906D01*
X152504473Y-108204404D01*
X152494348Y-108206569D01*
X152482500Y-108209128D01*
X152470184Y-108211809D01*
X152458656Y-108214340D01*
X152449171Y-108216448D01*
X152443145Y-108217824D01*
X152437826Y-108220613D01*
X152437673Y-108224821D01*
X152442619Y-108229818D01*
X152444551Y-108231060D01*
X152453253Y-108237610D01*
X152463738Y-108247485D01*
X152474726Y-108259296D01*
X152484939Y-108271653D01*
X152493096Y-108283169D01*
X152494156Y-108284893D01*
X152505368Y-108307637D01*
X152514530Y-108334670D01*
X152521298Y-108364927D01*
X152522501Y-108372373D01*
X152524694Y-108388003D01*
X152525889Y-108400318D01*
X152526121Y-108411478D01*
X152525427Y-108423643D01*
X152523839Y-108438972D01*
X152523618Y-108440889D01*
X152517538Y-108475859D01*
X152507826Y-108506602D01*
X152494345Y-108533289D01*
X152476959Y-108556094D01*
X152455533Y-108575189D01*
X152429929Y-108590746D01*
X152400013Y-108602939D01*
X152394621Y-108604650D01*
X152390691Y-108605831D01*
X152386896Y-108606860D01*
X152382832Y-108607749D01*
X152378095Y-108608509D01*
X152372283Y-108609153D01*
X152364991Y-108609693D01*
X152355816Y-108610143D01*
X152344355Y-108610513D01*
X152330204Y-108610817D01*
X152312959Y-108611067D01*
X152292218Y-108611274D01*
X152267577Y-108611453D01*
X152238631Y-108611614D01*
X152204979Y-108611770D01*
X152166216Y-108611935D01*
X152155084Y-108611981D01*
X151936579Y-108612885D01*
X151936579Y-108552506D01*
X151936579Y-108492127D01*
X152132601Y-108491075D01*
X152172273Y-108490855D01*
X152206749Y-108490634D01*
X152236456Y-108490381D01*
X152261819Y-108490069D01*
X152283264Y-108489669D01*
X152301215Y-108489152D01*
X152316099Y-108488490D01*
X152328341Y-108487654D01*
X152338367Y-108486616D01*
X152346603Y-108485346D01*
X152353473Y-108483817D01*
X152359403Y-108482000D01*
X152364819Y-108479866D01*
X152370147Y-108477387D01*
X152375350Y-108474769D01*
X152391517Y-108463730D01*
X152405470Y-108448857D01*
X152415662Y-108431871D01*
X152417133Y-108428318D01*
X152422496Y-108408281D01*
X152424936Y-108385203D01*
X152424537Y-108360793D01*
X152421382Y-108336759D01*
X152415555Y-108314810D01*
X152411057Y-108303860D01*
X152402860Y-108290879D01*
X152391068Y-108277364D01*
X152377301Y-108264882D01*
X152363177Y-108255002D01*
X152357555Y-108252019D01*
X152347070Y-108247416D01*
X152336158Y-108243415D01*
X152324369Y-108239975D01*
X152311253Y-108237057D01*
X152296356Y-108234621D01*
X152279229Y-108232627D01*
X152259419Y-108231035D01*
X152236476Y-108229805D01*
X152209948Y-108228897D01*
X152179384Y-108228272D01*
X152144333Y-108227890D01*
X152104343Y-108227710D01*
X152082015Y-108227684D01*
X151936579Y-108227639D01*
X151936579Y-108167217D01*
X151936579Y-108106794D01*
X152226045Y-108106794D01*
X152515512Y-108106794D01*
X152515512Y-108154570D01*
G37*
G36*
X151304249Y-108325002D02*
G01*
X151304249Y-108517917D01*
X151324624Y-108516371D01*
X151357073Y-108511620D01*
X151386120Y-108502642D01*
X151411578Y-108489585D01*
X151433261Y-108472599D01*
X151450984Y-108451833D01*
X151464562Y-108427437D01*
X151473808Y-108399560D01*
X151474716Y-108395530D01*
X151476629Y-108384368D01*
X151477737Y-108371888D01*
X151478102Y-108356760D01*
X151477787Y-108337653D01*
X151477640Y-108333028D01*
X151476354Y-108307748D01*
X151474111Y-108285737D01*
X151470559Y-108265122D01*
X151465344Y-108244030D01*
X151458113Y-108220587D01*
X151454315Y-108209372D01*
X151449564Y-108195599D01*
X151445384Y-108183444D01*
X151442165Y-108174046D01*
X151440298Y-108168542D01*
X151440092Y-108167919D01*
X151439883Y-108166147D01*
X151441077Y-108164859D01*
X151444413Y-108163979D01*
X151450630Y-108163429D01*
X151460469Y-108163134D01*
X151474667Y-108163017D01*
X151487704Y-108163001D01*
X151536918Y-108163001D01*
X151546725Y-108187592D01*
X151559407Y-108225370D01*
X151568397Y-108265174D01*
X151571145Y-108283773D01*
X151572489Y-108299220D01*
X151573328Y-108318274D01*
X151573675Y-108339505D01*
X151573547Y-108361483D01*
X151572958Y-108382780D01*
X151571924Y-108401965D01*
X151570460Y-108417608D01*
X151569675Y-108423049D01*
X151560956Y-108460630D01*
X151547913Y-108494812D01*
X151530324Y-108526039D01*
X151507971Y-108554752D01*
X151499568Y-108563692D01*
X151473713Y-108586895D01*
X151445728Y-108605758D01*
X151414873Y-108620666D01*
X151380409Y-108632003D01*
X151358563Y-108637077D01*
X151341396Y-108639606D01*
X151320119Y-108641295D01*
X151296176Y-108642154D01*
X151271013Y-108642194D01*
X151246075Y-108641425D01*
X151222807Y-108639859D01*
X151207741Y-108638099D01*
X151202654Y-108637505D01*
X151193240Y-108635842D01*
X151153851Y-108625560D01*
X151118655Y-108611841D01*
X151087248Y-108594490D01*
X151059228Y-108573310D01*
X151052101Y-108566824D01*
X151028229Y-108540944D01*
X151009127Y-108512839D01*
X150994665Y-108482184D01*
X150984714Y-108448653D01*
X150979145Y-108411918D01*
X150978156Y-108388750D01*
X151069133Y-108388750D01*
X151073182Y-108414104D01*
X151081610Y-108437701D01*
X151094163Y-108458888D01*
X151110590Y-108477010D01*
X151130637Y-108491415D01*
X151136774Y-108494649D01*
X151149518Y-108500057D01*
X151164610Y-108505216D01*
X151180263Y-108509632D01*
X151194693Y-108512810D01*
X151206114Y-108514257D01*
X151207741Y-108514296D01*
X151217128Y-108514296D01*
X151217128Y-108383202D01*
X151217128Y-108252108D01*
X151196403Y-108253860D01*
X151168050Y-108258354D01*
X151142410Y-108266625D01*
X151119964Y-108278350D01*
X151101193Y-108293206D01*
X151086578Y-108310868D01*
X151076601Y-108331012D01*
X151075182Y-108335385D01*
X151069716Y-108362292D01*
X151069133Y-108388750D01*
X150978156Y-108388750D01*
X150977757Y-108379398D01*
X150979662Y-108340932D01*
X150985492Y-108306207D01*
X150995420Y-108274780D01*
X151009621Y-108246205D01*
X151028267Y-108220040D01*
X151048395Y-108198746D01*
X151070928Y-108180045D01*
X151095465Y-108164670D01*
X151122525Y-108152459D01*
X151152625Y-108143255D01*
X151186283Y-108136898D01*
X151224016Y-108133229D01*
X151265014Y-108132087D01*
X151304249Y-108132087D01*
X151304249Y-108325002D01*
G37*
G36*
X152370438Y-107586350D02*
G01*
X152392137Y-107589631D01*
X152410926Y-107594828D01*
X152411892Y-107595189D01*
X152437468Y-107607847D01*
X152460088Y-107625129D01*
X152479538Y-107646753D01*
X152495608Y-107672436D01*
X152508086Y-107701899D01*
X152516674Y-107734422D01*
X152521844Y-107765073D01*
X152524844Y-107793965D01*
X152525777Y-107823140D01*
X152524748Y-107854641D01*
X152523625Y-107870724D01*
X152520038Y-107902276D01*
X152514479Y-107933429D01*
X152507324Y-107962349D01*
X152500665Y-107982750D01*
X152491624Y-108007026D01*
X152438930Y-108007791D01*
X152422420Y-108007952D01*
X152408027Y-108007942D01*
X152396620Y-108007775D01*
X152389068Y-108007463D01*
X152386239Y-108007020D01*
X152386236Y-108007004D01*
X152387240Y-108003788D01*
X152389853Y-107996975D01*
X152392956Y-107989377D01*
X152399437Y-107972590D01*
X152406473Y-107952206D01*
X152413453Y-107930124D01*
X152419768Y-107908248D01*
X152423334Y-107894612D01*
X152426273Y-107879068D01*
X152428405Y-107860251D01*
X152429714Y-107839507D01*
X152430186Y-107818180D01*
X152429806Y-107797615D01*
X152428558Y-107779159D01*
X152426428Y-107764155D01*
X152424854Y-107757794D01*
X152416537Y-107738300D01*
X152405149Y-107723267D01*
X152390926Y-107712890D01*
X152374106Y-107707364D01*
X152362348Y-107706460D01*
X152350805Y-107707409D01*
X152340260Y-107710318D01*
X152330400Y-107715587D01*
X152320912Y-107723616D01*
X152311480Y-107734805D01*
X152301793Y-107749552D01*
X152291537Y-107768259D01*
X152280397Y-107791325D01*
X152268061Y-107819150D01*
X152261085Y-107835595D01*
X152246749Y-107868827D01*
X152233598Y-107897119D01*
X152221315Y-107920944D01*
X152209580Y-107940778D01*
X152198075Y-107957094D01*
X152186481Y-107970367D01*
X152174478Y-107981072D01*
X152161749Y-107989683D01*
X152155138Y-107993287D01*
X152131398Y-108002423D01*
X152105223Y-108007411D01*
X152077965Y-108008259D01*
X152050976Y-108004972D01*
X152025607Y-107997559D01*
X152014549Y-107992610D01*
X151996416Y-107980537D01*
X151979491Y-107963639D01*
X151964274Y-107942669D01*
X151951263Y-107918378D01*
X151940958Y-107891517D01*
X151936390Y-107874940D01*
X151930497Y-107841512D01*
X151927645Y-107804855D01*
X151927820Y-107766454D01*
X151931008Y-107727800D01*
X151937196Y-107690378D01*
X151938103Y-107686205D01*
X151941478Y-107672432D01*
X151945701Y-107657209D01*
X151950411Y-107641639D01*
X151955243Y-107626825D01*
X151959834Y-107613870D01*
X151963822Y-107603879D01*
X151966842Y-107597954D01*
X151967391Y-107597250D01*
X151970300Y-107597739D01*
X151977367Y-107599978D01*
X151987557Y-107603569D01*
X151999836Y-107608110D01*
X152013167Y-107613201D01*
X152026518Y-107618442D01*
X152038851Y-107623434D01*
X152049134Y-107627774D01*
X152056331Y-107631065D01*
X152059320Y-107632803D01*
X152058661Y-107635548D01*
X152056305Y-107642407D01*
X152052646Y-107652275D01*
X152049069Y-107661532D01*
X152037470Y-107694856D01*
X152028802Y-107727900D01*
X152023205Y-107759752D01*
X152020821Y-107789498D01*
X152021792Y-107816226D01*
X152023387Y-107827163D01*
X152027851Y-107843954D01*
X152034407Y-107859429D01*
X152042328Y-107872188D01*
X152050886Y-107880831D01*
X152051516Y-107881263D01*
X152062682Y-107885880D01*
X152076477Y-107887626D01*
X152090654Y-107886423D01*
X152101360Y-107883004D01*
X152108923Y-107878279D01*
X152116471Y-107871081D01*
X152124248Y-107860984D01*
X152132496Y-107847562D01*
X152141461Y-107830389D01*
X152151384Y-107809039D01*
X152162510Y-107783086D01*
X152172605Y-107758310D01*
X152187550Y-107722556D01*
X152201821Y-107691943D01*
X152215768Y-107666084D01*
X152229739Y-107644594D01*
X152244082Y-107627086D01*
X152259145Y-107613174D01*
X152275277Y-107602472D01*
X152292826Y-107594593D01*
X152312142Y-107589152D01*
X152327591Y-107586492D01*
X152348148Y-107585224D01*
X152370438Y-107586350D01*
G37*
G36*
X152364219Y-105482403D02*
G01*
X152382441Y-105483982D01*
X152392559Y-105485822D01*
X152419863Y-105494994D01*
X152444386Y-105508937D01*
X152465957Y-105527448D01*
X152484403Y-105550320D01*
X152499554Y-105577347D01*
X152511239Y-105608324D01*
X152518106Y-105636491D01*
X152519967Y-105648159D01*
X152521841Y-105663168D01*
X152523573Y-105679857D01*
X152525012Y-105696562D01*
X152526004Y-105711619D01*
X152526398Y-105723366D01*
X152526365Y-105726422D01*
X152525940Y-105735015D01*
X152525135Y-105747092D01*
X152524095Y-105760542D01*
X152523652Y-105765767D01*
X152518945Y-105804773D01*
X152511969Y-105840749D01*
X152502914Y-105872842D01*
X152495370Y-105892702D01*
X152489527Y-105906285D01*
X152437881Y-105906285D01*
X152421544Y-105906160D01*
X152407333Y-105905812D01*
X152396127Y-105905283D01*
X152388802Y-105904614D01*
X152386236Y-105903861D01*
X152387248Y-105900281D01*
X152389933Y-105892947D01*
X152393764Y-105883280D01*
X152394835Y-105880676D01*
X152403904Y-105856567D01*
X152412533Y-105829574D01*
X152420040Y-105802056D01*
X152425745Y-105776367D01*
X152427066Y-105769000D01*
X152429374Y-105750425D01*
X152430611Y-105729882D01*
X152430810Y-105708770D01*
X152430005Y-105688491D01*
X152428228Y-105670446D01*
X152425512Y-105656037D01*
X152424290Y-105651948D01*
X152415866Y-105632867D01*
X152405243Y-105618780D01*
X152392033Y-105609355D01*
X152375846Y-105604264D01*
X152366663Y-105603249D01*
X152353655Y-105603457D01*
X152341958Y-105605910D01*
X152331207Y-105611017D01*
X152321040Y-105619187D01*
X152311092Y-105630829D01*
X152300999Y-105646353D01*
X152290397Y-105666166D01*
X152278922Y-105690678D01*
X152269534Y-105712370D01*
X152257020Y-105741771D01*
X152246221Y-105766522D01*
X152236822Y-105787218D01*
X152228508Y-105804452D01*
X152220964Y-105818816D01*
X152213875Y-105830903D01*
X152206927Y-105841307D01*
X152199804Y-105850620D01*
X152192192Y-105859435D01*
X152190412Y-105861377D01*
X152173119Y-105877694D01*
X152155080Y-105889567D01*
X152134936Y-105897665D01*
X152111327Y-105902659D01*
X152105200Y-105903447D01*
X152074903Y-105904561D01*
X152047078Y-105900695D01*
X152021844Y-105891976D01*
X151999318Y-105878529D01*
X151979621Y-105860478D01*
X151962869Y-105837950D01*
X151949183Y-105811069D01*
X151938680Y-105779961D01*
X151931479Y-105744751D01*
X151928384Y-105716643D01*
X151927434Y-105667290D01*
X151931792Y-105617730D01*
X151941324Y-105569002D01*
X151952567Y-105531360D01*
X151957935Y-105515602D01*
X151961995Y-105504505D01*
X151965729Y-105497599D01*
X151970120Y-105494414D01*
X151976149Y-105494478D01*
X151984799Y-105497321D01*
X151997051Y-105502472D01*
X152005432Y-105506014D01*
X152019538Y-105511910D01*
X152032539Y-105517396D01*
X152043171Y-105521935D01*
X152050169Y-105524989D01*
X152051148Y-105525432D01*
X152060329Y-105529651D01*
X152055726Y-105540213D01*
X152049981Y-105554773D01*
X152043715Y-105572916D01*
X152037479Y-105592817D01*
X152031823Y-105612650D01*
X152027300Y-105630590D01*
X152024840Y-105642502D01*
X152022366Y-105662893D01*
X152021512Y-105684993D01*
X152022220Y-105707003D01*
X152024435Y-105727126D01*
X152028006Y-105743263D01*
X152035523Y-105759886D01*
X152046120Y-105772427D01*
X152059012Y-105780648D01*
X152073415Y-105784310D01*
X152088545Y-105783177D01*
X152103618Y-105777010D01*
X152114006Y-105769310D01*
X152120673Y-105761812D01*
X152128225Y-105750463D01*
X152136803Y-105734982D01*
X152146550Y-105715088D01*
X152157610Y-105690497D01*
X152170124Y-105660929D01*
X152175533Y-105647732D01*
X152189938Y-105613773D01*
X152203580Y-105584867D01*
X152216800Y-105560555D01*
X152229940Y-105540380D01*
X152243341Y-105523883D01*
X152257346Y-105510606D01*
X152272296Y-105500091D01*
X152288533Y-105491879D01*
X152293159Y-105490006D01*
X152307107Y-105486167D01*
X152324780Y-105483570D01*
X152344408Y-105482290D01*
X152364219Y-105482403D01*
G37*
G36*
X152514876Y-108790122D02*
G01*
X152514107Y-108838311D01*
X152476317Y-108848689D01*
X152462581Y-108852645D01*
X152450929Y-108856349D01*
X152442374Y-108859452D01*
X152437928Y-108861606D01*
X152437539Y-108862035D01*
X152439114Y-108865073D01*
X152444183Y-108870382D01*
X152451713Y-108876903D01*
X152453105Y-108878010D01*
X152475307Y-108898948D01*
X152493791Y-108923637D01*
X152508305Y-108951406D01*
X152518596Y-108981579D01*
X152524411Y-109013485D01*
X152525500Y-109046451D01*
X152523769Y-109066531D01*
X152516622Y-109101198D01*
X152504797Y-109132833D01*
X152488410Y-109161336D01*
X152467579Y-109186610D01*
X152442418Y-109208555D01*
X152413044Y-109227072D01*
X152379573Y-109242064D01*
X152342122Y-109253431D01*
X152300807Y-109261075D01*
X152293394Y-109261998D01*
X152274428Y-109263548D01*
X152251974Y-109264329D01*
X152230902Y-109264379D01*
X152227390Y-109264387D01*
X152202033Y-109263766D01*
X152177261Y-109262513D01*
X152154432Y-109260672D01*
X152134904Y-109258288D01*
X152123995Y-109256337D01*
X152090108Y-109247686D01*
X152060624Y-109237014D01*
X152034527Y-109223801D01*
X152010805Y-109207528D01*
X151988442Y-109187675D01*
X151986856Y-109186093D01*
X151974885Y-109173594D01*
X151965918Y-109162869D01*
X151958632Y-109152110D01*
X151951699Y-109139508D01*
X151949555Y-109135229D01*
X151940110Y-109113826D01*
X151933598Y-109093157D01*
X151929648Y-109071485D01*
X151927890Y-109047069D01*
X151927718Y-109032806D01*
X151929154Y-109003395D01*
X151931601Y-108988657D01*
X152027662Y-108988657D01*
X152027690Y-109016866D01*
X152032579Y-109042292D01*
X152042283Y-109064894D01*
X152056756Y-109084630D01*
X152075953Y-109101459D01*
X152099828Y-109115340D01*
X152128335Y-109126231D01*
X152161427Y-109134091D01*
X152193315Y-109138376D01*
X152230902Y-109140172D01*
X152267335Y-109138530D01*
X152301650Y-109133576D01*
X152332884Y-109125437D01*
X152353917Y-109117223D01*
X152377079Y-109103819D01*
X152395805Y-109087033D01*
X152410027Y-109067021D01*
X152419676Y-109043941D01*
X152424684Y-109017947D01*
X152424983Y-108989196D01*
X152421479Y-108962681D01*
X152414441Y-108937903D01*
X152403447Y-108917032D01*
X152388273Y-108899775D01*
X152368699Y-108885837D01*
X152359806Y-108881230D01*
X152347154Y-108875472D01*
X152335668Y-108870936D01*
X152324423Y-108867482D01*
X152312495Y-108864968D01*
X152298959Y-108863255D01*
X152282891Y-108862200D01*
X152263366Y-108861664D01*
X152239459Y-108861506D01*
X152230261Y-108861514D01*
X152208273Y-108861586D01*
X152190982Y-108861751D01*
X152177464Y-108862081D01*
X152166795Y-108862646D01*
X152158051Y-108863517D01*
X152150309Y-108864764D01*
X152142644Y-108866459D01*
X152134133Y-108868673D01*
X152133054Y-108868965D01*
X152104695Y-108878283D01*
X152081345Y-108889690D01*
X152062653Y-108903585D01*
X152048264Y-108920369D01*
X152037829Y-108940440D01*
X152030993Y-108964201D01*
X152027662Y-108988657D01*
X151931601Y-108988657D01*
X151933487Y-108977293D01*
X151941096Y-108952784D01*
X151949866Y-108933039D01*
X151955813Y-108922250D01*
X151962839Y-108912049D01*
X151971935Y-108901171D01*
X151984097Y-108888352D01*
X151988283Y-108884145D01*
X152016184Y-108856329D01*
X151998162Y-108858382D01*
X151986263Y-108859712D01*
X151971732Y-108861301D01*
X151957526Y-108862827D01*
X151956251Y-108862962D01*
X151951071Y-108863214D01*
X151940533Y-108863459D01*
X151924898Y-108863697D01*
X151904430Y-108863924D01*
X151879390Y-108864142D01*
X151850041Y-108864348D01*
X151816645Y-108864541D01*
X151779464Y-108864721D01*
X151738761Y-108864885D01*
X151694797Y-108865034D01*
X151647836Y-108865166D01*
X151598140Y-108865280D01*
X151545970Y-108865375D01*
X151491589Y-108865450D01*
X151435260Y-108865503D01*
X151377245Y-108865533D01*
X151342891Y-108865540D01*
X150753419Y-108865590D01*
X150753419Y-108803762D01*
X150753419Y-108741934D01*
X151634532Y-108741934D01*
X152515645Y-108741934D01*
X152514876Y-108790122D01*
G37*
G36*
X151314177Y-108966181D02*
G01*
X151349593Y-108969714D01*
X151360456Y-108971357D01*
X151400326Y-108980149D01*
X151436606Y-108992635D01*
X151469082Y-109008674D01*
X151497536Y-109028126D01*
X151521755Y-109050849D01*
X151541520Y-109076703D01*
X151552652Y-109096714D01*
X151562060Y-109118575D01*
X151568463Y-109139373D01*
X151572266Y-109161000D01*
X151573874Y-109185351D01*
X151573994Y-109196362D01*
X151573174Y-109221834D01*
X151570543Y-109243625D01*
X151565724Y-109263490D01*
X151558341Y-109283182D01*
X151552721Y-109295243D01*
X151545689Y-109308642D01*
X151538737Y-109319587D01*
X151530520Y-109329901D01*
X151519690Y-109341410D01*
X151515815Y-109345286D01*
X151506706Y-109354561D01*
X151499471Y-109362408D01*
X151494832Y-109368008D01*
X151493508Y-109370544D01*
X151493520Y-109370558D01*
X151496800Y-109370932D01*
X151504448Y-109370709D01*
X151515250Y-109369950D01*
X151525446Y-109368986D01*
X151535669Y-109368238D01*
X151550932Y-109367570D01*
X151570652Y-109366994D01*
X151594247Y-109366520D01*
X151621137Y-109366160D01*
X151650739Y-109365926D01*
X151682472Y-109365828D01*
X151688565Y-109365826D01*
X151821354Y-109365834D01*
X151821354Y-109426256D01*
X151821354Y-109486679D01*
X151404016Y-109486679D01*
X151273063Y-109486679D01*
X150986678Y-109486679D01*
X150986678Y-109437687D01*
X150986725Y-109419889D01*
X150986917Y-109406923D01*
X150987331Y-109398002D01*
X150988043Y-109392339D01*
X150989130Y-109389144D01*
X150990670Y-109387631D01*
X150991596Y-109387270D01*
X150996109Y-109386167D01*
X151004907Y-109384178D01*
X151016776Y-109381573D01*
X151030498Y-109378621D01*
X151032347Y-109378228D01*
X151045676Y-109375239D01*
X151056757Y-109372460D01*
X151064567Y-109370168D01*
X151068081Y-109368644D01*
X151068179Y-109368464D01*
X151066126Y-109365840D01*
X151060664Y-109360746D01*
X151052841Y-109354138D01*
X151050088Y-109351923D01*
X151025815Y-109329283D01*
X151006436Y-109303886D01*
X150991949Y-109275728D01*
X150982354Y-109244805D01*
X150978863Y-109219812D01*
X151077206Y-109219812D01*
X151077473Y-109236557D01*
X151081132Y-109264662D01*
X151088663Y-109288943D01*
X151100226Y-109309563D01*
X151115981Y-109326686D01*
X151136089Y-109340475D01*
X151160709Y-109351096D01*
X151190001Y-109358710D01*
X151198361Y-109360210D01*
X151220488Y-109362945D01*
X151246077Y-109364609D01*
X151273063Y-109365152D01*
X151299381Y-109364521D01*
X151317906Y-109363201D01*
X151352522Y-109358587D01*
X151382156Y-109351830D01*
X151407107Y-109342710D01*
X151427674Y-109331008D01*
X151444157Y-109316502D01*
X151456855Y-109298972D01*
X151466068Y-109278199D01*
X151472095Y-109253962D01*
X151472866Y-109249204D01*
X151474781Y-109233096D01*
X151474972Y-109219568D01*
X151473371Y-109205830D01*
X151471625Y-109196807D01*
X151465891Y-109176594D01*
X151457566Y-109159845D01*
X151445601Y-109144621D01*
X151440733Y-109139657D01*
X151422905Y-109125410D01*
X151400701Y-109113341D01*
X151373711Y-109103241D01*
X151361218Y-109099635D01*
X151351194Y-109097067D01*
X151342291Y-109095168D01*
X151333358Y-109093832D01*
X151323246Y-109092956D01*
X151310803Y-109092434D01*
X151294879Y-109092164D01*
X151277550Y-109092054D01*
X151255698Y-109092086D01*
X151238349Y-109092429D01*
X151224389Y-109093150D01*
X151212706Y-109094318D01*
X151202187Y-109096001D01*
X151197455Y-109096962D01*
X151166025Y-109105662D01*
X151139416Y-109117230D01*
X151117585Y-109131717D01*
X151100490Y-109149169D01*
X151088090Y-109169637D01*
X151080342Y-109193168D01*
X151077206Y-109219812D01*
X150978863Y-109219812D01*
X150977648Y-109211113D01*
X150977830Y-109174647D01*
X150978431Y-109167251D01*
X150984210Y-109133575D01*
X150994927Y-109102378D01*
X151010381Y-109073862D01*
X151030370Y-109048230D01*
X151054695Y-109025682D01*
X151083155Y-109006421D01*
X151115547Y-108990648D01*
X151151673Y-108978565D01*
X151170757Y-108974036D01*
X151203288Y-108968825D01*
X151239231Y-108965762D01*
X151276792Y-108964872D01*
X151314177Y-108966181D01*
G37*
G36*
X151565612Y-110206130D02*
G01*
X151565612Y-110267958D01*
X151374755Y-110267958D01*
X151335375Y-110267979D01*
X151301216Y-110268047D01*
X151271876Y-110268170D01*
X151246957Y-110268355D01*
X151226056Y-110268609D01*
X151208775Y-110268941D01*
X151194713Y-110269358D01*
X151183470Y-110269867D01*
X151174645Y-110270476D01*
X151167838Y-110271193D01*
X151163007Y-110271955D01*
X151137501Y-110278920D01*
X151116521Y-110289214D01*
X151100032Y-110302882D01*
X151088000Y-110319970D01*
X151080387Y-110340521D01*
X151077161Y-110364582D01*
X151077359Y-110381473D01*
X151081063Y-110408955D01*
X151088774Y-110432811D01*
X151100642Y-110453194D01*
X151116818Y-110470255D01*
X151137453Y-110484146D01*
X151162696Y-110495020D01*
X151192698Y-110503028D01*
X151198860Y-110504222D01*
X151205485Y-110504921D01*
X151217443Y-110505593D01*
X151234446Y-110506234D01*
X151256205Y-110506836D01*
X151282433Y-110507391D01*
X151312842Y-110507894D01*
X151347143Y-110508338D01*
X151385050Y-110508715D01*
X151390667Y-110508762D01*
X151565612Y-110510209D01*
X151565612Y-110570351D01*
X151565612Y-110630494D01*
X151376615Y-110630515D01*
X151338195Y-110630564D01*
X151302831Y-110630697D01*
X151270860Y-110630910D01*
X151242615Y-110631199D01*
X151218431Y-110631559D01*
X151198644Y-110631985D01*
X151183588Y-110632473D01*
X151173597Y-110633017D01*
X151169951Y-110633403D01*
X151144776Y-110639131D01*
X151124165Y-110647570D01*
X151107588Y-110659052D01*
X151094515Y-110673913D01*
X151087851Y-110685137D01*
X151083530Y-110693873D01*
X151080706Y-110700894D01*
X151079062Y-110707828D01*
X151078283Y-110716301D01*
X151078053Y-110727941D01*
X151078045Y-110735599D01*
X151079302Y-110760809D01*
X151083271Y-110781883D01*
X151090332Y-110799795D01*
X151100861Y-110815523D01*
X151114337Y-110829255D01*
X151132255Y-110842144D01*
X151154359Y-110852795D01*
X151181236Y-110861490D01*
X151181632Y-110861595D01*
X151186448Y-110862814D01*
X151191270Y-110863863D01*
X151196557Y-110864760D01*
X151202769Y-110865521D01*
X151210366Y-110866165D01*
X151219808Y-110866707D01*
X151231554Y-110867166D01*
X151246064Y-110867558D01*
X151263799Y-110867901D01*
X151285217Y-110868213D01*
X151310780Y-110868510D01*
X151340945Y-110868809D01*
X151376174Y-110869128D01*
X151384344Y-110869200D01*
X151564207Y-110870779D01*
X151564964Y-110931905D01*
X151565721Y-110993030D01*
X151276200Y-110993030D01*
X150986678Y-110993030D01*
X150986678Y-110945479D01*
X150986678Y-110897928D01*
X151006351Y-110893487D01*
X151020251Y-110890350D01*
X151035640Y-110886876D01*
X151045696Y-110884606D01*
X151055306Y-110882012D01*
X151062290Y-110879316D01*
X151065271Y-110877062D01*
X151065296Y-110876877D01*
X151063092Y-110873669D01*
X151057442Y-110868661D01*
X151051024Y-110863955D01*
X151033489Y-110849271D01*
X151017107Y-110830258D01*
X151002753Y-110808200D01*
X150991299Y-110784382D01*
X150985601Y-110767795D01*
X150980487Y-110743255D01*
X150977902Y-110715576D01*
X150977854Y-110686642D01*
X150980348Y-110658334D01*
X150985189Y-110633304D01*
X150993977Y-110607925D01*
X151006418Y-110584350D01*
X151021803Y-110563576D01*
X151039425Y-110546602D01*
X151053309Y-110537176D01*
X151061661Y-110531724D01*
X151066946Y-110526776D01*
X151068179Y-110524135D01*
X151066043Y-110520383D01*
X151060372Y-110514557D01*
X151052269Y-110507751D01*
X151049825Y-110505900D01*
X151028472Y-110486657D01*
X151010605Y-110463338D01*
X150996393Y-110436407D01*
X150986005Y-110406327D01*
X150979610Y-110373561D01*
X150977378Y-110338572D01*
X150978550Y-110311002D01*
X150983607Y-110277261D01*
X150992614Y-110247473D01*
X151005619Y-110221592D01*
X151022674Y-110199569D01*
X151043826Y-110181357D01*
X151069125Y-110166908D01*
X151098621Y-110156175D01*
X151132362Y-110149110D01*
X151148430Y-110147164D01*
X151155997Y-110146702D01*
X151168642Y-110146263D01*
X151185822Y-110145853D01*
X151206994Y-110145479D01*
X151231615Y-110145148D01*
X151259143Y-110144867D01*
X151289035Y-110144643D01*
X151320747Y-110144482D01*
X151353738Y-110144392D01*
X151370995Y-110144375D01*
X151565612Y-110144302D01*
X151565612Y-110206130D01*
G37*
G36*
X151564981Y-106189033D02*
G01*
X151564207Y-106233217D01*
X151524159Y-106244501D01*
X151510119Y-106248572D01*
X151498230Y-106252240D01*
X151489436Y-106255195D01*
X151484682Y-106257130D01*
X151484111Y-106257595D01*
X151485979Y-106260145D01*
X151491104Y-106265898D01*
X151498772Y-106274080D01*
X151508267Y-106283918D01*
X151511582Y-106287298D01*
X151529025Y-106306236D01*
X151542536Y-106324025D01*
X151553099Y-106342243D01*
X151561697Y-106362471D01*
X151565686Y-106374209D01*
X151568623Y-106386976D01*
X151570916Y-106403892D01*
X151572519Y-106423519D01*
X151573388Y-106444420D01*
X151573478Y-106465154D01*
X151572744Y-106484283D01*
X151571141Y-106500370D01*
X151569850Y-106507499D01*
X151560586Y-106536851D01*
X151547008Y-106562721D01*
X151529371Y-106584906D01*
X151507926Y-106603199D01*
X151482927Y-106617398D01*
X151454628Y-106627296D01*
X151423281Y-106632690D01*
X151414110Y-106633359D01*
X151392512Y-106633256D01*
X151382021Y-106633206D01*
X151353561Y-106629052D01*
X151328247Y-106620730D01*
X151305595Y-106608071D01*
X151285123Y-106590906D01*
X151281380Y-106587058D01*
X151265194Y-106567060D01*
X151251451Y-106543818D01*
X151240053Y-106516992D01*
X151230900Y-106486242D01*
X151223893Y-106451228D01*
X151218931Y-106411611D01*
X151215915Y-106367052D01*
X151215743Y-106362968D01*
X151214998Y-106345322D01*
X151214146Y-106326527D01*
X151213295Y-106308854D01*
X151212563Y-106294817D01*
X151210966Y-106266011D01*
X151190861Y-106266032D01*
X151162404Y-106267507D01*
X151138413Y-106271951D01*
X151118506Y-106279488D01*
X151102300Y-106290243D01*
X151095053Y-106297322D01*
X151085677Y-106309480D01*
X151079069Y-106322575D01*
X151074759Y-106337967D01*
X151072279Y-106357016D01*
X151071756Y-106364806D01*
X151072193Y-106398078D01*
X151077171Y-106432757D01*
X151086786Y-106469305D01*
X151101137Y-106508183D01*
X151103266Y-106513223D01*
X151107820Y-106524100D01*
X151110275Y-106530976D01*
X151110836Y-106534974D01*
X151109707Y-106537218D01*
X151107861Y-106538434D01*
X151101927Y-106541404D01*
X151092791Y-106545733D01*
X151081504Y-106550950D01*
X151069116Y-106556585D01*
X151056676Y-106562166D01*
X151045236Y-106567220D01*
X151035845Y-106571278D01*
X151029554Y-106573867D01*
X151027409Y-106574551D01*
X151025133Y-106570695D01*
X151021344Y-106563092D01*
X151016715Y-106553174D01*
X151011914Y-106542375D01*
X151007965Y-106532994D01*
X150994665Y-106494000D01*
X150984984Y-106451933D01*
X150979131Y-106408188D01*
X150977313Y-106364159D01*
X150978473Y-106334951D01*
X150981050Y-106309408D01*
X150984903Y-106287594D01*
X150990487Y-106267678D01*
X150991476Y-106265151D01*
X151290197Y-106265151D01*
X151290199Y-106300008D01*
X151290891Y-106331419D01*
X151292885Y-106361468D01*
X151296062Y-106389346D01*
X151300302Y-106414242D01*
X151305488Y-106435347D01*
X151311501Y-106451849D01*
X151312830Y-106454600D01*
X151325691Y-106473932D01*
X151342222Y-106489234D01*
X151361813Y-106500105D01*
X151383855Y-106506142D01*
X151392512Y-106507071D01*
X151415739Y-106506424D01*
X151435642Y-106501337D01*
X151452114Y-106491873D01*
X151465049Y-106478098D01*
X151474342Y-106460075D01*
X151475529Y-106456666D01*
X151478919Y-106441196D01*
X151480529Y-106422308D01*
X151480406Y-106401904D01*
X151478596Y-106381882D01*
X151475145Y-106364140D01*
X151473127Y-106357572D01*
X151461774Y-106332071D01*
X151447264Y-106311099D01*
X151429239Y-106294310D01*
X151407342Y-106281360D01*
X151385749Y-106273212D01*
X151375239Y-106270940D01*
X151360293Y-106268982D01*
X151342089Y-106267474D01*
X151330244Y-106266848D01*
X151290197Y-106265151D01*
X150991476Y-106265151D01*
X150998257Y-106247829D01*
X151002331Y-106238968D01*
X151017004Y-106213821D01*
X151035207Y-106192753D01*
X151057220Y-106175538D01*
X151083325Y-106161952D01*
X151109490Y-106152933D01*
X151113653Y-106151802D01*
X151117768Y-106150817D01*
X151122240Y-106149966D01*
X151127477Y-106149237D01*
X151133886Y-106148618D01*
X151141876Y-106148097D01*
X151151853Y-106147661D01*
X151164224Y-106147299D01*
X151179398Y-106146999D01*
X151197781Y-106146748D01*
X151219782Y-106146535D01*
X151245806Y-106146347D01*
X151276263Y-106146171D01*
X151311558Y-106145997D01*
X151348584Y-106145828D01*
X151565756Y-106144849D01*
X151564981Y-106189033D01*
G37*
G36*
X150992384Y-109535439D02*
G01*
X151000545Y-109538295D01*
X151013197Y-109542879D01*
X151029962Y-109549048D01*
X151050463Y-109556658D01*
X151074322Y-109565566D01*
X151101161Y-109575627D01*
X151130602Y-109586698D01*
X151162268Y-109598635D01*
X151195781Y-109611295D01*
X151230762Y-109624534D01*
X151266835Y-109638208D01*
X151303621Y-109652173D01*
X151340743Y-109666287D01*
X151377823Y-109680404D01*
X151414482Y-109694382D01*
X151450344Y-109708077D01*
X151485030Y-109721345D01*
X151518163Y-109734043D01*
X151549364Y-109746026D01*
X151578257Y-109757152D01*
X151604463Y-109767276D01*
X151627605Y-109776254D01*
X151647304Y-109783944D01*
X151663183Y-109790201D01*
X151674864Y-109794881D01*
X151681970Y-109797842D01*
X151683647Y-109798611D01*
X151707652Y-109811594D01*
X151727927Y-109824765D01*
X151746259Y-109839394D01*
X151762337Y-109854622D01*
X151780257Y-109874581D01*
X151793947Y-109894380D01*
X151804489Y-109915702D01*
X151808745Y-109926964D01*
X151812436Y-109938447D01*
X151815350Y-109949798D01*
X151817575Y-109961877D01*
X151819194Y-109975544D01*
X151820293Y-109991659D01*
X151820958Y-110011080D01*
X151821274Y-110034669D01*
X151821333Y-110053733D01*
X151821354Y-110124759D01*
X151771470Y-110123992D01*
X151721586Y-110123225D01*
X151720043Y-110054371D01*
X151719333Y-110028588D01*
X151718466Y-110008129D01*
X151717424Y-109992699D01*
X151716186Y-109982002D01*
X151714733Y-109975742D01*
X151714710Y-109975681D01*
X151704833Y-109956980D01*
X151690259Y-109938971D01*
X151671906Y-109922581D01*
X151650691Y-109908739D01*
X151645995Y-109906261D01*
X151638100Y-109902582D01*
X151627200Y-109897927D01*
X151614453Y-109892743D01*
X151601020Y-109887477D01*
X151588062Y-109882575D01*
X151576737Y-109878484D01*
X151568207Y-109875649D01*
X151563631Y-109874518D01*
X151563510Y-109874514D01*
X151560479Y-109875538D01*
X151552574Y-109878520D01*
X151540135Y-109883326D01*
X151523505Y-109889821D01*
X151503025Y-109897870D01*
X151479036Y-109907337D01*
X151451881Y-109918087D01*
X151421900Y-109929987D01*
X151389435Y-109942900D01*
X151354828Y-109956691D01*
X151318421Y-109971226D01*
X151280554Y-109986370D01*
X151278259Y-109987288D01*
X151240278Y-110002486D01*
X151203714Y-110017107D01*
X151168910Y-110031013D01*
X151136211Y-110044068D01*
X151105959Y-110056134D01*
X151078500Y-110067075D01*
X151054176Y-110076754D01*
X151033333Y-110085034D01*
X151016314Y-110091778D01*
X151003462Y-110096849D01*
X150995122Y-110100109D01*
X150991638Y-110101423D01*
X150991596Y-110101436D01*
X150990040Y-110101537D01*
X150988851Y-110100435D01*
X150987979Y-110097482D01*
X150987377Y-110092032D01*
X150986994Y-110083439D01*
X150986783Y-110071055D01*
X150986694Y-110054234D01*
X150986678Y-110036431D01*
X150986724Y-110017790D01*
X150986853Y-110001172D01*
X150987051Y-109987351D01*
X150987306Y-109977103D01*
X150987604Y-109971200D01*
X150987813Y-109970060D01*
X150990583Y-109969136D01*
X150998204Y-109966467D01*
X151010237Y-109962211D01*
X151026243Y-109956524D01*
X151045783Y-109949561D01*
X151068419Y-109941480D01*
X151093711Y-109932437D01*
X151121222Y-109922588D01*
X151150512Y-109912090D01*
X151164163Y-109907193D01*
X151202541Y-109893438D01*
X151236084Y-109881456D01*
X151265242Y-109871099D01*
X151290462Y-109862218D01*
X151312192Y-109854666D01*
X151330880Y-109848294D01*
X151346976Y-109842954D01*
X151360926Y-109838499D01*
X151373180Y-109834779D01*
X151384185Y-109831648D01*
X151394389Y-109828956D01*
X151404241Y-109826556D01*
X151414189Y-109824299D01*
X151416590Y-109823774D01*
X151428100Y-109821179D01*
X151437366Y-109818922D01*
X151443134Y-109817317D01*
X151444394Y-109816800D01*
X151444632Y-109815991D01*
X151443148Y-109815057D01*
X151439122Y-109813756D01*
X151431734Y-109811846D01*
X151420166Y-109809085D01*
X151411042Y-109806958D01*
X151402830Y-109804902D01*
X151392609Y-109802059D01*
X151380080Y-109798330D01*
X151364942Y-109793617D01*
X151346896Y-109787819D01*
X151325640Y-109780837D01*
X151300875Y-109772571D01*
X151272300Y-109762923D01*
X151239616Y-109751793D01*
X151202521Y-109739081D01*
X151160716Y-109724688D01*
X151115955Y-109709225D01*
X150988083Y-109664993D01*
X150987329Y-109599724D01*
X150987210Y-109580409D01*
X150987309Y-109563592D01*
X150987608Y-109549968D01*
X150988089Y-109540236D01*
X150988731Y-109535090D01*
X150989092Y-109534455D01*
X150992384Y-109535439D01*
G37*
G36*
X152509864Y-107184165D02*
G01*
X152516266Y-107209744D01*
X152520822Y-107238138D01*
X152523394Y-107267529D01*
X152523844Y-107296097D01*
X152522035Y-107322026D01*
X152520912Y-107329730D01*
X152513631Y-107358897D01*
X152502232Y-107384289D01*
X152486633Y-107405998D01*
X152466749Y-107424115D01*
X152442495Y-107438734D01*
X152413789Y-107449946D01*
X152410124Y-107451043D01*
X152406244Y-107452043D01*
X152401694Y-107452905D01*
X152396036Y-107453644D01*
X152388830Y-107454272D01*
X152379634Y-107454801D01*
X152368010Y-107455246D01*
X152353517Y-107455619D01*
X152335716Y-107455934D01*
X152314166Y-107456203D01*
X152288427Y-107456440D01*
X152258061Y-107456657D01*
X152222626Y-107456869D01*
X152212696Y-107456923D01*
X152032131Y-107457904D01*
X152032088Y-107504826D01*
X152031941Y-107520691D01*
X152031562Y-107534709D01*
X152030999Y-107545861D01*
X152030298Y-107553131D01*
X152029745Y-107555373D01*
X152026665Y-107557199D01*
X152019825Y-107558166D01*
X152008487Y-107558348D01*
X152001414Y-107558183D01*
X151975382Y-107557369D01*
X151956640Y-107508188D01*
X151937897Y-107459007D01*
X151541680Y-107459007D01*
X151145463Y-107459007D01*
X151129588Y-107465426D01*
X151113696Y-107474067D01*
X151099344Y-107485983D01*
X151087887Y-107499830D01*
X151080768Y-107513981D01*
X151077768Y-107527903D01*
X151076625Y-107544561D01*
X151077242Y-107562061D01*
X151079524Y-107578508D01*
X151083375Y-107592007D01*
X151084879Y-107595309D01*
X151097535Y-107616221D01*
X151112282Y-107633365D01*
X151129908Y-107647327D01*
X151151198Y-107658693D01*
X151176938Y-107668050D01*
X151185995Y-107670647D01*
X151212912Y-107677968D01*
X151389262Y-107678965D01*
X151565612Y-107679963D01*
X151565612Y-107741619D01*
X151565612Y-107803275D01*
X151159515Y-107803275D01*
X150753419Y-107803275D01*
X150753419Y-107741112D01*
X150753419Y-107678949D01*
X150897450Y-107680654D01*
X150925790Y-107681020D01*
X150952749Y-107681427D01*
X150977739Y-107681862D01*
X151000176Y-107682313D01*
X151019474Y-107682766D01*
X151035049Y-107683208D01*
X151046314Y-107683627D01*
X151052686Y-107684009D01*
X151053424Y-107684095D01*
X151061891Y-107684431D01*
X151065332Y-107682436D01*
X151063702Y-107678379D01*
X151056956Y-107672535D01*
X151055509Y-107671526D01*
X151042473Y-107660897D01*
X151028745Y-107646775D01*
X151015772Y-107630867D01*
X151004996Y-107614881D01*
X151000419Y-107606444D01*
X150992115Y-107588509D01*
X150985980Y-107572962D01*
X150981702Y-107558328D01*
X150978969Y-107543132D01*
X150977468Y-107525898D01*
X150976887Y-107505152D01*
X150976842Y-107495148D01*
X150976842Y-107446979D01*
X150990291Y-107420421D01*
X151004593Y-107395656D01*
X151019863Y-107376119D01*
X151036418Y-107361451D01*
X151049557Y-107353583D01*
X151054255Y-107351243D01*
X151058578Y-107349119D01*
X151062804Y-107347199D01*
X151067212Y-107345472D01*
X151072083Y-107343927D01*
X151077695Y-107342554D01*
X151084327Y-107341341D01*
X151092259Y-107340277D01*
X151101770Y-107339351D01*
X151113139Y-107338551D01*
X151126646Y-107337868D01*
X151142570Y-107337289D01*
X151161191Y-107336803D01*
X151182787Y-107336400D01*
X151207638Y-107336069D01*
X151236023Y-107335798D01*
X151268222Y-107335576D01*
X151304513Y-107335392D01*
X151345176Y-107335235D01*
X151390491Y-107335094D01*
X151440737Y-107334959D01*
X151496192Y-107334816D01*
X151524159Y-107334744D01*
X151936579Y-107333670D01*
X151936579Y-107264954D01*
X151936579Y-107196238D01*
X151982950Y-107196238D01*
X152029320Y-107196238D01*
X152029320Y-107265176D01*
X152029320Y-107334113D01*
X152200050Y-107333327D01*
X152235298Y-107333160D01*
X152265374Y-107332998D01*
X152290726Y-107332824D01*
X152311800Y-107332622D01*
X152329046Y-107332377D01*
X152342912Y-107332070D01*
X152353844Y-107331687D01*
X152362292Y-107331210D01*
X152368704Y-107330624D01*
X152373527Y-107329912D01*
X152377209Y-107329057D01*
X152380198Y-107328043D01*
X152382943Y-107326855D01*
X152383425Y-107326630D01*
X152400174Y-107315998D01*
X152412876Y-107301519D01*
X152418265Y-107291791D01*
X152420942Y-107285181D01*
X152422663Y-107278162D01*
X152423607Y-107269311D01*
X152423954Y-107257204D01*
X152423944Y-107246825D01*
X152423380Y-107228110D01*
X152421753Y-107211627D01*
X152418716Y-107195066D01*
X152413922Y-107176114D01*
X152412669Y-107171648D01*
X152410873Y-107165325D01*
X152457459Y-107165325D01*
X152504045Y-107165325D01*
X152509864Y-107184165D01*
G37*
G36*
X150992350Y-105007949D02*
G01*
X151000337Y-105010786D01*
X151012818Y-105015339D01*
X151029415Y-105021466D01*
X151049749Y-105029022D01*
X151073442Y-105037864D01*
X151100113Y-105047849D01*
X151129386Y-105058834D01*
X151160880Y-105070675D01*
X151194217Y-105083228D01*
X151229020Y-105096352D01*
X151264908Y-105109901D01*
X151301503Y-105123734D01*
X151338426Y-105137706D01*
X151375299Y-105151674D01*
X151411744Y-105165495D01*
X151447380Y-105179026D01*
X151481830Y-105192122D01*
X151514715Y-105204642D01*
X151545656Y-105216441D01*
X151574275Y-105227376D01*
X151600192Y-105237304D01*
X151623029Y-105246082D01*
X151642407Y-105253565D01*
X151657948Y-105259612D01*
X151669273Y-105264078D01*
X151676003Y-105266820D01*
X151677348Y-105267414D01*
X151707796Y-105283875D01*
X151735546Y-105303041D01*
X151759907Y-105324291D01*
X151780185Y-105347006D01*
X151795688Y-105370563D01*
X151798371Y-105375761D01*
X151803980Y-105387443D01*
X151808491Y-105397741D01*
X151812037Y-105407475D01*
X151814748Y-105417465D01*
X151816754Y-105428529D01*
X151818188Y-105441488D01*
X151819178Y-105457162D01*
X151819858Y-105476369D01*
X151820356Y-105499929D01*
X151820599Y-105514943D01*
X151821860Y-105597146D01*
X151771021Y-105597146D01*
X151720181Y-105597146D01*
X151720181Y-105533018D01*
X151720053Y-105508629D01*
X151719586Y-105489025D01*
X151718655Y-105473373D01*
X151717134Y-105460843D01*
X151714899Y-105450603D01*
X151711824Y-105441819D01*
X151707785Y-105433661D01*
X151704391Y-105427997D01*
X151694770Y-105415023D01*
X151682717Y-105403090D01*
X151667681Y-105391863D01*
X151649114Y-105381009D01*
X151626467Y-105370197D01*
X151599189Y-105359092D01*
X151577567Y-105351152D01*
X151562825Y-105345922D01*
X151303106Y-105449754D01*
X151266798Y-105464288D01*
X151232026Y-105478246D01*
X151199136Y-105491484D01*
X151168477Y-105503863D01*
X151140397Y-105515239D01*
X151115243Y-105525471D01*
X151093365Y-105534417D01*
X151075110Y-105541936D01*
X151060825Y-105547885D01*
X151050860Y-105552123D01*
X151045562Y-105554509D01*
X151044767Y-105554990D01*
X151047532Y-105556166D01*
X151055196Y-105559199D01*
X151067401Y-105563952D01*
X151083790Y-105570290D01*
X151104007Y-105578074D01*
X151127696Y-105587168D01*
X151154498Y-105597435D01*
X151184058Y-105608738D01*
X151216018Y-105620941D01*
X151250022Y-105633906D01*
X151285713Y-105647496D01*
X151305176Y-105654900D01*
X151564207Y-105753405D01*
X151564207Y-105819255D01*
X151564207Y-105885106D01*
X151281766Y-105992651D01*
X151243580Y-106007185D01*
X151206799Y-106021171D01*
X151171771Y-106034479D01*
X151138845Y-106046976D01*
X151108371Y-106058530D01*
X151080697Y-106069008D01*
X151056173Y-106078280D01*
X151035147Y-106086211D01*
X151017970Y-106092672D01*
X151004991Y-106097528D01*
X150996558Y-106100649D01*
X150993020Y-106101902D01*
X150993002Y-106101908D01*
X150986678Y-106103619D01*
X150986681Y-106039379D01*
X150986685Y-105975139D01*
X151118066Y-105928996D01*
X151161614Y-105913710D01*
X151200253Y-105900175D01*
X151234371Y-105888266D01*
X151264356Y-105877858D01*
X151290598Y-105868827D01*
X151313484Y-105861046D01*
X151333404Y-105854393D01*
X151350747Y-105848741D01*
X151365900Y-105843966D01*
X151379253Y-105839944D01*
X151391194Y-105836548D01*
X151402113Y-105833655D01*
X151412397Y-105831139D01*
X151422435Y-105828876D01*
X151432617Y-105826741D01*
X151442659Y-105824741D01*
X151451292Y-105822700D01*
X151457155Y-105820643D01*
X151458818Y-105819327D01*
X151456297Y-105817723D01*
X151449834Y-105816050D01*
X151444464Y-105815173D01*
X151434917Y-105813512D01*
X151422547Y-105810652D01*
X151407091Y-105806511D01*
X151388287Y-105801005D01*
X151365875Y-105794052D01*
X151339592Y-105785566D01*
X151309179Y-105775466D01*
X151274372Y-105763668D01*
X151234912Y-105750088D01*
X151190536Y-105734642D01*
X151174972Y-105729193D01*
X151145163Y-105718735D01*
X151116734Y-105708744D01*
X151090163Y-105699390D01*
X151065923Y-105690840D01*
X151044493Y-105683263D01*
X151026346Y-105676828D01*
X151011960Y-105671701D01*
X151001811Y-105668053D01*
X150996373Y-105666051D01*
X150995812Y-105665830D01*
X150986678Y-105662071D01*
X150986678Y-105552323D01*
X150986703Y-105528108D01*
X150986772Y-105505745D01*
X150986882Y-105485834D01*
X150987025Y-105468979D01*
X150987198Y-105455781D01*
X150987394Y-105446842D01*
X150987609Y-105442765D01*
X150987667Y-105442576D01*
X150990411Y-105441651D01*
X150998003Y-105438980D01*
X151009998Y-105434722D01*
X151025956Y-105429035D01*
X151045433Y-105422076D01*
X151067989Y-105414004D01*
X151093180Y-105404977D01*
X151120565Y-105395152D01*
X151149701Y-105384689D01*
X151160787Y-105380705D01*
X151201353Y-105366156D01*
X151237077Y-105353421D01*
X151268388Y-105342359D01*
X151295713Y-105332830D01*
X151319480Y-105324691D01*
X151340119Y-105317803D01*
X151358056Y-105312025D01*
X151373720Y-105307215D01*
X151387540Y-105303234D01*
X151399942Y-105299939D01*
X151411356Y-105297191D01*
X151421034Y-105295090D01*
X151432875Y-105292634D01*
X151440508Y-105290774D01*
X151443718Y-105289177D01*
X151442294Y-105287508D01*
X151436022Y-105285433D01*
X151424688Y-105282616D01*
X151411042Y-105279420D01*
X151403567Y-105277573D01*
X151394958Y-105275246D01*
X151384867Y-105272323D01*
X151372944Y-105268689D01*
X151358840Y-105264228D01*
X151342205Y-105258824D01*
X151322689Y-105252362D01*
X151299944Y-105244726D01*
X151273619Y-105235800D01*
X151243365Y-105225469D01*
X151208833Y-105213617D01*
X151169673Y-105200129D01*
X151128601Y-105185947D01*
X150988083Y-105137386D01*
X150987329Y-105072178D01*
X150987196Y-105051017D01*
X150987313Y-105033450D01*
X150987668Y-105019957D01*
X150988247Y-105011017D01*
X150989034Y-105007108D01*
X150989235Y-105006971D01*
X150992350Y-105007949D01*
G37*
G36*
X149679457Y-106020914D02*
G01*
X149745531Y-106034099D01*
X149808978Y-106052217D01*
X149870035Y-106075366D01*
X149928940Y-106103650D01*
X149985932Y-106137168D01*
X150036778Y-106172639D01*
X150052513Y-106185242D01*
X150070796Y-106201155D01*
X150090667Y-106219434D01*
X150111171Y-106239136D01*
X150131347Y-106259316D01*
X150150239Y-106279032D01*
X150166888Y-106297339D01*
X150180335Y-106313293D01*
X150182926Y-106316597D01*
X150220372Y-106369227D01*
X150254121Y-106424886D01*
X150283705Y-106482657D01*
X150308657Y-106541625D01*
X150328508Y-106600873D01*
X150328994Y-106602556D01*
X150338416Y-106638806D01*
X150346436Y-106676749D01*
X150352954Y-106715418D01*
X150357867Y-106753842D01*
X150361074Y-106791055D01*
X150362473Y-106826086D01*
X150361963Y-106857966D01*
X150359441Y-106885727D01*
X150359003Y-106888711D01*
X150349683Y-106931805D01*
X150335523Y-106972210D01*
X150316736Y-107009702D01*
X150293531Y-107044057D01*
X150266121Y-107075053D01*
X150234716Y-107102464D01*
X150199529Y-107126069D01*
X150160769Y-107145643D01*
X150118649Y-107160964D01*
X150095795Y-107167102D01*
X150093454Y-107167609D01*
X150090707Y-107168083D01*
X150087355Y-107168524D01*
X150083197Y-107168934D01*
X150078033Y-107169315D01*
X150071663Y-107169668D01*
X150063886Y-107169995D01*
X150054503Y-107170298D01*
X150043314Y-107170579D01*
X150030117Y-107170838D01*
X150014714Y-107171078D01*
X149996903Y-107171300D01*
X149976485Y-107171507D01*
X149953259Y-107171699D01*
X149927026Y-107171878D01*
X149897584Y-107172046D01*
X149864735Y-107172205D01*
X149828277Y-107172355D01*
X149788011Y-107172500D01*
X149743736Y-107172640D01*
X149695252Y-107172777D01*
X149642360Y-107172913D01*
X149584858Y-107173050D01*
X149522546Y-107173188D01*
X149455226Y-107173330D01*
X149382695Y-107173478D01*
X149304755Y-107173633D01*
X149300465Y-107173641D01*
X148526211Y-107175161D01*
X148499513Y-107184455D01*
X148460211Y-107200932D01*
X148424495Y-107221696D01*
X148392458Y-107246634D01*
X148364193Y-107275631D01*
X148339793Y-107308570D01*
X148319351Y-107345338D01*
X148302958Y-107385819D01*
X148290708Y-107429899D01*
X148287123Y-107447765D01*
X148283360Y-107475534D01*
X148281204Y-107507075D01*
X148280629Y-107540785D01*
X148281609Y-107575059D01*
X148284118Y-107608290D01*
X148288130Y-107638876D01*
X148290427Y-107651387D01*
X148302040Y-107695693D01*
X148318190Y-107737213D01*
X148338660Y-107775659D01*
X148363235Y-107810738D01*
X148391699Y-107842159D01*
X148423837Y-107869632D01*
X148459434Y-107892866D01*
X148475531Y-107901372D01*
X148480550Y-107903956D01*
X148484888Y-107906348D01*
X148488767Y-107908556D01*
X148492404Y-107910588D01*
X148496021Y-107912451D01*
X148499836Y-107914153D01*
X148504070Y-107915703D01*
X148508941Y-107917107D01*
X148514671Y-107918375D01*
X148521478Y-107919513D01*
X148529581Y-107920529D01*
X148539202Y-107921431D01*
X148550559Y-107922228D01*
X148563872Y-107922926D01*
X148579360Y-107923534D01*
X148597244Y-107924060D01*
X148617743Y-107924510D01*
X148641077Y-107924894D01*
X148667465Y-107925218D01*
X148697128Y-107925492D01*
X148730284Y-107925721D01*
X148767153Y-107925915D01*
X148807955Y-107926082D01*
X148852910Y-107926228D01*
X148902238Y-107926362D01*
X148956157Y-107926491D01*
X149014889Y-107926624D01*
X149078651Y-107926767D01*
X149147665Y-107926930D01*
X149197887Y-107927056D01*
X149270440Y-107927241D01*
X149337600Y-107927410D01*
X149399590Y-107927567D01*
X149456637Y-107927719D01*
X149508967Y-107927869D01*
X149556806Y-107928023D01*
X149600380Y-107928187D01*
X149639914Y-107928365D01*
X149675635Y-107928562D01*
X149707768Y-107928783D01*
X149736539Y-107929034D01*
X149762174Y-107929319D01*
X149784900Y-107929643D01*
X149804941Y-107930013D01*
X149822525Y-107930432D01*
X149837876Y-107930905D01*
X149851220Y-107931439D01*
X149862784Y-107932037D01*
X149872794Y-107932705D01*
X149881475Y-107933449D01*
X149889053Y-107934272D01*
X149895754Y-107935180D01*
X149901804Y-107936179D01*
X149907429Y-107937273D01*
X149912854Y-107938467D01*
X149918307Y-107939767D01*
X149924012Y-107941177D01*
X149930195Y-107942703D01*
X149933770Y-107943567D01*
X149985140Y-107958691D01*
X150035087Y-107979031D01*
X150083120Y-108004261D01*
X150128744Y-108034053D01*
X150171470Y-108068081D01*
X150210803Y-108106018D01*
X150246253Y-108147536D01*
X150251684Y-108154695D01*
X150281313Y-108198444D01*
X150306295Y-108244170D01*
X150326880Y-108292457D01*
X150343322Y-108343889D01*
X150354956Y-108394230D01*
X150361056Y-108425769D01*
X150361508Y-108935849D01*
X150361550Y-108989111D01*
X150361580Y-109040941D01*
X150361599Y-109091053D01*
X150361607Y-109139159D01*
X150361604Y-109184974D01*
X150361591Y-109228211D01*
X150361568Y-109268583D01*
X150361535Y-109305804D01*
X150361493Y-109339587D01*
X150361441Y-109369646D01*
X150361380Y-109395695D01*
X150361311Y-109417446D01*
X150361233Y-109434614D01*
X150361147Y-109446912D01*
X150361053Y-109454053D01*
X150360991Y-109455765D01*
X150360316Y-109462644D01*
X150359255Y-109473460D01*
X150357971Y-109486555D01*
X150356996Y-109496515D01*
X150351886Y-109535346D01*
X150344062Y-109577010D01*
X150333965Y-109619690D01*
X150322038Y-109661569D01*
X150308723Y-109700830D01*
X150304649Y-109711507D01*
X150293560Y-109737949D01*
X150280281Y-109766682D01*
X150265756Y-109795816D01*
X150250927Y-109823465D01*
X150236738Y-109847740D01*
X150235923Y-109849057D01*
X150203578Y-109896794D01*
X150166913Y-109943253D01*
X150126730Y-109987630D01*
X150083827Y-110029118D01*
X150039006Y-110066911D01*
X149993065Y-110100206D01*
X149974950Y-110111839D01*
X149926732Y-110139201D01*
X149875687Y-110163580D01*
X149823115Y-110184460D01*
X149770317Y-110201329D01*
X149718592Y-110213672D01*
X149716082Y-110214157D01*
X149710214Y-110215294D01*
X149704772Y-110216363D01*
X149699579Y-110217366D01*
X149694457Y-110218305D01*
X149689228Y-110219183D01*
X149683714Y-110220001D01*
X149677736Y-110220762D01*
X149671117Y-110221468D01*
X149663679Y-110222120D01*
X149655243Y-110222721D01*
X149645633Y-110223273D01*
X149634669Y-110223778D01*
X149622173Y-110224238D01*
X149607969Y-110224655D01*
X149591877Y-110225031D01*
X149573719Y-110225369D01*
X149553319Y-110225670D01*
X149530497Y-110225936D01*
X149505076Y-110226170D01*
X149476877Y-110226374D01*
X149445723Y-110226550D01*
X149411436Y-110226699D01*
X149373837Y-110226824D01*
X149332749Y-110226927D01*
X149287994Y-110227011D01*
X149239393Y-110227076D01*
X149186768Y-110227126D01*
X149129943Y-110227162D01*
X149068737Y-110227187D01*
X149002975Y-110227202D01*
X148932477Y-110227209D01*
X148857065Y-110227212D01*
X148776562Y-110227211D01*
X148690790Y-110227209D01*
X148602091Y-110227208D01*
X147573501Y-110227208D01*
X147533156Y-110220777D01*
X147467082Y-110207592D01*
X147403635Y-110189475D01*
X147342578Y-110166325D01*
X147283673Y-110138041D01*
X147226681Y-110104523D01*
X147175835Y-110069052D01*
X147160100Y-110056449D01*
X147141818Y-110040536D01*
X147121946Y-110022257D01*
X147101442Y-110002556D01*
X147081266Y-109982375D01*
X147062374Y-109962660D01*
X147045726Y-109944353D01*
X147032278Y-109928398D01*
X147029687Y-109925094D01*
X146992241Y-109872464D01*
X146958492Y-109816806D01*
X146928908Y-109759034D01*
X146903956Y-109700067D01*
X146884105Y-109640818D01*
X146883619Y-109639135D01*
X146869494Y-109583627D01*
X146859642Y-109529545D01*
X146853794Y-109475003D01*
X146851683Y-109418111D01*
X146851667Y-109413610D01*
X146851711Y-109393212D01*
X146851947Y-109377390D01*
X146852452Y-109365099D01*
X146853306Y-109355293D01*
X146854585Y-109346928D01*
X146856368Y-109338960D01*
X146857575Y-109334427D01*
X146870421Y-109296674D01*
X146887156Y-109262638D01*
X146908176Y-109231632D01*
X146932784Y-109204052D01*
X146960624Y-109179790D01*
X146991227Y-109159741D01*
X147025246Y-109143534D01*
X147059955Y-109131744D01*
X147081688Y-109125548D01*
X148194589Y-109124079D01*
X148288966Y-109123953D01*
X148377887Y-109123832D01*
X148461516Y-109123715D01*
X148540018Y-109123601D01*
X148613558Y-109123489D01*
X148682300Y-109123377D01*
X148746410Y-109123266D01*
X148806051Y-109123154D01*
X148861388Y-109123040D01*
X148912585Y-109122924D01*
X148959808Y-109122804D01*
X149003222Y-109122679D01*
X149042989Y-109122549D01*
X149079276Y-109122413D01*
X149112247Y-109122269D01*
X149142066Y-109122118D01*
X149168898Y-109121957D01*
X149192908Y-109121787D01*
X149214260Y-109121605D01*
X149233119Y-109121412D01*
X149249650Y-109121205D01*
X149264016Y-109120986D01*
X149276384Y-109120751D01*
X149286916Y-109120502D01*
X149295778Y-109120235D01*
X149303135Y-109119952D01*
X149309152Y-109119650D01*
X149313991Y-109119329D01*
X149317819Y-109118988D01*
X149320801Y-109118627D01*
X149323099Y-109118243D01*
X149324880Y-109117836D01*
X149325071Y-109117785D01*
X149364718Y-109104265D01*
X149403812Y-109085869D01*
X149441137Y-109063302D01*
X149475472Y-109037268D01*
X149494928Y-109019495D01*
X149524120Y-108986830D01*
X149548829Y-108950821D01*
X149569014Y-108911569D01*
X149584631Y-108869176D01*
X149595640Y-108823741D01*
X149601998Y-108775368D01*
X149603067Y-108758797D01*
X149603050Y-108709245D01*
X149598128Y-108662280D01*
X149588405Y-108618049D01*
X149573987Y-108576701D01*
X149554979Y-108538386D01*
X149531489Y-108503252D01*
X149503621Y-108471447D01*
X149471481Y-108443121D01*
X149435175Y-108418423D01*
X149394808Y-108397501D01*
X149350487Y-108380504D01*
X149329973Y-108374366D01*
X149328150Y-108373948D01*
X149325694Y-108373554D01*
X149322432Y-108373183D01*
X149318189Y-108372835D01*
X149312792Y-108372508D01*
X149306066Y-108372200D01*
X149297837Y-108371912D01*
X149287932Y-108371642D01*
X149276176Y-108371388D01*
X149262395Y-108371150D01*
X149246415Y-108370927D01*
X149228062Y-108370717D01*
X149207162Y-108370520D01*
X149183540Y-108370334D01*
X149157024Y-108370158D01*
X149127438Y-108369991D01*
X149094608Y-108369832D01*
X149058362Y-108369680D01*
X149018523Y-108369534D01*
X148974919Y-108369393D01*
X148927375Y-108369255D01*
X148875718Y-108369120D01*
X148819773Y-108368986D01*
X148759365Y-108368853D01*
X148694322Y-108368719D01*
X148624469Y-108368583D01*
X148549631Y-108368445D01*
X148469635Y-108368302D01*
X148384307Y-108368154D01*
X148325271Y-108368054D01*
X148236235Y-108367902D01*
X148152646Y-108367755D01*
X148074328Y-108367613D01*
X148001107Y-108367474D01*
X147932809Y-108367338D01*
X147869258Y-108367203D01*
X147810281Y-108367068D01*
X147755702Y-108366933D01*
X147705347Y-108366795D01*
X147659042Y-108366654D01*
X147616611Y-108366509D01*
X147577881Y-108366359D01*
X147542677Y-108366202D01*
X147510824Y-108366038D01*
X147482147Y-108365866D01*
X147456472Y-108365684D01*
X147433625Y-108365491D01*
X147413430Y-108365287D01*
X147395714Y-108365069D01*
X147380302Y-108364838D01*
X147367018Y-108364592D01*
X147355689Y-108364330D01*
X147346140Y-108364050D01*
X147338196Y-108363753D01*
X147331683Y-108363436D01*
X147326426Y-108363098D01*
X147322251Y-108362739D01*
X147318982Y-108362358D01*
X147316446Y-108361953D01*
X147315629Y-108361791D01*
X147264049Y-108349199D01*
X147216975Y-108334053D01*
X147173811Y-108316152D01*
X147157860Y-108308355D01*
X147109327Y-108280475D01*
X147064264Y-108248341D01*
X147022885Y-108212268D01*
X146985405Y-108172572D01*
X146952039Y-108129568D01*
X146923000Y-108083571D01*
X146898503Y-108034896D01*
X146878762Y-107983858D01*
X146863991Y-107930773D01*
X146854406Y-107875956D01*
X146852598Y-107859483D01*
X146852179Y-107852734D01*
X146851803Y-107841691D01*
X146851468Y-107826255D01*
X146851176Y-107806331D01*
X146850925Y-107781818D01*
X146850715Y-107752620D01*
X146850546Y-107718640D01*
X146850418Y-107679779D01*
X146850329Y-107635939D01*
X146850280Y-107587023D01*
X146850270Y-107532934D01*
X146850300Y-107473572D01*
X146850368Y-107408842D01*
X146850474Y-107338645D01*
X146850551Y-107296006D01*
X146850679Y-107231288D01*
X146850804Y-107171941D01*
X146850930Y-107117717D01*
X146851057Y-107068367D01*
X146851190Y-107023640D01*
X146851330Y-106983289D01*
X146851480Y-106947063D01*
X146851644Y-106914715D01*
X146851822Y-106885994D01*
X146852019Y-106860652D01*
X146852236Y-106838439D01*
X146852476Y-106819107D01*
X146852742Y-106802406D01*
X146853036Y-106788088D01*
X146853361Y-106775902D01*
X146853719Y-106765600D01*
X146854113Y-106756933D01*
X146854546Y-106749652D01*
X146855019Y-106743507D01*
X146855537Y-106738250D01*
X146856100Y-106733630D01*
X146856385Y-106731587D01*
X146868707Y-106662697D01*
X146885339Y-106597172D01*
X146906466Y-106534558D01*
X146932275Y-106474403D01*
X146962948Y-106416253D01*
X146998672Y-106359657D01*
X147021081Y-106328300D01*
X147037264Y-106307929D01*
X147056905Y-106285385D01*
X147078947Y-106261726D01*
X147102337Y-106238012D01*
X147126019Y-106215301D01*
X147148938Y-106194651D01*
X147170040Y-106177122D01*
X147177240Y-106171590D01*
X147232472Y-106133467D01*
X147289151Y-106100703D01*
X147347593Y-106073171D01*
X147408113Y-106050742D01*
X147471029Y-106033286D01*
X147536655Y-106020676D01*
X147553828Y-106018225D01*
X147557216Y-106017886D01*
X147562241Y-106017567D01*
X147569062Y-106017268D01*
X147577836Y-106016988D01*
X147588721Y-106016726D01*
X147601874Y-106016482D01*
X147617452Y-106016255D01*
X147635614Y-106016045D01*
X147656516Y-106015851D01*
X147680317Y-106015673D01*
X147707173Y-106015510D01*
X147737243Y-106015361D01*
X147770684Y-106015226D01*
X147807654Y-106015104D01*
X147848309Y-106014995D01*
X147892808Y-106014899D01*
X147941308Y-106014814D01*
X147993967Y-106014740D01*
X148050942Y-106014677D01*
X148112391Y-106014624D01*
X148178471Y-106014580D01*
X148249340Y-106014545D01*
X148325155Y-106014519D01*
X148406074Y-106014500D01*
X148492255Y-106014489D01*
X148583855Y-106014484D01*
X148610522Y-106014484D01*
X149639112Y-106014484D01*
X149679457Y-106020914D01*
G37*
D11*
%TO.C,C6*%
X153765000Y-104011252D02*
X153765000Y-103488748D01*
X155235000Y-104011252D02*
X155235000Y-103488748D01*
%TO.C,D2*%
X124006250Y-100960000D02*
X126691250Y-100960000D01*
X126691250Y-99040000D02*
X124006250Y-99040000D01*
X126691250Y-100960000D02*
X126691250Y-99040000D01*
%TO.C,C13*%
X153765000Y-107488748D02*
X153765000Y-108011252D01*
X155235000Y-107488748D02*
X155235000Y-108011252D01*
%TD*%
M02*
