%TF.GenerationSoftware,KiCad,Pcbnew,8.0.3*%
%TF.CreationDate,2024-06-30T21:57:39+02:00*%
%TF.ProjectId,black_pill,626c6163-6b5f-4706-996c-6c2e6b696361,rev?*%
%TF.SameCoordinates,Original*%
%TF.FileFunction,Legend,Bot*%
%TF.FilePolarity,Positive*%
%FSLAX46Y46*%
G04 Gerber Fmt 4.6, Leading zero omitted, Abs format (unit mm)*
G04 Created by KiCad (PCBNEW 8.0.3) date 2024-06-30 21:57:39*
%MOMM*%
%LPD*%
G01*
G04 APERTURE LIST*
%ADD10C,0.100000*%
%ADD11C,0.120000*%
G04 APERTURE END LIST*
D10*
X157186704Y-94456265D02*
X157186704Y-94932455D01*
X157472419Y-94361027D02*
X156472419Y-94694360D01*
X156472419Y-94694360D02*
X157472419Y-95027693D01*
X156900990Y-95503884D02*
X156853371Y-95408646D01*
X156853371Y-95408646D02*
X156805752Y-95361027D01*
X156805752Y-95361027D02*
X156710514Y-95313408D01*
X156710514Y-95313408D02*
X156662895Y-95313408D01*
X156662895Y-95313408D02*
X156567657Y-95361027D01*
X156567657Y-95361027D02*
X156520038Y-95408646D01*
X156520038Y-95408646D02*
X156472419Y-95503884D01*
X156472419Y-95503884D02*
X156472419Y-95694360D01*
X156472419Y-95694360D02*
X156520038Y-95789598D01*
X156520038Y-95789598D02*
X156567657Y-95837217D01*
X156567657Y-95837217D02*
X156662895Y-95884836D01*
X156662895Y-95884836D02*
X156710514Y-95884836D01*
X156710514Y-95884836D02*
X156805752Y-95837217D01*
X156805752Y-95837217D02*
X156853371Y-95789598D01*
X156853371Y-95789598D02*
X156900990Y-95694360D01*
X156900990Y-95694360D02*
X156900990Y-95503884D01*
X156900990Y-95503884D02*
X156948609Y-95408646D01*
X156948609Y-95408646D02*
X156996228Y-95361027D01*
X156996228Y-95361027D02*
X157091466Y-95313408D01*
X157091466Y-95313408D02*
X157281942Y-95313408D01*
X157281942Y-95313408D02*
X157377180Y-95361027D01*
X157377180Y-95361027D02*
X157424800Y-95408646D01*
X157424800Y-95408646D02*
X157472419Y-95503884D01*
X157472419Y-95503884D02*
X157472419Y-95694360D01*
X157472419Y-95694360D02*
X157424800Y-95789598D01*
X157424800Y-95789598D02*
X157377180Y-95837217D01*
X157377180Y-95837217D02*
X157281942Y-95884836D01*
X157281942Y-95884836D02*
X157091466Y-95884836D01*
X157091466Y-95884836D02*
X156996228Y-95837217D01*
X156996228Y-95837217D02*
X156948609Y-95789598D01*
X156948609Y-95789598D02*
X156900990Y-95694360D01*
X144386704Y-110056265D02*
X144386704Y-110532455D01*
X144672419Y-109961027D02*
X143672419Y-110294360D01*
X143672419Y-110294360D02*
X144672419Y-110627693D01*
X143672419Y-111389598D02*
X143672419Y-111199122D01*
X143672419Y-111199122D02*
X143720038Y-111103884D01*
X143720038Y-111103884D02*
X143767657Y-111056265D01*
X143767657Y-111056265D02*
X143910514Y-110961027D01*
X143910514Y-110961027D02*
X144100990Y-110913408D01*
X144100990Y-110913408D02*
X144481942Y-110913408D01*
X144481942Y-110913408D02*
X144577180Y-110961027D01*
X144577180Y-110961027D02*
X144624800Y-111008646D01*
X144624800Y-111008646D02*
X144672419Y-111103884D01*
X144672419Y-111103884D02*
X144672419Y-111294360D01*
X144672419Y-111294360D02*
X144624800Y-111389598D01*
X144624800Y-111389598D02*
X144577180Y-111437217D01*
X144577180Y-111437217D02*
X144481942Y-111484836D01*
X144481942Y-111484836D02*
X144243847Y-111484836D01*
X144243847Y-111484836D02*
X144148609Y-111437217D01*
X144148609Y-111437217D02*
X144100990Y-111389598D01*
X144100990Y-111389598D02*
X144053371Y-111294360D01*
X144053371Y-111294360D02*
X144053371Y-111103884D01*
X144053371Y-111103884D02*
X144100990Y-111008646D01*
X144100990Y-111008646D02*
X144148609Y-110961027D01*
X144148609Y-110961027D02*
X144243847Y-110913408D01*
X131786704Y-110056265D02*
X131786704Y-110532455D01*
X132072419Y-109961027D02*
X131072419Y-110294360D01*
X131072419Y-110294360D02*
X132072419Y-110627693D01*
X132072419Y-111484836D02*
X132072419Y-110913408D01*
X132072419Y-111199122D02*
X131072419Y-111199122D01*
X131072419Y-111199122D02*
X131215276Y-111103884D01*
X131215276Y-111103884D02*
X131310514Y-111008646D01*
X131310514Y-111008646D02*
X131358133Y-110913408D01*
X136786704Y-110056265D02*
X136786704Y-110532455D01*
X137072419Y-109961027D02*
X136072419Y-110294360D01*
X136072419Y-110294360D02*
X137072419Y-110627693D01*
X136072419Y-110865789D02*
X136072419Y-111484836D01*
X136072419Y-111484836D02*
X136453371Y-111151503D01*
X136453371Y-111151503D02*
X136453371Y-111294360D01*
X136453371Y-111294360D02*
X136500990Y-111389598D01*
X136500990Y-111389598D02*
X136548609Y-111437217D01*
X136548609Y-111437217D02*
X136643847Y-111484836D01*
X136643847Y-111484836D02*
X136881942Y-111484836D01*
X136881942Y-111484836D02*
X136977180Y-111437217D01*
X136977180Y-111437217D02*
X137024800Y-111389598D01*
X137024800Y-111389598D02*
X137072419Y-111294360D01*
X137072419Y-111294360D02*
X137072419Y-111008646D01*
X137072419Y-111008646D02*
X137024800Y-110913408D01*
X137024800Y-110913408D02*
X136977180Y-110865789D01*
X159548609Y-109237217D02*
X159596228Y-109380074D01*
X159596228Y-109380074D02*
X159643847Y-109427693D01*
X159643847Y-109427693D02*
X159739085Y-109475312D01*
X159739085Y-109475312D02*
X159881942Y-109475312D01*
X159881942Y-109475312D02*
X159977180Y-109427693D01*
X159977180Y-109427693D02*
X160024800Y-109380074D01*
X160024800Y-109380074D02*
X160072419Y-109284836D01*
X160072419Y-109284836D02*
X160072419Y-108903884D01*
X160072419Y-108903884D02*
X159072419Y-108903884D01*
X159072419Y-108903884D02*
X159072419Y-109237217D01*
X159072419Y-109237217D02*
X159120038Y-109332455D01*
X159120038Y-109332455D02*
X159167657Y-109380074D01*
X159167657Y-109380074D02*
X159262895Y-109427693D01*
X159262895Y-109427693D02*
X159358133Y-109427693D01*
X159358133Y-109427693D02*
X159453371Y-109380074D01*
X159453371Y-109380074D02*
X159500990Y-109332455D01*
X159500990Y-109332455D02*
X159548609Y-109237217D01*
X159548609Y-109237217D02*
X159548609Y-108903884D01*
X160072419Y-110427693D02*
X160072419Y-109856265D01*
X160072419Y-110141979D02*
X159072419Y-110141979D01*
X159072419Y-110141979D02*
X159215276Y-110046741D01*
X159215276Y-110046741D02*
X159310514Y-109951503D01*
X159310514Y-109951503D02*
X159358133Y-109856265D01*
X160072419Y-111380074D02*
X160072419Y-110808646D01*
X160072419Y-111094360D02*
X159072419Y-111094360D01*
X159072419Y-111094360D02*
X159215276Y-110999122D01*
X159215276Y-110999122D02*
X159310514Y-110903884D01*
X159310514Y-110903884D02*
X159358133Y-110808646D01*
X126548609Y-94837217D02*
X126596228Y-94980074D01*
X126596228Y-94980074D02*
X126643847Y-95027693D01*
X126643847Y-95027693D02*
X126739085Y-95075312D01*
X126739085Y-95075312D02*
X126881942Y-95075312D01*
X126881942Y-95075312D02*
X126977180Y-95027693D01*
X126977180Y-95027693D02*
X127024800Y-94980074D01*
X127024800Y-94980074D02*
X127072419Y-94884836D01*
X127072419Y-94884836D02*
X127072419Y-94503884D01*
X127072419Y-94503884D02*
X126072419Y-94503884D01*
X126072419Y-94503884D02*
X126072419Y-94837217D01*
X126072419Y-94837217D02*
X126120038Y-94932455D01*
X126120038Y-94932455D02*
X126167657Y-94980074D01*
X126167657Y-94980074D02*
X126262895Y-95027693D01*
X126262895Y-95027693D02*
X126358133Y-95027693D01*
X126358133Y-95027693D02*
X126453371Y-94980074D01*
X126453371Y-94980074D02*
X126500990Y-94932455D01*
X126500990Y-94932455D02*
X126548609Y-94837217D01*
X126548609Y-94837217D02*
X126548609Y-94503884D01*
X127072419Y-95551503D02*
X127072419Y-95741979D01*
X127072419Y-95741979D02*
X127024800Y-95837217D01*
X127024800Y-95837217D02*
X126977180Y-95884836D01*
X126977180Y-95884836D02*
X126834323Y-95980074D01*
X126834323Y-95980074D02*
X126643847Y-96027693D01*
X126643847Y-96027693D02*
X126262895Y-96027693D01*
X126262895Y-96027693D02*
X126167657Y-95980074D01*
X126167657Y-95980074D02*
X126120038Y-95932455D01*
X126120038Y-95932455D02*
X126072419Y-95837217D01*
X126072419Y-95837217D02*
X126072419Y-95646741D01*
X126072419Y-95646741D02*
X126120038Y-95551503D01*
X126120038Y-95551503D02*
X126167657Y-95503884D01*
X126167657Y-95503884D02*
X126262895Y-95456265D01*
X126262895Y-95456265D02*
X126500990Y-95456265D01*
X126500990Y-95456265D02*
X126596228Y-95503884D01*
X126596228Y-95503884D02*
X126643847Y-95551503D01*
X126643847Y-95551503D02*
X126691466Y-95646741D01*
X126691466Y-95646741D02*
X126691466Y-95837217D01*
X126691466Y-95837217D02*
X126643847Y-95932455D01*
X126643847Y-95932455D02*
X126596228Y-95980074D01*
X126596228Y-95980074D02*
X126500990Y-96027693D01*
X161948609Y-94837217D02*
X161996228Y-94980074D01*
X161996228Y-94980074D02*
X162043847Y-95027693D01*
X162043847Y-95027693D02*
X162139085Y-95075312D01*
X162139085Y-95075312D02*
X162281942Y-95075312D01*
X162281942Y-95075312D02*
X162377180Y-95027693D01*
X162377180Y-95027693D02*
X162424800Y-94980074D01*
X162424800Y-94980074D02*
X162472419Y-94884836D01*
X162472419Y-94884836D02*
X162472419Y-94503884D01*
X162472419Y-94503884D02*
X161472419Y-94503884D01*
X161472419Y-94503884D02*
X161472419Y-94837217D01*
X161472419Y-94837217D02*
X161520038Y-94932455D01*
X161520038Y-94932455D02*
X161567657Y-94980074D01*
X161567657Y-94980074D02*
X161662895Y-95027693D01*
X161662895Y-95027693D02*
X161758133Y-95027693D01*
X161758133Y-95027693D02*
X161853371Y-94980074D01*
X161853371Y-94980074D02*
X161900990Y-94932455D01*
X161900990Y-94932455D02*
X161948609Y-94837217D01*
X161948609Y-94837217D02*
X161948609Y-94503884D01*
X162472419Y-96027693D02*
X162472419Y-95456265D01*
X162472419Y-95741979D02*
X161472419Y-95741979D01*
X161472419Y-95741979D02*
X161615276Y-95646741D01*
X161615276Y-95646741D02*
X161710514Y-95551503D01*
X161710514Y-95551503D02*
X161758133Y-95456265D01*
X161805752Y-96884836D02*
X162472419Y-96884836D01*
X161424800Y-96646741D02*
X162139085Y-96408646D01*
X162139085Y-96408646D02*
X162139085Y-97027693D01*
X139148609Y-94837217D02*
X139196228Y-94980074D01*
X139196228Y-94980074D02*
X139243847Y-95027693D01*
X139243847Y-95027693D02*
X139339085Y-95075312D01*
X139339085Y-95075312D02*
X139481942Y-95075312D01*
X139481942Y-95075312D02*
X139577180Y-95027693D01*
X139577180Y-95027693D02*
X139624800Y-94980074D01*
X139624800Y-94980074D02*
X139672419Y-94884836D01*
X139672419Y-94884836D02*
X139672419Y-94503884D01*
X139672419Y-94503884D02*
X138672419Y-94503884D01*
X138672419Y-94503884D02*
X138672419Y-94837217D01*
X138672419Y-94837217D02*
X138720038Y-94932455D01*
X138720038Y-94932455D02*
X138767657Y-94980074D01*
X138767657Y-94980074D02*
X138862895Y-95027693D01*
X138862895Y-95027693D02*
X138958133Y-95027693D01*
X138958133Y-95027693D02*
X139053371Y-94980074D01*
X139053371Y-94980074D02*
X139100990Y-94932455D01*
X139100990Y-94932455D02*
X139148609Y-94837217D01*
X139148609Y-94837217D02*
X139148609Y-94503884D01*
X139005752Y-95932455D02*
X139672419Y-95932455D01*
X138624800Y-95694360D02*
X139339085Y-95456265D01*
X139339085Y-95456265D02*
X139339085Y-96075312D01*
X166672419Y-110580074D02*
X166672419Y-110103884D01*
X166672419Y-110103884D02*
X167148609Y-110056265D01*
X167148609Y-110056265D02*
X167100990Y-110103884D01*
X167100990Y-110103884D02*
X167053371Y-110199122D01*
X167053371Y-110199122D02*
X167053371Y-110437217D01*
X167053371Y-110437217D02*
X167100990Y-110532455D01*
X167100990Y-110532455D02*
X167148609Y-110580074D01*
X167148609Y-110580074D02*
X167243847Y-110627693D01*
X167243847Y-110627693D02*
X167481942Y-110627693D01*
X167481942Y-110627693D02*
X167577180Y-110580074D01*
X167577180Y-110580074D02*
X167624800Y-110532455D01*
X167624800Y-110532455D02*
X167672419Y-110437217D01*
X167672419Y-110437217D02*
X167672419Y-110199122D01*
X167672419Y-110199122D02*
X167624800Y-110103884D01*
X167624800Y-110103884D02*
X167577180Y-110056265D01*
X166672419Y-110913408D02*
X167672419Y-111246741D01*
X167672419Y-111246741D02*
X166672419Y-111580074D01*
X167148609Y-94837217D02*
X167196228Y-94980074D01*
X167196228Y-94980074D02*
X167243847Y-95027693D01*
X167243847Y-95027693D02*
X167339085Y-95075312D01*
X167339085Y-95075312D02*
X167481942Y-95075312D01*
X167481942Y-95075312D02*
X167577180Y-95027693D01*
X167577180Y-95027693D02*
X167624800Y-94980074D01*
X167624800Y-94980074D02*
X167672419Y-94884836D01*
X167672419Y-94884836D02*
X167672419Y-94503884D01*
X167672419Y-94503884D02*
X166672419Y-94503884D01*
X166672419Y-94503884D02*
X166672419Y-94837217D01*
X166672419Y-94837217D02*
X166720038Y-94932455D01*
X166720038Y-94932455D02*
X166767657Y-94980074D01*
X166767657Y-94980074D02*
X166862895Y-95027693D01*
X166862895Y-95027693D02*
X166958133Y-95027693D01*
X166958133Y-95027693D02*
X167053371Y-94980074D01*
X167053371Y-94980074D02*
X167100990Y-94932455D01*
X167100990Y-94932455D02*
X167148609Y-94837217D01*
X167148609Y-94837217D02*
X167148609Y-94503884D01*
X167672419Y-96027693D02*
X167672419Y-95456265D01*
X167672419Y-95741979D02*
X166672419Y-95741979D01*
X166672419Y-95741979D02*
X166815276Y-95646741D01*
X166815276Y-95646741D02*
X166910514Y-95551503D01*
X166910514Y-95551503D02*
X166958133Y-95456265D01*
X166767657Y-96408646D02*
X166720038Y-96456265D01*
X166720038Y-96456265D02*
X166672419Y-96551503D01*
X166672419Y-96551503D02*
X166672419Y-96789598D01*
X166672419Y-96789598D02*
X166720038Y-96884836D01*
X166720038Y-96884836D02*
X166767657Y-96932455D01*
X166767657Y-96932455D02*
X166862895Y-96980074D01*
X166862895Y-96980074D02*
X166958133Y-96980074D01*
X166958133Y-96980074D02*
X167100990Y-96932455D01*
X167100990Y-96932455D02*
X167672419Y-96361027D01*
X167672419Y-96361027D02*
X167672419Y-96980074D01*
X118372419Y-94408646D02*
X118372419Y-95027693D01*
X118372419Y-95027693D02*
X118753371Y-94694360D01*
X118753371Y-94694360D02*
X118753371Y-94837217D01*
X118753371Y-94837217D02*
X118800990Y-94932455D01*
X118800990Y-94932455D02*
X118848609Y-94980074D01*
X118848609Y-94980074D02*
X118943847Y-95027693D01*
X118943847Y-95027693D02*
X119181942Y-95027693D01*
X119181942Y-95027693D02*
X119277180Y-94980074D01*
X119277180Y-94980074D02*
X119324800Y-94932455D01*
X119324800Y-94932455D02*
X119372419Y-94837217D01*
X119372419Y-94837217D02*
X119372419Y-94551503D01*
X119372419Y-94551503D02*
X119324800Y-94456265D01*
X119324800Y-94456265D02*
X119277180Y-94408646D01*
X118372419Y-95313408D02*
X119372419Y-95646741D01*
X119372419Y-95646741D02*
X118372419Y-95980074D01*
X118372419Y-96218170D02*
X118372419Y-96837217D01*
X118372419Y-96837217D02*
X118753371Y-96503884D01*
X118753371Y-96503884D02*
X118753371Y-96646741D01*
X118753371Y-96646741D02*
X118800990Y-96741979D01*
X118800990Y-96741979D02*
X118848609Y-96789598D01*
X118848609Y-96789598D02*
X118943847Y-96837217D01*
X118943847Y-96837217D02*
X119181942Y-96837217D01*
X119181942Y-96837217D02*
X119277180Y-96789598D01*
X119277180Y-96789598D02*
X119324800Y-96741979D01*
X119324800Y-96741979D02*
X119372419Y-96646741D01*
X119372419Y-96646741D02*
X119372419Y-96361027D01*
X119372419Y-96361027D02*
X119324800Y-96265789D01*
X119324800Y-96265789D02*
X119277180Y-96218170D01*
X146986704Y-110056265D02*
X146986704Y-110532455D01*
X147272419Y-109961027D02*
X146272419Y-110294360D01*
X146272419Y-110294360D02*
X147272419Y-110627693D01*
X146272419Y-110865789D02*
X146272419Y-111532455D01*
X146272419Y-111532455D02*
X147272419Y-111103884D01*
X119543734Y-102324800D02*
X119400877Y-102372419D01*
X119400877Y-102372419D02*
X119162782Y-102372419D01*
X119162782Y-102372419D02*
X119067544Y-102324800D01*
X119067544Y-102324800D02*
X119019925Y-102277180D01*
X119019925Y-102277180D02*
X118972306Y-102181942D01*
X118972306Y-102181942D02*
X118972306Y-102086704D01*
X118972306Y-102086704D02*
X119019925Y-101991466D01*
X119019925Y-101991466D02*
X119067544Y-101943847D01*
X119067544Y-101943847D02*
X119162782Y-101896228D01*
X119162782Y-101896228D02*
X119353258Y-101848609D01*
X119353258Y-101848609D02*
X119448496Y-101800990D01*
X119448496Y-101800990D02*
X119496115Y-101753371D01*
X119496115Y-101753371D02*
X119543734Y-101658133D01*
X119543734Y-101658133D02*
X119543734Y-101562895D01*
X119543734Y-101562895D02*
X119496115Y-101467657D01*
X119496115Y-101467657D02*
X119448496Y-101420038D01*
X119448496Y-101420038D02*
X119353258Y-101372419D01*
X119353258Y-101372419D02*
X119115163Y-101372419D01*
X119115163Y-101372419D02*
X118972306Y-101420038D01*
X118638972Y-101372419D02*
X118400877Y-102372419D01*
X118400877Y-102372419D02*
X118210401Y-101658133D01*
X118210401Y-101658133D02*
X118019925Y-102372419D01*
X118019925Y-102372419D02*
X117781830Y-101372419D01*
X117400877Y-102372419D02*
X117400877Y-101372419D01*
X117400877Y-101372419D02*
X117162782Y-101372419D01*
X117162782Y-101372419D02*
X117019925Y-101420038D01*
X117019925Y-101420038D02*
X116924687Y-101515276D01*
X116924687Y-101515276D02*
X116877068Y-101610514D01*
X116877068Y-101610514D02*
X116829449Y-101800990D01*
X116829449Y-101800990D02*
X116829449Y-101943847D01*
X116829449Y-101943847D02*
X116877068Y-102134323D01*
X116877068Y-102134323D02*
X116924687Y-102229561D01*
X116924687Y-102229561D02*
X117019925Y-102324800D01*
X117019925Y-102324800D02*
X117162782Y-102372419D01*
X117162782Y-102372419D02*
X117400877Y-102372419D01*
X116400877Y-102372419D02*
X116400877Y-101372419D01*
X115734211Y-101372419D02*
X115543735Y-101372419D01*
X115543735Y-101372419D02*
X115448497Y-101420038D01*
X115448497Y-101420038D02*
X115353259Y-101515276D01*
X115353259Y-101515276D02*
X115305640Y-101705752D01*
X115305640Y-101705752D02*
X115305640Y-102039085D01*
X115305640Y-102039085D02*
X115353259Y-102229561D01*
X115353259Y-102229561D02*
X115448497Y-102324800D01*
X115448497Y-102324800D02*
X115543735Y-102372419D01*
X115543735Y-102372419D02*
X115734211Y-102372419D01*
X115734211Y-102372419D02*
X115829449Y-102324800D01*
X115829449Y-102324800D02*
X115924687Y-102229561D01*
X115924687Y-102229561D02*
X115972306Y-102039085D01*
X115972306Y-102039085D02*
X115972306Y-101705752D01*
X115972306Y-101705752D02*
X115924687Y-101515276D01*
X115924687Y-101515276D02*
X115829449Y-101420038D01*
X115829449Y-101420038D02*
X115734211Y-101372419D01*
X127072419Y-108103884D02*
X126072419Y-108103884D01*
X126072419Y-108103884D02*
X127072419Y-108675312D01*
X127072419Y-108675312D02*
X126072419Y-108675312D01*
X127072419Y-109722931D02*
X126596228Y-109389598D01*
X127072419Y-109151503D02*
X126072419Y-109151503D01*
X126072419Y-109151503D02*
X126072419Y-109532455D01*
X126072419Y-109532455D02*
X126120038Y-109627693D01*
X126120038Y-109627693D02*
X126167657Y-109675312D01*
X126167657Y-109675312D02*
X126262895Y-109722931D01*
X126262895Y-109722931D02*
X126405752Y-109722931D01*
X126405752Y-109722931D02*
X126500990Y-109675312D01*
X126500990Y-109675312D02*
X126548609Y-109627693D01*
X126548609Y-109627693D02*
X126596228Y-109532455D01*
X126596228Y-109532455D02*
X126596228Y-109151503D01*
X127024800Y-110103884D02*
X127072419Y-110246741D01*
X127072419Y-110246741D02*
X127072419Y-110484836D01*
X127072419Y-110484836D02*
X127024800Y-110580074D01*
X127024800Y-110580074D02*
X126977180Y-110627693D01*
X126977180Y-110627693D02*
X126881942Y-110675312D01*
X126881942Y-110675312D02*
X126786704Y-110675312D01*
X126786704Y-110675312D02*
X126691466Y-110627693D01*
X126691466Y-110627693D02*
X126643847Y-110580074D01*
X126643847Y-110580074D02*
X126596228Y-110484836D01*
X126596228Y-110484836D02*
X126548609Y-110294360D01*
X126548609Y-110294360D02*
X126500990Y-110199122D01*
X126500990Y-110199122D02*
X126453371Y-110151503D01*
X126453371Y-110151503D02*
X126358133Y-110103884D01*
X126358133Y-110103884D02*
X126262895Y-110103884D01*
X126262895Y-110103884D02*
X126167657Y-110151503D01*
X126167657Y-110151503D02*
X126120038Y-110199122D01*
X126120038Y-110199122D02*
X126072419Y-110294360D01*
X126072419Y-110294360D02*
X126072419Y-110532455D01*
X126072419Y-110532455D02*
X126120038Y-110675312D01*
X126072419Y-110961027D02*
X126072419Y-111532455D01*
X127072419Y-111246741D02*
X126072419Y-111246741D01*
X141748609Y-94837217D02*
X141796228Y-94980074D01*
X141796228Y-94980074D02*
X141843847Y-95027693D01*
X141843847Y-95027693D02*
X141939085Y-95075312D01*
X141939085Y-95075312D02*
X142081942Y-95075312D01*
X142081942Y-95075312D02*
X142177180Y-95027693D01*
X142177180Y-95027693D02*
X142224800Y-94980074D01*
X142224800Y-94980074D02*
X142272419Y-94884836D01*
X142272419Y-94884836D02*
X142272419Y-94503884D01*
X142272419Y-94503884D02*
X141272419Y-94503884D01*
X141272419Y-94503884D02*
X141272419Y-94837217D01*
X141272419Y-94837217D02*
X141320038Y-94932455D01*
X141320038Y-94932455D02*
X141367657Y-94980074D01*
X141367657Y-94980074D02*
X141462895Y-95027693D01*
X141462895Y-95027693D02*
X141558133Y-95027693D01*
X141558133Y-95027693D02*
X141653371Y-94980074D01*
X141653371Y-94980074D02*
X141700990Y-94932455D01*
X141700990Y-94932455D02*
X141748609Y-94837217D01*
X141748609Y-94837217D02*
X141748609Y-94503884D01*
X141272419Y-95408646D02*
X141272419Y-96027693D01*
X141272419Y-96027693D02*
X141653371Y-95694360D01*
X141653371Y-95694360D02*
X141653371Y-95837217D01*
X141653371Y-95837217D02*
X141700990Y-95932455D01*
X141700990Y-95932455D02*
X141748609Y-95980074D01*
X141748609Y-95980074D02*
X141843847Y-96027693D01*
X141843847Y-96027693D02*
X142081942Y-96027693D01*
X142081942Y-96027693D02*
X142177180Y-95980074D01*
X142177180Y-95980074D02*
X142224800Y-95932455D01*
X142224800Y-95932455D02*
X142272419Y-95837217D01*
X142272419Y-95837217D02*
X142272419Y-95551503D01*
X142272419Y-95551503D02*
X142224800Y-95456265D01*
X142224800Y-95456265D02*
X142177180Y-95408646D01*
X154548609Y-110237217D02*
X154596228Y-110380074D01*
X154596228Y-110380074D02*
X154643847Y-110427693D01*
X154643847Y-110427693D02*
X154739085Y-110475312D01*
X154739085Y-110475312D02*
X154881942Y-110475312D01*
X154881942Y-110475312D02*
X154977180Y-110427693D01*
X154977180Y-110427693D02*
X155024800Y-110380074D01*
X155024800Y-110380074D02*
X155072419Y-110284836D01*
X155072419Y-110284836D02*
X155072419Y-109903884D01*
X155072419Y-109903884D02*
X154072419Y-109903884D01*
X154072419Y-109903884D02*
X154072419Y-110237217D01*
X154072419Y-110237217D02*
X154120038Y-110332455D01*
X154120038Y-110332455D02*
X154167657Y-110380074D01*
X154167657Y-110380074D02*
X154262895Y-110427693D01*
X154262895Y-110427693D02*
X154358133Y-110427693D01*
X154358133Y-110427693D02*
X154453371Y-110380074D01*
X154453371Y-110380074D02*
X154500990Y-110332455D01*
X154500990Y-110332455D02*
X154548609Y-110237217D01*
X154548609Y-110237217D02*
X154548609Y-109903884D01*
X154167657Y-110856265D02*
X154120038Y-110903884D01*
X154120038Y-110903884D02*
X154072419Y-110999122D01*
X154072419Y-110999122D02*
X154072419Y-111237217D01*
X154072419Y-111237217D02*
X154120038Y-111332455D01*
X154120038Y-111332455D02*
X154167657Y-111380074D01*
X154167657Y-111380074D02*
X154262895Y-111427693D01*
X154262895Y-111427693D02*
X154358133Y-111427693D01*
X154358133Y-111427693D02*
X154500990Y-111380074D01*
X154500990Y-111380074D02*
X155072419Y-110808646D01*
X155072419Y-110808646D02*
X155072419Y-111427693D01*
X131548609Y-94837217D02*
X131596228Y-94980074D01*
X131596228Y-94980074D02*
X131643847Y-95027693D01*
X131643847Y-95027693D02*
X131739085Y-95075312D01*
X131739085Y-95075312D02*
X131881942Y-95075312D01*
X131881942Y-95075312D02*
X131977180Y-95027693D01*
X131977180Y-95027693D02*
X132024800Y-94980074D01*
X132024800Y-94980074D02*
X132072419Y-94884836D01*
X132072419Y-94884836D02*
X132072419Y-94503884D01*
X132072419Y-94503884D02*
X131072419Y-94503884D01*
X131072419Y-94503884D02*
X131072419Y-94837217D01*
X131072419Y-94837217D02*
X131120038Y-94932455D01*
X131120038Y-94932455D02*
X131167657Y-94980074D01*
X131167657Y-94980074D02*
X131262895Y-95027693D01*
X131262895Y-95027693D02*
X131358133Y-95027693D01*
X131358133Y-95027693D02*
X131453371Y-94980074D01*
X131453371Y-94980074D02*
X131500990Y-94932455D01*
X131500990Y-94932455D02*
X131548609Y-94837217D01*
X131548609Y-94837217D02*
X131548609Y-94503884D01*
X131072419Y-95408646D02*
X131072419Y-96075312D01*
X131072419Y-96075312D02*
X132072419Y-95646741D01*
X156948609Y-109237217D02*
X156996228Y-109380074D01*
X156996228Y-109380074D02*
X157043847Y-109427693D01*
X157043847Y-109427693D02*
X157139085Y-109475312D01*
X157139085Y-109475312D02*
X157281942Y-109475312D01*
X157281942Y-109475312D02*
X157377180Y-109427693D01*
X157377180Y-109427693D02*
X157424800Y-109380074D01*
X157424800Y-109380074D02*
X157472419Y-109284836D01*
X157472419Y-109284836D02*
X157472419Y-108903884D01*
X157472419Y-108903884D02*
X156472419Y-108903884D01*
X156472419Y-108903884D02*
X156472419Y-109237217D01*
X156472419Y-109237217D02*
X156520038Y-109332455D01*
X156520038Y-109332455D02*
X156567657Y-109380074D01*
X156567657Y-109380074D02*
X156662895Y-109427693D01*
X156662895Y-109427693D02*
X156758133Y-109427693D01*
X156758133Y-109427693D02*
X156853371Y-109380074D01*
X156853371Y-109380074D02*
X156900990Y-109332455D01*
X156900990Y-109332455D02*
X156948609Y-109237217D01*
X156948609Y-109237217D02*
X156948609Y-108903884D01*
X157472419Y-110427693D02*
X157472419Y-109856265D01*
X157472419Y-110141979D02*
X156472419Y-110141979D01*
X156472419Y-110141979D02*
X156615276Y-110046741D01*
X156615276Y-110046741D02*
X156710514Y-109951503D01*
X156710514Y-109951503D02*
X156758133Y-109856265D01*
X156472419Y-111046741D02*
X156472419Y-111141979D01*
X156472419Y-111141979D02*
X156520038Y-111237217D01*
X156520038Y-111237217D02*
X156567657Y-111284836D01*
X156567657Y-111284836D02*
X156662895Y-111332455D01*
X156662895Y-111332455D02*
X156853371Y-111380074D01*
X156853371Y-111380074D02*
X157091466Y-111380074D01*
X157091466Y-111380074D02*
X157281942Y-111332455D01*
X157281942Y-111332455D02*
X157377180Y-111284836D01*
X157377180Y-111284836D02*
X157424800Y-111237217D01*
X157424800Y-111237217D02*
X157472419Y-111141979D01*
X157472419Y-111141979D02*
X157472419Y-111046741D01*
X157472419Y-111046741D02*
X157424800Y-110951503D01*
X157424800Y-110951503D02*
X157377180Y-110903884D01*
X157377180Y-110903884D02*
X157281942Y-110856265D01*
X157281942Y-110856265D02*
X157091466Y-110808646D01*
X157091466Y-110808646D02*
X156853371Y-110808646D01*
X156853371Y-110808646D02*
X156662895Y-110856265D01*
X156662895Y-110856265D02*
X156567657Y-110903884D01*
X156567657Y-110903884D02*
X156520038Y-110951503D01*
X156520038Y-110951503D02*
X156472419Y-111046741D01*
X152186704Y-94456265D02*
X152186704Y-94932455D01*
X152472419Y-94361027D02*
X151472419Y-94694360D01*
X151472419Y-94694360D02*
X152472419Y-95027693D01*
X152472419Y-95884836D02*
X152472419Y-95313408D01*
X152472419Y-95599122D02*
X151472419Y-95599122D01*
X151472419Y-95599122D02*
X151615276Y-95503884D01*
X151615276Y-95503884D02*
X151710514Y-95408646D01*
X151710514Y-95408646D02*
X151758133Y-95313408D01*
X151472419Y-96503884D02*
X151472419Y-96599122D01*
X151472419Y-96599122D02*
X151520038Y-96694360D01*
X151520038Y-96694360D02*
X151567657Y-96741979D01*
X151567657Y-96741979D02*
X151662895Y-96789598D01*
X151662895Y-96789598D02*
X151853371Y-96837217D01*
X151853371Y-96837217D02*
X152091466Y-96837217D01*
X152091466Y-96837217D02*
X152281942Y-96789598D01*
X152281942Y-96789598D02*
X152377180Y-96741979D01*
X152377180Y-96741979D02*
X152424800Y-96694360D01*
X152424800Y-96694360D02*
X152472419Y-96599122D01*
X152472419Y-96599122D02*
X152472419Y-96503884D01*
X152472419Y-96503884D02*
X152424800Y-96408646D01*
X152424800Y-96408646D02*
X152377180Y-96361027D01*
X152377180Y-96361027D02*
X152281942Y-96313408D01*
X152281942Y-96313408D02*
X152091466Y-96265789D01*
X152091466Y-96265789D02*
X151853371Y-96265789D01*
X151853371Y-96265789D02*
X151662895Y-96313408D01*
X151662895Y-96313408D02*
X151567657Y-96361027D01*
X151567657Y-96361027D02*
X151520038Y-96408646D01*
X151520038Y-96408646D02*
X151472419Y-96503884D01*
X136548609Y-94837217D02*
X136596228Y-94980074D01*
X136596228Y-94980074D02*
X136643847Y-95027693D01*
X136643847Y-95027693D02*
X136739085Y-95075312D01*
X136739085Y-95075312D02*
X136881942Y-95075312D01*
X136881942Y-95075312D02*
X136977180Y-95027693D01*
X136977180Y-95027693D02*
X137024800Y-94980074D01*
X137024800Y-94980074D02*
X137072419Y-94884836D01*
X137072419Y-94884836D02*
X137072419Y-94503884D01*
X137072419Y-94503884D02*
X136072419Y-94503884D01*
X136072419Y-94503884D02*
X136072419Y-94837217D01*
X136072419Y-94837217D02*
X136120038Y-94932455D01*
X136120038Y-94932455D02*
X136167657Y-94980074D01*
X136167657Y-94980074D02*
X136262895Y-95027693D01*
X136262895Y-95027693D02*
X136358133Y-95027693D01*
X136358133Y-95027693D02*
X136453371Y-94980074D01*
X136453371Y-94980074D02*
X136500990Y-94932455D01*
X136500990Y-94932455D02*
X136548609Y-94837217D01*
X136548609Y-94837217D02*
X136548609Y-94503884D01*
X136072419Y-95980074D02*
X136072419Y-95503884D01*
X136072419Y-95503884D02*
X136548609Y-95456265D01*
X136548609Y-95456265D02*
X136500990Y-95503884D01*
X136500990Y-95503884D02*
X136453371Y-95599122D01*
X136453371Y-95599122D02*
X136453371Y-95837217D01*
X136453371Y-95837217D02*
X136500990Y-95932455D01*
X136500990Y-95932455D02*
X136548609Y-95980074D01*
X136548609Y-95980074D02*
X136643847Y-96027693D01*
X136643847Y-96027693D02*
X136881942Y-96027693D01*
X136881942Y-96027693D02*
X136977180Y-95980074D01*
X136977180Y-95980074D02*
X137024800Y-95932455D01*
X137024800Y-95932455D02*
X137072419Y-95837217D01*
X137072419Y-95837217D02*
X137072419Y-95599122D01*
X137072419Y-95599122D02*
X137024800Y-95503884D01*
X137024800Y-95503884D02*
X136977180Y-95456265D01*
X121777180Y-109675312D02*
X121824800Y-109627693D01*
X121824800Y-109627693D02*
X121872419Y-109484836D01*
X121872419Y-109484836D02*
X121872419Y-109389598D01*
X121872419Y-109389598D02*
X121824800Y-109246741D01*
X121824800Y-109246741D02*
X121729561Y-109151503D01*
X121729561Y-109151503D02*
X121634323Y-109103884D01*
X121634323Y-109103884D02*
X121443847Y-109056265D01*
X121443847Y-109056265D02*
X121300990Y-109056265D01*
X121300990Y-109056265D02*
X121110514Y-109103884D01*
X121110514Y-109103884D02*
X121015276Y-109151503D01*
X121015276Y-109151503D02*
X120920038Y-109246741D01*
X120920038Y-109246741D02*
X120872419Y-109389598D01*
X120872419Y-109389598D02*
X120872419Y-109484836D01*
X120872419Y-109484836D02*
X120920038Y-109627693D01*
X120920038Y-109627693D02*
X120967657Y-109675312D01*
X121872419Y-110627693D02*
X121872419Y-110056265D01*
X121872419Y-110341979D02*
X120872419Y-110341979D01*
X120872419Y-110341979D02*
X121015276Y-110246741D01*
X121015276Y-110246741D02*
X121110514Y-110151503D01*
X121110514Y-110151503D02*
X121158133Y-110056265D01*
X121205752Y-111484836D02*
X121872419Y-111484836D01*
X120824800Y-111246741D02*
X121539085Y-111008646D01*
X121539085Y-111008646D02*
X121539085Y-111627693D01*
X117791353Y-98672419D02*
X117172306Y-98672419D01*
X117172306Y-98672419D02*
X117505639Y-99053371D01*
X117505639Y-99053371D02*
X117362782Y-99053371D01*
X117362782Y-99053371D02*
X117267544Y-99100990D01*
X117267544Y-99100990D02*
X117219925Y-99148609D01*
X117219925Y-99148609D02*
X117172306Y-99243847D01*
X117172306Y-99243847D02*
X117172306Y-99481942D01*
X117172306Y-99481942D02*
X117219925Y-99577180D01*
X117219925Y-99577180D02*
X117267544Y-99624800D01*
X117267544Y-99624800D02*
X117362782Y-99672419D01*
X117362782Y-99672419D02*
X117648496Y-99672419D01*
X117648496Y-99672419D02*
X117743734Y-99624800D01*
X117743734Y-99624800D02*
X117791353Y-99577180D01*
X116886591Y-98672419D02*
X116553258Y-99672419D01*
X116553258Y-99672419D02*
X116219925Y-98672419D01*
X115981829Y-98672419D02*
X115362782Y-98672419D01*
X115362782Y-98672419D02*
X115696115Y-99053371D01*
X115696115Y-99053371D02*
X115553258Y-99053371D01*
X115553258Y-99053371D02*
X115458020Y-99100990D01*
X115458020Y-99100990D02*
X115410401Y-99148609D01*
X115410401Y-99148609D02*
X115362782Y-99243847D01*
X115362782Y-99243847D02*
X115362782Y-99481942D01*
X115362782Y-99481942D02*
X115410401Y-99577180D01*
X115410401Y-99577180D02*
X115458020Y-99624800D01*
X115458020Y-99624800D02*
X115553258Y-99672419D01*
X115553258Y-99672419D02*
X115838972Y-99672419D01*
X115838972Y-99672419D02*
X115934210Y-99624800D01*
X115934210Y-99624800D02*
X115981829Y-99577180D01*
X117472306Y-106320038D02*
X117567544Y-106272419D01*
X117567544Y-106272419D02*
X117710401Y-106272419D01*
X117710401Y-106272419D02*
X117853258Y-106320038D01*
X117853258Y-106320038D02*
X117948496Y-106415276D01*
X117948496Y-106415276D02*
X117996115Y-106510514D01*
X117996115Y-106510514D02*
X118043734Y-106700990D01*
X118043734Y-106700990D02*
X118043734Y-106843847D01*
X118043734Y-106843847D02*
X117996115Y-107034323D01*
X117996115Y-107034323D02*
X117948496Y-107129561D01*
X117948496Y-107129561D02*
X117853258Y-107224800D01*
X117853258Y-107224800D02*
X117710401Y-107272419D01*
X117710401Y-107272419D02*
X117615163Y-107272419D01*
X117615163Y-107272419D02*
X117472306Y-107224800D01*
X117472306Y-107224800D02*
X117424687Y-107177180D01*
X117424687Y-107177180D02*
X117424687Y-106843847D01*
X117424687Y-106843847D02*
X117615163Y-106843847D01*
X116996115Y-107272419D02*
X116996115Y-106272419D01*
X116996115Y-106272419D02*
X116424687Y-107272419D01*
X116424687Y-107272419D02*
X116424687Y-106272419D01*
X115948496Y-107272419D02*
X115948496Y-106272419D01*
X115948496Y-106272419D02*
X115710401Y-106272419D01*
X115710401Y-106272419D02*
X115567544Y-106320038D01*
X115567544Y-106320038D02*
X115472306Y-106415276D01*
X115472306Y-106415276D02*
X115424687Y-106510514D01*
X115424687Y-106510514D02*
X115377068Y-106700990D01*
X115377068Y-106700990D02*
X115377068Y-106843847D01*
X115377068Y-106843847D02*
X115424687Y-107034323D01*
X115424687Y-107034323D02*
X115472306Y-107129561D01*
X115472306Y-107129561D02*
X115567544Y-107224800D01*
X115567544Y-107224800D02*
X115710401Y-107272419D01*
X115710401Y-107272419D02*
X115948496Y-107272419D01*
X141986704Y-110056265D02*
X141986704Y-110532455D01*
X142272419Y-109961027D02*
X141272419Y-110294360D01*
X141272419Y-110294360D02*
X142272419Y-110627693D01*
X141272419Y-111437217D02*
X141272419Y-110961027D01*
X141272419Y-110961027D02*
X141748609Y-110913408D01*
X141748609Y-110913408D02*
X141700990Y-110961027D01*
X141700990Y-110961027D02*
X141653371Y-111056265D01*
X141653371Y-111056265D02*
X141653371Y-111294360D01*
X141653371Y-111294360D02*
X141700990Y-111389598D01*
X141700990Y-111389598D02*
X141748609Y-111437217D01*
X141748609Y-111437217D02*
X141843847Y-111484836D01*
X141843847Y-111484836D02*
X142081942Y-111484836D01*
X142081942Y-111484836D02*
X142177180Y-111437217D01*
X142177180Y-111437217D02*
X142224800Y-111389598D01*
X142224800Y-111389598D02*
X142272419Y-111294360D01*
X142272419Y-111294360D02*
X142272419Y-111056265D01*
X142272419Y-111056265D02*
X142224800Y-110961027D01*
X142224800Y-110961027D02*
X142177180Y-110913408D01*
X149586704Y-94456265D02*
X149586704Y-94932455D01*
X149872419Y-94361027D02*
X148872419Y-94694360D01*
X148872419Y-94694360D02*
X149872419Y-95027693D01*
X149872419Y-95884836D02*
X149872419Y-95313408D01*
X149872419Y-95599122D02*
X148872419Y-95599122D01*
X148872419Y-95599122D02*
X149015276Y-95503884D01*
X149015276Y-95503884D02*
X149110514Y-95408646D01*
X149110514Y-95408646D02*
X149158133Y-95313408D01*
X149872419Y-96837217D02*
X149872419Y-96265789D01*
X149872419Y-96551503D02*
X148872419Y-96551503D01*
X148872419Y-96551503D02*
X149015276Y-96456265D01*
X149015276Y-96456265D02*
X149110514Y-96361027D01*
X149110514Y-96361027D02*
X149158133Y-96265789D01*
X159548609Y-94837217D02*
X159596228Y-94980074D01*
X159596228Y-94980074D02*
X159643847Y-95027693D01*
X159643847Y-95027693D02*
X159739085Y-95075312D01*
X159739085Y-95075312D02*
X159881942Y-95075312D01*
X159881942Y-95075312D02*
X159977180Y-95027693D01*
X159977180Y-95027693D02*
X160024800Y-94980074D01*
X160024800Y-94980074D02*
X160072419Y-94884836D01*
X160072419Y-94884836D02*
X160072419Y-94503884D01*
X160072419Y-94503884D02*
X159072419Y-94503884D01*
X159072419Y-94503884D02*
X159072419Y-94837217D01*
X159072419Y-94837217D02*
X159120038Y-94932455D01*
X159120038Y-94932455D02*
X159167657Y-94980074D01*
X159167657Y-94980074D02*
X159262895Y-95027693D01*
X159262895Y-95027693D02*
X159358133Y-95027693D01*
X159358133Y-95027693D02*
X159453371Y-94980074D01*
X159453371Y-94980074D02*
X159500990Y-94932455D01*
X159500990Y-94932455D02*
X159548609Y-94837217D01*
X159548609Y-94837217D02*
X159548609Y-94503884D01*
X160072419Y-96027693D02*
X160072419Y-95456265D01*
X160072419Y-95741979D02*
X159072419Y-95741979D01*
X159072419Y-95741979D02*
X159215276Y-95646741D01*
X159215276Y-95646741D02*
X159310514Y-95551503D01*
X159310514Y-95551503D02*
X159358133Y-95456265D01*
X159072419Y-96932455D02*
X159072419Y-96456265D01*
X159072419Y-96456265D02*
X159548609Y-96408646D01*
X159548609Y-96408646D02*
X159500990Y-96456265D01*
X159500990Y-96456265D02*
X159453371Y-96551503D01*
X159453371Y-96551503D02*
X159453371Y-96789598D01*
X159453371Y-96789598D02*
X159500990Y-96884836D01*
X159500990Y-96884836D02*
X159548609Y-96932455D01*
X159548609Y-96932455D02*
X159643847Y-96980074D01*
X159643847Y-96980074D02*
X159881942Y-96980074D01*
X159881942Y-96980074D02*
X159977180Y-96932455D01*
X159977180Y-96932455D02*
X160024800Y-96884836D01*
X160024800Y-96884836D02*
X160072419Y-96789598D01*
X160072419Y-96789598D02*
X160072419Y-96551503D01*
X160072419Y-96551503D02*
X160024800Y-96456265D01*
X160024800Y-96456265D02*
X159977180Y-96408646D01*
X120920038Y-95077693D02*
X120872419Y-94982455D01*
X120872419Y-94982455D02*
X120872419Y-94839598D01*
X120872419Y-94839598D02*
X120920038Y-94696741D01*
X120920038Y-94696741D02*
X121015276Y-94601503D01*
X121015276Y-94601503D02*
X121110514Y-94553884D01*
X121110514Y-94553884D02*
X121300990Y-94506265D01*
X121300990Y-94506265D02*
X121443847Y-94506265D01*
X121443847Y-94506265D02*
X121634323Y-94553884D01*
X121634323Y-94553884D02*
X121729561Y-94601503D01*
X121729561Y-94601503D02*
X121824800Y-94696741D01*
X121824800Y-94696741D02*
X121872419Y-94839598D01*
X121872419Y-94839598D02*
X121872419Y-94934836D01*
X121872419Y-94934836D02*
X121824800Y-95077693D01*
X121824800Y-95077693D02*
X121777180Y-95125312D01*
X121777180Y-95125312D02*
X121443847Y-95125312D01*
X121443847Y-95125312D02*
X121443847Y-94934836D01*
X121872419Y-95553884D02*
X120872419Y-95553884D01*
X120872419Y-95553884D02*
X121872419Y-96125312D01*
X121872419Y-96125312D02*
X120872419Y-96125312D01*
X121872419Y-96601503D02*
X120872419Y-96601503D01*
X120872419Y-96601503D02*
X120872419Y-96839598D01*
X120872419Y-96839598D02*
X120920038Y-96982455D01*
X120920038Y-96982455D02*
X121015276Y-97077693D01*
X121015276Y-97077693D02*
X121110514Y-97125312D01*
X121110514Y-97125312D02*
X121300990Y-97172931D01*
X121300990Y-97172931D02*
X121443847Y-97172931D01*
X121443847Y-97172931D02*
X121634323Y-97125312D01*
X121634323Y-97125312D02*
X121729561Y-97077693D01*
X121729561Y-97077693D02*
X121824800Y-96982455D01*
X121824800Y-96982455D02*
X121872419Y-96839598D01*
X121872419Y-96839598D02*
X121872419Y-96601503D01*
X161472419Y-109008646D02*
X161472419Y-109627693D01*
X161472419Y-109627693D02*
X161853371Y-109294360D01*
X161853371Y-109294360D02*
X161853371Y-109437217D01*
X161853371Y-109437217D02*
X161900990Y-109532455D01*
X161900990Y-109532455D02*
X161948609Y-109580074D01*
X161948609Y-109580074D02*
X162043847Y-109627693D01*
X162043847Y-109627693D02*
X162281942Y-109627693D01*
X162281942Y-109627693D02*
X162377180Y-109580074D01*
X162377180Y-109580074D02*
X162424800Y-109532455D01*
X162424800Y-109532455D02*
X162472419Y-109437217D01*
X162472419Y-109437217D02*
X162472419Y-109151503D01*
X162472419Y-109151503D02*
X162424800Y-109056265D01*
X162424800Y-109056265D02*
X162377180Y-109008646D01*
X161472419Y-109913408D02*
X162472419Y-110246741D01*
X162472419Y-110246741D02*
X161472419Y-110580074D01*
X161472419Y-110818170D02*
X161472419Y-111437217D01*
X161472419Y-111437217D02*
X161853371Y-111103884D01*
X161853371Y-111103884D02*
X161853371Y-111246741D01*
X161853371Y-111246741D02*
X161900990Y-111341979D01*
X161900990Y-111341979D02*
X161948609Y-111389598D01*
X161948609Y-111389598D02*
X162043847Y-111437217D01*
X162043847Y-111437217D02*
X162281942Y-111437217D01*
X162281942Y-111437217D02*
X162377180Y-111389598D01*
X162377180Y-111389598D02*
X162424800Y-111341979D01*
X162424800Y-111341979D02*
X162472419Y-111246741D01*
X162472419Y-111246741D02*
X162472419Y-110961027D01*
X162472419Y-110961027D02*
X162424800Y-110865789D01*
X162424800Y-110865789D02*
X162377180Y-110818170D01*
X139386704Y-110056265D02*
X139386704Y-110532455D01*
X139672419Y-109961027D02*
X138672419Y-110294360D01*
X138672419Y-110294360D02*
X139672419Y-110627693D01*
X139005752Y-111389598D02*
X139672419Y-111389598D01*
X138624800Y-111151503D02*
X139339085Y-110913408D01*
X139339085Y-110913408D02*
X139339085Y-111532455D01*
X123472419Y-94980074D02*
X123472419Y-94503884D01*
X123472419Y-94503884D02*
X123948609Y-94456265D01*
X123948609Y-94456265D02*
X123900990Y-94503884D01*
X123900990Y-94503884D02*
X123853371Y-94599122D01*
X123853371Y-94599122D02*
X123853371Y-94837217D01*
X123853371Y-94837217D02*
X123900990Y-94932455D01*
X123900990Y-94932455D02*
X123948609Y-94980074D01*
X123948609Y-94980074D02*
X124043847Y-95027693D01*
X124043847Y-95027693D02*
X124281942Y-95027693D01*
X124281942Y-95027693D02*
X124377180Y-94980074D01*
X124377180Y-94980074D02*
X124424800Y-94932455D01*
X124424800Y-94932455D02*
X124472419Y-94837217D01*
X124472419Y-94837217D02*
X124472419Y-94599122D01*
X124472419Y-94599122D02*
X124424800Y-94503884D01*
X124424800Y-94503884D02*
X124377180Y-94456265D01*
X123472419Y-95313408D02*
X124472419Y-95646741D01*
X124472419Y-95646741D02*
X123472419Y-95980074D01*
X119377180Y-109675312D02*
X119424800Y-109627693D01*
X119424800Y-109627693D02*
X119472419Y-109484836D01*
X119472419Y-109484836D02*
X119472419Y-109389598D01*
X119472419Y-109389598D02*
X119424800Y-109246741D01*
X119424800Y-109246741D02*
X119329561Y-109151503D01*
X119329561Y-109151503D02*
X119234323Y-109103884D01*
X119234323Y-109103884D02*
X119043847Y-109056265D01*
X119043847Y-109056265D02*
X118900990Y-109056265D01*
X118900990Y-109056265D02*
X118710514Y-109103884D01*
X118710514Y-109103884D02*
X118615276Y-109151503D01*
X118615276Y-109151503D02*
X118520038Y-109246741D01*
X118520038Y-109246741D02*
X118472419Y-109389598D01*
X118472419Y-109389598D02*
X118472419Y-109484836D01*
X118472419Y-109484836D02*
X118520038Y-109627693D01*
X118520038Y-109627693D02*
X118567657Y-109675312D01*
X119472419Y-110627693D02*
X119472419Y-110056265D01*
X119472419Y-110341979D02*
X118472419Y-110341979D01*
X118472419Y-110341979D02*
X118615276Y-110246741D01*
X118615276Y-110246741D02*
X118710514Y-110151503D01*
X118710514Y-110151503D02*
X118758133Y-110056265D01*
X118472419Y-110961027D02*
X118472419Y-111580074D01*
X118472419Y-111580074D02*
X118853371Y-111246741D01*
X118853371Y-111246741D02*
X118853371Y-111389598D01*
X118853371Y-111389598D02*
X118900990Y-111484836D01*
X118900990Y-111484836D02*
X118948609Y-111532455D01*
X118948609Y-111532455D02*
X119043847Y-111580074D01*
X119043847Y-111580074D02*
X119281942Y-111580074D01*
X119281942Y-111580074D02*
X119377180Y-111532455D01*
X119377180Y-111532455D02*
X119424800Y-111484836D01*
X119424800Y-111484836D02*
X119472419Y-111389598D01*
X119472419Y-111389598D02*
X119472419Y-111103884D01*
X119472419Y-111103884D02*
X119424800Y-111008646D01*
X119424800Y-111008646D02*
X119377180Y-110961027D01*
X128948609Y-94837217D02*
X128996228Y-94980074D01*
X128996228Y-94980074D02*
X129043847Y-95027693D01*
X129043847Y-95027693D02*
X129139085Y-95075312D01*
X129139085Y-95075312D02*
X129281942Y-95075312D01*
X129281942Y-95075312D02*
X129377180Y-95027693D01*
X129377180Y-95027693D02*
X129424800Y-94980074D01*
X129424800Y-94980074D02*
X129472419Y-94884836D01*
X129472419Y-94884836D02*
X129472419Y-94503884D01*
X129472419Y-94503884D02*
X128472419Y-94503884D01*
X128472419Y-94503884D02*
X128472419Y-94837217D01*
X128472419Y-94837217D02*
X128520038Y-94932455D01*
X128520038Y-94932455D02*
X128567657Y-94980074D01*
X128567657Y-94980074D02*
X128662895Y-95027693D01*
X128662895Y-95027693D02*
X128758133Y-95027693D01*
X128758133Y-95027693D02*
X128853371Y-94980074D01*
X128853371Y-94980074D02*
X128900990Y-94932455D01*
X128900990Y-94932455D02*
X128948609Y-94837217D01*
X128948609Y-94837217D02*
X128948609Y-94503884D01*
X128900990Y-95646741D02*
X128853371Y-95551503D01*
X128853371Y-95551503D02*
X128805752Y-95503884D01*
X128805752Y-95503884D02*
X128710514Y-95456265D01*
X128710514Y-95456265D02*
X128662895Y-95456265D01*
X128662895Y-95456265D02*
X128567657Y-95503884D01*
X128567657Y-95503884D02*
X128520038Y-95551503D01*
X128520038Y-95551503D02*
X128472419Y-95646741D01*
X128472419Y-95646741D02*
X128472419Y-95837217D01*
X128472419Y-95837217D02*
X128520038Y-95932455D01*
X128520038Y-95932455D02*
X128567657Y-95980074D01*
X128567657Y-95980074D02*
X128662895Y-96027693D01*
X128662895Y-96027693D02*
X128710514Y-96027693D01*
X128710514Y-96027693D02*
X128805752Y-95980074D01*
X128805752Y-95980074D02*
X128853371Y-95932455D01*
X128853371Y-95932455D02*
X128900990Y-95837217D01*
X128900990Y-95837217D02*
X128900990Y-95646741D01*
X128900990Y-95646741D02*
X128948609Y-95551503D01*
X128948609Y-95551503D02*
X128996228Y-95503884D01*
X128996228Y-95503884D02*
X129091466Y-95456265D01*
X129091466Y-95456265D02*
X129281942Y-95456265D01*
X129281942Y-95456265D02*
X129377180Y-95503884D01*
X129377180Y-95503884D02*
X129424800Y-95551503D01*
X129424800Y-95551503D02*
X129472419Y-95646741D01*
X129472419Y-95646741D02*
X129472419Y-95837217D01*
X129472419Y-95837217D02*
X129424800Y-95932455D01*
X129424800Y-95932455D02*
X129377180Y-95980074D01*
X129377180Y-95980074D02*
X129281942Y-96027693D01*
X129281942Y-96027693D02*
X129091466Y-96027693D01*
X129091466Y-96027693D02*
X128996228Y-95980074D01*
X128996228Y-95980074D02*
X128948609Y-95932455D01*
X128948609Y-95932455D02*
X128900990Y-95837217D01*
X124377180Y-109675312D02*
X124424800Y-109627693D01*
X124424800Y-109627693D02*
X124472419Y-109484836D01*
X124472419Y-109484836D02*
X124472419Y-109389598D01*
X124472419Y-109389598D02*
X124424800Y-109246741D01*
X124424800Y-109246741D02*
X124329561Y-109151503D01*
X124329561Y-109151503D02*
X124234323Y-109103884D01*
X124234323Y-109103884D02*
X124043847Y-109056265D01*
X124043847Y-109056265D02*
X123900990Y-109056265D01*
X123900990Y-109056265D02*
X123710514Y-109103884D01*
X123710514Y-109103884D02*
X123615276Y-109151503D01*
X123615276Y-109151503D02*
X123520038Y-109246741D01*
X123520038Y-109246741D02*
X123472419Y-109389598D01*
X123472419Y-109389598D02*
X123472419Y-109484836D01*
X123472419Y-109484836D02*
X123520038Y-109627693D01*
X123520038Y-109627693D02*
X123567657Y-109675312D01*
X124472419Y-110627693D02*
X124472419Y-110056265D01*
X124472419Y-110341979D02*
X123472419Y-110341979D01*
X123472419Y-110341979D02*
X123615276Y-110246741D01*
X123615276Y-110246741D02*
X123710514Y-110151503D01*
X123710514Y-110151503D02*
X123758133Y-110056265D01*
X123472419Y-111532455D02*
X123472419Y-111056265D01*
X123472419Y-111056265D02*
X123948609Y-111008646D01*
X123948609Y-111008646D02*
X123900990Y-111056265D01*
X123900990Y-111056265D02*
X123853371Y-111151503D01*
X123853371Y-111151503D02*
X123853371Y-111389598D01*
X123853371Y-111389598D02*
X123900990Y-111484836D01*
X123900990Y-111484836D02*
X123948609Y-111532455D01*
X123948609Y-111532455D02*
X124043847Y-111580074D01*
X124043847Y-111580074D02*
X124281942Y-111580074D01*
X124281942Y-111580074D02*
X124377180Y-111532455D01*
X124377180Y-111532455D02*
X124424800Y-111484836D01*
X124424800Y-111484836D02*
X124472419Y-111389598D01*
X124472419Y-111389598D02*
X124472419Y-111151503D01*
X124472419Y-111151503D02*
X124424800Y-111056265D01*
X124424800Y-111056265D02*
X124377180Y-111008646D01*
X144386704Y-94456265D02*
X144386704Y-94932455D01*
X144672419Y-94361027D02*
X143672419Y-94694360D01*
X143672419Y-94694360D02*
X144672419Y-95027693D01*
X144672419Y-95884836D02*
X144672419Y-95313408D01*
X144672419Y-95599122D02*
X143672419Y-95599122D01*
X143672419Y-95599122D02*
X143815276Y-95503884D01*
X143815276Y-95503884D02*
X143910514Y-95408646D01*
X143910514Y-95408646D02*
X143958133Y-95313408D01*
X143672419Y-96789598D02*
X143672419Y-96313408D01*
X143672419Y-96313408D02*
X144148609Y-96265789D01*
X144148609Y-96265789D02*
X144100990Y-96313408D01*
X144100990Y-96313408D02*
X144053371Y-96408646D01*
X144053371Y-96408646D02*
X144053371Y-96646741D01*
X144053371Y-96646741D02*
X144100990Y-96741979D01*
X144100990Y-96741979D02*
X144148609Y-96789598D01*
X144148609Y-96789598D02*
X144243847Y-96837217D01*
X144243847Y-96837217D02*
X144481942Y-96837217D01*
X144481942Y-96837217D02*
X144577180Y-96789598D01*
X144577180Y-96789598D02*
X144624800Y-96741979D01*
X144624800Y-96741979D02*
X144672419Y-96646741D01*
X144672419Y-96646741D02*
X144672419Y-96408646D01*
X144672419Y-96408646D02*
X144624800Y-96313408D01*
X144624800Y-96313408D02*
X144577180Y-96265789D01*
X164548609Y-94837217D02*
X164596228Y-94980074D01*
X164596228Y-94980074D02*
X164643847Y-95027693D01*
X164643847Y-95027693D02*
X164739085Y-95075312D01*
X164739085Y-95075312D02*
X164881942Y-95075312D01*
X164881942Y-95075312D02*
X164977180Y-95027693D01*
X164977180Y-95027693D02*
X165024800Y-94980074D01*
X165024800Y-94980074D02*
X165072419Y-94884836D01*
X165072419Y-94884836D02*
X165072419Y-94503884D01*
X165072419Y-94503884D02*
X164072419Y-94503884D01*
X164072419Y-94503884D02*
X164072419Y-94837217D01*
X164072419Y-94837217D02*
X164120038Y-94932455D01*
X164120038Y-94932455D02*
X164167657Y-94980074D01*
X164167657Y-94980074D02*
X164262895Y-95027693D01*
X164262895Y-95027693D02*
X164358133Y-95027693D01*
X164358133Y-95027693D02*
X164453371Y-94980074D01*
X164453371Y-94980074D02*
X164500990Y-94932455D01*
X164500990Y-94932455D02*
X164548609Y-94837217D01*
X164548609Y-94837217D02*
X164548609Y-94503884D01*
X165072419Y-96027693D02*
X165072419Y-95456265D01*
X165072419Y-95741979D02*
X164072419Y-95741979D01*
X164072419Y-95741979D02*
X164215276Y-95646741D01*
X164215276Y-95646741D02*
X164310514Y-95551503D01*
X164310514Y-95551503D02*
X164358133Y-95456265D01*
X164072419Y-96361027D02*
X164072419Y-96980074D01*
X164072419Y-96980074D02*
X164453371Y-96646741D01*
X164453371Y-96646741D02*
X164453371Y-96789598D01*
X164453371Y-96789598D02*
X164500990Y-96884836D01*
X164500990Y-96884836D02*
X164548609Y-96932455D01*
X164548609Y-96932455D02*
X164643847Y-96980074D01*
X164643847Y-96980074D02*
X164881942Y-96980074D01*
X164881942Y-96980074D02*
X164977180Y-96932455D01*
X164977180Y-96932455D02*
X165024800Y-96884836D01*
X165024800Y-96884836D02*
X165072419Y-96789598D01*
X165072419Y-96789598D02*
X165072419Y-96503884D01*
X165072419Y-96503884D02*
X165024800Y-96408646D01*
X165024800Y-96408646D02*
X164977180Y-96361027D01*
X154786704Y-94456265D02*
X154786704Y-94932455D01*
X155072419Y-94361027D02*
X154072419Y-94694360D01*
X154072419Y-94694360D02*
X155072419Y-95027693D01*
X155072419Y-95408646D02*
X155072419Y-95599122D01*
X155072419Y-95599122D02*
X155024800Y-95694360D01*
X155024800Y-95694360D02*
X154977180Y-95741979D01*
X154977180Y-95741979D02*
X154834323Y-95837217D01*
X154834323Y-95837217D02*
X154643847Y-95884836D01*
X154643847Y-95884836D02*
X154262895Y-95884836D01*
X154262895Y-95884836D02*
X154167657Y-95837217D01*
X154167657Y-95837217D02*
X154120038Y-95789598D01*
X154120038Y-95789598D02*
X154072419Y-95694360D01*
X154072419Y-95694360D02*
X154072419Y-95503884D01*
X154072419Y-95503884D02*
X154120038Y-95408646D01*
X154120038Y-95408646D02*
X154167657Y-95361027D01*
X154167657Y-95361027D02*
X154262895Y-95313408D01*
X154262895Y-95313408D02*
X154500990Y-95313408D01*
X154500990Y-95313408D02*
X154596228Y-95361027D01*
X154596228Y-95361027D02*
X154643847Y-95408646D01*
X154643847Y-95408646D02*
X154691466Y-95503884D01*
X154691466Y-95503884D02*
X154691466Y-95694360D01*
X154691466Y-95694360D02*
X154643847Y-95789598D01*
X154643847Y-95789598D02*
X154596228Y-95837217D01*
X154596228Y-95837217D02*
X154500990Y-95884836D01*
X164120038Y-109427693D02*
X164072419Y-109332455D01*
X164072419Y-109332455D02*
X164072419Y-109189598D01*
X164072419Y-109189598D02*
X164120038Y-109046741D01*
X164120038Y-109046741D02*
X164215276Y-108951503D01*
X164215276Y-108951503D02*
X164310514Y-108903884D01*
X164310514Y-108903884D02*
X164500990Y-108856265D01*
X164500990Y-108856265D02*
X164643847Y-108856265D01*
X164643847Y-108856265D02*
X164834323Y-108903884D01*
X164834323Y-108903884D02*
X164929561Y-108951503D01*
X164929561Y-108951503D02*
X165024800Y-109046741D01*
X165024800Y-109046741D02*
X165072419Y-109189598D01*
X165072419Y-109189598D02*
X165072419Y-109284836D01*
X165072419Y-109284836D02*
X165024800Y-109427693D01*
X165024800Y-109427693D02*
X164977180Y-109475312D01*
X164977180Y-109475312D02*
X164643847Y-109475312D01*
X164643847Y-109475312D02*
X164643847Y-109284836D01*
X165072419Y-109903884D02*
X164072419Y-109903884D01*
X164072419Y-109903884D02*
X165072419Y-110475312D01*
X165072419Y-110475312D02*
X164072419Y-110475312D01*
X165072419Y-110951503D02*
X164072419Y-110951503D01*
X164072419Y-110951503D02*
X164072419Y-111189598D01*
X164072419Y-111189598D02*
X164120038Y-111332455D01*
X164120038Y-111332455D02*
X164215276Y-111427693D01*
X164215276Y-111427693D02*
X164310514Y-111475312D01*
X164310514Y-111475312D02*
X164500990Y-111522931D01*
X164500990Y-111522931D02*
X164643847Y-111522931D01*
X164643847Y-111522931D02*
X164834323Y-111475312D01*
X164834323Y-111475312D02*
X164929561Y-111427693D01*
X164929561Y-111427693D02*
X165024800Y-111332455D01*
X165024800Y-111332455D02*
X165072419Y-111189598D01*
X165072419Y-111189598D02*
X165072419Y-110951503D01*
X129186704Y-110056265D02*
X129186704Y-110532455D01*
X129472419Y-109961027D02*
X128472419Y-110294360D01*
X128472419Y-110294360D02*
X129472419Y-110627693D01*
X128472419Y-111151503D02*
X128472419Y-111246741D01*
X128472419Y-111246741D02*
X128520038Y-111341979D01*
X128520038Y-111341979D02*
X128567657Y-111389598D01*
X128567657Y-111389598D02*
X128662895Y-111437217D01*
X128662895Y-111437217D02*
X128853371Y-111484836D01*
X128853371Y-111484836D02*
X129091466Y-111484836D01*
X129091466Y-111484836D02*
X129281942Y-111437217D01*
X129281942Y-111437217D02*
X129377180Y-111389598D01*
X129377180Y-111389598D02*
X129424800Y-111341979D01*
X129424800Y-111341979D02*
X129472419Y-111246741D01*
X129472419Y-111246741D02*
X129472419Y-111151503D01*
X129472419Y-111151503D02*
X129424800Y-111056265D01*
X129424800Y-111056265D02*
X129377180Y-111008646D01*
X129377180Y-111008646D02*
X129281942Y-110961027D01*
X129281942Y-110961027D02*
X129091466Y-110913408D01*
X129091466Y-110913408D02*
X128853371Y-110913408D01*
X128853371Y-110913408D02*
X128662895Y-110961027D01*
X128662895Y-110961027D02*
X128567657Y-111008646D01*
X128567657Y-111008646D02*
X128520038Y-111056265D01*
X128520038Y-111056265D02*
X128472419Y-111151503D01*
X133948609Y-94837217D02*
X133996228Y-94980074D01*
X133996228Y-94980074D02*
X134043847Y-95027693D01*
X134043847Y-95027693D02*
X134139085Y-95075312D01*
X134139085Y-95075312D02*
X134281942Y-95075312D01*
X134281942Y-95075312D02*
X134377180Y-95027693D01*
X134377180Y-95027693D02*
X134424800Y-94980074D01*
X134424800Y-94980074D02*
X134472419Y-94884836D01*
X134472419Y-94884836D02*
X134472419Y-94503884D01*
X134472419Y-94503884D02*
X133472419Y-94503884D01*
X133472419Y-94503884D02*
X133472419Y-94837217D01*
X133472419Y-94837217D02*
X133520038Y-94932455D01*
X133520038Y-94932455D02*
X133567657Y-94980074D01*
X133567657Y-94980074D02*
X133662895Y-95027693D01*
X133662895Y-95027693D02*
X133758133Y-95027693D01*
X133758133Y-95027693D02*
X133853371Y-94980074D01*
X133853371Y-94980074D02*
X133900990Y-94932455D01*
X133900990Y-94932455D02*
X133948609Y-94837217D01*
X133948609Y-94837217D02*
X133948609Y-94503884D01*
X133472419Y-95932455D02*
X133472419Y-95741979D01*
X133472419Y-95741979D02*
X133520038Y-95646741D01*
X133520038Y-95646741D02*
X133567657Y-95599122D01*
X133567657Y-95599122D02*
X133710514Y-95503884D01*
X133710514Y-95503884D02*
X133900990Y-95456265D01*
X133900990Y-95456265D02*
X134281942Y-95456265D01*
X134281942Y-95456265D02*
X134377180Y-95503884D01*
X134377180Y-95503884D02*
X134424800Y-95551503D01*
X134424800Y-95551503D02*
X134472419Y-95646741D01*
X134472419Y-95646741D02*
X134472419Y-95837217D01*
X134472419Y-95837217D02*
X134424800Y-95932455D01*
X134424800Y-95932455D02*
X134377180Y-95980074D01*
X134377180Y-95980074D02*
X134281942Y-96027693D01*
X134281942Y-96027693D02*
X134043847Y-96027693D01*
X134043847Y-96027693D02*
X133948609Y-95980074D01*
X133948609Y-95980074D02*
X133900990Y-95932455D01*
X133900990Y-95932455D02*
X133853371Y-95837217D01*
X133853371Y-95837217D02*
X133853371Y-95646741D01*
X133853371Y-95646741D02*
X133900990Y-95551503D01*
X133900990Y-95551503D02*
X133948609Y-95503884D01*
X133948609Y-95503884D02*
X134043847Y-95456265D01*
X134386704Y-110056265D02*
X134386704Y-110532455D01*
X134672419Y-109961027D02*
X133672419Y-110294360D01*
X133672419Y-110294360D02*
X134672419Y-110627693D01*
X133767657Y-110913408D02*
X133720038Y-110961027D01*
X133720038Y-110961027D02*
X133672419Y-111056265D01*
X133672419Y-111056265D02*
X133672419Y-111294360D01*
X133672419Y-111294360D02*
X133720038Y-111389598D01*
X133720038Y-111389598D02*
X133767657Y-111437217D01*
X133767657Y-111437217D02*
X133862895Y-111484836D01*
X133862895Y-111484836D02*
X133958133Y-111484836D01*
X133958133Y-111484836D02*
X134100990Y-111437217D01*
X134100990Y-111437217D02*
X134672419Y-110865789D01*
X134672419Y-110865789D02*
X134672419Y-111484836D01*
X146986704Y-94456265D02*
X146986704Y-94932455D01*
X147272419Y-94361027D02*
X146272419Y-94694360D01*
X146272419Y-94694360D02*
X147272419Y-95027693D01*
X147272419Y-95884836D02*
X147272419Y-95313408D01*
X147272419Y-95599122D02*
X146272419Y-95599122D01*
X146272419Y-95599122D02*
X146415276Y-95503884D01*
X146415276Y-95503884D02*
X146510514Y-95408646D01*
X146510514Y-95408646D02*
X146558133Y-95313408D01*
X146367657Y-96265789D02*
X146320038Y-96313408D01*
X146320038Y-96313408D02*
X146272419Y-96408646D01*
X146272419Y-96408646D02*
X146272419Y-96646741D01*
X146272419Y-96646741D02*
X146320038Y-96741979D01*
X146320038Y-96741979D02*
X146367657Y-96789598D01*
X146367657Y-96789598D02*
X146462895Y-96837217D01*
X146462895Y-96837217D02*
X146558133Y-96837217D01*
X146558133Y-96837217D02*
X146700990Y-96789598D01*
X146700990Y-96789598D02*
X147272419Y-96218170D01*
X147272419Y-96218170D02*
X147272419Y-96837217D01*
X119843734Y-104724800D02*
X119700877Y-104772419D01*
X119700877Y-104772419D02*
X119462782Y-104772419D01*
X119462782Y-104772419D02*
X119367544Y-104724800D01*
X119367544Y-104724800D02*
X119319925Y-104677180D01*
X119319925Y-104677180D02*
X119272306Y-104581942D01*
X119272306Y-104581942D02*
X119272306Y-104486704D01*
X119272306Y-104486704D02*
X119319925Y-104391466D01*
X119319925Y-104391466D02*
X119367544Y-104343847D01*
X119367544Y-104343847D02*
X119462782Y-104296228D01*
X119462782Y-104296228D02*
X119653258Y-104248609D01*
X119653258Y-104248609D02*
X119748496Y-104200990D01*
X119748496Y-104200990D02*
X119796115Y-104153371D01*
X119796115Y-104153371D02*
X119843734Y-104058133D01*
X119843734Y-104058133D02*
X119843734Y-103962895D01*
X119843734Y-103962895D02*
X119796115Y-103867657D01*
X119796115Y-103867657D02*
X119748496Y-103820038D01*
X119748496Y-103820038D02*
X119653258Y-103772419D01*
X119653258Y-103772419D02*
X119415163Y-103772419D01*
X119415163Y-103772419D02*
X119272306Y-103820038D01*
X118938972Y-103772419D02*
X118700877Y-104772419D01*
X118700877Y-104772419D02*
X118510401Y-104058133D01*
X118510401Y-104058133D02*
X118319925Y-104772419D01*
X118319925Y-104772419D02*
X118081830Y-103772419D01*
X117129449Y-104677180D02*
X117177068Y-104724800D01*
X117177068Y-104724800D02*
X117319925Y-104772419D01*
X117319925Y-104772419D02*
X117415163Y-104772419D01*
X117415163Y-104772419D02*
X117558020Y-104724800D01*
X117558020Y-104724800D02*
X117653258Y-104629561D01*
X117653258Y-104629561D02*
X117700877Y-104534323D01*
X117700877Y-104534323D02*
X117748496Y-104343847D01*
X117748496Y-104343847D02*
X117748496Y-104200990D01*
X117748496Y-104200990D02*
X117700877Y-104010514D01*
X117700877Y-104010514D02*
X117653258Y-103915276D01*
X117653258Y-103915276D02*
X117558020Y-103820038D01*
X117558020Y-103820038D02*
X117415163Y-103772419D01*
X117415163Y-103772419D02*
X117319925Y-103772419D01*
X117319925Y-103772419D02*
X117177068Y-103820038D01*
X117177068Y-103820038D02*
X117129449Y-103867657D01*
X116224687Y-104772419D02*
X116700877Y-104772419D01*
X116700877Y-104772419D02*
X116700877Y-103772419D01*
X115891353Y-104772419D02*
X115891353Y-103772419D01*
X115319925Y-104772419D02*
X115748496Y-104200990D01*
X115319925Y-103772419D02*
X115891353Y-104343847D01*
X151948609Y-110237217D02*
X151996228Y-110380074D01*
X151996228Y-110380074D02*
X152043847Y-110427693D01*
X152043847Y-110427693D02*
X152139085Y-110475312D01*
X152139085Y-110475312D02*
X152281942Y-110475312D01*
X152281942Y-110475312D02*
X152377180Y-110427693D01*
X152377180Y-110427693D02*
X152424800Y-110380074D01*
X152424800Y-110380074D02*
X152472419Y-110284836D01*
X152472419Y-110284836D02*
X152472419Y-109903884D01*
X152472419Y-109903884D02*
X151472419Y-109903884D01*
X151472419Y-109903884D02*
X151472419Y-110237217D01*
X151472419Y-110237217D02*
X151520038Y-110332455D01*
X151520038Y-110332455D02*
X151567657Y-110380074D01*
X151567657Y-110380074D02*
X151662895Y-110427693D01*
X151662895Y-110427693D02*
X151758133Y-110427693D01*
X151758133Y-110427693D02*
X151853371Y-110380074D01*
X151853371Y-110380074D02*
X151900990Y-110332455D01*
X151900990Y-110332455D02*
X151948609Y-110237217D01*
X151948609Y-110237217D02*
X151948609Y-109903884D01*
X152472419Y-111427693D02*
X152472419Y-110856265D01*
X152472419Y-111141979D02*
X151472419Y-111141979D01*
X151472419Y-111141979D02*
X151615276Y-111046741D01*
X151615276Y-111046741D02*
X151710514Y-110951503D01*
X151710514Y-110951503D02*
X151758133Y-110856265D01*
X149348609Y-110237217D02*
X149396228Y-110380074D01*
X149396228Y-110380074D02*
X149443847Y-110427693D01*
X149443847Y-110427693D02*
X149539085Y-110475312D01*
X149539085Y-110475312D02*
X149681942Y-110475312D01*
X149681942Y-110475312D02*
X149777180Y-110427693D01*
X149777180Y-110427693D02*
X149824800Y-110380074D01*
X149824800Y-110380074D02*
X149872419Y-110284836D01*
X149872419Y-110284836D02*
X149872419Y-109903884D01*
X149872419Y-109903884D02*
X148872419Y-109903884D01*
X148872419Y-109903884D02*
X148872419Y-110237217D01*
X148872419Y-110237217D02*
X148920038Y-110332455D01*
X148920038Y-110332455D02*
X148967657Y-110380074D01*
X148967657Y-110380074D02*
X149062895Y-110427693D01*
X149062895Y-110427693D02*
X149158133Y-110427693D01*
X149158133Y-110427693D02*
X149253371Y-110380074D01*
X149253371Y-110380074D02*
X149300990Y-110332455D01*
X149300990Y-110332455D02*
X149348609Y-110237217D01*
X149348609Y-110237217D02*
X149348609Y-109903884D01*
X148872419Y-111094360D02*
X148872419Y-111189598D01*
X148872419Y-111189598D02*
X148920038Y-111284836D01*
X148920038Y-111284836D02*
X148967657Y-111332455D01*
X148967657Y-111332455D02*
X149062895Y-111380074D01*
X149062895Y-111380074D02*
X149253371Y-111427693D01*
X149253371Y-111427693D02*
X149491466Y-111427693D01*
X149491466Y-111427693D02*
X149681942Y-111380074D01*
X149681942Y-111380074D02*
X149777180Y-111332455D01*
X149777180Y-111332455D02*
X149824800Y-111284836D01*
X149824800Y-111284836D02*
X149872419Y-111189598D01*
X149872419Y-111189598D02*
X149872419Y-111094360D01*
X149872419Y-111094360D02*
X149824800Y-110999122D01*
X149824800Y-110999122D02*
X149777180Y-110951503D01*
X149777180Y-110951503D02*
X149681942Y-110903884D01*
X149681942Y-110903884D02*
X149491466Y-110856265D01*
X149491466Y-110856265D02*
X149253371Y-110856265D01*
X149253371Y-110856265D02*
X149062895Y-110903884D01*
X149062895Y-110903884D02*
X148967657Y-110951503D01*
X148967657Y-110951503D02*
X148920038Y-110999122D01*
X148920038Y-110999122D02*
X148872419Y-111094360D01*
D11*
%TO.C,TP3*%
X171550000Y-101050000D02*
X172950000Y-101050000D01*
X171550000Y-102450000D02*
X171550000Y-101050000D01*
X172950000Y-101050000D02*
X172950000Y-102450000D01*
X172950000Y-102450000D02*
X171550000Y-102450000D01*
%TO.C,TP1*%
X167800000Y-102300000D02*
X169200000Y-102300000D01*
X167800000Y-103700000D02*
X167800000Y-102300000D01*
X169200000Y-102300000D02*
X169200000Y-103700000D01*
X169200000Y-103700000D02*
X167800000Y-103700000D01*
%TO.C,TP4*%
X119050000Y-97550000D02*
X120450000Y-97550000D01*
X119050000Y-98950000D02*
X119050000Y-97550000D01*
X120450000Y-97550000D02*
X120450000Y-98950000D01*
X120450000Y-98950000D02*
X119050000Y-98950000D01*
%TO.C,TP2*%
X171550000Y-103550000D02*
X172950000Y-103550000D01*
X171550000Y-104950000D02*
X171550000Y-103550000D01*
X172950000Y-103550000D02*
X172950000Y-104950000D01*
X172950000Y-104950000D02*
X171550000Y-104950000D01*
%TD*%
M02*
