%TF.GenerationSoftware,KiCad,Pcbnew,8.0.3*%
%TF.CreationDate,2024-06-30T21:57:39+02:00*%
%TF.ProjectId,black_pill,626c6163-6b5f-4706-996c-6c2e6b696361,rev?*%
%TF.SameCoordinates,Original*%
%TF.FileFunction,Soldermask,Bot*%
%TF.FilePolarity,Negative*%
%FSLAX46Y46*%
G04 Gerber Fmt 4.6, Leading zero omitted, Abs format (unit mm)*
G04 Created by KiCad (PCBNEW 8.0.3) date 2024-06-30 21:57:39*
%MOMM*%
%LPD*%
G01*
G04 APERTURE LIST*
%ADD10C,0.650000*%
%ADD11O,2.100000X1.000000*%
%ADD12O,1.800000X1.000000*%
%ADD13C,3.500000*%
%ADD14O,1.700000X1.700000*%
%ADD15R,1.700000X1.700000*%
%ADD16R,1.000000X1.000000*%
G04 APERTURE END LIST*
D10*
%TO.C,J1*%
X169395000Y-105890000D03*
X169395000Y-100110000D03*
D11*
X168875000Y-107320000D03*
D12*
X173075000Y-107320000D03*
D11*
X168875000Y-98680000D03*
D12*
X173075000Y-98680000D03*
%TD*%
D13*
%TO.C,H1*%
X114000000Y-94000000D03*
%TD*%
%TO.C,H4*%
X172000000Y-94000000D03*
%TD*%
%TO.C,H2*%
X114000000Y-112000000D03*
%TD*%
D14*
%TO.C,J2*%
X118875000Y-92840000D03*
D15*
X121415000Y-92840000D03*
D14*
X123955000Y-92840000D03*
X126495000Y-92840000D03*
X129035000Y-92840000D03*
X131575000Y-92840000D03*
X134115000Y-92840000D03*
X136655000Y-92840000D03*
X139195000Y-92840000D03*
X141735000Y-92840000D03*
X144275000Y-92840000D03*
X146815000Y-92840000D03*
X149355000Y-92840000D03*
X151895000Y-92840000D03*
X154435000Y-92840000D03*
X156975000Y-92840000D03*
X159515000Y-92840000D03*
X162055000Y-92840000D03*
X164595000Y-92840000D03*
X167135000Y-92840000D03*
%TD*%
%TO.C,J3*%
X167135000Y-113160000D03*
D15*
X164595000Y-113160000D03*
D14*
X162055000Y-113160000D03*
X159515000Y-113160000D03*
X156975000Y-113160000D03*
X154435000Y-113160000D03*
X151895000Y-113160000D03*
X149355000Y-113160000D03*
X146815000Y-113160000D03*
X144275000Y-113160000D03*
X141735000Y-113160000D03*
X139195000Y-113160000D03*
X136655000Y-113160000D03*
X134115000Y-113160000D03*
X131575000Y-113160000D03*
X129035000Y-113160000D03*
X126495000Y-113160000D03*
X123955000Y-113160000D03*
X121415000Y-113160000D03*
X118875000Y-113160000D03*
%TD*%
D13*
%TO.C,H3*%
X172000000Y-112000000D03*
%TD*%
D15*
%TO.C,J4*%
X114000000Y-106810000D03*
D14*
X114000000Y-104270000D03*
X114000000Y-101730000D03*
X114000000Y-99190000D03*
%TD*%
D16*
%TO.C,TP3*%
X172250000Y-101750000D03*
%TD*%
%TO.C,TP1*%
X168500000Y-103000000D03*
%TD*%
%TO.C,TP4*%
X119750000Y-98250000D03*
%TD*%
%TO.C,TP2*%
X172250000Y-104250000D03*
%TD*%
M02*
