M48
; DRILL file {KiCad 8.0.3} date 2024-07-03T16:09:02+0200
; FORMAT={-:-/ absolute / metric / decimal}
; #@! TF.CreationDate,2024-07-03T16:09:02+02:00
; #@! TF.GenerationSoftware,Kicad,Pcbnew,8.0.3
; #@! TF.FileFunction,Plated,1,2,PTH
FMAT,2
METRIC
; #@! TA.AperFunction,Plated,PTH,ViaDrill
T1C0.300
; #@! TA.AperFunction,Plated,PTH,ComponentDrill
T2C0.600
; #@! TA.AperFunction,Plated,PTH,ComponentDrill
T3C1.000
; #@! TA.AperFunction,Plated,PTH,ComponentDrill
T4C2.200
%
G90
G05
T1
X120.5Y-101.75
X123.75Y-102.75
X125.03Y-108.75
X125.5Y-101.75
X126.5Y-101.75
X128.25Y-108.827
X130.5Y-96.25
X131.035Y-110.0
X132.75Y-101.75
X132.75Y-104.5
X132.839Y-97.25
X134.25Y-103.5
X134.75Y-104.5
X135.036Y-100.964
X135.75Y-102.75
X136.499Y-106.95
X136.72Y-110.042
X137.309Y-108.827
X138.934Y-102.45
X139.75Y-101.75
X141.25Y-105.75
X141.841Y-100.25
X142.5Y-97.25
X142.796Y-99.5
X145.375Y-96.375
X145.859Y-98.298
X150.25Y-104.5
X153.0Y-102.8
X153.25Y-98.25
X154.0Y-110.0
X155.0Y-110.0
X162.5Y-106.0
X164.357Y-96.607
X164.784Y-98.784
X165.5Y-103.8
X166.25Y-94.75
X166.75Y-101.25
X169.75Y-101.75
X169.75Y-104.25
T3
X114.0Y-99.19
X114.0Y-101.73
X114.0Y-104.27
X114.0Y-106.81
X118.875Y-92.84
X118.875Y-113.16
X121.415Y-92.84
X121.415Y-113.16
X123.955Y-92.84
X123.955Y-113.16
X126.495Y-92.84
X126.495Y-113.16
X129.035Y-92.84
X129.035Y-113.16
X131.575Y-92.84
X131.575Y-113.16
X134.115Y-92.84
X134.115Y-113.16
X136.655Y-92.84
X136.655Y-113.16
X139.195Y-92.84
X139.195Y-113.16
X141.735Y-92.84
X141.735Y-113.16
X144.275Y-92.84
X144.275Y-113.16
X146.815Y-92.84
X146.815Y-113.16
X149.355Y-92.84
X149.355Y-113.16
X151.895Y-92.84
X151.895Y-113.16
X154.435Y-92.84
X154.435Y-113.16
X156.975Y-92.84
X156.975Y-113.16
X159.515Y-92.84
X159.515Y-113.16
X162.055Y-92.84
X162.055Y-113.16
X164.595Y-92.84
X164.595Y-113.16
X167.135Y-92.84
X167.135Y-113.16
T4
X114.0Y-94.0
X114.0Y-112.0
X172.0Y-94.0
X172.0Y-112.0
T2
G00X168.325Y-98.68
M15
G01X169.425Y-98.68
M16
G05
G00X168.325Y-107.32
M15
G01X169.425Y-107.32
M16
G05
G00X172.675Y-98.68
M15
G01X173.475Y-98.68
M16
G05
G00X172.675Y-107.32
M15
G01X173.475Y-107.32
M16
G05
M30
