%TF.GenerationSoftware,KiCad,Pcbnew,8.0.3*%
%TF.CreationDate,2024-06-30T21:57:39+02:00*%
%TF.ProjectId,black_pill,626c6163-6b5f-4706-996c-6c2e6b696361,rev?*%
%TF.SameCoordinates,Original*%
%TF.FileFunction,Copper,L1,Top*%
%TF.FilePolarity,Positive*%
%FSLAX46Y46*%
G04 Gerber Fmt 4.6, Leading zero omitted, Abs format (unit mm)*
G04 Created by KiCad (PCBNEW 8.0.3) date 2024-06-30 21:57:39*
%MOMM*%
%LPD*%
G01*
G04 APERTURE LIST*
G04 Aperture macros list*
%AMRoundRect*
0 Rectangle with rounded corners*
0 $1 Rounding radius*
0 $2 $3 $4 $5 $6 $7 $8 $9 X,Y pos of 4 corners*
0 Add a 4 corners polygon primitive as box body*
4,1,4,$2,$3,$4,$5,$6,$7,$8,$9,$2,$3,0*
0 Add four circle primitives for the rounded corners*
1,1,$1+$1,$2,$3*
1,1,$1+$1,$4,$5*
1,1,$1+$1,$6,$7*
1,1,$1+$1,$8,$9*
0 Add four rect primitives between the rounded corners*
20,1,$1+$1,$2,$3,$4,$5,0*
20,1,$1+$1,$4,$5,$6,$7,0*
20,1,$1+$1,$6,$7,$8,$9,0*
20,1,$1+$1,$8,$9,$2,$3,0*%
G04 Aperture macros list end*
%TA.AperFunction,SMDPad,CuDef*%
%ADD10RoundRect,0.140000X-0.219203X-0.021213X-0.021213X-0.219203X0.219203X0.021213X0.021213X0.219203X0*%
%TD*%
%TA.AperFunction,SMDPad,CuDef*%
%ADD11RoundRect,0.075000X-0.415425X-0.521491X0.521491X0.415425X0.415425X0.521491X-0.521491X-0.415425X0*%
%TD*%
%TA.AperFunction,SMDPad,CuDef*%
%ADD12RoundRect,0.075000X0.415425X-0.521491X0.521491X-0.415425X-0.415425X0.521491X-0.521491X0.415425X0*%
%TD*%
%TA.AperFunction,SMDPad,CuDef*%
%ADD13RoundRect,0.140000X0.021213X-0.219203X0.219203X-0.021213X-0.021213X0.219203X-0.219203X0.021213X0*%
%TD*%
%TA.AperFunction,SMDPad,CuDef*%
%ADD14R,1.240000X0.600000*%
%TD*%
%TA.AperFunction,SMDPad,CuDef*%
%ADD15R,1.240000X0.300000*%
%TD*%
%TA.AperFunction,ComponentPad*%
%ADD16O,2.100000X1.000000*%
%TD*%
%TA.AperFunction,ComponentPad*%
%ADD17O,1.800000X1.000000*%
%TD*%
%TA.AperFunction,ComponentPad*%
%ADD18C,3.500000*%
%TD*%
%TA.AperFunction,SMDPad,CuDef*%
%ADD19RoundRect,0.200000X0.200000X0.275000X-0.200000X0.275000X-0.200000X-0.275000X0.200000X-0.275000X0*%
%TD*%
%TA.AperFunction,SMDPad,CuDef*%
%ADD20R,0.750000X1.000000*%
%TD*%
%TA.AperFunction,SMDPad,CuDef*%
%ADD21RoundRect,0.140000X0.219203X0.021213X0.021213X0.219203X-0.219203X-0.021213X-0.021213X-0.219203X0*%
%TD*%
%TA.AperFunction,SMDPad,CuDef*%
%ADD22RoundRect,0.140000X-0.021213X0.219203X-0.219203X0.021213X0.021213X-0.219203X0.219203X-0.021213X0*%
%TD*%
%TA.AperFunction,SMDPad,CuDef*%
%ADD23R,1.200000X1.400000*%
%TD*%
%TA.AperFunction,SMDPad,CuDef*%
%ADD24RoundRect,0.140000X0.170000X-0.140000X0.170000X0.140000X-0.170000X0.140000X-0.170000X-0.140000X0*%
%TD*%
%TA.AperFunction,SMDPad,CuDef*%
%ADD25RoundRect,0.225000X0.225000X0.250000X-0.225000X0.250000X-0.225000X-0.250000X0.225000X-0.250000X0*%
%TD*%
%TA.AperFunction,SMDPad,CuDef*%
%ADD26RoundRect,0.140000X-0.170000X0.140000X-0.170000X-0.140000X0.170000X-0.140000X0.170000X0.140000X0*%
%TD*%
%TA.AperFunction,SMDPad,CuDef*%
%ADD27RoundRect,0.243750X0.243750X0.456250X-0.243750X0.456250X-0.243750X-0.456250X0.243750X-0.456250X0*%
%TD*%
%TA.AperFunction,SMDPad,CuDef*%
%ADD28RoundRect,0.250000X-0.475000X0.250000X-0.475000X-0.250000X0.475000X-0.250000X0.475000X0.250000X0*%
%TD*%
%TA.AperFunction,SMDPad,CuDef*%
%ADD29RoundRect,0.218750X-0.381250X0.218750X-0.381250X-0.218750X0.381250X-0.218750X0.381250X0.218750X0*%
%TD*%
%TA.AperFunction,ComponentPad*%
%ADD30O,1.700000X1.700000*%
%TD*%
%TA.AperFunction,ComponentPad*%
%ADD31R,1.700000X1.700000*%
%TD*%
%TA.AperFunction,SMDPad,CuDef*%
%ADD32RoundRect,0.200000X-0.200000X-0.275000X0.200000X-0.275000X0.200000X0.275000X-0.200000X0.275000X0*%
%TD*%
%TA.AperFunction,SMDPad,CuDef*%
%ADD33RoundRect,0.375000X0.375000X-0.625000X0.375000X0.625000X-0.375000X0.625000X-0.375000X-0.625000X0*%
%TD*%
%TA.AperFunction,SMDPad,CuDef*%
%ADD34RoundRect,0.500000X1.400000X-0.500000X1.400000X0.500000X-1.400000X0.500000X-1.400000X-0.500000X0*%
%TD*%
%TA.AperFunction,SMDPad,CuDef*%
%ADD35RoundRect,0.150000X0.150000X-0.512500X0.150000X0.512500X-0.150000X0.512500X-0.150000X-0.512500X0*%
%TD*%
%TA.AperFunction,SMDPad,CuDef*%
%ADD36RoundRect,0.250000X0.475000X-0.250000X0.475000X0.250000X-0.475000X0.250000X-0.475000X-0.250000X0*%
%TD*%
%TA.AperFunction,ViaPad*%
%ADD37C,0.700000*%
%TD*%
%TA.AperFunction,Conductor*%
%ADD38C,0.500000*%
%TD*%
%TA.AperFunction,Conductor*%
%ADD39C,0.300000*%
%TD*%
G04 APERTURE END LIST*
D10*
%TO.P,C4,1*%
%TO.N,+3.3V*%
X144160589Y-96410589D03*
%TO.P,C4,2*%
%TO.N,GND*%
X144839411Y-97089411D03*
%TD*%
D11*
%TO.P,U1,1,VBAT*%
%TO.N,+3.3V*%
X137612124Y-103998788D03*
%TO.P,U1,2,PC13*%
%TO.N,/C13*%
X137965678Y-104352342D03*
%TO.P,U1,3,PC14*%
%TO.N,/C14*%
X138319231Y-104705895D03*
%TO.P,U1,4,PC15*%
%TO.N,/C15*%
X138672785Y-105059449D03*
%TO.P,U1,5,PD0*%
%TO.N,/HSE_IN*%
X139026338Y-105413002D03*
%TO.P,U1,6,PD1*%
%TO.N,/HSE_OUT*%
X139379891Y-105766555D03*
%TO.P,U1,7,NRST*%
%TO.N,/NRST*%
X139733445Y-106120109D03*
%TO.P,U1,8,VSSA*%
%TO.N,GND*%
X140086998Y-106473662D03*
%TO.P,U1,9,VDDA*%
%TO.N,+3.3VA*%
X140440551Y-106827215D03*
%TO.P,U1,10,PA0*%
%TO.N,/A0*%
X140794105Y-107180769D03*
%TO.P,U1,11,PA1*%
%TO.N,/A1*%
X141147658Y-107534322D03*
%TO.P,U1,12,PA2*%
%TO.N,/A2*%
X141501212Y-107887876D03*
D12*
%TO.P,U1,13,PA3*%
%TO.N,/A3*%
X143498788Y-107887876D03*
%TO.P,U1,14,PA4*%
%TO.N,/A4*%
X143852342Y-107534322D03*
%TO.P,U1,15,PA5*%
%TO.N,/A5*%
X144205895Y-107180769D03*
%TO.P,U1,16,PA6*%
%TO.N,/A6*%
X144559449Y-106827215D03*
%TO.P,U1,17,PA7*%
%TO.N,/A7*%
X144913002Y-106473662D03*
%TO.P,U1,18,PB0*%
%TO.N,/B0*%
X145266555Y-106120109D03*
%TO.P,U1,19,PB1*%
%TO.N,/B1*%
X145620109Y-105766555D03*
%TO.P,U1,20,PB2*%
%TO.N,/B2*%
X145973662Y-105413002D03*
%TO.P,U1,21,PB10*%
%TO.N,/B10*%
X146327215Y-105059449D03*
%TO.P,U1,22,PB11*%
%TO.N,/B11*%
X146680769Y-104705895D03*
%TO.P,U1,23,VSS*%
%TO.N,GND*%
X147034322Y-104352342D03*
%TO.P,U1,24,VDD*%
%TO.N,+3.3V*%
X147387876Y-103998788D03*
D11*
%TO.P,U1,25,PB12*%
%TO.N,/B12*%
X147387876Y-102001212D03*
%TO.P,U1,26,PB13*%
%TO.N,/B13*%
X147034322Y-101647658D03*
%TO.P,U1,27,PB14*%
%TO.N,/B14*%
X146680769Y-101294105D03*
%TO.P,U1,28,PB15*%
%TO.N,/B15*%
X146327215Y-100940551D03*
%TO.P,U1,29,PA8*%
%TO.N,/A8*%
X145973662Y-100586998D03*
%TO.P,U1,30,PA9*%
%TO.N,/A9*%
X145620109Y-100233445D03*
%TO.P,U1,31,PA10*%
%TO.N,/A10*%
X145266555Y-99879891D03*
%TO.P,U1,32,PA11*%
%TO.N,/A11*%
X144913002Y-99526338D03*
%TO.P,U1,33,PA12*%
%TO.N,/A12*%
X144559449Y-99172785D03*
%TO.P,U1,34,PA13*%
%TO.N,/SWDIO*%
X144205895Y-98819231D03*
%TO.P,U1,35,VSS*%
%TO.N,GND*%
X143852342Y-98465678D03*
%TO.P,U1,36,VDD*%
%TO.N,+3.3V*%
X143498788Y-98112124D03*
D12*
%TO.P,U1,37,PA14*%
%TO.N,/SWCLK*%
X141501212Y-98112124D03*
%TO.P,U1,38,PA15*%
%TO.N,/A15*%
X141147658Y-98465678D03*
%TO.P,U1,39,PB3*%
%TO.N,/B3*%
X140794105Y-98819231D03*
%TO.P,U1,40,PB4*%
%TO.N,/B4*%
X140440551Y-99172785D03*
%TO.P,U1,41,PB5*%
%TO.N,/B5*%
X140086998Y-99526338D03*
%TO.P,U1,42,PB6*%
%TO.N,/B6*%
X139733445Y-99879891D03*
%TO.P,U1,43,PB7*%
%TO.N,/B7*%
X139379891Y-100233445D03*
%TO.P,U1,44,BOOT0*%
%TO.N,/BOOT0*%
X139026338Y-100586998D03*
%TO.P,U1,45,PB8*%
%TO.N,/B8*%
X138672785Y-100940551D03*
%TO.P,U1,46,PB9*%
%TO.N,/B9*%
X138319231Y-101294105D03*
%TO.P,U1,47,VSS*%
%TO.N,GND*%
X137965678Y-101647658D03*
%TO.P,U1,48,VDD*%
%TO.N,+3.3V*%
X137612124Y-102001212D03*
%TD*%
D13*
%TO.P,C5,1*%
%TO.N,+3.3VA*%
X138060589Y-108139411D03*
%TO.P,C5,2*%
%TO.N,GND*%
X138739411Y-107460589D03*
%TD*%
D14*
%TO.P,J1,A1,GND*%
%TO.N,GND*%
X168275000Y-106200000D03*
%TO.P,J1,A4,VBUS*%
%TO.N,VBUS*%
X168275000Y-105400000D03*
D15*
%TO.P,J1,A5,CC1*%
%TO.N,/CC1*%
X168275000Y-104250000D03*
%TO.P,J1,A6,D+*%
%TO.N,/DP*%
X168275000Y-103250000D03*
%TO.P,J1,A7,D-*%
%TO.N,/DN*%
X168275000Y-102750000D03*
%TO.P,J1,A8,SBU1*%
%TO.N,unconnected-(J1-SBU1-PadA8)*%
X168275000Y-101750000D03*
D14*
%TO.P,J1,A9,VBUS*%
%TO.N,VBUS*%
X168275000Y-100600000D03*
%TO.P,J1,A12,GND*%
%TO.N,GND*%
X168275000Y-99800000D03*
%TO.P,J1,B1,GND*%
X168275000Y-99800000D03*
%TO.P,J1,B4,VBUS*%
%TO.N,VBUS*%
X168275000Y-100600000D03*
D15*
%TO.P,J1,B5,CC2*%
%TO.N,/CC2*%
X168275000Y-101250000D03*
%TO.P,J1,B6,D+*%
%TO.N,/DP*%
X168275000Y-102250000D03*
%TO.P,J1,B7,D-*%
%TO.N,/DN*%
X168275000Y-103750000D03*
%TO.P,J1,B8,SBU2*%
%TO.N,unconnected-(J1-SBU2-PadB8)*%
X168275000Y-104750000D03*
D14*
%TO.P,J1,B9,VBUS*%
%TO.N,VBUS*%
X168275000Y-105400000D03*
%TO.P,J1,B12,GND*%
%TO.N,GND*%
X168275000Y-106200000D03*
D16*
%TO.P,J1,S1,SHIELD*%
X168875000Y-107320000D03*
D17*
X173075000Y-107320000D03*
D16*
X168875000Y-98680000D03*
D17*
X173075000Y-98680000D03*
%TD*%
D18*
%TO.P,H1,1,1*%
%TO.N,GND*%
X114000000Y-94000000D03*
%TD*%
D19*
%TO.P,R3,1*%
%TO.N,GND*%
X129325000Y-96250000D03*
%TO.P,R3,2*%
%TO.N,Net-(D1-K)*%
X127675000Y-96250000D03*
%TD*%
D18*
%TO.P,H4,1,1*%
%TO.N,GND*%
X172000000Y-94000000D03*
%TD*%
D20*
%TO.P,SW1,1,A*%
%TO.N,GND*%
X118125000Y-110250000D03*
X118125000Y-104250000D03*
%TO.P,SW1,2,B*%
%TO.N,/NRST*%
X121875000Y-110250000D03*
X121875000Y-104250000D03*
%TD*%
D18*
%TO.P,H2,1,1*%
%TO.N,GND*%
X114000000Y-112000000D03*
%TD*%
D21*
%TO.P,C2,1*%
%TO.N,+3.3V*%
X136089411Y-104339411D03*
%TO.P,C2,2*%
%TO.N,GND*%
X135410589Y-103660589D03*
%TD*%
D20*
%TO.P,SW2,1,A*%
%TO.N,+3.3V*%
X121875000Y-95750000D03*
X121875000Y-101750000D03*
%TO.P,SW2,2,B*%
%TO.N,/BOOT0*%
X118125000Y-95750000D03*
X118125000Y-101750000D03*
%TD*%
D22*
%TO.P,C3,1*%
%TO.N,+3.3V*%
X149178822Y-104571178D03*
%TO.P,C3,2*%
%TO.N,GND*%
X148500000Y-105250000D03*
%TD*%
D23*
%TO.P,Y1,1,1*%
%TO.N,/HSE_IN*%
X132435000Y-107400000D03*
%TO.P,Y1,2,2*%
%TO.N,GND*%
X132435000Y-109600000D03*
%TO.P,Y1,3,3*%
%TO.N,/HSE_OUT*%
X134135000Y-109600000D03*
%TO.P,Y1,4,4*%
%TO.N,GND*%
X134135000Y-107400000D03*
%TD*%
D24*
%TO.P,C9,1*%
%TO.N,/HSE_IN*%
X135585000Y-107880000D03*
%TO.P,C9,2*%
%TO.N,GND*%
X135585000Y-106920000D03*
%TD*%
D25*
%TO.P,C7,1*%
%TO.N,+3.3V*%
X125525000Y-104500000D03*
%TO.P,C7,2*%
%TO.N,GND*%
X123975000Y-104500000D03*
%TD*%
D26*
%TO.P,C10,1*%
%TO.N,/HSE_OUT*%
X135585000Y-109120000D03*
%TO.P,C10,2*%
%TO.N,GND*%
X135585000Y-110080000D03*
%TD*%
D24*
%TO.P,C11,1*%
%TO.N,/NRST*%
X124000000Y-109980000D03*
%TO.P,C11,2*%
%TO.N,GND*%
X124000000Y-109020000D03*
%TD*%
D25*
%TO.P,C8,1*%
%TO.N,+3.3VA*%
X125550000Y-106500000D03*
%TO.P,C8,2*%
%TO.N,GND*%
X124000000Y-106500000D03*
%TD*%
D27*
%TO.P,D1,1,K*%
%TO.N,Net-(D1-K)*%
X125937500Y-96250000D03*
%TO.P,D1,2,A*%
%TO.N,+3.3V*%
X124062500Y-96250000D03*
%TD*%
D28*
%TO.P,C12,1*%
%TO.N,VBUS*%
X164750000Y-107800000D03*
%TO.P,C12,2*%
%TO.N,GND*%
X164750000Y-109700000D03*
%TD*%
D19*
%TO.P,R2,1*%
%TO.N,/CC1*%
X165825000Y-105750000D03*
%TO.P,R2,2*%
%TO.N,GND*%
X164175000Y-105750000D03*
%TD*%
D29*
%TO.P,FB1,1*%
%TO.N,+3.3V*%
X127275000Y-104437500D03*
%TO.P,FB1,2*%
%TO.N,+3.3VA*%
X127275000Y-106562500D03*
%TD*%
D19*
%TO.P,R1,1*%
%TO.N,/CC2*%
X165825000Y-97750000D03*
%TO.P,R1,2*%
%TO.N,GND*%
X164175000Y-97750000D03*
%TD*%
D30*
%TO.P,J2,1,Pin_1*%
%TO.N,+3.3V*%
X118875000Y-92840000D03*
D31*
%TO.P,J2,2,Pin_2*%
%TO.N,GND*%
X121415000Y-92840000D03*
D30*
%TO.P,J2,3,Pin_3*%
%TO.N,VBUS*%
X123955000Y-92840000D03*
%TO.P,J2,4,Pin_4*%
%TO.N,/B9*%
X126495000Y-92840000D03*
%TO.P,J2,5,Pin_5*%
%TO.N,/B8*%
X129035000Y-92840000D03*
%TO.P,J2,6,Pin_6*%
%TO.N,/B7*%
X131575000Y-92840000D03*
%TO.P,J2,7,Pin_7*%
%TO.N,/B6*%
X134115000Y-92840000D03*
%TO.P,J2,8,Pin_8*%
%TO.N,/B5*%
X136655000Y-92840000D03*
%TO.P,J2,9,Pin_9*%
%TO.N,/B4*%
X139195000Y-92840000D03*
%TO.P,J2,10,Pin_10*%
%TO.N,/B3*%
X141735000Y-92840000D03*
%TO.P,J2,11,Pin_11*%
%TO.N,/A15*%
X144275000Y-92840000D03*
%TO.P,J2,12,Pin_12*%
%TO.N,/A12*%
X146815000Y-92840000D03*
%TO.P,J2,13,Pin_13*%
%TO.N,/A11*%
X149355000Y-92840000D03*
%TO.P,J2,14,Pin_14*%
%TO.N,/A10*%
X151895000Y-92840000D03*
%TO.P,J2,15,Pin_15*%
%TO.N,/A9*%
X154435000Y-92840000D03*
%TO.P,J2,16,Pin_16*%
%TO.N,/A8*%
X156975000Y-92840000D03*
%TO.P,J2,17,Pin_17*%
%TO.N,/B15*%
X159515000Y-92840000D03*
%TO.P,J2,18,Pin_18*%
%TO.N,/B14*%
X162055000Y-92840000D03*
%TO.P,J2,19,Pin_19*%
%TO.N,/B13*%
X164595000Y-92840000D03*
%TO.P,J2,20,Pin_20*%
%TO.N,/B12*%
X167135000Y-92840000D03*
%TD*%
D32*
%TO.P,R4,1*%
%TO.N,+3.3V*%
X127675000Y-98250000D03*
%TO.P,R4,2*%
%TO.N,/NRST*%
X129325000Y-98250000D03*
%TD*%
D22*
%TO.P,C1,1*%
%TO.N,+3.3V*%
X136339411Y-100910589D03*
%TO.P,C1,2*%
%TO.N,GND*%
X135660589Y-101589411D03*
%TD*%
D19*
%TO.P,R5,1*%
%TO.N,/C13*%
X129331250Y-100000000D03*
%TO.P,R5,2*%
%TO.N,Net-(D2-K)*%
X127681250Y-100000000D03*
%TD*%
%TO.P,R7,1*%
%TO.N,+3.3V*%
X156650000Y-100750000D03*
%TO.P,R7,2*%
%TO.N,/A12*%
X155000000Y-100750000D03*
%TD*%
D30*
%TO.P,J3,1,Pin_1*%
%TO.N,VBUS*%
X167135000Y-113160000D03*
D31*
%TO.P,J3,2,Pin_2*%
%TO.N,GND*%
X164595000Y-113160000D03*
D30*
%TO.P,J3,3,Pin_3*%
%TO.N,+3.3V*%
X162055000Y-113160000D03*
%TO.P,J3,4,Pin_4*%
%TO.N,/B11*%
X159515000Y-113160000D03*
%TO.P,J3,5,Pin_5*%
%TO.N,/B10*%
X156975000Y-113160000D03*
%TO.P,J3,6,Pin_6*%
%TO.N,/B2*%
X154435000Y-113160000D03*
%TO.P,J3,7,Pin_7*%
%TO.N,/B1*%
X151895000Y-113160000D03*
%TO.P,J3,8,Pin_8*%
%TO.N,/B0*%
X149355000Y-113160000D03*
%TO.P,J3,9,Pin_9*%
%TO.N,/A7*%
X146815000Y-113160000D03*
%TO.P,J3,10,Pin_10*%
%TO.N,/A6*%
X144275000Y-113160000D03*
%TO.P,J3,11,Pin_11*%
%TO.N,/A5*%
X141735000Y-113160000D03*
%TO.P,J3,12,Pin_12*%
%TO.N,/A4*%
X139195000Y-113160000D03*
%TO.P,J3,13,Pin_13*%
%TO.N,/A3*%
X136655000Y-113160000D03*
%TO.P,J3,14,Pin_14*%
%TO.N,/A2*%
X134115000Y-113160000D03*
%TO.P,J3,15,Pin_15*%
%TO.N,/A1*%
X131575000Y-113160000D03*
%TO.P,J3,16,Pin_16*%
%TO.N,/A0*%
X129035000Y-113160000D03*
%TO.P,J3,17,Pin_17*%
%TO.N,/NRST*%
X126495000Y-113160000D03*
%TO.P,J3,18,Pin_18*%
%TO.N,/C15*%
X123955000Y-113160000D03*
%TO.P,J3,19,Pin_19*%
%TO.N,/C14*%
X121415000Y-113160000D03*
%TO.P,J3,20,Pin_20*%
%TO.N,/C13*%
X118875000Y-113160000D03*
%TD*%
D18*
%TO.P,H3,1,1*%
%TO.N,GND*%
X172000000Y-112000000D03*
%TD*%
D33*
%TO.P,U2,1,GND*%
%TO.N,GND*%
X157200000Y-109150000D03*
%TO.P,U2,2,VO*%
%TO.N,+3.3V*%
X159500000Y-109150000D03*
D34*
X159500000Y-102850000D03*
D33*
%TO.P,U2,3,VI*%
%TO.N,VBUS*%
X161800000Y-109150000D03*
%TD*%
D32*
%TO.P,R6,1*%
%TO.N,GND*%
X127675000Y-101750000D03*
%TO.P,R6,2*%
%TO.N,/BOOT0*%
X129325000Y-101750000D03*
%TD*%
D35*
%TO.P,U3,1,I/O1*%
%TO.N,/DN*%
X164050000Y-102637500D03*
%TO.P,U3,2,GND*%
%TO.N,GND*%
X165000000Y-102637500D03*
%TO.P,U3,3,I/O2*%
%TO.N,/DP*%
X165950000Y-102637500D03*
%TO.P,U3,4,I/O2*%
%TO.N,/A12*%
X165950000Y-100362500D03*
%TO.P,U3,5,VBUS*%
%TO.N,VBUS*%
X165000000Y-100362500D03*
%TO.P,U3,6,I/O1*%
%TO.N,/A11*%
X164050000Y-100362500D03*
%TD*%
D36*
%TO.P,C6,1*%
%TO.N,+3.3V*%
X154500000Y-104700000D03*
%TO.P,C6,2*%
%TO.N,GND*%
X154500000Y-102800000D03*
%TD*%
D27*
%TO.P,D2,1,K*%
%TO.N,Net-(D2-K)*%
X125943750Y-100000000D03*
%TO.P,D2,2,A*%
%TO.N,+3.3V*%
X124068750Y-100000000D03*
%TD*%
D31*
%TO.P,J4,1,Pin_1*%
%TO.N,GND*%
X114000000Y-106810000D03*
D30*
%TO.P,J4,2,Pin_2*%
%TO.N,/SWCLK*%
X114000000Y-104270000D03*
%TO.P,J4,3,Pin_3*%
%TO.N,/SWDIO*%
X114000000Y-101730000D03*
%TO.P,J4,4,Pin_4*%
%TO.N,+3.3V*%
X114000000Y-99190000D03*
%TD*%
D28*
%TO.P,C13,1*%
%TO.N,+3.3V*%
X154500000Y-106800000D03*
%TO.P,C13,2*%
%TO.N,GND*%
X154500000Y-108700000D03*
%TD*%
D37*
%TO.N,GND*%
X138934262Y-102450000D03*
X132500000Y-98250000D03*
X165250000Y-96250000D03*
X130750000Y-96250000D03*
X136720000Y-110042500D03*
X134250000Y-103500000D03*
X125030000Y-108750000D03*
X152500000Y-102800000D03*
X136499391Y-106950000D03*
X126500000Y-101750000D03*
X165500000Y-103800000D03*
X131035000Y-110000000D03*
X145750000Y-96000000D03*
X155000000Y-110000000D03*
X141250000Y-105750000D03*
X154000000Y-110000000D03*
X162250000Y-106250000D03*
%TO.N,+3.3V*%
X142500000Y-97250000D03*
X134750000Y-104500000D03*
X150250000Y-104500000D03*
X132839411Y-97250000D03*
X132750000Y-104500000D03*
%TO.N,/NRST*%
X128500000Y-110000000D03*
X135750000Y-102750000D03*
X125030050Y-109980000D03*
X123750000Y-102750000D03*
%TO.N,+3.3VA*%
X126200000Y-108800000D03*
X137309099Y-108827297D03*
%TO.N,/CC2*%
X164784314Y-98784314D03*
X166750000Y-101250000D03*
%TO.N,VBUS*%
X166250000Y-94750000D03*
%TO.N,/BOOT0*%
X139750000Y-101750000D03*
X118125000Y-98250000D03*
X125500000Y-101750000D03*
X120500000Y-101750000D03*
X132750000Y-101750000D03*
%TO.N,/SWCLK*%
X117000000Y-100250000D03*
X141841234Y-100250000D03*
%TO.N,/SWDIO*%
X116400000Y-99500000D03*
X142795619Y-99500000D03*
%TO.N,/A11*%
X145858578Y-98297918D03*
X153250000Y-98250000D03*
%TO.N,/DN*%
X169750000Y-104250000D03*
%TO.N,/DP*%
X169750000Y-101750000D03*
%TD*%
D38*
%TO.N,GND*%
X129325000Y-96250000D02*
X130750000Y-96250000D01*
X132500000Y-98428822D02*
X135660589Y-101589411D01*
X164175000Y-97750000D02*
X164175000Y-97325000D01*
X124760000Y-109020000D02*
X125030000Y-108750000D01*
X135250000Y-103500000D02*
X135410589Y-103660589D01*
X168875000Y-99200000D02*
X168275000Y-99800000D01*
D39*
X144839411Y-97089411D02*
X144839411Y-96910589D01*
D38*
X134615000Y-106920000D02*
X135585000Y-106920000D01*
X164175000Y-97325000D02*
X165250000Y-96250000D01*
D39*
X147034322Y-104352342D02*
X146439914Y-103757934D01*
X146439914Y-103757934D02*
X143242066Y-103757934D01*
X138934262Y-102450000D02*
X138768020Y-102450000D01*
X148500000Y-105250000D02*
X147931980Y-105250000D01*
D38*
X121840000Y-92840000D02*
X123000000Y-94000000D01*
X132500000Y-98250000D02*
X132500000Y-98428822D01*
X165090000Y-113160000D02*
X166250000Y-112000000D01*
X165000000Y-103300000D02*
X165500000Y-103800000D01*
D39*
X144500000Y-97428822D02*
X144839411Y-97089411D01*
D38*
X123975000Y-106475000D02*
X124000000Y-106500000D01*
X164175000Y-105750000D02*
X162750000Y-105750000D01*
D39*
X143852342Y-98465678D02*
X144500000Y-97818020D01*
D38*
X168875000Y-98680000D02*
X168875000Y-99200000D01*
D39*
X144839411Y-96910589D02*
X145750000Y-96000000D01*
D38*
X168875000Y-107320000D02*
X168875000Y-106800000D01*
X124000000Y-109020000D02*
X124760000Y-109020000D01*
X162750000Y-105750000D02*
X162250000Y-106250000D01*
D39*
X144500000Y-97818020D02*
X144500000Y-97428822D01*
X138768020Y-102450000D02*
X137965678Y-101647658D01*
D38*
X136682500Y-110080000D02*
X135585000Y-110080000D01*
X123975000Y-104500000D02*
X123975000Y-106475000D01*
X152500000Y-102800000D02*
X154500000Y-102800000D01*
X164160000Y-113160000D02*
X164595000Y-113160000D01*
X132435000Y-109600000D02*
X131435000Y-109600000D01*
D39*
X140086998Y-106473662D02*
X140810660Y-105750000D01*
X139100071Y-107460589D02*
X140086998Y-106473662D01*
D38*
X121415000Y-92840000D02*
X121840000Y-92840000D01*
D39*
X140810660Y-105750000D02*
X141250000Y-105750000D01*
D38*
X134250000Y-103500000D02*
X135250000Y-103500000D01*
X136720000Y-110042500D02*
X136682500Y-110080000D01*
X164160000Y-113160000D02*
X163000000Y-112000000D01*
X124000000Y-109020000D02*
X124000000Y-106500000D01*
X131435000Y-109600000D02*
X131035000Y-110000000D01*
X127675000Y-101750000D02*
X126500000Y-101750000D01*
D39*
X147931980Y-105250000D02*
X147034322Y-104352342D01*
D38*
X135585000Y-106920000D02*
X136469391Y-106920000D01*
X134135000Y-107400000D02*
X134615000Y-106920000D01*
D39*
X143242066Y-103757934D02*
X141250000Y-105750000D01*
D38*
X165000000Y-102637500D02*
X165000000Y-103300000D01*
D39*
X138739411Y-107460589D02*
X139100071Y-107460589D01*
D38*
X168875000Y-106800000D02*
X168275000Y-106200000D01*
X136469391Y-106920000D02*
X136499391Y-106950000D01*
%TO.N,+3.3V*%
X125525000Y-104500000D02*
X127212500Y-104500000D01*
X154300000Y-104500000D02*
X154500000Y-104700000D01*
X150250000Y-104500000D02*
X154300000Y-104500000D01*
X124750000Y-98250000D02*
X124068750Y-98931250D01*
D39*
X144000000Y-96571178D02*
X144000000Y-97610912D01*
X136339411Y-100910589D02*
X136521501Y-100910589D01*
D38*
X124068750Y-98931250D02*
X124068750Y-100000000D01*
X118875000Y-93125000D02*
X118875000Y-92840000D01*
X114000000Y-99190000D02*
X114000000Y-98000000D01*
D39*
X149178822Y-104571178D02*
X149145697Y-104538053D01*
X136521501Y-100910589D02*
X137612124Y-102001212D01*
D38*
X125525000Y-103275000D02*
X125525000Y-104500000D01*
D39*
X150178822Y-104571178D02*
X150250000Y-104500000D01*
D38*
X114000000Y-98000000D02*
X118875000Y-93125000D01*
X127212500Y-104500000D02*
X127275000Y-104437500D01*
D39*
X136339411Y-100750000D02*
X136339411Y-100910589D01*
D38*
X162055000Y-113160000D02*
X162055000Y-112305000D01*
X124062500Y-96250000D02*
X122375000Y-96250000D01*
D39*
X142500000Y-97250000D02*
X142500000Y-96750000D01*
X144000000Y-97610912D02*
X143498788Y-98112124D01*
D38*
X124068750Y-101500000D02*
X124068750Y-101818750D01*
D39*
X127675000Y-97575000D02*
X127675000Y-98250000D01*
X132839411Y-97250000D02*
X128000000Y-97250000D01*
D38*
X124750000Y-102500000D02*
X125525000Y-103275000D01*
X124068750Y-96256250D02*
X124062500Y-96250000D01*
X159500000Y-109750000D02*
X159500000Y-109150000D01*
D39*
X149178822Y-104571178D02*
X150178822Y-104571178D01*
X147927141Y-104538053D02*
X147387876Y-103998788D01*
D38*
X132750000Y-104500000D02*
X127337500Y-104500000D01*
D39*
X144160589Y-96410589D02*
X144000000Y-96571178D01*
D38*
X162055000Y-112305000D02*
X159500000Y-109750000D01*
X124068750Y-101818750D02*
X124750000Y-102500000D01*
X127675000Y-98250000D02*
X124750000Y-98250000D01*
D39*
X142839411Y-96410589D02*
X144160589Y-96410589D01*
X135928822Y-104500000D02*
X136089411Y-104339411D01*
D38*
X122375000Y-96250000D02*
X121875000Y-95750000D01*
X124187500Y-100118750D02*
X124068750Y-100000000D01*
X118875000Y-92840000D02*
X118965000Y-92840000D01*
X124068750Y-100000000D02*
X124068750Y-96256250D01*
X127337500Y-104500000D02*
X127275000Y-104437500D01*
X118965000Y-92840000D02*
X121875000Y-95750000D01*
D39*
X134750000Y-104500000D02*
X135928822Y-104500000D01*
X132839411Y-97250000D02*
X136339411Y-100750000D01*
X136089411Y-104339411D02*
X136500000Y-104750000D01*
X128000000Y-97250000D02*
X127675000Y-97575000D01*
X136860912Y-104750000D02*
X137612124Y-103998788D01*
X149145697Y-104538053D02*
X147927141Y-104538053D01*
X136500000Y-104750000D02*
X136860912Y-104750000D01*
X142500000Y-96750000D02*
X142839411Y-96410589D01*
D38*
X124068750Y-100000000D02*
X124068750Y-101500000D01*
D39*
%TO.N,/NRST*%
X125030050Y-109980000D02*
X124000000Y-109980000D01*
X123000000Y-102750000D02*
X121875000Y-103875000D01*
X123750000Y-102750000D02*
X123000000Y-102750000D01*
X122145000Y-109980000D02*
X124000000Y-109980000D01*
X128500000Y-110000000D02*
X128500000Y-111155000D01*
X135949173Y-102949173D02*
X138443485Y-102949173D01*
X138443485Y-102949173D02*
X140327852Y-104833540D01*
X121875000Y-103875000D02*
X121875000Y-104250000D01*
X121875000Y-110250000D02*
X122145000Y-109980000D01*
X140327852Y-105525702D02*
X139733445Y-106120109D01*
X135750000Y-102750000D02*
X131250000Y-98250000D01*
X121875000Y-104250000D02*
X121875000Y-110250000D01*
X131250000Y-98250000D02*
X129325000Y-98250000D01*
X140327852Y-104833540D02*
X140327852Y-105525702D01*
X128500000Y-111155000D02*
X126495000Y-113160000D01*
X135750000Y-102750000D02*
X135949173Y-102949173D01*
%TO.N,Net-(D1-K)*%
X125937500Y-96250000D02*
X127675000Y-96250000D01*
%TO.N,Net-(D2-K)*%
X125943750Y-100000000D02*
X127681250Y-100000000D01*
%TO.N,+3.3VA*%
X139095230Y-108172536D02*
X138093714Y-108172536D01*
D38*
X125550000Y-107489314D02*
X126200000Y-108139314D01*
X125612500Y-106562500D02*
X125550000Y-106500000D01*
X127275000Y-106562500D02*
X125612500Y-106562500D01*
X125550000Y-106500000D02*
X125550000Y-107489314D01*
D39*
X138093714Y-108172536D02*
X138060589Y-108139411D01*
X137372703Y-108827297D02*
X138060589Y-108139411D01*
D38*
X126200000Y-108139314D02*
X126200000Y-108800000D01*
D39*
X140440551Y-106827215D02*
X139095230Y-108172536D01*
X137309099Y-108827297D02*
X137372703Y-108827297D01*
%TO.N,/CC2*%
X164784314Y-98784314D02*
X164784314Y-98465686D01*
X164784314Y-98465686D02*
X165500000Y-97750000D01*
X166750000Y-101250000D02*
X168275000Y-101250000D01*
X165500000Y-97750000D02*
X165825000Y-97750000D01*
D38*
%TO.N,VBUS*%
X167000000Y-97750000D02*
X167020000Y-97730000D01*
X171000000Y-107088503D02*
X169818503Y-108270000D01*
X167000000Y-99000000D02*
X167000000Y-100250000D01*
X165000000Y-100362500D02*
X165000000Y-99700001D01*
X167931497Y-108270000D02*
X167000000Y-107338503D01*
X167000000Y-107338503D02*
X167000000Y-105750000D01*
X167135000Y-110185000D02*
X164750000Y-107800000D01*
X167350000Y-100600000D02*
X168275000Y-100600000D01*
X167020000Y-97730000D02*
X169818503Y-97730000D01*
X169818503Y-97730000D02*
X171000000Y-98911497D01*
X165000000Y-99700001D02*
X165700001Y-99000000D01*
X167000000Y-97750000D02*
X167000000Y-99000000D01*
X171000000Y-98911497D02*
X171000000Y-107088503D01*
X166538503Y-107800000D02*
X164750000Y-107800000D01*
X167135000Y-113160000D02*
X167135000Y-110185000D01*
X165700001Y-99000000D02*
X167000000Y-99000000D01*
X166250000Y-94750000D02*
X167000000Y-95500000D01*
X162350000Y-109150000D02*
X163700000Y-107800000D01*
X161800000Y-109150000D02*
X162350000Y-109150000D01*
X167000000Y-95500000D02*
X167000000Y-97750000D01*
X169818503Y-108270000D02*
X167931497Y-108270000D01*
X167000000Y-107338503D02*
X166538503Y-107800000D01*
X167000000Y-105750000D02*
X167350000Y-105400000D01*
X167000000Y-100250000D02*
X167350000Y-100600000D01*
X167350000Y-105400000D02*
X168275000Y-105400000D01*
X163700000Y-107800000D02*
X164750000Y-107800000D01*
D39*
%TO.N,/CC1*%
X167325000Y-104250000D02*
X165825000Y-105750000D01*
X168275000Y-104250000D02*
X167325000Y-104250000D01*
%TO.N,/B1*%
X149000000Y-109146448D02*
X149000000Y-110265000D01*
X145620109Y-105766557D02*
X149000000Y-109146448D01*
X145620109Y-105766555D02*
X145620109Y-105766557D01*
X149000000Y-110265000D02*
X151895000Y-113160000D01*
%TO.N,/B2*%
X145973662Y-105413002D02*
X145973662Y-105413004D01*
X153720658Y-113160000D02*
X154435000Y-113160000D01*
X145973662Y-105413004D02*
X153720658Y-113160000D01*
%TO.N,/B0*%
X148000000Y-111805000D02*
X149355000Y-113160000D01*
X148000000Y-108853554D02*
X148000000Y-111805000D01*
X145266555Y-106120109D02*
X148000000Y-108853554D01*
%TO.N,/B13*%
X151931980Y-96750000D02*
X160685000Y-96750000D01*
X147034322Y-101647658D02*
X151931980Y-96750000D01*
X160685000Y-96750000D02*
X164595000Y-92840000D01*
%TO.N,/B7*%
X139379891Y-100233445D02*
X131986446Y-92840000D01*
X131986446Y-92840000D02*
X131575000Y-92840000D01*
%TO.N,/B12*%
X152139088Y-97250000D02*
X162725000Y-97250000D01*
X147387876Y-102001212D02*
X152139088Y-97250000D01*
X162725000Y-97250000D02*
X167135000Y-92840000D01*
%TO.N,/B3*%
X140794105Y-98819231D02*
X140000000Y-98025126D01*
X140000000Y-98025126D02*
X140000000Y-94575000D01*
X140000000Y-94575000D02*
X141735000Y-92840000D01*
%TO.N,/B8*%
X138672785Y-100940551D02*
X132232234Y-94500000D01*
X132232234Y-94500000D02*
X130695000Y-94500000D01*
X130695000Y-94500000D02*
X129035000Y-92840000D01*
%TO.N,/B5*%
X136655000Y-96094340D02*
X136655000Y-92840000D01*
X140086998Y-99526338D02*
X136655000Y-96094340D01*
%TO.N,/B9*%
X128655000Y-95000000D02*
X126495000Y-92840000D01*
X132025126Y-95000000D02*
X128655000Y-95000000D01*
X138319231Y-101294105D02*
X132025126Y-95000000D01*
%TO.N,/B4*%
X139195000Y-97927234D02*
X139195000Y-92840000D01*
X140440551Y-99172785D02*
X139195000Y-97927234D01*
%TO.N,/B15*%
X146327215Y-100940551D02*
X151517766Y-95750000D01*
X156605000Y-95750000D02*
X159515000Y-92840000D01*
X151517766Y-95750000D02*
X156605000Y-95750000D01*
%TO.N,/B14*%
X151724874Y-96250000D02*
X158645000Y-96250000D01*
X158645000Y-96250000D02*
X162055000Y-92840000D01*
X146680769Y-101294105D02*
X151724874Y-96250000D01*
%TO.N,/BOOT0*%
X129175000Y-102575000D02*
X129325000Y-102425000D01*
X118125000Y-98250000D02*
X118125000Y-95750000D01*
X120500000Y-101750000D02*
X118125000Y-101750000D01*
X126325000Y-102575000D02*
X129175000Y-102575000D01*
X139750000Y-101310660D02*
X139750000Y-101750000D01*
X129325000Y-102425000D02*
X129325000Y-101750000D01*
X118125000Y-101750000D02*
X118125000Y-98250000D01*
X139026338Y-100586998D02*
X139750000Y-101310660D01*
X132750000Y-101750000D02*
X129325000Y-101750000D01*
X125500000Y-101750000D02*
X126325000Y-102575000D01*
%TO.N,/B6*%
X135250000Y-95396446D02*
X135250000Y-93975000D01*
X135250000Y-93975000D02*
X134115000Y-92840000D01*
X139733445Y-99879891D02*
X135250000Y-95396446D01*
%TO.N,/B10*%
X153017766Y-111750000D02*
X155565000Y-111750000D01*
X146327215Y-105059449D02*
X153017766Y-111750000D01*
X155565000Y-111750000D02*
X156975000Y-113160000D01*
%TO.N,/B11*%
X157355000Y-111000000D02*
X159515000Y-113160000D01*
X152974874Y-111000000D02*
X157355000Y-111000000D01*
X146680769Y-104705895D02*
X152974874Y-111000000D01*
%TO.N,/A1*%
X141147658Y-107534322D02*
X140553252Y-108128730D01*
X140553252Y-108128730D02*
X137431982Y-111250000D01*
X133492500Y-111242500D02*
X131575000Y-113160000D01*
X137431982Y-111250000D02*
X133500000Y-111250000D01*
X133500000Y-111250000D02*
X133492500Y-111242500D01*
%TO.N,/C15*%
X124297107Y-113160000D02*
X123955000Y-113160000D01*
X131207106Y-106250000D02*
X129128553Y-108328553D01*
X129128553Y-108328553D02*
X125500000Y-111957107D01*
X125500000Y-111957107D02*
X124297107Y-113160000D01*
X137482234Y-106250000D02*
X131207106Y-106250000D01*
X138672785Y-105059449D02*
X137482234Y-106250000D01*
%TO.N,/C14*%
X122825000Y-111750000D02*
X121415000Y-113160000D01*
X125000000Y-111750000D02*
X122825000Y-111750000D01*
X138319231Y-104705895D02*
X137275126Y-105750000D01*
X137275126Y-105750000D02*
X131000000Y-105750000D01*
X131000000Y-105750000D02*
X125000000Y-111750000D01*
%TO.N,/HSE_OUT*%
X134615000Y-109120000D02*
X134135000Y-109600000D01*
X139379891Y-105766555D02*
X136026446Y-109120000D01*
X136026446Y-109120000D02*
X135585000Y-109120000D01*
X135585000Y-109120000D02*
X134615000Y-109120000D01*
%TO.N,/A0*%
X131492500Y-110742500D02*
X131472500Y-110722500D01*
X140794105Y-107180769D02*
X137232374Y-110742500D01*
X131472500Y-110722500D02*
X129035000Y-113160000D01*
X137232374Y-110742500D02*
X131492500Y-110742500D01*
%TO.N,/A15*%
X141147658Y-98465678D02*
X140500000Y-97818020D01*
X140500000Y-97818020D02*
X140500000Y-96615000D01*
X140500000Y-96615000D02*
X144275000Y-92840000D01*
%TO.N,/A6*%
X146000000Y-111435000D02*
X144275000Y-113160000D01*
X144559449Y-106827215D02*
X146000000Y-108267766D01*
X146000000Y-108267766D02*
X146000000Y-111435000D01*
%TO.N,/A2*%
X135525000Y-111750000D02*
X134115000Y-113160000D01*
X137639088Y-111750000D02*
X135525000Y-111750000D01*
X141501212Y-107887876D02*
X137639088Y-111750000D01*
%TO.N,/A4*%
X144446749Y-108477873D02*
X139764622Y-113160000D01*
X143852342Y-107534322D02*
X144446749Y-108128729D01*
X139764622Y-113160000D02*
X139195000Y-113160000D01*
X144446749Y-108128729D02*
X144446749Y-108477873D01*
%TO.N,/A7*%
X144913002Y-106473662D02*
X146982234Y-108542894D01*
X146982234Y-112992766D02*
X146815000Y-113160000D01*
X146982234Y-108542894D02*
X146982234Y-112992766D01*
%TO.N,/A3*%
X139636664Y-111750000D02*
X138346196Y-111750000D01*
X136936196Y-113160000D02*
X136655000Y-113160000D01*
X138346196Y-111750000D02*
X136936196Y-113160000D01*
X143498788Y-107887876D02*
X139636664Y-111750000D01*
%TO.N,/C13*%
X129431250Y-99900000D02*
X132092894Y-99900000D01*
X124750000Y-111250000D02*
X120785000Y-111250000D01*
X132092894Y-99900000D02*
X133500000Y-101307106D01*
X137068020Y-105250000D02*
X136000000Y-105250000D01*
X130750000Y-105250000D02*
X124750000Y-111250000D01*
X137965678Y-104352342D02*
X137068020Y-105250000D01*
X120785000Y-111250000D02*
X118875000Y-113160000D01*
X129331250Y-100000000D02*
X129431250Y-99900000D01*
X133500000Y-104239950D02*
X134510050Y-105250000D01*
X136000000Y-105250000D02*
X130750000Y-105250000D01*
X133500000Y-101307106D02*
X133500000Y-104239950D01*
X134510050Y-105250000D02*
X136000000Y-105250000D01*
%TO.N,/A5*%
X145250000Y-108224874D02*
X145250000Y-109645000D01*
X144205895Y-107180769D02*
X145250000Y-108224874D01*
X145250000Y-109645000D02*
X141735000Y-113160000D01*
%TO.N,/A10*%
X145266555Y-99879891D02*
X151895000Y-93251446D01*
X151895000Y-93251446D02*
X151895000Y-92840000D01*
%TO.N,/A9*%
X152525000Y-94750000D02*
X154435000Y-92840000D01*
X151103554Y-94750000D02*
X152525000Y-94750000D01*
X145620109Y-100233445D02*
X151103554Y-94750000D01*
%TO.N,/A8*%
X154565000Y-95250000D02*
X156975000Y-92840000D01*
X145973662Y-100586998D02*
X151310660Y-95250000D01*
X151310660Y-95250000D02*
X154565000Y-95250000D01*
%TO.N,/HSE_IN*%
X139026338Y-105413002D02*
X136559340Y-107880000D01*
X136559340Y-107880000D02*
X135585000Y-107880000D01*
X135585000Y-107880000D02*
X135015000Y-108450000D01*
X133385000Y-108450000D02*
X132435000Y-107500000D01*
X135015000Y-108450000D02*
X133385000Y-108450000D01*
X132435000Y-107500000D02*
X132435000Y-107400000D01*
%TO.N,/SWCLK*%
X142095619Y-98706531D02*
X141501212Y-98112124D01*
X142095619Y-99995615D02*
X142095619Y-98706531D01*
X141841234Y-100250000D02*
X142095619Y-99995615D01*
X114000000Y-103825000D02*
X114000000Y-104270000D01*
X117000000Y-100825000D02*
X114000000Y-103825000D01*
X117000000Y-100250000D02*
X117000000Y-100825000D01*
%TO.N,/SWDIO*%
X143525126Y-99500000D02*
X144205895Y-98819231D01*
X114170000Y-101730000D02*
X114000000Y-101730000D01*
X116400000Y-99500000D02*
X114170000Y-101730000D01*
X142795619Y-99500000D02*
X143525126Y-99500000D01*
%TO.N,/A12*%
X146815000Y-96185000D02*
X145153856Y-97846144D01*
X155000000Y-100750000D02*
X156000000Y-99750000D01*
X145153856Y-98578378D02*
X144559449Y-99172785D01*
X146815000Y-92840000D02*
X146815000Y-96185000D01*
X162063738Y-99750000D02*
X163688738Y-101375000D01*
X146500000Y-103000000D02*
X148500000Y-103000000D01*
X148500000Y-103000000D02*
X150750000Y-100750000D01*
X144559449Y-99172785D02*
X143965041Y-99767193D01*
X143965041Y-100465041D02*
X146500000Y-103000000D01*
X156000000Y-99750000D02*
X162063738Y-99750000D01*
X143965041Y-99767193D02*
X143965041Y-100465041D01*
X165599999Y-101375000D02*
X165950000Y-101024999D01*
X145153856Y-97846144D02*
X145153856Y-98578378D01*
X163688738Y-101375000D02*
X165599999Y-101375000D01*
X165950000Y-101024999D02*
X165950000Y-100362500D01*
X150750000Y-100750000D02*
X155000000Y-100750000D01*
%TO.N,/A11*%
X145858578Y-97848529D02*
X149355000Y-94352107D01*
X162750000Y-98250000D02*
X164050000Y-99550000D01*
X145858578Y-98297918D02*
X145858578Y-97848529D01*
X145858578Y-98297918D02*
X145858578Y-98580762D01*
X145858578Y-98580762D02*
X144913002Y-99526338D01*
X164050000Y-99550000D02*
X164050000Y-100362500D01*
X149355000Y-94352107D02*
X149355000Y-92840000D01*
X153250000Y-98250000D02*
X162750000Y-98250000D01*
%TO.N,/DN*%
X169250000Y-103750000D02*
X169750000Y-104250000D01*
X165105025Y-104500000D02*
X164050000Y-103444975D01*
X164050000Y-103444975D02*
X164050000Y-102637500D01*
X167250000Y-103000000D02*
X167250000Y-103500000D01*
X165875000Y-104500000D02*
X165105025Y-104500000D01*
X167250000Y-103500000D02*
X167500000Y-103750000D01*
X166625000Y-103750000D02*
X165875000Y-104500000D01*
X168275000Y-102750000D02*
X167500000Y-102750000D01*
X168275000Y-103750000D02*
X169250000Y-103750000D01*
X167500000Y-103750000D02*
X168275000Y-103750000D01*
X168275000Y-103750000D02*
X166625000Y-103750000D01*
X167500000Y-102750000D02*
X167250000Y-103000000D01*
%TO.N,/DP*%
X169245000Y-102250000D02*
X169745000Y-101750000D01*
X169500000Y-103000000D02*
X169250000Y-103250000D01*
X168275000Y-102250000D02*
X166337500Y-102250000D01*
X166337500Y-102250000D02*
X165950000Y-102637500D01*
X169745000Y-101750000D02*
X169750000Y-101750000D01*
X169250000Y-103250000D02*
X168275000Y-103250000D01*
X169245000Y-102250000D02*
X169495000Y-102500000D01*
X168275000Y-102250000D02*
X169245000Y-102250000D01*
X169500000Y-102500000D02*
X169500000Y-103000000D01*
X169495000Y-102500000D02*
X169500000Y-102500000D01*
%TD*%
%TA.AperFunction,Conductor*%
%TO.N,+3.3V*%
G36*
X161892812Y-100220185D02*
G01*
X161913454Y-100236819D01*
X162963681Y-101287046D01*
X162997166Y-101348369D01*
X163000000Y-101374727D01*
X163000000Y-104187789D01*
X162997617Y-104211980D01*
X162981976Y-104290612D01*
X162963462Y-104335311D01*
X162925836Y-104391623D01*
X162891623Y-104425836D01*
X162835311Y-104463462D01*
X162790612Y-104481976D01*
X162711980Y-104497617D01*
X162687789Y-104500000D01*
X160500000Y-104500000D01*
X160500000Y-104799995D01*
X160500000Y-110437789D01*
X160497617Y-110461980D01*
X160481976Y-110540612D01*
X160463462Y-110585311D01*
X160437802Y-110623715D01*
X160425836Y-110641623D01*
X160391623Y-110675835D01*
X160363688Y-110694501D01*
X160335311Y-110713462D01*
X160290612Y-110731976D01*
X160211980Y-110747617D01*
X160187789Y-110750000D01*
X158812211Y-110750000D01*
X158788020Y-110747617D01*
X158709387Y-110731976D01*
X158664687Y-110713461D01*
X158610609Y-110677327D01*
X158565804Y-110623715D01*
X158555500Y-110574225D01*
X158555500Y-107750002D01*
X158554197Y-107721816D01*
X158554197Y-107721812D01*
X158523472Y-107613827D01*
X158455814Y-107524233D01*
X158455813Y-107524232D01*
X158360360Y-107465130D01*
X158360361Y-107465130D01*
X158305179Y-107454815D01*
X158250000Y-107444500D01*
X158249998Y-107444500D01*
X153429500Y-107444500D01*
X153362461Y-107424815D01*
X153316706Y-107372011D01*
X153305500Y-107320500D01*
X153305500Y-105050502D01*
X153304197Y-105022316D01*
X153304197Y-105022312D01*
X153273472Y-104914327D01*
X153268352Y-104904044D01*
X153270052Y-104903197D01*
X153250353Y-104851040D01*
X153250000Y-104841684D01*
X153250000Y-104062210D01*
X153252381Y-104038029D01*
X153268025Y-103959379D01*
X153286534Y-103914693D01*
X153324168Y-103858370D01*
X153358370Y-103824168D01*
X153414693Y-103786534D01*
X153459379Y-103768025D01*
X153538028Y-103752381D01*
X153562211Y-103750000D01*
X155700001Y-103750000D01*
X156000000Y-103750000D01*
X156000000Y-100438464D01*
X156019685Y-100371425D01*
X156036311Y-100350790D01*
X156150286Y-100236816D01*
X156211607Y-100203334D01*
X156237965Y-100200500D01*
X161825773Y-100200500D01*
X161892812Y-100220185D01*
G37*
%TD.AperFunction*%
%TD*%
%TA.AperFunction,Conductor*%
%TO.N,+3.3V*%
G36*
X124461971Y-95002381D02*
G01*
X124540618Y-95018024D01*
X124585308Y-95036535D01*
X124641626Y-95074166D01*
X124675833Y-95108373D01*
X124713462Y-95164688D01*
X124731976Y-95209387D01*
X124747617Y-95288019D01*
X124750000Y-95312210D01*
X124750000Y-102187789D01*
X124747617Y-102211980D01*
X124731976Y-102290612D01*
X124713462Y-102335311D01*
X124675836Y-102391623D01*
X124641623Y-102425836D01*
X124585311Y-102463462D01*
X124540612Y-102481976D01*
X124461980Y-102497617D01*
X124437789Y-102500000D01*
X124432935Y-102500000D01*
X124365896Y-102480315D01*
X124330885Y-102446440D01*
X124291591Y-102389513D01*
X124240483Y-102315470D01*
X124122240Y-102210717D01*
X124122238Y-102210716D01*
X124122237Y-102210715D01*
X123982365Y-102137303D01*
X123828986Y-102099500D01*
X123828985Y-102099500D01*
X123671015Y-102099500D01*
X123671014Y-102099500D01*
X123517634Y-102137303D01*
X123377762Y-102210715D01*
X123312744Y-102268316D01*
X123249510Y-102298037D01*
X123230517Y-102299500D01*
X122940691Y-102299500D01*
X122850325Y-102323713D01*
X122850324Y-102323712D01*
X122826116Y-102330199D01*
X122826113Y-102330200D01*
X122723386Y-102389511D01*
X122723383Y-102389513D01*
X122649216Y-102463681D01*
X122587893Y-102497166D01*
X122561535Y-102500000D01*
X121562211Y-102500000D01*
X121538020Y-102497617D01*
X121459387Y-102481976D01*
X121414689Y-102463462D01*
X121358373Y-102425833D01*
X121324166Y-102391626D01*
X121286535Y-102335308D01*
X121268024Y-102290618D01*
X121252381Y-102211971D01*
X121250000Y-102187789D01*
X121250000Y-95312210D01*
X121252381Y-95288029D01*
X121268025Y-95209379D01*
X121286534Y-95164693D01*
X121324168Y-95108370D01*
X121358370Y-95074168D01*
X121414693Y-95036534D01*
X121459379Y-95018025D01*
X121538028Y-95002381D01*
X121562211Y-95000000D01*
X124437789Y-95000000D01*
X124461971Y-95002381D01*
G37*
%TD.AperFunction*%
%TD*%
%TA.AperFunction,Conductor*%
%TO.N,GND*%
G36*
X148790923Y-105008238D02*
G01*
X148811560Y-105024867D01*
X148899389Y-105112696D01*
X148926083Y-105139390D01*
X148926086Y-105139392D01*
X148949084Y-105158448D01*
X148949088Y-105158451D01*
X149068726Y-105216065D01*
X149068727Y-105216065D01*
X149068729Y-105216066D01*
X149200035Y-105235857D01*
X149331341Y-105216066D01*
X149450981Y-105158451D01*
X149473992Y-105139385D01*
X149555381Y-105057995D01*
X149616702Y-105024512D01*
X149643061Y-105021678D01*
X149813652Y-105021678D01*
X149871278Y-105035882D01*
X150017634Y-105112696D01*
X150171014Y-105150500D01*
X150171015Y-105150500D01*
X150328985Y-105150500D01*
X150482365Y-105112696D01*
X150573805Y-105064703D01*
X150631431Y-105050500D01*
X153000000Y-105050500D01*
X153000000Y-107750000D01*
X158250000Y-107750000D01*
X158250000Y-110750000D01*
X157742103Y-110750000D01*
X157631614Y-110639511D01*
X157580250Y-110609856D01*
X157528888Y-110580201D01*
X157516780Y-110576957D01*
X157504673Y-110573713D01*
X157504670Y-110573712D01*
X157466478Y-110563478D01*
X157414309Y-110549500D01*
X157414308Y-110549500D01*
X153212840Y-110549500D01*
X153145801Y-110529815D01*
X153125159Y-110513181D01*
X150601330Y-107989352D01*
X148055988Y-105444010D01*
X148500000Y-105000000D01*
X148762868Y-105000000D01*
X148790923Y-105008238D01*
G37*
%TD.AperFunction*%
%TD*%
%TA.AperFunction,Conductor*%
%TO.N,GND*%
G36*
X123671014Y-103400500D02*
G01*
X123671015Y-103400500D01*
X123828985Y-103400500D01*
X123831014Y-103400000D01*
X124750000Y-103400000D01*
X124750000Y-107500000D01*
X124999500Y-107500000D01*
X124999500Y-107561788D01*
X125016793Y-107626329D01*
X125016794Y-107626329D01*
X125016794Y-107626330D01*
X125037016Y-107701799D01*
X125037017Y-107701800D01*
X125109489Y-107827327D01*
X125109491Y-107827330D01*
X125450000Y-108167839D01*
X125450000Y-109482983D01*
X125402290Y-109440717D01*
X125402288Y-109440715D01*
X125262415Y-109367303D01*
X125109036Y-109329500D01*
X125109035Y-109329500D01*
X124951065Y-109329500D01*
X124951064Y-109329500D01*
X124797684Y-109367303D01*
X124657812Y-109440714D01*
X124602487Y-109489728D01*
X124580632Y-109500000D01*
X124452336Y-109500000D01*
X124446628Y-109496681D01*
X124378158Y-109446148D01*
X124378157Y-109446147D01*
X124252826Y-109402291D01*
X124252814Y-109402289D01*
X124223070Y-109399500D01*
X124223066Y-109399500D01*
X123776934Y-109399500D01*
X123776930Y-109399500D01*
X123747185Y-109402289D01*
X123747173Y-109402291D01*
X123621844Y-109446147D01*
X123621843Y-109446148D01*
X123548876Y-109500000D01*
X123000000Y-109500000D01*
X123000000Y-103400000D01*
X123668985Y-103400000D01*
X123671014Y-103400500D01*
G37*
%TD.AperFunction*%
%TD*%
%TA.AperFunction,Conductor*%
%TO.N,GND*%
G36*
X111705703Y-93961122D02*
G01*
X111743477Y-94019900D01*
X111748235Y-94046725D01*
X111764462Y-94294312D01*
X111764464Y-94294324D01*
X111822001Y-94583584D01*
X111822005Y-94583599D01*
X111916812Y-94862888D01*
X112047258Y-95127406D01*
X112047265Y-95127419D01*
X112211123Y-95372649D01*
X112240405Y-95406040D01*
X113063708Y-94582736D01*
X113160967Y-94716602D01*
X113283398Y-94839033D01*
X113417262Y-94936290D01*
X112593958Y-95759593D01*
X112627350Y-95788876D01*
X112872580Y-95952734D01*
X112872593Y-95952741D01*
X113137111Y-96083187D01*
X113416400Y-96177994D01*
X113416415Y-96177998D01*
X113705675Y-96235535D01*
X113705687Y-96235537D01*
X114000000Y-96254827D01*
X114294312Y-96235537D01*
X114294324Y-96235535D01*
X114583584Y-96177998D01*
X114583599Y-96177994D01*
X114776230Y-96112604D01*
X114846039Y-96109694D01*
X114906339Y-96144988D01*
X114937985Y-96207280D01*
X114930931Y-96276793D01*
X114903770Y-96317704D01*
X113559489Y-97661985D01*
X113537071Y-97700816D01*
X113509534Y-97748512D01*
X113507731Y-97751635D01*
X113487017Y-97787512D01*
X113487016Y-97787513D01*
X113479525Y-97815470D01*
X113449500Y-97927525D01*
X113449500Y-97927527D01*
X113449500Y-98108602D01*
X113429815Y-98175641D01*
X113390779Y-98214028D01*
X113303700Y-98267945D01*
X113146127Y-98411593D01*
X113017632Y-98581746D01*
X112922596Y-98772605D01*
X112922596Y-98772607D01*
X112864244Y-98977689D01*
X112844980Y-99185591D01*
X112844571Y-99190000D01*
X112864244Y-99402310D01*
X112906534Y-99550943D01*
X112922596Y-99607392D01*
X112922596Y-99607394D01*
X113017632Y-99798253D01*
X113114867Y-99927011D01*
X113146128Y-99968407D01*
X113303698Y-100112052D01*
X113484981Y-100224298D01*
X113683802Y-100301321D01*
X113880613Y-100338111D01*
X113942893Y-100369779D01*
X113978166Y-100430092D01*
X113975232Y-100499900D01*
X113935023Y-100557040D01*
X113880613Y-100581888D01*
X113683802Y-100618679D01*
X113683799Y-100618679D01*
X113683799Y-100618680D01*
X113484982Y-100695701D01*
X113484980Y-100695702D01*
X113303699Y-100807947D01*
X113146127Y-100951593D01*
X113017632Y-101121746D01*
X112922596Y-101312605D01*
X112922596Y-101312607D01*
X112864244Y-101517689D01*
X112845072Y-101724598D01*
X112844571Y-101730000D01*
X112864244Y-101942310D01*
X112916082Y-102124500D01*
X112922596Y-102147392D01*
X112922596Y-102147394D01*
X113017632Y-102338253D01*
X113143580Y-102505033D01*
X113146128Y-102508407D01*
X113303698Y-102652052D01*
X113484981Y-102764298D01*
X113683802Y-102841321D01*
X113880613Y-102878111D01*
X113942893Y-102909779D01*
X113978166Y-102970092D01*
X113975232Y-103039900D01*
X113935023Y-103097040D01*
X113880613Y-103121888D01*
X113683802Y-103158679D01*
X113683799Y-103158679D01*
X113683799Y-103158680D01*
X113484982Y-103235701D01*
X113484980Y-103235702D01*
X113303699Y-103347947D01*
X113146127Y-103491593D01*
X113017632Y-103661746D01*
X112922596Y-103852605D01*
X112922596Y-103852607D01*
X112864244Y-104057689D01*
X112847171Y-104241946D01*
X112844571Y-104270000D01*
X112864244Y-104482310D01*
X112912621Y-104652336D01*
X112922596Y-104687392D01*
X112922596Y-104687394D01*
X113017632Y-104878253D01*
X113125236Y-105020742D01*
X113146128Y-105048407D01*
X113303698Y-105192052D01*
X113303700Y-105192053D01*
X113303701Y-105192054D01*
X113365911Y-105230573D01*
X113412547Y-105282601D01*
X113423651Y-105351582D01*
X113395698Y-105415617D01*
X113337563Y-105454373D01*
X113300634Y-105460000D01*
X113102155Y-105460000D01*
X113042627Y-105466401D01*
X113042620Y-105466403D01*
X112907913Y-105516645D01*
X112907906Y-105516649D01*
X112792812Y-105602809D01*
X112792809Y-105602812D01*
X112706649Y-105717906D01*
X112706645Y-105717913D01*
X112656403Y-105852620D01*
X112656401Y-105852627D01*
X112650000Y-105912155D01*
X112650000Y-106560000D01*
X113566988Y-106560000D01*
X113534075Y-106617007D01*
X113500000Y-106744174D01*
X113500000Y-106875826D01*
X113534075Y-107002993D01*
X113566988Y-107060000D01*
X112650000Y-107060000D01*
X112650000Y-107707844D01*
X112656401Y-107767372D01*
X112656403Y-107767379D01*
X112706645Y-107902086D01*
X112706649Y-107902093D01*
X112792809Y-108017187D01*
X112792812Y-108017190D01*
X112907906Y-108103350D01*
X112907913Y-108103354D01*
X113042620Y-108153596D01*
X113042627Y-108153598D01*
X113102155Y-108159999D01*
X113102172Y-108160000D01*
X113750000Y-108160000D01*
X113750000Y-107243012D01*
X113807007Y-107275925D01*
X113934174Y-107310000D01*
X114065826Y-107310000D01*
X114192993Y-107275925D01*
X114250000Y-107243012D01*
X114250000Y-108160000D01*
X114897828Y-108160000D01*
X114897844Y-108159999D01*
X114957372Y-108153598D01*
X114957379Y-108153596D01*
X115092086Y-108103354D01*
X115092093Y-108103350D01*
X115207187Y-108017190D01*
X115207190Y-108017187D01*
X115293350Y-107902093D01*
X115293354Y-107902086D01*
X115343596Y-107767379D01*
X115343598Y-107767372D01*
X115349999Y-107707844D01*
X115350000Y-107707827D01*
X115350000Y-107060000D01*
X114433012Y-107060000D01*
X114465925Y-107002993D01*
X114500000Y-106875826D01*
X114500000Y-106744174D01*
X114465925Y-106617007D01*
X114433012Y-106560000D01*
X115350000Y-106560000D01*
X115350000Y-105912172D01*
X115349999Y-105912155D01*
X115343598Y-105852627D01*
X115343596Y-105852620D01*
X115293354Y-105717913D01*
X115293350Y-105717906D01*
X115207190Y-105602812D01*
X115207187Y-105602809D01*
X115092093Y-105516649D01*
X115092086Y-105516645D01*
X114957379Y-105466403D01*
X114957372Y-105466401D01*
X114897844Y-105460000D01*
X114699366Y-105460000D01*
X114632327Y-105440315D01*
X114586572Y-105387511D01*
X114576628Y-105318353D01*
X114605653Y-105254797D01*
X114634089Y-105230573D01*
X114657518Y-105216066D01*
X114696302Y-105192052D01*
X114853872Y-105048407D01*
X114982366Y-104878255D01*
X114992764Y-104857372D01*
X115022405Y-104797844D01*
X117250000Y-104797844D01*
X117256401Y-104857372D01*
X117256403Y-104857379D01*
X117306645Y-104992086D01*
X117306649Y-104992093D01*
X117392809Y-105107187D01*
X117392812Y-105107190D01*
X117507906Y-105193350D01*
X117507913Y-105193354D01*
X117642620Y-105243596D01*
X117642627Y-105243598D01*
X117702155Y-105249999D01*
X117702172Y-105250000D01*
X117875000Y-105250000D01*
X118375000Y-105250000D01*
X118547828Y-105250000D01*
X118547844Y-105249999D01*
X118607372Y-105243598D01*
X118607379Y-105243596D01*
X118742086Y-105193354D01*
X118742093Y-105193350D01*
X118857187Y-105107190D01*
X118857190Y-105107187D01*
X118943350Y-104992093D01*
X118943354Y-104992086D01*
X118993596Y-104857379D01*
X118993598Y-104857372D01*
X118999999Y-104797844D01*
X119000000Y-104797827D01*
X119000000Y-104500000D01*
X118375000Y-104500000D01*
X118375000Y-105250000D01*
X117875000Y-105250000D01*
X117875000Y-104500000D01*
X117250000Y-104500000D01*
X117250000Y-104797844D01*
X115022405Y-104797844D01*
X115077403Y-104687394D01*
X115077403Y-104687393D01*
X115077405Y-104687389D01*
X115135756Y-104482310D01*
X115155429Y-104270000D01*
X115135756Y-104057690D01*
X115077405Y-103852611D01*
X115077403Y-103852606D01*
X115077403Y-103852605D01*
X115002488Y-103702155D01*
X117250000Y-103702155D01*
X117250000Y-104000000D01*
X117875000Y-104000000D01*
X118375000Y-104000000D01*
X119000000Y-104000000D01*
X119000000Y-103702172D01*
X118999999Y-103702155D01*
X118993598Y-103642627D01*
X118993596Y-103642620D01*
X118943354Y-103507913D01*
X118943350Y-103507906D01*
X118857190Y-103392812D01*
X118857187Y-103392809D01*
X118742093Y-103306649D01*
X118742086Y-103306645D01*
X118607379Y-103256403D01*
X118607372Y-103256401D01*
X118547844Y-103250000D01*
X118375000Y-103250000D01*
X118375000Y-104000000D01*
X117875000Y-104000000D01*
X117875000Y-103250000D01*
X117702155Y-103250000D01*
X117642627Y-103256401D01*
X117642620Y-103256403D01*
X117507913Y-103306645D01*
X117507906Y-103306649D01*
X117392812Y-103392809D01*
X117392809Y-103392812D01*
X117306649Y-103507906D01*
X117306645Y-103507913D01*
X117256403Y-103642620D01*
X117256401Y-103642627D01*
X117250000Y-103702155D01*
X115002488Y-103702155D01*
X114982366Y-103661744D01*
X114969084Y-103644157D01*
X114944390Y-103578796D01*
X114958954Y-103510461D01*
X114980351Y-103481751D01*
X117237821Y-101224282D01*
X117299142Y-101190799D01*
X117368834Y-101195783D01*
X117424767Y-101237655D01*
X117449184Y-101303119D01*
X117449500Y-101311965D01*
X117449500Y-102294856D01*
X117449502Y-102294882D01*
X117452413Y-102319987D01*
X117452415Y-102319991D01*
X117497793Y-102422764D01*
X117497794Y-102422765D01*
X117577235Y-102502206D01*
X117680009Y-102547585D01*
X117705135Y-102550500D01*
X118544864Y-102550499D01*
X118544879Y-102550497D01*
X118544882Y-102550497D01*
X118569987Y-102547586D01*
X118569988Y-102547585D01*
X118569991Y-102547585D01*
X118672765Y-102502206D01*
X118752206Y-102422765D01*
X118797585Y-102319991D01*
X118798720Y-102310208D01*
X118826001Y-102245884D01*
X118883727Y-102206520D01*
X118921894Y-102200500D01*
X119980517Y-102200500D01*
X120047556Y-102220185D01*
X120062741Y-102231682D01*
X120127760Y-102289283D01*
X120127762Y-102289284D01*
X120267634Y-102362696D01*
X120421014Y-102400500D01*
X120421015Y-102400500D01*
X120578985Y-102400500D01*
X120732365Y-102362696D01*
X120806481Y-102323796D01*
X120874986Y-102310071D01*
X120940039Y-102335563D01*
X120980984Y-102392178D01*
X120982764Y-102397591D01*
X120983646Y-102400500D01*
X120985780Y-102407533D01*
X121004287Y-102452212D01*
X121004288Y-102452215D01*
X121032193Y-102504422D01*
X121032522Y-102505036D01*
X121062900Y-102550500D01*
X121070147Y-102561345D01*
X121070157Y-102561359D01*
X121108149Y-102607652D01*
X121142345Y-102641848D01*
X121142350Y-102641852D01*
X121142352Y-102641854D01*
X121188647Y-102679847D01*
X121244963Y-102717476D01*
X121244967Y-102717478D01*
X121244975Y-102717483D01*
X121275488Y-102733792D01*
X121297782Y-102745708D01*
X121342480Y-102764222D01*
X121399787Y-102781606D01*
X121478420Y-102797247D01*
X121478435Y-102797249D01*
X121478444Y-102797251D01*
X121496144Y-102799875D01*
X121508071Y-102801645D01*
X121532262Y-102804028D01*
X121562211Y-102805500D01*
X122008035Y-102805500D01*
X122075074Y-102825185D01*
X122120829Y-102877989D01*
X122130773Y-102947147D01*
X122101748Y-103010703D01*
X122095716Y-103017181D01*
X121699714Y-103413181D01*
X121638391Y-103446666D01*
X121612034Y-103449500D01*
X121455143Y-103449500D01*
X121455118Y-103449502D01*
X121430011Y-103452414D01*
X121430008Y-103452415D01*
X121327235Y-103497793D01*
X121247794Y-103577234D01*
X121202415Y-103680006D01*
X121202415Y-103680008D01*
X121199500Y-103705131D01*
X121199500Y-104794856D01*
X121199502Y-104794882D01*
X121202413Y-104819987D01*
X121202415Y-104819991D01*
X121247793Y-104922764D01*
X121247794Y-104922765D01*
X121327235Y-105002206D01*
X121343757Y-105009501D01*
X121350585Y-105012516D01*
X121403962Y-105057601D01*
X121424490Y-105124387D01*
X121424500Y-105125951D01*
X121424500Y-109374049D01*
X121404815Y-109441088D01*
X121352011Y-109486843D01*
X121350586Y-109487483D01*
X121327240Y-109497790D01*
X121327232Y-109497796D01*
X121247794Y-109577234D01*
X121202415Y-109680006D01*
X121202415Y-109680008D01*
X121199682Y-109703569D01*
X121199500Y-109705135D01*
X121199500Y-110249025D01*
X121199501Y-110675500D01*
X121179817Y-110742539D01*
X121127013Y-110788294D01*
X121075501Y-110799500D01*
X120725691Y-110799500D01*
X120639103Y-110822701D01*
X120639102Y-110822700D01*
X120611114Y-110830200D01*
X120611113Y-110830200D01*
X120508386Y-110889511D01*
X120508383Y-110889513D01*
X119362227Y-112035668D01*
X119300904Y-112069153D01*
X119231212Y-112064169D01*
X119229754Y-112063614D01*
X119191205Y-112048680D01*
X119073156Y-112026613D01*
X118981610Y-112009500D01*
X118768390Y-112009500D01*
X118558802Y-112048679D01*
X118558799Y-112048679D01*
X118558799Y-112048680D01*
X118359982Y-112125701D01*
X118359980Y-112125702D01*
X118178699Y-112237947D01*
X118021127Y-112381593D01*
X117892632Y-112551746D01*
X117797596Y-112742605D01*
X117797596Y-112742607D01*
X117739244Y-112947689D01*
X117720449Y-113150530D01*
X117719571Y-113160000D01*
X117739244Y-113372310D01*
X117792675Y-113560099D01*
X117797596Y-113577392D01*
X117797596Y-113577394D01*
X117892632Y-113768253D01*
X118020688Y-113937825D01*
X118021128Y-113938407D01*
X118178698Y-114082052D01*
X118359981Y-114194298D01*
X118466427Y-114235535D01*
X118529251Y-114259873D01*
X118584652Y-114302446D01*
X118608243Y-114368213D01*
X118592532Y-114436293D01*
X118542508Y-114485072D01*
X118484457Y-114499500D01*
X114054835Y-114499500D01*
X113987796Y-114479815D01*
X113942041Y-114427011D01*
X113932097Y-114357853D01*
X113961122Y-114294297D01*
X114019900Y-114256523D01*
X114046725Y-114251765D01*
X114294312Y-114235537D01*
X114294324Y-114235535D01*
X114583584Y-114177998D01*
X114583599Y-114177994D01*
X114862888Y-114083187D01*
X115127406Y-113952741D01*
X115127419Y-113952734D01*
X115372648Y-113788877D01*
X115406039Y-113759593D01*
X114582737Y-112936290D01*
X114716602Y-112839033D01*
X114839033Y-112716602D01*
X114936290Y-112582737D01*
X115759593Y-113406039D01*
X115788877Y-113372648D01*
X115952734Y-113127419D01*
X115952741Y-113127406D01*
X116083187Y-112862888D01*
X116177994Y-112583599D01*
X116177998Y-112583584D01*
X116235535Y-112294324D01*
X116235537Y-112294312D01*
X116254827Y-112000000D01*
X116235537Y-111705687D01*
X116235535Y-111705675D01*
X116177998Y-111416415D01*
X116177994Y-111416400D01*
X116083187Y-111137111D01*
X115952741Y-110872593D01*
X115952734Y-110872580D01*
X115902797Y-110797844D01*
X117250000Y-110797844D01*
X117256401Y-110857372D01*
X117256403Y-110857379D01*
X117306645Y-110992086D01*
X117306649Y-110992093D01*
X117392809Y-111107187D01*
X117392812Y-111107190D01*
X117507906Y-111193350D01*
X117507913Y-111193354D01*
X117642620Y-111243596D01*
X117642627Y-111243598D01*
X117702155Y-111249999D01*
X117702172Y-111250000D01*
X117875000Y-111250000D01*
X118375000Y-111250000D01*
X118547828Y-111250000D01*
X118547844Y-111249999D01*
X118607372Y-111243598D01*
X118607379Y-111243596D01*
X118742086Y-111193354D01*
X118742093Y-111193350D01*
X118857187Y-111107190D01*
X118857190Y-111107187D01*
X118943350Y-110992093D01*
X118943354Y-110992086D01*
X118993596Y-110857379D01*
X118993598Y-110857372D01*
X118999999Y-110797844D01*
X119000000Y-110797827D01*
X119000000Y-110500000D01*
X118375000Y-110500000D01*
X118375000Y-111250000D01*
X117875000Y-111250000D01*
X117875000Y-110500000D01*
X117250000Y-110500000D01*
X117250000Y-110797844D01*
X115902797Y-110797844D01*
X115788876Y-110627350D01*
X115759593Y-110593958D01*
X114936289Y-111417261D01*
X114839033Y-111283398D01*
X114716602Y-111160967D01*
X114582736Y-111063709D01*
X115406040Y-110240405D01*
X115372649Y-110211123D01*
X115127419Y-110047265D01*
X115127406Y-110047258D01*
X114862888Y-109916812D01*
X114583599Y-109822005D01*
X114583584Y-109822001D01*
X114294324Y-109764464D01*
X114294312Y-109764462D01*
X114000000Y-109745172D01*
X113705687Y-109764462D01*
X113705675Y-109764464D01*
X113416415Y-109822001D01*
X113416400Y-109822005D01*
X113137111Y-109916812D01*
X112872593Y-110047258D01*
X112872580Y-110047265D01*
X112627346Y-110211126D01*
X112627339Y-110211131D01*
X112593959Y-110240403D01*
X112593959Y-110240405D01*
X113417263Y-111063709D01*
X113283398Y-111160967D01*
X113160967Y-111283398D01*
X113063709Y-111417262D01*
X112240405Y-110593959D01*
X112240403Y-110593959D01*
X112211131Y-110627339D01*
X112211126Y-110627346D01*
X112047265Y-110872580D01*
X112047258Y-110872593D01*
X111916812Y-111137111D01*
X111822005Y-111416400D01*
X111822001Y-111416415D01*
X111764464Y-111705675D01*
X111764462Y-111705687D01*
X111748235Y-111953274D01*
X111724208Y-112018882D01*
X111668524Y-112061086D01*
X111598863Y-112066485D01*
X111537342Y-112033365D01*
X111503493Y-111972243D01*
X111500500Y-111945164D01*
X111500500Y-109702155D01*
X117250000Y-109702155D01*
X117250000Y-110000000D01*
X117875000Y-110000000D01*
X118375000Y-110000000D01*
X119000000Y-110000000D01*
X119000000Y-109702172D01*
X118999999Y-109702155D01*
X118993598Y-109642627D01*
X118993596Y-109642620D01*
X118943354Y-109507913D01*
X118943350Y-109507906D01*
X118857190Y-109392812D01*
X118857187Y-109392809D01*
X118742093Y-109306649D01*
X118742086Y-109306645D01*
X118607379Y-109256403D01*
X118607372Y-109256401D01*
X118547844Y-109250000D01*
X118375000Y-109250000D01*
X118375000Y-110000000D01*
X117875000Y-110000000D01*
X117875000Y-109250000D01*
X117702155Y-109250000D01*
X117642627Y-109256401D01*
X117642620Y-109256403D01*
X117507913Y-109306645D01*
X117507906Y-109306649D01*
X117392812Y-109392809D01*
X117392809Y-109392812D01*
X117306649Y-109507906D01*
X117306645Y-109507913D01*
X117256403Y-109642620D01*
X117256401Y-109642627D01*
X117250000Y-109702155D01*
X111500500Y-109702155D01*
X111500500Y-94054835D01*
X111520185Y-93987796D01*
X111572989Y-93942041D01*
X111642147Y-93932097D01*
X111705703Y-93961122D01*
G37*
%TD.AperFunction*%
%TA.AperFunction,Conductor*%
G36*
X158252508Y-110598578D02*
G01*
X158256413Y-110636485D01*
X158256415Y-110636503D01*
X158266716Y-110685979D01*
X158266717Y-110685982D01*
X158276446Y-110721708D01*
X158276449Y-110721715D01*
X158331387Y-110819620D01*
X158376194Y-110873234D01*
X158440881Y-110931340D01*
X158476853Y-110955375D01*
X158494960Y-110967474D01*
X158547779Y-110995707D01*
X158569527Y-111004715D01*
X158592476Y-111014221D01*
X158592478Y-111014221D01*
X158592479Y-111014222D01*
X158649787Y-111031606D01*
X158649790Y-111031606D01*
X158649791Y-111031607D01*
X158666221Y-111034875D01*
X158728420Y-111047247D01*
X158728435Y-111047249D01*
X158728444Y-111047251D01*
X158746144Y-111049875D01*
X158758071Y-111051645D01*
X158782262Y-111054028D01*
X158812211Y-111055500D01*
X159975613Y-111055500D01*
X160042652Y-111075185D01*
X160063294Y-111091819D01*
X160633656Y-111662181D01*
X161190201Y-112218725D01*
X161223686Y-112280048D01*
X161218702Y-112349740D01*
X161201474Y-112381133D01*
X161072633Y-112551746D01*
X160977596Y-112742605D01*
X160977596Y-112742607D01*
X160919244Y-112947689D01*
X160908471Y-113063951D01*
X160882685Y-113128888D01*
X160838130Y-113160804D01*
X160874503Y-113181668D01*
X160906693Y-113243681D01*
X160908470Y-113256047D01*
X160919244Y-113372310D01*
X160972675Y-113560099D01*
X160977596Y-113577392D01*
X160977596Y-113577394D01*
X161072632Y-113768253D01*
X161200688Y-113937825D01*
X161201128Y-113938407D01*
X161358698Y-114082052D01*
X161539981Y-114194298D01*
X161646427Y-114235535D01*
X161709251Y-114259873D01*
X161764652Y-114302446D01*
X161788243Y-114368213D01*
X161772532Y-114436293D01*
X161722508Y-114485072D01*
X161664457Y-114499500D01*
X159905543Y-114499500D01*
X159838504Y-114479815D01*
X159792749Y-114427011D01*
X159782805Y-114357853D01*
X159811830Y-114294297D01*
X159860749Y-114259873D01*
X159880842Y-114252089D01*
X160030019Y-114194298D01*
X160211302Y-114082052D01*
X160368872Y-113938407D01*
X160497366Y-113768255D01*
X160511171Y-113740530D01*
X160592403Y-113577394D01*
X160592403Y-113577393D01*
X160592405Y-113577389D01*
X160650756Y-113372310D01*
X160661529Y-113256047D01*
X160687315Y-113191111D01*
X160731869Y-113159194D01*
X160695497Y-113138331D01*
X160663307Y-113076318D01*
X160661529Y-113063951D01*
X160660849Y-113056613D01*
X160650756Y-112947690D01*
X160592405Y-112742611D01*
X160592403Y-112742606D01*
X160592403Y-112742605D01*
X160497367Y-112551746D01*
X160368872Y-112381593D01*
X160333931Y-112349740D01*
X160211302Y-112237948D01*
X160030019Y-112125702D01*
X160030017Y-112125701D01*
X159908439Y-112078602D01*
X159831198Y-112048679D01*
X159621610Y-112009500D01*
X159408390Y-112009500D01*
X159231739Y-112042522D01*
X159198797Y-112048680D01*
X159160246Y-112063615D01*
X159090623Y-112069477D01*
X159028883Y-112036766D01*
X159027772Y-112035669D01*
X157805167Y-110813064D01*
X157771682Y-110751741D01*
X157771807Y-110750000D01*
X158250000Y-110750000D01*
X158250000Y-110590971D01*
X158252508Y-110598578D01*
G37*
%TD.AperFunction*%
%TA.AperFunction,Conductor*%
G36*
X171635404Y-107372232D02*
G01*
X171675935Y-107429144D01*
X171680374Y-107445515D01*
X171713427Y-107611681D01*
X171713430Y-107611693D01*
X171788807Y-107793671D01*
X171788814Y-107793684D01*
X171898248Y-107957462D01*
X171898251Y-107957466D01*
X172037533Y-108096748D01*
X172037537Y-108096751D01*
X172201315Y-108206185D01*
X172201328Y-108206192D01*
X172383306Y-108281569D01*
X172383318Y-108281572D01*
X172576504Y-108319999D01*
X172576508Y-108320000D01*
X172825000Y-108320000D01*
X172825000Y-107620000D01*
X173325000Y-107620000D01*
X173325000Y-108320000D01*
X173573492Y-108320000D01*
X173573495Y-108319999D01*
X173766681Y-108281572D01*
X173766693Y-108281569D01*
X173948671Y-108206192D01*
X173948684Y-108206185D01*
X174112462Y-108096751D01*
X174112466Y-108096748D01*
X174251751Y-107957463D01*
X174272398Y-107926563D01*
X174326010Y-107881758D01*
X174395335Y-107873051D01*
X174458362Y-107903205D01*
X174495082Y-107962648D01*
X174499500Y-107995454D01*
X174499500Y-111945164D01*
X174479815Y-112012203D01*
X174427011Y-112057958D01*
X174357853Y-112067902D01*
X174294297Y-112038877D01*
X174256523Y-111980099D01*
X174251765Y-111953274D01*
X174235537Y-111705687D01*
X174235535Y-111705675D01*
X174177998Y-111416415D01*
X174177994Y-111416400D01*
X174083187Y-111137111D01*
X173952741Y-110872593D01*
X173952734Y-110872580D01*
X173788876Y-110627350D01*
X173759593Y-110593958D01*
X172936289Y-111417261D01*
X172839033Y-111283398D01*
X172716602Y-111160967D01*
X172582736Y-111063709D01*
X173406040Y-110240405D01*
X173372649Y-110211123D01*
X173127419Y-110047265D01*
X173127406Y-110047258D01*
X172862888Y-109916812D01*
X172583599Y-109822005D01*
X172583584Y-109822001D01*
X172294324Y-109764464D01*
X172294312Y-109764462D01*
X172000000Y-109745172D01*
X171705687Y-109764462D01*
X171705675Y-109764464D01*
X171416415Y-109822001D01*
X171416400Y-109822005D01*
X171137111Y-109916812D01*
X170872593Y-110047258D01*
X170872580Y-110047265D01*
X170627346Y-110211126D01*
X170627339Y-110211131D01*
X170593959Y-110240403D01*
X170593959Y-110240405D01*
X171417263Y-111063709D01*
X171283398Y-111160967D01*
X171160967Y-111283398D01*
X171063709Y-111417262D01*
X170240405Y-110593959D01*
X170240403Y-110593959D01*
X170211131Y-110627339D01*
X170211126Y-110627346D01*
X170047265Y-110872580D01*
X170047258Y-110872593D01*
X169916812Y-111137111D01*
X169822005Y-111416400D01*
X169822001Y-111416415D01*
X169764464Y-111705675D01*
X169764462Y-111705687D01*
X169745172Y-112000000D01*
X169764462Y-112294312D01*
X169764464Y-112294324D01*
X169822001Y-112583584D01*
X169822005Y-112583599D01*
X169916812Y-112862888D01*
X170047258Y-113127406D01*
X170047265Y-113127419D01*
X170211123Y-113372649D01*
X170240405Y-113406040D01*
X171063708Y-112582736D01*
X171160967Y-112716602D01*
X171283398Y-112839033D01*
X171417262Y-112936290D01*
X170593958Y-113759593D01*
X170627350Y-113788876D01*
X170872580Y-113952734D01*
X170872593Y-113952741D01*
X171137111Y-114083187D01*
X171416400Y-114177994D01*
X171416415Y-114177998D01*
X171705675Y-114235535D01*
X171705687Y-114235537D01*
X171953275Y-114251765D01*
X172018883Y-114275792D01*
X172061087Y-114331476D01*
X172066486Y-114401137D01*
X172033367Y-114462658D01*
X171972244Y-114496507D01*
X171945165Y-114499500D01*
X167525543Y-114499500D01*
X167458504Y-114479815D01*
X167412749Y-114427011D01*
X167402805Y-114357853D01*
X167431830Y-114294297D01*
X167480749Y-114259873D01*
X167500842Y-114252089D01*
X167650019Y-114194298D01*
X167831302Y-114082052D01*
X167988872Y-113938407D01*
X168117366Y-113768255D01*
X168131171Y-113740530D01*
X168212403Y-113577394D01*
X168212403Y-113577393D01*
X168212405Y-113577389D01*
X168270756Y-113372310D01*
X168290429Y-113160000D01*
X168289551Y-113150530D01*
X168281529Y-113063951D01*
X168270756Y-112947690D01*
X168212405Y-112742611D01*
X168212403Y-112742606D01*
X168212403Y-112742605D01*
X168117367Y-112551746D01*
X167988872Y-112381593D01*
X167831299Y-112237945D01*
X167744221Y-112184028D01*
X167697586Y-112132000D01*
X167685500Y-112078602D01*
X167685500Y-110112527D01*
X167685500Y-110112525D01*
X167647984Y-109972515D01*
X167641041Y-109960489D01*
X167641039Y-109960485D01*
X167641039Y-109960484D01*
X167575512Y-109846988D01*
X167575508Y-109846983D01*
X166290706Y-108562181D01*
X166257221Y-108500858D01*
X166262205Y-108431166D01*
X166304077Y-108375233D01*
X166369541Y-108350816D01*
X166378387Y-108350500D01*
X166610975Y-108350500D01*
X166610977Y-108350500D01*
X166610978Y-108350500D01*
X166750988Y-108312984D01*
X166773821Y-108299800D01*
X166773825Y-108299800D01*
X166872458Y-108242854D01*
X166876518Y-108240510D01*
X166912319Y-108204709D01*
X166973642Y-108171224D01*
X167043334Y-108176208D01*
X167087681Y-108204709D01*
X167593482Y-108710510D01*
X167593483Y-108710511D01*
X167593485Y-108710512D01*
X167617447Y-108724346D01*
X167693038Y-108767988D01*
X167719012Y-108782984D01*
X167859022Y-108820500D01*
X167859023Y-108820500D01*
X167859025Y-108820500D01*
X169890975Y-108820500D01*
X169890977Y-108820500D01*
X169890978Y-108820500D01*
X170030988Y-108782984D01*
X170056962Y-108767988D01*
X170156518Y-108710510D01*
X171440510Y-107426518D01*
X171451369Y-107407708D01*
X171501932Y-107359493D01*
X171570539Y-107346267D01*
X171635404Y-107372232D01*
G37*
%TD.AperFunction*%
%TA.AperFunction,Conductor*%
G36*
X173759593Y-113406039D02*
G01*
X173810519Y-113404372D01*
X173878166Y-113421853D01*
X173925625Y-113473132D01*
X173937826Y-113541928D01*
X173912187Y-113604779D01*
X173875526Y-113651573D01*
X173865596Y-113662781D01*
X173662781Y-113865596D01*
X173651573Y-113875526D01*
X173604779Y-113912187D01*
X173539867Y-113938036D01*
X173471285Y-113924688D01*
X173420806Y-113876380D01*
X173404372Y-113810519D01*
X173406039Y-113759593D01*
X172582737Y-112936290D01*
X172716602Y-112839033D01*
X172839033Y-112716602D01*
X172936290Y-112582737D01*
X173759593Y-113406039D01*
G37*
%TD.AperFunction*%
%TA.AperFunction,Conductor*%
G36*
X113160967Y-112716602D02*
G01*
X113283398Y-112839033D01*
X113417262Y-112936290D01*
X112593958Y-113759593D01*
X112595626Y-113810518D01*
X112578145Y-113878165D01*
X112526866Y-113925624D01*
X112458070Y-113937825D01*
X112395219Y-113912186D01*
X112348426Y-113875526D01*
X112337218Y-113865596D01*
X112134403Y-113662781D01*
X112124472Y-113651572D01*
X112087812Y-113604778D01*
X112061964Y-113539866D01*
X112075313Y-113471283D01*
X112123622Y-113420805D01*
X112189482Y-113404372D01*
X112240406Y-113406039D01*
X113063708Y-112582736D01*
X113160967Y-112716602D01*
G37*
%TD.AperFunction*%
%TA.AperFunction,Conductor*%
G36*
X163910205Y-108470831D02*
G01*
X163941797Y-108488209D01*
X164009416Y-108539486D01*
X164008028Y-108541315D01*
X164048315Y-108582618D01*
X164062316Y-108651071D01*
X164037087Y-108716226D01*
X163980636Y-108757398D01*
X163977759Y-108758391D01*
X163955882Y-108765640D01*
X163955875Y-108765643D01*
X163806654Y-108857684D01*
X163682684Y-108981654D01*
X163590643Y-109130875D01*
X163590641Y-109130880D01*
X163535494Y-109297302D01*
X163535493Y-109297309D01*
X163525000Y-109400013D01*
X163525000Y-109450000D01*
X164876000Y-109450000D01*
X164943039Y-109469685D01*
X164988794Y-109522489D01*
X165000000Y-109574000D01*
X165000000Y-110699999D01*
X165274972Y-110699999D01*
X165274986Y-110699998D01*
X165377697Y-110689505D01*
X165544119Y-110634358D01*
X165544124Y-110634356D01*
X165693345Y-110542315D01*
X165817315Y-110418345D01*
X165909356Y-110269124D01*
X165909358Y-110269119D01*
X165964505Y-110102697D01*
X165964507Y-110102688D01*
X165966688Y-110081334D01*
X165993082Y-110016642D01*
X166050261Y-109976489D01*
X166120072Y-109973623D01*
X166177727Y-110006252D01*
X166548181Y-110376706D01*
X166581666Y-110438029D01*
X166584500Y-110464387D01*
X166584500Y-112078602D01*
X166564815Y-112145641D01*
X166525779Y-112184028D01*
X166438700Y-112237945D01*
X166281127Y-112381593D01*
X166167954Y-112531458D01*
X166111845Y-112573094D01*
X166042133Y-112577785D01*
X165980951Y-112544043D01*
X165947724Y-112482579D01*
X165945000Y-112456731D01*
X165945000Y-112262172D01*
X165944999Y-112262155D01*
X165938598Y-112202627D01*
X165938596Y-112202620D01*
X165888354Y-112067913D01*
X165888350Y-112067906D01*
X165802190Y-111952812D01*
X165802187Y-111952809D01*
X165687093Y-111866649D01*
X165687086Y-111866645D01*
X165552379Y-111816403D01*
X165552372Y-111816401D01*
X165492844Y-111810000D01*
X164845000Y-111810000D01*
X164845000Y-112726988D01*
X164787993Y-112694075D01*
X164660826Y-112660000D01*
X164529174Y-112660000D01*
X164402007Y-112694075D01*
X164345000Y-112726988D01*
X164345000Y-111810000D01*
X163697155Y-111810000D01*
X163637627Y-111816401D01*
X163637620Y-111816403D01*
X163502913Y-111866645D01*
X163502906Y-111866649D01*
X163387812Y-111952809D01*
X163387809Y-111952812D01*
X163301649Y-112067906D01*
X163301645Y-112067913D01*
X163251403Y-112202620D01*
X163251401Y-112202627D01*
X163245000Y-112262155D01*
X163245000Y-112456731D01*
X163225315Y-112523770D01*
X163172511Y-112569525D01*
X163103353Y-112579469D01*
X163039797Y-112550444D01*
X163022046Y-112531458D01*
X162908872Y-112381593D01*
X162873931Y-112349740D01*
X162751302Y-112237948D01*
X162751300Y-112237946D01*
X162751297Y-112237944D01*
X162619756Y-112156496D01*
X162573121Y-112104468D01*
X162570474Y-112098526D01*
X162567985Y-112092519D01*
X162567984Y-112092515D01*
X162529936Y-112026614D01*
X162495510Y-111966986D01*
X161857411Y-111328887D01*
X161179419Y-110650894D01*
X161145934Y-110589571D01*
X161150918Y-110519879D01*
X161192790Y-110463946D01*
X161258254Y-110439529D01*
X161295737Y-110443873D01*
X161295905Y-110443034D01*
X161302330Y-110444311D01*
X161302343Y-110444315D01*
X161370406Y-110450500D01*
X161370409Y-110450500D01*
X162229591Y-110450500D01*
X162229594Y-110450500D01*
X162297657Y-110444315D01*
X162454270Y-110395512D01*
X162509690Y-110362010D01*
X162594648Y-110310651D01*
X162594647Y-110310651D01*
X162594653Y-110310648D01*
X162710648Y-110194653D01*
X162766237Y-110102697D01*
X162795511Y-110054272D01*
X162795514Y-110054263D01*
X162812423Y-110000000D01*
X162812427Y-109999986D01*
X163525001Y-109999986D01*
X163535494Y-110102697D01*
X163590641Y-110269119D01*
X163590643Y-110269124D01*
X163682684Y-110418345D01*
X163806654Y-110542315D01*
X163955875Y-110634356D01*
X163955880Y-110634358D01*
X164122302Y-110689505D01*
X164122309Y-110689506D01*
X164225019Y-110699999D01*
X164499999Y-110699999D01*
X164500000Y-110699998D01*
X164500000Y-109950000D01*
X163525001Y-109950000D01*
X163525001Y-109999986D01*
X162812427Y-109999986D01*
X162844315Y-109897657D01*
X162850500Y-109829594D01*
X162850500Y-109479386D01*
X162870185Y-109412347D01*
X162886814Y-109391709D01*
X163779193Y-108499330D01*
X163840514Y-108465847D01*
X163910205Y-108470831D01*
G37*
%TD.AperFunction*%
%TA.AperFunction,Conductor*%
G36*
X131453834Y-106742889D02*
G01*
X131509767Y-106784761D01*
X131534184Y-106850225D01*
X131534500Y-106859071D01*
X131534500Y-108144856D01*
X131534502Y-108144882D01*
X131537413Y-108169987D01*
X131537415Y-108169991D01*
X131582793Y-108272764D01*
X131591095Y-108281066D01*
X131624580Y-108342389D01*
X131619596Y-108412081D01*
X131577726Y-108468013D01*
X131477809Y-108542812D01*
X131391649Y-108657906D01*
X131391645Y-108657913D01*
X131341403Y-108792620D01*
X131341401Y-108792627D01*
X131335000Y-108852155D01*
X131335000Y-109350000D01*
X132561000Y-109350000D01*
X132628039Y-109369685D01*
X132673794Y-109422489D01*
X132685000Y-109474000D01*
X132685000Y-109726000D01*
X132665315Y-109793039D01*
X132612511Y-109838794D01*
X132561000Y-109850000D01*
X131335000Y-109850000D01*
X131335000Y-110210101D01*
X131315315Y-110277140D01*
X131273001Y-110317487D01*
X131239305Y-110336942D01*
X131239304Y-110336943D01*
X131195890Y-110362008D01*
X131195884Y-110362012D01*
X129522227Y-112035668D01*
X129460904Y-112069153D01*
X129391212Y-112064169D01*
X129389754Y-112063614D01*
X129351205Y-112048680D01*
X129233156Y-112026613D01*
X129141610Y-112009500D01*
X128928390Y-112009500D01*
X128718802Y-112048679D01*
X128718799Y-112048679D01*
X128718799Y-112048680D01*
X128519982Y-112125701D01*
X128519978Y-112125703D01*
X128500248Y-112137920D01*
X128432887Y-112156474D01*
X128366188Y-112135666D01*
X128321328Y-112082100D01*
X128312548Y-112012784D01*
X128342637Y-111949725D01*
X128347280Y-111944822D01*
X128860489Y-111431614D01*
X128919799Y-111328887D01*
X128933805Y-111276614D01*
X128950500Y-111214309D01*
X128950500Y-110525759D01*
X128970185Y-110458720D01*
X128985846Y-110440444D01*
X128985509Y-110440145D01*
X128990481Y-110434532D01*
X128990481Y-110434531D01*
X128990483Y-110434530D01*
X129080220Y-110304523D01*
X129136237Y-110156818D01*
X129155278Y-110000000D01*
X129142852Y-109897657D01*
X129136237Y-109843181D01*
X129106383Y-109764464D01*
X129080220Y-109695477D01*
X128990483Y-109565470D01*
X128872240Y-109460717D01*
X128872238Y-109460716D01*
X128872237Y-109460715D01*
X128864879Y-109456853D01*
X128814669Y-109408266D01*
X128798697Y-109340246D01*
X128822035Y-109274390D01*
X128834822Y-109259385D01*
X129489043Y-108605166D01*
X129547602Y-108546607D01*
X129547614Y-108546593D01*
X131322821Y-106771388D01*
X131384142Y-106737905D01*
X131453834Y-106742889D01*
G37*
%TD.AperFunction*%
%TA.AperFunction,Conductor*%
G36*
X136723178Y-109162884D02*
G01*
X136779111Y-109204756D01*
X136781894Y-109208626D01*
X136818616Y-109261827D01*
X136936859Y-109366580D01*
X136942775Y-109369685D01*
X137076733Y-109439993D01*
X137230113Y-109477797D01*
X137230114Y-109477797D01*
X137388084Y-109477797D01*
X137541464Y-109439993D01*
X137569938Y-109425048D01*
X137638443Y-109411322D01*
X137703497Y-109436813D01*
X137744443Y-109493427D01*
X137748280Y-109563192D01*
X137715245Y-109622525D01*
X137082090Y-110255681D01*
X137020767Y-110289166D01*
X136994409Y-110292000D01*
X135459000Y-110292000D01*
X135391961Y-110272315D01*
X135346206Y-110219511D01*
X135335000Y-110168000D01*
X135335000Y-109954000D01*
X135354685Y-109886961D01*
X135407489Y-109841206D01*
X135459000Y-109830000D01*
X136389504Y-109830000D01*
X136347032Y-109683806D01*
X136304095Y-109611205D01*
X136286912Y-109543481D01*
X136309071Y-109477218D01*
X136323141Y-109460407D01*
X136592163Y-109191384D01*
X136653486Y-109157900D01*
X136723178Y-109162884D01*
G37*
%TD.AperFunction*%
%TA.AperFunction,Conductor*%
G36*
X125611171Y-108329010D02*
G01*
X125644656Y-108390333D01*
X125639672Y-108460025D01*
X125625545Y-108487124D01*
X125619780Y-108495476D01*
X125563762Y-108643181D01*
X125544722Y-108799999D01*
X125544722Y-108800000D01*
X125563762Y-108956818D01*
X125595369Y-109040157D01*
X125619780Y-109104523D01*
X125637973Y-109130880D01*
X125688965Y-109204756D01*
X125709517Y-109234530D01*
X125827760Y-109339283D01*
X125833010Y-109343934D01*
X125870137Y-109403124D01*
X125869369Y-109472989D01*
X125838464Y-109524431D01*
X125746985Y-109615910D01*
X125685662Y-109649395D01*
X125615970Y-109644411D01*
X125560037Y-109602539D01*
X125557254Y-109598670D01*
X125520533Y-109545470D01*
X125450000Y-109482983D01*
X125450000Y-108167839D01*
X125611171Y-108329010D01*
G37*
%TD.AperFunction*%
%TA.AperFunction,Conductor*%
G36*
X123277800Y-103211816D02*
G01*
X123316693Y-103235183D01*
X123377759Y-103289282D01*
X123377761Y-103289284D01*
X123493344Y-103349947D01*
X123543556Y-103398531D01*
X123543901Y-103400000D01*
X123000000Y-103400000D01*
X123000000Y-109500000D01*
X123185443Y-109500000D01*
X123123030Y-109528288D01*
X123105734Y-109529500D01*
X122505833Y-109529500D01*
X122438794Y-109509815D01*
X122430187Y-109502879D01*
X122422759Y-109497790D01*
X122399414Y-109487483D01*
X122346037Y-109442397D01*
X122325510Y-109375611D01*
X122325500Y-109374049D01*
X122325500Y-105125951D01*
X122345185Y-105058912D01*
X122397989Y-105013157D01*
X122399415Y-105012516D01*
X122402894Y-105010979D01*
X122422765Y-105002206D01*
X122502206Y-104922765D01*
X122547585Y-104819991D01*
X122550500Y-104794865D01*
X122550499Y-103887964D01*
X122570183Y-103820926D01*
X122586818Y-103800284D01*
X122866400Y-103520702D01*
X123146787Y-103240315D01*
X123208108Y-103206832D01*
X123277800Y-103211816D01*
G37*
%TD.AperFunction*%
%TA.AperFunction,Conductor*%
G36*
X163510703Y-103386247D02*
G01*
X163529269Y-103406325D01*
X163561135Y-103449502D01*
X163583369Y-103479628D01*
X163580842Y-103481492D01*
X163604262Y-103522056D01*
X163612498Y-103552793D01*
X163630201Y-103618863D01*
X163650575Y-103654150D01*
X163689511Y-103721589D01*
X163689513Y-103721591D01*
X164531876Y-104563955D01*
X164565361Y-104625278D01*
X164560377Y-104694970D01*
X164518505Y-104750903D01*
X164453041Y-104775320D01*
X164432984Y-104775128D01*
X164431574Y-104775000D01*
X164425000Y-104775000D01*
X164425000Y-106724999D01*
X164431581Y-106724999D01*
X164502102Y-106718591D01*
X164502107Y-106718590D01*
X164664396Y-106668018D01*
X164809877Y-106580072D01*
X164930071Y-106459878D01*
X164930074Y-106459874D01*
X165011508Y-106325166D01*
X165063035Y-106277978D01*
X165131895Y-106266139D01*
X165196224Y-106293407D01*
X165216891Y-106315003D01*
X165267455Y-106382547D01*
X165382664Y-106468793D01*
X165382671Y-106468797D01*
X165427618Y-106485561D01*
X165517517Y-106519091D01*
X165577127Y-106525500D01*
X166072872Y-106525499D01*
X166132483Y-106519091D01*
X166175644Y-106502993D01*
X166275641Y-106465697D01*
X166276229Y-106467275D01*
X166334338Y-106454630D01*
X166399804Y-106479043D01*
X166441679Y-106534974D01*
X166449500Y-106578315D01*
X166449500Y-107059116D01*
X166429815Y-107126155D01*
X166413181Y-107146797D01*
X166346797Y-107213181D01*
X166285474Y-107246666D01*
X166259116Y-107249500D01*
X165749597Y-107249500D01*
X165682558Y-107229815D01*
X165650793Y-107200425D01*
X165617922Y-107157077D01*
X165497343Y-107065639D01*
X165356561Y-107010122D01*
X165310926Y-107004642D01*
X165268102Y-106999500D01*
X164231898Y-106999500D01*
X164192853Y-107004188D01*
X164143438Y-107010122D01*
X164002656Y-107065639D01*
X163882077Y-107157077D01*
X163849207Y-107200425D01*
X163793015Y-107241948D01*
X163750403Y-107249500D01*
X163627525Y-107249500D01*
X163491791Y-107285870D01*
X163491790Y-107285869D01*
X163487520Y-107287014D01*
X163487514Y-107287016D01*
X163361986Y-107359489D01*
X163361983Y-107359491D01*
X162749023Y-107972451D01*
X162687700Y-108005936D01*
X162618008Y-108000952D01*
X162597193Y-107990887D01*
X162454271Y-107904488D01*
X162454263Y-107904485D01*
X162297664Y-107855687D01*
X162297662Y-107855686D01*
X162297657Y-107855685D01*
X162229594Y-107849500D01*
X161370406Y-107849500D01*
X161302343Y-107855685D01*
X161302339Y-107855686D01*
X161302335Y-107855687D01*
X161145736Y-107904485D01*
X161145727Y-107904488D01*
X160998927Y-107993232D01*
X160998164Y-107991970D01*
X160941060Y-108014710D01*
X160872478Y-108001361D01*
X160821999Y-107953053D01*
X160805500Y-107891250D01*
X160805500Y-106081582D01*
X163275001Y-106081582D01*
X163281408Y-106152102D01*
X163281409Y-106152107D01*
X163331981Y-106314396D01*
X163419927Y-106459877D01*
X163540122Y-106580072D01*
X163685604Y-106668019D01*
X163685603Y-106668019D01*
X163847894Y-106718590D01*
X163847893Y-106718590D01*
X163918408Y-106724998D01*
X163918426Y-106724999D01*
X163924999Y-106724998D01*
X163925000Y-106724998D01*
X163925000Y-106000000D01*
X163275001Y-106000000D01*
X163275001Y-106081582D01*
X160805500Y-106081582D01*
X160805500Y-105418427D01*
X163275000Y-105418427D01*
X163275000Y-105500000D01*
X163925000Y-105500000D01*
X163925000Y-104775000D01*
X163924999Y-104774999D01*
X163918436Y-104775000D01*
X163918417Y-104775001D01*
X163847897Y-104781408D01*
X163847892Y-104781409D01*
X163685603Y-104831981D01*
X163540122Y-104919927D01*
X163419927Y-105040122D01*
X163331980Y-105185604D01*
X163281409Y-105347893D01*
X163275000Y-105418427D01*
X160805500Y-105418427D01*
X160805500Y-104929500D01*
X160825185Y-104862461D01*
X160877989Y-104816706D01*
X160929500Y-104805500D01*
X162687776Y-104805500D01*
X162687789Y-104805500D01*
X162717738Y-104804028D01*
X162741929Y-104801645D01*
X162771581Y-104797247D01*
X162850213Y-104781606D01*
X162907517Y-104764223D01*
X162952216Y-104745709D01*
X163005036Y-104717477D01*
X163061348Y-104679851D01*
X163107644Y-104641857D01*
X163141857Y-104607644D01*
X163179851Y-104561348D01*
X163217477Y-104505036D01*
X163245709Y-104452216D01*
X163264223Y-104407517D01*
X163281606Y-104350213D01*
X163297247Y-104271581D01*
X163301645Y-104241929D01*
X163304028Y-104217738D01*
X163305500Y-104187789D01*
X163305500Y-103479960D01*
X163325185Y-103412921D01*
X163377989Y-103367166D01*
X163447147Y-103357222D01*
X163510703Y-103386247D01*
G37*
%TD.AperFunction*%
%TA.AperFunction,Conductor*%
G36*
X153000001Y-107320509D02*
G01*
X153006981Y-107385435D01*
X153006983Y-107385447D01*
X153018188Y-107436953D01*
X153029144Y-107475154D01*
X153029146Y-107475158D01*
X153085823Y-107572068D01*
X153085825Y-107572071D01*
X153131579Y-107624874D01*
X153131591Y-107624887D01*
X153176307Y-107667048D01*
X153176309Y-107667049D01*
X153176313Y-107667053D01*
X153276389Y-107717939D01*
X153343428Y-107737624D01*
X153389622Y-107744266D01*
X153402178Y-107750000D01*
X153000000Y-107750000D01*
X153000000Y-107320500D01*
X153000001Y-107320509D01*
G37*
%TD.AperFunction*%
%TA.AperFunction,Conductor*%
G36*
X124918834Y-107183985D02*
G01*
X124974767Y-107225857D01*
X124999184Y-107291321D01*
X124999500Y-107300167D01*
X124999500Y-107500000D01*
X124750000Y-107500000D01*
X124750000Y-107250304D01*
X124787819Y-107212486D01*
X124849142Y-107179001D01*
X124918834Y-107183985D01*
G37*
%TD.AperFunction*%
%TA.AperFunction,Conductor*%
G36*
X143457580Y-99970185D02*
G01*
X143503335Y-100022989D01*
X143514541Y-100074500D01*
X143514541Y-100524350D01*
X143531146Y-100586321D01*
X143545242Y-100638928D01*
X143604552Y-100741655D01*
X146223386Y-103360489D01*
X146266993Y-103385665D01*
X146266993Y-103385666D01*
X146283103Y-103394967D01*
X146308785Y-103414673D01*
X146454566Y-103560454D01*
X146488051Y-103621777D01*
X146490246Y-103642200D01*
X146490884Y-103646021D01*
X146493675Y-103654150D01*
X146496824Y-103723949D01*
X146461737Y-103784370D01*
X146399554Y-103816230D01*
X146336131Y-103811694D01*
X146328002Y-103808903D01*
X146317871Y-103807213D01*
X146318173Y-103805397D01*
X146263075Y-103789219D01*
X146242433Y-103772585D01*
X146056684Y-103586836D01*
X146010568Y-103646936D01*
X145952630Y-103786810D01*
X145952629Y-103786812D01*
X145931808Y-103944975D01*
X145929862Y-103944718D01*
X145913184Y-104001518D01*
X145896552Y-104022159D01*
X145868559Y-104050152D01*
X145824469Y-104109279D01*
X145824467Y-104109281D01*
X145820161Y-104121826D01*
X145779775Y-104178841D01*
X145743146Y-104198841D01*
X145730601Y-104203147D01*
X145730600Y-104203148D01*
X145671467Y-104247242D01*
X145515003Y-104403706D01*
X145470914Y-104462833D01*
X145466607Y-104475381D01*
X145426219Y-104532395D01*
X145389594Y-104552394D01*
X145377046Y-104556701D01*
X145317919Y-104600790D01*
X145161450Y-104757259D01*
X145117361Y-104816386D01*
X145113054Y-104828934D01*
X145072666Y-104885948D01*
X145036041Y-104905947D01*
X145023493Y-104910254D01*
X144964366Y-104954343D01*
X144807902Y-105110807D01*
X144763808Y-105169940D01*
X144763807Y-105169941D01*
X144759501Y-105182486D01*
X144719115Y-105239501D01*
X144682486Y-105259501D01*
X144669941Y-105263807D01*
X144669940Y-105263808D01*
X144610807Y-105307902D01*
X144454343Y-105464366D01*
X144410254Y-105523493D01*
X144405947Y-105536041D01*
X144365559Y-105593055D01*
X144328934Y-105613054D01*
X144316386Y-105617361D01*
X144257259Y-105661450D01*
X144100790Y-105817919D01*
X144056701Y-105877046D01*
X144052394Y-105889594D01*
X144012006Y-105946608D01*
X143975381Y-105966607D01*
X143962833Y-105970914D01*
X143903706Y-106015003D01*
X143747242Y-106171467D01*
X143703148Y-106230600D01*
X143703147Y-106230601D01*
X143698841Y-106243146D01*
X143658455Y-106300161D01*
X143621826Y-106320161D01*
X143609281Y-106324467D01*
X143609280Y-106324468D01*
X143550147Y-106368562D01*
X143393683Y-106525026D01*
X143349594Y-106584153D01*
X143345287Y-106596701D01*
X143304899Y-106653715D01*
X143268274Y-106673714D01*
X143255726Y-106678021D01*
X143196599Y-106722110D01*
X143040135Y-106878574D01*
X142996041Y-106937707D01*
X142996040Y-106937708D01*
X142991734Y-106950253D01*
X142951348Y-107007268D01*
X142914719Y-107027268D01*
X142902174Y-107031574D01*
X142902173Y-107031575D01*
X142843040Y-107075669D01*
X142686576Y-107232133D01*
X142642489Y-107291258D01*
X142642488Y-107291261D01*
X142617281Y-107364686D01*
X142576895Y-107421702D01*
X142512096Y-107447832D01*
X142443456Y-107434780D01*
X142392768Y-107386691D01*
X142382719Y-107364686D01*
X142378327Y-107351892D01*
X142357512Y-107291261D01*
X142353492Y-107285870D01*
X142313423Y-107232133D01*
X142156959Y-107075669D01*
X142097826Y-107031575D01*
X142097825Y-107031574D01*
X142085281Y-107027268D01*
X142028266Y-106986882D01*
X142008264Y-106950250D01*
X142003958Y-106937708D01*
X142003958Y-106937707D01*
X141997596Y-106929176D01*
X141959869Y-106878579D01*
X141803405Y-106722115D01*
X141744274Y-106678022D01*
X141731727Y-106673715D01*
X141674712Y-106633329D01*
X141654712Y-106596700D01*
X141650405Y-106584154D01*
X141632394Y-106560000D01*
X141606316Y-106525026D01*
X141449852Y-106368562D01*
X141390719Y-106324468D01*
X141390718Y-106324467D01*
X141378174Y-106320161D01*
X141321159Y-106279775D01*
X141301157Y-106243143D01*
X141296851Y-106230601D01*
X141296851Y-106230600D01*
X141275284Y-106201677D01*
X141252762Y-106171472D01*
X141224770Y-106143480D01*
X141191285Y-106082157D01*
X141189578Y-106066286D01*
X141189512Y-106066295D01*
X141168690Y-105908132D01*
X141168689Y-105908130D01*
X141110751Y-105768256D01*
X141064635Y-105708156D01*
X141064633Y-105708156D01*
X140955721Y-105817069D01*
X140894398Y-105850554D01*
X140824706Y-105845570D01*
X140768773Y-105803698D01*
X140744356Y-105738234D01*
X140748265Y-105697295D01*
X140753589Y-105677426D01*
X140775183Y-105596835D01*
X140807275Y-105541252D01*
X140852502Y-105496024D01*
X140852502Y-105496023D01*
X140826866Y-105476352D01*
X140785663Y-105419925D01*
X140778352Y-105377976D01*
X140778352Y-104774233D01*
X140778352Y-104774231D01*
X140747651Y-104659654D01*
X140713463Y-104600439D01*
X140688341Y-104556926D01*
X138720099Y-102588684D01*
X138705130Y-102580041D01*
X138673834Y-102561972D01*
X138648155Y-102542267D01*
X138545434Y-102439546D01*
X138511949Y-102378223D01*
X138509753Y-102357799D01*
X138509115Y-102353980D01*
X138509115Y-102353977D01*
X138506326Y-102345852D01*
X138503174Y-102276054D01*
X138538259Y-102215632D01*
X138600441Y-102183770D01*
X138663871Y-102188307D01*
X138667764Y-102189643D01*
X138671996Y-102191096D01*
X138672000Y-102191096D01*
X138682129Y-102192787D01*
X138681826Y-102194602D01*
X138736925Y-102210781D01*
X138757567Y-102227415D01*
X138943313Y-102413162D01*
X138943314Y-102413162D01*
X138989433Y-102353060D01*
X138989433Y-102353059D01*
X139047163Y-102213686D01*
X139091003Y-102159282D01*
X139157297Y-102137217D01*
X139224997Y-102154496D01*
X139253817Y-102179558D01*
X139254543Y-102178916D01*
X139259512Y-102184525D01*
X139259515Y-102184528D01*
X139259517Y-102184530D01*
X139377760Y-102289283D01*
X139377762Y-102289284D01*
X139517634Y-102362696D01*
X139671014Y-102400500D01*
X139671015Y-102400500D01*
X139828985Y-102400500D01*
X139982365Y-102362696D01*
X139998981Y-102353975D01*
X140122240Y-102289283D01*
X140240483Y-102184530D01*
X140330220Y-102054523D01*
X140386237Y-101906818D01*
X140405278Y-101750000D01*
X140403227Y-101733104D01*
X140386237Y-101593181D01*
X140350087Y-101497862D01*
X140330220Y-101445477D01*
X140240483Y-101315470D01*
X140240480Y-101315467D01*
X140240479Y-101315466D01*
X140238483Y-101313698D01*
X140237440Y-101312036D01*
X140235509Y-101309856D01*
X140235871Y-101309534D01*
X140201356Y-101254509D01*
X140200934Y-101252975D01*
X140200500Y-101251355D01*
X140200500Y-101251351D01*
X140169799Y-101136774D01*
X140169798Y-101136773D01*
X140169798Y-101136771D01*
X140161123Y-101121747D01*
X140161122Y-101121745D01*
X140134912Y-101076348D01*
X140118442Y-101008448D01*
X140141295Y-100942422D01*
X140154621Y-100926668D01*
X140192102Y-100889187D01*
X140214807Y-100858737D01*
X140236191Y-100830060D01*
X140240495Y-100817519D01*
X140280878Y-100760503D01*
X140317518Y-100740496D01*
X140330060Y-100736191D01*
X140383012Y-100696706D01*
X140389187Y-100692102D01*
X140545656Y-100535633D01*
X140589745Y-100476506D01*
X140594049Y-100463968D01*
X140634432Y-100406950D01*
X140671073Y-100386942D01*
X140683613Y-100382638D01*
X140693544Y-100375233D01*
X140742740Y-100338549D01*
X140899209Y-100182080D01*
X140943298Y-100122953D01*
X140947602Y-100110415D01*
X140987985Y-100053397D01*
X141024627Y-100033389D01*
X141033210Y-100030442D01*
X141103009Y-100027300D01*
X141163428Y-100062391D01*
X141195283Y-100124577D01*
X141196559Y-100162674D01*
X141185956Y-100249999D01*
X141185956Y-100250000D01*
X141204996Y-100406818D01*
X141249571Y-100524350D01*
X141261014Y-100554523D01*
X141350751Y-100684530D01*
X141468994Y-100789283D01*
X141468996Y-100789284D01*
X141608868Y-100862696D01*
X141762248Y-100900500D01*
X141762249Y-100900500D01*
X141920219Y-100900500D01*
X142073599Y-100862696D01*
X142109676Y-100843761D01*
X142213474Y-100789283D01*
X142331717Y-100684530D01*
X142421454Y-100554523D01*
X142477471Y-100406818D01*
X142496512Y-100250000D01*
X142496511Y-100249999D01*
X142497416Y-100242554D01*
X142499935Y-100242859D01*
X142516197Y-100187480D01*
X142569001Y-100141725D01*
X142638159Y-100131781D01*
X142650175Y-100134119D01*
X142716634Y-100150500D01*
X142874604Y-100150500D01*
X143027984Y-100112696D01*
X143100759Y-100074500D01*
X143167859Y-100039283D01*
X143232875Y-99981683D01*
X143296109Y-99951963D01*
X143315102Y-99950500D01*
X143390541Y-99950500D01*
X143457580Y-99970185D01*
G37*
%TD.AperFunction*%
%TA.AperFunction,Conductor*%
G36*
X136869414Y-106720185D02*
G01*
X136915169Y-106772989D01*
X136925113Y-106842147D01*
X136896088Y-106905703D01*
X136890056Y-106912181D01*
X136594641Y-107207595D01*
X136533318Y-107241080D01*
X136463626Y-107236096D01*
X136407799Y-107194366D01*
X136389505Y-107170000D01*
X135459000Y-107170000D01*
X135391961Y-107150315D01*
X135346206Y-107097511D01*
X135335000Y-107046000D01*
X135335000Y-106824500D01*
X135354685Y-106757461D01*
X135407489Y-106711706D01*
X135459000Y-106700500D01*
X136802375Y-106700500D01*
X136869414Y-106720185D01*
G37*
%TD.AperFunction*%
%TA.AperFunction,Conductor*%
G36*
X173325000Y-99680000D02*
G01*
X173573492Y-99680000D01*
X173573495Y-99679999D01*
X173766681Y-99641572D01*
X173766693Y-99641569D01*
X173948671Y-99566192D01*
X173948684Y-99566185D01*
X174112462Y-99456751D01*
X174112466Y-99456748D01*
X174251751Y-99317463D01*
X174272398Y-99286563D01*
X174326010Y-99241758D01*
X174395335Y-99233051D01*
X174458362Y-99263205D01*
X174495082Y-99322648D01*
X174499500Y-99355454D01*
X174499500Y-106644545D01*
X174479815Y-106711584D01*
X174427011Y-106757339D01*
X174357853Y-106767283D01*
X174294297Y-106738258D01*
X174272399Y-106713437D01*
X174251753Y-106682539D01*
X174251748Y-106682533D01*
X174112466Y-106543251D01*
X174112462Y-106543248D01*
X173948684Y-106433814D01*
X173948671Y-106433807D01*
X173766693Y-106358430D01*
X173766681Y-106358427D01*
X173573495Y-106320000D01*
X173325000Y-106320000D01*
X173325000Y-107020000D01*
X172825000Y-107020000D01*
X172825000Y-106320000D01*
X172576504Y-106320000D01*
X172383318Y-106358427D01*
X172383306Y-106358430D01*
X172201328Y-106433807D01*
X172201315Y-106433814D01*
X172037537Y-106543248D01*
X172037533Y-106543251D01*
X171898251Y-106682533D01*
X171898248Y-106682537D01*
X171788814Y-106846315D01*
X171785941Y-106851692D01*
X171784756Y-106851059D01*
X171745220Y-106900121D01*
X171678926Y-106922186D01*
X171611227Y-106904907D01*
X171563616Y-106853770D01*
X171550500Y-106798265D01*
X171550500Y-99201734D01*
X171570185Y-99134695D01*
X171622989Y-99088940D01*
X171692147Y-99078996D01*
X171755703Y-99108021D01*
X171785082Y-99148766D01*
X171785941Y-99148308D01*
X171788814Y-99153684D01*
X171898248Y-99317462D01*
X171898251Y-99317466D01*
X172037533Y-99456748D01*
X172037537Y-99456751D01*
X172201315Y-99566185D01*
X172201328Y-99566192D01*
X172383306Y-99641569D01*
X172383318Y-99641572D01*
X172576504Y-99679999D01*
X172576508Y-99680000D01*
X172825000Y-99680000D01*
X172825000Y-98980000D01*
X173325000Y-98980000D01*
X173325000Y-99680000D01*
G37*
%TD.AperFunction*%
%TA.AperFunction,Conductor*%
G36*
X126579638Y-105070185D02*
G01*
X126587525Y-105075697D01*
X126629054Y-105107190D01*
X126636868Y-105113115D01*
X126769654Y-105165479D01*
X126853098Y-105175500D01*
X127696902Y-105175500D01*
X127780346Y-105165479D01*
X127913132Y-105113115D01*
X127962475Y-105075697D01*
X128027786Y-105050873D01*
X128037401Y-105050500D01*
X130013035Y-105050500D01*
X130080074Y-105070185D01*
X130125829Y-105122989D01*
X130135773Y-105192147D01*
X130106748Y-105255703D01*
X130100716Y-105262181D01*
X128379167Y-106983729D01*
X128317844Y-107017214D01*
X128248152Y-107012230D01*
X128192219Y-106970358D01*
X128167802Y-106904894D01*
X128168371Y-106881262D01*
X128168694Y-106878579D01*
X128175500Y-106821902D01*
X128175500Y-106303098D01*
X128175185Y-106300479D01*
X128171205Y-106267331D01*
X128165479Y-106219654D01*
X128113115Y-106086868D01*
X128109543Y-106082157D01*
X128026867Y-105973132D01*
X127913134Y-105886886D01*
X127913132Y-105886885D01*
X127780346Y-105834521D01*
X127780345Y-105834520D01*
X127780343Y-105834520D01*
X127696902Y-105824500D01*
X126853098Y-105824500D01*
X126769656Y-105834520D01*
X126769655Y-105834520D01*
X126636865Y-105886886D01*
X126523130Y-105973134D01*
X126520584Y-105975681D01*
X126517684Y-105977264D01*
X126516374Y-105978258D01*
X126516224Y-105978061D01*
X126459261Y-106009166D01*
X126432903Y-106012000D01*
X126315618Y-106012000D01*
X126248579Y-105992315D01*
X126216815Y-105962926D01*
X126150078Y-105874922D01*
X126034976Y-105787636D01*
X125900588Y-105734640D01*
X125857242Y-105729435D01*
X125816144Y-105724500D01*
X125283856Y-105724500D01*
X125245841Y-105729065D01*
X125199411Y-105734640D01*
X125065023Y-105787636D01*
X124987545Y-105846390D01*
X124922233Y-105871213D01*
X124853869Y-105856785D01*
X124807082Y-105812684D01*
X124797573Y-105797268D01*
X124750000Y-105749695D01*
X124750000Y-105225304D01*
X124772573Y-105202731D01*
X124782081Y-105187317D01*
X124834029Y-105140592D01*
X124902991Y-105129369D01*
X124962544Y-105153608D01*
X125040025Y-105212364D01*
X125174410Y-105265359D01*
X125258856Y-105275500D01*
X125258862Y-105275500D01*
X125791138Y-105275500D01*
X125791144Y-105275500D01*
X125875590Y-105265359D01*
X126009975Y-105212364D01*
X126125078Y-105125078D01*
X126144418Y-105099573D01*
X126200610Y-105058051D01*
X126243221Y-105050500D01*
X126512599Y-105050500D01*
X126579638Y-105070185D01*
G37*
%TD.AperFunction*%
%TA.AperFunction,Conductor*%
G36*
X168468039Y-106020184D02*
G01*
X168513794Y-106072988D01*
X168525000Y-106124499D01*
X168525000Y-106326000D01*
X168505315Y-106393039D01*
X168452511Y-106438794D01*
X168401000Y-106450000D01*
X167674500Y-106450000D01*
X167607461Y-106430315D01*
X167561706Y-106377511D01*
X167550500Y-106326000D01*
X167550500Y-106124499D01*
X167570185Y-106057460D01*
X167622989Y-106011705D01*
X167674495Y-106000499D01*
X168401001Y-106000499D01*
X168468039Y-106020184D01*
G37*
%TD.AperFunction*%
%TA.AperFunction,Conductor*%
G36*
X148579728Y-105000000D02*
G01*
X148500000Y-105000000D01*
X148208765Y-105291234D01*
X148200643Y-105276358D01*
X148205627Y-105206666D01*
X148234128Y-105162319D01*
X148371575Y-105024872D01*
X148432898Y-104991387D01*
X148459256Y-104988553D01*
X148540744Y-104988553D01*
X148579728Y-105000000D01*
G37*
%TD.AperFunction*%
%TA.AperFunction,Conductor*%
G36*
X134155703Y-101793252D02*
G01*
X134162181Y-101799284D01*
X135061952Y-102699055D01*
X135095437Y-102760378D01*
X135097367Y-102771788D01*
X135101421Y-102805172D01*
X135089961Y-102874095D01*
X135056027Y-102913725D01*
X135057446Y-102915387D01*
X135036675Y-102933123D01*
X135187891Y-103084338D01*
X135202260Y-103101579D01*
X135259517Y-103184530D01*
X135377760Y-103289283D01*
X135392781Y-103297166D01*
X135422833Y-103319280D01*
X135676461Y-103572908D01*
X135709946Y-103634231D01*
X135704962Y-103703923D01*
X135676461Y-103748270D01*
X135498270Y-103926460D01*
X135436947Y-103959945D01*
X135367255Y-103954961D01*
X135322908Y-103926460D01*
X134683124Y-103286676D01*
X134669496Y-103302633D01*
X134591600Y-103444326D01*
X134591597Y-103444336D01*
X134551386Y-103600947D01*
X134551386Y-103762651D01*
X134552364Y-103770395D01*
X134550882Y-103770582D01*
X134548784Y-103831690D01*
X134509014Y-103889137D01*
X134488703Y-103902488D01*
X134377761Y-103960716D01*
X134259515Y-104065471D01*
X134222794Y-104118671D01*
X134168511Y-104162661D01*
X134099063Y-104170320D01*
X134036498Y-104139216D01*
X134033064Y-104135911D01*
X133986819Y-104089666D01*
X133953334Y-104028343D01*
X133950500Y-104001985D01*
X133950500Y-101886965D01*
X133970185Y-101819926D01*
X134022989Y-101774171D01*
X134092147Y-101764227D01*
X134155703Y-101793252D01*
G37*
%TD.AperFunction*%
%TA.AperFunction,Conductor*%
G36*
X154313178Y-101220185D02*
G01*
X154350637Y-101260418D01*
X154350888Y-101260231D01*
X154352635Y-101262565D01*
X154354973Y-101265076D01*
X154356207Y-101267336D01*
X154442452Y-101382544D01*
X154442455Y-101382547D01*
X154557664Y-101468793D01*
X154557671Y-101468797D01*
X154569404Y-101473173D01*
X154692517Y-101519091D01*
X154752127Y-101525500D01*
X155247872Y-101525499D01*
X155307483Y-101519091D01*
X155442331Y-101468796D01*
X155496189Y-101428477D01*
X155561652Y-101404060D01*
X155629925Y-101418911D01*
X155679331Y-101468316D01*
X155694500Y-101527744D01*
X155694500Y-101909477D01*
X155674815Y-101976516D01*
X155622011Y-102022271D01*
X155552853Y-102032215D01*
X155489297Y-102003190D01*
X155482819Y-101997158D01*
X155443345Y-101957684D01*
X155294124Y-101865643D01*
X155294119Y-101865641D01*
X155127697Y-101810494D01*
X155127690Y-101810493D01*
X155024986Y-101800000D01*
X154750000Y-101800000D01*
X154750000Y-102926000D01*
X154730315Y-102993039D01*
X154677511Y-103038794D01*
X154626000Y-103050000D01*
X153275001Y-103050000D01*
X153275001Y-103099986D01*
X153285494Y-103202697D01*
X153339394Y-103365356D01*
X153341796Y-103435184D01*
X153306064Y-103495226D01*
X153280141Y-103513718D01*
X153244969Y-103532517D01*
X153188642Y-103570154D01*
X153188638Y-103570158D01*
X153142343Y-103608151D01*
X153108151Y-103642343D01*
X153070158Y-103688638D01*
X153070154Y-103688642D01*
X153032517Y-103744969D01*
X153004292Y-103797777D01*
X153004283Y-103797796D01*
X152985778Y-103842472D01*
X152985777Y-103842476D01*
X152980008Y-103861496D01*
X152941711Y-103919934D01*
X152877898Y-103948391D01*
X152861348Y-103949500D01*
X150631431Y-103949500D01*
X150573805Y-103935296D01*
X150482365Y-103887304D01*
X150482364Y-103887303D01*
X150482363Y-103887303D01*
X150328986Y-103849500D01*
X150328985Y-103849500D01*
X150171015Y-103849500D01*
X150171014Y-103849500D01*
X150017634Y-103887303D01*
X149877762Y-103960715D01*
X149759517Y-104065469D01*
X149759516Y-104065471D01*
X149758381Y-104067115D01*
X149757238Y-104068041D01*
X149754543Y-104071084D01*
X149754037Y-104070635D01*
X149704102Y-104111106D01*
X149656330Y-104120678D01*
X149600635Y-104120678D01*
X149533596Y-104100993D01*
X149512958Y-104084363D01*
X149431566Y-104002971D01*
X149431565Y-104002970D01*
X149431560Y-104002965D01*
X149431557Y-104002963D01*
X149408559Y-103983907D01*
X149408555Y-103983904D01*
X149288917Y-103926290D01*
X149288913Y-103926289D01*
X149157609Y-103906499D01*
X149026304Y-103926289D01*
X149026300Y-103926290D01*
X148906662Y-103983904D01*
X148906658Y-103983907D01*
X148883660Y-104002963D01*
X148883646Y-104002975D01*
X148835390Y-104051233D01*
X148774067Y-104084719D01*
X148747708Y-104087553D01*
X148165106Y-104087553D01*
X148098067Y-104067868D01*
X148077425Y-104051234D01*
X147688372Y-103662181D01*
X147654887Y-103600858D01*
X147659871Y-103531166D01*
X147701743Y-103475233D01*
X147767207Y-103450816D01*
X147776053Y-103450500D01*
X148559307Y-103450500D01*
X148559309Y-103450500D01*
X148656342Y-103424500D01*
X148673887Y-103419799D01*
X148776614Y-103360489D01*
X149637090Y-102500013D01*
X153275000Y-102500013D01*
X153275000Y-102550000D01*
X154250000Y-102550000D01*
X154250000Y-101800000D01*
X153975029Y-101800000D01*
X153975012Y-101800001D01*
X153872302Y-101810494D01*
X153705880Y-101865641D01*
X153705875Y-101865643D01*
X153556654Y-101957684D01*
X153432684Y-102081654D01*
X153340643Y-102230875D01*
X153340641Y-102230880D01*
X153285494Y-102397302D01*
X153285493Y-102397309D01*
X153275000Y-102500013D01*
X149637090Y-102500013D01*
X150900284Y-101236819D01*
X150961607Y-101203334D01*
X150987965Y-101200500D01*
X154246139Y-101200500D01*
X154313178Y-101220185D01*
G37*
%TD.AperFunction*%
%TA.AperFunction,Conductor*%
G36*
X165707425Y-103598355D02*
G01*
X165707932Y-103596036D01*
X165715306Y-103597647D01*
X165745730Y-103600500D01*
X165745734Y-103600500D01*
X165838035Y-103600500D01*
X165905074Y-103620185D01*
X165950829Y-103672989D01*
X165960773Y-103742147D01*
X165931748Y-103805703D01*
X165925716Y-103812181D01*
X165724716Y-104013181D01*
X165663393Y-104046666D01*
X165637035Y-104049500D01*
X165342991Y-104049500D01*
X165275952Y-104029815D01*
X165255310Y-104013181D01*
X165235499Y-103993370D01*
X165202014Y-103932047D01*
X165206998Y-103862355D01*
X165248870Y-103806422D01*
X165288586Y-103786612D01*
X165410197Y-103751281D01*
X165551550Y-103667686D01*
X165551558Y-103667680D01*
X165590788Y-103628450D01*
X165652111Y-103594964D01*
X165707425Y-103598355D01*
G37*
%TD.AperFunction*%
%TA.AperFunction,Conductor*%
G36*
X124511944Y-103040598D02*
G01*
X124515379Y-103043904D01*
X124938181Y-103466705D01*
X124971666Y-103528028D01*
X124974500Y-103554386D01*
X124974500Y-103699833D01*
X124954815Y-103766872D01*
X124902011Y-103812627D01*
X124832853Y-103822571D01*
X124769297Y-103793546D01*
X124762819Y-103787514D01*
X124750000Y-103774695D01*
X124750000Y-103400000D01*
X124055862Y-103400000D01*
X124053468Y-103383353D01*
X124082493Y-103319797D01*
X124118584Y-103291202D01*
X124119374Y-103290786D01*
X124122240Y-103289283D01*
X124240483Y-103184530D01*
X124325650Y-103061143D01*
X124379930Y-103017155D01*
X124449378Y-103009495D01*
X124511944Y-103040598D01*
G37*
%TD.AperFunction*%
%TA.AperFunction,Conductor*%
G36*
X132386967Y-97720185D02*
G01*
X132402152Y-97731682D01*
X132467171Y-97789283D01*
X132467173Y-97789284D01*
X132607045Y-97862696D01*
X132760425Y-97900500D01*
X132760426Y-97900500D01*
X132801446Y-97900500D01*
X132868485Y-97920185D01*
X132889127Y-97936819D01*
X135503462Y-100551154D01*
X135536947Y-100612477D01*
X135531963Y-100682169D01*
X135490091Y-100738102D01*
X135446621Y-100758939D01*
X135401901Y-100770422D01*
X135268493Y-100843761D01*
X135268493Y-100843762D01*
X136406236Y-101981505D01*
X136479577Y-101848100D01*
X136495451Y-101786274D01*
X136531189Y-101726235D01*
X136593712Y-101695049D01*
X136663171Y-101702616D01*
X136703237Y-101729429D01*
X137260800Y-102286992D01*
X137294285Y-102348315D01*
X137289301Y-102418007D01*
X137247429Y-102473940D01*
X137181965Y-102498357D01*
X137173119Y-102498673D01*
X136432019Y-102498673D01*
X136364980Y-102478988D01*
X136329969Y-102445113D01*
X136296967Y-102397302D01*
X136240483Y-102315470D01*
X136122240Y-102210717D01*
X136122238Y-102210716D01*
X136122237Y-102210715D01*
X135982366Y-102137304D01*
X135846807Y-102103892D01*
X135788801Y-102071176D01*
X135660589Y-101942964D01*
X135631429Y-101942964D01*
X135564390Y-101923279D01*
X135543748Y-101906645D01*
X135343355Y-101706252D01*
X135309870Y-101644929D01*
X135307036Y-101618571D01*
X135307036Y-101589411D01*
X134914939Y-101197314D01*
X134905790Y-101198617D01*
X134836646Y-101188575D01*
X134800638Y-101163535D01*
X131549284Y-97912181D01*
X131515799Y-97850858D01*
X131520783Y-97781166D01*
X131562655Y-97725233D01*
X131628119Y-97700816D01*
X131636965Y-97700500D01*
X132319928Y-97700500D01*
X132386967Y-97720185D01*
G37*
%TD.AperFunction*%
%TA.AperFunction,Conductor*%
G36*
X126994428Y-100470185D02*
G01*
X127031887Y-100510418D01*
X127032138Y-100510231D01*
X127033885Y-100512565D01*
X127036223Y-100515076D01*
X127037457Y-100517336D01*
X127123701Y-100632543D01*
X127123702Y-100632544D01*
X127123704Y-100632546D01*
X127151502Y-100653355D01*
X127193372Y-100709288D01*
X127198356Y-100778980D01*
X127164871Y-100840303D01*
X127141341Y-100858737D01*
X127040125Y-100919925D01*
X127040121Y-100919928D01*
X126919927Y-101040122D01*
X126831980Y-101185604D01*
X126781409Y-101347893D01*
X126775000Y-101418427D01*
X126775000Y-101500000D01*
X127801000Y-101500000D01*
X127868039Y-101519685D01*
X127913794Y-101572489D01*
X127925000Y-101624000D01*
X127925000Y-101876000D01*
X127905315Y-101943039D01*
X127852511Y-101988794D01*
X127801000Y-102000000D01*
X126775001Y-102000000D01*
X126775001Y-102000500D01*
X126755316Y-102067539D01*
X126702512Y-102113294D01*
X126651001Y-102124500D01*
X126562965Y-102124500D01*
X126495926Y-102104815D01*
X126475284Y-102088181D01*
X126188047Y-101800944D01*
X126154562Y-101739621D01*
X126152632Y-101728209D01*
X126149966Y-101706252D01*
X126136237Y-101593182D01*
X126080220Y-101445477D01*
X125990483Y-101315470D01*
X125879686Y-101217314D01*
X125842562Y-101158127D01*
X125843329Y-101088261D01*
X125881746Y-101029901D01*
X125945616Y-101001576D01*
X125961915Y-101000500D01*
X126230104Y-101000500D01*
X126230110Y-101000500D01*
X126317571Y-100989997D01*
X126456750Y-100935111D01*
X126575961Y-100844711D01*
X126666361Y-100725500D01*
X126721247Y-100586321D01*
X126721247Y-100586319D01*
X126721248Y-100586318D01*
X126724443Y-100559715D01*
X126751980Y-100495501D01*
X126809863Y-100456368D01*
X126847558Y-100450500D01*
X126927389Y-100450500D01*
X126994428Y-100470185D01*
G37*
%TD.AperFunction*%
%TA.AperFunction,Conductor*%
G36*
X168209204Y-98959556D02*
G01*
X168285504Y-98980000D01*
X168470911Y-98980000D01*
X168513794Y-99029489D01*
X168525000Y-99081000D01*
X168525000Y-99875500D01*
X168505315Y-99942539D01*
X168452511Y-99988294D01*
X168401000Y-99999500D01*
X167674500Y-99999500D01*
X167607461Y-99979815D01*
X167561706Y-99927011D01*
X167550500Y-99875500D01*
X167550500Y-99674000D01*
X167570185Y-99606961D01*
X167622989Y-99561206D01*
X167674500Y-99550000D01*
X168025000Y-99550000D01*
X168025000Y-99081000D01*
X168044685Y-99013961D01*
X168097489Y-98968206D01*
X168149000Y-98957000D01*
X168204777Y-98957000D01*
X168209204Y-98959556D01*
G37*
%TD.AperFunction*%
%TA.AperFunction,Conductor*%
G36*
X172012204Y-91520185D02*
G01*
X172057959Y-91572989D01*
X172067903Y-91642147D01*
X172038878Y-91705703D01*
X171980100Y-91743477D01*
X171953275Y-91748235D01*
X171705687Y-91764462D01*
X171705675Y-91764464D01*
X171416415Y-91822001D01*
X171416400Y-91822005D01*
X171137111Y-91916812D01*
X170872593Y-92047258D01*
X170872580Y-92047265D01*
X170627346Y-92211126D01*
X170627339Y-92211131D01*
X170593959Y-92240403D01*
X170593959Y-92240405D01*
X171417263Y-93063709D01*
X171283398Y-93160967D01*
X171160967Y-93283398D01*
X171063709Y-93417262D01*
X170240405Y-92593959D01*
X170240403Y-92593959D01*
X170211131Y-92627339D01*
X170211126Y-92627346D01*
X170047265Y-92872580D01*
X170047258Y-92872593D01*
X169916812Y-93137111D01*
X169822005Y-93416400D01*
X169822001Y-93416415D01*
X169764464Y-93705675D01*
X169764462Y-93705687D01*
X169745172Y-94000000D01*
X169764462Y-94294312D01*
X169764464Y-94294324D01*
X169822001Y-94583584D01*
X169822005Y-94583599D01*
X169916812Y-94862888D01*
X170047258Y-95127406D01*
X170047265Y-95127419D01*
X170211123Y-95372649D01*
X170240405Y-95406040D01*
X171063708Y-94582736D01*
X171160967Y-94716602D01*
X171283398Y-94839033D01*
X171417262Y-94936290D01*
X170593958Y-95759593D01*
X170627350Y-95788876D01*
X170872580Y-95952734D01*
X170872593Y-95952741D01*
X171137111Y-96083187D01*
X171416400Y-96177994D01*
X171416415Y-96177998D01*
X171705675Y-96235535D01*
X171705687Y-96235537D01*
X172000000Y-96254827D01*
X172294312Y-96235537D01*
X172294324Y-96235535D01*
X172583584Y-96177998D01*
X172583599Y-96177994D01*
X172862888Y-96083187D01*
X173127406Y-95952741D01*
X173127419Y-95952734D01*
X173372648Y-95788877D01*
X173406039Y-95759593D01*
X172582737Y-94936290D01*
X172716602Y-94839033D01*
X172839033Y-94716602D01*
X172936290Y-94582737D01*
X173759593Y-95406039D01*
X173788877Y-95372648D01*
X173952734Y-95127419D01*
X173952741Y-95127406D01*
X174083187Y-94862888D01*
X174177994Y-94583599D01*
X174177998Y-94583584D01*
X174235535Y-94294324D01*
X174235537Y-94294312D01*
X174251765Y-94046725D01*
X174275792Y-93981117D01*
X174331476Y-93938913D01*
X174401137Y-93933514D01*
X174462658Y-93966633D01*
X174496507Y-94027756D01*
X174499500Y-94054835D01*
X174499500Y-98004545D01*
X174479815Y-98071584D01*
X174427011Y-98117339D01*
X174357853Y-98127283D01*
X174294297Y-98098258D01*
X174272399Y-98073437D01*
X174251753Y-98042539D01*
X174251748Y-98042533D01*
X174112466Y-97903251D01*
X174112462Y-97903248D01*
X173948684Y-97793814D01*
X173948671Y-97793807D01*
X173766693Y-97718430D01*
X173766681Y-97718427D01*
X173573495Y-97680000D01*
X173325000Y-97680000D01*
X173325000Y-98380000D01*
X172825000Y-98380000D01*
X172825000Y-97680000D01*
X172576504Y-97680000D01*
X172383318Y-97718427D01*
X172383306Y-97718430D01*
X172201328Y-97793807D01*
X172201315Y-97793814D01*
X172037537Y-97903248D01*
X172037533Y-97903251D01*
X171898251Y-98042533D01*
X171898248Y-98042537D01*
X171788814Y-98206315D01*
X171788807Y-98206328D01*
X171713430Y-98388306D01*
X171713427Y-98388316D01*
X171680374Y-98554485D01*
X171647989Y-98616396D01*
X171587273Y-98650970D01*
X171517504Y-98647230D01*
X171460832Y-98606363D01*
X171451372Y-98592296D01*
X171440510Y-98573482D01*
X170156518Y-97289490D01*
X170030988Y-97217016D01*
X170030983Y-97217014D01*
X169965619Y-97199499D01*
X169965619Y-97199500D01*
X169911489Y-97184996D01*
X169890978Y-97179500D01*
X169890977Y-97179500D01*
X167674500Y-97179500D01*
X167607461Y-97159815D01*
X167561706Y-97107011D01*
X167550500Y-97055500D01*
X167550500Y-95427527D01*
X167550500Y-95427525D01*
X167512984Y-95287515D01*
X167512982Y-95287512D01*
X167512982Y-95287510D01*
X167512981Y-95287509D01*
X167491037Y-95249501D01*
X167491035Y-95249499D01*
X167440510Y-95161985D01*
X166913937Y-94635412D01*
X166885676Y-94591702D01*
X166858733Y-94520661D01*
X166830220Y-94445477D01*
X166740483Y-94315470D01*
X166622240Y-94210717D01*
X166622238Y-94210716D01*
X166622235Y-94210713D01*
X166616066Y-94206455D01*
X166617577Y-94204264D01*
X166576411Y-94164438D01*
X166560432Y-94096420D01*
X166583762Y-94030561D01*
X166596564Y-94015538D01*
X166647772Y-93964330D01*
X166709095Y-93930845D01*
X166778787Y-93935829D01*
X166780202Y-93936367D01*
X166818802Y-93951321D01*
X167028390Y-93990500D01*
X167028392Y-93990500D01*
X167241608Y-93990500D01*
X167241610Y-93990500D01*
X167451198Y-93951321D01*
X167650019Y-93874298D01*
X167831302Y-93762052D01*
X167988872Y-93618407D01*
X168117366Y-93448255D01*
X168146485Y-93389776D01*
X168212403Y-93257394D01*
X168212403Y-93257393D01*
X168212405Y-93257389D01*
X168270756Y-93052310D01*
X168290429Y-92840000D01*
X168270756Y-92627690D01*
X168212405Y-92422611D01*
X168212403Y-92422606D01*
X168212403Y-92422605D01*
X168117367Y-92231746D01*
X167988872Y-92061593D01*
X167973147Y-92047258D01*
X167831302Y-91917948D01*
X167650019Y-91805702D01*
X167650017Y-91805701D01*
X167480749Y-91740127D01*
X167425348Y-91697554D01*
X167401757Y-91631787D01*
X167417468Y-91563707D01*
X167467492Y-91514928D01*
X167525543Y-91500500D01*
X171934108Y-91500500D01*
X171945165Y-91500500D01*
X172012204Y-91520185D01*
G37*
%TD.AperFunction*%
%TA.AperFunction,Conductor*%
G36*
X165649765Y-95064850D02*
G01*
X165705698Y-95106722D01*
X165708481Y-95110592D01*
X165759517Y-95184530D01*
X165877760Y-95289283D01*
X166017635Y-95362696D01*
X166072369Y-95376186D01*
X166130377Y-95408902D01*
X166413181Y-95691706D01*
X166446666Y-95753029D01*
X166449500Y-95779387D01*
X166449500Y-96921684D01*
X166429815Y-96988723D01*
X166377011Y-97034478D01*
X166307853Y-97044422D01*
X166275840Y-97033767D01*
X166275641Y-97034303D01*
X166132486Y-96980910D01*
X166132485Y-96980909D01*
X166132483Y-96980909D01*
X166072873Y-96974500D01*
X166072863Y-96974500D01*
X165577129Y-96974500D01*
X165577123Y-96974501D01*
X165517516Y-96980908D01*
X165382671Y-97031202D01*
X165382664Y-97031206D01*
X165267455Y-97117452D01*
X165216891Y-97184996D01*
X165160956Y-97226867D01*
X165091265Y-97231850D01*
X165029942Y-97198364D01*
X165011508Y-97174834D01*
X164930072Y-97040122D01*
X164809877Y-96919927D01*
X164664395Y-96831980D01*
X164664396Y-96831980D01*
X164502105Y-96781409D01*
X164502106Y-96781409D01*
X164431572Y-96775000D01*
X164425000Y-96775000D01*
X164425000Y-97876000D01*
X164405315Y-97943039D01*
X164352511Y-97988794D01*
X164301000Y-98000000D01*
X163259428Y-98000000D01*
X163232410Y-98014753D01*
X163162718Y-98009769D01*
X163118371Y-97981268D01*
X163026616Y-97889513D01*
X163026614Y-97889511D01*
X163026611Y-97889509D01*
X163026607Y-97889506D01*
X162958473Y-97850168D01*
X162910258Y-97799601D01*
X162897036Y-97730993D01*
X162923004Y-97666129D01*
X162958469Y-97635398D01*
X163001614Y-97610489D01*
X163105871Y-97506231D01*
X163167192Y-97472747D01*
X163236884Y-97477731D01*
X163271535Y-97500000D01*
X163925000Y-97500000D01*
X163925000Y-96738464D01*
X163944685Y-96671425D01*
X163961316Y-96650786D01*
X165518752Y-95093349D01*
X165580073Y-95059866D01*
X165649765Y-95064850D01*
G37*
%TD.AperFunction*%
%TA.AperFunction,Conductor*%
G36*
X146491496Y-91520185D02*
G01*
X146537251Y-91572989D01*
X146547195Y-91642147D01*
X146518170Y-91705703D01*
X146469251Y-91740127D01*
X146299982Y-91805701D01*
X146299980Y-91805702D01*
X146118699Y-91917947D01*
X145961127Y-92061593D01*
X145832632Y-92231746D01*
X145737596Y-92422605D01*
X145737596Y-92422607D01*
X145679244Y-92627689D01*
X145668471Y-92743951D01*
X145642685Y-92808888D01*
X145598130Y-92840804D01*
X145634503Y-92861668D01*
X145666693Y-92923681D01*
X145668470Y-92936047D01*
X145679244Y-93052310D01*
X145736265Y-93252716D01*
X145737596Y-93257392D01*
X145737596Y-93257394D01*
X145832632Y-93448253D01*
X145932447Y-93580428D01*
X145961128Y-93618407D01*
X146118698Y-93762052D01*
X146299981Y-93874298D01*
X146299983Y-93874298D01*
X146304856Y-93877316D01*
X146303553Y-93879419D01*
X146347003Y-93919695D01*
X146364500Y-93983202D01*
X146364500Y-95947034D01*
X146344815Y-96014073D01*
X146328181Y-96034715D01*
X145699361Y-96663535D01*
X145638038Y-96697020D01*
X145594209Y-96698617D01*
X145585059Y-96697314D01*
X144927091Y-97355282D01*
X144865768Y-97388767D01*
X144796076Y-97383783D01*
X144751729Y-97355282D01*
X144573538Y-97177091D01*
X144540053Y-97115768D01*
X144545037Y-97046076D01*
X144573538Y-97001729D01*
X145231505Y-96343762D01*
X145231505Y-96343761D01*
X145098099Y-96270421D01*
X144941480Y-96230208D01*
X144869974Y-96230208D01*
X144802935Y-96210523D01*
X144758254Y-96160009D01*
X144747862Y-96138429D01*
X144747859Y-96138425D01*
X144728803Y-96115427D01*
X144728791Y-96115413D01*
X144455764Y-95842386D01*
X144455750Y-95842374D01*
X144432752Y-95823318D01*
X144432748Y-95823315D01*
X144313110Y-95765701D01*
X144313106Y-95765700D01*
X144181802Y-95745910D01*
X144050497Y-95765700D01*
X144050493Y-95765701D01*
X143930855Y-95823315D01*
X143930851Y-95823318D01*
X143907853Y-95842374D01*
X143907850Y-95842376D01*
X143882710Y-95867517D01*
X143826455Y-95923771D01*
X143765135Y-95957255D01*
X143738776Y-95960089D01*
X142780102Y-95960089D01*
X142694169Y-95983114D01*
X142665524Y-95990790D01*
X142562797Y-96050098D01*
X142562795Y-96050100D01*
X142139513Y-96473383D01*
X142139509Y-96473389D01*
X142080199Y-96576115D01*
X142080198Y-96576118D01*
X142077959Y-96584474D01*
X142077960Y-96584475D01*
X142049500Y-96690691D01*
X142049500Y-96724240D01*
X142029815Y-96791279D01*
X142014153Y-96809556D01*
X142014491Y-96809856D01*
X142009515Y-96815472D01*
X141919781Y-96945475D01*
X141919780Y-96945476D01*
X141863762Y-97093181D01*
X141844722Y-97249999D01*
X141844722Y-97250000D01*
X141863763Y-97406818D01*
X141922096Y-97560630D01*
X141927463Y-97630293D01*
X141894316Y-97691799D01*
X141833177Y-97725621D01*
X141763459Y-97721019D01*
X141718473Y-97692282D01*
X141326110Y-97299918D01*
X141326104Y-97299912D01*
X141266979Y-97255825D01*
X141266977Y-97255824D01*
X141148448Y-97215133D01*
X141148447Y-97215133D01*
X141074500Y-97215133D01*
X141007461Y-97195448D01*
X140961706Y-97142644D01*
X140950500Y-97091133D01*
X140950500Y-96852964D01*
X140970185Y-96785925D01*
X140986814Y-96765288D01*
X143787773Y-93964328D01*
X143849094Y-93930845D01*
X143918786Y-93935829D01*
X143920244Y-93936384D01*
X143942168Y-93944877D01*
X143958802Y-93951321D01*
X144168390Y-93990500D01*
X144168392Y-93990500D01*
X144381608Y-93990500D01*
X144381610Y-93990500D01*
X144591198Y-93951321D01*
X144790019Y-93874298D01*
X144971302Y-93762052D01*
X145128872Y-93618407D01*
X145257366Y-93448255D01*
X145286485Y-93389776D01*
X145352403Y-93257394D01*
X145352403Y-93257393D01*
X145352405Y-93257389D01*
X145410756Y-93052310D01*
X145421529Y-92936047D01*
X145447315Y-92871111D01*
X145491869Y-92839194D01*
X145455497Y-92818331D01*
X145423307Y-92756318D01*
X145421529Y-92743951D01*
X145420849Y-92736613D01*
X145410756Y-92627690D01*
X145352405Y-92422611D01*
X145352403Y-92422606D01*
X145352403Y-92422605D01*
X145257367Y-92231746D01*
X145128872Y-92061593D01*
X145113147Y-92047258D01*
X144971302Y-91917948D01*
X144790019Y-91805702D01*
X144790017Y-91805701D01*
X144620749Y-91740127D01*
X144565348Y-91697554D01*
X144541757Y-91631787D01*
X144557468Y-91563707D01*
X144607492Y-91514928D01*
X144665543Y-91500500D01*
X146424457Y-91500500D01*
X146491496Y-91520185D01*
G37*
%TD.AperFunction*%
%TA.AperFunction,Conductor*%
G36*
X131854200Y-95470185D02*
G01*
X131874842Y-95486819D01*
X132787154Y-96399131D01*
X132820639Y-96460454D01*
X132815655Y-96530146D01*
X132773783Y-96586079D01*
X132729148Y-96607209D01*
X132607044Y-96637304D01*
X132467173Y-96710715D01*
X132448779Y-96727011D01*
X132405579Y-96765283D01*
X132402155Y-96768316D01*
X132338921Y-96798037D01*
X132319928Y-96799500D01*
X130340366Y-96799500D01*
X130273327Y-96779815D01*
X130227572Y-96727011D01*
X130217628Y-96657853D01*
X130218566Y-96652374D01*
X130225000Y-96581572D01*
X130225000Y-96500000D01*
X129199000Y-96500000D01*
X129131961Y-96480315D01*
X129086206Y-96427511D01*
X129075000Y-96376000D01*
X129075000Y-96124000D01*
X129094685Y-96056961D01*
X129147489Y-96011206D01*
X129199000Y-96000000D01*
X130224999Y-96000000D01*
X130224999Y-95918417D01*
X130218591Y-95847897D01*
X130218590Y-95847892D01*
X130168018Y-95685601D01*
X130168017Y-95685599D01*
X130139635Y-95638649D01*
X130121799Y-95571095D01*
X130143317Y-95504621D01*
X130197358Y-95460334D01*
X130245752Y-95450500D01*
X131787161Y-95450500D01*
X131854200Y-95470185D01*
G37*
%TD.AperFunction*%
%TA.AperFunction,Conductor*%
G36*
X126171496Y-91520185D02*
G01*
X126217251Y-91572989D01*
X126227195Y-91642147D01*
X126198170Y-91705703D01*
X126149251Y-91740127D01*
X125979982Y-91805701D01*
X125979980Y-91805702D01*
X125798699Y-91917947D01*
X125641127Y-92061593D01*
X125512632Y-92231746D01*
X125417596Y-92422605D01*
X125417596Y-92422607D01*
X125359244Y-92627689D01*
X125348471Y-92743951D01*
X125322685Y-92808888D01*
X125278130Y-92840804D01*
X125314503Y-92861668D01*
X125346693Y-92923681D01*
X125348470Y-92936047D01*
X125359244Y-93052310D01*
X125416265Y-93252716D01*
X125417596Y-93257392D01*
X125417596Y-93257394D01*
X125512632Y-93448253D01*
X125612447Y-93580428D01*
X125641128Y-93618407D01*
X125798698Y-93762052D01*
X125979981Y-93874298D01*
X126178802Y-93951321D01*
X126388390Y-93990500D01*
X126388392Y-93990500D01*
X126601608Y-93990500D01*
X126601610Y-93990500D01*
X126811198Y-93951321D01*
X126849752Y-93936384D01*
X126919374Y-93930522D01*
X126981115Y-93963231D01*
X126982227Y-93964330D01*
X128378386Y-95360489D01*
X128428652Y-95389510D01*
X128457283Y-95406040D01*
X128488153Y-95423863D01*
X128486883Y-95426061D01*
X128531400Y-95461935D01*
X128553465Y-95528229D01*
X128536186Y-95595928D01*
X128535661Y-95596805D01*
X128488491Y-95674834D01*
X128436963Y-95722021D01*
X128368104Y-95733860D01*
X128303775Y-95706591D01*
X128283108Y-95684995D01*
X128232547Y-95617455D01*
X128232544Y-95617452D01*
X128117335Y-95531206D01*
X128117328Y-95531202D01*
X127982486Y-95480910D01*
X127982485Y-95480909D01*
X127982483Y-95480909D01*
X127922873Y-95474500D01*
X127922863Y-95474500D01*
X127427129Y-95474500D01*
X127427123Y-95474501D01*
X127367516Y-95480908D01*
X127232671Y-95531202D01*
X127232664Y-95531206D01*
X127117455Y-95617452D01*
X127117452Y-95617455D01*
X127031207Y-95732663D01*
X127029973Y-95734924D01*
X127028150Y-95736746D01*
X127025888Y-95739769D01*
X127025453Y-95739443D01*
X126980569Y-95784331D01*
X126921139Y-95799500D01*
X126841308Y-95799500D01*
X126774269Y-95779815D01*
X126728514Y-95727011D01*
X126718193Y-95690285D01*
X126714998Y-95663681D01*
X126714997Y-95663679D01*
X126660112Y-95524502D01*
X126660111Y-95524500D01*
X126569711Y-95405288D01*
X126450499Y-95314888D01*
X126450497Y-95314887D01*
X126311322Y-95260003D01*
X126298826Y-95258502D01*
X126223860Y-95249500D01*
X125651140Y-95249500D01*
X125585544Y-95257377D01*
X125563677Y-95260003D01*
X125424502Y-95314887D01*
X125424500Y-95314888D01*
X125305290Y-95405287D01*
X125278304Y-95440874D01*
X125222111Y-95482397D01*
X125152390Y-95486948D01*
X125091276Y-95453083D01*
X125058172Y-95391553D01*
X125055500Y-95365948D01*
X125055500Y-95312223D01*
X125055500Y-95312210D01*
X125054028Y-95282261D01*
X125051645Y-95258070D01*
X125047247Y-95228418D01*
X125031606Y-95149786D01*
X125014223Y-95092482D01*
X125014220Y-95092476D01*
X125014219Y-95092471D01*
X124995711Y-95047788D01*
X124995702Y-95047769D01*
X124967480Y-94994969D01*
X124967476Y-94994962D01*
X124937099Y-94949500D01*
X124929846Y-94938645D01*
X124891854Y-94892352D01*
X124891853Y-94892351D01*
X124891849Y-94892346D01*
X124857652Y-94858149D01*
X124811359Y-94820157D01*
X124811358Y-94820156D01*
X124811354Y-94820153D01*
X124755036Y-94782522D01*
X124755035Y-94782521D01*
X124755033Y-94782520D01*
X124702215Y-94754288D01*
X124702212Y-94754287D01*
X124657530Y-94735779D01*
X124657527Y-94735778D01*
X124600215Y-94718393D01*
X124600210Y-94718392D01*
X124600209Y-94718391D01*
X124521564Y-94702749D01*
X124491931Y-94698354D01*
X124491889Y-94698349D01*
X124467731Y-94695970D01*
X124456082Y-94695398D01*
X124437789Y-94694500D01*
X124437778Y-94694500D01*
X121649387Y-94694500D01*
X121582348Y-94674815D01*
X121561706Y-94658181D01*
X121201319Y-94297794D01*
X121167834Y-94236471D01*
X121165000Y-94210113D01*
X121165000Y-93273012D01*
X121222007Y-93305925D01*
X121349174Y-93340000D01*
X121480826Y-93340000D01*
X121607993Y-93305925D01*
X121665000Y-93273012D01*
X121665000Y-94190000D01*
X122312828Y-94190000D01*
X122312844Y-94189999D01*
X122372372Y-94183598D01*
X122372379Y-94183596D01*
X122507086Y-94133354D01*
X122507093Y-94133350D01*
X122622187Y-94047190D01*
X122622190Y-94047187D01*
X122708350Y-93932093D01*
X122708354Y-93932086D01*
X122758596Y-93797379D01*
X122758598Y-93797372D01*
X122764999Y-93737844D01*
X122765000Y-93737827D01*
X122765000Y-93543268D01*
X122784685Y-93476229D01*
X122837489Y-93430474D01*
X122906647Y-93420530D01*
X122970203Y-93449555D01*
X122987950Y-93468537D01*
X123101128Y-93618407D01*
X123258698Y-93762052D01*
X123439981Y-93874298D01*
X123638802Y-93951321D01*
X123848390Y-93990500D01*
X123848392Y-93990500D01*
X124061608Y-93990500D01*
X124061610Y-93990500D01*
X124271198Y-93951321D01*
X124470019Y-93874298D01*
X124651302Y-93762052D01*
X124808872Y-93618407D01*
X124937366Y-93448255D01*
X124966485Y-93389776D01*
X125032403Y-93257394D01*
X125032403Y-93257393D01*
X125032405Y-93257389D01*
X125090756Y-93052310D01*
X125101529Y-92936047D01*
X125127315Y-92871111D01*
X125171869Y-92839194D01*
X125135497Y-92818331D01*
X125103307Y-92756318D01*
X125101529Y-92743951D01*
X125100849Y-92736613D01*
X125090756Y-92627690D01*
X125032405Y-92422611D01*
X125032403Y-92422606D01*
X125032403Y-92422605D01*
X124937367Y-92231746D01*
X124808872Y-92061593D01*
X124793147Y-92047258D01*
X124651302Y-91917948D01*
X124470019Y-91805702D01*
X124470017Y-91805701D01*
X124300749Y-91740127D01*
X124245348Y-91697554D01*
X124221757Y-91631787D01*
X124237468Y-91563707D01*
X124287492Y-91514928D01*
X124345543Y-91500500D01*
X126104457Y-91500500D01*
X126171496Y-91520185D01*
G37*
%TD.AperFunction*%
%TA.AperFunction,Conductor*%
G36*
X118551496Y-91520185D02*
G01*
X118597251Y-91572989D01*
X118607195Y-91642147D01*
X118578170Y-91705703D01*
X118529251Y-91740127D01*
X118359982Y-91805701D01*
X118359980Y-91805702D01*
X118178699Y-91917947D01*
X118021127Y-92061593D01*
X117892632Y-92231746D01*
X117797596Y-92422605D01*
X117797596Y-92422607D01*
X117739244Y-92627689D01*
X117719571Y-92839999D01*
X117719571Y-92840000D01*
X117739244Y-93052310D01*
X117797595Y-93257392D01*
X117813170Y-93288669D01*
X117825431Y-93357455D01*
X117798558Y-93421950D01*
X117789851Y-93431622D01*
X116317704Y-94903769D01*
X116256381Y-94937254D01*
X116186689Y-94932270D01*
X116130756Y-94890398D01*
X116106339Y-94824934D01*
X116112604Y-94776229D01*
X116177994Y-94583599D01*
X116177998Y-94583584D01*
X116235535Y-94294324D01*
X116235537Y-94294312D01*
X116254827Y-94000000D01*
X116235537Y-93705687D01*
X116235535Y-93705675D01*
X116177998Y-93416415D01*
X116177994Y-93416400D01*
X116083187Y-93137111D01*
X115952741Y-92872593D01*
X115952734Y-92872580D01*
X115788876Y-92627350D01*
X115759593Y-92593958D01*
X114936289Y-93417261D01*
X114839033Y-93283398D01*
X114716602Y-93160967D01*
X114582736Y-93063709D01*
X115406040Y-92240405D01*
X115372649Y-92211123D01*
X115127419Y-92047265D01*
X115127406Y-92047258D01*
X114862888Y-91916812D01*
X114583599Y-91822005D01*
X114583584Y-91822001D01*
X114294324Y-91764464D01*
X114294312Y-91764462D01*
X114046725Y-91748235D01*
X113981117Y-91724208D01*
X113938913Y-91668524D01*
X113933514Y-91598863D01*
X113966633Y-91537342D01*
X114027756Y-91503493D01*
X114054835Y-91500500D01*
X114065892Y-91500500D01*
X118484457Y-91500500D01*
X118551496Y-91520185D01*
G37*
%TD.AperFunction*%
%TA.AperFunction,Conductor*%
G36*
X112528716Y-92075313D02*
G01*
X112579194Y-92123622D01*
X112595627Y-92189482D01*
X112593959Y-92240405D01*
X113417263Y-93063709D01*
X113283398Y-93160967D01*
X113160967Y-93283398D01*
X113063709Y-93417262D01*
X112240405Y-92593959D01*
X112189482Y-92595627D01*
X112121835Y-92578147D01*
X112074376Y-92526869D01*
X112062174Y-92458073D01*
X112087812Y-92395221D01*
X112087814Y-92395219D01*
X112124481Y-92348416D01*
X112134395Y-92337226D01*
X112337226Y-92134395D01*
X112348416Y-92124481D01*
X112395222Y-92087811D01*
X112460133Y-92061964D01*
X112528716Y-92075313D01*
G37*
%TD.AperFunction*%
%TA.AperFunction,Conductor*%
G36*
X173604778Y-92087812D02*
G01*
X173651572Y-92124472D01*
X173662781Y-92134403D01*
X173865596Y-92337218D01*
X173875526Y-92348426D01*
X173912186Y-92395219D01*
X173938035Y-92460131D01*
X173924686Y-92528714D01*
X173876378Y-92579192D01*
X173810518Y-92595626D01*
X173759593Y-92593958D01*
X172936289Y-93417261D01*
X172839033Y-93283398D01*
X172716602Y-93160967D01*
X172582736Y-93063709D01*
X173406039Y-92240406D01*
X173404372Y-92189482D01*
X173421852Y-92121835D01*
X173473130Y-92074376D01*
X173541926Y-92062174D01*
X173604778Y-92087812D01*
G37*
%TD.AperFunction*%
%TD*%
M02*
