%TF.GenerationSoftware,KiCad,Pcbnew,8.0.3*%
%TF.CreationDate,2024-07-03T16:09:19+02:00*%
%TF.ProjectId,dev_board,6465765f-626f-4617-9264-2e6b69636164,rev?*%
%TF.SameCoordinates,Original*%
%TF.FileFunction,Copper,L1,Top*%
%TF.FilePolarity,Positive*%
%FSLAX46Y46*%
G04 Gerber Fmt 4.6, Leading zero omitted, Abs format (unit mm)*
G04 Created by KiCad (PCBNEW 8.0.3) date 2024-07-03 16:09:19*
%MOMM*%
%LPD*%
G01*
G04 APERTURE LIST*
G04 Aperture macros list*
%AMRoundRect*
0 Rectangle with rounded corners*
0 $1 Rounding radius*
0 $2 $3 $4 $5 $6 $7 $8 $9 X,Y pos of 4 corners*
0 Add a 4 corners polygon primitive as box body*
4,1,4,$2,$3,$4,$5,$6,$7,$8,$9,$2,$3,0*
0 Add four circle primitives for the rounded corners*
1,1,$1+$1,$2,$3*
1,1,$1+$1,$4,$5*
1,1,$1+$1,$6,$7*
1,1,$1+$1,$8,$9*
0 Add four rect primitives between the rounded corners*
20,1,$1+$1,$2,$3,$4,$5,0*
20,1,$1+$1,$4,$5,$6,$7,0*
20,1,$1+$1,$6,$7,$8,$9,0*
20,1,$1+$1,$8,$9,$2,$3,0*%
G04 Aperture macros list end*
%TA.AperFunction,SMDPad,CuDef*%
%ADD10RoundRect,0.140000X-0.219203X-0.021213X-0.021213X-0.219203X0.219203X0.021213X0.021213X0.219203X0*%
%TD*%
%TA.AperFunction,SMDPad,CuDef*%
%ADD11RoundRect,0.075000X-0.415425X-0.521491X0.521491X0.415425X0.415425X0.521491X-0.521491X-0.415425X0*%
%TD*%
%TA.AperFunction,SMDPad,CuDef*%
%ADD12RoundRect,0.075000X0.415425X-0.521491X0.521491X-0.415425X-0.415425X0.521491X-0.521491X0.415425X0*%
%TD*%
%TA.AperFunction,SMDPad,CuDef*%
%ADD13RoundRect,0.140000X0.021213X-0.219203X0.219203X-0.021213X-0.021213X0.219203X-0.219203X0.021213X0*%
%TD*%
%TA.AperFunction,ComponentPad*%
%ADD14O,1.800000X1.000000*%
%TD*%
%TA.AperFunction,ComponentPad*%
%ADD15O,2.100000X1.000000*%
%TD*%
%TA.AperFunction,SMDPad,CuDef*%
%ADD16R,1.240000X0.600000*%
%TD*%
%TA.AperFunction,SMDPad,CuDef*%
%ADD17R,1.240000X0.300000*%
%TD*%
%TA.AperFunction,ComponentPad*%
%ADD18C,3.500000*%
%TD*%
%TA.AperFunction,SMDPad,CuDef*%
%ADD19RoundRect,0.200000X0.200000X0.275000X-0.200000X0.275000X-0.200000X-0.275000X0.200000X-0.275000X0*%
%TD*%
%TA.AperFunction,SMDPad,CuDef*%
%ADD20R,0.750000X1.000000*%
%TD*%
%TA.AperFunction,SMDPad,CuDef*%
%ADD21RoundRect,0.140000X0.219203X0.021213X0.021213X0.219203X-0.219203X-0.021213X-0.021213X-0.219203X0*%
%TD*%
%TA.AperFunction,SMDPad,CuDef*%
%ADD22RoundRect,0.140000X-0.021213X0.219203X-0.219203X0.021213X0.021213X-0.219203X0.219203X-0.021213X0*%
%TD*%
%TA.AperFunction,SMDPad,CuDef*%
%ADD23R,1.200000X1.400000*%
%TD*%
%TA.AperFunction,SMDPad,CuDef*%
%ADD24RoundRect,0.140000X0.170000X-0.140000X0.170000X0.140000X-0.170000X0.140000X-0.170000X-0.140000X0*%
%TD*%
%TA.AperFunction,SMDPad,CuDef*%
%ADD25RoundRect,0.225000X0.225000X0.250000X-0.225000X0.250000X-0.225000X-0.250000X0.225000X-0.250000X0*%
%TD*%
%TA.AperFunction,SMDPad,CuDef*%
%ADD26RoundRect,0.140000X-0.170000X0.140000X-0.170000X-0.140000X0.170000X-0.140000X0.170000X0.140000X0*%
%TD*%
%TA.AperFunction,SMDPad,CuDef*%
%ADD27RoundRect,0.243750X0.243750X0.456250X-0.243750X0.456250X-0.243750X-0.456250X0.243750X-0.456250X0*%
%TD*%
%TA.AperFunction,SMDPad,CuDef*%
%ADD28RoundRect,0.250000X-0.475000X0.250000X-0.475000X-0.250000X0.475000X-0.250000X0.475000X0.250000X0*%
%TD*%
%TA.AperFunction,SMDPad,CuDef*%
%ADD29RoundRect,0.218750X-0.381250X0.218750X-0.381250X-0.218750X0.381250X-0.218750X0.381250X0.218750X0*%
%TD*%
%TA.AperFunction,ComponentPad*%
%ADD30O,1.700000X1.700000*%
%TD*%
%TA.AperFunction,ComponentPad*%
%ADD31R,1.700000X1.700000*%
%TD*%
%TA.AperFunction,SMDPad,CuDef*%
%ADD32RoundRect,0.200000X-0.200000X-0.275000X0.200000X-0.275000X0.200000X0.275000X-0.200000X0.275000X0*%
%TD*%
%TA.AperFunction,SMDPad,CuDef*%
%ADD33RoundRect,0.375000X0.375000X-0.625000X0.375000X0.625000X-0.375000X0.625000X-0.375000X-0.625000X0*%
%TD*%
%TA.AperFunction,SMDPad,CuDef*%
%ADD34RoundRect,0.500000X1.400000X-0.500000X1.400000X0.500000X-1.400000X0.500000X-1.400000X-0.500000X0*%
%TD*%
%TA.AperFunction,SMDPad,CuDef*%
%ADD35RoundRect,0.150000X0.150000X-0.512500X0.150000X0.512500X-0.150000X0.512500X-0.150000X-0.512500X0*%
%TD*%
%TA.AperFunction,SMDPad,CuDef*%
%ADD36RoundRect,0.250000X0.475000X-0.250000X0.475000X0.250000X-0.475000X0.250000X-0.475000X-0.250000X0*%
%TD*%
%TA.AperFunction,ViaPad*%
%ADD37C,0.700000*%
%TD*%
%TA.AperFunction,Conductor*%
%ADD38C,0.300000*%
%TD*%
%TA.AperFunction,Conductor*%
%ADD39C,0.500000*%
%TD*%
G04 APERTURE END LIST*
D10*
%TO.P,C4,1*%
%TO.N,+3.3V*%
X144160589Y-96410589D03*
%TO.P,C4,2*%
%TO.N,GND*%
X144839411Y-97089411D03*
%TD*%
D11*
%TO.P,U1,1,VBAT*%
%TO.N,+3.3V*%
X137612124Y-103998788D03*
%TO.P,U1,2,PC13*%
%TO.N,/C13*%
X137965678Y-104352342D03*
%TO.P,U1,3,PC14*%
%TO.N,/C14*%
X138319231Y-104705895D03*
%TO.P,U1,4,PC15*%
%TO.N,/C15*%
X138672785Y-105059449D03*
%TO.P,U1,5,PD0*%
%TO.N,/HSE_IN*%
X139026338Y-105413002D03*
%TO.P,U1,6,PD1*%
%TO.N,/HSE_OUT*%
X139379891Y-105766555D03*
%TO.P,U1,7,NRST*%
%TO.N,/NRST*%
X139733445Y-106120109D03*
%TO.P,U1,8,VSSA*%
%TO.N,GND*%
X140086998Y-106473662D03*
%TO.P,U1,9,VDDA*%
%TO.N,+3.3VA*%
X140440551Y-106827215D03*
%TO.P,U1,10,PA0*%
%TO.N,/A0*%
X140794105Y-107180769D03*
%TO.P,U1,11,PA1*%
%TO.N,/A1*%
X141147658Y-107534322D03*
%TO.P,U1,12,PA2*%
%TO.N,/A2*%
X141501212Y-107887876D03*
D12*
%TO.P,U1,13,PA3*%
%TO.N,/A3*%
X143498788Y-107887876D03*
%TO.P,U1,14,PA4*%
%TO.N,/A4*%
X143852342Y-107534322D03*
%TO.P,U1,15,PA5*%
%TO.N,/A5*%
X144205895Y-107180769D03*
%TO.P,U1,16,PA6*%
%TO.N,/A6*%
X144559449Y-106827215D03*
%TO.P,U1,17,PA7*%
%TO.N,/A7*%
X144913002Y-106473662D03*
%TO.P,U1,18,PB0*%
%TO.N,/B0*%
X145266555Y-106120109D03*
%TO.P,U1,19,PB1*%
%TO.N,/B1*%
X145620109Y-105766555D03*
%TO.P,U1,20,PB2*%
%TO.N,/B2*%
X145973662Y-105413002D03*
%TO.P,U1,21,PB10*%
%TO.N,/B10*%
X146327215Y-105059449D03*
%TO.P,U1,22,PB11*%
%TO.N,/B11*%
X146680769Y-104705895D03*
%TO.P,U1,23,VSS*%
%TO.N,GND*%
X147034322Y-104352342D03*
%TO.P,U1,24,VDD*%
%TO.N,+3.3V*%
X147387876Y-103998788D03*
D11*
%TO.P,U1,25,PB12*%
%TO.N,/B12*%
X147387876Y-102001212D03*
%TO.P,U1,26,PB13*%
%TO.N,/B13*%
X147034322Y-101647658D03*
%TO.P,U1,27,PB14*%
%TO.N,/B14*%
X146680769Y-101294105D03*
%TO.P,U1,28,PB15*%
%TO.N,/B15*%
X146327215Y-100940551D03*
%TO.P,U1,29,PA8*%
%TO.N,/A8*%
X145973662Y-100586998D03*
%TO.P,U1,30,PA9*%
%TO.N,/A9*%
X145620109Y-100233445D03*
%TO.P,U1,31,PA10*%
%TO.N,/A10*%
X145266555Y-99879891D03*
%TO.P,U1,32,PA11*%
%TO.N,/A11*%
X144913002Y-99526338D03*
%TO.P,U1,33,PA12*%
%TO.N,/A12*%
X144559449Y-99172785D03*
%TO.P,U1,34,PA13*%
%TO.N,/SWDIO*%
X144205895Y-98819231D03*
%TO.P,U1,35,VSS*%
%TO.N,GND*%
X143852342Y-98465678D03*
%TO.P,U1,36,VDD*%
%TO.N,+3.3V*%
X143498788Y-98112124D03*
D12*
%TO.P,U1,37,PA14*%
%TO.N,/SWCLK*%
X141501212Y-98112124D03*
%TO.P,U1,38,PA15*%
%TO.N,/A15*%
X141147658Y-98465678D03*
%TO.P,U1,39,PB3*%
%TO.N,/B3*%
X140794105Y-98819231D03*
%TO.P,U1,40,PB4*%
%TO.N,/B4*%
X140440551Y-99172785D03*
%TO.P,U1,41,PB5*%
%TO.N,/B5*%
X140086998Y-99526338D03*
%TO.P,U1,42,PB6*%
%TO.N,/B6*%
X139733445Y-99879891D03*
%TO.P,U1,43,PB7*%
%TO.N,/B7*%
X139379891Y-100233445D03*
%TO.P,U1,44,BOOT0*%
%TO.N,/BOOT0*%
X139026338Y-100586998D03*
%TO.P,U1,45,PB8*%
%TO.N,/B8*%
X138672785Y-100940551D03*
%TO.P,U1,46,PB9*%
%TO.N,/B9*%
X138319231Y-101294105D03*
%TO.P,U1,47,VSS*%
%TO.N,GND*%
X137965678Y-101647658D03*
%TO.P,U1,48,VDD*%
%TO.N,+3.3V*%
X137612124Y-102001212D03*
%TD*%
D13*
%TO.P,C5,1*%
%TO.N,+3.3VA*%
X138060589Y-108139411D03*
%TO.P,C5,2*%
%TO.N,GND*%
X138739411Y-107460589D03*
%TD*%
D14*
%TO.P,J1,S1,SHIELD*%
%TO.N,GND*%
X173075000Y-98680000D03*
D15*
X168875000Y-98680000D03*
D14*
X173075000Y-107320000D03*
D15*
X168875000Y-107320000D03*
D16*
%TO.P,J1,B12,GND*%
X168275000Y-106200000D03*
%TO.P,J1,B9,VBUS*%
%TO.N,VBUS*%
X168275000Y-105400000D03*
D17*
%TO.P,J1,B8,SBU2*%
%TO.N,unconnected-(J1-SBU2-PadB8)*%
X168275000Y-104750000D03*
%TO.P,J1,B7,D-*%
%TO.N,/DN*%
X168275000Y-103750000D03*
%TO.P,J1,B6,D+*%
%TO.N,/DP*%
X168275000Y-102250000D03*
%TO.P,J1,B5,CC2*%
%TO.N,/CC2*%
X168275000Y-101250000D03*
D16*
%TO.P,J1,B4,VBUS*%
%TO.N,VBUS*%
X168275000Y-100600000D03*
%TO.P,J1,B1,GND*%
%TO.N,GND*%
X168275000Y-99800000D03*
%TO.P,J1,A12,GND*%
X168275000Y-99800000D03*
%TO.P,J1,A9,VBUS*%
%TO.N,VBUS*%
X168275000Y-100600000D03*
D17*
%TO.P,J1,A8,SBU1*%
%TO.N,unconnected-(J1-SBU1-PadA8)*%
X168275000Y-101750000D03*
%TO.P,J1,A7,D-*%
%TO.N,/DN*%
X168275000Y-102750000D03*
%TO.P,J1,A6,D+*%
%TO.N,/DP*%
X168275000Y-103250000D03*
%TO.P,J1,A5,CC1*%
%TO.N,/CC1*%
X168275000Y-104250000D03*
D16*
%TO.P,J1,A4,VBUS*%
%TO.N,VBUS*%
X168275000Y-105400000D03*
%TO.P,J1,A1,GND*%
%TO.N,GND*%
X168275000Y-106200000D03*
%TD*%
D18*
%TO.P,H1,1,1*%
%TO.N,GND*%
X114000000Y-94000000D03*
%TD*%
D19*
%TO.P,R3,1*%
%TO.N,GND*%
X129325000Y-96250000D03*
%TO.P,R3,2*%
%TO.N,Net-(D1-K)*%
X127675000Y-96250000D03*
%TD*%
D18*
%TO.P,H4,1,1*%
%TO.N,GND*%
X172000000Y-94000000D03*
%TD*%
D20*
%TO.P,SW1,1,A*%
%TO.N,GND*%
X118125000Y-110250000D03*
X118125000Y-104250000D03*
%TO.P,SW1,2,B*%
%TO.N,/NRST*%
X121875000Y-110250000D03*
X121875000Y-104250000D03*
%TD*%
D18*
%TO.P,H2,1,1*%
%TO.N,GND*%
X114000000Y-112000000D03*
%TD*%
D21*
%TO.P,C2,1*%
%TO.N,+3.3V*%
X136089411Y-104339411D03*
%TO.P,C2,2*%
%TO.N,GND*%
X135410589Y-103660589D03*
%TD*%
D20*
%TO.P,SW2,1,A*%
%TO.N,+3.3V*%
X121875000Y-95750000D03*
X121875000Y-101750000D03*
%TO.P,SW2,2,B*%
%TO.N,/BOOT0*%
X118125000Y-95750000D03*
X118125000Y-101750000D03*
%TD*%
D22*
%TO.P,C3,1*%
%TO.N,+3.3V*%
X149178822Y-104571178D03*
%TO.P,C3,2*%
%TO.N,GND*%
X148500000Y-105250000D03*
%TD*%
D23*
%TO.P,Y1,1,1*%
%TO.N,/HSE_IN*%
X132435000Y-107400000D03*
%TO.P,Y1,2,2*%
%TO.N,GND*%
X132435000Y-109600000D03*
%TO.P,Y1,3,3*%
%TO.N,/HSE_OUT*%
X134135000Y-109600000D03*
%TO.P,Y1,4,4*%
%TO.N,GND*%
X134135000Y-107400000D03*
%TD*%
D24*
%TO.P,C9,1*%
%TO.N,/HSE_IN*%
X135585000Y-107880000D03*
%TO.P,C9,2*%
%TO.N,GND*%
X135585000Y-106920000D03*
%TD*%
D25*
%TO.P,C7,1*%
%TO.N,+3.3V*%
X125525000Y-104500000D03*
%TO.P,C7,2*%
%TO.N,GND*%
X123975000Y-104500000D03*
%TD*%
D26*
%TO.P,C10,1*%
%TO.N,/HSE_OUT*%
X135585000Y-109120000D03*
%TO.P,C10,2*%
%TO.N,GND*%
X135585000Y-110080000D03*
%TD*%
D24*
%TO.P,C11,1*%
%TO.N,/NRST*%
X124000000Y-109980000D03*
%TO.P,C11,2*%
%TO.N,GND*%
X124000000Y-109020000D03*
%TD*%
D25*
%TO.P,C8,1*%
%TO.N,+3.3VA*%
X125550000Y-106500000D03*
%TO.P,C8,2*%
%TO.N,GND*%
X124000000Y-106500000D03*
%TD*%
D27*
%TO.P,D1,1,K*%
%TO.N,Net-(D1-K)*%
X125937500Y-96250000D03*
%TO.P,D1,2,A*%
%TO.N,+3.3V*%
X124062500Y-96250000D03*
%TD*%
D28*
%TO.P,C12,1*%
%TO.N,VBUS*%
X164750000Y-107800000D03*
%TO.P,C12,2*%
%TO.N,GND*%
X164750000Y-109700000D03*
%TD*%
D19*
%TO.P,R2,1*%
%TO.N,/CC1*%
X165825000Y-105750000D03*
%TO.P,R2,2*%
%TO.N,GND*%
X164175000Y-105750000D03*
%TD*%
D29*
%TO.P,FB1,1*%
%TO.N,+3.3V*%
X127275000Y-104437500D03*
%TO.P,FB1,2*%
%TO.N,+3.3VA*%
X127275000Y-106562500D03*
%TD*%
D19*
%TO.P,R1,1*%
%TO.N,/CC2*%
X165825000Y-97750000D03*
%TO.P,R1,2*%
%TO.N,GND*%
X164175000Y-97750000D03*
%TD*%
D30*
%TO.P,J2,20,Pin_20*%
%TO.N,/B12*%
X167135000Y-92840000D03*
%TO.P,J2,19,Pin_19*%
%TO.N,/B13*%
X164595000Y-92840000D03*
%TO.P,J2,18,Pin_18*%
%TO.N,/B14*%
X162055000Y-92840000D03*
%TO.P,J2,17,Pin_17*%
%TO.N,/B15*%
X159515000Y-92840000D03*
%TO.P,J2,16,Pin_16*%
%TO.N,/A8*%
X156975000Y-92840000D03*
%TO.P,J2,15,Pin_15*%
%TO.N,/A9*%
X154435000Y-92840000D03*
%TO.P,J2,14,Pin_14*%
%TO.N,/A10*%
X151895000Y-92840000D03*
%TO.P,J2,13,Pin_13*%
%TO.N,/A11*%
X149355000Y-92840000D03*
%TO.P,J2,12,Pin_12*%
%TO.N,/A12*%
X146815000Y-92840000D03*
%TO.P,J2,11,Pin_11*%
%TO.N,/A15*%
X144275000Y-92840000D03*
%TO.P,J2,10,Pin_10*%
%TO.N,/B3*%
X141735000Y-92840000D03*
%TO.P,J2,9,Pin_9*%
%TO.N,/B4*%
X139195000Y-92840000D03*
%TO.P,J2,8,Pin_8*%
%TO.N,/B5*%
X136655000Y-92840000D03*
%TO.P,J2,7,Pin_7*%
%TO.N,/B6*%
X134115000Y-92840000D03*
%TO.P,J2,6,Pin_6*%
%TO.N,/B7*%
X131575000Y-92840000D03*
%TO.P,J2,5,Pin_5*%
%TO.N,/B8*%
X129035000Y-92840000D03*
%TO.P,J2,4,Pin_4*%
%TO.N,/B9*%
X126495000Y-92840000D03*
%TO.P,J2,3,Pin_3*%
%TO.N,VBUS*%
X123955000Y-92840000D03*
D31*
%TO.P,J2,2,Pin_2*%
%TO.N,GND*%
X121415000Y-92840000D03*
D30*
%TO.P,J2,1,Pin_1*%
%TO.N,+3.3V*%
X118875000Y-92840000D03*
%TD*%
D32*
%TO.P,R4,1*%
%TO.N,+3.3V*%
X127675000Y-98250000D03*
%TO.P,R4,2*%
%TO.N,/NRST*%
X129325000Y-98250000D03*
%TD*%
D22*
%TO.P,C1,1*%
%TO.N,+3.3V*%
X136339411Y-100910589D03*
%TO.P,C1,2*%
%TO.N,GND*%
X135660589Y-101589411D03*
%TD*%
D19*
%TO.P,R5,1*%
%TO.N,/C13*%
X129331250Y-100000000D03*
%TO.P,R5,2*%
%TO.N,Net-(D2-K)*%
X127681250Y-100000000D03*
%TD*%
%TO.P,R7,1*%
%TO.N,+3.3V*%
X156650000Y-100750000D03*
%TO.P,R7,2*%
%TO.N,/A12*%
X155000000Y-100750000D03*
%TD*%
D30*
%TO.P,J3,1,Pin_1*%
%TO.N,VBUS*%
X167135000Y-113160000D03*
D31*
%TO.P,J3,2,Pin_2*%
%TO.N,GND*%
X164595000Y-113160000D03*
D30*
%TO.P,J3,3,Pin_3*%
%TO.N,+3.3V*%
X162055000Y-113160000D03*
%TO.P,J3,4,Pin_4*%
%TO.N,/B11*%
X159515000Y-113160000D03*
%TO.P,J3,5,Pin_5*%
%TO.N,/B10*%
X156975000Y-113160000D03*
%TO.P,J3,6,Pin_6*%
%TO.N,/B2*%
X154435000Y-113160000D03*
%TO.P,J3,7,Pin_7*%
%TO.N,/B1*%
X151895000Y-113160000D03*
%TO.P,J3,8,Pin_8*%
%TO.N,/B0*%
X149355000Y-113160000D03*
%TO.P,J3,9,Pin_9*%
%TO.N,/A7*%
X146815000Y-113160000D03*
%TO.P,J3,10,Pin_10*%
%TO.N,/A6*%
X144275000Y-113160000D03*
%TO.P,J3,11,Pin_11*%
%TO.N,/A5*%
X141735000Y-113160000D03*
%TO.P,J3,12,Pin_12*%
%TO.N,/A4*%
X139195000Y-113160000D03*
%TO.P,J3,13,Pin_13*%
%TO.N,/A3*%
X136655000Y-113160000D03*
%TO.P,J3,14,Pin_14*%
%TO.N,/A2*%
X134115000Y-113160000D03*
%TO.P,J3,15,Pin_15*%
%TO.N,/A1*%
X131575000Y-113160000D03*
%TO.P,J3,16,Pin_16*%
%TO.N,/A0*%
X129035000Y-113160000D03*
%TO.P,J3,17,Pin_17*%
%TO.N,/C15*%
X126495000Y-113160000D03*
%TO.P,J3,18,Pin_18*%
%TO.N,/C14*%
X123955000Y-113160000D03*
%TO.P,J3,19,Pin_19*%
%TO.N,/C13*%
X121415000Y-113160000D03*
%TO.P,J3,20,Pin_20*%
%TO.N,/NRST*%
X118875000Y-113160000D03*
%TD*%
D18*
%TO.P,H3,1,1*%
%TO.N,GND*%
X172000000Y-112000000D03*
%TD*%
D33*
%TO.P,U2,1,GND*%
%TO.N,GND*%
X157200000Y-109150000D03*
%TO.P,U2,2,VO*%
%TO.N,+3.3V*%
X159500000Y-109150000D03*
D34*
X159500000Y-102850000D03*
D33*
%TO.P,U2,3,VI*%
%TO.N,VBUS*%
X161800000Y-109150000D03*
%TD*%
D32*
%TO.P,R6,1*%
%TO.N,GND*%
X127675000Y-101750000D03*
%TO.P,R6,2*%
%TO.N,/BOOT0*%
X129325000Y-101750000D03*
%TD*%
D35*
%TO.P,U3,1,I/O1*%
%TO.N,/DN*%
X164050000Y-102637500D03*
%TO.P,U3,2,GND*%
%TO.N,GND*%
X165000000Y-102637500D03*
%TO.P,U3,3,I/O2*%
%TO.N,/DP*%
X165950000Y-102637500D03*
%TO.P,U3,4,I/O2*%
%TO.N,/A12*%
X165950000Y-100362500D03*
%TO.P,U3,5,VBUS*%
%TO.N,VBUS*%
X165000000Y-100362500D03*
%TO.P,U3,6,I/O1*%
%TO.N,/A11*%
X164050000Y-100362500D03*
%TD*%
D36*
%TO.P,C6,1*%
%TO.N,+3.3V*%
X154500000Y-104700000D03*
%TO.P,C6,2*%
%TO.N,GND*%
X154500000Y-102800000D03*
%TD*%
D27*
%TO.P,D2,1,K*%
%TO.N,Net-(D2-K)*%
X125943750Y-100000000D03*
%TO.P,D2,2,A*%
%TO.N,+3.3V*%
X124068750Y-100000000D03*
%TD*%
D30*
%TO.P,J4,4,Pin_4*%
%TO.N,+3.3V*%
X114000000Y-99190000D03*
%TO.P,J4,3,Pin_3*%
%TO.N,/SWDIO*%
X114000000Y-101730000D03*
%TO.P,J4,2,Pin_2*%
%TO.N,/SWCLK*%
X114000000Y-104270000D03*
D31*
%TO.P,J4,1,Pin_1*%
%TO.N,GND*%
X114000000Y-106810000D03*
%TD*%
D28*
%TO.P,C13,1*%
%TO.N,+3.3V*%
X154500000Y-106800000D03*
%TO.P,C13,2*%
%TO.N,GND*%
X154500000Y-108700000D03*
%TD*%
D37*
%TO.N,GND*%
X138934262Y-102450000D03*
X135035589Y-100964411D03*
X164357475Y-96607475D03*
X130500000Y-96250000D03*
X136720000Y-110042500D03*
X134250000Y-103500000D03*
X125030000Y-108750000D03*
X153000000Y-102800000D03*
X136499391Y-106950000D03*
X126500000Y-101750000D03*
X165500000Y-103800000D03*
X131035000Y-110000000D03*
X145375000Y-96375000D03*
X155000000Y-110000000D03*
X141250000Y-105750000D03*
X154000000Y-110000000D03*
X162500000Y-106000000D03*
%TO.N,+3.3V*%
X142500000Y-97250000D03*
X134750000Y-104500000D03*
X150250000Y-104500000D03*
X132839411Y-97250000D03*
X132750000Y-104500000D03*
%TO.N,/NRST*%
X135750000Y-102750000D03*
X123750000Y-102750000D03*
%TO.N,+3.3VA*%
X128250000Y-108827297D03*
X137309099Y-108827297D03*
%TO.N,/CC2*%
X164784314Y-98784314D03*
X166750000Y-101250000D03*
%TO.N,/BOOT0*%
X139750000Y-101750000D03*
X125500000Y-101750000D03*
X120500000Y-101750000D03*
X132750000Y-101750000D03*
%TO.N,/SWCLK*%
X141841234Y-100250000D03*
%TO.N,/SWDIO*%
X142795619Y-99500000D03*
%TO.N,/A11*%
X145858578Y-98297918D03*
X153250000Y-98250000D03*
%TO.N,/DN*%
X169750000Y-104250000D03*
%TO.N,/DP*%
X169750000Y-101750000D03*
%TO.N,VBUS*%
X166250000Y-94750000D03*
%TD*%
D38*
%TO.N,GND*%
X147034322Y-104352342D02*
X146439914Y-103757934D01*
X146439914Y-103757934D02*
X143242066Y-103757934D01*
X143242066Y-103757934D02*
X141250000Y-105750000D01*
D39*
X121090000Y-92840000D02*
X120000000Y-91750000D01*
X121415000Y-92840000D02*
X121090000Y-92840000D01*
X121660000Y-92840000D02*
X122750000Y-91750000D01*
X164910000Y-113160000D02*
X166000000Y-114250000D01*
X164595000Y-113160000D02*
X164910000Y-113160000D01*
X164340000Y-113160000D02*
X163250000Y-114250000D01*
X164340000Y-113160000D02*
X164595000Y-113160000D01*
X129325000Y-96250000D02*
X130500000Y-96250000D01*
D38*
X145375000Y-96375000D02*
X144839411Y-96910589D01*
X144839411Y-96910589D02*
X144839411Y-97089411D01*
D39*
X162500000Y-106000000D02*
X162750000Y-105750000D01*
X162750000Y-105750000D02*
X164175000Y-105750000D01*
X164357475Y-96607475D02*
X164175000Y-96789950D01*
X164175000Y-96789950D02*
X164175000Y-97750000D01*
X153000000Y-102800000D02*
X154500000Y-102800000D01*
X135035589Y-100964411D02*
X135660589Y-101589411D01*
D38*
%TO.N,/C13*%
X136000000Y-105250000D02*
X130792892Y-105250000D01*
X128490788Y-109750000D02*
X126000000Y-109750000D01*
X130792892Y-105250000D02*
X129750000Y-106292892D01*
X129750000Y-106292892D02*
X129750000Y-108490788D01*
X129750000Y-108490788D02*
X128490788Y-109750000D01*
X126000000Y-109750000D02*
X123790000Y-111960000D01*
X122615000Y-111960000D02*
X121415000Y-113160000D01*
X123790000Y-111960000D02*
X122615000Y-111960000D01*
%TO.N,/C14*%
X138319231Y-104705895D02*
X137275126Y-105750000D01*
X126365000Y-110750000D02*
X123955000Y-113160000D01*
X137275126Y-105750000D02*
X130999999Y-105750000D01*
X130250000Y-106499999D02*
X130250000Y-108697894D01*
X130999999Y-105750000D02*
X130250000Y-106499999D01*
X130250000Y-108697894D02*
X128197894Y-110750000D01*
X128197894Y-110750000D02*
X126365000Y-110750000D01*
D39*
%TO.N,+3.3VA*%
X126887983Y-108827297D02*
X125550000Y-107489314D01*
X125550000Y-107489314D02*
X125550000Y-106500000D01*
X128250000Y-108827297D02*
X126887983Y-108827297D01*
D38*
%TO.N,/C15*%
X138672785Y-105059449D02*
X137482234Y-106250000D01*
X131207106Y-106250000D02*
X130750000Y-106707106D01*
X137482234Y-106250000D02*
X131207106Y-106250000D01*
X130750000Y-106707106D02*
X130750000Y-108905000D01*
X130750000Y-108905000D02*
X126495000Y-113160000D01*
%TO.N,/NRST*%
X121875000Y-110250000D02*
X121785000Y-110250000D01*
X121785000Y-110250000D02*
X118875000Y-113160000D01*
D39*
%TO.N,GND*%
X124760000Y-109020000D02*
X125030000Y-108750000D01*
X168875000Y-99200000D02*
X168275000Y-99800000D01*
X134615000Y-106920000D02*
X135585000Y-106920000D01*
D38*
X138934262Y-102450000D02*
X138768020Y-102450000D01*
X148500000Y-105250000D02*
X147931980Y-105250000D01*
D39*
X165000000Y-103300000D02*
X165500000Y-103800000D01*
D38*
X144500000Y-97428822D02*
X144839411Y-97089411D01*
D39*
X123975000Y-106475000D02*
X124000000Y-106500000D01*
D38*
X143852342Y-98465678D02*
X144500000Y-97818020D01*
D39*
X168875000Y-98680000D02*
X168875000Y-99200000D01*
X168875000Y-107320000D02*
X168875000Y-106800000D01*
X124000000Y-109020000D02*
X124760000Y-109020000D01*
D38*
X144500000Y-97818020D02*
X144500000Y-97428822D01*
X138768020Y-102450000D02*
X137965678Y-101647658D01*
D39*
X136682500Y-110080000D02*
X135585000Y-110080000D01*
X123975000Y-104500000D02*
X123975000Y-106475000D01*
X132435000Y-109600000D02*
X131435000Y-109600000D01*
D38*
X140086998Y-106473662D02*
X140810660Y-105750000D01*
X139100071Y-107460589D02*
X140086998Y-106473662D01*
D39*
X121415000Y-92840000D02*
X121840000Y-92840000D01*
D38*
X140810660Y-105750000D02*
X141250000Y-105750000D01*
D39*
X136720000Y-110042500D02*
X136682500Y-110080000D01*
X124000000Y-109020000D02*
X124000000Y-106500000D01*
X131435000Y-109600000D02*
X131035000Y-110000000D01*
X127675000Y-101750000D02*
X126500000Y-101750000D01*
D38*
X147931980Y-105250000D02*
X147034322Y-104352342D01*
D39*
X135585000Y-106920000D02*
X136469391Y-106920000D01*
X134135000Y-107400000D02*
X134615000Y-106920000D01*
X165000000Y-102637500D02*
X165000000Y-103300000D01*
D38*
X138739411Y-107460589D02*
X139100071Y-107460589D01*
D39*
X168875000Y-106800000D02*
X168275000Y-106200000D01*
X136469391Y-106920000D02*
X136499391Y-106950000D01*
%TO.N,+3.3V*%
X125525000Y-104500000D02*
X127212500Y-104500000D01*
X154300000Y-104500000D02*
X154500000Y-104700000D01*
X150250000Y-104500000D02*
X154300000Y-104500000D01*
X124750000Y-98250000D02*
X124068750Y-98931250D01*
D38*
X144000000Y-96571178D02*
X144000000Y-97610912D01*
X136339411Y-100910589D02*
X136521501Y-100910589D01*
D39*
X124068750Y-98931250D02*
X124068750Y-100000000D01*
D38*
X149178822Y-104571178D02*
X149145697Y-104538053D01*
X136521501Y-100910589D02*
X137612124Y-102001212D01*
D39*
X125525000Y-103275000D02*
X125525000Y-104500000D01*
D38*
X150178822Y-104571178D02*
X150250000Y-104500000D01*
D39*
X127212500Y-104500000D02*
X127275000Y-104437500D01*
D38*
X136339411Y-100750000D02*
X136339411Y-100910589D01*
D39*
X162055000Y-113160000D02*
X162055000Y-112305000D01*
X124062500Y-96250000D02*
X122375000Y-96250000D01*
D38*
X142500000Y-97250000D02*
X142500000Y-96750000D01*
X144000000Y-97610912D02*
X143498788Y-98112124D01*
D39*
X124068750Y-101500000D02*
X124068750Y-101818750D01*
D38*
X127675000Y-97575000D02*
X127675000Y-98250000D01*
X132839411Y-97250000D02*
X128000000Y-97250000D01*
D39*
X124750000Y-102500000D02*
X125525000Y-103275000D01*
X124068750Y-96256250D02*
X124062500Y-96250000D01*
X159500000Y-109750000D02*
X159500000Y-109150000D01*
D38*
X149178822Y-104571178D02*
X150178822Y-104571178D01*
X147927141Y-104538053D02*
X147387876Y-103998788D01*
D39*
X132750000Y-104500000D02*
X127337500Y-104500000D01*
D38*
X144160589Y-96410589D02*
X144000000Y-96571178D01*
D39*
X162055000Y-112305000D02*
X159500000Y-109750000D01*
X124068750Y-101818750D02*
X124750000Y-102500000D01*
X127675000Y-98250000D02*
X124750000Y-98250000D01*
D38*
X142839411Y-96410589D02*
X144160589Y-96410589D01*
X135928822Y-104500000D02*
X136089411Y-104339411D01*
D39*
X122375000Y-96250000D02*
X121875000Y-95750000D01*
X124187500Y-100118750D02*
X124068750Y-100000000D01*
X124068750Y-100000000D02*
X124068750Y-96256250D01*
X127337500Y-104500000D02*
X127275000Y-104437500D01*
D38*
X134750000Y-104500000D02*
X135928822Y-104500000D01*
X132839411Y-97250000D02*
X136339411Y-100750000D01*
X136089411Y-104339411D02*
X136500000Y-104750000D01*
X128000000Y-97250000D02*
X127675000Y-97575000D01*
X136860912Y-104750000D02*
X137612124Y-103998788D01*
X149145697Y-104538053D02*
X147927141Y-104538053D01*
X136500000Y-104750000D02*
X136860912Y-104750000D01*
X142500000Y-96750000D02*
X142839411Y-96410589D01*
D39*
X124068750Y-100000000D02*
X124068750Y-101500000D01*
D38*
%TO.N,/NRST*%
X123000000Y-102750000D02*
X121875000Y-103875000D01*
X123750000Y-102750000D02*
X123000000Y-102750000D01*
X122145000Y-109980000D02*
X124000000Y-109980000D01*
X135949173Y-102949173D02*
X138443485Y-102949173D01*
X138443485Y-102949173D02*
X140327852Y-104833540D01*
X121875000Y-103875000D02*
X121875000Y-104250000D01*
X121875000Y-110250000D02*
X122145000Y-109980000D01*
X140327852Y-105525702D02*
X139733445Y-106120109D01*
X135750000Y-102750000D02*
X131250000Y-98250000D01*
X121875000Y-104250000D02*
X121875000Y-110250000D01*
X131250000Y-98250000D02*
X129325000Y-98250000D01*
X140327852Y-104833540D02*
X140327852Y-105525702D01*
X135750000Y-102750000D02*
X135949173Y-102949173D01*
%TO.N,Net-(D1-K)*%
X125937500Y-96250000D02*
X127675000Y-96250000D01*
%TO.N,Net-(D2-K)*%
X125943750Y-100000000D02*
X127681250Y-100000000D01*
%TO.N,+3.3VA*%
X139095230Y-108172536D02*
X138093714Y-108172536D01*
D39*
X125612500Y-106562500D02*
X125550000Y-106500000D01*
X127275000Y-106562500D02*
X125612500Y-106562500D01*
D38*
X138093714Y-108172536D02*
X138060589Y-108139411D01*
X137372703Y-108827297D02*
X138060589Y-108139411D01*
X140440551Y-106827215D02*
X139095230Y-108172536D01*
X137309099Y-108827297D02*
X137372703Y-108827297D01*
%TO.N,/CC2*%
X164784314Y-98784314D02*
X164784314Y-98465686D01*
X164784314Y-98465686D02*
X165500000Y-97750000D01*
X166750000Y-101250000D02*
X168275000Y-101250000D01*
X165500000Y-97750000D02*
X165825000Y-97750000D01*
D39*
%TO.N,VBUS*%
X167000000Y-97750000D02*
X167020000Y-97730000D01*
X171000000Y-107088503D02*
X169818503Y-108270000D01*
X167000000Y-99000000D02*
X167000000Y-100250000D01*
X165000000Y-100362500D02*
X165000000Y-99700001D01*
X167931497Y-108270000D02*
X167000000Y-107338503D01*
X167000000Y-107338503D02*
X167000000Y-105750000D01*
X167135000Y-110185000D02*
X164750000Y-107800000D01*
X167350000Y-100600000D02*
X168275000Y-100600000D01*
X167020000Y-97730000D02*
X169818503Y-97730000D01*
X169818503Y-97730000D02*
X171000000Y-98911497D01*
X165000000Y-99700001D02*
X165700001Y-99000000D01*
X167000000Y-97750000D02*
X167000000Y-99000000D01*
X171000000Y-98911497D02*
X171000000Y-107088503D01*
X166538503Y-107800000D02*
X164750000Y-107800000D01*
X167135000Y-113160000D02*
X167135000Y-110185000D01*
X165700001Y-99000000D02*
X167000000Y-99000000D01*
X162350000Y-109150000D02*
X163700000Y-107800000D01*
X161800000Y-109150000D02*
X162350000Y-109150000D01*
X169818503Y-108270000D02*
X167931497Y-108270000D01*
X167000000Y-107338503D02*
X166538503Y-107800000D01*
X167000000Y-105750000D02*
X167350000Y-105400000D01*
X167000000Y-100250000D02*
X167350000Y-100600000D01*
X167350000Y-105400000D02*
X168275000Y-105400000D01*
X163700000Y-107800000D02*
X164750000Y-107800000D01*
D38*
%TO.N,/CC1*%
X167325000Y-104250000D02*
X165825000Y-105750000D01*
X168275000Y-104250000D02*
X167325000Y-104250000D01*
%TO.N,/B1*%
X149000000Y-109146448D02*
X149000000Y-110265000D01*
X145620109Y-105766557D02*
X149000000Y-109146448D01*
X145620109Y-105766555D02*
X145620109Y-105766557D01*
X149000000Y-110265000D02*
X151895000Y-113160000D01*
%TO.N,/B2*%
X145973662Y-105413002D02*
X145973662Y-105413004D01*
X153720658Y-113160000D02*
X154435000Y-113160000D01*
X145973662Y-105413004D02*
X153720658Y-113160000D01*
%TO.N,/B0*%
X148000000Y-111805000D02*
X149355000Y-113160000D01*
X148000000Y-108853554D02*
X148000000Y-111805000D01*
X145266555Y-106120109D02*
X148000000Y-108853554D01*
%TO.N,/B13*%
X151931980Y-96750000D02*
X160685000Y-96750000D01*
X147034322Y-101647658D02*
X151931980Y-96750000D01*
X160685000Y-96750000D02*
X164595000Y-92840000D01*
%TO.N,/B7*%
X139379891Y-100233445D02*
X131986446Y-92840000D01*
X131986446Y-92840000D02*
X131575000Y-92840000D01*
%TO.N,/B12*%
X152139088Y-97250000D02*
X162725000Y-97250000D01*
X147387876Y-102001212D02*
X152139088Y-97250000D01*
%TO.N,/B3*%
X140794105Y-98819231D02*
X140000000Y-98025126D01*
X140000000Y-98025126D02*
X140000000Y-94575000D01*
X140000000Y-94575000D02*
X141735000Y-92840000D01*
%TO.N,/B5*%
X136655000Y-96094340D02*
X136655000Y-92840000D01*
X140086998Y-99526338D02*
X136655000Y-96094340D01*
%TO.N,/B4*%
X139195000Y-97927234D02*
X139195000Y-92840000D01*
X140440551Y-99172785D02*
X139195000Y-97927234D01*
%TO.N,/B15*%
X146327215Y-100940551D02*
X151517766Y-95750000D01*
X156605000Y-95750000D02*
X159515000Y-92840000D01*
X151517766Y-95750000D02*
X156605000Y-95750000D01*
%TO.N,/B14*%
X151724874Y-96250000D02*
X158645000Y-96250000D01*
X158645000Y-96250000D02*
X162055000Y-92840000D01*
X146680769Y-101294105D02*
X151724874Y-96250000D01*
%TO.N,/BOOT0*%
X129175000Y-102575000D02*
X129325000Y-102425000D01*
X118125000Y-98250000D02*
X118125000Y-95750000D01*
X120500000Y-101750000D02*
X118125000Y-101750000D01*
X126325000Y-102575000D02*
X129175000Y-102575000D01*
X139750000Y-101310660D02*
X139750000Y-101750000D01*
X129325000Y-102425000D02*
X129325000Y-101750000D01*
X118125000Y-101750000D02*
X118125000Y-98250000D01*
X139026338Y-100586998D02*
X139750000Y-101310660D01*
X132750000Y-101750000D02*
X129325000Y-101750000D01*
X125500000Y-101750000D02*
X126325000Y-102575000D01*
%TO.N,/B6*%
X135250000Y-95396446D02*
X135250000Y-93975000D01*
X135250000Y-93975000D02*
X134115000Y-92840000D01*
X139733445Y-99879891D02*
X135250000Y-95396446D01*
%TO.N,/B10*%
X153017766Y-111750000D02*
X155565000Y-111750000D01*
X146327215Y-105059449D02*
X153017766Y-111750000D01*
X155565000Y-111750000D02*
X156975000Y-113160000D01*
%TO.N,/B11*%
X157355000Y-111000000D02*
X159515000Y-113160000D01*
X152974874Y-111000000D02*
X157355000Y-111000000D01*
X146680769Y-104705895D02*
X152974874Y-111000000D01*
%TO.N,/A1*%
X141147658Y-107534322D02*
X140553252Y-108128730D01*
X140553252Y-108128730D02*
X137431982Y-111250000D01*
X133492500Y-111242500D02*
X131575000Y-113160000D01*
X137431982Y-111250000D02*
X133500000Y-111250000D01*
X133500000Y-111250000D02*
X133492500Y-111242500D01*
%TO.N,/C14*%
X124297107Y-113160000D02*
X123955000Y-113160000D01*
%TO.N,/HSE_OUT*%
X134615000Y-109120000D02*
X134135000Y-109600000D01*
X139379891Y-105766555D02*
X136026446Y-109120000D01*
X136026446Y-109120000D02*
X135585000Y-109120000D01*
X135585000Y-109120000D02*
X134615000Y-109120000D01*
%TO.N,/A0*%
X131492500Y-110742500D02*
X131472500Y-110722500D01*
X140794105Y-107180769D02*
X137232374Y-110742500D01*
X131472500Y-110722500D02*
X129035000Y-113160000D01*
X137232374Y-110742500D02*
X131492500Y-110742500D01*
%TO.N,/A15*%
X141147658Y-98465678D02*
X140500000Y-97818020D01*
X140500000Y-97818020D02*
X140500000Y-96615000D01*
X140500000Y-96615000D02*
X144275000Y-92840000D01*
%TO.N,/A6*%
X146000000Y-111435000D02*
X144275000Y-113160000D01*
X144559449Y-106827215D02*
X146000000Y-108267766D01*
X146000000Y-108267766D02*
X146000000Y-111435000D01*
%TO.N,/A2*%
X135525000Y-111750000D02*
X134115000Y-113160000D01*
X137639088Y-111750000D02*
X135525000Y-111750000D01*
X141501212Y-107887876D02*
X137639088Y-111750000D01*
%TO.N,/A4*%
X144446749Y-108477873D02*
X139764622Y-113160000D01*
X143852342Y-107534322D02*
X144446749Y-108128729D01*
X139764622Y-113160000D02*
X139195000Y-113160000D01*
X144446749Y-108128729D02*
X144446749Y-108477873D01*
%TO.N,/A7*%
X144913002Y-106473662D02*
X146982234Y-108542894D01*
X146982234Y-112992766D02*
X146815000Y-113160000D01*
X146982234Y-108542894D02*
X146982234Y-112992766D01*
%TO.N,/A3*%
X139636664Y-111750000D02*
X138346196Y-111750000D01*
X136936196Y-113160000D02*
X136655000Y-113160000D01*
X138346196Y-111750000D02*
X136936196Y-113160000D01*
X143498788Y-107887876D02*
X139636664Y-111750000D01*
%TO.N,/C13*%
X129431250Y-99900000D02*
X132092894Y-99900000D01*
X132092894Y-99900000D02*
X133500000Y-101307106D01*
X137068020Y-105250000D02*
X136000000Y-105250000D01*
X137965678Y-104352342D02*
X137068020Y-105250000D01*
X129331250Y-100000000D02*
X129431250Y-99900000D01*
X133500000Y-104239950D02*
X134510050Y-105250000D01*
X133500000Y-101307106D02*
X133500000Y-104239950D01*
X134510050Y-105250000D02*
X136000000Y-105250000D01*
%TO.N,/A5*%
X145250000Y-108224874D02*
X145250000Y-109645000D01*
X144205895Y-107180769D02*
X145250000Y-108224874D01*
X145250000Y-109645000D02*
X141735000Y-113160000D01*
%TO.N,/A10*%
X145266555Y-99879891D02*
X151895000Y-93251446D01*
X151895000Y-93251446D02*
X151895000Y-92840000D01*
%TO.N,/A9*%
X152525000Y-94750000D02*
X154435000Y-92840000D01*
X151103554Y-94750000D02*
X152525000Y-94750000D01*
X145620109Y-100233445D02*
X151103554Y-94750000D01*
%TO.N,/A8*%
X154565000Y-95250000D02*
X156975000Y-92840000D01*
X145973662Y-100586998D02*
X151310660Y-95250000D01*
X151310660Y-95250000D02*
X154565000Y-95250000D01*
%TO.N,/HSE_IN*%
X139026338Y-105413002D02*
X136559340Y-107880000D01*
X136559340Y-107880000D02*
X135585000Y-107880000D01*
X135585000Y-107880000D02*
X135015000Y-108450000D01*
X133385000Y-108450000D02*
X132435000Y-107500000D01*
X135015000Y-108450000D02*
X133385000Y-108450000D01*
X132435000Y-107500000D02*
X132435000Y-107400000D01*
%TO.N,/SWCLK*%
X142095619Y-98706531D02*
X141501212Y-98112124D01*
X142095619Y-99995615D02*
X142095619Y-98706531D01*
X141841234Y-100250000D02*
X142095619Y-99995615D01*
%TO.N,/SWDIO*%
X143525126Y-99500000D02*
X144205895Y-98819231D01*
X142795619Y-99500000D02*
X143525126Y-99500000D01*
%TO.N,/A12*%
X146815000Y-96185000D02*
X145153856Y-97846144D01*
X155000000Y-100750000D02*
X156000000Y-99750000D01*
X145153856Y-98578378D02*
X144559449Y-99172785D01*
X146815000Y-92840000D02*
X146815000Y-96185000D01*
X162063738Y-99750000D02*
X163688738Y-101375000D01*
X146500000Y-103000000D02*
X148500000Y-103000000D01*
X148500000Y-103000000D02*
X150750000Y-100750000D01*
X144559449Y-99172785D02*
X143965041Y-99767193D01*
X143965041Y-100465041D02*
X146500000Y-103000000D01*
X156000000Y-99750000D02*
X162063738Y-99750000D01*
X143965041Y-99767193D02*
X143965041Y-100465041D01*
X165599999Y-101375000D02*
X165950000Y-101024999D01*
X145153856Y-97846144D02*
X145153856Y-98578378D01*
X163688738Y-101375000D02*
X165599999Y-101375000D01*
X165950000Y-101024999D02*
X165950000Y-100362500D01*
X150750000Y-100750000D02*
X155000000Y-100750000D01*
%TO.N,/A11*%
X145858578Y-97848529D02*
X149355000Y-94352107D01*
X145858578Y-98297918D02*
X145858578Y-97848529D01*
X145858578Y-98297918D02*
X145858578Y-98580762D01*
X145858578Y-98580762D02*
X144913002Y-99526338D01*
X149355000Y-94352107D02*
X149355000Y-92840000D01*
%TO.N,/DN*%
X169250000Y-103750000D02*
X169750000Y-104250000D01*
X165105025Y-104500000D02*
X164050000Y-103444975D01*
X164050000Y-103444975D02*
X164050000Y-102637500D01*
X167250000Y-103000000D02*
X167250000Y-103500000D01*
X165875000Y-104500000D02*
X165105025Y-104500000D01*
X167250000Y-103500000D02*
X167500000Y-103750000D01*
X166625000Y-103750000D02*
X165875000Y-104500000D01*
X168275000Y-102750000D02*
X167500000Y-102750000D01*
X168275000Y-103750000D02*
X169250000Y-103750000D01*
X167500000Y-103750000D02*
X168275000Y-103750000D01*
X168275000Y-103750000D02*
X166625000Y-103750000D01*
X167500000Y-102750000D02*
X167250000Y-103000000D01*
%TO.N,/DP*%
X169245000Y-102250000D02*
X169745000Y-101750000D01*
X169500000Y-103000000D02*
X169250000Y-103250000D01*
X168275000Y-102250000D02*
X166337500Y-102250000D01*
X166337500Y-102250000D02*
X165950000Y-102637500D01*
X169745000Y-101750000D02*
X169750000Y-101750000D01*
X169250000Y-103250000D02*
X168275000Y-103250000D01*
X169245000Y-102250000D02*
X169495000Y-102500000D01*
X168275000Y-102250000D02*
X169245000Y-102250000D01*
X169500000Y-102500000D02*
X169500000Y-103000000D01*
X169495000Y-102500000D02*
X169500000Y-102500000D01*
D39*
%TO.N,GND*%
X134250000Y-103500000D02*
X135250000Y-103500000D01*
X135250000Y-103500000D02*
X135410589Y-103660589D01*
D38*
%TO.N,/A11*%
X153250000Y-98250000D02*
X162750000Y-98250000D01*
X162750000Y-98250000D02*
X164050000Y-99550000D01*
X164050000Y-99550000D02*
X164050000Y-100362500D01*
%TO.N,/B8*%
X138672785Y-100940551D02*
X132232234Y-94500000D01*
X132232234Y-94500000D02*
X130695000Y-94500000D01*
X130695000Y-94500000D02*
X129035000Y-92840000D01*
%TO.N,/B9*%
X138319231Y-101294105D02*
X132025126Y-95000000D01*
X132025126Y-95000000D02*
X128655000Y-95000000D01*
D39*
%TO.N,+3.3V*%
X118965000Y-92840000D02*
X121875000Y-95750000D01*
X114000000Y-98000000D02*
X118875000Y-93125000D01*
X118875000Y-92840000D02*
X118965000Y-92840000D01*
X118875000Y-93125000D02*
X118875000Y-92840000D01*
X114000000Y-99190000D02*
X114000000Y-98000000D01*
D38*
%TO.N,/B9*%
X128655000Y-95000000D02*
X126495000Y-92840000D01*
D39*
%TO.N,VBUS*%
X167000000Y-95500000D02*
X167000000Y-97750000D01*
D38*
%TO.N,/B12*%
X162725000Y-97250000D02*
X167135000Y-92840000D01*
D39*
%TO.N,VBUS*%
X166250000Y-94750000D02*
X167000000Y-95500000D01*
%TD*%
%TA.AperFunction,Conductor*%
%TO.N,+3.3V*%
G36*
X161912120Y-100174502D02*
G01*
X161933094Y-100191405D01*
X162963095Y-101221406D01*
X162997121Y-101283718D01*
X163000000Y-101310501D01*
X163000000Y-104187590D01*
X162997579Y-104212172D01*
X162982053Y-104290224D01*
X162963240Y-104335643D01*
X162926057Y-104391292D01*
X162891292Y-104426057D01*
X162835643Y-104463240D01*
X162790224Y-104482053D01*
X162731856Y-104493663D01*
X162712170Y-104497579D01*
X162687590Y-104500000D01*
X160500000Y-104500000D01*
X160500000Y-104799994D01*
X160500000Y-110437590D01*
X160497579Y-110462172D01*
X160482053Y-110540224D01*
X160463240Y-110585643D01*
X160426057Y-110641292D01*
X160391292Y-110676057D01*
X160335643Y-110713240D01*
X160290224Y-110732053D01*
X160231856Y-110743663D01*
X160212170Y-110747579D01*
X160187590Y-110750000D01*
X158812410Y-110750000D01*
X158787829Y-110747579D01*
X158757954Y-110741636D01*
X158709775Y-110732053D01*
X158664356Y-110713240D01*
X158608704Y-110676054D01*
X158573945Y-110641295D01*
X158536758Y-110585640D01*
X158517946Y-110540222D01*
X158511921Y-110509930D01*
X158509500Y-110485350D01*
X158509500Y-107750001D01*
X158509499Y-107749994D01*
X158504696Y-107725848D01*
X158489747Y-107650694D01*
X158433494Y-107566506D01*
X158391400Y-107538379D01*
X158349307Y-107510253D01*
X158250005Y-107490500D01*
X158250000Y-107490500D01*
X153385500Y-107490500D01*
X153317379Y-107470498D01*
X153270886Y-107416842D01*
X153259500Y-107364500D01*
X153259500Y-105004501D01*
X153259499Y-105004497D01*
X153252421Y-104968911D01*
X153250000Y-104944329D01*
X153250000Y-104062409D01*
X153252421Y-104037828D01*
X153267947Y-103959773D01*
X153286757Y-103914360D01*
X153323947Y-103858701D01*
X153358701Y-103823947D01*
X153414360Y-103786757D01*
X153459775Y-103767946D01*
X153506043Y-103758743D01*
X153537830Y-103752421D01*
X153562410Y-103750000D01*
X155699999Y-103750000D01*
X155700000Y-103750000D01*
X156000000Y-103750000D01*
X156000000Y-100374240D01*
X156020002Y-100306119D01*
X156036901Y-100285147D01*
X156130646Y-100191404D01*
X156192958Y-100157379D01*
X156219741Y-100154500D01*
X161843999Y-100154500D01*
X161912120Y-100174502D01*
G37*
%TD.AperFunction*%
%TD*%
%TA.AperFunction,Conductor*%
%TO.N,+3.3V*%
G36*
X124462171Y-95002421D02*
G01*
X124540224Y-95017946D01*
X124585640Y-95036758D01*
X124641295Y-95073945D01*
X124676054Y-95108704D01*
X124713240Y-95164356D01*
X124732053Y-95209775D01*
X124747579Y-95287827D01*
X124750000Y-95312409D01*
X124750000Y-102187590D01*
X124747579Y-102212172D01*
X124732053Y-102290224D01*
X124713240Y-102335643D01*
X124676057Y-102391292D01*
X124641292Y-102426057D01*
X124585643Y-102463240D01*
X124540224Y-102482053D01*
X124481856Y-102493663D01*
X124462170Y-102497579D01*
X124437590Y-102500000D01*
X124382260Y-102500000D01*
X124314139Y-102479998D01*
X124282298Y-102450704D01*
X124181134Y-102318865D01*
X124054857Y-102221968D01*
X123907806Y-102161060D01*
X123750000Y-102140284D01*
X123592193Y-102161060D01*
X123445145Y-102221967D01*
X123373970Y-102276582D01*
X123318866Y-102318866D01*
X123318864Y-102318867D01*
X123318090Y-102319462D01*
X123251869Y-102345063D01*
X123241385Y-102345500D01*
X123053253Y-102345500D01*
X122946747Y-102345500D01*
X122891617Y-102360271D01*
X122843871Y-102373065D01*
X122843864Y-102373068D01*
X122751634Y-102426317D01*
X122751625Y-102426324D01*
X122714857Y-102463094D01*
X122652546Y-102497120D01*
X122625761Y-102500000D01*
X121562410Y-102500000D01*
X121537829Y-102497579D01*
X121507954Y-102491636D01*
X121459775Y-102482053D01*
X121414356Y-102463240D01*
X121358704Y-102426054D01*
X121323945Y-102391295D01*
X121286758Y-102335640D01*
X121267946Y-102290224D01*
X121252421Y-102212171D01*
X121250000Y-102187590D01*
X121250000Y-95312409D01*
X121252421Y-95287828D01*
X121252421Y-95287827D01*
X121267947Y-95209773D01*
X121286757Y-95164360D01*
X121323947Y-95108701D01*
X121358701Y-95073947D01*
X121414360Y-95036757D01*
X121459775Y-95017946D01*
X121506043Y-95008743D01*
X121537830Y-95002421D01*
X121562410Y-95000000D01*
X124437590Y-95000000D01*
X124462171Y-95002421D01*
G37*
%TD.AperFunction*%
%TD*%
%TA.AperFunction,Conductor*%
%TO.N,GND*%
G36*
X148943035Y-105091286D02*
G01*
X148943038Y-105091288D01*
X149018704Y-105146264D01*
X149018706Y-105146264D01*
X149018710Y-105146267D01*
X149137552Y-105184880D01*
X149262517Y-105184880D01*
X149262518Y-105184880D01*
X149381366Y-105146264D01*
X149457037Y-105091287D01*
X149535740Y-105012582D01*
X149558784Y-105000000D01*
X149908410Y-105000000D01*
X149910839Y-105001708D01*
X149945142Y-105028030D01*
X149945145Y-105028032D01*
X150018323Y-105058342D01*
X150092194Y-105088940D01*
X150250000Y-105109716D01*
X150407806Y-105088940D01*
X150554858Y-105028030D01*
X150554864Y-105028025D01*
X150562010Y-105023901D01*
X150563241Y-105026033D01*
X150617808Y-105004937D01*
X150628294Y-105004500D01*
X153000000Y-105004500D01*
X153000000Y-107750000D01*
X158250000Y-107750000D01*
X158250000Y-110750000D01*
X157677049Y-110750000D01*
X157603369Y-110676320D01*
X157603367Y-110676319D01*
X157603365Y-110676317D01*
X157511135Y-110623068D01*
X157511132Y-110623067D01*
X157511131Y-110623066D01*
X157511129Y-110623065D01*
X157511128Y-110623065D01*
X157483561Y-110615678D01*
X157408253Y-110595500D01*
X157408251Y-110595500D01*
X153194613Y-110595500D01*
X153126492Y-110575498D01*
X153105518Y-110558595D01*
X148023461Y-105476538D01*
X148500000Y-105000000D01*
X148851748Y-105000000D01*
X148943035Y-105091286D01*
G37*
%TD.AperFunction*%
%TD*%
%TA.AperFunction,Conductor*%
%TO.N,GND*%
G36*
X120352608Y-91320502D02*
G01*
X120399101Y-91374158D01*
X120409205Y-91444432D01*
X120379711Y-91509012D01*
X120328519Y-91544556D01*
X120322910Y-91546647D01*
X120207810Y-91632810D01*
X120121647Y-91747910D01*
X120071400Y-91882628D01*
X120065000Y-91942159D01*
X120065000Y-92216211D01*
X120044998Y-92284332D01*
X119991342Y-92330825D01*
X119921068Y-92340929D01*
X119856488Y-92311435D01*
X119826210Y-92272375D01*
X119818088Y-92256066D01*
X119818087Y-92256064D01*
X119806260Y-92240403D01*
X119787992Y-92216211D01*
X119694733Y-92092715D01*
X119543463Y-91954814D01*
X119369433Y-91847059D01*
X119369428Y-91847057D01*
X119369427Y-91847056D01*
X119369422Y-91847054D01*
X119178559Y-91773113D01*
X119178560Y-91773113D01*
X119178557Y-91773112D01*
X119178556Y-91773112D01*
X118977347Y-91735500D01*
X118772653Y-91735500D01*
X118617713Y-91764463D01*
X118571439Y-91773113D01*
X118380577Y-91847054D01*
X118380566Y-91847059D01*
X118206536Y-91954814D01*
X118055266Y-92092715D01*
X117931913Y-92256063D01*
X117840671Y-92439301D01*
X117784654Y-92636180D01*
X117765768Y-92839995D01*
X117765768Y-92840004D01*
X117784654Y-93043819D01*
X117840669Y-93240692D01*
X117840675Y-93240709D01*
X117868459Y-93296505D01*
X117880919Y-93366400D01*
X117853612Y-93431935D01*
X117844764Y-93441763D01*
X116290337Y-94996190D01*
X116228025Y-95030216D01*
X116157210Y-95025151D01*
X116100374Y-94982604D01*
X116075563Y-94916084D01*
X116081929Y-94866593D01*
X116177995Y-94583596D01*
X116177996Y-94583593D01*
X116235536Y-94294324D01*
X116235538Y-94294309D01*
X116254828Y-94000003D01*
X116254828Y-93999996D01*
X116235538Y-93705690D01*
X116235536Y-93705675D01*
X116177996Y-93416406D01*
X116177995Y-93416402D01*
X116083189Y-93137118D01*
X116083185Y-93137108D01*
X115952739Y-92872588D01*
X115788875Y-92627348D01*
X115788872Y-92627344D01*
X115759594Y-92593959D01*
X115759592Y-92593959D01*
X114936289Y-93417261D01*
X114839033Y-93283398D01*
X114716602Y-93160967D01*
X114582736Y-93063709D01*
X115406039Y-92240406D01*
X115406039Y-92240404D01*
X115372655Y-92211127D01*
X115372651Y-92211124D01*
X115127411Y-92047260D01*
X114862891Y-91916814D01*
X114862881Y-91916810D01*
X114583597Y-91822004D01*
X114583593Y-91822003D01*
X114294324Y-91764463D01*
X114294309Y-91764461D01*
X114000003Y-91745172D01*
X113999997Y-91745172D01*
X113705690Y-91764461D01*
X113705675Y-91764463D01*
X113416406Y-91822003D01*
X113416402Y-91822004D01*
X113137118Y-91916810D01*
X113137108Y-91916814D01*
X112872588Y-92047260D01*
X112627346Y-92211125D01*
X112593959Y-92240403D01*
X112593959Y-92240406D01*
X113417262Y-93063709D01*
X113283398Y-93160967D01*
X113160967Y-93283398D01*
X113063709Y-93417262D01*
X112240406Y-92593959D01*
X112240403Y-92593959D01*
X112211125Y-92627346D01*
X112047260Y-92872588D01*
X111916814Y-93137108D01*
X111916810Y-93137118D01*
X111822004Y-93416402D01*
X111822003Y-93416406D01*
X111764463Y-93705675D01*
X111764461Y-93705690D01*
X111745172Y-93999996D01*
X111745172Y-94000003D01*
X111764461Y-94294309D01*
X111764463Y-94294324D01*
X111822003Y-94583593D01*
X111822004Y-94583597D01*
X111916810Y-94862881D01*
X111916814Y-94862891D01*
X112047260Y-95127411D01*
X112211124Y-95372651D01*
X112211127Y-95372655D01*
X112240404Y-95406039D01*
X112240406Y-95406039D01*
X113063708Y-94582736D01*
X113160967Y-94716602D01*
X113283398Y-94839033D01*
X113417262Y-94936290D01*
X112593959Y-95759592D01*
X112593959Y-95759594D01*
X112627344Y-95788872D01*
X112627348Y-95788875D01*
X112872588Y-95952739D01*
X113137108Y-96083185D01*
X113137118Y-96083189D01*
X113416402Y-96177995D01*
X113416406Y-96177996D01*
X113705675Y-96235536D01*
X113705690Y-96235538D01*
X113999997Y-96254828D01*
X114000003Y-96254828D01*
X114294309Y-96235538D01*
X114294324Y-96235536D01*
X114583593Y-96177996D01*
X114583596Y-96177995D01*
X114866593Y-96081929D01*
X114937528Y-96078972D01*
X114998801Y-96114836D01*
X115030958Y-96178132D01*
X115023789Y-96248766D01*
X114996190Y-96290337D01*
X113596302Y-97690225D01*
X113596295Y-97690234D01*
X113564390Y-97745499D01*
X113564389Y-97745501D01*
X113529881Y-97805269D01*
X113521047Y-97838237D01*
X113497446Y-97926321D01*
X113495500Y-97933582D01*
X113495500Y-98133110D01*
X113475498Y-98201231D01*
X113435832Y-98240237D01*
X113331536Y-98304815D01*
X113331531Y-98304819D01*
X113180269Y-98442712D01*
X113056913Y-98606063D01*
X112965671Y-98789301D01*
X112909654Y-98986180D01*
X112890768Y-99189995D01*
X112890768Y-99190004D01*
X112909654Y-99393819D01*
X112957331Y-99561386D01*
X112965672Y-99590701D01*
X113056912Y-99773935D01*
X113056913Y-99773936D01*
X113180266Y-99937284D01*
X113331536Y-100075185D01*
X113505566Y-100182940D01*
X113505568Y-100182940D01*
X113505573Y-100182944D01*
X113696444Y-100256888D01*
X113897653Y-100294500D01*
X113897655Y-100294500D01*
X114102345Y-100294500D01*
X114102347Y-100294500D01*
X114303556Y-100256888D01*
X114494427Y-100182944D01*
X114668462Y-100075186D01*
X114819732Y-99937285D01*
X114943088Y-99773935D01*
X115034328Y-99590701D01*
X115090345Y-99393821D01*
X115098806Y-99302509D01*
X115109232Y-99190004D01*
X115109232Y-99189995D01*
X115090345Y-98986180D01*
X115088587Y-98980000D01*
X115034328Y-98789299D01*
X114943088Y-98606065D01*
X114863630Y-98500845D01*
X114819733Y-98442715D01*
X114668464Y-98304815D01*
X114658210Y-98298466D01*
X114643251Y-98289204D01*
X114595864Y-98236338D01*
X114584581Y-98166243D01*
X114612985Y-98101176D01*
X114620476Y-98092993D01*
X117280407Y-95433062D01*
X117342717Y-95399038D01*
X117413532Y-95404103D01*
X117470368Y-95446650D01*
X117495179Y-95513170D01*
X117495500Y-95522159D01*
X117495500Y-96275063D01*
X117495501Y-96275073D01*
X117510265Y-96349300D01*
X117566516Y-96433484D01*
X117661018Y-96496630D01*
X117659042Y-96499585D01*
X117697990Y-96530963D01*
X117720419Y-96598323D01*
X117720500Y-96602837D01*
X117720500Y-100897162D01*
X117700498Y-100965283D01*
X117659377Y-101000914D01*
X117661018Y-101003370D01*
X117566515Y-101066515D01*
X117510266Y-101150697D01*
X117495500Y-101224930D01*
X117495500Y-102275063D01*
X117495501Y-102275073D01*
X117510265Y-102349300D01*
X117566516Y-102433484D01*
X117650697Y-102489733D01*
X117650699Y-102489734D01*
X117724933Y-102504500D01*
X118525066Y-102504499D01*
X118525069Y-102504498D01*
X118525073Y-102504498D01*
X118574326Y-102494701D01*
X118599301Y-102489734D01*
X118683484Y-102433484D01*
X118739734Y-102349301D01*
X118754500Y-102275067D01*
X118754500Y-102275058D01*
X118755106Y-102268911D01*
X118757824Y-102269178D01*
X118774502Y-102212379D01*
X118828158Y-102165886D01*
X118880500Y-102154500D01*
X119991385Y-102154500D01*
X120059506Y-102174502D01*
X120068090Y-102180538D01*
X120068864Y-102181132D01*
X120068866Y-102181134D01*
X120195142Y-102278030D01*
X120195145Y-102278032D01*
X120269465Y-102308815D01*
X120342194Y-102338940D01*
X120500000Y-102359716D01*
X120657806Y-102338940D01*
X120804858Y-102278030D01*
X120814317Y-102270771D01*
X120880535Y-102245168D01*
X120950085Y-102259430D01*
X121000883Y-102309030D01*
X121012382Y-102337933D01*
X121012534Y-102337887D01*
X121013080Y-102339688D01*
X121013245Y-102340102D01*
X121013430Y-102340843D01*
X121028202Y-102389541D01*
X121046405Y-102433484D01*
X121047011Y-102434947D01*
X121070991Y-102479809D01*
X121070997Y-102479818D01*
X121070996Y-102479818D01*
X121097539Y-102519541D01*
X121100966Y-102524671D01*
X121108173Y-102535456D01*
X121108183Y-102535471D01*
X121120107Y-102550000D01*
X121140451Y-102574789D01*
X121140458Y-102574796D01*
X121140467Y-102574806D01*
X121175196Y-102609535D01*
X121175213Y-102609551D01*
X121194639Y-102625493D01*
X121214532Y-102641819D01*
X121234332Y-102655049D01*
X121270178Y-102679001D01*
X121270179Y-102679002D01*
X121270181Y-102679003D01*
X121270184Y-102679005D01*
X121315050Y-102702987D01*
X121341653Y-102714006D01*
X121360466Y-102721799D01*
X121360468Y-102721799D01*
X121360469Y-102721800D01*
X121409151Y-102736567D01*
X121445301Y-102743756D01*
X121457324Y-102746148D01*
X121457324Y-102746149D01*
X121487199Y-102752092D01*
X121512394Y-102755829D01*
X121536975Y-102758250D01*
X121562410Y-102759500D01*
X122114260Y-102759500D01*
X122182381Y-102779502D01*
X122228874Y-102833158D01*
X122238978Y-102903432D01*
X122209484Y-102968012D01*
X122203355Y-102974596D01*
X121719353Y-103458596D01*
X121657041Y-103492621D01*
X121630259Y-103495500D01*
X121474936Y-103495500D01*
X121474926Y-103495501D01*
X121400699Y-103510265D01*
X121316515Y-103566516D01*
X121260266Y-103650697D01*
X121245500Y-103724930D01*
X121245500Y-104775063D01*
X121245501Y-104775073D01*
X121260265Y-104849300D01*
X121316516Y-104933484D01*
X121411018Y-104996630D01*
X121409042Y-104999585D01*
X121447990Y-105030963D01*
X121470419Y-105098323D01*
X121470500Y-105102837D01*
X121470500Y-109397162D01*
X121450498Y-109465283D01*
X121409377Y-109500914D01*
X121411018Y-109503370D01*
X121316515Y-109566515D01*
X121260266Y-109650697D01*
X121245500Y-109724930D01*
X121245500Y-110165260D01*
X121225498Y-110233381D01*
X121208595Y-110254355D01*
X119374481Y-112088468D01*
X119312169Y-112122494D01*
X119241353Y-112117429D01*
X119239870Y-112116865D01*
X119178557Y-112093112D01*
X119080637Y-112074808D01*
X118977347Y-112055500D01*
X118772653Y-112055500D01*
X118571444Y-112093112D01*
X118571439Y-112093113D01*
X118380577Y-112167054D01*
X118380566Y-112167059D01*
X118206536Y-112274814D01*
X118055266Y-112412715D01*
X117931913Y-112576063D01*
X117931912Y-112576064D01*
X117931912Y-112576065D01*
X117927626Y-112584672D01*
X117840671Y-112759301D01*
X117784654Y-112956180D01*
X117765768Y-113159995D01*
X117765768Y-113160004D01*
X117784654Y-113363819D01*
X117814014Y-113467007D01*
X117840672Y-113560701D01*
X117931912Y-113743935D01*
X117931913Y-113743936D01*
X118055266Y-113907284D01*
X118206536Y-114045185D01*
X118380566Y-114152940D01*
X118380568Y-114152940D01*
X118380573Y-114152944D01*
X118571444Y-114226888D01*
X118772653Y-114264500D01*
X118772655Y-114264500D01*
X118977345Y-114264500D01*
X118977347Y-114264500D01*
X119178556Y-114226888D01*
X119369427Y-114152944D01*
X119543462Y-114045186D01*
X119694732Y-113907285D01*
X119697547Y-113903558D01*
X119775713Y-113800048D01*
X119818088Y-113743935D01*
X119909328Y-113560701D01*
X119965345Y-113363821D01*
X119981970Y-113184416D01*
X119984232Y-113160004D01*
X119984232Y-113159995D01*
X119965345Y-112956182D01*
X119965345Y-112956179D01*
X119915951Y-112782576D01*
X119916547Y-112711583D01*
X119948044Y-112659003D01*
X121565644Y-111041404D01*
X121627956Y-111007378D01*
X121654739Y-111004499D01*
X122275064Y-111004499D01*
X122275066Y-111004499D01*
X122275069Y-111004498D01*
X122275072Y-111004498D01*
X122317053Y-110996148D01*
X122349301Y-110989734D01*
X122433484Y-110933484D01*
X122489734Y-110849301D01*
X122504500Y-110775067D01*
X122504500Y-110510500D01*
X122524502Y-110442379D01*
X122578158Y-110395886D01*
X122630500Y-110384500D01*
X123484403Y-110384500D01*
X123552524Y-110404502D01*
X123573498Y-110421405D01*
X123595226Y-110443133D01*
X123595229Y-110443135D01*
X123706573Y-110499868D01*
X123798955Y-110514500D01*
X124201044Y-110514499D01*
X124293427Y-110499868D01*
X124368855Y-110461434D01*
X124438632Y-110448331D01*
X124504416Y-110475031D01*
X124545323Y-110533058D01*
X124548364Y-110603990D01*
X124515154Y-110662797D01*
X123659354Y-111518596D01*
X123597044Y-111552620D01*
X123570261Y-111555500D01*
X122668253Y-111555500D01*
X122561747Y-111555500D01*
X122506617Y-111570271D01*
X122458871Y-111583065D01*
X122458864Y-111583068D01*
X122366634Y-111636317D01*
X122366628Y-111636322D01*
X121914480Y-112088469D01*
X121852168Y-112122494D01*
X121781352Y-112117429D01*
X121779931Y-112116888D01*
X121732746Y-112098609D01*
X121718557Y-112093112D01*
X121620637Y-112074808D01*
X121517347Y-112055500D01*
X121312653Y-112055500D01*
X121111444Y-112093112D01*
X121111439Y-112093113D01*
X120920577Y-112167054D01*
X120920566Y-112167059D01*
X120746536Y-112274814D01*
X120595266Y-112412715D01*
X120471913Y-112576063D01*
X120471912Y-112576064D01*
X120471912Y-112576065D01*
X120467626Y-112584672D01*
X120380671Y-112759301D01*
X120324654Y-112956180D01*
X120305768Y-113159995D01*
X120305768Y-113160004D01*
X120324654Y-113363819D01*
X120354014Y-113467007D01*
X120380672Y-113560701D01*
X120471912Y-113743935D01*
X120471913Y-113743936D01*
X120595266Y-113907284D01*
X120746536Y-114045185D01*
X120920566Y-114152940D01*
X120920568Y-114152940D01*
X120920573Y-114152944D01*
X121111444Y-114226888D01*
X121312653Y-114264500D01*
X121312655Y-114264500D01*
X121517345Y-114264500D01*
X121517347Y-114264500D01*
X121718556Y-114226888D01*
X121909427Y-114152944D01*
X122083462Y-114045186D01*
X122234732Y-113907285D01*
X122237547Y-113903558D01*
X122315713Y-113800048D01*
X122358088Y-113743935D01*
X122449328Y-113560701D01*
X122505345Y-113363821D01*
X122521970Y-113184416D01*
X122524232Y-113160004D01*
X122524232Y-113159995D01*
X122505345Y-112956182D01*
X122505345Y-112956179D01*
X122455951Y-112782576D01*
X122456547Y-112711585D01*
X122488044Y-112659003D01*
X122745645Y-112401404D01*
X122807957Y-112367379D01*
X122834740Y-112364500D01*
X122918636Y-112364500D01*
X122986757Y-112384502D01*
X123033250Y-112438158D01*
X123043354Y-112508432D01*
X123019187Y-112566431D01*
X123011912Y-112576063D01*
X122920671Y-112759301D01*
X122864654Y-112956180D01*
X122845768Y-113159995D01*
X122845768Y-113160004D01*
X122864654Y-113363819D01*
X122894014Y-113467007D01*
X122920672Y-113560701D01*
X123011912Y-113743935D01*
X123011913Y-113743936D01*
X123135266Y-113907284D01*
X123286536Y-114045185D01*
X123460566Y-114152940D01*
X123460568Y-114152940D01*
X123460573Y-114152944D01*
X123651444Y-114226888D01*
X123852653Y-114264500D01*
X123852655Y-114264500D01*
X124057345Y-114264500D01*
X124057347Y-114264500D01*
X124258556Y-114226888D01*
X124449427Y-114152944D01*
X124623462Y-114045186D01*
X124774732Y-113907285D01*
X124777547Y-113903558D01*
X124855713Y-113800048D01*
X124898088Y-113743935D01*
X124989328Y-113560701D01*
X125045345Y-113363821D01*
X125061970Y-113184416D01*
X125064232Y-113160004D01*
X125064232Y-113159995D01*
X125045345Y-112956182D01*
X125045345Y-112956179D01*
X124995951Y-112782576D01*
X124996547Y-112711583D01*
X125028042Y-112659005D01*
X126495646Y-111191402D01*
X126557956Y-111157379D01*
X126584739Y-111154500D01*
X127624261Y-111154500D01*
X127692382Y-111174502D01*
X127738875Y-111228158D01*
X127748979Y-111298432D01*
X127719485Y-111363012D01*
X127713372Y-111369578D01*
X127173767Y-111909183D01*
X126994481Y-112088469D01*
X126932169Y-112122494D01*
X126861353Y-112117429D01*
X126859870Y-112116865D01*
X126798557Y-112093112D01*
X126700637Y-112074808D01*
X126597347Y-112055500D01*
X126392653Y-112055500D01*
X126191444Y-112093112D01*
X126191439Y-112093113D01*
X126000577Y-112167054D01*
X126000566Y-112167059D01*
X125826536Y-112274814D01*
X125675266Y-112412715D01*
X125551913Y-112576063D01*
X125551912Y-112576064D01*
X125551912Y-112576065D01*
X125547626Y-112584672D01*
X125460671Y-112759301D01*
X125404654Y-112956180D01*
X125385768Y-113159995D01*
X125385768Y-113160004D01*
X125404654Y-113363819D01*
X125434014Y-113467007D01*
X125460672Y-113560701D01*
X125551912Y-113743935D01*
X125551913Y-113743936D01*
X125675266Y-113907284D01*
X125826536Y-114045185D01*
X126000566Y-114152940D01*
X126000568Y-114152940D01*
X126000573Y-114152944D01*
X126191444Y-114226888D01*
X126392653Y-114264500D01*
X126392655Y-114264500D01*
X126597345Y-114264500D01*
X126597347Y-114264500D01*
X126798556Y-114226888D01*
X126989427Y-114152944D01*
X127163462Y-114045186D01*
X127314732Y-113907285D01*
X127317547Y-113903558D01*
X127395713Y-113800048D01*
X127438088Y-113743935D01*
X127529328Y-113560701D01*
X127585345Y-113363821D01*
X127601970Y-113184416D01*
X127604232Y-113160004D01*
X127604232Y-113159995D01*
X127585345Y-112956182D01*
X127585345Y-112956179D01*
X127535951Y-112782576D01*
X127536547Y-112711583D01*
X127568044Y-112659003D01*
X131073680Y-109153369D01*
X131099882Y-109107986D01*
X131151263Y-109058994D01*
X131220976Y-109045557D01*
X131286887Y-109071944D01*
X131328070Y-109129776D01*
X131335000Y-109170987D01*
X131335000Y-109350000D01*
X132559000Y-109350000D01*
X132627121Y-109370002D01*
X132673614Y-109423658D01*
X132685000Y-109476000D01*
X132685000Y-109724000D01*
X132664998Y-109792121D01*
X132611342Y-109838614D01*
X132559000Y-109850000D01*
X131335000Y-109850000D01*
X131335000Y-110262062D01*
X131314998Y-110330183D01*
X131272001Y-110371181D01*
X131224132Y-110398818D01*
X131224124Y-110398824D01*
X129534481Y-112088468D01*
X129472169Y-112122494D01*
X129401354Y-112117429D01*
X129399870Y-112116865D01*
X129338557Y-112093112D01*
X129240637Y-112074808D01*
X129137347Y-112055500D01*
X128932653Y-112055500D01*
X128731444Y-112093112D01*
X128731439Y-112093113D01*
X128540577Y-112167054D01*
X128540566Y-112167059D01*
X128366536Y-112274814D01*
X128215266Y-112412715D01*
X128091913Y-112576063D01*
X128091912Y-112576064D01*
X128091912Y-112576065D01*
X128087626Y-112584672D01*
X128000671Y-112759301D01*
X127944654Y-112956180D01*
X127925768Y-113159995D01*
X127925768Y-113160004D01*
X127944654Y-113363819D01*
X127974014Y-113467007D01*
X128000672Y-113560701D01*
X128091912Y-113743935D01*
X128091913Y-113743936D01*
X128215266Y-113907284D01*
X128366536Y-114045185D01*
X128540566Y-114152940D01*
X128540568Y-114152940D01*
X128540573Y-114152944D01*
X128731444Y-114226888D01*
X128932653Y-114264500D01*
X128932655Y-114264500D01*
X129137345Y-114264500D01*
X129137347Y-114264500D01*
X129338556Y-114226888D01*
X129529427Y-114152944D01*
X129703462Y-114045186D01*
X129854732Y-113907285D01*
X129857547Y-113903558D01*
X129935713Y-113800048D01*
X129978088Y-113743935D01*
X130069328Y-113560701D01*
X130125345Y-113363821D01*
X130141970Y-113184416D01*
X130144232Y-113160004D01*
X130144232Y-113159995D01*
X130125345Y-112956182D01*
X130125345Y-112956179D01*
X130075951Y-112782576D01*
X130076547Y-112711585D01*
X130108044Y-112659003D01*
X131583146Y-111183904D01*
X131645458Y-111149879D01*
X131672241Y-111147000D01*
X132711760Y-111147000D01*
X132779881Y-111167002D01*
X132826374Y-111220658D01*
X132836478Y-111290932D01*
X132806984Y-111355512D01*
X132800871Y-111362078D01*
X132255534Y-111907415D01*
X132074480Y-112088469D01*
X132012168Y-112122494D01*
X131941352Y-112117429D01*
X131939907Y-112116879D01*
X131904364Y-112103110D01*
X131878557Y-112093112D01*
X131780637Y-112074808D01*
X131677347Y-112055500D01*
X131472653Y-112055500D01*
X131271444Y-112093112D01*
X131271439Y-112093113D01*
X131080577Y-112167054D01*
X131080566Y-112167059D01*
X130906536Y-112274814D01*
X130755266Y-112412715D01*
X130631913Y-112576063D01*
X130631912Y-112576064D01*
X130631912Y-112576065D01*
X130627626Y-112584672D01*
X130540671Y-112759301D01*
X130484654Y-112956180D01*
X130465768Y-113159995D01*
X130465768Y-113160004D01*
X130484654Y-113363819D01*
X130514014Y-113467007D01*
X130540672Y-113560701D01*
X130631912Y-113743935D01*
X130631913Y-113743936D01*
X130755266Y-113907284D01*
X130906536Y-114045185D01*
X131080566Y-114152940D01*
X131080568Y-114152940D01*
X131080573Y-114152944D01*
X131271444Y-114226888D01*
X131472653Y-114264500D01*
X131472655Y-114264500D01*
X131677345Y-114264500D01*
X131677347Y-114264500D01*
X131878556Y-114226888D01*
X132069427Y-114152944D01*
X132243462Y-114045186D01*
X132394732Y-113907285D01*
X132397547Y-113903558D01*
X132475713Y-113800048D01*
X132518088Y-113743935D01*
X132609328Y-113560701D01*
X132665345Y-113363821D01*
X132681970Y-113184416D01*
X132684232Y-113160004D01*
X132684232Y-113159995D01*
X132665345Y-112956182D01*
X132665345Y-112956179D01*
X132615951Y-112782576D01*
X132616547Y-112711585D01*
X132648044Y-112659003D01*
X133615646Y-111691404D01*
X133677958Y-111657379D01*
X133704741Y-111654500D01*
X134744260Y-111654500D01*
X134812381Y-111674502D01*
X134858874Y-111728158D01*
X134868978Y-111798432D01*
X134839484Y-111863012D01*
X134833360Y-111869589D01*
X134776145Y-111926805D01*
X134614480Y-112088469D01*
X134552168Y-112122494D01*
X134481352Y-112117428D01*
X134479926Y-112116886D01*
X134432746Y-112098609D01*
X134418557Y-112093112D01*
X134320637Y-112074808D01*
X134217347Y-112055500D01*
X134012653Y-112055500D01*
X133811444Y-112093112D01*
X133811439Y-112093113D01*
X133620577Y-112167054D01*
X133620566Y-112167059D01*
X133446536Y-112274814D01*
X133295266Y-112412715D01*
X133171913Y-112576063D01*
X133171912Y-112576064D01*
X133171912Y-112576065D01*
X133167626Y-112584672D01*
X133080671Y-112759301D01*
X133024654Y-112956180D01*
X133005768Y-113159995D01*
X133005768Y-113160004D01*
X133024654Y-113363819D01*
X133054014Y-113467007D01*
X133080672Y-113560701D01*
X133171912Y-113743935D01*
X133171913Y-113743936D01*
X133295266Y-113907284D01*
X133446536Y-114045185D01*
X133620566Y-114152940D01*
X133620568Y-114152940D01*
X133620573Y-114152944D01*
X133811444Y-114226888D01*
X134012653Y-114264500D01*
X134012655Y-114264500D01*
X134217345Y-114264500D01*
X134217347Y-114264500D01*
X134418556Y-114226888D01*
X134609427Y-114152944D01*
X134783462Y-114045186D01*
X134934732Y-113907285D01*
X134937547Y-113903558D01*
X135015713Y-113800048D01*
X135058088Y-113743935D01*
X135149328Y-113560701D01*
X135205345Y-113363821D01*
X135221970Y-113184416D01*
X135224232Y-113160004D01*
X135224232Y-113159995D01*
X135205345Y-112956182D01*
X135205345Y-112956179D01*
X135155951Y-112782576D01*
X135156547Y-112711585D01*
X135188044Y-112659003D01*
X135655645Y-112191404D01*
X135717957Y-112157379D01*
X135744740Y-112154500D01*
X135793272Y-112154500D01*
X135861393Y-112174502D01*
X135907886Y-112228158D01*
X135917990Y-112298432D01*
X135888496Y-112363012D01*
X135878158Y-112373615D01*
X135835266Y-112412715D01*
X135711913Y-112576063D01*
X135711912Y-112576064D01*
X135711912Y-112576065D01*
X135707626Y-112584672D01*
X135620671Y-112759301D01*
X135564654Y-112956180D01*
X135545768Y-113159995D01*
X135545768Y-113160004D01*
X135564654Y-113363819D01*
X135594014Y-113467007D01*
X135620672Y-113560701D01*
X135711912Y-113743935D01*
X135711913Y-113743936D01*
X135835266Y-113907284D01*
X135986536Y-114045185D01*
X136160566Y-114152940D01*
X136160568Y-114152940D01*
X136160573Y-114152944D01*
X136351444Y-114226888D01*
X136552653Y-114264500D01*
X136552655Y-114264500D01*
X136757345Y-114264500D01*
X136757347Y-114264500D01*
X136958556Y-114226888D01*
X137149427Y-114152944D01*
X137323462Y-114045186D01*
X137474732Y-113907285D01*
X137477547Y-113903558D01*
X137555713Y-113800048D01*
X137598088Y-113743935D01*
X137689328Y-113560701D01*
X137745345Y-113363821D01*
X137761970Y-113184416D01*
X137764232Y-113160004D01*
X137764232Y-113159995D01*
X137747980Y-112984618D01*
X137761611Y-112914943D01*
X137784344Y-112883899D01*
X137917724Y-112750519D01*
X137980036Y-112716495D01*
X138050852Y-112721560D01*
X138107687Y-112764107D01*
X138132498Y-112830628D01*
X138128009Y-112874097D01*
X138104654Y-112956180D01*
X138085768Y-113159995D01*
X138085768Y-113160004D01*
X138104654Y-113363819D01*
X138134014Y-113467007D01*
X138160672Y-113560701D01*
X138251912Y-113743935D01*
X138251913Y-113743936D01*
X138375266Y-113907284D01*
X138526536Y-114045185D01*
X138700566Y-114152940D01*
X138700568Y-114152940D01*
X138700573Y-114152944D01*
X138891444Y-114226888D01*
X139092653Y-114264500D01*
X139092655Y-114264500D01*
X139297345Y-114264500D01*
X139297347Y-114264500D01*
X139498556Y-114226888D01*
X139689427Y-114152944D01*
X139863462Y-114045186D01*
X140014732Y-113907285D01*
X140017547Y-113903558D01*
X140095713Y-113800048D01*
X140138088Y-113743935D01*
X140229328Y-113560701D01*
X140285345Y-113363821D01*
X140296721Y-113241049D01*
X140322922Y-113175068D01*
X140333088Y-113163583D01*
X140411459Y-113085212D01*
X140473771Y-113051186D01*
X140544586Y-113056251D01*
X140601422Y-113098798D01*
X140626016Y-113162681D01*
X140644654Y-113363819D01*
X140674014Y-113467007D01*
X140700672Y-113560701D01*
X140791912Y-113743935D01*
X140791913Y-113743936D01*
X140915266Y-113907284D01*
X141066536Y-114045185D01*
X141240566Y-114152940D01*
X141240568Y-114152940D01*
X141240573Y-114152944D01*
X141431444Y-114226888D01*
X141632653Y-114264500D01*
X141632655Y-114264500D01*
X141837345Y-114264500D01*
X141837347Y-114264500D01*
X142038556Y-114226888D01*
X142229427Y-114152944D01*
X142403462Y-114045186D01*
X142554732Y-113907285D01*
X142557547Y-113903558D01*
X142635713Y-113800048D01*
X142678088Y-113743935D01*
X142769328Y-113560701D01*
X142825345Y-113363821D01*
X142841970Y-113184416D01*
X142844232Y-113160004D01*
X142844232Y-113159995D01*
X142825345Y-112956182D01*
X142825345Y-112956179D01*
X142775951Y-112782576D01*
X142776547Y-112711583D01*
X142808044Y-112659003D01*
X145380405Y-110086644D01*
X145442717Y-110052618D01*
X145513533Y-110057683D01*
X145570368Y-110100230D01*
X145595179Y-110166750D01*
X145595500Y-110175739D01*
X145595500Y-111215259D01*
X145575498Y-111283380D01*
X145558595Y-111304355D01*
X144774480Y-112088469D01*
X144712168Y-112122494D01*
X144641352Y-112117429D01*
X144639931Y-112116888D01*
X144592746Y-112098609D01*
X144578557Y-112093112D01*
X144480637Y-112074808D01*
X144377347Y-112055500D01*
X144172653Y-112055500D01*
X143971444Y-112093112D01*
X143971439Y-112093113D01*
X143780577Y-112167054D01*
X143780566Y-112167059D01*
X143606536Y-112274814D01*
X143455266Y-112412715D01*
X143331913Y-112576063D01*
X143331912Y-112576064D01*
X143331912Y-112576065D01*
X143327626Y-112584672D01*
X143240671Y-112759301D01*
X143184654Y-112956180D01*
X143165768Y-113159995D01*
X143165768Y-113160004D01*
X143184654Y-113363819D01*
X143214014Y-113467007D01*
X143240672Y-113560701D01*
X143331912Y-113743935D01*
X143331913Y-113743936D01*
X143455266Y-113907284D01*
X143606536Y-114045185D01*
X143780566Y-114152940D01*
X143780568Y-114152940D01*
X143780573Y-114152944D01*
X143971444Y-114226888D01*
X144172653Y-114264500D01*
X144172655Y-114264500D01*
X144377345Y-114264500D01*
X144377347Y-114264500D01*
X144578556Y-114226888D01*
X144769427Y-114152944D01*
X144943462Y-114045186D01*
X145094732Y-113907285D01*
X145097547Y-113903558D01*
X145175713Y-113800048D01*
X145218088Y-113743935D01*
X145309328Y-113560701D01*
X145365345Y-113363821D01*
X145381970Y-113184416D01*
X145384232Y-113160004D01*
X145384232Y-113159995D01*
X145365345Y-112956182D01*
X145365345Y-112956179D01*
X145315951Y-112782576D01*
X145316547Y-112711583D01*
X145348042Y-112659005D01*
X146323680Y-111683369D01*
X146342615Y-111650572D01*
X146393996Y-111601580D01*
X146463710Y-111588143D01*
X146529621Y-111614529D01*
X146570804Y-111672361D01*
X146577734Y-111713573D01*
X146577734Y-111981118D01*
X146557732Y-112049239D01*
X146504076Y-112095732D01*
X146497251Y-112098609D01*
X146320577Y-112167054D01*
X146320566Y-112167059D01*
X146146536Y-112274814D01*
X145995266Y-112412715D01*
X145871913Y-112576063D01*
X145871912Y-112576064D01*
X145871912Y-112576065D01*
X145867626Y-112584672D01*
X145780671Y-112759301D01*
X145724654Y-112956180D01*
X145705768Y-113159995D01*
X145705768Y-113160004D01*
X145724654Y-113363819D01*
X145754014Y-113467007D01*
X145780672Y-113560701D01*
X145871912Y-113743935D01*
X145871913Y-113743936D01*
X145995266Y-113907284D01*
X146146536Y-114045185D01*
X146320566Y-114152940D01*
X146320568Y-114152940D01*
X146320573Y-114152944D01*
X146511444Y-114226888D01*
X146712653Y-114264500D01*
X146712655Y-114264500D01*
X146917345Y-114264500D01*
X146917347Y-114264500D01*
X147118556Y-114226888D01*
X147309427Y-114152944D01*
X147483462Y-114045186D01*
X147634732Y-113907285D01*
X147637547Y-113903558D01*
X147715713Y-113800048D01*
X147758088Y-113743935D01*
X147849328Y-113560701D01*
X147905345Y-113363821D01*
X147921970Y-113184416D01*
X147924232Y-113160004D01*
X147924232Y-113159995D01*
X147905345Y-112956180D01*
X147900970Y-112940804D01*
X147849328Y-112759299D01*
X147758088Y-112576065D01*
X147634732Y-112412715D01*
X147634730Y-112412712D01*
X147483468Y-112274819D01*
X147483459Y-112274812D01*
X147446401Y-112251866D01*
X147399015Y-112198998D01*
X147386734Y-112144740D01*
X147386734Y-112022029D01*
X147406736Y-111953908D01*
X147460392Y-111907415D01*
X147530666Y-111897311D01*
X147595246Y-111926805D01*
X147621853Y-111959029D01*
X147623065Y-111961129D01*
X147623066Y-111961131D01*
X147633959Y-111979998D01*
X147676317Y-112053365D01*
X147676320Y-112053369D01*
X148281954Y-112659003D01*
X148315978Y-112721314D01*
X148314048Y-112782578D01*
X148264654Y-112956180D01*
X148245768Y-113159995D01*
X148245768Y-113160004D01*
X148264654Y-113363819D01*
X148294014Y-113467007D01*
X148320672Y-113560701D01*
X148411912Y-113743935D01*
X148411913Y-113743936D01*
X148535266Y-113907284D01*
X148686536Y-114045185D01*
X148860566Y-114152940D01*
X148860568Y-114152940D01*
X148860573Y-114152944D01*
X149051444Y-114226888D01*
X149252653Y-114264500D01*
X149252655Y-114264500D01*
X149457345Y-114264500D01*
X149457347Y-114264500D01*
X149658556Y-114226888D01*
X149849427Y-114152944D01*
X150023462Y-114045186D01*
X150174732Y-113907285D01*
X150177547Y-113903558D01*
X150255713Y-113800048D01*
X150298088Y-113743935D01*
X150389328Y-113560701D01*
X150445345Y-113363821D01*
X150461970Y-113184416D01*
X150464232Y-113160004D01*
X150464232Y-113159995D01*
X150445345Y-112956180D01*
X150440970Y-112940804D01*
X150389328Y-112759299D01*
X150298088Y-112576065D01*
X150247014Y-112508432D01*
X150174733Y-112412715D01*
X150023463Y-112274814D01*
X149849433Y-112167059D01*
X149849428Y-112167057D01*
X149849427Y-112167056D01*
X149819262Y-112155370D01*
X149658559Y-112093113D01*
X149658560Y-112093113D01*
X149658557Y-112093112D01*
X149658556Y-112093112D01*
X149457347Y-112055500D01*
X149252653Y-112055500D01*
X149051444Y-112093112D01*
X149051439Y-112093113D01*
X149051437Y-112093113D01*
X148990126Y-112116865D01*
X148919380Y-112122821D01*
X148856645Y-112089582D01*
X148855517Y-112088468D01*
X148441405Y-111674356D01*
X148407379Y-111612044D01*
X148404500Y-111585261D01*
X148404500Y-110512801D01*
X148424502Y-110444680D01*
X148478158Y-110398187D01*
X148548432Y-110388083D01*
X148613012Y-110417577D01*
X148639618Y-110449799D01*
X148643305Y-110456185D01*
X148676317Y-110513365D01*
X148676325Y-110513375D01*
X150821953Y-112659002D01*
X150855978Y-112721314D01*
X150854048Y-112782578D01*
X150804654Y-112956180D01*
X150785768Y-113159995D01*
X150785768Y-113160004D01*
X150804654Y-113363819D01*
X150834014Y-113467007D01*
X150860672Y-113560701D01*
X150951912Y-113743935D01*
X150951913Y-113743936D01*
X151075266Y-113907284D01*
X151226536Y-114045185D01*
X151400566Y-114152940D01*
X151400568Y-114152940D01*
X151400573Y-114152944D01*
X151591444Y-114226888D01*
X151792653Y-114264500D01*
X151792655Y-114264500D01*
X151997345Y-114264500D01*
X151997347Y-114264500D01*
X152198556Y-114226888D01*
X152389427Y-114152944D01*
X152563462Y-114045186D01*
X152714732Y-113907285D01*
X152717547Y-113903558D01*
X152795713Y-113800048D01*
X152838088Y-113743935D01*
X152929328Y-113560701D01*
X152985345Y-113363821D01*
X152991710Y-113295124D01*
X153017911Y-113229144D01*
X153075627Y-113187799D01*
X153146533Y-113184222D01*
X153206267Y-113217658D01*
X153318423Y-113329814D01*
X153350518Y-113384428D01*
X153374014Y-113467007D01*
X153400672Y-113560701D01*
X153491912Y-113743935D01*
X153491913Y-113743936D01*
X153615266Y-113907284D01*
X153766536Y-114045185D01*
X153940566Y-114152940D01*
X153940568Y-114152940D01*
X153940573Y-114152944D01*
X154131444Y-114226888D01*
X154332653Y-114264500D01*
X154332655Y-114264500D01*
X154537345Y-114264500D01*
X154537347Y-114264500D01*
X154738556Y-114226888D01*
X154929427Y-114152944D01*
X155103462Y-114045186D01*
X155254732Y-113907285D01*
X155257547Y-113903558D01*
X155335713Y-113800048D01*
X155378088Y-113743935D01*
X155469328Y-113560701D01*
X155525345Y-113363821D01*
X155541970Y-113184416D01*
X155544232Y-113160004D01*
X155544232Y-113159995D01*
X155525345Y-112956180D01*
X155520970Y-112940804D01*
X155469328Y-112759299D01*
X155378088Y-112576065D01*
X155327014Y-112508432D01*
X155254733Y-112412715D01*
X155211842Y-112373615D01*
X155174976Y-112312941D01*
X155176765Y-112241967D01*
X155216641Y-112183227D01*
X155281945Y-112155370D01*
X155296728Y-112154500D01*
X155345261Y-112154500D01*
X155413382Y-112174502D01*
X155434356Y-112191405D01*
X155901953Y-112659002D01*
X155935979Y-112721314D01*
X155934048Y-112782578D01*
X155884654Y-112956180D01*
X155865768Y-113159995D01*
X155865768Y-113160004D01*
X155884654Y-113363819D01*
X155914014Y-113467007D01*
X155940672Y-113560701D01*
X156031912Y-113743935D01*
X156031913Y-113743936D01*
X156155266Y-113907284D01*
X156306536Y-114045185D01*
X156480566Y-114152940D01*
X156480568Y-114152940D01*
X156480573Y-114152944D01*
X156671444Y-114226888D01*
X156872653Y-114264500D01*
X156872655Y-114264500D01*
X157077345Y-114264500D01*
X157077347Y-114264500D01*
X157278556Y-114226888D01*
X157469427Y-114152944D01*
X157643462Y-114045186D01*
X157794732Y-113907285D01*
X157797547Y-113903558D01*
X157875713Y-113800048D01*
X157918088Y-113743935D01*
X158009328Y-113560701D01*
X158065345Y-113363821D01*
X158081970Y-113184416D01*
X158084232Y-113160004D01*
X158084232Y-113159995D01*
X158065345Y-112956180D01*
X158060970Y-112940804D01*
X158009328Y-112759299D01*
X157918088Y-112576065D01*
X157867014Y-112508432D01*
X157794733Y-112412715D01*
X157643463Y-112274814D01*
X157469433Y-112167059D01*
X157469428Y-112167057D01*
X157469427Y-112167056D01*
X157439262Y-112155370D01*
X157278559Y-112093113D01*
X157278560Y-112093113D01*
X157278557Y-112093112D01*
X157278556Y-112093112D01*
X157077347Y-112055500D01*
X156872653Y-112055500D01*
X156671444Y-112093112D01*
X156671439Y-112093113D01*
X156671437Y-112093113D01*
X156610126Y-112116865D01*
X156539380Y-112122821D01*
X156476645Y-112089582D01*
X156475591Y-112088542D01*
X156006644Y-111619595D01*
X155972619Y-111557283D01*
X155977684Y-111486467D01*
X156020231Y-111429632D01*
X156086751Y-111404821D01*
X156095740Y-111404500D01*
X157135261Y-111404500D01*
X157203382Y-111424502D01*
X157224356Y-111441405D01*
X158441953Y-112659002D01*
X158475979Y-112721314D01*
X158474048Y-112782578D01*
X158424654Y-112956180D01*
X158405768Y-113159995D01*
X158405768Y-113160004D01*
X158424654Y-113363819D01*
X158454014Y-113467007D01*
X158480672Y-113560701D01*
X158571912Y-113743935D01*
X158571913Y-113743936D01*
X158695266Y-113907284D01*
X158846536Y-114045185D01*
X159020566Y-114152940D01*
X159020568Y-114152940D01*
X159020573Y-114152944D01*
X159211444Y-114226888D01*
X159412653Y-114264500D01*
X159412655Y-114264500D01*
X159617345Y-114264500D01*
X159617347Y-114264500D01*
X159818556Y-114226888D01*
X160009427Y-114152944D01*
X160183462Y-114045186D01*
X160334732Y-113907285D01*
X160337547Y-113903558D01*
X160415713Y-113800048D01*
X160458088Y-113743935D01*
X160549328Y-113560701D01*
X160605345Y-113363821D01*
X160621970Y-113184416D01*
X160624232Y-113160004D01*
X160624232Y-113159995D01*
X160605345Y-112956180D01*
X160600970Y-112940804D01*
X160549328Y-112759299D01*
X160458088Y-112576065D01*
X160407014Y-112508432D01*
X160334733Y-112412715D01*
X160183463Y-112274814D01*
X160009433Y-112167059D01*
X160009428Y-112167057D01*
X160009427Y-112167056D01*
X159979262Y-112155370D01*
X159818559Y-112093113D01*
X159818560Y-112093113D01*
X159818557Y-112093112D01*
X159818556Y-112093112D01*
X159617347Y-112055500D01*
X159412653Y-112055500D01*
X159211444Y-112093112D01*
X159211439Y-112093113D01*
X159211437Y-112093113D01*
X159150126Y-112116865D01*
X159079380Y-112122821D01*
X159016645Y-112089582D01*
X159015517Y-112088468D01*
X157755572Y-110828522D01*
X157721546Y-110766210D01*
X157722705Y-110750000D01*
X158250000Y-110750000D01*
X158250000Y-110551524D01*
X158261686Y-110582076D01*
X158263427Y-110590831D01*
X158263429Y-110590837D01*
X158263430Y-110590842D01*
X158263431Y-110590844D01*
X158278198Y-110639525D01*
X158297010Y-110684943D01*
X158320991Y-110729809D01*
X158358176Y-110785461D01*
X158358183Y-110785471D01*
X158375519Y-110806595D01*
X158390451Y-110824789D01*
X158390458Y-110824796D01*
X158390467Y-110824806D01*
X158425196Y-110859535D01*
X158425213Y-110859551D01*
X158441099Y-110872588D01*
X158464532Y-110891819D01*
X158476776Y-110900000D01*
X158520178Y-110929001D01*
X158520179Y-110929002D01*
X158520181Y-110929003D01*
X158520184Y-110929005D01*
X158565050Y-110952987D01*
X158591653Y-110964006D01*
X158610466Y-110971799D01*
X158610468Y-110971799D01*
X158610469Y-110971800D01*
X158659151Y-110986567D01*
X158695301Y-110993756D01*
X158707324Y-110996148D01*
X158707324Y-110996149D01*
X158737199Y-111002092D01*
X158762394Y-111005829D01*
X158786975Y-111008250D01*
X158812410Y-111009500D01*
X159993839Y-111009500D01*
X160061960Y-111029502D01*
X160082934Y-111046405D01*
X161253892Y-112217363D01*
X161287918Y-112279675D01*
X161282853Y-112350490D01*
X161249687Y-112399569D01*
X161235266Y-112412716D01*
X161111913Y-112576063D01*
X161111912Y-112576064D01*
X161111912Y-112576065D01*
X161107626Y-112584672D01*
X161020671Y-112759301D01*
X160964654Y-112956180D01*
X160945768Y-113159995D01*
X160945768Y-113160004D01*
X160964654Y-113363819D01*
X160994014Y-113467007D01*
X161020672Y-113560701D01*
X161111912Y-113743935D01*
X161111913Y-113743936D01*
X161235266Y-113907284D01*
X161386536Y-114045185D01*
X161560566Y-114152940D01*
X161560568Y-114152940D01*
X161560573Y-114152944D01*
X161751444Y-114226888D01*
X161952653Y-114264500D01*
X161952655Y-114264500D01*
X162157345Y-114264500D01*
X162157347Y-114264500D01*
X162358556Y-114226888D01*
X162549427Y-114152944D01*
X162723462Y-114045186D01*
X162874732Y-113907285D01*
X162877547Y-113903558D01*
X162964150Y-113788876D01*
X162998088Y-113743935D01*
X163006209Y-113727626D01*
X163054478Y-113675562D01*
X163123232Y-113657859D01*
X163190642Y-113680138D01*
X163235307Y-113735325D01*
X163245000Y-113783788D01*
X163245000Y-114057840D01*
X163251400Y-114117371D01*
X163301647Y-114252089D01*
X163387810Y-114367189D01*
X163502910Y-114453352D01*
X163508519Y-114455444D01*
X163565355Y-114497990D01*
X163590166Y-114564510D01*
X163575075Y-114633885D01*
X163524873Y-114684087D01*
X163464487Y-114699500D01*
X114003539Y-114699500D01*
X113996474Y-114699302D01*
X113704817Y-114682922D01*
X113690776Y-114681340D01*
X113406281Y-114633003D01*
X113392506Y-114629859D01*
X113115210Y-114549971D01*
X113101873Y-114545304D01*
X112835264Y-114434871D01*
X112822539Y-114428743D01*
X112569978Y-114289158D01*
X112558014Y-114281641D01*
X112322658Y-114114647D01*
X112311611Y-114105837D01*
X112096441Y-113913549D01*
X112086450Y-113903558D01*
X111894162Y-113688388D01*
X111885352Y-113677341D01*
X111718358Y-113441985D01*
X111710841Y-113430021D01*
X111699776Y-113410000D01*
X111571252Y-113177452D01*
X111565131Y-113164742D01*
X111454694Y-112898123D01*
X111450028Y-112884789D01*
X111446948Y-112874097D01*
X111370138Y-112607485D01*
X111366998Y-112593727D01*
X111318658Y-112309221D01*
X111317077Y-112295182D01*
X111315933Y-112274819D01*
X111300698Y-112003525D01*
X111300599Y-111999996D01*
X111745172Y-111999996D01*
X111745172Y-112000003D01*
X111764461Y-112294309D01*
X111764463Y-112294324D01*
X111822003Y-112583593D01*
X111822004Y-112583597D01*
X111916810Y-112862881D01*
X111916814Y-112862891D01*
X112047260Y-113127411D01*
X112211124Y-113372651D01*
X112211127Y-113372655D01*
X112240404Y-113406039D01*
X112240406Y-113406039D01*
X113063708Y-112582736D01*
X113160967Y-112716602D01*
X113283398Y-112839033D01*
X113417261Y-112936289D01*
X112593959Y-113759592D01*
X112593959Y-113759594D01*
X112627344Y-113788872D01*
X112627348Y-113788875D01*
X112872588Y-113952739D01*
X113137108Y-114083185D01*
X113137118Y-114083189D01*
X113416402Y-114177995D01*
X113416406Y-114177996D01*
X113705675Y-114235536D01*
X113705690Y-114235538D01*
X113999997Y-114254828D01*
X114000003Y-114254828D01*
X114294309Y-114235538D01*
X114294324Y-114235536D01*
X114583593Y-114177996D01*
X114583597Y-114177995D01*
X114862881Y-114083189D01*
X114862891Y-114083185D01*
X115127411Y-113952739D01*
X115372650Y-113788876D01*
X115406040Y-113759593D01*
X114582737Y-112936290D01*
X114716602Y-112839033D01*
X114839033Y-112716602D01*
X114936290Y-112582737D01*
X115759593Y-113406040D01*
X115788876Y-113372650D01*
X115952739Y-113127411D01*
X116083185Y-112862891D01*
X116083189Y-112862881D01*
X116177995Y-112583597D01*
X116177996Y-112583593D01*
X116235536Y-112294324D01*
X116235538Y-112294309D01*
X116254828Y-112000003D01*
X116254828Y-111999996D01*
X116235538Y-111705690D01*
X116235536Y-111705675D01*
X116177996Y-111416406D01*
X116177995Y-111416402D01*
X116083189Y-111137118D01*
X116083185Y-111137108D01*
X115952739Y-110872588D01*
X115902794Y-110797840D01*
X117250000Y-110797840D01*
X117256400Y-110857371D01*
X117306647Y-110992089D01*
X117392810Y-111107189D01*
X117507910Y-111193352D01*
X117642628Y-111243599D01*
X117702159Y-111249999D01*
X117702176Y-111250000D01*
X117875000Y-111250000D01*
X118375000Y-111250000D01*
X118547824Y-111250000D01*
X118547840Y-111249999D01*
X118607371Y-111243599D01*
X118742089Y-111193352D01*
X118857189Y-111107189D01*
X118943352Y-110992089D01*
X118993599Y-110857371D01*
X118999999Y-110797840D01*
X119000000Y-110797823D01*
X119000000Y-110500000D01*
X118375000Y-110500000D01*
X118375000Y-111250000D01*
X117875000Y-111250000D01*
X117875000Y-110500000D01*
X117250000Y-110500000D01*
X117250000Y-110797840D01*
X115902794Y-110797840D01*
X115788875Y-110627348D01*
X115788872Y-110627344D01*
X115759594Y-110593959D01*
X115759592Y-110593959D01*
X114936289Y-111417261D01*
X114839033Y-111283398D01*
X114716602Y-111160967D01*
X114582736Y-111063709D01*
X115406039Y-110240406D01*
X115406039Y-110240404D01*
X115372655Y-110211127D01*
X115372651Y-110211124D01*
X115127411Y-110047260D01*
X114862891Y-109916814D01*
X114862881Y-109916810D01*
X114583597Y-109822004D01*
X114583593Y-109822003D01*
X114294324Y-109764463D01*
X114294309Y-109764461D01*
X114000003Y-109745172D01*
X113999997Y-109745172D01*
X113705690Y-109764461D01*
X113705675Y-109764463D01*
X113416406Y-109822003D01*
X113416402Y-109822004D01*
X113137118Y-109916810D01*
X113137108Y-109916814D01*
X112872588Y-110047260D01*
X112627346Y-110211125D01*
X112593959Y-110240403D01*
X112593959Y-110240406D01*
X113417262Y-111063709D01*
X113283398Y-111160967D01*
X113160967Y-111283398D01*
X113063709Y-111417262D01*
X112240406Y-110593959D01*
X112240403Y-110593959D01*
X112211125Y-110627346D01*
X112047260Y-110872588D01*
X111916814Y-111137108D01*
X111916810Y-111137118D01*
X111822004Y-111416402D01*
X111822003Y-111416406D01*
X111764463Y-111705675D01*
X111764461Y-111705690D01*
X111745172Y-111999996D01*
X111300599Y-111999996D01*
X111300500Y-111996460D01*
X111300500Y-109702159D01*
X117250000Y-109702159D01*
X117250000Y-110000000D01*
X117875000Y-110000000D01*
X118375000Y-110000000D01*
X119000000Y-110000000D01*
X119000000Y-109702176D01*
X118999999Y-109702159D01*
X118993599Y-109642628D01*
X118943352Y-109507910D01*
X118857189Y-109392810D01*
X118742089Y-109306647D01*
X118607371Y-109256400D01*
X118547840Y-109250000D01*
X118375000Y-109250000D01*
X118375000Y-110000000D01*
X117875000Y-110000000D01*
X117875000Y-109250000D01*
X117702159Y-109250000D01*
X117642628Y-109256400D01*
X117507910Y-109306647D01*
X117392810Y-109392810D01*
X117306647Y-109507910D01*
X117256400Y-109642628D01*
X117250000Y-109702159D01*
X111300500Y-109702159D01*
X111300500Y-105912159D01*
X112650000Y-105912159D01*
X112650000Y-106560000D01*
X113566988Y-106560000D01*
X113534075Y-106617007D01*
X113500000Y-106744174D01*
X113500000Y-106875826D01*
X113534075Y-107002993D01*
X113566988Y-107060000D01*
X112650000Y-107060000D01*
X112650000Y-107707840D01*
X112656400Y-107767371D01*
X112706647Y-107902089D01*
X112792810Y-108017189D01*
X112907910Y-108103352D01*
X113042628Y-108153599D01*
X113102159Y-108159999D01*
X113102176Y-108160000D01*
X113750000Y-108160000D01*
X113750000Y-107243012D01*
X113807007Y-107275925D01*
X113934174Y-107310000D01*
X114065826Y-107310000D01*
X114192993Y-107275925D01*
X114250000Y-107243012D01*
X114250000Y-108160000D01*
X114897824Y-108160000D01*
X114897840Y-108159999D01*
X114957371Y-108153599D01*
X115092089Y-108103352D01*
X115207189Y-108017189D01*
X115293352Y-107902089D01*
X115343599Y-107767371D01*
X115349999Y-107707840D01*
X115350000Y-107707823D01*
X115350000Y-107060000D01*
X114433012Y-107060000D01*
X114465925Y-107002993D01*
X114500000Y-106875826D01*
X114500000Y-106744174D01*
X114465925Y-106617007D01*
X114433012Y-106560000D01*
X115350000Y-106560000D01*
X115350000Y-105912176D01*
X115349999Y-105912159D01*
X115343599Y-105852628D01*
X115293352Y-105717910D01*
X115207189Y-105602810D01*
X115092089Y-105516647D01*
X114957371Y-105466400D01*
X114897840Y-105460000D01*
X114619015Y-105460000D01*
X114550894Y-105439998D01*
X114504401Y-105386342D01*
X114494297Y-105316068D01*
X114523791Y-105251488D01*
X114552684Y-105226873D01*
X114619342Y-105185600D01*
X114668462Y-105155186D01*
X114819732Y-105017285D01*
X114943088Y-104853935D01*
X114971020Y-104797840D01*
X117250000Y-104797840D01*
X117256400Y-104857371D01*
X117306647Y-104992089D01*
X117392810Y-105107189D01*
X117507910Y-105193352D01*
X117642628Y-105243599D01*
X117702159Y-105249999D01*
X117702176Y-105250000D01*
X117875000Y-105250000D01*
X118375000Y-105250000D01*
X118547824Y-105250000D01*
X118547840Y-105249999D01*
X118607371Y-105243599D01*
X118742089Y-105193352D01*
X118857189Y-105107189D01*
X118943352Y-104992089D01*
X118993599Y-104857371D01*
X118999999Y-104797840D01*
X119000000Y-104797823D01*
X119000000Y-104500000D01*
X118375000Y-104500000D01*
X118375000Y-105250000D01*
X117875000Y-105250000D01*
X117875000Y-104500000D01*
X117250000Y-104500000D01*
X117250000Y-104797840D01*
X114971020Y-104797840D01*
X115034328Y-104670701D01*
X115090345Y-104473821D01*
X115109232Y-104270000D01*
X115107908Y-104255715D01*
X115091771Y-104081564D01*
X115090345Y-104066179D01*
X115034328Y-103869299D01*
X114951102Y-103702159D01*
X117250000Y-103702159D01*
X117250000Y-104000000D01*
X117875000Y-104000000D01*
X118375000Y-104000000D01*
X119000000Y-104000000D01*
X119000000Y-103702176D01*
X118999999Y-103702159D01*
X118993599Y-103642628D01*
X118943352Y-103507910D01*
X118857189Y-103392810D01*
X118742089Y-103306647D01*
X118607371Y-103256400D01*
X118547840Y-103250000D01*
X118375000Y-103250000D01*
X118375000Y-104000000D01*
X117875000Y-104000000D01*
X117875000Y-103250000D01*
X117702159Y-103250000D01*
X117642628Y-103256400D01*
X117507910Y-103306647D01*
X117392810Y-103392810D01*
X117306647Y-103507910D01*
X117256400Y-103642628D01*
X117250000Y-103702159D01*
X114951102Y-103702159D01*
X114943088Y-103686065D01*
X114884272Y-103608180D01*
X114819733Y-103522715D01*
X114668463Y-103384814D01*
X114494433Y-103277059D01*
X114494428Y-103277057D01*
X114494427Y-103277056D01*
X114424588Y-103250000D01*
X114303559Y-103203113D01*
X114303560Y-103203113D01*
X114303557Y-103203112D01*
X114303556Y-103203112D01*
X114102347Y-103165500D01*
X113897653Y-103165500D01*
X113696444Y-103203112D01*
X113696439Y-103203113D01*
X113505577Y-103277054D01*
X113505566Y-103277059D01*
X113331536Y-103384814D01*
X113180266Y-103522715D01*
X113056913Y-103686063D01*
X112965671Y-103869301D01*
X112909654Y-104066180D01*
X112890768Y-104269995D01*
X112890768Y-104270002D01*
X112909654Y-104473819D01*
X112948273Y-104609551D01*
X112965672Y-104670701D01*
X113056912Y-104853935D01*
X113056913Y-104853936D01*
X113180266Y-105017284D01*
X113331536Y-105155185D01*
X113447316Y-105226873D01*
X113494703Y-105279740D01*
X113505986Y-105349834D01*
X113477582Y-105414901D01*
X113418509Y-105454283D01*
X113380985Y-105460000D01*
X113102159Y-105460000D01*
X113042628Y-105466400D01*
X112907910Y-105516647D01*
X112792810Y-105602810D01*
X112706647Y-105717910D01*
X112656400Y-105852628D01*
X112650000Y-105912159D01*
X111300500Y-105912159D01*
X111300500Y-101729995D01*
X112890768Y-101729995D01*
X112890768Y-101730004D01*
X112909654Y-101933819D01*
X112958460Y-102105353D01*
X112965672Y-102130701D01*
X113056912Y-102313935D01*
X113060635Y-102318865D01*
X113180266Y-102477284D01*
X113331536Y-102615185D01*
X113505566Y-102722940D01*
X113505568Y-102722940D01*
X113505573Y-102722944D01*
X113696444Y-102796888D01*
X113897653Y-102834500D01*
X113897655Y-102834500D01*
X114102345Y-102834500D01*
X114102347Y-102834500D01*
X114303556Y-102796888D01*
X114494427Y-102722944D01*
X114668462Y-102615186D01*
X114819732Y-102477285D01*
X114943088Y-102313935D01*
X115034328Y-102130701D01*
X115090345Y-101933821D01*
X115101773Y-101810493D01*
X115109232Y-101730004D01*
X115109232Y-101729995D01*
X115090345Y-101526180D01*
X115082896Y-101500000D01*
X115034328Y-101329299D01*
X114943088Y-101146065D01*
X114889374Y-101074936D01*
X114819733Y-100982715D01*
X114668463Y-100844814D01*
X114494433Y-100737059D01*
X114494428Y-100737057D01*
X114494427Y-100737056D01*
X114441410Y-100716517D01*
X114303559Y-100663113D01*
X114303560Y-100663113D01*
X114303557Y-100663112D01*
X114303556Y-100663112D01*
X114102347Y-100625500D01*
X113897653Y-100625500D01*
X113704137Y-100661674D01*
X113696439Y-100663113D01*
X113505577Y-100737054D01*
X113505566Y-100737059D01*
X113331536Y-100844814D01*
X113180266Y-100982715D01*
X113056913Y-101146063D01*
X112965671Y-101329301D01*
X112909654Y-101526180D01*
X112890768Y-101729995D01*
X111300500Y-101729995D01*
X111300500Y-94003539D01*
X111300698Y-93996474D01*
X111304725Y-93924770D01*
X111317077Y-93704812D01*
X111318659Y-93690776D01*
X111336561Y-93585412D01*
X111366998Y-93406268D01*
X111370137Y-93392518D01*
X111450030Y-93115201D01*
X111454692Y-93101881D01*
X111565134Y-92835250D01*
X111571248Y-92822554D01*
X111710848Y-92569965D01*
X111718358Y-92558014D01*
X111885358Y-92322650D01*
X111894156Y-92311618D01*
X112086450Y-92096440D01*
X112096441Y-92086450D01*
X112140295Y-92047260D01*
X112311618Y-91894156D01*
X112322650Y-91885358D01*
X112558020Y-91718354D01*
X112569965Y-91710848D01*
X112822554Y-91571248D01*
X112835250Y-91565134D01*
X113101881Y-91454692D01*
X113115201Y-91450030D01*
X113392518Y-91370137D01*
X113406268Y-91366998D01*
X113690780Y-91318658D01*
X113704812Y-91317077D01*
X113996474Y-91300697D01*
X114003539Y-91300500D01*
X114047595Y-91300500D01*
X120284487Y-91300500D01*
X120352608Y-91320502D01*
G37*
%TD.AperFunction*%
%TA.AperFunction,Conductor*%
G36*
X171687904Y-107070000D02*
G01*
X172508012Y-107070000D01*
X172490795Y-107079940D01*
X172434940Y-107135795D01*
X172395444Y-107204204D01*
X172375000Y-107280504D01*
X172375000Y-107359496D01*
X172395444Y-107435796D01*
X172434940Y-107504205D01*
X172490795Y-107560060D01*
X172508012Y-107570000D01*
X171705136Y-107570000D01*
X171713427Y-107611683D01*
X171713429Y-107611690D01*
X171788811Y-107793677D01*
X171898248Y-107957462D01*
X171898253Y-107957468D01*
X172037531Y-108096746D01*
X172037537Y-108096751D01*
X172201322Y-108206188D01*
X172383305Y-108281568D01*
X172383310Y-108281570D01*
X172576506Y-108319999D01*
X172576510Y-108320000D01*
X172825000Y-108320000D01*
X172825000Y-107620000D01*
X173325000Y-107620000D01*
X173325000Y-108320000D01*
X173573490Y-108320000D01*
X173573493Y-108319999D01*
X173766689Y-108281570D01*
X173766694Y-108281568D01*
X173948677Y-108206188D01*
X174112462Y-108096751D01*
X174112468Y-108096746D01*
X174251746Y-107957468D01*
X174251751Y-107957462D01*
X174361188Y-107793677D01*
X174436568Y-107611694D01*
X174436570Y-107611687D01*
X174449921Y-107544572D01*
X174482828Y-107481662D01*
X174544523Y-107446530D01*
X174615418Y-107450330D01*
X174673004Y-107491856D01*
X174698999Y-107557922D01*
X174699500Y-107569153D01*
X174699500Y-111996460D01*
X174699302Y-112003525D01*
X174682922Y-112295182D01*
X174681340Y-112309223D01*
X174633003Y-112593718D01*
X174629859Y-112607493D01*
X174549971Y-112884789D01*
X174545304Y-112898126D01*
X174434871Y-113164735D01*
X174428740Y-113177466D01*
X174289158Y-113430021D01*
X174281641Y-113441985D01*
X174114647Y-113677341D01*
X174105837Y-113688388D01*
X173913549Y-113903558D01*
X173903558Y-113913549D01*
X173688388Y-114105837D01*
X173677341Y-114114647D01*
X173441985Y-114281641D01*
X173430021Y-114289158D01*
X173177466Y-114428740D01*
X173164735Y-114434871D01*
X172898126Y-114545304D01*
X172884789Y-114549971D01*
X172607493Y-114629859D01*
X172593718Y-114633003D01*
X172309223Y-114681340D01*
X172295182Y-114682922D01*
X172003526Y-114699302D01*
X171996461Y-114699500D01*
X165725513Y-114699500D01*
X165657392Y-114679498D01*
X165610899Y-114625842D01*
X165600795Y-114555568D01*
X165630289Y-114490988D01*
X165681481Y-114455444D01*
X165687089Y-114453352D01*
X165802189Y-114367189D01*
X165888352Y-114252089D01*
X165938599Y-114117371D01*
X165944999Y-114057840D01*
X165945000Y-114057823D01*
X165945000Y-113783788D01*
X165965002Y-113715667D01*
X166018658Y-113669174D01*
X166088932Y-113659070D01*
X166153512Y-113688564D01*
X166183791Y-113727626D01*
X166191911Y-113743934D01*
X166191912Y-113743935D01*
X166315266Y-113907284D01*
X166466536Y-114045185D01*
X166640566Y-114152940D01*
X166640568Y-114152940D01*
X166640573Y-114152944D01*
X166831444Y-114226888D01*
X167032653Y-114264500D01*
X167032655Y-114264500D01*
X167237345Y-114264500D01*
X167237347Y-114264500D01*
X167438556Y-114226888D01*
X167629427Y-114152944D01*
X167803462Y-114045186D01*
X167954732Y-113907285D01*
X167957547Y-113903558D01*
X168035713Y-113800048D01*
X168078088Y-113743935D01*
X168169328Y-113560701D01*
X168225345Y-113363821D01*
X168241970Y-113184416D01*
X168244232Y-113160004D01*
X168244232Y-113159995D01*
X168225345Y-112956180D01*
X168220970Y-112940804D01*
X168169328Y-112759299D01*
X168078088Y-112576065D01*
X167954732Y-112412715D01*
X167954730Y-112412712D01*
X167803468Y-112274819D01*
X167803463Y-112274815D01*
X167803462Y-112274814D01*
X167728111Y-112228158D01*
X167699168Y-112210237D01*
X167651781Y-112157369D01*
X167639500Y-112103110D01*
X167639500Y-111999996D01*
X169745172Y-111999996D01*
X169745172Y-112000003D01*
X169764461Y-112294309D01*
X169764463Y-112294324D01*
X169822003Y-112583593D01*
X169822004Y-112583597D01*
X169916810Y-112862881D01*
X169916814Y-112862891D01*
X170047260Y-113127411D01*
X170211124Y-113372651D01*
X170211127Y-113372655D01*
X170240404Y-113406039D01*
X170240406Y-113406039D01*
X171063708Y-112582736D01*
X171160967Y-112716602D01*
X171283398Y-112839033D01*
X171417261Y-112936289D01*
X170593959Y-113759592D01*
X170593959Y-113759594D01*
X170627344Y-113788872D01*
X170627348Y-113788875D01*
X170872588Y-113952739D01*
X171137108Y-114083185D01*
X171137118Y-114083189D01*
X171416402Y-114177995D01*
X171416406Y-114177996D01*
X171705675Y-114235536D01*
X171705690Y-114235538D01*
X171999997Y-114254828D01*
X172000003Y-114254828D01*
X172294309Y-114235538D01*
X172294324Y-114235536D01*
X172583593Y-114177996D01*
X172583597Y-114177995D01*
X172862881Y-114083189D01*
X172862891Y-114083185D01*
X173127411Y-113952739D01*
X173372650Y-113788876D01*
X173406040Y-113759593D01*
X172582737Y-112936290D01*
X172716602Y-112839033D01*
X172839033Y-112716602D01*
X172936290Y-112582737D01*
X173759593Y-113406040D01*
X173788876Y-113372650D01*
X173952739Y-113127411D01*
X174083185Y-112862891D01*
X174083189Y-112862881D01*
X174177995Y-112583597D01*
X174177996Y-112583593D01*
X174235536Y-112294324D01*
X174235538Y-112294309D01*
X174254828Y-112000003D01*
X174254828Y-111999996D01*
X174235538Y-111705690D01*
X174235536Y-111705675D01*
X174177996Y-111416406D01*
X174177995Y-111416402D01*
X174083189Y-111137118D01*
X174083185Y-111137108D01*
X173952739Y-110872588D01*
X173788875Y-110627348D01*
X173788872Y-110627344D01*
X173759594Y-110593959D01*
X173759592Y-110593959D01*
X172936289Y-111417261D01*
X172839033Y-111283398D01*
X172716602Y-111160967D01*
X172582736Y-111063709D01*
X173406039Y-110240406D01*
X173406039Y-110240404D01*
X173372655Y-110211127D01*
X173372651Y-110211124D01*
X173127411Y-110047260D01*
X172862891Y-109916814D01*
X172862881Y-109916810D01*
X172583597Y-109822004D01*
X172583593Y-109822003D01*
X172294324Y-109764463D01*
X172294309Y-109764461D01*
X172000003Y-109745172D01*
X171999997Y-109745172D01*
X171705690Y-109764461D01*
X171705675Y-109764463D01*
X171416406Y-109822003D01*
X171416402Y-109822004D01*
X171137118Y-109916810D01*
X171137108Y-109916814D01*
X170872588Y-110047260D01*
X170627346Y-110211125D01*
X170593959Y-110240403D01*
X170593959Y-110240406D01*
X171417262Y-111063709D01*
X171283398Y-111160967D01*
X171160967Y-111283398D01*
X171063709Y-111417262D01*
X170240406Y-110593959D01*
X170240403Y-110593959D01*
X170211125Y-110627346D01*
X170047260Y-110872588D01*
X169916814Y-111137108D01*
X169916810Y-111137118D01*
X169822004Y-111416402D01*
X169822003Y-111416406D01*
X169764463Y-111705675D01*
X169764461Y-111705690D01*
X169745172Y-111999996D01*
X167639500Y-111999996D01*
X167639500Y-110118582D01*
X167630942Y-110086644D01*
X167605119Y-109990270D01*
X167538700Y-109875230D01*
X167444770Y-109781300D01*
X166816837Y-109153367D01*
X166183066Y-108519595D01*
X166149040Y-108457283D01*
X166154105Y-108386467D01*
X166196652Y-108329632D01*
X166263172Y-108304821D01*
X166272161Y-108304500D01*
X166604920Y-108304500D01*
X166604922Y-108304500D01*
X166733233Y-108270119D01*
X166803580Y-108229504D01*
X166848273Y-108203701D01*
X166910904Y-108141068D01*
X166973214Y-108107044D01*
X167044030Y-108112108D01*
X167089094Y-108141069D01*
X167621719Y-108673694D01*
X167621722Y-108673696D01*
X167621727Y-108673701D01*
X167692389Y-108714497D01*
X167736767Y-108740119D01*
X167865078Y-108774500D01*
X167865079Y-108774500D01*
X167865080Y-108774500D01*
X169884920Y-108774500D01*
X169884922Y-108774500D01*
X170013233Y-108740119D01*
X170057611Y-108714497D01*
X170128273Y-108673701D01*
X171403701Y-107398273D01*
X171463036Y-107295501D01*
X171470119Y-107283233D01*
X171504500Y-107154922D01*
X171504500Y-107154920D01*
X171506637Y-107146945D01*
X171509075Y-107147598D01*
X171532654Y-107094296D01*
X171591918Y-107055202D01*
X171662909Y-107054355D01*
X171687904Y-107070000D01*
G37*
%TD.AperFunction*%
%TA.AperFunction,Conductor*%
G36*
X163906738Y-108410897D02*
G01*
X163938214Y-108428084D01*
X164030733Y-108497342D01*
X164041087Y-108501204D01*
X164097922Y-108543749D01*
X164122734Y-108610269D01*
X164107643Y-108679643D01*
X164057442Y-108729846D01*
X164036689Y-108738863D01*
X163955880Y-108765641D01*
X163806655Y-108857683D01*
X163806649Y-108857688D01*
X163682688Y-108981649D01*
X163682683Y-108981655D01*
X163590642Y-109130877D01*
X163535493Y-109297308D01*
X163525001Y-109400000D01*
X163525000Y-109400012D01*
X163525000Y-109450000D01*
X164874000Y-109450000D01*
X164942121Y-109470002D01*
X164988614Y-109523658D01*
X165000000Y-109576000D01*
X165000000Y-110699999D01*
X165274978Y-110699999D01*
X165377691Y-110689506D01*
X165544122Y-110634357D01*
X165693344Y-110542316D01*
X165693350Y-110542311D01*
X165817311Y-110418350D01*
X165817316Y-110418344D01*
X165909357Y-110269122D01*
X165964506Y-110102691D01*
X165972292Y-110026492D01*
X165999114Y-109960757D01*
X166057217Y-109919959D01*
X166128154Y-109917050D01*
X166186734Y-109950204D01*
X166593595Y-110357065D01*
X166627621Y-110419377D01*
X166630500Y-110446160D01*
X166630500Y-112103110D01*
X166610498Y-112171231D01*
X166570832Y-112210237D01*
X166466536Y-112274815D01*
X166466531Y-112274819D01*
X166315269Y-112412712D01*
X166191912Y-112576064D01*
X166191911Y-112576066D01*
X166183790Y-112592375D01*
X166135520Y-112644438D01*
X166066766Y-112662140D01*
X165999356Y-112639860D01*
X165954692Y-112584672D01*
X165945000Y-112536211D01*
X165945000Y-112262176D01*
X165944999Y-112262159D01*
X165938599Y-112202628D01*
X165888352Y-112067910D01*
X165802189Y-111952810D01*
X165687089Y-111866647D01*
X165552371Y-111816400D01*
X165492840Y-111810000D01*
X164845000Y-111810000D01*
X164845000Y-112726988D01*
X164787993Y-112694075D01*
X164660826Y-112660000D01*
X164529174Y-112660000D01*
X164402007Y-112694075D01*
X164345000Y-112726988D01*
X164345000Y-111810000D01*
X163697159Y-111810000D01*
X163637628Y-111816400D01*
X163502910Y-111866647D01*
X163387810Y-111952810D01*
X163301647Y-112067910D01*
X163251400Y-112202628D01*
X163245000Y-112262159D01*
X163245000Y-112536211D01*
X163224998Y-112604332D01*
X163171342Y-112650825D01*
X163101068Y-112660929D01*
X163036488Y-112631435D01*
X163006210Y-112592375D01*
X163001919Y-112583760D01*
X162998088Y-112576065D01*
X162967992Y-112536211D01*
X162874733Y-112412715D01*
X162723463Y-112274814D01*
X162580978Y-112186591D01*
X162533591Y-112133724D01*
X162525602Y-112112074D01*
X162525119Y-112110270D01*
X162492267Y-112053369D01*
X162458701Y-111995230D01*
X162458696Y-111995225D01*
X162458694Y-111995222D01*
X161016259Y-110552788D01*
X160982234Y-110490476D01*
X160987298Y-110419661D01*
X161029845Y-110362825D01*
X161096365Y-110338014D01*
X161165739Y-110353105D01*
X161169494Y-110355240D01*
X161173008Y-110357318D01*
X161325742Y-110401691D01*
X161361433Y-110404500D01*
X162238566Y-110404499D01*
X162274258Y-110401691D01*
X162426992Y-110357318D01*
X162426994Y-110357316D01*
X162426996Y-110357316D01*
X162495441Y-110316837D01*
X162563891Y-110276356D01*
X162676356Y-110163891D01*
X162730674Y-110072044D01*
X162757316Y-110026996D01*
X162757316Y-110026994D01*
X162757318Y-110026992D01*
X162765166Y-109999978D01*
X163525001Y-109999978D01*
X163535493Y-110102691D01*
X163590642Y-110269122D01*
X163682683Y-110418344D01*
X163682688Y-110418350D01*
X163806649Y-110542311D01*
X163806655Y-110542316D01*
X163955877Y-110634357D01*
X164122308Y-110689506D01*
X164225012Y-110699999D01*
X164500000Y-110699999D01*
X164500000Y-109950000D01*
X163525001Y-109950000D01*
X163525001Y-109999978D01*
X162765166Y-109999978D01*
X162801691Y-109874258D01*
X162804500Y-109838567D01*
X162804499Y-109461159D01*
X162824501Y-109393040D01*
X162841399Y-109372069D01*
X163773611Y-108439857D01*
X163835923Y-108405832D01*
X163906738Y-108410897D01*
G37*
%TD.AperFunction*%
%TA.AperFunction,Conductor*%
G36*
X143502662Y-99924502D02*
G01*
X143549155Y-99978158D01*
X143560541Y-100030500D01*
X143560541Y-100411788D01*
X143560541Y-100518294D01*
X143572587Y-100563250D01*
X143588106Y-100621169D01*
X143588109Y-100621176D01*
X143641358Y-100713406D01*
X143641366Y-100713416D01*
X146230527Y-103302577D01*
X146264553Y-103364889D01*
X146264999Y-103370887D01*
X146517882Y-103623769D01*
X146547188Y-103669770D01*
X146566611Y-103723134D01*
X146571114Y-103793988D01*
X146536596Y-103856028D01*
X146474016Y-103889558D01*
X146405115Y-103884630D01*
X146351748Y-103865206D01*
X146305748Y-103835900D01*
X146056684Y-103586836D01*
X146010568Y-103646937D01*
X145952631Y-103786807D01*
X145952630Y-103786811D01*
X145932869Y-103936916D01*
X145932869Y-103936917D01*
X145938018Y-103976030D01*
X145927078Y-104046179D01*
X145902199Y-104081564D01*
X145898992Y-104084771D01*
X145898979Y-104084785D01*
X145869522Y-104123176D01*
X145869519Y-104123180D01*
X145856252Y-104159630D01*
X145814156Y-104216800D01*
X145780950Y-104234932D01*
X145744500Y-104248199D01*
X145744496Y-104248202D01*
X145706104Y-104277660D01*
X145706087Y-104277675D01*
X145545441Y-104438321D01*
X145545426Y-104438338D01*
X145515967Y-104476730D01*
X145502700Y-104513182D01*
X145460604Y-104570353D01*
X145427395Y-104588487D01*
X145390943Y-104601754D01*
X145352551Y-104631213D01*
X145352534Y-104631228D01*
X145191888Y-104791874D01*
X145191873Y-104791891D01*
X145162414Y-104830283D01*
X145149147Y-104866735D01*
X145107051Y-104923906D01*
X145073842Y-104942040D01*
X145037390Y-104955307D01*
X144998998Y-104984766D01*
X144998981Y-104984781D01*
X144838335Y-105145427D01*
X144838320Y-105145444D01*
X144808862Y-105183836D01*
X144808859Y-105183840D01*
X144795592Y-105220290D01*
X144753496Y-105277460D01*
X144720290Y-105295592D01*
X144683840Y-105308859D01*
X144683836Y-105308862D01*
X144645444Y-105338320D01*
X144645427Y-105338335D01*
X144484781Y-105498981D01*
X144484766Y-105498998D01*
X144455307Y-105537390D01*
X144442040Y-105573842D01*
X144399944Y-105631013D01*
X144366735Y-105649147D01*
X144330283Y-105662414D01*
X144291891Y-105691873D01*
X144291874Y-105691888D01*
X144131228Y-105852534D01*
X144131213Y-105852551D01*
X144101754Y-105890943D01*
X144088487Y-105927395D01*
X144046391Y-105984566D01*
X144013182Y-106002700D01*
X143976730Y-106015967D01*
X143938338Y-106045426D01*
X143938321Y-106045441D01*
X143777675Y-106206087D01*
X143777660Y-106206104D01*
X143748202Y-106244496D01*
X143748199Y-106244500D01*
X143734932Y-106280950D01*
X143692836Y-106338120D01*
X143659630Y-106356252D01*
X143623180Y-106369519D01*
X143623176Y-106369522D01*
X143584784Y-106398980D01*
X143584767Y-106398995D01*
X143424121Y-106559641D01*
X143424106Y-106559658D01*
X143394647Y-106598050D01*
X143381380Y-106634502D01*
X143339284Y-106691673D01*
X143306075Y-106709807D01*
X143269623Y-106723074D01*
X143231231Y-106752533D01*
X143231214Y-106752548D01*
X143070568Y-106913194D01*
X143070553Y-106913211D01*
X143041095Y-106951603D01*
X143041092Y-106951607D01*
X143027825Y-106988057D01*
X142985729Y-107045227D01*
X142952523Y-107063359D01*
X142916073Y-107076626D01*
X142916069Y-107076629D01*
X142877677Y-107106087D01*
X142877660Y-107106102D01*
X142717014Y-107266748D01*
X142716999Y-107266765D01*
X142687540Y-107305157D01*
X142667763Y-107359496D01*
X142647797Y-107414351D01*
X142647797Y-107530550D01*
X142672913Y-107599556D01*
X142687540Y-107639743D01*
X142716999Y-107678135D01*
X142717014Y-107678152D01*
X142837643Y-107798781D01*
X142871669Y-107861093D01*
X142866604Y-107931908D01*
X142837643Y-107976971D01*
X139506020Y-111308595D01*
X139443708Y-111342621D01*
X139416925Y-111345500D01*
X138919827Y-111345500D01*
X138851706Y-111325498D01*
X138805213Y-111271842D01*
X138795109Y-111201568D01*
X138824603Y-111136988D01*
X138830732Y-111130405D01*
X141824892Y-108136245D01*
X142282995Y-107678142D01*
X142312460Y-107639742D01*
X142352203Y-107530550D01*
X142352203Y-107414351D01*
X142312460Y-107305159D01*
X142312459Y-107305158D01*
X142312459Y-107305157D01*
X142283000Y-107266765D01*
X142282985Y-107266748D01*
X142122339Y-107106102D01*
X142122322Y-107106087D01*
X142088245Y-107079940D01*
X142083929Y-107076628D01*
X142083928Y-107076627D01*
X142047477Y-107063360D01*
X141990306Y-107021264D01*
X141972172Y-106988053D01*
X141970028Y-106982163D01*
X141958906Y-106951605D01*
X141958905Y-106951604D01*
X141958906Y-106951604D01*
X141929446Y-106913211D01*
X141929431Y-106913194D01*
X141768785Y-106752548D01*
X141768768Y-106752533D01*
X141730376Y-106723075D01*
X141730375Y-106723074D01*
X141693923Y-106709806D01*
X141636753Y-106667712D01*
X141618618Y-106634499D01*
X141605353Y-106598052D01*
X141575888Y-106559652D01*
X141575885Y-106559649D01*
X141575878Y-106559641D01*
X141415232Y-106398995D01*
X141415215Y-106398980D01*
X141376823Y-106369522D01*
X141376821Y-106369520D01*
X141340370Y-106356253D01*
X141283199Y-106314157D01*
X141265065Y-106280946D01*
X141261411Y-106270907D01*
X141251799Y-106244498D01*
X141251798Y-106244497D01*
X141251799Y-106244497D01*
X141222339Y-106206104D01*
X141222324Y-106206087D01*
X141219128Y-106202891D01*
X141185102Y-106140579D01*
X141183301Y-106097348D01*
X141188450Y-106058235D01*
X141168689Y-105908131D01*
X141168688Y-105908127D01*
X141110753Y-105768261D01*
X141110749Y-105768254D01*
X141064634Y-105708155D01*
X140854011Y-105918779D01*
X140791699Y-105952805D01*
X140720884Y-105947740D01*
X140664048Y-105905193D01*
X140639237Y-105838673D01*
X140654328Y-105769299D01*
X140655777Y-105766717D01*
X140704786Y-105681834D01*
X140709990Y-105662408D01*
X140742602Y-105605923D01*
X140852502Y-105496023D01*
X140785853Y-105444882D01*
X140787225Y-105443092D01*
X140746350Y-105400211D01*
X140732352Y-105342491D01*
X140732352Y-104780288D01*
X140731747Y-104778031D01*
X140704786Y-104677409D01*
X140704786Y-104677408D01*
X140684238Y-104641818D01*
X140651533Y-104585172D01*
X140651531Y-104585169D01*
X138769120Y-102702759D01*
X138735095Y-102640447D01*
X138734190Y-102628302D01*
X138482116Y-102376229D01*
X138452812Y-102330231D01*
X138433386Y-102276861D01*
X138428884Y-102206010D01*
X138463402Y-102143970D01*
X138525982Y-102110440D01*
X138594880Y-102115367D01*
X138648253Y-102134794D01*
X138694251Y-102164098D01*
X138943315Y-102413163D01*
X138989428Y-102353067D01*
X138989429Y-102353065D01*
X139047370Y-102213186D01*
X139051026Y-102185415D01*
X139079746Y-102120487D01*
X139139011Y-102081394D01*
X139210002Y-102080547D01*
X139270182Y-102118216D01*
X139275910Y-102125154D01*
X139318865Y-102181134D01*
X139445142Y-102278031D01*
X139531826Y-102313935D01*
X139592194Y-102338940D01*
X139750000Y-102359716D01*
X139907806Y-102338940D01*
X140000536Y-102300530D01*
X140054857Y-102278031D01*
X140181134Y-102181134D01*
X140278031Y-102054857D01*
X140317038Y-101960682D01*
X140338940Y-101907806D01*
X140359716Y-101750000D01*
X140338940Y-101592194D01*
X140308130Y-101517811D01*
X140278031Y-101445142D01*
X140179304Y-101316480D01*
X140157988Y-101265021D01*
X140156637Y-101265384D01*
X140149775Y-101239773D01*
X140126934Y-101154529D01*
X140124313Y-101149990D01*
X140108988Y-101123445D01*
X140108988Y-101123444D01*
X140078196Y-101070111D01*
X140061458Y-101001116D01*
X140084678Y-100934024D01*
X140098216Y-100918018D01*
X140161674Y-100854562D01*
X140191139Y-100816162D01*
X140204406Y-100779711D01*
X140246497Y-100722541D01*
X140279708Y-100704407D01*
X140316162Y-100691139D01*
X140354562Y-100661674D01*
X140515228Y-100501008D01*
X140544693Y-100462608D01*
X140557958Y-100426160D01*
X140600051Y-100368989D01*
X140633266Y-100350851D01*
X140669715Y-100337586D01*
X140708115Y-100308121D01*
X140868781Y-100147455D01*
X140898246Y-100109055D01*
X140911511Y-100072607D01*
X140953604Y-100015436D01*
X140986819Y-99997298D01*
X141023268Y-99984033D01*
X141053576Y-99960776D01*
X141119791Y-99935178D01*
X141189340Y-99949442D01*
X141240137Y-99999043D01*
X141256053Y-100068232D01*
X141252823Y-100088176D01*
X141231518Y-100250000D01*
X141252294Y-100407806D01*
X141313202Y-100554857D01*
X141410099Y-100681134D01*
X141536376Y-100778031D01*
X141618844Y-100812189D01*
X141683428Y-100838940D01*
X141841234Y-100859716D01*
X141999040Y-100838940D01*
X142091770Y-100800530D01*
X142146091Y-100778031D01*
X142272368Y-100681134D01*
X142369265Y-100554857D01*
X142396590Y-100488887D01*
X142430174Y-100407806D01*
X142450950Y-100250000D01*
X142450011Y-100242870D01*
X142460946Y-100172724D01*
X142465817Y-100163412D01*
X142476686Y-100144589D01*
X142478971Y-100145908D01*
X142515281Y-100100843D01*
X142582643Y-100078417D01*
X142629804Y-100086923D01*
X142629837Y-100086803D01*
X142631284Y-100087190D01*
X142635368Y-100087927D01*
X142637813Y-100088940D01*
X142795619Y-100109716D01*
X142953425Y-100088940D01*
X143085789Y-100034114D01*
X143100473Y-100028032D01*
X143100473Y-100028031D01*
X143100477Y-100028030D01*
X143226753Y-99931134D01*
X143226754Y-99931132D01*
X143227529Y-99930538D01*
X143293750Y-99904937D01*
X143304234Y-99904500D01*
X143434541Y-99904500D01*
X143502662Y-99924502D01*
G37*
%TD.AperFunction*%
%TA.AperFunction,Conductor*%
G36*
X126477619Y-109130405D02*
G01*
X126511645Y-109192717D01*
X126506580Y-109263532D01*
X126464033Y-109320368D01*
X126397513Y-109345179D01*
X126388524Y-109345500D01*
X126053253Y-109345500D01*
X125946747Y-109345500D01*
X125891617Y-109360271D01*
X125843871Y-109373065D01*
X125843864Y-109373068D01*
X125751634Y-109426317D01*
X125751624Y-109426325D01*
X124712797Y-110465153D01*
X124650485Y-110499179D01*
X124579670Y-110494114D01*
X124522834Y-110451567D01*
X124498023Y-110385047D01*
X124511436Y-110318854D01*
X124549866Y-110243432D01*
X124549866Y-110243430D01*
X124549868Y-110243427D01*
X124564500Y-110151045D01*
X124564499Y-109808956D01*
X124555624Y-109752920D01*
X124564724Y-109682513D01*
X124590978Y-109644118D01*
X124679719Y-109555377D01*
X124712469Y-109500000D01*
X125450000Y-109500000D01*
X125450000Y-108102786D01*
X126477619Y-109130405D01*
G37*
%TD.AperFunction*%
%TA.AperFunction,Conductor*%
G36*
X138589720Y-108597038D02*
G01*
X138636213Y-108650694D01*
X138646317Y-108720968D01*
X138616823Y-108785548D01*
X138610694Y-108792131D01*
X137101730Y-110301095D01*
X137039418Y-110335121D01*
X137012635Y-110338000D01*
X136458470Y-110338000D01*
X136431224Y-110330000D01*
X135461000Y-110330000D01*
X135392879Y-110309998D01*
X135346386Y-110256342D01*
X135335000Y-110204000D01*
X135335000Y-109956000D01*
X135355002Y-109887879D01*
X135408658Y-109841386D01*
X135461000Y-109830000D01*
X136389505Y-109830000D01*
X136389505Y-109829999D01*
X136347030Y-109683802D01*
X136280710Y-109571662D01*
X136263250Y-109502846D01*
X136285766Y-109435514D01*
X136300068Y-109418427D01*
X136594929Y-109123566D01*
X136657241Y-109089540D01*
X136728056Y-109094605D01*
X136783986Y-109135957D01*
X136877964Y-109258431D01*
X137004241Y-109355328D01*
X137084604Y-109388614D01*
X137151293Y-109416237D01*
X137309099Y-109437013D01*
X137466905Y-109416237D01*
X137571133Y-109373065D01*
X137613956Y-109355328D01*
X137740233Y-109258431D01*
X137837130Y-109132154D01*
X137862069Y-109071944D01*
X137898039Y-108985103D01*
X137909299Y-108899568D01*
X137938021Y-108834643D01*
X137945104Y-108826943D01*
X137982033Y-108790014D01*
X138044343Y-108755992D01*
X138071125Y-108753113D01*
X138144284Y-108753113D01*
X138144285Y-108753113D01*
X138263133Y-108714497D01*
X138338804Y-108659520D01*
X138384382Y-108613940D01*
X138446694Y-108579916D01*
X138473478Y-108577036D01*
X138521599Y-108577036D01*
X138589720Y-108597038D01*
G37*
%TD.AperFunction*%
%TA.AperFunction,Conductor*%
G36*
X123309506Y-103174502D02*
G01*
X123318090Y-103180538D01*
X123318864Y-103181132D01*
X123318866Y-103181134D01*
X123443220Y-103276555D01*
X123445145Y-103278032D01*
X123525219Y-103311198D01*
X123547147Y-103320281D01*
X123602428Y-103364828D01*
X123614135Y-103400000D01*
X123000000Y-103400000D01*
X123000000Y-109500000D01*
X123227750Y-109500000D01*
X123198675Y-109544960D01*
X123134011Y-109574268D01*
X123116435Y-109575500D01*
X122485151Y-109575500D01*
X122417030Y-109555498D01*
X122415149Y-109554265D01*
X122349301Y-109510266D01*
X122349300Y-109510265D01*
X122338983Y-109503372D01*
X122340956Y-109500417D01*
X122301993Y-109469012D01*
X122279580Y-109401646D01*
X122279500Y-109397163D01*
X122279500Y-105102837D01*
X122299502Y-105034716D01*
X122340622Y-104999084D01*
X122338982Y-104996629D01*
X122349301Y-104989734D01*
X122433484Y-104933484D01*
X122489734Y-104849301D01*
X122504500Y-104775067D01*
X122504499Y-103869739D01*
X122524501Y-103801619D01*
X122541404Y-103780644D01*
X123130645Y-103191404D01*
X123192957Y-103157379D01*
X123219740Y-103154500D01*
X123241385Y-103154500D01*
X123309506Y-103174502D01*
G37*
%TD.AperFunction*%
%TA.AperFunction,Conductor*%
G36*
X126595440Y-105024502D02*
G01*
X126602828Y-105029632D01*
X126664609Y-105075881D01*
X126664611Y-105075882D01*
X126664613Y-105075883D01*
X126699617Y-105088939D01*
X126792115Y-105123440D01*
X126792123Y-105123442D01*
X126848466Y-105129499D01*
X126848471Y-105129499D01*
X126848478Y-105129500D01*
X126848484Y-105129500D01*
X127701516Y-105129500D01*
X127701522Y-105129500D01*
X127701529Y-105129499D01*
X127701533Y-105129499D01*
X127757876Y-105123442D01*
X127757879Y-105123441D01*
X127757881Y-105123441D01*
X127885387Y-105075883D01*
X127908631Y-105058483D01*
X127947172Y-105029632D01*
X128013692Y-105004821D01*
X128022681Y-105004500D01*
X130162153Y-105004500D01*
X130230274Y-105024502D01*
X130276767Y-105078158D01*
X130286871Y-105148432D01*
X130257377Y-105213012D01*
X130251248Y-105219595D01*
X129501631Y-105969212D01*
X129475196Y-105995647D01*
X129426321Y-106044521D01*
X129426317Y-106044526D01*
X129373068Y-106136756D01*
X129373065Y-106136763D01*
X129345500Y-106239640D01*
X129345500Y-108271047D01*
X129325498Y-108339168D01*
X129308595Y-108360143D01*
X129019233Y-108649504D01*
X128956921Y-108683529D01*
X128886105Y-108678464D01*
X128829270Y-108635917D01*
X128813729Y-108608625D01*
X128778031Y-108522439D01*
X128681134Y-108396162D01*
X128554857Y-108299265D01*
X128407806Y-108238357D01*
X128250000Y-108217581D01*
X128092193Y-108238357D01*
X127945143Y-108299266D01*
X127937990Y-108303396D01*
X127936758Y-108301263D01*
X127882192Y-108322360D01*
X127871706Y-108322797D01*
X127149144Y-108322797D01*
X127081023Y-108302795D01*
X127060049Y-108285892D01*
X126091405Y-107317248D01*
X126057379Y-107254936D01*
X126054500Y-107228153D01*
X126054500Y-107202809D01*
X126074502Y-107134688D01*
X126104994Y-107101939D01*
X126118098Y-107092130D01*
X126184619Y-107067321D01*
X126193604Y-107067000D01*
X126453425Y-107067000D01*
X126521546Y-107087002D01*
X126554293Y-107117491D01*
X126555669Y-107119330D01*
X126644010Y-107185460D01*
X126664613Y-107200883D01*
X126681917Y-107207337D01*
X126792115Y-107248440D01*
X126792123Y-107248442D01*
X126848466Y-107254499D01*
X126848471Y-107254499D01*
X126848478Y-107254500D01*
X126848484Y-107254500D01*
X127701516Y-107254500D01*
X127701522Y-107254500D01*
X127701529Y-107254499D01*
X127701533Y-107254499D01*
X127757876Y-107248442D01*
X127757879Y-107248441D01*
X127757881Y-107248441D01*
X127767083Y-107245009D01*
X127812274Y-107228153D01*
X127885387Y-107200883D01*
X127994330Y-107119330D01*
X128075883Y-107010387D01*
X128123441Y-106882881D01*
X128124200Y-106875826D01*
X128129499Y-106826533D01*
X128129500Y-106826516D01*
X128129500Y-106298483D01*
X128129499Y-106298466D01*
X128123442Y-106242123D01*
X128123440Y-106242115D01*
X128096391Y-106169596D01*
X128075883Y-106114613D01*
X128062959Y-106097348D01*
X127994330Y-106005669D01*
X127885390Y-105924119D01*
X127885385Y-105924116D01*
X127757884Y-105876559D01*
X127757876Y-105876557D01*
X127701533Y-105870500D01*
X127701522Y-105870500D01*
X126848478Y-105870500D01*
X126848466Y-105870500D01*
X126792123Y-105876557D01*
X126792115Y-105876559D01*
X126664614Y-105924116D01*
X126664609Y-105924119D01*
X126555669Y-106005669D01*
X126554293Y-106007509D01*
X126552451Y-106008887D01*
X126549297Y-106012042D01*
X126548843Y-106011588D01*
X126497457Y-106050056D01*
X126453425Y-106058000D01*
X126293311Y-106058000D01*
X126225190Y-106037998D01*
X126192447Y-106007513D01*
X126117544Y-105907456D01*
X126068177Y-105870500D01*
X126007167Y-105824827D01*
X126007166Y-105824826D01*
X125975929Y-105813175D01*
X125877973Y-105776640D01*
X125870834Y-105775872D01*
X125820871Y-105770500D01*
X125820864Y-105770500D01*
X125279136Y-105770500D01*
X125279128Y-105770500D01*
X125222027Y-105776640D01*
X125092833Y-105824826D01*
X125012841Y-105884709D01*
X124946321Y-105909520D01*
X124876947Y-105894429D01*
X124830091Y-105849988D01*
X124797572Y-105797267D01*
X124797567Y-105797261D01*
X124750000Y-105749694D01*
X124750000Y-105225305D01*
X124772567Y-105202738D01*
X124772572Y-105202732D01*
X124805091Y-105150011D01*
X124857877Y-105102533D01*
X124927951Y-105091130D01*
X124987842Y-105115291D01*
X125067832Y-105175172D01*
X125067833Y-105175173D01*
X125067835Y-105175173D01*
X125067837Y-105175175D01*
X125197027Y-105223360D01*
X125254136Y-105229500D01*
X125254141Y-105229500D01*
X125795859Y-105229500D01*
X125795864Y-105229500D01*
X125852973Y-105223360D01*
X125982163Y-105175175D01*
X126092544Y-105092544D01*
X126120658Y-105054989D01*
X126177494Y-105012444D01*
X126221525Y-105004500D01*
X126527319Y-105004500D01*
X126595440Y-105024502D01*
G37*
%TD.AperFunction*%
%TA.AperFunction,Conductor*%
G36*
X163468012Y-103197551D02*
G01*
X163506396Y-103257277D01*
X163509949Y-103273066D01*
X163510501Y-103276553D01*
X163564064Y-103381677D01*
X163568674Y-103390723D01*
X163610605Y-103432654D01*
X163642222Y-103490556D01*
X163643363Y-103490251D01*
X163644622Y-103494952D01*
X163644629Y-103494964D01*
X163644634Y-103494997D01*
X163673065Y-103601103D01*
X163673068Y-103601110D01*
X163726317Y-103693340D01*
X163726319Y-103693342D01*
X163726320Y-103693344D01*
X164599528Y-104566552D01*
X164633552Y-104628863D01*
X164628488Y-104699678D01*
X164585941Y-104756514D01*
X164519421Y-104781325D01*
X164499031Y-104781129D01*
X164431573Y-104775000D01*
X164425000Y-104775000D01*
X164425000Y-106724999D01*
X164431572Y-106724999D01*
X164502101Y-106718591D01*
X164664398Y-106668017D01*
X164664399Y-106668017D01*
X164809874Y-106580074D01*
X164809879Y-106580070D01*
X164930070Y-106459879D01*
X164930074Y-106459874D01*
X165018017Y-106314399D01*
X165019934Y-106308248D01*
X165059294Y-106249161D01*
X165124351Y-106220734D01*
X165194449Y-106231991D01*
X165241609Y-106270907D01*
X165261957Y-106298478D01*
X165299991Y-106350011D01*
X165410225Y-106431368D01*
X165410232Y-106431371D01*
X165539546Y-106476620D01*
X165539549Y-106476621D01*
X165570251Y-106479500D01*
X166079748Y-106479499D01*
X166110451Y-106476621D01*
X166239773Y-106431369D01*
X166294680Y-106390844D01*
X166361365Y-106366488D01*
X166430635Y-106382050D01*
X166480495Y-106432592D01*
X166495500Y-106492225D01*
X166495500Y-107077342D01*
X166475498Y-107145463D01*
X166458595Y-107166437D01*
X166366437Y-107258595D01*
X166304125Y-107292621D01*
X166277342Y-107295500D01*
X165727754Y-107295500D01*
X165659633Y-107275498D01*
X165626886Y-107245009D01*
X165585404Y-107189596D01*
X165554467Y-107166437D01*
X165469267Y-107102658D01*
X165469265Y-107102657D01*
X165469266Y-107102657D01*
X165333349Y-107051962D01*
X165333344Y-107051960D01*
X165333342Y-107051960D01*
X165303298Y-107048730D01*
X165273256Y-107045500D01*
X164226753Y-107045500D01*
X164226729Y-107045502D01*
X164166660Y-107051959D01*
X164166658Y-107051959D01*
X164030733Y-107102657D01*
X163914595Y-107189596D01*
X163873114Y-107245009D01*
X163816278Y-107287556D01*
X163772246Y-107295500D01*
X163633581Y-107295500D01*
X163579467Y-107310000D01*
X163505269Y-107329881D01*
X163390233Y-107396297D01*
X163390227Y-107396302D01*
X162752482Y-108034046D01*
X162690170Y-108068071D01*
X162619354Y-108063006D01*
X162574291Y-108034044D01*
X162563891Y-108023644D01*
X162563888Y-108023642D01*
X162563887Y-108023641D01*
X162426996Y-107942683D01*
X162274256Y-107898308D01*
X162238575Y-107895500D01*
X161361433Y-107895500D01*
X161325744Y-107898308D01*
X161173003Y-107942683D01*
X161036112Y-108023641D01*
X161036105Y-108023646D01*
X160974595Y-108085157D01*
X160912283Y-108119183D01*
X160841468Y-108114118D01*
X160784632Y-108071571D01*
X160759821Y-108005051D01*
X160759500Y-107996062D01*
X160759500Y-106081571D01*
X163275001Y-106081571D01*
X163281408Y-106152101D01*
X163331982Y-106314398D01*
X163331982Y-106314399D01*
X163419925Y-106459874D01*
X163419929Y-106459879D01*
X163540120Y-106580070D01*
X163540125Y-106580074D01*
X163685600Y-106668017D01*
X163847898Y-106718591D01*
X163918411Y-106724999D01*
X163918424Y-106724999D01*
X163924999Y-106724998D01*
X163925000Y-106724998D01*
X163925000Y-106000000D01*
X163275001Y-106000000D01*
X163275001Y-106081571D01*
X160759500Y-106081571D01*
X160759500Y-105418427D01*
X163275000Y-105418427D01*
X163275000Y-105500000D01*
X163925000Y-105500000D01*
X163925000Y-104775000D01*
X163924999Y-104774999D01*
X163918433Y-104775000D01*
X163918422Y-104775001D01*
X163847898Y-104781408D01*
X163685601Y-104831982D01*
X163685600Y-104831982D01*
X163540125Y-104919925D01*
X163540120Y-104919929D01*
X163419929Y-105040120D01*
X163419925Y-105040125D01*
X163331982Y-105185600D01*
X163331982Y-105185601D01*
X163281408Y-105347896D01*
X163281408Y-105347900D01*
X163275000Y-105418427D01*
X160759500Y-105418427D01*
X160759500Y-104885500D01*
X160779502Y-104817379D01*
X160833158Y-104770886D01*
X160885500Y-104759500D01*
X162687588Y-104759500D01*
X162687590Y-104759500D01*
X162713026Y-104758250D01*
X162737606Y-104755829D01*
X162756696Y-104752997D01*
X162757823Y-104753080D01*
X162761253Y-104752398D01*
X162761322Y-104752385D01*
X162762783Y-104752094D01*
X162762799Y-104752092D01*
X162767644Y-104751128D01*
X162840827Y-104736572D01*
X162840839Y-104736568D01*
X162840849Y-104736567D01*
X162889530Y-104721800D01*
X162934949Y-104702987D01*
X162979812Y-104679007D01*
X163035461Y-104641824D01*
X163074786Y-104609551D01*
X163109551Y-104574786D01*
X163141824Y-104535461D01*
X163179007Y-104479812D01*
X163202987Y-104434949D01*
X163221800Y-104389530D01*
X163236566Y-104340851D01*
X163252092Y-104262799D01*
X163254258Y-104248201D01*
X163255827Y-104237629D01*
X163255833Y-104237582D01*
X163258249Y-104213042D01*
X163258250Y-104213033D01*
X163258251Y-104213024D01*
X163259500Y-104187590D01*
X163259500Y-103292775D01*
X163279502Y-103224654D01*
X163333158Y-103178161D01*
X163403432Y-103168057D01*
X163468012Y-103197551D01*
G37*
%TD.AperFunction*%
%TA.AperFunction,Conductor*%
G36*
X153005930Y-107419661D02*
G01*
X153015762Y-107464856D01*
X153017316Y-107472001D01*
X153024666Y-107498791D01*
X153061983Y-107564325D01*
X153074770Y-107586779D01*
X153074775Y-107586786D01*
X153120662Y-107639742D01*
X153121262Y-107640434D01*
X153154551Y-107672556D01*
X153244270Y-107719487D01*
X153312391Y-107739489D01*
X153380135Y-107749228D01*
X153381825Y-107750000D01*
X153000000Y-107750000D01*
X153000000Y-107364506D01*
X153005930Y-107419661D01*
G37*
%TD.AperFunction*%
%TA.AperFunction,Conductor*%
G36*
X125000235Y-107148332D02*
G01*
X125039718Y-107207337D01*
X125045500Y-107245068D01*
X125045500Y-107500000D01*
X124750000Y-107500000D01*
X124750000Y-107250305D01*
X124797567Y-107202738D01*
X124797574Y-107202729D01*
X124812259Y-107178922D01*
X124865044Y-107131443D01*
X124935119Y-107120040D01*
X125000235Y-107148332D01*
G37*
%TD.AperFunction*%
%TA.AperFunction,Conductor*%
G36*
X136976722Y-106674502D02*
G01*
X137023215Y-106728158D01*
X137033319Y-106798432D01*
X137003825Y-106863012D01*
X136997709Y-106869581D01*
X136803932Y-107063359D01*
X136610470Y-107256821D01*
X136548158Y-107290846D01*
X136477342Y-107285781D01*
X136420507Y-107243234D01*
X136396831Y-107179757D01*
X136389505Y-107170000D01*
X135461000Y-107170000D01*
X135392879Y-107149998D01*
X135346386Y-107096342D01*
X135335000Y-107044000D01*
X135335000Y-106796000D01*
X135355002Y-106727879D01*
X135408658Y-106681386D01*
X135461000Y-106670000D01*
X136410030Y-106670000D01*
X136420238Y-106662381D01*
X136464101Y-106654500D01*
X136908601Y-106654500D01*
X136976722Y-106674502D01*
G37*
%TD.AperFunction*%
%TA.AperFunction,Conductor*%
G36*
X174615418Y-98810330D02*
G01*
X174673004Y-98851856D01*
X174698999Y-98917922D01*
X174699500Y-98929153D01*
X174699500Y-107070846D01*
X174679498Y-107138967D01*
X174625842Y-107185460D01*
X174555568Y-107195564D01*
X174490988Y-107166070D01*
X174452604Y-107106344D01*
X174449921Y-107095428D01*
X174436570Y-107028310D01*
X174436568Y-107028305D01*
X174361188Y-106846322D01*
X174251751Y-106682537D01*
X174251746Y-106682531D01*
X174112468Y-106543253D01*
X174112462Y-106543248D01*
X173948677Y-106433811D01*
X173766694Y-106358431D01*
X173766689Y-106358429D01*
X173573493Y-106320000D01*
X173325000Y-106320000D01*
X173325000Y-107020000D01*
X172825000Y-107020000D01*
X172825000Y-106320000D01*
X172576506Y-106320000D01*
X172383310Y-106358429D01*
X172383305Y-106358431D01*
X172201322Y-106433811D01*
X172037537Y-106543248D01*
X172037531Y-106543253D01*
X171898253Y-106682531D01*
X171898248Y-106682537D01*
X171788811Y-106846322D01*
X171746909Y-106947482D01*
X171702360Y-107002763D01*
X171634997Y-107025184D01*
X171566206Y-107007626D01*
X171517827Y-106955664D01*
X171504500Y-106899264D01*
X171504500Y-99100735D01*
X171524502Y-99032614D01*
X171578158Y-98986121D01*
X171648432Y-98976017D01*
X171713012Y-99005511D01*
X171746909Y-99052517D01*
X171788811Y-99153678D01*
X171898248Y-99317462D01*
X171898253Y-99317468D01*
X172037531Y-99456746D01*
X172037537Y-99456751D01*
X172201322Y-99566188D01*
X172383305Y-99641568D01*
X172383310Y-99641570D01*
X172576506Y-99679999D01*
X172576510Y-99680000D01*
X172825000Y-99680000D01*
X172825000Y-98980000D01*
X173325000Y-98980000D01*
X173325000Y-99680000D01*
X173573490Y-99680000D01*
X173573493Y-99679999D01*
X173766689Y-99641570D01*
X173766694Y-99641568D01*
X173948677Y-99566188D01*
X174112462Y-99456751D01*
X174112468Y-99456746D01*
X174251746Y-99317468D01*
X174251751Y-99317462D01*
X174361188Y-99153677D01*
X174436568Y-98971694D01*
X174436570Y-98971687D01*
X174449921Y-98904572D01*
X174482828Y-98841662D01*
X174544523Y-98806530D01*
X174615418Y-98810330D01*
G37*
%TD.AperFunction*%
%TA.AperFunction,Conductor*%
G36*
X168467121Y-105974501D02*
G01*
X168513614Y-106028157D01*
X168525000Y-106080499D01*
X168525000Y-106324000D01*
X168504998Y-106392121D01*
X168451342Y-106438614D01*
X168399000Y-106450000D01*
X167630500Y-106450000D01*
X167562379Y-106429998D01*
X167515886Y-106376342D01*
X167504500Y-106324000D01*
X167504500Y-106080499D01*
X167524502Y-106012378D01*
X167578158Y-105965885D01*
X167630495Y-105954499D01*
X168399001Y-105954499D01*
X168467121Y-105974501D01*
G37*
%TD.AperFunction*%
%TA.AperFunction,Conductor*%
G36*
X148544031Y-104956581D02*
G01*
X148589094Y-104985542D01*
X148603552Y-105000000D01*
X148500000Y-105000000D01*
X148209181Y-105290818D01*
X148201516Y-105276782D01*
X148206581Y-105205967D01*
X148235542Y-105160904D01*
X148410904Y-104985542D01*
X148473216Y-104951516D01*
X148544031Y-104956581D01*
G37*
%TD.AperFunction*%
%TA.AperFunction,Conductor*%
G36*
X149902266Y-104995680D02*
G01*
X149908410Y-105000000D01*
X149558783Y-105000000D01*
X149598052Y-104978558D01*
X149624836Y-104975678D01*
X149834145Y-104975678D01*
X149902266Y-104995680D01*
G37*
%TD.AperFunction*%
%TA.AperFunction,Conductor*%
G36*
X134113012Y-101685515D02*
G01*
X134119595Y-101691644D01*
X135104328Y-102676377D01*
X135138354Y-102738689D01*
X135140155Y-102749027D01*
X135143936Y-102777748D01*
X135132996Y-102847896D01*
X135085868Y-102900994D01*
X135079718Y-102904606D01*
X135052634Y-102919496D01*
X135036675Y-102933123D01*
X135675046Y-103571494D01*
X135709072Y-103633806D01*
X135704007Y-103704621D01*
X135675046Y-103749684D01*
X135499684Y-103925046D01*
X135437372Y-103959072D01*
X135366557Y-103954007D01*
X135321494Y-103925046D01*
X134683124Y-103286676D01*
X134683123Y-103286677D01*
X134669501Y-103302626D01*
X134591600Y-103444328D01*
X134551386Y-103600953D01*
X134551386Y-103762652D01*
X134562559Y-103806171D01*
X134560125Y-103877125D01*
X134519717Y-103935501D01*
X134488737Y-103953912D01*
X134445145Y-103971968D01*
X134445135Y-103971974D01*
X134318867Y-104068864D01*
X134224886Y-104191340D01*
X134167547Y-104233207D01*
X134096676Y-104237428D01*
X134035829Y-104203730D01*
X133941405Y-104109306D01*
X133907379Y-104046994D01*
X133904500Y-104020211D01*
X133904500Y-101780739D01*
X133924502Y-101712618D01*
X133978158Y-101666125D01*
X134048432Y-101656021D01*
X134113012Y-101685515D01*
G37*
%TD.AperFunction*%
%TA.AperFunction,Conductor*%
G36*
X154342512Y-101174502D02*
G01*
X154389005Y-101228158D01*
X154393321Y-101238887D01*
X154393631Y-101239773D01*
X154474989Y-101350010D01*
X154585225Y-101431368D01*
X154585232Y-101431371D01*
X154714546Y-101476620D01*
X154714549Y-101476621D01*
X154745251Y-101479500D01*
X155254748Y-101479499D01*
X155285451Y-101476621D01*
X155414773Y-101431369D01*
X155525010Y-101350010D01*
X155525011Y-101350009D01*
X155525405Y-101349616D01*
X155525941Y-101349322D01*
X155532608Y-101344403D01*
X155533281Y-101345315D01*
X155587717Y-101315590D01*
X155658532Y-101320655D01*
X155715368Y-101363202D01*
X155740179Y-101429722D01*
X155740500Y-101438711D01*
X155740500Y-101950648D01*
X155720498Y-102018769D01*
X155666842Y-102065262D01*
X155596568Y-102075366D01*
X155531988Y-102045872D01*
X155525405Y-102039743D01*
X155443350Y-101957688D01*
X155443344Y-101957683D01*
X155294122Y-101865642D01*
X155127691Y-101810493D01*
X155024987Y-101800000D01*
X154750000Y-101800000D01*
X154750000Y-102924000D01*
X154729998Y-102992121D01*
X154676342Y-103038614D01*
X154624000Y-103050000D01*
X153275001Y-103050000D01*
X153275001Y-103099978D01*
X153285493Y-103202691D01*
X153340643Y-103369124D01*
X153346450Y-103378539D01*
X153365184Y-103447019D01*
X153343922Y-103514757D01*
X153298604Y-103555802D01*
X153270191Y-103570989D01*
X153270175Y-103570998D01*
X153214539Y-103608174D01*
X153214531Y-103608179D01*
X153175215Y-103640446D01*
X153175193Y-103640466D01*
X153140466Y-103675193D01*
X153140446Y-103675215D01*
X153108179Y-103714531D01*
X153108177Y-103714534D01*
X153070987Y-103770194D01*
X153047008Y-103815059D01*
X153028199Y-103860468D01*
X153028199Y-103860470D01*
X153016798Y-103898056D01*
X153014365Y-103906076D01*
X152975449Y-103965457D01*
X152910608Y-103994373D01*
X152893790Y-103995500D01*
X150628294Y-103995500D01*
X150562040Y-103976046D01*
X150562010Y-103976099D01*
X150561792Y-103975973D01*
X150560173Y-103975498D01*
X150556521Y-103972930D01*
X150554856Y-103971969D01*
X150407806Y-103911060D01*
X150250000Y-103890284D01*
X150092193Y-103911060D01*
X149945142Y-103971968D01*
X149818867Y-104068864D01*
X149781637Y-104117383D01*
X149724298Y-104159250D01*
X149681675Y-104166678D01*
X149582409Y-104166678D01*
X149514288Y-104146676D01*
X149493314Y-104129774D01*
X149414608Y-104051069D01*
X149372136Y-104020211D01*
X149338940Y-103996092D01*
X149338938Y-103996091D01*
X149338933Y-103996088D01*
X149220092Y-103957476D01*
X149095126Y-103957476D01*
X149070563Y-103965457D01*
X148976279Y-103996091D01*
X148946348Y-104017837D01*
X148900607Y-104051069D01*
X148859483Y-104092194D01*
X148855029Y-104096648D01*
X148792717Y-104130673D01*
X148765933Y-104133553D01*
X148146880Y-104133553D01*
X148078759Y-104113551D01*
X148057785Y-104096648D01*
X147580732Y-103619595D01*
X147546706Y-103557283D01*
X147551771Y-103486468D01*
X147594318Y-103429632D01*
X147660838Y-103404821D01*
X147669827Y-103404500D01*
X148553251Y-103404500D01*
X148553253Y-103404500D01*
X148656131Y-103376934D01*
X148748369Y-103323680D01*
X149572037Y-102500012D01*
X153275000Y-102500012D01*
X153275000Y-102550000D01*
X154250000Y-102550000D01*
X154250000Y-101800000D01*
X153975021Y-101800000D01*
X153872308Y-101810493D01*
X153705877Y-101865642D01*
X153556655Y-101957683D01*
X153556649Y-101957688D01*
X153432688Y-102081649D01*
X153432683Y-102081655D01*
X153340642Y-102230877D01*
X153285493Y-102397308D01*
X153275000Y-102500012D01*
X149572037Y-102500012D01*
X149812619Y-102259430D01*
X150880645Y-101191405D01*
X150942957Y-101157379D01*
X150969740Y-101154500D01*
X154274391Y-101154500D01*
X154342512Y-101174502D01*
G37*
%TD.AperFunction*%
%TA.AperFunction,Conductor*%
G36*
X165768166Y-103554500D02*
G01*
X165768169Y-103554500D01*
X165944259Y-103554500D01*
X166012380Y-103574502D01*
X166058873Y-103628158D01*
X166068977Y-103698432D01*
X166039483Y-103763012D01*
X166033355Y-103769595D01*
X165744356Y-104058595D01*
X165682043Y-104092620D01*
X165655260Y-104095500D01*
X165324764Y-104095500D01*
X165256643Y-104075498D01*
X165235669Y-104058595D01*
X165187035Y-104009961D01*
X165153009Y-103947649D01*
X165158074Y-103876834D01*
X165200621Y-103819998D01*
X165246607Y-103799925D01*
X165246308Y-103798896D01*
X165410202Y-103751280D01*
X165551552Y-103667685D01*
X165551555Y-103667683D01*
X165633483Y-103585755D01*
X165695795Y-103551730D01*
X165742286Y-103550401D01*
X165768166Y-103554500D01*
G37*
%TD.AperFunction*%
%TA.AperFunction,Conductor*%
G36*
X124478346Y-102947353D02*
G01*
X124503150Y-102966621D01*
X124983595Y-103447066D01*
X125017621Y-103509378D01*
X125020500Y-103536161D01*
X125020500Y-103754931D01*
X125000498Y-103823052D01*
X124946842Y-103869545D01*
X124876568Y-103879649D01*
X124811988Y-103850155D01*
X124787260Y-103821079D01*
X124772574Y-103797269D01*
X124772567Y-103797261D01*
X124750000Y-103774694D01*
X124750000Y-103400000D01*
X123970068Y-103400000D01*
X123967346Y-103381068D01*
X123996840Y-103316488D01*
X124043848Y-103282590D01*
X124054858Y-103278030D01*
X124181134Y-103181134D01*
X124278030Y-103054858D01*
X124297646Y-103007499D01*
X124342192Y-102952219D01*
X124409555Y-102929796D01*
X124478346Y-102947353D01*
G37*
%TD.AperFunction*%
%TA.AperFunction,Conductor*%
G36*
X132398917Y-97674502D02*
G01*
X132407501Y-97680538D01*
X132408275Y-97681132D01*
X132408277Y-97681134D01*
X132534553Y-97778030D01*
X132534556Y-97778032D01*
X132600317Y-97805270D01*
X132681605Y-97838940D01*
X132839411Y-97859716D01*
X132839411Y-97859715D01*
X132840385Y-97859844D01*
X132905312Y-97888567D01*
X132913033Y-97895671D01*
X135552747Y-100535385D01*
X135586773Y-100597697D01*
X135581708Y-100668512D01*
X135539161Y-100725348D01*
X135494987Y-100746521D01*
X135401906Y-100770419D01*
X135401900Y-100770422D01*
X135268493Y-100843761D01*
X135660590Y-101235858D01*
X136406236Y-101981505D01*
X136479578Y-101848097D01*
X136507870Y-101737905D01*
X136544184Y-101676899D01*
X136607716Y-101645209D01*
X136678295Y-101652899D01*
X136719007Y-101680144D01*
X137368441Y-102329578D01*
X137402467Y-102391890D01*
X137397402Y-102462705D01*
X137354855Y-102519541D01*
X137288335Y-102544352D01*
X137279346Y-102544673D01*
X136403447Y-102544673D01*
X136335326Y-102524671D01*
X136288833Y-102471015D01*
X136287050Y-102466920D01*
X136278030Y-102445142D01*
X136278028Y-102445139D01*
X136181134Y-102318865D01*
X136054857Y-102221968D01*
X135907800Y-102161057D01*
X135900627Y-102159135D01*
X135844150Y-102126526D01*
X135660589Y-101942964D01*
X135647030Y-101942964D01*
X135614580Y-101960682D01*
X135543765Y-101955616D01*
X135498705Y-101926656D01*
X135323343Y-101751294D01*
X135289317Y-101688982D01*
X135294382Y-101618167D01*
X135307036Y-101598477D01*
X135307036Y-101589410D01*
X134914940Y-101197314D01*
X134852610Y-101206186D01*
X134852182Y-101203179D01*
X134824378Y-101209143D01*
X134757929Y-101184140D01*
X134744635Y-101172586D01*
X131498375Y-97926325D01*
X131498365Y-97926317D01*
X131434801Y-97889619D01*
X131385808Y-97838237D01*
X131372372Y-97768523D01*
X131398758Y-97702612D01*
X131456590Y-97661430D01*
X131497801Y-97654500D01*
X132330796Y-97654500D01*
X132398917Y-97674502D01*
G37*
%TD.AperFunction*%
%TA.AperFunction,Conductor*%
G36*
X127023762Y-100424502D02*
G01*
X127070255Y-100478158D01*
X127074571Y-100488887D01*
X127074881Y-100489773D01*
X127156238Y-100600008D01*
X127156239Y-100600008D01*
X127156240Y-100600010D01*
X127184919Y-100621176D01*
X127190756Y-100625484D01*
X127233688Y-100682029D01*
X127239234Y-100752809D01*
X127205633Y-100815351D01*
X127181119Y-100834691D01*
X127040125Y-100919925D01*
X127040120Y-100919929D01*
X126919929Y-101040120D01*
X126919925Y-101040125D01*
X126831982Y-101185600D01*
X126831982Y-101185601D01*
X126781408Y-101347896D01*
X126781408Y-101347900D01*
X126775000Y-101418427D01*
X126775000Y-101500000D01*
X127799000Y-101500000D01*
X127867121Y-101520002D01*
X127913614Y-101573658D01*
X127925000Y-101626000D01*
X127925000Y-101874000D01*
X127904998Y-101942121D01*
X127851342Y-101988614D01*
X127799000Y-102000000D01*
X126775001Y-102000000D01*
X126775001Y-102044500D01*
X126754999Y-102112621D01*
X126701343Y-102159114D01*
X126649001Y-102170500D01*
X126544739Y-102170500D01*
X126476618Y-102150498D01*
X126455644Y-102133595D01*
X126145671Y-101823622D01*
X126111645Y-101761310D01*
X126109844Y-101750974D01*
X126109716Y-101750000D01*
X126088940Y-101592194D01*
X126058130Y-101517811D01*
X126028031Y-101445142D01*
X125931134Y-101318865D01*
X125804857Y-101221969D01*
X125744354Y-101196908D01*
X125689073Y-101152360D01*
X125666652Y-101084996D01*
X125684210Y-101016205D01*
X125736172Y-100967827D01*
X125792568Y-100954499D01*
X126235158Y-100954499D01*
X126294500Y-100948120D01*
X126428741Y-100898051D01*
X126429928Y-100897163D01*
X126543439Y-100812189D01*
X126629299Y-100697494D01*
X126629299Y-100697493D01*
X126629301Y-100697491D01*
X126679370Y-100563250D01*
X126684339Y-100517029D01*
X126711509Y-100451438D01*
X126769827Y-100410948D01*
X126809617Y-100404500D01*
X126955641Y-100404500D01*
X127023762Y-100424502D01*
G37*
%TD.AperFunction*%
%TA.AperFunction,Conductor*%
G36*
X168209204Y-98959556D02*
G01*
X168285504Y-98980000D01*
X168469719Y-98980000D01*
X168513614Y-99030658D01*
X168525000Y-99083000D01*
X168525000Y-99919500D01*
X168504998Y-99987621D01*
X168451342Y-100034114D01*
X168399000Y-100045500D01*
X167630500Y-100045500D01*
X167562379Y-100025498D01*
X167515886Y-99971842D01*
X167504500Y-99919500D01*
X167504500Y-99676000D01*
X167524502Y-99607879D01*
X167578158Y-99561386D01*
X167630500Y-99550000D01*
X168025000Y-99550000D01*
X168025000Y-99083000D01*
X168045002Y-99014879D01*
X168098658Y-98968386D01*
X168151000Y-98957000D01*
X168204777Y-98957000D01*
X168209204Y-98959556D01*
G37*
%TD.AperFunction*%
%TA.AperFunction,Conductor*%
G36*
X172003525Y-91300697D02*
G01*
X172295185Y-91317077D01*
X172309221Y-91318658D01*
X172593727Y-91366998D01*
X172607485Y-91370138D01*
X172884792Y-91450029D01*
X172898123Y-91454694D01*
X173164742Y-91565131D01*
X173177452Y-91571252D01*
X173430026Y-91710844D01*
X173441985Y-91718358D01*
X173677341Y-91885352D01*
X173688388Y-91894162D01*
X173903558Y-92086450D01*
X173913549Y-92096441D01*
X174105837Y-92311611D01*
X174114647Y-92322658D01*
X174281641Y-92558014D01*
X174289158Y-92569978D01*
X174428740Y-92822533D01*
X174434871Y-92835264D01*
X174545304Y-93101873D01*
X174549971Y-93115210D01*
X174629859Y-93392506D01*
X174633003Y-93406281D01*
X174681340Y-93690776D01*
X174682922Y-93704817D01*
X174699302Y-93996474D01*
X174699500Y-94003539D01*
X174699500Y-98430846D01*
X174679498Y-98498967D01*
X174625842Y-98545460D01*
X174555568Y-98555564D01*
X174490988Y-98526070D01*
X174452604Y-98466344D01*
X174449921Y-98455428D01*
X174436570Y-98388310D01*
X174436568Y-98388305D01*
X174361188Y-98206322D01*
X174251751Y-98042537D01*
X174251746Y-98042531D01*
X174112468Y-97903253D01*
X174112462Y-97903248D01*
X173948677Y-97793811D01*
X173766694Y-97718431D01*
X173766689Y-97718429D01*
X173573493Y-97680000D01*
X173325000Y-97680000D01*
X173325000Y-98380000D01*
X172825000Y-98380000D01*
X172825000Y-97680000D01*
X172576506Y-97680000D01*
X172383310Y-97718429D01*
X172383305Y-97718431D01*
X172201322Y-97793811D01*
X172037537Y-97903248D01*
X172037531Y-97903253D01*
X171898253Y-98042531D01*
X171898248Y-98042537D01*
X171788811Y-98206322D01*
X171713429Y-98388309D01*
X171713427Y-98388316D01*
X171705136Y-98429999D01*
X171705137Y-98430000D01*
X172508012Y-98430000D01*
X172490795Y-98439940D01*
X172434940Y-98495795D01*
X172395444Y-98564204D01*
X172375000Y-98640504D01*
X172375000Y-98719496D01*
X172395444Y-98795796D01*
X172434940Y-98864205D01*
X172490795Y-98920060D01*
X172508012Y-98930000D01*
X171688477Y-98930000D01*
X171667574Y-98944237D01*
X171596603Y-98946135D01*
X171535872Y-98909362D01*
X171508120Y-98852657D01*
X171506637Y-98853055D01*
X171504500Y-98845078D01*
X171470119Y-98716767D01*
X171437080Y-98659542D01*
X171403701Y-98601727D01*
X171403698Y-98601724D01*
X171403695Y-98601720D01*
X170128279Y-97326304D01*
X170128275Y-97326301D01*
X170128273Y-97326299D01*
X170047874Y-97279881D01*
X170015402Y-97261133D01*
X170013237Y-97259883D01*
X170013234Y-97259882D01*
X170013233Y-97259881D01*
X170013231Y-97259880D01*
X170013230Y-97259880D01*
X169943257Y-97241131D01*
X169884922Y-97225500D01*
X169884920Y-97225500D01*
X167630500Y-97225500D01*
X167562379Y-97205498D01*
X167515886Y-97151842D01*
X167504500Y-97099500D01*
X167504500Y-95433582D01*
X167497120Y-95406039D01*
X167470119Y-95305270D01*
X167454392Y-95278030D01*
X167454391Y-95278028D01*
X167403703Y-95190233D01*
X167403698Y-95190227D01*
X167150899Y-94937428D01*
X166874227Y-94660756D01*
X166841137Y-94600155D01*
X166841078Y-94600172D01*
X166841012Y-94599925D01*
X166840204Y-94598446D01*
X166839437Y-94594050D01*
X166838940Y-94592195D01*
X166835378Y-94583596D01*
X166805136Y-94510582D01*
X166778031Y-94445142D01*
X166681134Y-94318865D01*
X166554859Y-94221970D01*
X166551389Y-94219967D01*
X166549046Y-94217510D01*
X166548306Y-94216942D01*
X166548394Y-94216826D01*
X166502396Y-94168585D01*
X166488960Y-94098871D01*
X166515346Y-94032960D01*
X166525286Y-94021761D01*
X166547051Y-93999996D01*
X169745172Y-93999996D01*
X169745172Y-94000003D01*
X169764461Y-94294309D01*
X169764463Y-94294324D01*
X169822003Y-94583593D01*
X169822004Y-94583597D01*
X169916810Y-94862881D01*
X169916814Y-94862891D01*
X170047260Y-95127411D01*
X170211124Y-95372651D01*
X170211127Y-95372655D01*
X170240404Y-95406039D01*
X170240406Y-95406039D01*
X171063708Y-94582736D01*
X171160967Y-94716602D01*
X171283398Y-94839033D01*
X171417261Y-94936289D01*
X170593959Y-95759592D01*
X170593959Y-95759594D01*
X170627344Y-95788872D01*
X170627348Y-95788875D01*
X170872588Y-95952739D01*
X171137108Y-96083185D01*
X171137118Y-96083189D01*
X171416402Y-96177995D01*
X171416406Y-96177996D01*
X171705675Y-96235536D01*
X171705690Y-96235538D01*
X171999997Y-96254828D01*
X172000003Y-96254828D01*
X172294309Y-96235538D01*
X172294324Y-96235536D01*
X172583593Y-96177996D01*
X172583597Y-96177995D01*
X172862881Y-96083189D01*
X172862891Y-96083185D01*
X173127411Y-95952739D01*
X173372650Y-95788876D01*
X173406040Y-95759593D01*
X172582737Y-94936290D01*
X172716602Y-94839033D01*
X172839033Y-94716602D01*
X172936290Y-94582737D01*
X173759593Y-95406040D01*
X173788876Y-95372650D01*
X173952739Y-95127411D01*
X174083185Y-94862891D01*
X174083189Y-94862881D01*
X174177995Y-94583597D01*
X174177996Y-94583593D01*
X174235536Y-94294324D01*
X174235538Y-94294309D01*
X174254828Y-94000003D01*
X174254828Y-93999996D01*
X174235538Y-93705690D01*
X174235536Y-93705675D01*
X174177996Y-93416406D01*
X174177995Y-93416402D01*
X174083189Y-93137118D01*
X174083185Y-93137108D01*
X173952739Y-92872588D01*
X173788875Y-92627348D01*
X173788872Y-92627344D01*
X173759594Y-92593959D01*
X173759592Y-92593959D01*
X172936289Y-93417261D01*
X172839033Y-93283398D01*
X172716602Y-93160967D01*
X172582736Y-93063709D01*
X173406039Y-92240406D01*
X173406039Y-92240404D01*
X173372655Y-92211127D01*
X173372651Y-92211124D01*
X173127411Y-92047260D01*
X172862891Y-91916814D01*
X172862881Y-91916810D01*
X172583597Y-91822004D01*
X172583593Y-91822003D01*
X172294324Y-91764463D01*
X172294309Y-91764461D01*
X172000003Y-91745172D01*
X171999997Y-91745172D01*
X171705690Y-91764461D01*
X171705675Y-91764463D01*
X171416406Y-91822003D01*
X171416402Y-91822004D01*
X171137118Y-91916810D01*
X171137108Y-91916814D01*
X170872588Y-92047260D01*
X170627346Y-92211125D01*
X170593959Y-92240403D01*
X170593959Y-92240406D01*
X171417262Y-93063709D01*
X171283398Y-93160967D01*
X171160967Y-93283398D01*
X171063709Y-93417262D01*
X170240406Y-92593959D01*
X170240403Y-92593959D01*
X170211125Y-92627346D01*
X170047260Y-92872588D01*
X169916814Y-93137108D01*
X169916810Y-93137118D01*
X169822004Y-93416402D01*
X169822003Y-93416406D01*
X169764463Y-93705675D01*
X169764461Y-93705690D01*
X169745172Y-93999996D01*
X166547051Y-93999996D01*
X166635519Y-93911528D01*
X166697829Y-93877504D01*
X166768644Y-93882569D01*
X166770020Y-93883092D01*
X166831444Y-93906888D01*
X167032653Y-93944500D01*
X167032655Y-93944500D01*
X167237345Y-93944500D01*
X167237347Y-93944500D01*
X167438556Y-93906888D01*
X167629427Y-93832944D01*
X167803462Y-93725186D01*
X167954732Y-93587285D01*
X167956147Y-93585412D01*
X167987155Y-93544350D01*
X168078088Y-93423935D01*
X168169328Y-93240701D01*
X168225345Y-93043821D01*
X168239027Y-92896175D01*
X168244232Y-92840004D01*
X168244232Y-92839995D01*
X168225345Y-92636180D01*
X168217897Y-92610002D01*
X168169328Y-92439299D01*
X168078088Y-92256065D01*
X168037538Y-92202368D01*
X167954733Y-92092715D01*
X167803463Y-91954814D01*
X167629433Y-91847059D01*
X167629428Y-91847057D01*
X167629427Y-91847056D01*
X167629422Y-91847054D01*
X167438559Y-91773113D01*
X167438560Y-91773113D01*
X167438557Y-91773112D01*
X167438556Y-91773112D01*
X167237347Y-91735500D01*
X167032653Y-91735500D01*
X166877713Y-91764463D01*
X166831439Y-91773113D01*
X166640577Y-91847054D01*
X166640566Y-91847059D01*
X166466536Y-91954814D01*
X166315266Y-92092715D01*
X166191913Y-92256063D01*
X166100671Y-92439301D01*
X166044654Y-92636180D01*
X166025768Y-92839995D01*
X166025768Y-92840004D01*
X166044654Y-93043819D01*
X166094048Y-93217420D01*
X166093452Y-93288414D01*
X166061953Y-93340996D01*
X162594356Y-96808595D01*
X162532044Y-96842620D01*
X162505261Y-96845500D01*
X161465739Y-96845500D01*
X161397618Y-96825498D01*
X161351125Y-96771842D01*
X161341021Y-96701568D01*
X161370515Y-96636988D01*
X161376644Y-96630405D01*
X162054733Y-95952316D01*
X164095519Y-93911528D01*
X164157829Y-93877505D01*
X164228644Y-93882569D01*
X164230020Y-93883092D01*
X164291444Y-93906888D01*
X164492653Y-93944500D01*
X164492655Y-93944500D01*
X164697345Y-93944500D01*
X164697347Y-93944500D01*
X164898556Y-93906888D01*
X165089427Y-93832944D01*
X165263462Y-93725186D01*
X165414732Y-93587285D01*
X165416147Y-93585412D01*
X165447155Y-93544350D01*
X165538088Y-93423935D01*
X165629328Y-93240701D01*
X165685345Y-93043821D01*
X165699027Y-92896175D01*
X165704232Y-92840004D01*
X165704232Y-92839995D01*
X165685345Y-92636180D01*
X165677897Y-92610002D01*
X165629328Y-92439299D01*
X165538088Y-92256065D01*
X165497538Y-92202368D01*
X165414733Y-92092715D01*
X165263463Y-91954814D01*
X165089433Y-91847059D01*
X165089428Y-91847057D01*
X165089427Y-91847056D01*
X165089422Y-91847054D01*
X164898559Y-91773113D01*
X164898560Y-91773113D01*
X164898557Y-91773112D01*
X164898556Y-91773112D01*
X164697347Y-91735500D01*
X164492653Y-91735500D01*
X164337713Y-91764463D01*
X164291439Y-91773113D01*
X164100577Y-91847054D01*
X164100566Y-91847059D01*
X163926536Y-91954814D01*
X163775266Y-92092715D01*
X163651913Y-92256063D01*
X163560671Y-92439301D01*
X163504654Y-92636180D01*
X163485768Y-92839995D01*
X163485768Y-92840004D01*
X163504654Y-93043819D01*
X163554048Y-93217420D01*
X163553452Y-93288414D01*
X163521953Y-93340996D01*
X160554356Y-96308595D01*
X160492044Y-96342620D01*
X160465261Y-96345500D01*
X159425739Y-96345500D01*
X159357618Y-96325498D01*
X159311125Y-96271842D01*
X159301021Y-96201568D01*
X159330515Y-96136988D01*
X159336644Y-96130405D01*
X159888079Y-95578970D01*
X161555519Y-93911528D01*
X161617829Y-93877505D01*
X161688644Y-93882569D01*
X161690020Y-93883092D01*
X161751444Y-93906888D01*
X161952653Y-93944500D01*
X161952655Y-93944500D01*
X162157345Y-93944500D01*
X162157347Y-93944500D01*
X162358556Y-93906888D01*
X162549427Y-93832944D01*
X162723462Y-93725186D01*
X162874732Y-93587285D01*
X162876147Y-93585412D01*
X162907155Y-93544350D01*
X162998088Y-93423935D01*
X163089328Y-93240701D01*
X163145345Y-93043821D01*
X163159027Y-92896175D01*
X163164232Y-92840004D01*
X163164232Y-92839995D01*
X163145345Y-92636180D01*
X163137897Y-92610002D01*
X163089328Y-92439299D01*
X162998088Y-92256065D01*
X162957538Y-92202368D01*
X162874733Y-92092715D01*
X162723463Y-91954814D01*
X162549433Y-91847059D01*
X162549428Y-91847057D01*
X162549427Y-91847056D01*
X162549422Y-91847054D01*
X162358559Y-91773113D01*
X162358560Y-91773113D01*
X162358557Y-91773112D01*
X162358556Y-91773112D01*
X162157347Y-91735500D01*
X161952653Y-91735500D01*
X161797713Y-91764463D01*
X161751439Y-91773113D01*
X161560577Y-91847054D01*
X161560566Y-91847059D01*
X161386536Y-91954814D01*
X161235266Y-92092715D01*
X161111913Y-92256063D01*
X161020671Y-92439301D01*
X160964654Y-92636180D01*
X160945768Y-92839995D01*
X160945768Y-92840004D01*
X160964654Y-93043819D01*
X161014048Y-93217420D01*
X161013452Y-93288414D01*
X160981953Y-93340996D01*
X158514356Y-95808595D01*
X158452044Y-95842620D01*
X158425261Y-95845500D01*
X157385739Y-95845500D01*
X157317618Y-95825498D01*
X157271125Y-95771842D01*
X157261021Y-95701568D01*
X157290515Y-95636988D01*
X157296630Y-95630417D01*
X159015520Y-93911527D01*
X159077829Y-93877505D01*
X159148644Y-93882569D01*
X159150020Y-93883092D01*
X159211444Y-93906888D01*
X159412653Y-93944500D01*
X159412655Y-93944500D01*
X159617345Y-93944500D01*
X159617347Y-93944500D01*
X159818556Y-93906888D01*
X160009427Y-93832944D01*
X160183462Y-93725186D01*
X160334732Y-93587285D01*
X160336147Y-93585412D01*
X160367155Y-93544350D01*
X160458088Y-93423935D01*
X160549328Y-93240701D01*
X160605345Y-93043821D01*
X160619027Y-92896175D01*
X160624232Y-92840004D01*
X160624232Y-92839995D01*
X160605345Y-92636180D01*
X160597897Y-92610002D01*
X160549328Y-92439299D01*
X160458088Y-92256065D01*
X160417538Y-92202368D01*
X160334733Y-92092715D01*
X160183463Y-91954814D01*
X160009433Y-91847059D01*
X160009428Y-91847057D01*
X160009427Y-91847056D01*
X160009422Y-91847054D01*
X159818559Y-91773113D01*
X159818560Y-91773113D01*
X159818557Y-91773112D01*
X159818556Y-91773112D01*
X159617347Y-91735500D01*
X159412653Y-91735500D01*
X159257713Y-91764463D01*
X159211439Y-91773113D01*
X159020577Y-91847054D01*
X159020566Y-91847059D01*
X158846536Y-91954814D01*
X158695266Y-92092715D01*
X158571913Y-92256063D01*
X158480671Y-92439301D01*
X158424654Y-92636180D01*
X158405768Y-92839995D01*
X158405768Y-92840004D01*
X158424654Y-93043819D01*
X158474048Y-93217420D01*
X158473452Y-93288414D01*
X158441953Y-93340996D01*
X156474356Y-95308595D01*
X156412044Y-95342620D01*
X156385261Y-95345500D01*
X155345739Y-95345500D01*
X155277618Y-95325498D01*
X155231125Y-95271842D01*
X155221021Y-95201568D01*
X155250515Y-95136988D01*
X155256631Y-95130417D01*
X156475520Y-93911527D01*
X156537829Y-93877505D01*
X156608644Y-93882569D01*
X156610020Y-93883092D01*
X156671444Y-93906888D01*
X156872653Y-93944500D01*
X156872655Y-93944500D01*
X157077345Y-93944500D01*
X157077347Y-93944500D01*
X157278556Y-93906888D01*
X157469427Y-93832944D01*
X157643462Y-93725186D01*
X157794732Y-93587285D01*
X157796147Y-93585412D01*
X157827155Y-93544350D01*
X157918088Y-93423935D01*
X158009328Y-93240701D01*
X158065345Y-93043821D01*
X158079027Y-92896175D01*
X158084232Y-92840004D01*
X158084232Y-92839995D01*
X158065345Y-92636180D01*
X158057897Y-92610002D01*
X158009328Y-92439299D01*
X157918088Y-92256065D01*
X157877538Y-92202368D01*
X157794733Y-92092715D01*
X157643463Y-91954814D01*
X157469433Y-91847059D01*
X157469428Y-91847057D01*
X157469427Y-91847056D01*
X157469422Y-91847054D01*
X157278559Y-91773113D01*
X157278560Y-91773113D01*
X157278557Y-91773112D01*
X157278556Y-91773112D01*
X157077347Y-91735500D01*
X156872653Y-91735500D01*
X156717713Y-91764463D01*
X156671439Y-91773113D01*
X156480577Y-91847054D01*
X156480566Y-91847059D01*
X156306536Y-91954814D01*
X156155266Y-92092715D01*
X156031913Y-92256063D01*
X155940671Y-92439301D01*
X155884654Y-92636180D01*
X155865768Y-92839995D01*
X155865768Y-92840004D01*
X155884654Y-93043819D01*
X155934048Y-93217420D01*
X155933452Y-93288414D01*
X155901953Y-93340996D01*
X154434354Y-94808596D01*
X154372044Y-94842620D01*
X154345261Y-94845500D01*
X153305739Y-94845500D01*
X153237618Y-94825498D01*
X153191125Y-94771842D01*
X153181021Y-94701568D01*
X153210515Y-94636988D01*
X153216632Y-94630416D01*
X153935520Y-93911527D01*
X153997829Y-93877505D01*
X154068644Y-93882569D01*
X154070020Y-93883092D01*
X154131444Y-93906888D01*
X154332653Y-93944500D01*
X154332655Y-93944500D01*
X154537345Y-93944500D01*
X154537347Y-93944500D01*
X154738556Y-93906888D01*
X154929427Y-93832944D01*
X155103462Y-93725186D01*
X155254732Y-93587285D01*
X155256147Y-93585412D01*
X155287155Y-93544350D01*
X155378088Y-93423935D01*
X155469328Y-93240701D01*
X155525345Y-93043821D01*
X155539027Y-92896175D01*
X155544232Y-92840004D01*
X155544232Y-92839995D01*
X155525345Y-92636180D01*
X155517897Y-92610002D01*
X155469328Y-92439299D01*
X155378088Y-92256065D01*
X155337538Y-92202368D01*
X155254733Y-92092715D01*
X155103463Y-91954814D01*
X154929433Y-91847059D01*
X154929428Y-91847057D01*
X154929427Y-91847056D01*
X154929422Y-91847054D01*
X154738559Y-91773113D01*
X154738560Y-91773113D01*
X154738557Y-91773112D01*
X154738556Y-91773112D01*
X154537347Y-91735500D01*
X154332653Y-91735500D01*
X154177713Y-91764463D01*
X154131439Y-91773113D01*
X153940577Y-91847054D01*
X153940566Y-91847059D01*
X153766536Y-91954814D01*
X153615266Y-92092715D01*
X153491913Y-92256063D01*
X153400671Y-92439301D01*
X153344654Y-92636180D01*
X153325768Y-92839995D01*
X153325768Y-92840004D01*
X153344654Y-93043819D01*
X153394048Y-93217420D01*
X153393452Y-93288414D01*
X153361953Y-93340996D01*
X152394354Y-94308596D01*
X152332044Y-94342620D01*
X152305261Y-94345500D01*
X151677185Y-94345500D01*
X151609064Y-94325498D01*
X151562571Y-94271842D01*
X151552467Y-94201568D01*
X151581961Y-94136988D01*
X151588090Y-94130405D01*
X151737090Y-93981405D01*
X151799402Y-93947379D01*
X151826185Y-93944500D01*
X151997345Y-93944500D01*
X151997347Y-93944500D01*
X152198556Y-93906888D01*
X152389427Y-93832944D01*
X152563462Y-93725186D01*
X152714732Y-93587285D01*
X152716147Y-93585412D01*
X152747155Y-93544350D01*
X152838088Y-93423935D01*
X152929328Y-93240701D01*
X152985345Y-93043821D01*
X152999027Y-92896175D01*
X153004232Y-92840004D01*
X153004232Y-92839995D01*
X152985345Y-92636180D01*
X152977897Y-92610002D01*
X152929328Y-92439299D01*
X152838088Y-92256065D01*
X152797538Y-92202368D01*
X152714733Y-92092715D01*
X152563463Y-91954814D01*
X152389433Y-91847059D01*
X152389428Y-91847057D01*
X152389427Y-91847056D01*
X152389422Y-91847054D01*
X152198559Y-91773113D01*
X152198560Y-91773113D01*
X152198557Y-91773112D01*
X152198556Y-91773112D01*
X151997347Y-91735500D01*
X151792653Y-91735500D01*
X151637713Y-91764463D01*
X151591439Y-91773113D01*
X151400577Y-91847054D01*
X151400566Y-91847059D01*
X151226536Y-91954814D01*
X151075266Y-92092715D01*
X150951913Y-92256063D01*
X150860671Y-92439301D01*
X150804654Y-92636180D01*
X150785768Y-92839995D01*
X150785768Y-92840004D01*
X150804654Y-93043819D01*
X150823051Y-93108477D01*
X150860672Y-93240701D01*
X150951912Y-93423935D01*
X150951913Y-93423936D01*
X150971263Y-93449560D01*
X150996353Y-93515975D01*
X150981553Y-93585412D01*
X150959808Y-93614587D01*
X149942108Y-94632287D01*
X149879796Y-94666313D01*
X149808981Y-94661248D01*
X149752145Y-94618701D01*
X149727334Y-94552181D01*
X149731306Y-94510582D01*
X149748840Y-94445142D01*
X149759500Y-94405360D01*
X149759500Y-93954093D01*
X149779502Y-93885972D01*
X149833158Y-93839479D01*
X149839970Y-93836607D01*
X149849427Y-93832944D01*
X150023462Y-93725186D01*
X150174732Y-93587285D01*
X150176147Y-93585412D01*
X150207155Y-93544350D01*
X150298088Y-93423935D01*
X150389328Y-93240701D01*
X150445345Y-93043821D01*
X150459027Y-92896175D01*
X150464232Y-92840004D01*
X150464232Y-92839995D01*
X150445345Y-92636180D01*
X150437897Y-92610002D01*
X150389328Y-92439299D01*
X150298088Y-92256065D01*
X150257538Y-92202368D01*
X150174733Y-92092715D01*
X150023463Y-91954814D01*
X149849433Y-91847059D01*
X149849428Y-91847057D01*
X149849427Y-91847056D01*
X149849422Y-91847054D01*
X149658559Y-91773113D01*
X149658560Y-91773113D01*
X149658557Y-91773112D01*
X149658556Y-91773112D01*
X149457347Y-91735500D01*
X149252653Y-91735500D01*
X149097713Y-91764463D01*
X149051439Y-91773113D01*
X148860577Y-91847054D01*
X148860566Y-91847059D01*
X148686536Y-91954814D01*
X148535266Y-92092715D01*
X148411913Y-92256063D01*
X148320671Y-92439301D01*
X148264654Y-92636180D01*
X148245768Y-92839995D01*
X148245768Y-92840004D01*
X148264654Y-93043819D01*
X148283051Y-93108477D01*
X148320672Y-93240701D01*
X148411912Y-93423935D01*
X148411913Y-93423936D01*
X148535266Y-93587284D01*
X148686538Y-93725186D01*
X148686539Y-93725187D01*
X148860564Y-93832939D01*
X148860567Y-93832940D01*
X148860573Y-93832944D01*
X148870013Y-93836601D01*
X148926309Y-93879857D01*
X148950282Y-93946684D01*
X148950500Y-93954093D01*
X148950500Y-94132368D01*
X148930498Y-94200489D01*
X148913595Y-94221463D01*
X147434595Y-95700463D01*
X147372283Y-95734489D01*
X147301468Y-95729424D01*
X147244632Y-95686877D01*
X147219821Y-95620357D01*
X147219500Y-95611368D01*
X147219500Y-93954093D01*
X147239502Y-93885972D01*
X147293158Y-93839479D01*
X147299970Y-93836607D01*
X147309427Y-93832944D01*
X147483462Y-93725186D01*
X147634732Y-93587285D01*
X147636147Y-93585412D01*
X147667155Y-93544350D01*
X147758088Y-93423935D01*
X147849328Y-93240701D01*
X147905345Y-93043821D01*
X147919027Y-92896175D01*
X147924232Y-92840004D01*
X147924232Y-92839995D01*
X147905345Y-92636180D01*
X147897897Y-92610002D01*
X147849328Y-92439299D01*
X147758088Y-92256065D01*
X147717538Y-92202368D01*
X147634733Y-92092715D01*
X147483463Y-91954814D01*
X147309433Y-91847059D01*
X147309428Y-91847057D01*
X147309427Y-91847056D01*
X147309422Y-91847054D01*
X147118559Y-91773113D01*
X147118560Y-91773113D01*
X147118557Y-91773112D01*
X147118556Y-91773112D01*
X146917347Y-91735500D01*
X146712653Y-91735500D01*
X146557713Y-91764463D01*
X146511439Y-91773113D01*
X146320577Y-91847054D01*
X146320566Y-91847059D01*
X146146536Y-91954814D01*
X145995266Y-92092715D01*
X145871913Y-92256063D01*
X145780671Y-92439301D01*
X145724654Y-92636180D01*
X145705768Y-92839995D01*
X145705768Y-92840004D01*
X145724654Y-93043819D01*
X145743051Y-93108477D01*
X145780672Y-93240701D01*
X145871912Y-93423935D01*
X145871913Y-93423936D01*
X145995266Y-93587284D01*
X146146538Y-93725186D01*
X146146539Y-93725187D01*
X146320564Y-93832939D01*
X146320567Y-93832940D01*
X146320573Y-93832944D01*
X146330013Y-93836601D01*
X146386309Y-93879857D01*
X146410282Y-93946684D01*
X146410500Y-93954093D01*
X146410500Y-95965259D01*
X146390498Y-96033380D01*
X146373595Y-96054355D01*
X145755363Y-96672586D01*
X145693051Y-96706611D01*
X145647789Y-96703373D01*
X145647389Y-96706186D01*
X145585058Y-96697314D01*
X144928505Y-97353868D01*
X144866193Y-97387894D01*
X144795378Y-97382829D01*
X144750315Y-97353868D01*
X144574953Y-97178506D01*
X144540927Y-97116194D01*
X144545992Y-97045379D01*
X144574953Y-97000316D01*
X145231506Y-96343762D01*
X145231505Y-96343761D01*
X145098099Y-96270422D01*
X144941474Y-96230208D01*
X144815978Y-96230208D01*
X144747857Y-96210206D01*
X144714041Y-96178268D01*
X144713942Y-96178132D01*
X144680698Y-96132374D01*
X144438804Y-95890482D01*
X144438803Y-95890481D01*
X144363136Y-95835504D01*
X144363131Y-95835502D01*
X144301485Y-95815472D01*
X144244285Y-95796887D01*
X144119319Y-95796887D01*
X144090173Y-95806356D01*
X144000471Y-95835502D01*
X143924800Y-95890480D01*
X143846098Y-95969184D01*
X143783786Y-96003209D01*
X143757002Y-96006089D01*
X142892664Y-96006089D01*
X142786158Y-96006089D01*
X142683280Y-96033655D01*
X142683279Y-96033655D01*
X142683277Y-96033656D01*
X142591045Y-96086905D01*
X142591039Y-96086910D01*
X142251631Y-96426320D01*
X142251630Y-96426320D01*
X142176325Y-96501624D01*
X142176317Y-96501634D01*
X142123068Y-96593864D01*
X142123065Y-96593871D01*
X142095500Y-96696748D01*
X142095500Y-96741384D01*
X142075498Y-96809505D01*
X142069462Y-96818088D01*
X141971968Y-96945142D01*
X141911060Y-97092193D01*
X141890284Y-97250000D01*
X141911060Y-97407806D01*
X141971968Y-97554857D01*
X142068865Y-97681134D01*
X142195142Y-97778031D01*
X142287872Y-97816439D01*
X142342194Y-97838940D01*
X142500000Y-97859716D01*
X142657806Y-97838940D01*
X142750536Y-97800530D01*
X142804857Y-97778031D01*
X142931134Y-97681134D01*
X143028031Y-97554857D01*
X143063918Y-97468215D01*
X143088940Y-97407806D01*
X143109716Y-97250000D01*
X143088940Y-97092194D01*
X143060437Y-97023380D01*
X143046324Y-96989306D01*
X143038735Y-96918716D01*
X143070515Y-96855229D01*
X143131574Y-96819003D01*
X143162733Y-96815089D01*
X143469500Y-96815089D01*
X143537621Y-96835091D01*
X143584114Y-96888747D01*
X143595500Y-96941089D01*
X143595500Y-97391172D01*
X143575498Y-97459293D01*
X143558595Y-97480267D01*
X142717014Y-98321847D01*
X142716999Y-98321864D01*
X142687541Y-98360256D01*
X142687540Y-98360257D01*
X142687540Y-98360258D01*
X142677332Y-98388305D01*
X142654382Y-98451357D01*
X142612287Y-98508528D01*
X142545965Y-98533865D01*
X142476474Y-98519323D01*
X142426861Y-98471259D01*
X142419300Y-98458163D01*
X142091891Y-98130754D01*
X141749581Y-97788444D01*
X141291478Y-97330341D01*
X141291476Y-97330339D01*
X141291471Y-97330335D01*
X141253079Y-97300876D01*
X141189046Y-97277570D01*
X141143886Y-97261133D01*
X141030500Y-97261133D01*
X140962379Y-97241131D01*
X140915886Y-97187475D01*
X140904500Y-97135133D01*
X140904500Y-96834738D01*
X140924502Y-96766617D01*
X140941400Y-96745648D01*
X143775519Y-93911528D01*
X143837829Y-93877504D01*
X143908644Y-93882569D01*
X143910020Y-93883092D01*
X143971444Y-93906888D01*
X144172653Y-93944500D01*
X144172655Y-93944500D01*
X144377345Y-93944500D01*
X144377347Y-93944500D01*
X144578556Y-93906888D01*
X144769427Y-93832944D01*
X144943462Y-93725186D01*
X145094732Y-93587285D01*
X145096147Y-93585412D01*
X145127155Y-93544350D01*
X145218088Y-93423935D01*
X145309328Y-93240701D01*
X145365345Y-93043821D01*
X145379027Y-92896175D01*
X145384232Y-92840004D01*
X145384232Y-92839995D01*
X145365345Y-92636180D01*
X145357897Y-92610002D01*
X145309328Y-92439299D01*
X145218088Y-92256065D01*
X145177538Y-92202368D01*
X145094733Y-92092715D01*
X144943463Y-91954814D01*
X144769433Y-91847059D01*
X144769428Y-91847057D01*
X144769427Y-91847056D01*
X144769422Y-91847054D01*
X144578559Y-91773113D01*
X144578560Y-91773113D01*
X144578557Y-91773112D01*
X144578556Y-91773112D01*
X144377347Y-91735500D01*
X144172653Y-91735500D01*
X144017713Y-91764463D01*
X143971439Y-91773113D01*
X143780577Y-91847054D01*
X143780566Y-91847059D01*
X143606536Y-91954814D01*
X143455266Y-92092715D01*
X143331913Y-92256063D01*
X143240671Y-92439301D01*
X143184654Y-92636180D01*
X143165768Y-92839995D01*
X143165768Y-92840004D01*
X143184654Y-93043819D01*
X143234048Y-93217420D01*
X143233452Y-93288414D01*
X143201953Y-93340996D01*
X140619595Y-95923355D01*
X140557283Y-95957380D01*
X140486468Y-95952316D01*
X140429632Y-95909769D01*
X140404821Y-95843249D01*
X140404500Y-95834260D01*
X140404500Y-94794739D01*
X140424502Y-94726618D01*
X140441399Y-94705649D01*
X141235521Y-93911527D01*
X141297830Y-93877505D01*
X141368645Y-93882569D01*
X141369945Y-93883063D01*
X141431444Y-93906888D01*
X141632653Y-93944500D01*
X141632655Y-93944500D01*
X141837345Y-93944500D01*
X141837347Y-93944500D01*
X142038556Y-93906888D01*
X142229427Y-93832944D01*
X142403462Y-93725186D01*
X142554732Y-93587285D01*
X142556147Y-93585412D01*
X142587155Y-93544350D01*
X142678088Y-93423935D01*
X142769328Y-93240701D01*
X142825345Y-93043821D01*
X142839027Y-92896175D01*
X142844232Y-92840004D01*
X142844232Y-92839995D01*
X142825345Y-92636180D01*
X142817897Y-92610002D01*
X142769328Y-92439299D01*
X142678088Y-92256065D01*
X142637538Y-92202368D01*
X142554733Y-92092715D01*
X142403463Y-91954814D01*
X142229433Y-91847059D01*
X142229428Y-91847057D01*
X142229427Y-91847056D01*
X142229422Y-91847054D01*
X142038559Y-91773113D01*
X142038560Y-91773113D01*
X142038557Y-91773112D01*
X142038556Y-91773112D01*
X141837347Y-91735500D01*
X141632653Y-91735500D01*
X141477713Y-91764463D01*
X141431439Y-91773113D01*
X141240577Y-91847054D01*
X141240566Y-91847059D01*
X141066536Y-91954814D01*
X140915266Y-92092715D01*
X140791913Y-92256063D01*
X140700671Y-92439301D01*
X140644654Y-92636180D01*
X140625768Y-92839995D01*
X140625768Y-92840004D01*
X140644654Y-93043819D01*
X140694047Y-93217420D01*
X140693450Y-93288414D01*
X140661953Y-93340996D01*
X139814596Y-94188354D01*
X139752283Y-94222379D01*
X139681468Y-94217315D01*
X139624632Y-94174768D01*
X139599821Y-94108248D01*
X139599500Y-94099259D01*
X139599500Y-93954093D01*
X139619502Y-93885972D01*
X139673158Y-93839479D01*
X139679970Y-93836607D01*
X139689427Y-93832944D01*
X139863462Y-93725186D01*
X140014732Y-93587285D01*
X140016147Y-93585412D01*
X140047155Y-93544350D01*
X140138088Y-93423935D01*
X140229328Y-93240701D01*
X140285345Y-93043821D01*
X140299027Y-92896175D01*
X140304232Y-92840004D01*
X140304232Y-92839995D01*
X140285345Y-92636180D01*
X140277897Y-92610002D01*
X140229328Y-92439299D01*
X140138088Y-92256065D01*
X140097538Y-92202368D01*
X140014733Y-92092715D01*
X139863463Y-91954814D01*
X139689433Y-91847059D01*
X139689428Y-91847057D01*
X139689427Y-91847056D01*
X139689422Y-91847054D01*
X139498559Y-91773113D01*
X139498560Y-91773113D01*
X139498557Y-91773112D01*
X139498556Y-91773112D01*
X139297347Y-91735500D01*
X139092653Y-91735500D01*
X138937713Y-91764463D01*
X138891439Y-91773113D01*
X138700577Y-91847054D01*
X138700566Y-91847059D01*
X138526536Y-91954814D01*
X138375266Y-92092715D01*
X138251913Y-92256063D01*
X138160671Y-92439301D01*
X138104654Y-92636180D01*
X138085768Y-92839995D01*
X138085768Y-92840004D01*
X138104654Y-93043819D01*
X138123051Y-93108477D01*
X138160672Y-93240701D01*
X138251912Y-93423935D01*
X138251913Y-93423936D01*
X138375266Y-93587284D01*
X138526538Y-93725186D01*
X138526539Y-93725187D01*
X138700564Y-93832939D01*
X138700567Y-93832940D01*
X138700573Y-93832944D01*
X138710013Y-93836601D01*
X138766309Y-93879857D01*
X138790282Y-93946684D01*
X138790500Y-93954093D01*
X138790500Y-97353601D01*
X138770498Y-97421722D01*
X138716842Y-97468215D01*
X138646568Y-97478319D01*
X138581988Y-97448825D01*
X138575405Y-97442696D01*
X137096405Y-95963696D01*
X137062379Y-95901384D01*
X137059500Y-95874601D01*
X137059500Y-93954093D01*
X137079502Y-93885972D01*
X137133158Y-93839479D01*
X137139970Y-93836607D01*
X137149427Y-93832944D01*
X137323462Y-93725186D01*
X137474732Y-93587285D01*
X137476147Y-93585412D01*
X137507155Y-93544350D01*
X137598088Y-93423935D01*
X137689328Y-93240701D01*
X137745345Y-93043821D01*
X137759027Y-92896175D01*
X137764232Y-92840004D01*
X137764232Y-92839995D01*
X137745345Y-92636180D01*
X137737897Y-92610002D01*
X137689328Y-92439299D01*
X137598088Y-92256065D01*
X137557538Y-92202368D01*
X137474733Y-92092715D01*
X137323463Y-91954814D01*
X137149433Y-91847059D01*
X137149428Y-91847057D01*
X137149427Y-91847056D01*
X137149422Y-91847054D01*
X136958559Y-91773113D01*
X136958560Y-91773113D01*
X136958557Y-91773112D01*
X136958556Y-91773112D01*
X136757347Y-91735500D01*
X136552653Y-91735500D01*
X136397713Y-91764463D01*
X136351439Y-91773113D01*
X136160577Y-91847054D01*
X136160566Y-91847059D01*
X135986536Y-91954814D01*
X135835266Y-92092715D01*
X135711913Y-92256063D01*
X135620671Y-92439301D01*
X135564654Y-92636180D01*
X135545768Y-92839995D01*
X135545768Y-92840004D01*
X135564654Y-93043819D01*
X135583051Y-93108477D01*
X135620672Y-93240701D01*
X135711912Y-93423935D01*
X135711913Y-93423936D01*
X135835266Y-93587284D01*
X135986538Y-93725186D01*
X135986539Y-93725187D01*
X136160564Y-93832939D01*
X136160567Y-93832940D01*
X136160573Y-93832944D01*
X136170013Y-93836601D01*
X136226309Y-93879857D01*
X136250282Y-93946684D01*
X136250500Y-93954093D01*
X136250500Y-95520707D01*
X136230498Y-95588828D01*
X136176842Y-95635321D01*
X136106568Y-95645425D01*
X136041988Y-95615931D01*
X136035405Y-95609802D01*
X135691405Y-95265802D01*
X135657379Y-95203490D01*
X135654500Y-95176707D01*
X135654500Y-93921748D01*
X135651762Y-93911531D01*
X135626934Y-93818869D01*
X135626934Y-93818868D01*
X135573681Y-93726632D01*
X135384107Y-93537058D01*
X135188044Y-93340995D01*
X135154021Y-93278685D01*
X135155950Y-93217423D01*
X135205345Y-93043821D01*
X135224232Y-92840000D01*
X135223793Y-92835264D01*
X135205345Y-92636180D01*
X135197897Y-92610002D01*
X135149328Y-92439299D01*
X135058088Y-92256065D01*
X135017538Y-92202368D01*
X134934733Y-92092715D01*
X134783463Y-91954814D01*
X134609433Y-91847059D01*
X134609428Y-91847057D01*
X134609427Y-91847056D01*
X134609422Y-91847054D01*
X134418559Y-91773113D01*
X134418560Y-91773113D01*
X134418557Y-91773112D01*
X134418556Y-91773112D01*
X134217347Y-91735500D01*
X134012653Y-91735500D01*
X133857713Y-91764463D01*
X133811439Y-91773113D01*
X133620577Y-91847054D01*
X133620566Y-91847059D01*
X133446536Y-91954814D01*
X133295266Y-92092715D01*
X133171913Y-92256063D01*
X133080671Y-92439301D01*
X133024654Y-92636180D01*
X133005767Y-92839995D01*
X133019248Y-92985475D01*
X133005616Y-93055150D01*
X132956479Y-93106395D01*
X132887437Y-93122940D01*
X132820410Y-93099531D01*
X132804690Y-93086195D01*
X132715393Y-92996898D01*
X132681367Y-92934586D01*
X132679026Y-92896175D01*
X132684232Y-92840002D01*
X132684232Y-92839995D01*
X132665345Y-92636180D01*
X132657897Y-92610002D01*
X132609328Y-92439299D01*
X132518088Y-92256065D01*
X132477538Y-92202368D01*
X132394733Y-92092715D01*
X132243463Y-91954814D01*
X132069433Y-91847059D01*
X132069428Y-91847057D01*
X132069427Y-91847056D01*
X132069422Y-91847054D01*
X131878559Y-91773113D01*
X131878560Y-91773113D01*
X131878557Y-91773112D01*
X131878556Y-91773112D01*
X131677347Y-91735500D01*
X131472653Y-91735500D01*
X131317713Y-91764463D01*
X131271439Y-91773113D01*
X131080577Y-91847054D01*
X131080566Y-91847059D01*
X130906536Y-91954814D01*
X130755266Y-92092715D01*
X130631913Y-92256063D01*
X130540671Y-92439301D01*
X130484654Y-92636180D01*
X130465768Y-92839995D01*
X130465768Y-92840004D01*
X130484654Y-93043819D01*
X130503051Y-93108477D01*
X130540672Y-93240701D01*
X130631912Y-93423935D01*
X130631913Y-93423936D01*
X130755266Y-93587284D01*
X130906536Y-93725185D01*
X131080566Y-93832940D01*
X131080568Y-93832940D01*
X131080573Y-93832944D01*
X131120783Y-93848521D01*
X131129785Y-93852009D01*
X131186080Y-93895268D01*
X131210050Y-93962096D01*
X131194086Y-94031274D01*
X131143255Y-94080840D01*
X131084268Y-94095500D01*
X130914741Y-94095500D01*
X130846620Y-94075498D01*
X130825646Y-94058596D01*
X130471867Y-93704817D01*
X130108046Y-93340997D01*
X130074022Y-93278685D01*
X130075952Y-93217421D01*
X130109494Y-93099531D01*
X130125345Y-93043821D01*
X130139027Y-92896175D01*
X130144232Y-92840004D01*
X130144232Y-92839995D01*
X130125345Y-92636180D01*
X130117897Y-92610002D01*
X130069328Y-92439299D01*
X129978088Y-92256065D01*
X129937538Y-92202368D01*
X129854733Y-92092715D01*
X129703463Y-91954814D01*
X129529433Y-91847059D01*
X129529428Y-91847057D01*
X129529427Y-91847056D01*
X129529422Y-91847054D01*
X129338559Y-91773113D01*
X129338560Y-91773113D01*
X129338557Y-91773112D01*
X129338556Y-91773112D01*
X129137347Y-91735500D01*
X128932653Y-91735500D01*
X128777713Y-91764463D01*
X128731439Y-91773113D01*
X128540577Y-91847054D01*
X128540566Y-91847059D01*
X128366536Y-91954814D01*
X128215266Y-92092715D01*
X128091913Y-92256063D01*
X128000671Y-92439301D01*
X127944654Y-92636180D01*
X127925768Y-92839995D01*
X127925768Y-92840004D01*
X127944654Y-93043819D01*
X127963051Y-93108477D01*
X128000672Y-93240701D01*
X128091912Y-93423935D01*
X128091913Y-93423936D01*
X128215266Y-93587284D01*
X128366536Y-93725185D01*
X128540566Y-93832940D01*
X128540568Y-93832940D01*
X128540573Y-93832944D01*
X128731444Y-93906888D01*
X128932653Y-93944500D01*
X128932655Y-93944500D01*
X129137345Y-93944500D01*
X129137347Y-93944500D01*
X129338556Y-93906888D01*
X129399868Y-93883134D01*
X129470614Y-93877178D01*
X129533351Y-93910414D01*
X129534481Y-93911531D01*
X130003355Y-94380405D01*
X130037381Y-94442717D01*
X130032316Y-94513532D01*
X129989769Y-94570368D01*
X129923249Y-94595179D01*
X129914260Y-94595500D01*
X128874739Y-94595500D01*
X128806618Y-94575498D01*
X128785644Y-94558595D01*
X127568046Y-93340997D01*
X127534020Y-93278685D01*
X127535950Y-93217423D01*
X127585345Y-93043821D01*
X127604232Y-92840000D01*
X127603793Y-92835264D01*
X127585345Y-92636180D01*
X127577897Y-92610002D01*
X127529328Y-92439299D01*
X127438088Y-92256065D01*
X127397538Y-92202368D01*
X127314733Y-92092715D01*
X127163463Y-91954814D01*
X126989433Y-91847059D01*
X126989428Y-91847057D01*
X126989427Y-91847056D01*
X126989422Y-91847054D01*
X126798559Y-91773113D01*
X126798560Y-91773113D01*
X126798557Y-91773112D01*
X126798556Y-91773112D01*
X126597347Y-91735500D01*
X126392653Y-91735500D01*
X126237713Y-91764463D01*
X126191439Y-91773113D01*
X126000577Y-91847054D01*
X126000566Y-91847059D01*
X125826536Y-91954814D01*
X125675266Y-92092715D01*
X125551913Y-92256063D01*
X125460671Y-92439301D01*
X125404654Y-92636180D01*
X125385768Y-92839995D01*
X125385768Y-92840004D01*
X125404654Y-93043819D01*
X125423051Y-93108477D01*
X125460672Y-93240701D01*
X125551912Y-93423935D01*
X125551913Y-93423936D01*
X125675266Y-93587284D01*
X125826536Y-93725185D01*
X126000566Y-93832940D01*
X126000568Y-93832940D01*
X126000573Y-93832944D01*
X126191444Y-93906888D01*
X126392653Y-93944500D01*
X126392655Y-93944500D01*
X126597345Y-93944500D01*
X126597347Y-93944500D01*
X126798556Y-93906888D01*
X126859869Y-93883134D01*
X126930613Y-93877176D01*
X126993350Y-93910412D01*
X126994481Y-93911530D01*
X128406629Y-95323679D01*
X128406632Y-95323681D01*
X128494183Y-95374229D01*
X128498868Y-95376934D01*
X128498876Y-95376936D01*
X128499117Y-95377036D01*
X128499301Y-95377184D01*
X128506019Y-95381063D01*
X128505414Y-95382110D01*
X128554401Y-95421580D01*
X128576827Y-95488942D01*
X128559275Y-95557734D01*
X128558737Y-95558633D01*
X128481981Y-95685602D01*
X128481980Y-95685605D01*
X128480062Y-95691761D01*
X128440697Y-95750845D01*
X128375637Y-95779267D01*
X128305540Y-95768003D01*
X128258390Y-95729092D01*
X128237261Y-95700463D01*
X128200010Y-95649990D01*
X128200008Y-95649989D01*
X128200008Y-95649988D01*
X128089774Y-95568631D01*
X128089767Y-95568628D01*
X127960453Y-95523379D01*
X127960455Y-95523379D01*
X127931956Y-95520707D01*
X127929749Y-95520500D01*
X127929748Y-95520500D01*
X127420259Y-95520500D01*
X127420244Y-95520501D01*
X127389547Y-95523379D01*
X127389544Y-95523380D01*
X127260232Y-95568628D01*
X127260225Y-95568631D01*
X127149989Y-95649989D01*
X127068631Y-95760226D01*
X127068321Y-95761113D01*
X127067718Y-95761952D01*
X127064217Y-95768578D01*
X127063310Y-95768098D01*
X127026943Y-95818806D01*
X126960943Y-95844969D01*
X126949391Y-95845500D01*
X126803366Y-95845500D01*
X126735245Y-95825498D01*
X126688752Y-95771842D01*
X126678088Y-95732966D01*
X126677672Y-95729092D01*
X126673120Y-95686750D01*
X126623051Y-95552509D01*
X126623049Y-95552507D01*
X126623049Y-95552505D01*
X126537189Y-95437810D01*
X126422494Y-95351950D01*
X126387612Y-95338940D01*
X126288250Y-95301880D01*
X126258579Y-95298690D01*
X126228910Y-95295500D01*
X125646099Y-95295500D01*
X125646078Y-95295502D01*
X125586753Y-95301879D01*
X125452505Y-95351950D01*
X125337810Y-95437810D01*
X125251950Y-95552505D01*
X125247633Y-95560414D01*
X125245348Y-95559166D01*
X125211001Y-95605043D01*
X125144479Y-95629849D01*
X125075106Y-95614752D01*
X125024908Y-95564546D01*
X125009500Y-95504169D01*
X125009500Y-95312416D01*
X125009499Y-95312397D01*
X125008251Y-95286975D01*
X125006166Y-95265802D01*
X125005833Y-95262416D01*
X125005827Y-95262369D01*
X125002100Y-95237251D01*
X125002096Y-95237233D01*
X125002092Y-95237200D01*
X124986566Y-95159148D01*
X124971800Y-95110469D01*
X124952987Y-95065050D01*
X124929005Y-95020184D01*
X124891819Y-94964532D01*
X124869575Y-94937428D01*
X124859551Y-94925213D01*
X124859535Y-94925196D01*
X124824806Y-94890467D01*
X124824796Y-94890458D01*
X124824789Y-94890451D01*
X124795718Y-94866593D01*
X124785471Y-94858183D01*
X124785466Y-94858179D01*
X124785464Y-94858178D01*
X124762180Y-94842620D01*
X124729818Y-94820996D01*
X124706618Y-94808595D01*
X124684947Y-94797011D01*
X124679462Y-94794739D01*
X124639541Y-94778202D01*
X124590849Y-94763432D01*
X124590834Y-94763428D01*
X124512799Y-94747907D01*
X124512787Y-94747905D01*
X124487595Y-94744169D01*
X124487585Y-94744168D01*
X124463051Y-94741752D01*
X124463025Y-94741750D01*
X124437591Y-94740500D01*
X124437590Y-94740500D01*
X121631160Y-94740500D01*
X121563039Y-94720498D01*
X121542065Y-94703595D01*
X121185830Y-94347360D01*
X121151804Y-94285048D01*
X121156869Y-94214233D01*
X121165000Y-94201581D01*
X121165000Y-93273012D01*
X121222007Y-93305925D01*
X121349174Y-93340000D01*
X121480826Y-93340000D01*
X121607993Y-93305925D01*
X121665000Y-93273012D01*
X121665000Y-94190000D01*
X122312824Y-94190000D01*
X122312840Y-94189999D01*
X122372371Y-94183599D01*
X122507089Y-94133352D01*
X122622189Y-94047189D01*
X122708352Y-93932089D01*
X122758599Y-93797371D01*
X122764999Y-93737840D01*
X122765000Y-93737823D01*
X122765000Y-93463788D01*
X122785002Y-93395667D01*
X122838658Y-93349174D01*
X122908932Y-93339070D01*
X122973512Y-93368564D01*
X123003791Y-93407626D01*
X123011911Y-93423934D01*
X123011912Y-93423935D01*
X123135266Y-93587284D01*
X123286536Y-93725185D01*
X123460566Y-93832940D01*
X123460568Y-93832940D01*
X123460573Y-93832944D01*
X123651444Y-93906888D01*
X123852653Y-93944500D01*
X123852655Y-93944500D01*
X124057345Y-93944500D01*
X124057347Y-93944500D01*
X124258556Y-93906888D01*
X124449427Y-93832944D01*
X124623462Y-93725186D01*
X124774732Y-93587285D01*
X124776147Y-93585412D01*
X124807155Y-93544350D01*
X124898088Y-93423935D01*
X124989328Y-93240701D01*
X125045345Y-93043821D01*
X125059027Y-92896175D01*
X125064232Y-92840004D01*
X125064232Y-92839995D01*
X125045345Y-92636180D01*
X125037897Y-92610002D01*
X124989328Y-92439299D01*
X124898088Y-92256065D01*
X124857538Y-92202368D01*
X124774733Y-92092715D01*
X124623463Y-91954814D01*
X124449433Y-91847059D01*
X124449428Y-91847057D01*
X124449427Y-91847056D01*
X124449422Y-91847054D01*
X124258559Y-91773113D01*
X124258560Y-91773113D01*
X124258557Y-91773112D01*
X124258556Y-91773112D01*
X124057347Y-91735500D01*
X123852653Y-91735500D01*
X123697713Y-91764463D01*
X123651439Y-91773113D01*
X123460577Y-91847054D01*
X123460566Y-91847059D01*
X123286536Y-91954814D01*
X123135266Y-92092715D01*
X123011912Y-92256064D01*
X123011911Y-92256066D01*
X123003790Y-92272375D01*
X122955520Y-92324438D01*
X122886766Y-92342140D01*
X122819356Y-92319860D01*
X122774692Y-92264672D01*
X122765000Y-92216211D01*
X122765000Y-91942176D01*
X122764999Y-91942159D01*
X122758599Y-91882628D01*
X122708352Y-91747910D01*
X122622189Y-91632810D01*
X122507089Y-91546647D01*
X122501481Y-91544556D01*
X122444645Y-91502010D01*
X122419834Y-91435490D01*
X122434925Y-91366115D01*
X122485127Y-91315913D01*
X122545513Y-91300500D01*
X171952405Y-91300500D01*
X171996461Y-91300500D01*
X172003525Y-91300697D01*
G37*
%TD.AperFunction*%
%TA.AperFunction,Conductor*%
G36*
X165654880Y-94996333D02*
G01*
X165711716Y-95038880D01*
X165719967Y-95051389D01*
X165721970Y-95054859D01*
X165818865Y-95181134D01*
X165945141Y-95278030D01*
X165945142Y-95278030D01*
X166092194Y-95338940D01*
X166092195Y-95338940D01*
X166100172Y-95341078D01*
X166099534Y-95343457D01*
X166153033Y-95367121D01*
X166160758Y-95374229D01*
X166458595Y-95672066D01*
X166492621Y-95734378D01*
X166495500Y-95761161D01*
X166495500Y-97007774D01*
X166475498Y-97075895D01*
X166421842Y-97122388D01*
X166351568Y-97132492D01*
X166294679Y-97109154D01*
X166239773Y-97068631D01*
X166239770Y-97068630D01*
X166239769Y-97068629D01*
X166239767Y-97068628D01*
X166110453Y-97023379D01*
X166110455Y-97023379D01*
X166085889Y-97021075D01*
X166079749Y-97020500D01*
X166079748Y-97020500D01*
X165570259Y-97020500D01*
X165570244Y-97020501D01*
X165539547Y-97023379D01*
X165539544Y-97023380D01*
X165410232Y-97068628D01*
X165410225Y-97068631D01*
X165299991Y-97149988D01*
X165241609Y-97229092D01*
X165185063Y-97272024D01*
X165114283Y-97277570D01*
X165051742Y-97243968D01*
X165019934Y-97191753D01*
X165018016Y-97185598D01*
X164930074Y-97040125D01*
X164930070Y-97040120D01*
X164809879Y-96919929D01*
X164809874Y-96919925D01*
X164664399Y-96831982D01*
X164502101Y-96781408D01*
X164431573Y-96775000D01*
X164425000Y-96775000D01*
X164425000Y-97874000D01*
X164404998Y-97942121D01*
X164351342Y-97988614D01*
X164299000Y-98000000D01*
X163275000Y-98000000D01*
X163262619Y-98012381D01*
X163200306Y-98046406D01*
X163129490Y-98041340D01*
X163084430Y-98012381D01*
X162998369Y-97926320D01*
X162998368Y-97926319D01*
X162998365Y-97926317D01*
X162906135Y-97873068D01*
X162906133Y-97873067D01*
X162906131Y-97873066D01*
X162906127Y-97873065D01*
X162906125Y-97873064D01*
X162888554Y-97868356D01*
X162827932Y-97831403D01*
X162796912Y-97767542D01*
X162805342Y-97697047D01*
X162850546Y-97642302D01*
X162874106Y-97631557D01*
X162873500Y-97630094D01*
X162881121Y-97626936D01*
X162881131Y-97626934D01*
X162973369Y-97573680D01*
X163071930Y-97475118D01*
X163134240Y-97441095D01*
X163205056Y-97446159D01*
X163250119Y-97475120D01*
X163274999Y-97500000D01*
X163925000Y-97500000D01*
X163925000Y-96764504D01*
X163903597Y-96725315D01*
X163908656Y-96654499D01*
X163937617Y-96609431D01*
X165521755Y-95025292D01*
X165584065Y-94991268D01*
X165654880Y-94996333D01*
G37*
%TD.AperFunction*%
%TA.AperFunction,Conductor*%
G36*
X131873508Y-95424502D02*
G01*
X131894482Y-95441405D01*
X132883150Y-96430073D01*
X132917176Y-96492385D01*
X132912111Y-96563200D01*
X132869564Y-96620036D01*
X132810502Y-96644090D01*
X132681604Y-96661060D01*
X132534556Y-96721967D01*
X132475830Y-96767030D01*
X132408277Y-96818866D01*
X132408275Y-96818867D01*
X132407501Y-96819462D01*
X132341280Y-96845063D01*
X132330796Y-96845500D01*
X130329565Y-96845500D01*
X130261444Y-96825498D01*
X130214951Y-96771842D01*
X130204847Y-96701568D01*
X130209270Y-96682014D01*
X130218591Y-96652099D01*
X130225000Y-96581572D01*
X130225000Y-96500000D01*
X129201000Y-96500000D01*
X129132879Y-96479998D01*
X129086386Y-96426342D01*
X129075000Y-96374000D01*
X129075000Y-96126000D01*
X129095002Y-96057879D01*
X129148658Y-96011386D01*
X129201000Y-96000000D01*
X130224999Y-96000000D01*
X130224999Y-95918428D01*
X130218591Y-95847898D01*
X130168017Y-95685601D01*
X130168017Y-95685600D01*
X130113661Y-95595685D01*
X130095536Y-95527041D01*
X130117401Y-95459495D01*
X130172313Y-95414493D01*
X130221489Y-95404500D01*
X131805387Y-95404500D01*
X131873508Y-95424502D01*
G37*
%TD.AperFunction*%
%TD*%
%TA.AperFunction,Conductor*%
%TO.N,GND*%
G36*
X124750000Y-107500000D02*
G01*
X125045500Y-107500000D01*
X125045500Y-107555731D01*
X125045499Y-107555731D01*
X125079882Y-107684046D01*
X125104191Y-107726151D01*
X125146296Y-107799080D01*
X125146298Y-107799082D01*
X125146299Y-107799084D01*
X125450000Y-108102785D01*
X125450000Y-109500000D01*
X124371672Y-109500000D01*
X124293429Y-109460133D01*
X124293430Y-109460133D01*
X124293428Y-109460132D01*
X124293427Y-109460132D01*
X124201045Y-109445500D01*
X124201041Y-109445500D01*
X123798957Y-109445500D01*
X123706574Y-109460131D01*
X123628326Y-109500000D01*
X123000000Y-109500000D01*
X123000000Y-103400000D01*
X124750000Y-103400000D01*
X124750000Y-107500000D01*
G37*
%TD.AperFunction*%
%TD*%
M02*
